<svg id="divisor" xmlns="http://www.w3.org/2000/svg" viewBox="0 0 1716.5 188.6"><defs><style>.cls-1{fill:#c1c1c6;stroke:#000;stroke-miterlimit:10;stroke-width:8px;}</style></defs><path class="cls-1" d="M1721.2,151.5V-5.6H-4V133.8A45.5,45.5,0,0,0,22.4,145a44.4,44.4,0,0,0,19.4-3.1,45.5,45.5,0,0,0,17.7-16c7.6-12.2,6.5-25.2,6-31.3a54.3,54.3,0,0,0-.8-6.1c-3.4-11-6.8-22.6-10.2-35-1.4-4.9-3.3-10.8-2.2-18.3a36.6,36.6,0,0,1,5.6-14.3c1.5-2.2,6.2-7.1,11.7-6.2s7.1,5.2,7.6,6.2c2,3.5,2,7,1.7,10.5-.7,9.6-3.2,14-6.8,28.7A37.8,37.8,0,0,0,71,73.8a35.8,35.8,0,0,0,1.1,5.3,22.4,22.4,0,0,0,4.8,9.1,20.5,20.5,0,0,0,6.5,5,27.8,27.8,0,0,0,16.8,1,28.5,28.5,0,0,0,15.5-10.8,36,36,0,0,0,6.1-14.7c.9-5.5.2-9.8-.9-16.5s-2-8.4-3-15.9c-.4-2.9-.6-5.2-.7-6.8a17.9,17.9,0,0,1,9.6-17A22.8,22.8,0,0,1,141.2,10,29.8,29.8,0,0,1,165,37.2a65,65,0,0,1-12.3,40.7,84.8,84.8,0,0,0-7.3,16.8,81.1,81.1,0,0,0-3.2,15.9,40.6,40.6,0,0,0,5,17.6,43.1,43.1,0,0,0,4.7,6.7,52.3,52.3,0,0,0,22.6,8.8,56.6,56.6,0,0,0,11.6.1,48.3,48.3,0,0,0,21.1-7.2,49.8,49.8,0,0,0,9.4-7.9,36.2,36.2,0,0,0,5.7-16.5,37.5,37.5,0,0,0-2-16.1c-1.6-3.8-3.2-7.9-4.7-12.2a193.2,193.2,0,0,1-7.3-28.8,60.9,60.9,0,0,1,4.4-33.2,23.5,23.5,0,0,1,10.2-10A23.2,23.2,0,0,1,237.7,10a41.1,41.1,0,0,1,17.5,12.6,40.2,40.2,0,0,1,8.4,18.3A140.5,140.5,0,0,1,260,90.2c-1.4,7.7-2.6,15.9-3.6,24.5-.6,6.1-1.1,12-1.4,17.6,0,3.2.2,19.8,12.8,30.4a33.9,33.9,0,0,0,11.1,6.2,42.8,42.8,0,0,0,35.4-6.6,60.6,60.6,0,0,0,13-16.8,57.7,57.7,0,0,0,6.3-19.8,161.1,161.1,0,0,0-1.3-29.3,164.4,164.4,0,0,0-7.5-31.2c-1.1-2.8-9.3-25.9,2.9-40.7a26.7,26.7,0,0,1,6.5-5.7,19.3,19.3,0,0,1,23.4,13.5,34.2,34.2,0,0,1,2.1,12.6c-.1,5.7-1.6,8.7-3.2,17.4a100.7,100.7,0,0,0-1.4,10.9,30.2,30.2,0,0,0,7,19.3,31.1,31.1,0,0,0,16.2,10,34.9,34.9,0,0,0,17.2-2.6,36.2,36.2,0,0,0,12.4-9.4,42.7,42.7,0,0,0,4.6-11.6,33.6,33.6,0,0,0,1-6.4c.2-3,0-6-2.4-16.3-1.9-8.1-2.3-8.7-2.3-11.3a25.3,25.3,0,0,1,2.7-11.3,22.3,22.3,0,0,1,12.3-7.9,22,22,0,0,1,13.9,1.2,16.1,16.1,0,0,1,5.4,5.4c1.3,2.1,2.4,5.1,2.3,17.3,0,2.5-.1,6.1-.3,10.5-.1,1.4,0,13,8.7,18.9a17.7,17.7,0,0,0,7,2.9,24.4,24.4,0,0,0,14.4-2.8,23.9,23.9,0,0,0,9-8.8,28.1,28.1,0,0,0,3.3-9.6,35.3,35.3,0,0,0,.3-12c-.2-1.4-.5-3.5-.9-6-.7-5.5-.6-6.8-.3-7.9a11,11,0,0,1,3-5.5,12.6,12.6,0,0,1,9.2-3.5A31.8,31.8,0,0,1,515,33.1a31.2,31.2,0,0,1,10.3,19.4,84.7,84.7,0,0,1-2,23.2A129.2,129.2,0,0,1,518,92.2c-1.7,4.5-3.2,8.2-4.4,10.8a100.3,100.3,0,0,0-8,25.7,98,98,0,0,0-1.3,17.8,35.3,35.3,0,0,0,8.4,15.4,32.9,32.9,0,0,0,13.7,8.6,46.6,46.6,0,0,0,18.4,4,51.8,51.8,0,0,0,30.9-10.4,47.9,47.9,0,0,0,9.8-10.5,41.1,41.1,0,0,0,6.1-24,61.2,61.2,0,0,0-4.5-19.5,69,69,0,0,0-12.4-19.9,92.2,92.2,0,0,1-8.1-12.7c-4.3-7.9-7.4-13.7-8.1-21.4a37.7,37.7,0,0,1,3.4-19.3,18.9,18.9,0,0,1,18.7-8.1c8.2,1.5,12.2,8.3,12.8,9.3a18.2,18.2,0,0,1,2.7,10.3c-.1.9-.3,2.9-3.8,10.5-1.6,3.3-3,6.1-4,7.9a27.7,27.7,0,0,0,1.5,18.5,26.9,26.9,0,0,0,11.1,12.4,32.4,32.4,0,0,0,34.8-5.8A29.5,29.5,0,0,0,645.4,75a29.3,29.3,0,0,0-.9-13.4c-.6-1.1-7.5-14.5-.6-26.3a23.3,23.3,0,0,1,8.7-8.4,29.5,29.5,0,0,1,14.4-2c16.1,1.8,24.6,16.5,25.6,18.4a76.3,76.3,0,0,1,5.9,25,78.5,78.5,0,0,1-3.6,29.4c-1,3.8-2.4,8.7-4,14.5-3.5,13-4.4,16.2-5,21.3a72.3,72.3,0,0,0-.2,14.9,34.3,34.3,0,0,0,23.1,26.5c3.9,1.8,13.3,5.7,24.8,3.4a38.6,38.6,0,0,0,10.4-3.8,43.7,43.7,0,0,0,14.4-20.3,45.2,45.2,0,0,0,2.2-17.9,147.5,147.5,0,0,0-2.7-19.8,141.1,141.1,0,0,0-8.3-26.3,84.5,84.5,0,0,1-2.1-16.3c-.2-5.9-.4-12.8,2.1-20.7a47.3,47.3,0,0,1,13.7-20.7c3.5-3.3,10.3-8.9,20.7-9.7a34.2,34.2,0,0,1,20,4.8,32.5,32.5,0,0,1,5.6,10.3c3.6,11.2-.3,21.2-1.6,24.3-2.5,7.2-4.3,13.3-5.5,18-3,11.5-3,15.4-2.8,18.3a36.8,36.8,0,0,0,3,12.5,38.3,38.3,0,0,0,14.2,13.6,39.2,39.2,0,0,0,14.3,4.4,32,32,0,0,0,16.9-4.4,31.3,31.3,0,0,0,10.6-10.4,31.7,31.7,0,0,0,1.6-32.8l-2.1-7c-3.3-10.3-4.6-12.5-5.1-16.4a27,27,0,0,1,2.5-14.5,34.9,34.9,0,0,1,13.2-13.7,33.9,33.9,0,0,1,20.1-4.5,34.1,34.1,0,0,1,18.4,12.8,34.5,34.5,0,0,1,6.5,17.2,129.1,129.1,0,0,1-2.4,18.2c-1.6,7.9-3.3,12.4-3.7,20.4a59.2,59.2,0,0,0,.3,10.9,28.5,28.5,0,0,0,11.5,14.8,27.8,27.8,0,0,0,15.5,4.3,34.3,34.3,0,0,0,17.5-5.2,35,35,0,0,0,11-11.2,57.6,57.6,0,0,0,4.8-13.8,63.3,63.3,0,0,0,1.5-14.4A49,49,0,0,0,968.5,68c-1.4-5.4-3.1-7.3-3.2-11.9a20.2,20.2,0,0,1,1-7.4,23,23,0,0,1,5.8-6.3c3.1-2.2,6-3,10.1-4a58.8,58.8,0,0,1,11.7-1.6A42.7,42.7,0,0,1,1036,70.6a129.6,129.6,0,0,1-.9,26.5,128.2,128.2,0,0,1-6.5,26.5,39.5,39.5,0,0,0,4.9,45.9,43.7,43.7,0,0,0,14.7,7.5,43,43,0,0,0,15.7,1.5,51.8,51.8,0,0,0,20.5-10.5,50.6,50.6,0,0,0,11.2-13.5,67.2,67.2,0,0,0,6.1-20.9,68.6,68.6,0,0,0-2.2-28c-1-3-2.5-7.3-3.9-12.6-2.6-9.3-4.2-15.2-4.2-22.7a57.1,57.1,0,0,1,2.6-16,32.4,32.4,0,0,1,11.1-13,33.4,33.4,0,0,1,18.9-5.6,22.6,22.6,0,0,1,14.6,8.7,21.8,21.8,0,0,1,4.1,16.4c-1,2.4-2.7,6-4.8,10.4-3.3,6.6-4.6,8.7-5.8,12.6a37.8,37.8,0,0,0-1.4,11.7c.4,2.2,2.5,12.1,11.7,18.3a27,27,0,0,0,13.5,4.7,28.9,28.9,0,0,0,19.1-9c7.8-8.5,7.2-19.8,7-23.7a71,71,0,0,0-3.3-16.1c-1.6-5-3.4-8.4-3.4-13.8a25.3,25.3,0,0,1,1.5-8.4,21.9,21.9,0,0,1,13.1-9.3,22.2,22.2,0,0,1,17.1,3.6A42.7,42.7,0,0,1,1217.8,57c6.5,15.4,1.3,29.8-.2,33.4s-2.1,8.5-3.8,14.8c-2.4,9.3-3.2,11.7-3.7,15.7a52.3,52.3,0,0,0,.5,17.4,35.1,35.1,0,0,0,11.5,18.2,34.6,34.6,0,0,0,14.6,7,37.3,37.3,0,0,0,36.9-15.1,52.8,52.8,0,0,0,.9-44.3,72.1,72.1,0,0,1-5.6-43.4c.5-1.6,3.4-11.3,13.3-16.3a27.2,27.2,0,0,1,17.1-2.4,17,17,0,0,1,7.8,5.2c4.7,6,4.7,15.4-.2,23.8a47.2,47.2,0,0,0-8.8,18,28.6,28.6,0,0,0-.6,12.1,27.2,27.2,0,0,0,2.7,6.8,23.4,23.4,0,0,0,8.9,6.5,23,23,0,0,0,10.9,1.5,24.4,24.4,0,0,0,10.3-6.6,24.7,24.7,0,0,0,5.4-8.8,30.8,30.8,0,0,0,0-21.3,38.7,38.7,0,0,1-2-10c-.2-4.4-.6-9.7,2.4-14.9,3.8-6.8,10.8-9.2,13.1-9.8l4.9-1.8c5.9-1.7,9.1-2.7,12-1.2s4,4.7,4.5,6.5a16.2,16.2,0,0,1-1.3,12.2c-.5,1.8-1.6,5.1-2.8,9-1.9,6-2.4,7.4-2.5,9.4a21.6,21.6,0,0,0,1.9,10.6,22.9,22.9,0,0,0,9.9,8.3,24,24,0,0,0,10.1,1.6,23.4,23.4,0,0,0,14.1-6.9,24,24,0,0,0,6.3-13c.1-1.6.4-4.2.7-7.5,1-12.1.6-15.7,3.6-18.9a9.7,9.7,0,0,1,5.9-3.2,8.8,8.8,0,0,1,5.2.9,16.2,16.2,0,0,1,6.2,8.3c.5,1.8.9,4.4-.9,12a96.1,96.1,0,0,1-5.1,15.1c-2,5,1-2-7.9,21.1-6.4,16.5-8.7,22-10.3,31.3l-.9,6.9a32.5,32.5,0,0,0,22.5,29.5,36.9,36.9,0,0,0,21.6-.7,36.5,36.5,0,0,0,15.5-10.5,45.4,45.4,0,0,0,8.3-14.4c2.2-6.3,2.3-11.3,2.5-16.8.3-9.3-1.1-16.9-2.3-23.3s-1.6-6-2-9.5a52.8,52.8,0,0,1,2.7-22.1c2-6.6,3.2-10.4,7-13.8a20.7,20.7,0,0,1,8.5-4.5,19.3,19.3,0,0,1,12.8,6.1c4.9,5.6,4.5,12.5,4.3,15.5s-.7,4.3-3.1,11.2c-6.1,17.9-7,22.2-7.4,26.6a52.5,52.5,0,0,0,.4,10.9,29.7,29.7,0,0,0,10.8,14,29.1,29.1,0,0,0,14.9,5,35.9,35.9,0,0,0,20.7-6.5,35,35,0,0,0,11.8-14.2,60.9,60.9,0,0,0-2.9-37.8c-2.8-6.8-4.7-23.2,3.4-36.2,1.9-3.1,5.8-8.1,13.6-12.2,11.5-2.3,22.1,1.5,26.3,9a16.2,16.2,0,0,1,2,9.9,72.9,72.9,0,0,1-2.4,10.8c-3.3,10.7-7.1,14.6-8,23.2a33.5,33.5,0,0,0,.5,10.3,30.3,30.3,0,0,0,12.6,17.1,29.5,29.5,0,0,0,19.8,4.3,31.4,31.4,0,0,0,22.7-23.9,74.3,74.3,0,0,0,.5-21.3c-.6-4.9-1.9-10.3-3.9-18.9-.8-3.4-1.5-6.2-2-8.1-3.2-11-.1-21.6,7-26.1a17.2,17.2,0,0,1,11-2.3,27.4,27.4,0,0,1,16.2,9.5c8,9.8,5.7,21.5,5.4,23.1a92.3,92.3,0,0,1-4.9,16.5,93.6,93.6,0,0,1-5.9,12.2c-3,5.6-7.1,13.7-11.5,24.1a63.8,63.8,0,0,0-5.8,40.6,37.3,37.3,0,0,0,8.5,14.4,39,39,0,0,0,11,7.9,43,43,0,0,0,18.1,2.3,44,44,0,0,0,15-3.9,73.9,73.9,0,0,0,13.7-10.3,75.3,75.3,0,0,0,8.3-9.6"/></svg>