<svg xmlns="http://www.w3.org/2000/svg" viewBox="0 0 629.1 485.8"><g fill="#c1c1c6"><path d="M4 465a86 86 0 0 0 15 1l16-1 7 1h24l31-1 31 1 121 5 121 10 60 4h61l59-4a127 127 0 0 0 16-2 141 141 0 0 1 14-3l30-6a25 25 0 0 0 6-3 50 50 0 0 1 7-3l-1-1a43 43 0 0 1-7-1 25 25 0 0 0-7 0l-15 2-15 2a108 108 0 0 1-15 0l-29 1-30 1-60-2-60-3-121-10c-40-4-80-6-120-5l-62 4-31 3-7 1-8 2-16 1a84 84 0 0 0-15 2c-1 0-2 3 0 4z"/><path d="M69 455a9 9 0 0 0 6 1l4-1 7-1-4-11-1 1a6 6 0 0 0-2 4 6 6 0 0 0 2 5 6 6 0 0 0 6 0h1a6 6 0 0 0-5-10l-6 1-4 1-2 1-1 1h1a4 4 0 0 1-1 0h1a5 5 0 0 0-3 1 5 5 0 0 0-1 2 5 5 0 0 0 2 5z"/><path d="M64 455a14 14 0 0 0 4 2h6l10-1a72 72 0 0 0 11-2l9-3a192 192 0 0 0 20-8l3-1c1 0 0 0 0 0h1l5-2 10-4a10 10 0 0 0 3-1h-1l1-1 5-2a249 249 0 0 1 9-3l19-6 39-10 46-7-5 1 23-4-5 1 14-2-5 1c17-2 35-3 53-1l-5-1a179 179 0 0 1 45 13l-5-2c15 6 29 14 43 22l20-35h-1a21 21 0 0 0-15-2c-5 1-10 5-12 9-3 5-4 10-2 16 1 4 4 9 9 11l1 1a21 21 0 0 0 15 2c5-2 10-5 12-9 2-5 3-11 2-16-2-5-5-9-9-12-23-12-46-25-71-31-27-8-56-6-84-1a260 260 0 0 0-37 9l-36 12c-12 4-25 7-37 13a275 275 0 0 0-33 16l-16 10a92 92 0 0 1-9 4l-2 1c-1 0 1 0 0 0h-1l-4 2-18 6-18 7-5 2a16 16 0 0 0-2 3 2 2 0 0 0 0 3z"/><path d="M361 384c-1-1 0 0 0 0l1 1 1 2 6 4 9 4 8 6 9 6-4-3a41 41 0 0 0 5 3l2 2 4 2 8 5 16 10-4-3a68 68 0 0 1 10 11 70 70 0 0 0 14 12 654 654 0 0 0 57 27 147 147 0 0 0 14 5 37 37 0 0 0 4 1 41 41 0 0 0 6 1 23 23 0 0 0 11-3 19 19 0 0 0 9-21c0-2 5 6-2-5a34 34 0 0 0-3-4 37 37 0 0 0-4-4l-5-2h-4l-4-2-8-3-16-6 5 2-24-10-20-12 4 3-10-11a60 60 0 0 0-9-8 71 71 0 0 0-7-4l-7-4-10-4-15-6c-6-2-13-3-20-3h4-5 4l-15-2a37 37 0 0 0-6 0l-8 2c-2 0-4 3-4 5 0 3 1 5 3 6z"/><path d="M542 451c0 3 3 6 5 7a36 36 0 0 0 3 3 17 17 0 0 0 3 2c3 0 5-1 7-3a6 6 0 0 0 0-6c-3-6-9-8-16-10a6 6 0 0 0-7 4c-1 3 0 7 2 8a279 279 0 0 0 25 9l6 1a9 9 0 0 0 5-3l-3 2h4l6 1-2-1a5 5 0 0 0 1 2 5 5 0 0 0 3 0l4 1a75 75 0 0 0 8 1 5 5 0 0 0 1-11 61 61 0 0 0-7-1h-2a29 29 0 0 0-5-1l-13 1h-3a6 6 0 0 0-1 0h1-2l-8-1-13-1h-12l-7 2c-2 2-4 4-4 7a8 8 0 0 0 2 7c5 4 12 4 18 4a129 129 0 0 0 16-1l6-1a14 14 0 0 0 4-2c1 0 1-1 0 0-1 0 0 0 0 0l1-1 13-1h5l2-1h-1a8 8 0 0 1 1 0 38 38 0 0 1 8 1v-11l-7 1h-4a7 7 0 0 0-3 0 4 4 0 0 0-1 1c-1 0-1 0 0 0h2l-5-1-2-1a20 20 0 0 1-2-1l2 3a9 9 0 0 0-3-5l-5-2-8-2-8-3-3-2c-1 0 0 0 0 0a9 9 0 0 0-1 0l-2-1-5 12a43 43 0 0 1 7 2c1 0-1-1 0 0a16 16 0 0 1 1 0c0 1 1 1 0 0l1 1a12 12 0 0 1 1 1l6-10-3-1h-1v-1l-6-2a5 5 0 0 0-5 4zm-437 5 1 1c1 0 1 0 0 0h1a13 13 0 0 0 2 1l5 2-2-1a49 49 0 0 0 5 1l3 1-4-1a20 20 0 0 0 8 2h5l7 1-5-1 6 2a52 52 0 0 0 11 0l13-1 26-1 52 2 102 10 58 2a21 21 0 0 0 14-6c3-3 6-9 6-14-1-5-2-10-6-14a20 20 0 0 0-14-6c-35 1-69-2-103-6-34-3-68-7-103-7l-29 1-14 1a93 93 0 0 0-12 2l-11 4 5-2-7 2-3 2h-2a19 19 0 0 0-7 4l3-2-6 4a21 21 0 0 0-5 3v1-1a21 21 0 0 0-2 1c-5 3-4 12 2 13z"/><path d="m396 471 7 2 9 1 4 1 16 1 30 3a102 102 0 0 0 22-1l5-2a15 15 0 0 0 5-6 10 10 0 0 0 3-4 15 15 0 0 0 1-7 23 23 0 0 0-2-10c-3-5-7-8-12-9a256 256 0 0 1-24-9l4 2a252 252 0 0 1-23-12l-23-13a166 166 0 0 0-54-18c-19-3-38-4-58-6-17-1-34-2-52-1a201 201 0 0 0-32 3 128 128 0 0 0-31 11l-4 3-3 4-2 5a15 15 0 0 0-1 8 19 19 0 0 0 4 9 10 10 0 0 0 4 3 15 15 0 0 0 6 4l15 3a84 84 0 0 0 10 1h21a661 661 0 0 1 68 4l-6-1 38 7a183 183 0 0 0 24 4 155 155 0 0 0 16 0 105 105 0 0 1 18 0l-5-1a39 39 0 0 1 10 3l-5-2a31 31 0 0 1 6 3l10-37c-23 0-46-1-68-3l-20-2h6c-21-2-42-7-63-11q-17-4-35-6l-16-1a80 80 0 0 0-15 0 67 67 0 0 0-9 1 55 55 0 0 0-8 3 39 39 0 0 0-8 5 82 82 0 0 0-12 12 22 22 0 0 0-6 14c0 5 2 11 6 14s9 6 14 6 10-2 14-6a72 72 0 0 1 10-10l-4 3a29 29 0 0 1 6-4l-4 2a27 27 0 0 1 6-2l-5 1h17l17 2-6-1c23 3 46 9 68 13a577 577 0 0 0 75 8l40 2 5-1a15 15 0 0 0 7-4 19 19 0 0 0 7-10 23 23 0 0 0 0-10 22 22 0 0 0-9-12 49 49 0 0 0-11-5 37 37 0 0 0-6-2 89 89 0 0 0-19-2h-14a105 105 0 0 1-17 0h6l-29-5a373 373 0 0 0-93-9h-16a116 116 0 0 1-16 0h5a40 40 0 0 1-9-2l5 36 4-2-4 2a120 120 0 0 1 30-8l-5 1c15-2 29-2 44-2a1495 1495 0 0 1 73 6l-6-1c15 2 29 5 43 11l-5-2c11 4 21 11 32 17a289 289 0 0 0 37 18l20 7v-38h-4l5-1c-11 2-22 0-33-1l-17-2-9-1h-13 5-7c-5 0-10 2-13 5l-3 4a14 14 0 0 0-2 7 9 9 0 0 0 0 5 14 14 0 0 0 2 7c2 4 6 7 11 8z"/></g><path d="M2 461c43 3 84-12 122-30 40-19 78-40 120-52a325 325 0 0 1 64-11c22-1 45-1 66 3s40 13 58 23a735 735 0 0 0 118 56c20 8 42 15 63 14a70 70 0 0 0 16-2v-1a165 165 0 0 1-33-4 260 260 0 0 1-32-10 651 651 0 0 1-60-26c-19-9-39-19-58-30-18-10-36-21-57-27s-43-7-65-7a334 334 0 0 0-127 28l-58 29A328 328 0 0 1 2 458c-3 0-2 3 0 3Z"/><g fill="#422f26"><path d="M316 74a12 12 0 0 0-1 3v5a3 3 0 0 0 1 2 3 3 0 0 0 0-2l1-3v-4l-1-1z"/><path d="m315 75-1 3v4l-1 8a2 2 0 0 0 3 0 25 25 0 0 0 1-4v-2a5 5 0 0 0 0-2 1 1 0 0 0-2 0 6 6 0 0 0 0 2l-1 2-1 3 3 1 1-8v-3l-1-4a1 1 0 0 0-1 0z"/><path d="M315 82a92 92 0 0 0-2 9v5a23 23 0 0 0-1 4h2V86l-1-1-1 4v6l-1 11 2-1a1 1 0 0 0-1 0 2 2 0 1 0 2 1l1-11v-5c0-2 1-4-1-5 0-1-2 0-1 1l1 4v3l-1 3v4c-2 1 1 3 2 1a24 24 0 0 0 0-5v-4a94 94 0 0 0 0-10z"/><path d="M314 85a67 67 0 0 0-2 7l-1 6a110 110 0 0 0-1 14c0 2 3 2 3 0l1-14V85Z"/><path d="m312 101-1 6v12l1 6h3a8 8 0 0 0 0-4v-2l-1-6v-6l-2-6z"/><path d="M312 102v15l1 5a1 1 0 0 0 1 0c2-2 1-4 1-5v-5a33 33 0 0 0-1-5l-1-5h-1z"/><path d="m311 106-2 16v16c1 1 3 2 4 0a40 40 0 0 0 0-8v-24h-2z"/><path d="M313 121a59 59 0 0 0-1 13v6l1 7a2 2 0 0 0 3-1 18 18 0 0 0 0-3v-3l-1-6-2-13z"/><path d="M312 129v4l-1 4v16l1 4v4h3l1-4-1-4v-16l-1-4v-4a1 1 0 0 0-2 0z"/><path d="M310 135a20 20 0 0 0-1 4v13l1 9v4l1 2a3 3 0 0 0 1 2 2 2 0 0 0 3 0v-9l-1-8-1-9-1-4a10 10 0 0 0-1-2l-1-2z"/><path d="M314 155a14 14 0 0 0-2 7l1 8v12a18 18 0 0 0 0 4c0 2 4 3 5 1a9 9 0 0 0 0-4v-13l-1-8a13 13 0 0 0-3-7z"/><path d="M312 170a10 10 0 0 0 0 1 16 16 0 0 0-1 3l1 4v7a9 9 0 0 0 0 3 2 2 0 0 0 4 0 8 8 0 0 0 0-3v-2l-1-5v-5a12 12 0 0 0-1-2 14 14 0 0 0-1-1h-1z"/><path d="m311 166-1 3v5l1 9v14l1 5a2 2 0 0 0 3 0l1-5v-14a84 84 0 0 0-2-9l-1-5-1-3h-1z"/><path d="M313 187v22a3 3 0 0 0 1 3 2 2 0 0 0 2 0 3 3 0 0 0 2-3v-3l-1-6-1-7-2-6h-1z"/><path d="m317 184-1 2a12 12 0 0 0 0 2l-1 6v10l-1 10v5l1 5a2 2 0 0 0 4 0l1-5v-15l-1-10v-5a14 14 0 0 0-1-3l-1-2z"/><path d="m316 199-2 5-1 5a94 94 0 0 0-1 9v15c0 1-1 3 1 4 2 2 5 1 4-2v-8l1-9v-9l-1-5v-4a1 1 0 0 0-1-1z"/><path d="M318 218c-2 2-2 5-2 7l-1 4v17a10 10 0 0 0 1 4c1 2 4 2 5 0l1-8-1-8-1-8-2-8z"/><path d="M318 238a6 6 0 0 0 0-1 2 2 0 0 0-3-2l-1 5-1 4v5a17 17 0 0 0-1 5 2 2 0 0 0 2 2 2 2 0 0 0 3-2 10 10 0 0 0 0-3v-6l1-4v-3a5 5 0 0 0 0-2l-1 2h1-2 1a1 1 0 0 0 1 0z"/><path d="M315 243a54 54 0 0 0-1 13v6l1 7v-2a2 2 0 0 0 1 2 2 2 0 0 0 3-1l-1-6v-6l-1-12-2-1z"/><path d="M317 248a7 7 0 0 0-1 3v4l-1 8v7l-1 4 1 3a2 2 0 0 0 2 1c2-1 2-5 2-7l1-8v-7l-1-4a8 8 0 0 0 0-2 10 10 0 0 0-1-2 1 1 0 0 0-1 0z"/><path d="m315 265-1 5v4l-1 10v14a11 11 0 0 0 0 5 2 2 0 0 0 4 0 11 11 0 0 0 0-5v-14l1-9v-10h-3z"/><path d="M318 274a7 7 0 0 0 0 2l-1 3v15a2 2 0 0 0 3 0l1-5v-5l-1-5v-3a7 7 0 0 0-1-2h-1z"/><path d="M314 264a18 18 0 0 1 0 3v10l1 13h1c2-4 1-9 1-14a60 60 0 0 0 0-7 14 14 0 0 0-1-3 24 24 0 0 0-2-3v1zm4 24-1 3v3l-1 7v7l1 7a2 2 0 0 0 2 0l1-7v-14l-1-3-1-3z"/><path d="M316 295a11 11 0 0 0-1 3 32 32 0 0 0 0 5l-1 8v9l1 8a2 2 0 0 0 3 0l1-8v-17a38 38 0 0 0-1-4 11 11 0 0 0-1-4h-1z"/><path d="M317 312a9 9 0 0 0-1 4v4l-1 8-1 9v9c0 2 4 2 4 0v-9l1-9a66 66 0 0 0 1-8 26 26 0 0 0-1-5 7 7 0 0 0-2-3z"/><path d="M317 337a7 7 0 0 1-1 2v2a53 53 0 0 0-1 5v6a39 39 0 0 0 0 5 2 2 0 0 0 2 3 2 2 0 0 0 2-2 42 42 0 0 0 1-6v-6a44 44 0 0 0-1-6 10 10 0 0 0-1-2l-1-2v1z"/><path d="M315 344c-2 1-2 3-2 5l1 6v12a2 2 0 0 0 5 0v-13a41 41 0 0 0-1-7 6 6 0 0 0-1-2l-2-1z"/><path d="m316 358-1 10v11a2 2 0 0 0 3 0l1-3 1-3a34 34 0 0 0 0-5 32 32 0 0 0-3-10h-1z"/><path d="m316 366-1 1a2 2 0 0 0 0 1 6 6 0 0 0-1 2v1a25 25 0 0 0 1 2c0 1 1 3 2 2l2-2a18 18 0 0 0-1-3v-1a7 7 0 0 0 0-1 4 4 0 0 0-1-1 1 1 0 0 0-1-1Z"/><path d="M315 370a3 3 0 0 0 0 1 5 5 0 0 0-1 1 6 6 0 0 0 0 1v1a3 3 0 0 0 1 2 2 2 0 0 0 1 1 2 2 0 0 0 1-1 3 3 0 0 0 2-1 8 8 0 0 0 0-1v-1a6 6 0 0 0 0-1v-1a4 4 0 0 0-1-1 2 2 0 0 0-2-1 2 2 0 0 0-1 1z"/><path d="M318 375a3 3 0 0 0 0 1 3 3 0 0 0 0 1h1a2 2 0 0 0 0-1v-1h-1z"/></g><g fill="#3aaa3d"><path d="M313 67a1 1 0 0 0-1 1 2 2 0 0 0 0 1 1 1 0 0 0 2 1 1 1 0 0 0 1-1 7 7 0 0 0 0-2 2 2 0 0 0-1-1 1 1 0 0 0-2 1v3a3 3 0 0 0 1 1 6 6 0 0 0 1 1l1 2a3 3 0 0 0 2 0 2 2 0 0 0 1 0 2 2 0 0 0 1-1v-1a2 2 0 0 0-1-1 2 2 0 0 0-2 0h2a1 1 0 0 1-1 0h1l-2-1-1-1a7 7 0 0 1 0-1l-1-1-2 1a8 8 0 0 0 0 1l2-1v-1 1a1 1 0 0 0 0-1h-1s1 0 0 0z"/><path d="M289 38a5 5 0 0 0 1 3l2 2 4 4a86 86 0 0 1 6 7 79 79 0 0 1 6 8l2 5v1a4 4 0 0 1 1 0 29 29 0 0 0 1 4 4 4 0 0 0 8-4 31 31 0 0 0-3-5l-2-5a103 103 0 0 0-7-9 84 84 0 0 0-7-7l-4-4-2-2a10 10 0 0 0-1 0 3 3 0 0 0-2-1c-2 0-4 1-3 3z"/><path d="M291 36a2 2 0 0 0 1 3l4-2 3-3 7-6 6-6 1-1 1-1 1-1 2-2 4-2h1l1-1a34 34 0 0 1 4-1h2l1-1a11 11 0 0 1 3 0 3 3 0 0 0 1 0s-1 0 0 0h1c1 1-1 0 0 0l1 1c1 0 0 0 0 0 1 1 0-1 0 0l1 2 1 1a3 3 0 0 1 0 1 91 91 0 0 1 5 19l8-6a4 4 0 0 0-1 0c-1 0-1 0 0 0-3-2-7 0-7 4a7 7 0 0 0 2 4 5 5 0 0 0 6 1 5 5 0 0 0 2-6 89 89 0 0 0-5-18c-2-4-3-7-6-9a15 15 0 0 0-9-4c-6 0-12 2-18 5a59 59 0 0 0-14 11 44 44 0 0 0-7 9 36 36 0 0 0-2 6c-1 1-2 3-1 5l1-3h1a1 1 0 0 0-2 1z"/><path d="M316 67c3 2 7-1 9-3l9-8 15-18c2-2 2-5 0-7s-5-2-7 0l-14 17-4 4-2 3-1 1a29 29 0 0 0-4 5l-1 3a4 4 0 0 1-1 1 1 1 0 0 0 1 2z"/><path d="m319 60 3-2h1a10 10 0 0 0 1-2l5-5 9-10 4-5c2-2 4-5 3-8l-2-15c0-2-2-3-4-4a5 5 0 0 0-5 3 27 27 0 0 0-2 23 5 5 0 0 0 5 4 5 5 0 0 0 4-5l-1-22a5 5 0 0 0-9-1l-6 19c-2 6-5 12-5 19a5 5 0 0 0 3 4c2 1 4 1 5-1a17 17 0 0 0 4-9v-8l1-2s0-1 0 0v-1a89 89 0 0 1 3-13c1-3-1-6-4-7-9-1-13 9-16 16a123 123 0 0 0-8 24 5 5 0 0 0 2 5 5 5 0 0 0 5 1c4-3 5-7 6-10l4-10 7-20c1-3 0-5-2-6a5 5 0 0 0-7 2 89 89 0 0 0-14 42c0 3 3 6 6 4a15 15 0 0 0 7-4 5 5 0 0 0 1-6 30 30 0 0 1-2-2s0-1 0 0v-1a27 27 0 0 1-1-5 5 5 0 0 0-5-4 5 5 0 0 0-5 4 38 38 0 0 0 0 22 5 5 0 0 0 5 3c3 0 5-2 5-5a47 47 0 0 0-13-26 5 5 0 0 0-6-1c-2 2-3 5-1 7a49 49 0 0 1 5 9l8-6-12-15-7 7a70 70 0 0 1 7 8c3 4 10 0 8-5l-2-7a22 22 0 0 0 0-4v1a2 2 0 0 0 0-1s-1 1 0 0a3 3 0 0 1-2 2 2 2 0 0 1-1 0 2 2 0 0 1-2 0h-1c0-1 0 0 0 0l1 1 2 3 4 7a5 5 0 0 0 9-4l-5-14-9 4 7 10a5 5 0 0 0 8 1c3-2 4-6 4-10v-8l1-1-10-1a11 11 0 0 0 1 5 5 5 0 0 0 4 2 5 5 0 0 0 5-2 38 38 0 0 0 5-11c2-4-3-8-7-5a89 89 0 0 0-11 8c-3 3-7 7-7 11-1 2 0 5 2 6a5 5 0 0 0 6-1l5-5a59 59 0 0 1 2-2h1l1-1a69 69 0 0 1 12-7l-6-7-15 12a45 45 0 0 0-6 8c-3 3-5 9-1 12a5 5 0 0 0 7 0 85 85 0 0 0 9-8l1-2 2-2c1-1 0 0 0 0a4 4 0 0 0 1-1l1-3a7 7 0 0 0 1-3l-1 1a3 3 0 0 0 0-3 2 2 0 0 0-3 0l1-1c-2 0-4 2-5 3l-5 4-9 8h7a3 3 0 0 1 0 1 2 2 0 0 1 1 2s0-1 0 0v-1a32 32 0 0 1 0-1l2-2v-1a17 17 0 0 1 3-3l3-2 13-11a5 5 0 0 0 0-7c-2-2-4-2-6-1a73 73 0 0 0-23 16l8 5a12 12 0 0 1 0-1c0-1 0-1 0 0l1-1c1 0 0-1 0 0a15 15 0 0 1 1-1l4-4 4-4c1-1 0 0 0 0l2-1 2-2-7-5-1 1s0 1 0 0a47 47 0 0 1-1 3 33 33 0 0 1-3 4h9c0 1 0 0 0 0a5 5 0 0 0-10-2l-1 11v2s0 1 0 0v2s0-1 0 0a5 5 0 0 1-1 0l8 1-7-10a5 5 0 0 0-6-2 5 5 0 0 0-3 6l4 14 9-4-5-9a21 21 0 0 0-3-4 6 6 0 0 0-8-1c-3 2-4 6-3 10l3 10 8-5a71 71 0 0 0-7-7c-2-2-5-3-7 0a5 5 0 0 0 0 7l12 14c1 2 5 2 6 0 2-1 3-4 2-6a50 50 0 0 0-6-9l-8 6 3 2c0 1 0 1 0 0v1a35 35 0 0 1 1 1 41 41 0 0 1 3 5l1 2c-1-1 0 0 0 0a39 39 0 0 1 1 3v3l1 2s0 2 0 0l10-1a34 34 0 0 1-1-5c0 1 0 1 0 0l-1-1v-2l1-3v-1a44 44 0 0 1 1-4h-10a32 32 0 0 0 4 10l1-6-1 1a3 3 0 0 1-1 1s-2 0 0 0l6 5v-5l1-5a82 82 0 0 1 3-10 97 97 0 0 1 2-4v-1l1-1 1-2a85 85 0 0 1 5-9l-9-4-7 19-4 9-1 5-1 1c0 1 0-1 0 0v1-1l8 6a117 117 0 0 1 6-21v-2a81 81 0 0 1 5-9 8 8 0 0 1 1-1 4 4 0 0 1 1 0h-1c1 0 0 0 0 0l-4-6a105 105 0 0 0-3 17l-1 8v2c0 1 0-1 0 0v1a9 9 0 0 1-1 1s1-1 0 0c0 0 0 1 0 0l9 4a26 26 0 0 1 0-3c0-1 0 1 0 0v-1l1-4 3-9 6-19-10-1 1 22 10-1a14 14 0 0 1-1-5c0 1 0 0 0 0v-4a6 6 0 0 1 0-1 24 24 0 0 1 1-3v-1c0 1 0 0 0 0a22 22 0 0 1 2-2l-9-2 1 14a3 3 0 0 1 1-1l-3 3-4 4a134 134 0 0 0-8 11l-4 6a37 37 0 0 0-2 6c-1 3 2 4 4 3z"/><path d="M326 19a14 14 0 0 0-4 6 53 53 0 0 0-3 8l-3 8a69 69 0 0 0-2 9c0 2 2 4 4 4a4 4 0 0 0 4-3 59 59 0 0 0 2-8l2-8a61 61 0 0 0 1-8 31 31 0 0 0 0-4v-4h-1z"/></g><g fill="#38a038"><path d="M321 69a6 6 0 0 0 3 0s2-1 0 0h2a7 7 0 0 0 1-1 28 28 0 0 0 3-1 45 45 0 0 0 7-3 96 96 0 0 0 13-11l12-12 3-3 1-1h1l1-1a52 52 0 0 1 7-4l2-1c-1 0-1 0 0 0l1-1a50 50 0 0 1 5-1l10-2c3 0 5-4 4-6-1-3-4-4-6-4l-18 5a60 60 0 0 0-15 10l-24 22-2 2h-1v1l-1 1h-1l-2 2-4 2-1 1c1 0 0 0 0 0a7 7 0 0 0-2 2 2 2 0 0 0 1 4Z"/><path d="m392 23 3-1 2-1 5-2c2-1 2-4-1-4l-2 1h-2a35 35 0 0 0-5 0l2 5a14 14 0 0 1 6-2l-1-4a28 28 0 0 1-3 3l-4 2-3 2a17 17 0 0 1-2 2 10 10 0 0 0-2 1l-14 10c-9 6-17 13-27 18l-4 2-2 1h-1c-1 1 1 0 0 0a86 86 0 0 1-9 3l6 8v-1a5 5 0 0 0 0-5 4 4 0 0 0-3-2h-1a5 5 0 1 0 1 10 71 71 0 0 0 16-6 123 123 0 0 0 14-9l13-9 15-12 1-2 2-2 4-3 3-4 3-3a2 2 0 0 0-2-4 18 18 0 0 0-9 2c-2 1 0 5 2 4l4-1a29 29 0 0 1 4-1v-4a50 50 0 0 0-6 3l-2 1a17 17 0 0 0-2 2 1 1 0 0 0 1 2z"/><path d="M360 49h1a22 22 0 0 0 3-2l5-3 5-4 2-1c1 0 0 0 0 0 2-1 4-1 4-3s0-3-2-4a4 4 0 0 0-3 0 14 14 0 0 0-2 1 25 25 0 0 0-3 2l-6 5a55 55 0 0 0-5 5 4 4 0 0 0-1 3l1 2a1 1 0 0 0 1-1z"/><path d="M360 44a6 6 0 0 1-2 1h1l-2 3 6-3h1c-1 0-1 0 0 0l1-1 2-2 3-1 1-1c1 0 0 1 0 0h2a29 29 0 0 0 3-2 18 18 0 0 0 1-1 7 7 0 0 0 2-3 5 5 0 0 0-1-5 5 5 0 0 0-5-1 6 6 0 0 0-2 2v-1 1h-1l-3 1a43 43 0 0 0-5 5 26 26 0 0 0-4 5 17 17 0 0 0-2 3v3c1 2 4 1 3-1a6 6 0 0 1 1-1v-1zm-93-16a4 4 0 0 0 1 2l2 2 3 3 3 3 3 3 3-3a15 15 0 0 0-3-1 13 13 0 0 1-2-2l-5-2a8 8 0 0 1-1-2 12 12 0 0 0-2-1 3 3 0 0 0-3-1v1l2 2a10 10 0 0 0 3 3l4 3a13 13 0 0 1 2 2 15 15 0 0 0 3 2 2 2 0 0 0 2-4l-3-3-4-3-3-3-4-2c-1-1-1 0-1 1z"/><path d="m265 29 4 4 5 3 7 6a2 2 0 0 0 4-3l-9-7-5-2-5-2a1 1 0 0 0-1 1z"/><path d="M278 37a18 18 0 0 0 2 3l2 3 4 5 8 10a125 125 0 0 1 14 23c2 3 6 1 5-1-3-14-11-28-21-37a27 27 0 0 0-5-4 10 10 0 0 0-6-1l-1 1a14 14 0 0 0 2 4 31 31 0 0 0 4 4 80 80 0 0 1 7 7 67 67 0 0 1 12 16 58 58 0 0 1 3 11l5-2a117 117 0 0 0-15-23 133 133 0 0 0-9-11l-5-5-2-2a18 18 0 0 0-3-2l-1 1zm42 88h1l-2-2-1 2c-1 2 1 4 2 2l9-9a81 81 0 0 1 10-8 44 44 0 0 1 11-5 94 94 0 0 1 13-4 104 104 0 0 1 26-2l6 1s-1 0 0 0h2l4 1 12 3 7 2a106 106 0 0 1 4 1l2 1a17 17 0 0 0 2 0c-1 0 0 0 0 0h1a17 17 0 0 1 2 1l3 1a17 17 0 0 1 4 1l3 2 2-4-5-2-4-2c-2-1-4 1-3 3a13 13 0 0 0 5 5l3-5-3-1-3 5a79 79 0 0 1 20 8c2 2 5-2 3-4a45 45 0 0 0-21-9 3 3 0 0 0-2 5l4 1c2 1 4-3 2-5a8 8 0 0 1-4-2l-2 3 4 2 4 2c3 1 5-2 2-4l-5-3a16 16 0 0 0-3-2 22 22 0 0 1-3-2l-3-2a19 19 0 0 0-4-2l-6-2a90 90 0 0 0-27-4 128 128 0 0 0-27 2 90 90 0 0 0-14 3 48 48 0 0 0-12 7 79 79 0 0 0-11 10l-10 11 3 2a25 25 0 0 0 0-3 1 1 0 0 0-2-1l-1 1 2 2z"/><path d="M321 123a1 1 0 0 0-3-1c-1 2 0 3 1 3a2 2 0 0 0 2 0 11 11 0 0 0 2-5l1-6 1-1 2-1 5-3 10-6 5-3h2v-1a32 32 0 0 0 2 0c1-1 0 0 0 0l1-1a53 53 0 0 1 11-3h1c1 0-1 0 0 0h10a139 139 0 0 1 18 0l1 1s1 0 0 0h3a119 119 0 0 1 25 7l3-9a41 41 0 0 1-7-2l-1-1h-1l-4-1a38 38 0 0 0-6-4 12 12 0 0 0-9 1c-2 1-3 5-2 7a5 5 0 0 0 7 1c-1 1 0 1 0 0h1s-1 0 0 0h1s1 0 0 0h1a25 25 0 0 1 2 1 79 79 0 0 1 8 3h1a45 45 0 0 1 2 1 45 45 0 0 1 3 2 29 29 0 0 1 2 1h1l1 2h1v1l-1-3 2-3h-1l3-1h-1 4l2 4a5 5 0 0 0-5-5 5 5 0 0 0-4 5c-1 5 5 7 9 4a6 6 0 0 0 0-7 11 11 0 0 0-2-2 39 39 0 0 0-10-7 102 102 0 0 0-11-4c-5-2-10-2-14 0l5 9c-1 0-1 0 0 0 0-1 1 0 0 0h2l5 3a41 41 0 0 0 13 4c3 1 6 0 7-3s-1-5-4-6a118 118 0 0 0-48-9c-8 0-17 1-25 4s-14 8-21 13l-6 3-5 5-1 8a22 22 0 0 0 0 3v2a3 3 0 0 0 0 1v-2h2v2h-1a1 1 0 0 0 2-1z"/><path d="M430 100a6 6 0 0 0 2 3 27 27 0 0 0 2 2 19 19 0 0 0 4 3 20 20 0 0 1 3 1l1 1a22 22 0 0 1 2 2s1 1 0 0l1 2a3 3 0 0 0 4 0 3 3 0 0 0 1-4 16 16 0 0 0-9-6 22 22 0 0 1-4-2l-3-2a6 6 0 0 0-3-1 1 1 0 0 0-1 1z"/><path d="M429 107c-1 1 0 3 2 4a11 11 0 0 0 3 1h3c-1 0-1 0 0 0h1a6 6 0 0 0 1 0 3 3 0 0 0 1 0c-1 0-1 0 0 0h1a5 5 0 0 0 1-1 1 1 0 0 0 0-1 5 5 0 0 0-1-2 3 3 0 0 0-1-1 11 11 0 0 0-5-1h-2a3 3 0 0 0-1 0h1-2c1 0 0 0 0 0a2 2 0 0 0-2 1zm-94-2a3 3 0 0 0-1 0c-1 0 0 0 0 0a2 2 0 0 0-1 0 8 8 0 0 0-1 1h-1l-1 1-4 2a30 30 0 0 0-8 6 5 5 0 0 0 6 7 35 35 0 0 0 7-6 5 5 0 0 0 2-4 5 5 0 0 0-3-4 6 6 0 0 0-5 0 22 22 0 0 1-2 0h1a2 2 0 0 1-1 0h2a2 2 0 0 1-1 0l1 1a3 3 0 0 1 0-1l1 1a11 11 0 0 0-2-1 6 6 0 0 0-2-1 5 5 0 0 0-2 10 4 4 0 0 0 4-2 4 4 0 0 0 1-4 8 8 0 0 0-1-1l1 1v2l-1 1v1h-1l-1 1h-2l-1-1a2 2 0 0 1 1 0h-1a12 12 0 0 0 2 2 6 6 0 0 0 3 0h4-2l-1-1h-1v-7a70 70 0 0 1-6 6l8 5v-1 1a21 21 0 0 1 2-3l1-1h1-1l3-2 1-1a11 11 0 0 0 2-2 5 5 0 0 0 1-3c0-1 0-1 0 0a3 3 0 0 0 0-1 2 2 0 0 0-1-2z"/><path d="M322 122a2 2 0 0 0-2 0 8 8 0 0 0-1 1 7 7 0 0 0-2 4 2 2 0 0 0 3 1l2-2 1-1a5 5 0 0 0 1-2 2 2 0 0 0 1-1l-2-1h-1a4 4 0 0 0-1 1 11 11 0 0 0-1 1l-3 3 3 1a6 6 0 0 1 1-1 6 6 0 0 1 0-1h1a4 4 0 0 0 0-1 1 1 0 0 0 0-2zm-162 33 4-1a34 34 0 0 0 4-2l3-2 3-2 14-6c-1 0-1 0 0 0v-1a67 67 0 0 1 2 0 90 90 0 0 1 4-2l7-1a89 89 0 0 1 3-1h3c1-1-1 0 0 0l8-1a110 110 0 0 1 15 0l3 1h5l8 2 15 4a96 96 0 0 1 4 1l2 1 1 1a63 63 0 0 1 7 3l4 3a12 12 0 0 0 4 2h2a5 5 0 0 0 1 1s1 0 1 0a7 7 0 0 1 2 1l1 1c4 3 8 6 10 11 1 2 6 0 5-2-3-8-10-12-16-16l1 1-1-2-1-1a11 11 0 0 0 0-1 9 9 0 0 0-2-2 55 55 0 0 0-6-4 70 70 0 0 0-14-7 156 156 0 0 0-27-7c-19-3-38-2-56 6a51 51 0 0 0-7 3l-3 2-1 1-1 1-1 1a53 53 0 0 0-5 5l-3 3a36 36 0 0 1-3 2 2 2 0 0 0-1 3 2 2 0 0 0 2 1z"/><path d="M282 153a3 3 0 0 0 0 1 3 3 0 0 0 1 0 6 6 0 0 0 1 2 24 24 0 0 0 3 2l3 1 2 1a4 4 0 0 0 3 0 2 2 0 0 0 1-3 4 4 0 0 0-2-2h-2l-3-1-3-1a6 6 0 0 0-2-1 3 3 0 0 0-1 0 3 3 0 0 0 0 1v-1a1 1 0 0 0-1 1z"/><path d="M283 151a19 19 0 0 0-5-2l-4-2-9-5a4 4 0 1 0-4 8 92 92 0 0 0 11 3h11a1 1 0 0 0 0-2z"/><path d="M260 148v-1l-1-1 1-1v-1h1l1-1h1l1 1a1 1 0 0 1 0-1l1 1-1-1h-1l-1-1h-1l-1 1h-1a2 2 0 0 0 0 1 2 2 0 0 0 0 1 2 2 0 0 0 0 1 2 2 0 0 0 0 1 4 4 0 0 0 0 1h1l1 1a3 3 0 0 0 1 0h2a3 3 0 0 0 2-2v-2a1 1 0 0 0-1-1 2 2 0 0 0 0-1 2 2 0 0 0-1 0 2 2 0 0 0-2 0 2 2 0 0 0-1 0l-1 1a3 3 0 0 0 0 1l-1 1a3 3 0 0 0 1 2z"/><path d="M171 151a6 6 0 0 1 1 0h-2a5 5 0 0 0 5 1 42 42 0 0 0 5-1l8-2 9-2 4-1h4a100 100 0 0 1 18-1l9 1h3l5 1a229 229 0 0 0 15 2h3a6 6 0 0 0 4-2 4 4 0 0 0 0-6 6 6 0 0 0-4-2h-2a128 128 0 0 1-5 0l-8-1-18-2a119 119 0 0 0-46 7 39 39 0 0 0-5 2c-2 1-4 2-4 4l1-2a4 4 0 0 1-1 1c-2 1-1 4 1 3z"/><path d="M256 142a17 17 0 0 1-3-1 18 18 0 0 0-3-1l-7-2-14-4a48 48 0 0 0-6-1l-8-1a55 55 0 0 0-14 0 32 32 0 0 0-7 2l-4 2c-2 0-3 1-4 3-2 2 0 6 3 7a6 6 0 0 0 3 0l2-1 1-1h1c1-1-1 0 0 0a33 33 0 0 1 6-2h6a62 62 0 0 1 6 0h4l2 1 7 1h21a29 29 0 0 0 4 0 24 24 0 0 1 4-1 1 1 0 0 0 0-1z"/><path d="M196 148a24 24 0 0 0 6 0h7l14-1 14 1h8a3 3 0 0 0 2-1 6 6 0 0 0 1-1 7 7 0 0 0 1-1v1a2 2 0 0 0 1-1v-1a1 1 0 0 0 0-1 8 8 0 0 0-1-1 18 18 0 0 0 0-1v1l-2-2a8 8 0 0 0-2-1 32 32 0 0 0-8-1 114 114 0 0 0-14 1l-14 2-7 1-7 2a2 2 0 0 0 1 4zm128 62 9-6 9-5a128 128 0 0 1 10-5l4-1a4 4 0 0 1 2-1v1a3 3 0 0 0 3-1 3 3 0 0 0 1-3c-1-3-4-3-6-2a24 24 0 0 0-5 1l-11 5a79 79 0 0 0-9 7c-4 2-7 4-9 7-2 1 0 4 2 3z"/><path d="M324 208c-1 0 0 0 0 0a2 2 0 0 0 1 0v-1a5 5 0 0 0 1 0l1-2v1a5 5 0 0 1 0-1 4 4 0 0 0 1-1 6 6 0 0 0 1-2 3 3 0 0 0-1-2v-1a3 3 0 0 0-3-1 3 3 0 0 0-3 4v1a3 3 0 0 0 1 2 3 3 0 0 0 3 0l-4-5a4 4 0 0 0 0 1 12 12 0 0 0-1 2 4 4 0 0 0 1 1 4 4 0 0 1 0 1v-1 2a3 3 0 0 0 1 2h-1a1 1 0 0 0 2 0z"/><path d="M323 204h4a26 26 0 0 0 3-1l7-2 7-2 8-3c2-2 1-6-2-7s-6 0-9 1l-7 4a50 50 0 0 0-6 3 21 21 0 0 0-4 3c-1 0-2 1-2 3a2 2 0 0 0 1 1zm61-15-1-1c-2-2-5 2-2 3a16 16 0 0 0 2 2l3 1 5 3a58 58 0 0 1 10 6 72 72 0 0 1 8 9l4 5a23 23 0 0 1 3 5l2 8a70 70 0 0 0 3 8 2 2 0 0 0 2 2 2 2 0 0 0 2-3l-2-7-2-8-6-12a70 70 0 0 0-20-17 48 48 0 0 0-6-4 47 47 0 0 0-3-1 12 12 0 0 0-4 0l1 3 1-1v-1z"/><path d="m389 191 6 2 5 3a54 54 0 0 1 11 5c6 4 9 10 9 17a59 59 0 0 1 1 8l-1 3c0 2 0 4 2 5a3 3 0 0 0 4 0l1-4 1-4a66 66 0 0 0 0-7 36 36 0 0 0-4-13 24 24 0 0 0-8-9 58 58 0 0 0-12-6 38 38 0 0 0-7-2l-4-1a10 10 0 0 0-4 0 2 2 0 0 0 0 3z"/><path d="M398 194c0 3 3 5 5 7l6 6 1 1c-1 0 0 0 0 0l1 5a28 28 0 0 0 2 3l1 1s1 1 0 0c0-1 0-3 0 0 0 4 4 5 7 4s3-5 2-8a23 23 0 0 0-3-4c1 1 0 0 0 0l-1-1-1-2a29 29 0 0 0-3-4l-8-5-4-3a7 7 0 0 0-4-1 1 1 0 0 0-1 1z"/><path d="m405 193 3 1a18 18 0 0 1 3 2 47 47 0 0 1 5 5 12 12 0 0 1 3 6 11 11 0 0 1 0 3l1 5a3 3 0 0 0 4 0c2-1 2-3 2-5a15 15 0 0 0-1-5 17 17 0 0 0-5-7 74 74 0 0 0-6-5c-3-2-5-3-8-3v3Z"/></g><g fill="#d8d839"><path d="M474 334a10 10 0 0 0 2 6 8 8 0 0 0 6 3c6 0 9-7 6-12-3-3-8-5-12-3a7 7 0 0 0-4 6 10 10 0 0 0 3 7c4 3 9 5 13 1 4-3 1-9-2-12a21 21 0 0 0-9-6 10 10 0 0 0-11 4 10 10 0 0 0 0 11 10 10 0 0 0 11 4 11 11 0 0 0 7-8 9 9 0 0 0-1-7 18 18 0 0 0-4-4c-4-2-9-3-12-1a7 7 0 0 0-4 6 11 11 0 0 0 2 6c2 3 5 6 9 7 5 2 11-3 9-8l-4-6a41 41 0 0 0-5-4c-4-2-9-3-13-1s-7 6-7 11a12 12 0 0 0 1 6c3 4 9 4 10-1a5 5 0 0 0-3-5 9 9 0 0 0-2 0h2l2 2v2-2a5 5 0 0 1 0-1s0 1 0 0v-1s0 1 0 0v-1l1-1s-1 1 0 0c0 0-1 1 0 0a6 6 0 0 0 1 0s-1 0 0 0h1l1 1a31 31 0 0 1 3 1v1s0-1 0 0h1l1 1 1 1s-1-1 0 0v-1a3 3 0 0 1 0-1 3 3 0 0 1 2-2 3 3 0 0 1 1 0s-1 0 0 0l-1-1s-1 0 0 0a13 13 0 0 1-1-1l-1-1v1-1l-1-1a4 4 0 0 0 0-1v1a3 3 0 0 1-1 3c-1 0 0 0 0 0-1 0-1 0 0 0-1 0 0 0 0 0s1 0 0 0h1s1 1 0 0l2 2s0 1 0 0a2 2 0 0 1 0-1c0 1 0 0 0 0-1 1 0 0 0 0h-1v1s1 0 0 0c0 0 1 0 0 0 0 0 1 0 0 0a2 2 0 0 0 0-1v1s-1-1 0 0v-1 1a3 3 0 0 0 0-1v1a3 3 0 0 0 0-1v1c0-1 0-1 0 0 0-1-1 0 0 0a4 4 0 0 0 0-1v1a3 3 0 0 0 0-1s-1 1 0 0h-1a3 3 0 0 1 1 0l1 1c1 1 0 0 0 0s0-1 0 0l2 1h1l1 1v1h1v1-1c0-1 0 0 0 0a4 4 0 0 1 1-2 2 2 0 0 1 2 0c1 0 0 0 0 0v-1l-1-1v1-1a3 3 0 0 1 0 3l-2 1s-1 0 0 0h-1 1v1-1h-1a4 4 0 0 1 0-2 4 4 0 0 1 3-2c-1 0-1 0 0 0a4 4 0 0 1 1 0c1 1 0 0 0 0l-2-2-4-1a4 4 0 0 0-3 4zm-28 7a7 7 0 0 0 3-3 43 43 0 0 0 2-4l2-7 1-7c1-2 2-5 1-8a5 5 0 0 0-5-5h-1l3 1a5 5 0 0 1-1-1c-1-3-4-2-4 0a8 8 0 0 0 0 3l1-2-3 4s0 2 1 1l-1 4-2 7v7c0-1 0-1 0 0l-1 1a39 39 0 0 0 0 4 8 8 0 0 0 1 4 2 2 0 0 0 3 1z"/><path d="M443 338c-1 4 2 8 5 9a23 23 0 0 0 11 3l11-1h2a5 5 0 0 1 1 0l2 1c-1 0 0 0 0 0l1 1-1-8a5 5 0 0 0 0 6 5 5 0 1 0 6-7c-5-4-12-3-19-2a49 49 0 0 1-5 0 22 22 0 0 1-1-1 24 24 0 0 1-2 0h-1a15 15 0 0 0-2-1l-1-1a10 10 0 0 0-4-1 3 3 0 0 0-3 2z"/><path d="M466 347a4 4 0 0 0 1 2 7 7 0 0 0 2 1 21 21 0 0 0 4 1 4 4 0 0 0 2 0 3 3 0 0 0 2-3 3 3 0 0 0-3-3h-6a8 8 0 0 0-1 0 2 2 0 0 0-1 0 1 1 0 0 0 0 2z"/><path d="M476 350h10a3 3 0 0 0 2-2 3 3 0 0 0-1-3l-4-1h-3a14 14 0 0 0-1 0h-1s-1 1 0 0a15 15 0 0 1-2 1h-2a3 3 0 0 0-1 3 3 3 0 0 0 3 2z"/><path d="m479 352-1-1 4 6 3 5 3 5a19 19 0 0 0 4 7c2 1 5 2 7 0s2-6 0-7l-1-1-1-1-1-3-4-5a32 32 0 0 0-4-5 16 16 0 0 0-3-2l-2-1a4 4 0 0 0-3 0h2-1a2 2 0 0 0-2 3z"/><path d="m497 372 1-1-2 1c3 1 6-3 7-5a36 36 0 0 0 4-6l4-6v-1s-1 1 0 0h1v-1c-1 1 1 0 0 0h1-1a5 5 0 1 0 0-10 11 11 0 0 0-8 4 33 33 0 0 0-4 7 60 60 0 0 0-4 8c-1 2-3 7-1 9l-1-2v2a2 2 0 0 0 3 1z"/><path d="M513 348a4 4 0 0 0 1-2 5 5 0 0 0 1-1 2 2 0 0 0 0-1c-1-1-1-1 0 0l-2 2a6 6 0 0 0 2-5l-2-4a67 67 0 0 0-3-7 30 30 0 0 0-4-6 13 13 0 0 0-6-4l-6-1-7-2a56 56 0 0 0-7-1 77 77 0 0 0-8-1h-7l-2-1h-1c-1 0 1 0 0 0l-2-1v-1l-5 9a53 53 0 0 1 5 1l2 1 3 2a110 110 0 0 0 12 4c3 1 7 1 8-2s-1-5-3-6l-6-3h-2l-3-2a89 89 0 0 0-14-5 5 5 0 0 0-5 2c-1 2-1 5 1 6a21 21 0 0 0 13 6h11c1 0-1 0 0 0h3a31 31 0 0 1 7 2 33 33 0 0 0 6 2l3 1h2s1 1 0 0l1 1v-1 1s0-1 0 0v1l1 1a73 73 0 0 1 4 7l1 2v1c1 2 2 4 4 4l-1-1v1a4 4 0 0 0 2 1 4 4 0 0 0 3 0z"/><path d="M487 323c1 0 1 1 0 0l1 1h1a12 12 0 0 0 1 1 9 9 0 0 0 1 1 7 7 0 0 0 3 1h1-1l-2-2v1l-1-1a16 16 0 0 0 3 3l6-8a46 46 0 0 0-11-5l-3 9a11 11 0 0 1 3 1h-1a17 17 0 0 1 3 2l-1-1 3 2a22 22 0 0 0 3 3 6 6 0 0 0 4 1 4 4 0 0 0 4-3c0-3-1-5-3-6-3-4-7-7-12-8a5 5 0 0 0-4 0 5 5 0 0 0-2 7 6 6 0 0 0 3 2l3 1h-2a42 42 0 0 1 8 4 5 5 0 0 0 3 0 5 5 0 0 0 3-1v-7a9 9 0 0 1-2-1l1 1v-1a6 6 0 0 0-3-2 9 9 0 0 0-5-1h1c-2 0-5 0-6 2a3 3 0 0 0 0 4z"/><path d="m451 320-1 2v1l-1 1v4l-2 8c1 2 2 4 5 5a5 5 0 0 0 5-4 56 56 0 0 1 2-6l1-2 1-3c1 0 1 0 0 0l-3 1s0-1 0 0h1l2 2a32 32 0 0 0 6 3l14 1c-1 0 0 0 0 0a14 14 0 0 1 2 1s1 0 0 0l2 1a57 57 0 0 0 6 2l3 2h3a4 4 0 0 1 1 1h-1l1 1h1-1a5 5 0 0 0 1 1s-1-2 0 0l7-6a91 91 0 0 1-2-2h-1l-1-1-4-4-6-4a7 7 0 0 0-7 3 5 5 0 0 0 2 7l5 3 1 1c1 0-1-1 0 0l2 2a19 19 0 0 1 2 2c-1-1 0 0 0 0a21 21 0 0 1 1 1 27 27 0 0 1 1 2v1a7 7 0 0 1 1 1l7-5a167 167 0 0 1-7-5l-3-3c-1 0-1 0 0 0h-1v-1l-2-1-7 7 11 10 6-8-9-6c-3-2-7-5-11-5a5 5 0 0 0-4 3 5 5 0 0 0 1 6 91 91 0 0 1 3 4l1 1 1 2a96 96 0 0 1 6 8l8-6a110 110 0 0 0-13-11c-2-1-4-2-6 0a5 5 0 0 0-1 6 76 76 0 0 0 11 17 5 5 0 0 0 8-6l-6-10a5 5 0 0 0-9 4l5 9c2 3 3 7 7 7a6 6 0 0 0 7-4v-6s0 1 0 0v-3h1v-1l1-1a5 5 0 0 0-2-7 5 5 0 0 0-7 2 39 39 0 0 0-6 17c0 2 2 5 4 5a5 5 0 0 0 5-2 51 51 0 0 0 7-15 5 5 0 0 0-6-6 9 9 0 0 0-5 3v1c-1 1 1-1 0 0h2l2 1a5 5 0 1 0-7 6 7 7 0 0 0 9 1 9 9 0 0 0 2-3h1s-1 0 0 0a3 3 0 0 1-1 0l-6-6-1 4-1 1s0 1 0 0l-1 1a47 47 0 0 1-3 7l9 2v-2a34 34 0 0 1 2-4v-1s0-1 0 0v-1l1-1a36 36 0 0 1 2-3l-9-5a24 24 0 0 0-3 7 28 28 0 0 0 0 5v3-2l2-2h2a3 3 0 0 1 3 1v-1l-1-1-2-3-2-3-1-2a14 14 0 0 1-1 0c1 0 1 0 0 0l-9 3 6 10 8-6-3-4-1-1c1 1 1 0 0 0l-1-2a71 71 0 0 1-5-8l-8 6a109 109 0 0 1 13 11 5 5 0 0 0 7-6 104 104 0 0 0-12-17l-4 8c1 0 0 0 0 0h1a18 18 0 0 1 2 1l4 3 8 5a5 5 0 0 0 6-7l-11-10a5 5 0 0 0-4-1 5 5 0 0 0-3 1c-2 2-3 5 0 7a184 184 0 0 0 15 11c3 2 8-2 7-6a31 31 0 0 0-7-11 31 31 0 0 0-5-4l-5-4 1 7a3 3 0 0 1-4 1v1h1l3 3a83 83 0 0 0 8 6c4 3 9-1 7-5-2-6-6-8-11-10l-3-1a33 33 0 0 1-2-1s1 1 0 0h-1a37 37 0 0 0-7-3 33 33 0 0 0-8-1h-3c-1 0 0 0 0 0h-1a17 17 0 0 1-2-1h-1l-1-1-3-2c-3-2-6-3-9-1s-4 5-5 8a63 63 0 0 0-3 8l9 2v-1a12 12 0 0 1 1-2l1-4a30 30 0 0 0 0-4 18 18 0 0 0 0-5c-1-4-7-3-8 0z"/></g><g fill="#422f26"><path d="m311 101 1 10 3-1a20 20 0 0 1-1-5 23 23 0 0 1 1-3 3 3 0 0 0-1-2 2 2 0 0 0-2 1c-2 2-1 5 0 8a59 59 0 0 1 0 10c0 2 3 2 3 0a58 58 0 0 0 0-9l-1-5a6 6 0 0 1 0-3h-2l-1 1v1a20 20 0 0 0 0 2 23 23 0 0 0 1 5c1 2 4 1 3 0l-1-10c0-2-3-1-3 0zm0 124c2 3 2 7 2 11a67 67 0 0 1-1 12 24 24 0 0 0 0 6l1 6a79 79 0 0 1 1 12 83 83 0 0 1 0 14c-1 2 2 2 3 0a84 84 0 0 0-1-25l-1-5a20 20 0 0 1 0-7l1-12c0-4 0-9-2-13 0-2-3-1-3 1z"/><path d="M318 374v-24l1-22a50 50 0 0 0-1-11 13 13 0 0 1 0-5l1-6 1-22a244 244 0 0 0-1-25c0-2-3-2-3 0a220 220 0 0 1 1 22v23l-2 10a34 34 0 0 0 1 5 33 33 0 0 1 0 6v11l-1 12v26a2 2 0 0 0 3 0zm-6-280a48 48 0 0 1-3 14l-1 3a9 9 0 0 0-1 3c0 2 1 4 3 5a2 2 0 0 0 2-1l-1-8a24 24 0 0 1 1-8h-3v22a196 196 0 0 0 1 22h2v-2a2 2 0 0 0-3 1l1 2c0 1 3 1 3-1a199 199 0 0 1-1-22v-22c0-2-2-2-3 0v16l3-1a7 7 0 0 1-2-2l1-3a52 52 0 0 0 2-6 52 52 0 0 0 2-12c1-2-2-2-3 0z"/><path d="M313 119c0 7-3 15-1 23 1 1 4 1 3-1a17 17 0 0 1 1-12l-3-1v20l1 10a103 103 0 0 1-1 10c0 2 3 2 3 0a103 103 0 0 0 1-10l-1-10v-21h-3a20 20 0 0 0-1 15l3-1c-2-7 1-15 1-22 0-2-3-2-3 0Z"/></g><g fill="#358e35"><path d="M322 70h1c2 0 3-3 1-3a13 13 0 0 0-3-1c-3 0-3 4 0 4h5a47 47 0 0 0 4 0 37 37 0 0 0 10-2 82 82 0 0 0 18-10 171 171 0 0 0 16-13l8-7 7-7 4-5a24 24 0 0 1 4-3 46 46 0 0 1 4-3 28 28 0 0 0 5-4 2 2 0 0 0-2-3l-9 5-4 3-4 3-7 6a68 68 0 0 1-8 6l-4 3-4 3-2 2-1 1h-1l-4 3a120 120 0 0 1-16 11l-5 2-4 2-5 2a30 30 0 0 1-6 1l1 4a3 3 0 0 1 2 0v-3h-1c-2 0-1 3 0 3zm-57-41a52 52 0 0 1 5 3l5 5 10 11a168 168 0 0 1 16 23l4 7 2 3 3 3a1 1 0 0 0 2-1l-1-3-2-4-4-6-8-12a93 93 0 0 0-10-11l-10-11-6-5c-2-2-4-4-6-3a1 1 0 0 0 0 1zm34 6a13 13 0 0 1 5 4 35 35 0 0 0 5 5 55 55 0 0 0 4 4l3 2a6 6 0 0 0 3 1 1 1 0 0 0 1-2 7 7 0 0 0-3-1l-2-2a48 48 0 0 1-5-4c-3-3-6-7-11-7zm14-12v1a10 10 0 0 0 1 2 14 14 0 0 0 2 3l4 2 1 2a8 8 0 0 0 1 0 1 1 0 0 0 2 0 1 1 0 0 0 0-1l-2-1-1-1a10 10 0 0 1-4-2 17 17 0 0 1-2-2 14 14 0 0 1-1-2 6 6 0 0 0-1-1z"/><path d="M319 30a3 3 0 0 0 1 0v1h2a2 2 0 0 0 1 0v-1a2 2 0 0 0-1 0v-1a2 2 0 0 0-1 0l-1-1a2 2 0 0 0-1 0 1 1 0 0 0 0 1 1 1 0 0 0 0 1zm3 25a9 9 0 0 0 4-2 28 28 0 0 0 3-3l3-3 3-3 2-1 1-2a1 1 0 0 0-1-1 5 5 0 0 0-2 1l-2 2a22 22 0 0 0-1 2l-3 3a27 27 0 0 1-3 3l-2 2-2 1v1zm3-17a3 3 0 0 0 1-1 19 19 0 0 0 2 0l5-2 3-2 3-2-3 1-5 2-4 1-2 2zm-5 89 3-4c1-1-1-2-1-1l-4 4a1 1 0 0 0 1 2 113 113 0 0 1 21-17 72 72 0 0 1 24-9 92 92 0 0 1 29-1 119 119 0 0 1 15 3l14 4 16 6 7 3 4 2 2 1a6 6 0 0 0 2 0 1 1 0 0 0 1-2 7 7 0 0 0-3-2l-3-2-8-3-14-6-7-2-7-3a131 131 0 0 0-15-3 111 111 0 0 0-15-2 86 86 0 0 0-15 2 74 74 0 0 0-26 9 86 86 0 0 0-23 20l1 2 4-5-1-1-3 4h1zm-159 27c7-5 16-5 25-6a284 284 0 0 1 28-2 280 280 0 0 1 29 1l28 4a57 57 0 0 1 14 6l6 3 3 2a8 8 0 0 0 2 1 6 6 0 0 0 2 1 1 1 0 0 0 1-1 5 5 0 0 0-2-3l-3-2-6-3a61 61 0 0 0-12-6 87 87 0 0 0-14-3l-15-2a267 267 0 0 0-58 1l-8 2-8 1c-5 1-9 2-13 5-1 1 0 2 1 1zm165 53a3 3 0 0 0-1-1 2 2 0 0 0-2 0 1 1 0 0 0 0 1 1 1 0 0 1 1-1 3 3 0 0 1 2 1z"/><path d="m323 211 4-3 3-3a49 49 0 0 1 8-6 61 61 0 0 1 9-4 76 76 0 0 1 10-2c3-1 2-6-1-5a51 51 0 0 0-20 7 66 66 0 0 0-9 6 36 36 0 0 0-3 4c-1 1-3 3-3 5a1 1 0 0 0 2 1z"/><path d="M322 204h3l2-2a40 40 0 0 1 5-2l5-2 2-1c2 0 3 0 4-2a2 2 0 0 0-1-3h-4l-3 1a33 33 0 0 0-6 3 34 34 0 0 0-5 4c0 1-4 3-2 4z"/><path d="M330 200a1 1 0 0 0-2 0 4 4 0 0 0-1 0l-2 1-2 2a4 4 0 0 0-1 1 3 3 0 0 0 0 2v-2l2-1h-1l2 1v1-2a2 2 0 0 0-3-1 2 2 0 0 0-1 2v2c0 1 0 1 0 0v1a4 4 0 0 0 2 3 1 1 0 0 0 1 0c2-2 2-5 1-7l-4 1c0 2 0 3 2 4a2 2 0 0 0 3-2 2 2 0 0 0-1-2v2l1-1v-1l2-1a10 10 0 0 0 1-1l1-2zm48-10 5 2a56 56 0 0 1 6 3 72 72 0 0 1 11 7 68 68 0 0 1 9 9c3 3 5 8 7 12a83 83 0 0 1 3 8l1 4a13 13 0 0 0 1 4 1 1 0 0 0 2 0 10 10 0 0 0 0-4l-1-4-3-7a58 58 0 0 0-7-13 52 52 0 0 0-9-11 51 51 0 0 0-11-7 64 64 0 0 0-7-3c-2-1-5-2-7-1v1z"/></g><path d="M315 377v-60l-1-61-1-60-3-59c0-18 0-37 5-55l2-7c1-3-3-4-4-1-6 18-7 37-7 55l2 59 2 60 1 61v60l-1 8c0 3 5 3 5 0z"/><path d="m321 376 1-120v-60l-3-59c-1-22-1-44 2-66a2 2 0 0 0-2-3 2 2 0 0 0-2 2c-6 39-2 79 0 118 2 40 1 80 1 120l-1 68c0 2 4 2 4 0z"/><path d="m316 72 34-31 15-14a44 44 0 0 1 9-5 62 62 0 0 1 10-3l24-5c3-1 2-4-1-4l-22 5c-7 2-13 4-19 8l-16 13-17 16-20 18c-1 1 1 4 3 2z"/><path d="M315 72c31 3 55-20 75-40l20-19c2-2-1-4-3-2l-33 32c-10 9-22 18-36 22a56 56 0 0 1-23 3c-2 0-2 3 0 4zm-2 15a178 178 0 0 0-42-55 182 182 0 0 0-15-12v4c2 1 4-1 3-3a4 4 0 0 0-4-1c-2 0-2 3-1 3a174 174 0 0 1 56 66c1 2 4 0 3-2z"/><path d="M256 23c22 9 43 25 53 47a51 51 0 0 1 4 18l3-2s-1 1 0 0c0-2-3-3-4-1a3 3 0 0 0 2 4 2 2 0 0 0 2-1c0-25-18-45-38-58a123 123 0 0 0-21-10 2 2 0 0 0-2 1 2 2 0 0 0 1 2Z"/><path d="M290 37a53 53 0 0 1 24-27c5-3 12-6 18-6a11 11 0 0 1 9 3 26 26 0 0 1 5 9 52 52 0 0 1 3 11l1 5c0 2 0 5 2 5s3-2 1-3l1 1a4 4 0 0 0 0-1l-1-1v-3l-1-6a49 49 0 0 0-2-10c-3-6-8-13-16-14a29 29 0 0 0-10 2 56 56 0 0 0-10 3 57 57 0 0 0-15 12 56 56 0 0 0-12 19c-1 2 3 3 3 1zm24 35c4-7 8-15 9-23a70 70 0 0 1 2-14l5-12a47 47 0 0 0 2-15c0-3-3-3-3 0 0 8-4 17-7 25a64 64 0 0 0-3 13 52 52 0 0 1-2 12 68 68 0 0 1-6 12c-1 2 2 4 3 2zm4 39 26-17a71 71 0 0 1 30-9 131 131 0 0 1 17 1 126 126 0 0 1 16 2 71 71 0 0 1 28 13c9 7 16 15 24 23 1 1 4-1 2-3-14-15-28-30-49-35a106 106 0 0 0-16-3 165 165 0 0 0-18-1 74 74 0 0 0-17 1 77 77 0 0 0-15 6c-11 5-20 12-30 18-2 2 0 5 2 4z"/><path d="M319 132a104 104 0 0 1 18-17 65 65 0 0 1 26-11c20-5 41-1 60 6l35 14a2 2 0 0 0 2 0 2 2 0 0 0-1-3c-20-9-41-18-63-22a103 103 0 0 0-31 0c-9 2-19 5-27 11a93 93 0 0 0-12 9 103 103 0 0 0-10 10c-1 2 1 5 3 3zm-9 42c-8-21-27-36-47-43a120 120 0 0 0-38-7 165 165 0 0 0-20 1 76 76 0 0 0-18 4c-7 3-13 7-18 11l-18 15c-1 2 1 4 3 3l15-13c4-4 9-8 15-11a58 58 0 0 1 17-5 151 151 0 0 1 19-1c23 0 47 5 66 20 9 7 16 16 21 27 0 2 4 1 3-1z"/><path d="M155 159a48 48 0 0 1 16-5 257 257 0 0 1 55-5c22 0 47 1 66 13a55 55 0 0 1 12 12 7 7 0 0 0 4 2 3 3 0 0 0 3-1c1-2 0-5-3-4-2 0-1 4 1 3h-1v-1 1-1c1-1 1 0 0 0a7 7 0 0 0 0-1l-2-3a53 53 0 0 0-6-5 64 64 0 0 0-11-8 89 89 0 0 0-30-9c-12-2-23-2-34-2a390 390 0 0 0-55 5 52 52 0 0 0-17 6 2 2 0 0 0 2 3zm168 56a94 94 0 0 1 51-25 90 90 0 0 1 28 0l15 6a27 27 0 0 1 8 11c4 11 2 23-2 34a2 2 0 1 0 3 1c4-10 7-22 3-33a33 33 0 0 0-7-13 28 28 0 0 0-13-8c-10-3-21-3-31-2a100 100 0 0 0-29 8 95 95 0 0 0-29 19c-1 1 1 4 3 2z"/><path d="M322 202c13-10 31-14 47-12 17 3 31 14 40 27a76 76 0 0 1 12 26c1 2 3 2 4 0l1-3c0-2-3-3-4-1l-1 3h4a77 77 0 0 0-29-44 59 59 0 0 0-23-11 67 67 0 0 0-27 1 63 63 0 0 0-27 12 2 2 0 0 0 0 2 2 2 0 0 0 3 0zm3-171v-1 1a1 1 0 0 0 0-1l-4-1a20 20 0 0 1-3-2 55 55 0 0 1-5-5v1a12 12 0 0 0 4 5 18 18 0 0 0 4 2 13 13 0 0 0 3 1 1 1 0 0 0 1 0h-1 1c1 0 1 0 0 0zm-2 9a36 36 0 0 0 11-4 27 27 0 0 0 5-3 21 21 0 0 0 4-5h-1l-5 3a47 47 0 0 1-4 3 34 34 0 0 1-11 4c-1 0-1 2 1 2zm-2 12-3-2a17 17 0 0 1-3-1 38 38 0 0 1-5-5l-6-6a30 30 0 0 0-2-2l-3-1h-1a10 10 0 0 0 3 2 31 31 0 0 1 3 3l5 5a33 33 0 0 0 6 5l6 2v-1zm-2 5a12 12 0 0 0 3-1l3-2a51 51 0 0 0 5-4c3-3 7-6 8-10 1 0 0 0 0 0l-9 9-5 4a59 59 0 0 0-5 4zm116 346 10-78 3-22a2 2 0 0 0-1-2 2 2 0 0 0-2 1l-10 78-3 22a2 2 0 0 0 1 2 2 2 0 0 0 2-1z"/><path d="M447 303c7 11 21 13 32 13 7 1 13 1 19 4 5 2 9 6 11 12l3 10a24 24 0 0 0 5 9c2 1 4-1 3-2a21 21 0 0 1-5-8l-3-9a22 22 0 0 0-10-13c-11-7-25-4-37-7-6-2-12-5-16-10-1-2-3 0-2 1zm-6 39a28 28 0 0 0 12 8c4 2 9 2 13 2s10 0 13 4l7 11c2 4 5 9 10 10v-3c-2-1-4 0-3 2a3 3 0 0 0 3 1 2 2 0 0 0 0-3c-4-1-6-5-8-9l-6-11c-3-3-7-5-12-5s-9 0-14-1a25 25 0 0 1-13-8c-1-2-3 0-2 2z"/><path d="M496 377c2 1 4-2 5-4l5-9 5-9c2-3 6-2 9-3 1 0 1-3-1-3-3 1-6 1-8 3l-6 7-5 9-2 4-1 1v1h-1c-1 0-2 3 0 3zm-13-49a7 7 0 0 0-6-8 7 7 0 0 0-8 4 7 7 0 0 0 0 5 4 4 0 0 0 1 2 15 15 0 0 0 3 1 5 5 0 0 1 1 8 5 5 0 0 1-4 2 3 3 0 0 1-3-4 2 2 0 0 0-1-2 2 2 0 0 0-2 1 6 6 0 0 0 6 8 8 8 0 0 0 8-5 8 8 0 0 0-2-9 8 8 0 0 0-2-2l-2-1a4 4 0 0 1 1-4c3-3 7 0 7 4 0 2 3 2 3 0zm5-1-8 18a2 2 0 0 0 1 3 2 2 0 0 0 2-1l8-19a2 2 0 0 0-1-2 2 2 0 0 0-2 1z"/><path d="M489 329c4 3 6 8 5 14a9 9 0 0 1-5 6c-2 0-5-1-6-3 0-2-3-1-3 1 1 3 5 5 8 5 4-1 7-4 8-7 3-6 0-14-5-19-1-1-3 1-2 3Z"/><path fill="#848484" d="m293 379 2 1a13 13 0 0 0 2 1 42 42 0 0 0 6 0l9-2a29 29 0 0 1 10 2 27 27 0 0 0 5 1h4l1-1a31 31 0 0 0-4-4 13 13 0 0 0-5-2 33 33 0 0 0-10 0l-10 2a33 33 0 0 1-5 1 26 26 0 0 0-3 0l-2 1Z"/></svg>