<svg xmlns="http://www.w3.org/2000/svg" xmlns:xlink="http://www.w3.org/1999/xlink" viewBox="0 0 412.3 532.2"><defs><linearGradient id="a" x1="410" x2="77.8" y1="358.7" y2="166.9" gradientUnits="userSpaceOnUse"><stop offset="0" stop-color="#fff"/><stop offset=".1" stop-color="#e8e9ea"/><stop offset=".2" stop-color="#b6b9bd"/><stop offset=".2" stop-color="#a2a6ab"/><stop offset=".3" stop-color="#a9acb1"/><stop offset=".3" stop-color="#bbbec1"/><stop offset=".4" stop-color="#d9dbdd"/><stop offset=".5" stop-color="#fff"/><stop offset=".6" stop-color="#e0e1e3"/><stop offset=".6" stop-color="#bec1c5"/><stop offset=".7" stop-color="#aaadb2"/><stop offset=".8" stop-color="#a2a6ab"/><stop offset="1" stop-color="#fff"/></linearGradient><linearGradient id="b" x1="198.6" x2="289.4" y1="521.1" y2="6.2" gradientUnits="userSpaceOnUse"><stop offset=".7" stop-color="#a2a6ab"/><stop offset="1" stop-color="#efefef"/></linearGradient><linearGradient xlink:href="#a" id="d" x1="364.9" x2="123.8" y1="331.2" y2="192"/><linearGradient xlink:href="#b" id="e" x1="210.8" x2="277.9" y1="451.7" y2="71.5"/><linearGradient xlink:href="#a" id="f" x1="340.6" x2="4.5" y1="357.4" y2="163.3"/><linearGradient xlink:href="#b" id="g" x1="109.7" x2="201.1" y1="517" y2="-1.3"/><linearGradient xlink:href="#a" id="h" x1="312.1" x2="195.4" y1="323.9" y2="256.6"/><linearGradient xlink:href="#b" id="i" x1="248.3" x2="281.8" y1="369.9" y2="180.5"/><linearGradient id="j" x1="279" x2="223.1" y1="287" y2="254.8" gradientUnits="userSpaceOnUse"><stop offset="0" stop-color="#fff"/><stop offset=".1" stop-color="#e0e1e3"/><stop offset=".3" stop-color="#bec1c5"/><stop offset=".4" stop-color="#aaadb2"/><stop offset=".5" stop-color="#a2a6ab"/><stop offset="1" stop-color="#fff"/></linearGradient><linearGradient xlink:href="#b" id="k" x1="244.8" x2="254.4" y1="298.4" y2="243.8"/><path id="c" d="M408 259c0 142-73 265-163 265S81 401 81 259 154 4 245 4s163 114 163 255Z"/></defs><use xlink:href="#c" fill="url(#a)" stroke="url(#b)" stroke-miterlimit="10" stroke-width="8"/><g stroke-width="7"><ellipse cx="244.3" cy="261.6" fill="url(#d)" stroke="url(#e)" rx="116.8" ry="191.3"/><g stroke-miterlimit="10"><path fill="url(#f)" stroke="url(#g)" d="m207 5-64 2-45 24-26 24-10 15-28 42-10 24-13 48-5 35-2 37v31l5 34 10 43 15 42 14 32 26 31 34 29 26 13 33 13 34 4 44-4-34-6-22-11-27-18-21-26-17-30-16-31-13-37-6-40-8-38v-67l13-60 21-56 20-41 32-29 40-29Z"/><path fill="url(#h)" stroke="url(#i)" d="m185 352 54-172 87 120-141 52Z"/><path fill="url(#j)" stroke="url(#k)" d="m209 278 14-11 18-11 25-4h14l10 2v10l-2 8-10 13-15 7h-35l-19-6v-8Z"/></g></g><use xlink:href="#c" fill="none" stroke="#000" stroke-miterlimit="10" stroke-width="8"/><path d="m144 10 87-1 25-1a4 4 0 0 0 3-3 4 4 0 0 0-3-4l-87 1-25 1a4 4 0 0 0-3 4 4 4 0 0 0 3 3z"/><path d="m142 3-18 8a113 113 0 0 0-17 9 201 201 0 0 0-28 23 231 231 0 0 0-42 56 373 373 0 0 0-8 302c8 22 20 44 35 62a184 184 0 0 0 48 42c36 21 79 32 120 25a139 139 0 0 0 14-3c4-1 2-8-2-7-39 10-81 3-116-15a183 183 0 0 1-49-36c-16-16-28-36-37-56-22-44-33-94-34-142-2-52 6-106 27-153a234 234 0 0 1 38-58 207 207 0 0 1 25-24c9-7 19-14 30-19l18-7c2-1 3-4 2-5-1-2-4-2-6-2z"/><ellipse cx="244.3" cy="261.6" fill="none" stroke="#000" stroke-width="7" rx="116.8" ry="191.3"/><path d="m187 356 22-70 21-70 11-39c1-4-4-6-5-2l-21 70-21 70-13 39a3 3 0 0 0 6 2Z"/><path d="m236 178 33 48 35 47 20 26a3 3 0 0 0 5 0 3 3 0 0 0 0-5q-19-22-36-45t-33-47l-18-27a3 3 0 0 0-6 3Z"/><path d="m186 357 55-22 55-23 31-12a3 3 0 0 0 2-4 3 3 0 0 0-3-2l-56 22-54 23-31 12a3 3 0 0 0-2 4 3 3 0 0 0 3 2zm24-74a31 31 0 0 1 4-5 73 73 0 0 1 6-5 90 90 0 0 1 12-8c10-6 23-9 35-10a97 97 0 0 1 22 2 3 3 0 0 0 4-2 3 3 0 0 0-3-4 105 105 0 0 0-41 1 77 77 0 0 0-18 6 89 89 0 0 0-14 9c-4 4-9 8-12 13a3 3 0 1 0 5 3z"/><path d="M210 289a70 70 0 0 0 19 6c7 2 14 1 21 0 7 0 14 0 21-3s11-7 14-12l6-11 6-12a3 3 0 0 0-1-4 3 3 0 0 0-5 1l-9 20c-3 5-6 10-12 12-5 3-12 3-18 3-7 1-14 2-20 1l-19-6a3 3 0 0 0-4 1 3 3 0 0 0 1 4zM185 52a7 7 0 0 0 0-1c1-1 2-3 3-2v-1a18 18 0 0 1 1 4 15 15 0 0 1 0 3 15 15 0 0 1-2 7c-1 2 1 4 3 2a15 15 0 0 1 5-3 15 15 0 0 1 3-1 8 8 0 0 1 1 0 10 10 0 0 0 2-1 2 2 0 0 0 0-3 9 9 0 0 0-4 0 18 18 0 0 0-4 1 15 15 0 0 0-6 5l4 1a21 21 0 0 0-1-15l-1-1a3 3 0 0 0-1-1 4 4 0 0 0-3 2 4 4 0 0 0-1 2 2 2 0 0 0 0 1l1 1zm27-12a10 10 0 0 0-2 1 7 7 0 0 0-1 3 13 13 0 0 0-1 5c0 3 2 7 6 8a5 5 0 0 0 5-1 6 6 0 0 0 2-4 16 16 0 0 0-3-9 12 12 0 0 0-3-4 4 4 0 0 0-3-1 3 3 0 0 0-1 0l-1 1v1a3 3 0 0 1 1 0h1v1a9 9 0 0 1 1 0 8 8 0 0 1 2 3 15 15 0 0 1 2 6 7 7 0 0 1 0 2 5 5 0 0 1 0 1 2 2 0 0 1-1 1 2 2 0 0 1-1 0c-2 0-4-3-4-5a10 10 0 0 1 0-5l1-2v-1a4 4 0 0 1 1-1h-1zm23 0c2-1 5 1 5 2a2 2 0 0 1 1 1 4 4 0 0 1 0 1 7 7 0 0 1-1 2 22 22 0 0 1-2 5c-2 1 1 4 2 3l1-1a9 9 0 0 1 1 0s1 0 0 0h3a8 8 0 0 1 1 1 2 2 0 0 0 4-3 10 10 0 0 0-12-1l3 3c2-4 4-9 1-13-1-2-5-3-7-1v1zm37 4v-1c0 1 0 0 0 0 0 1 0 0 0 0a2 2 0 0 1 1 0l1 1c-1 0 0 0 0 0a2 2 0 0 1 0 1 6 6 0 0 1-2 3l-2 4c-1 1 0 3 1 3a6 6 0 0 1 2 1c-1 0 0 0 0 0l1 1c0-1 0 0 0 0a6 6 0 0 1 1 0 16 16 0 0 0 1 3 3 3 0 0 0 5 0 2 2 0 0 0-1-3 1 1 0 0 0-1 0h1c-1-1 0 0 0 0v-1a9 9 0 0 0-8-5l2 3 3-5a8 8 0 0 0 0-7c-2-3-7-3-8 0-1 2 2 3 3 2zM166 435c-1-3-3-4-5-5a16 16 0 0 0-7 1 2 2 0 0 0-2 1 5 5 0 0 0 1 5l2 2c0-1 0 0 0 0s0 1 0 0v2a4 4 0 0 1-1 0h-1v-1h-1l-4-2 2 3a3 3 0 0 0-1-3v1a3 3 0 0 0 0-1 1 1 0 0 0-1 0 4 4 0 0 0-1 0h1a3 3 0 0 0-3 2 3 3 0 0 0 0 3 14 14 0 0 0 4 3 8 8 0 0 0 5 0 8 8 0 0 0 6-4c1-2 0-5-2-6l-1-2h-1v-1l-1 2a14 14 0 0 1 5-1l3 1a1 1 0 0 0 3 0zm6 8a25 25 0 0 0-4 3l-4 4-4 4-4 4a2 2 0 0 0 3 3 3 3 0 0 0 1-2 5 5 0 0 0 0-2l-1-1a1 1 0 0 1 0 1h-1c1 0 0 0 0 0h-1l2 4 4-4 4-4 3-4a26 26 0 0 0 4-4 1 1 0 0 0-2-2z"/><path d="M162 448a3 3 0 0 0 1 2v-1a6 6 0 0 0 2 3 10 10 0 0 0 1 1 3 3 0 0 0 2 0h-1 1a2 2 0 0 0 1 0h-1a1 1 0 0 0 2 0 1 1 0 0 0 0-1v1a2 2 0 0 0 0-2v1a1 1 0 0 0-1-1v1a3 3 0 0 0 0-2 8 8 0 0 0-1-1l-1-1a4 4 0 0 0-2-1 3 3 0 0 0-1-1 2 2 0 0 0-1 0 2 2 0 0 0-1 2zm6 17 1 1a2 2 0 0 0 2 0 22 22 0 0 0 6-6 2 2 0 0 0 0-3 2 2 0 0 0-3 0l-4 6a2 2 0 0 0 0 3 2 2 0 0 0 2 0 23 23 0 0 1 2-1s1 0 1 0h2s-1 0 0 0v1h1a2 2 0 0 0 3-2c0-2-3-3-5-3l-6 2 3 2 2-2v-1h1l1-2-3-2-1 1-1 1-2 2-1 1a2 2 0 0 0-1 2zm16 3v1-1a2 2 0 0 0 1 2 8 8 0 0 1 0 1 6 6 0 0 1 0 1v2h-1v2h-2c-1 1-3 3-2 4s3 4 4 2a2 2 0 0 0 0-2 1 1 0 0 0-1-1 1 1 0 0 1 1 0c0 1 0 1 0 0-1 0 0 0 0 0v1s-1 0 0 0l1-1a7 7 0 0 0 2-3 8 8 0 0 0 0-8 1 1 0 0 0-2-1l1 1-1-1a1 1 0 0 0-1 1z"/><path d="M184 474a5 5 0 0 0-2-1 9 9 0 0 0-2 0 5 5 0 0 0-2 0 7 7 0 0 0-1 1 3 3 0 0 0-1 1 3 3 0 0 0 1 3 4 4 0 0 0 3 2 2 2 0 0 0 1 0c0-1 0 0 0 0a5 5 0 0 0 0-1 2 2 0 0 0 1-1 1 1 0 0 0 0-1 1 1 0 0 0-1 0h1a2 2 0 0 0-1 0 2 2 0 0 0-1 0 3 3 0 0 1 0-1v1l-1-1h1a4 4 0 0 1-1 0s1 0 0 0v1c-1 0 0 0 0 0v-1h1-1 2a10 10 0 0 1 1 0 1 1 0 0 0 2-2zm8 9a8 8 0 0 0 4-5 2 2 0 0 0-1-2 2 2 0 0 0-2 1 12 12 0 0 0-2 6 2 2 0 0 0 1 2 2 2 0 0 0 2-1v-1l1-1h1a13 13 0 0 1 1-1 7 7 0 0 1 1 0h1a9 9 0 0 1 1 0c-1 0 0 0 0 0h1l-2-2-2 5-1 2a10 10 0 0 0 0 1 4 4 0 0 0 0 2 1 1 0 0 0 2 1 4 4 0 0 0 2-1 10 10 0 0 0 0-2l1-2 2-5a2 2 0 0 0-1-3 9 9 0 0 0-7 1 9 9 0 0 0-2 2 9 9 0 0 0-2 3h3a9 9 0 0 1 2-5l-3-1a8 8 0 0 1-2 4 1 1 0 0 0 1 2zm22-1c-1-1-4 0-5 1a5 5 0 0 0-1 6 6 6 0 0 0 5 3 5 5 0 0 0 5-3 6 6 0 0 0 0-6 1 1 0 0 0-3 0v3l1 3v5a18 18 0 0 1 0 2 3 3 0 0 1 0 1 4 4 0 0 0-1 0s1 0 0 0h1a4 4 0 0 0-1 0 1 1 0 0 0-1 0 2 2 0 0 0-1 1 3 3 0 0 0 1 3c3 1 5-1 6-3s0-5 0-7l-1-4v-3l-1-1-2 1a3 3 0 0 1 0 4 3 3 0 0 1-3 0 2 2 0 0 1-2-2 4 4 0 0 1 1-2 3 3 0 0 1 1-1 4 4 0 0 1 1 0v-1zm19 7a4 4 0 0 0 6-4 4 4 0 0 0-1-2h-3a19 19 0 0 0-3 1c-3 1-5 2-6 5s1 6 3 7a9 9 0 0 0 6 2 8 8 0 0 0 3-1 8 8 0 0 0 1-1l1-1c1-1 0 0 0 0l-2-1h-4a9 9 0 0 1-2 0v-1h-1l-1-1c0-1 0-1 0 0v-3h1s0-1 0 0a12 12 0 0 1 2-2h2a24 24 0 0 1 2-1h-2a2 2 0 0 0-2 3zm22-5a6 6 0 0 0-1 0h1a2 2 0 0 0-2-1 7 7 0 0 0-3 1 10 10 0 0 0-3 3 9 9 0 0 0-1 7l4-2-2-4a12 12 0 0 0-1-2l-3-2c-2 2-1 4 0 6l2 4a2 2 0 0 0 5-2 5 5 0 0 1-1 0s0-1 0 0a6 6 0 0 1 0-1s0-1 0 0v-1a6 6 0 0 1 1 0v-2h1v-1a2 2 0 0 0 1 0s-1 0 0 0a9 9 0 0 0 0-1c1 0 0 0 0 0h1a2 2 0 0 0 1-1v-1 1-1zm22-9 3 4 1 2c1 1 3 3 4 2 3-2 0-5-1-6l-2-5a2 2 0 1 0-5 3z"/><path d="M280 473a2 2 0 0 0-1-2 11 11 0 0 0 0-1l-2 2a7 7 0 0 0 4 0l3-2a4 4 0 0 1 3 0 1 1 0 0 1 1 1l-1 3-1 4-1 4-1 2a4 4 0 0 0 0 1v1a1 1 0 0 0 2 1 6 6 0 0 1 1-1l-1 1a3 3 0 0 0 2-2v-2l1-5 2-5a6 6 0 0 0 0-4c-2-2-4-3-7-2l-7 2a2 2 0 0 0 0 3 11 11 0 0 0 1 1 3 3 0 0 0 1 0h1zm15-9a6 6 0 0 0-1 2 5 5 0 0 0 1 3 7 7 0 0 0 4 3 6 6 0 0 0 5-1 7 7 0 0 0 3-3 6 6 0 0 0 0-5l-3-2a1 1 0 0 0-1 2v1s0 1 0 0v1a7 7 0 0 1 0 1v-1 1c0 1 0 0 0 0a8 8 0 0 1 0 1c-1 0 0 0 0 0l-1 1h-1 1a4 4 0 0 1-1 0 5 5 0 0 1-1 0h1a3 3 0 0 0-1 0h-1c0-1 0 0 0 0v-1h-1v-1a5 5 0 0 0 0-1h-1s1 1 0 0c0 0 0-1 0 0v-1a1 1 0 0 0-1-1 1 1 0 0 0-1 1zm25-13a9 9 0 0 0-7-1 7 7 0 0 0-4 5 5 5 0 0 0 2 6 6 6 0 0 0 5 1 7 7 0 0 0 5-6 3 3 0 0 0 0-2 2 2 0 0 0-1-1 1 1 0 0 0-1 0v1h-1a2 2 0 0 1 0 1l-1 1-1 1v1h-1a3 3 0 0 1-1 0h1-1c-1 0 0 0 0 0h-1v-1 1a2 2 0 0 0-1-1h1-1c0-1 0 0 0 0a2 2 0 0 0 0-1v-1h1v-1h1v-1a6 6 0 0 1 1 0h1l1-1a16 16 0 0 0 3-1z"/><path d="M311 445v-1a2 2 0 0 0 0 2 4 4 0 0 0 0 1l2 2 2 2 3 3 2 1a6 6 0 0 0 2 1 2 2 0 0 0 2-2 6 6 0 0 0-1-2 19 19 0 0 0-1-1l-3-3-3-3a14 14 0 0 0-2-1 5 5 0 0 0-1 0 2 2 0 0 0-2 0h1c-1 0-2 0-1 1zm22-9a2 2 0 0 1-1 1h1a2 2 0 0 0-1-1h-2c0-1 0 0 0 0v-1c-1 0 0 0 0 0-1 0 0 0 0 0s-1 0 0 0c0-1 0 0 0 0h1c1 0 0 0 0 0l3-1a5 5 0 0 0-6-1 5 5 0 0 0-3 6 7 7 0 0 0 4 5 9 9 0 0 0 9 0 13 13 0 0 0 3-3 20 20 0 0 0 2-4v-1l-3 2a24 24 0 0 1-4 2 10 10 0 0 1-3 1 5 5 0 0 1-2 0 4 4 0 0 1-2-2 2 2 0 0 1 0-1v-1s1 0 0 0a2 2 0 0 1 1 0v-1a5 5 0 0 1 1 0c-1 0 0 0 0 0l1 1c1 1 3 0 3-2 0-4-5-5-8-3a4 4 0 0 0 0 5 5 5 0 0 0 2 2 3 3 0 0 0 3 0 1 1 0 0 0 1-2v-1zm11-20c-2-3-5-2-7 0-2 3 0 7 3 8a6 6 0 0 0 4-1h3c-1 0 0 0 0 0h2a4 4 0 0 0 0 1c1 0 1 1 0 0h1v1s0-1 0 0h-1c1 0 0 0 0 0v1l-2 1s1 0 0 0a2 2 0 0 0-1 1l1-1a1 1 0 0 1-1 0 1 1 0 0 0-1 1 5 5 0 0 0 1 1v-1 1a3 3 0 0 0 2 1 5 5 0 0 0 3-1 6 6 0 0 0 2-7 8 8 0 0 0-7-4 10 10 0 0 0-4 2c-1 0 0 0 0 0h-1c-1 0-1 0 0 0h-1a3 3 0 0 1 0-1s0-1 0 0v-1h1c-1 0 0 0 0 0h2c1 0 2-1 1-2zM145 19v-1 1zM144 17a2 2 0 0 0-1 2l2 2h-1l3 1h10a57 57 0 0 0 7-1l6-2a1 1 0 0 0-1-1 5 5 0 0 0-2-1 18 18 0 0 0-3-1 50 50 0 0 0-7 0l-7 1h-3c-1 0-3 0-3 2l1-1v1a1 1 0 0 0-1-2zm-23 19a31 31 0 0 0 13 2 27 27 0 0 0 13-4 1 1 0 0 0-1-1h-12l-12-1c-2 0-3 3-1 4zM91 58a1 1 0 0 1-1 1l1 1h-3a2 2 0 0 0 1 1 24 24 0 0 0 7 2l7 1h6a20 20 0 0 0 7-1 1 1 0 0 0 0-1 21 21 0 0 0-6-2l-7-1-7-1a24 24 0 0 0-7 0 2 2 0 0 0-1 1 1 1 0 0 0 2 2h-1a3 3 0 0 0 3-2h-1zM65 91c1 2 2 3 4 3a43 43 0 0 0 4 1 72 72 0 0 0 10 1c6 1 13 0 18-3v-1l-18-1a81 81 0 0 1-8-1h-9a1 1 0 0 0-1 1zm-14 33a14 14 0 0 0 2 1 12 12 0 0 0 2 1 27 27 0 0 0 4 1 61 61 0 0 0 8 2 49 49 0 0 0 8 0 21 21 0 0 0 4-1 17 17 0 0 0 4-2 1 1 0 0 0-1-1 28 28 0 0 0-3-1l-4-1-7-1-7-1-4-1a15 15 0 0 0-2 0 13 13 0 0 0-2 0c-2 0-3 3-2 4zm-13 37a11 11 0 0 0 4 3 45 45 0 0 0 5 1l11 1 10 1a40 40 0 0 0 6 0 30 30 0 0 0 5-1 1 1 0 0 0 0-1 37 37 0 0 0-5-2l-5-1-11-1-9-1H38a1 1 0 0 0 0 1zm-13 47 4 2a36 36 0 0 0 5 1 96 96 0 0 0 10 2 74 74 0 0 0 10 0 38 38 0 0 0 5-1l5-2a1 1 0 0 0 0-1l-5-1h-5l-10-1-9-1-5-1-5 1a1 1 0 0 0 0 2zm-6 41c1 3 6 3 9 3h21a49 49 0 0 0 5 0 16 16 0 0 0 3 0 9 9 0 0 0 1-1h1a1 1 0 0 0 0-2 9 9 0 0 0-1 0 12 12 0 0 0-1-1 15 15 0 0 0-3 0 52 52 0 0 0-5-1H21l-2 2zm2 40h21l10-1a75 75 0 0 0 10-1 1 1 0 0 0 0-1 51 51 0 0 0-10-2 91 91 0 0 0-10 0H32l-11 1c-1 1-2 4 0 5zm5 34c0 3 3 3 5 3h15a88 88 0 0 0 11-1 43 43 0 0 0 4-2l5-1a1 1 0 0 0 0-2h-5l-5-1-11 1H35c-3 0-10-1-9 3zm10 41h-1 1a10 10 0 0 0-2 0c-2 0-3 4 0 5a19 19 0 0 0 6 0l5-1 12-1 11-1h6l5-2a1 1 0 0 0 0-1l-5-1a43 43 0 0 0-6-1H57l-12 1-6 1a18 18 0 0 0-6 1l4 2-1-2zm13 40a41 41 0 0 0 10-1l9-1 10-1a42 42 0 0 0 4-2c1 0 3 0 4-2a1 1 0 0 0 0-1 6 6 0 0 0-4-1l-5 1-9 1-10 1-9 2a2 2 0 0 0 0 4zm26 41a5 5 0 0 0 0 1v-2 1a3 3 0 0 0 1 3 9 9 0 0 0 6 1h6a66 66 0 0 0 7-1 25 25 0 0 0 5-2v-1a26 26 0 0 0-6-2 65 65 0 0 0-6 0h-8a3 3 0 0 1-1 0h1a3 3 0 0 1-1 0c1 0 1 0 0 0a3 3 0 0 0-3 0h3c-1-2-4-1-4 2zm30 31h1-1a2 2 0 0 0 2 1 79 79 0 0 0 10-2l8-5a1 1 0 0 0 0-1h-10a85 85 0 0 0-9 3 2 2 0 0 0-2 2l1-1-1 1a2 2 0 0 0 1 3zm30 22v1a2 2 0 0 0 2 1 36 36 0 0 0 8-2 19 19 0 0 0 3-1 25 25 0 0 0 3-2v-1a31 31 0 0 0-3-1 17 17 0 0 0-4 1 36 36 0 0 0-8 2 2 2 0 0 0-1 2c0-1 0 0 0 0zm28 16a3 3 0 0 0 1-1 3 3 0 0 0 0-1l-1 1a45 45 0 0 0 4-1l3-1a4 4 0 0 0 2-2l-1 1 2-2-1 1a2 2 0 0 0 1-1 1 1 0 0 0 0-1 2 2 0 0 0-1 0 3 3 0 0 0-2 0h1a5 5 0 0 0-3 0 24 24 0 0 0-2 1 49 49 0 0 0-4 2 2 2 0 0 0-1 1 4 4 0 0 0 0 2 3 3 0 0 0 1 1h1z"/></svg>