<svg xmlns="http://www.w3.org/2000/svg" viewBox="0 0 283.3 397.6"><g fill="#d8d3ce"><path d="M15.6 96.8a13.6 13.6 0 0 1 1-1.8 10.3 10.3 0 0 0 1.6-3 48.1 48.1 0 0 1 1.9-4.7 74.4 74.4 0 0 1 4.2-8.1l5-7.6 1.2-1.5.2-.3.7-.9 3-3.4a126.6 126.6 0 0 1 12.8-12.8l3.3-2.7c1-.8-.8.6.2-.1l1-.7 2-1.6q3.6-2.5 7.4-4.8 4.4-2.6 9-4.9l4.6-2c1.1-.5-1 .4.2 0l1.4-.6 2.5-1c2.3-1 4.2-3.3 3.4-6a5 5 0 0 0-6-3.4 81.2 81.2 0 0 0-16.4 7.2l6 7.6 2-1.9c-.8.7.5-.3.6-.4l1.4-.9a42 42 0 0 1 5.2-2.9l1.3-.5c.7-.3-.7.2 0 0l.6-.3 3-1.1 5.8-1.8c4.3-1.3 8.7-2.5 13-3.4a32.6 32.6 0 0 1 1.7-.3l.9-.1a38.1 38.1 0 0 1 3.8-.3 32.5 32.5 0 0 1 3.4.2h1.2l2 .3 8.2 1.3a75.6 75.6 0 0 0 8.6 1.1 4.7 4.7 0 0 0 1.2-9.1C125 18.3 120 17.8 115 17a69.4 69.4 0 0 0-8.4-1 43.2 43.2 0 0 0-8.5.7 131 131 0 0 0-13.7 3.4 98.6 98.6 0 0 0-13 4.5A43.8 43.8 0 0 0 59 32.9a4.8 4.8 0 0 0 5.9 7.6 74.8 74.8 0 0 1 7.2-3.7l.8-.4c.8-.3-.6.2.2 0s1.3-.5 1.9-.8a79 79 0 0 1 4-1.3L76.2 25a120.8 120.8 0 0 0-34 19.4 94.6 94.6 0 0 0-13.6 13.3l-.7 1c.3-.5.3-.5 0 0l-1.2 1.5-1.3 1.8c-1 1.2-1.8 2.4-2.6 3.7a94.5 94.5 0 0 0-4.9 8.1l-.5 1-.6 1.4-.5 1-.6 1.4-2.4 5.4a28.5 28.5 0 0 0-1.8 6.2 6.8 6.8 0 0 0 .1 4 22.1 22.1 0 0 0 1.4 2.6 1.4 1.4 0 0 0 2.4 0z"/><path d="M14 90.5c-1.8.4-2.5 2-3 3.6L9.7 98a44.8 44.8 0 0 0-1.1 8.7Q8 115 8 123.3a225.4 225.4 0 0 0 2.4 33.8l1.5 8.7A73 73 0 0 0 14 175c.8 2.4 3.3 4.1 5.8 3.3s3.7-3.2 3.3-5.8-1.1-5.2-1.6-7.8l-1.4-7.8-.6-3.8v-.2l-.1-.9-.3-2.2-.7-8c-.8-10.8-.8-21.7-.6-32.6a79.2 79.2 0 0 0-.1-9.5v-.2l-.1-1.3a16.1 16.1 0 0 1-.2-1.9 11.2 11.2 0 0 1 .3-1.8 3.6 3.6 0 0 0-1-3.3 2.9 2.9 0 0 0-2.7-.7zm119.4-67.1h-1a4 4 0 0 0-.5 0 .6.6 0 0 0-.3.2.3.3 0 0 0 0 .2.3.3 0 0 0 0 .2.5.5 0 0 0 .3 0 4.6 4.6 0 0 0 .6 0l.4-.2h.5a.2.2 0 0 0 0-.4z"/><path d="M130.6 25.3a32.2 32.2 0 0 0 4.3 0l-1-7.3-3.1 1a4 4 0 1 0 2.1 7.8l9-2.2 4-.8c1.5-.2-.8.1.5 0l1.1-.2H158.6l4.6.4c.3 0 2.3.2 1 0l2.6.5a88.7 88.7 0 0 1 17.2 4.8c.7.3-1-.5 0 0l1.1.4 2.1 1 4 2.2a72.8 72.8 0 0 1 7.5 4.8l.9.7c-1-.7 0 0 .2.2l1.5 1.2q2 1.7 3.8 3.5a88 88 0 0 1 6.8 7.5l.8 1 .5.5c-.5-.5.4.6.4.6l.8 1 3 4.2c2 2.9 3.8 5.9 5.5 8.8a161 161 0 0 1 10 18.7l.2.5.5 1.3.8 2.2a84.5 84.5 0 0 1 1.7 5.8c1 3.5 1.7 7 2.3 10.6l.4 2.8.2 1.4c0 .4.1.6 0 0l.1 1 .7 6.2q.7 6.4 1 12.9.8 13 .3 26.2a4.9 4.9 0 0 0 4.8 4.9 5 5 0 0 0 5-4.9 277.9 277.9 0 0 0-2.5-48.5 107.7 107.7 0 0 0-5-21.8 130.7 130.7 0 0 0-10.1-20.8c-7-12-15-24-25.8-33a79.7 79.7 0 0 0-34.7-16.7 70.3 70.3 0 0 0-21.5-1.2l-3 .3-1.2.2c-.5 0-.5 0 0 0h-.8l-6 1a41.3 41.3 0 0 0-10.5 3.4l4 7c1-.7 2-1.2 3-1.7a3.7 3.7 0 0 0 1.4-4.6A3.7 3.7 0 0 0 134 18a34.8 34.8 0 0 0-4 1.2 3.1 3.1 0 0 0 .7 6z"/><path d="M245.2 163.6a6.8 6.8 0 0 0 1.2 1c1.4 1 3.5.1 4.3-1.2a4.9 4.9 0 0 0 0-5.4 3.5 3.5 0 0 0-6.5 1.7l-.2 3.7c-.1 1.2-1 2.7-1 4.2l-.5 7.6q-.3 7.8-.8 15.5l-.6 7.4-.2 1.9-.1.7c.1-.9 0 0 0 .1l-.7 3.7a36 36 0 0 1-1 3.5l-.5 1.5-.4.8c-.2.5.3-.6 0 .2a64.4 64.4 0 0 1-3.3 6l-3.9 5.9-2 2.7-1 1.3-.3.4-.4.6c-3.1 4-6.3 7.8-9.2 11.9-2.8 3.9-5.1 8-7.5 12a68 68 0 0 1-3.8 5.9c-.5.6.4-.5 0 0l-.5.6-1.2 1.3-2.4 2.6-12.2 12-6 6-3.2 3.1-.6.6c-.4.5.9-.4.1 0a4.3 4.3 0 0 0-.5.2l-1 .8c.6-.5.8-.6.4-.4l2.2-.6 1.5.5a4 4 0 0 0-6 3.4 5 5 0 0 0 2.5 4.4 5.7 5.7 0 0 0 6-.2 19 19 0 0 0 3.2-2.8l3-2.9 11.5-11.3c3.9-3.8 7.8-7.6 11.1-11.9 3-4 5.3-8.4 7.9-12.6 1.3-2.2 2.8-4.3 4.3-6.3l2.1-3 .6-.7 1.3-1.7c3.2-4 6.5-8.2 9.5-12.5a64.9 64.9 0 0 0 7.4-13.5c2-5 2.6-10.4 3-15.8.6-6 1-12 1.2-18 .2-3 .4-6.2.3-9.3a13.7 13.7 0 0 0-.3-3l-.6-2a27.5 27.5 0 0 1-.3-4.3l-6 2.4c.7.6-.4-1-.2-1.3l4.7-2a1.7 1.7 0 0 1-.6-.3 3.1 3.1 0 0 0-4 .8 3.2 3.2 0 0 0 .2 4.1z"/><path d="M13.9 174.5a12.3 12.3 0 0 0-1.4 2.6c-.3 1.3.1 3 .3 4.3A46.6 46.6 0 0 0 14 187a81.2 81.2 0 0 0 4.2 11.6 88.4 88.4 0 0 0 5.2 10.2 69.3 69.3 0 0 0 7.4 10 72.7 72.7 0 0 0 9.4 8.8l4.7-8a12.8 12.8 0 0 1-1.7-.5l-.3-.1-.5-.3a11.7 11.7 0 0 1-1.4-.8c.5.4.3.2 0-.1l-.8-.7a4.9 4.9 0 0 0-6.8 0 5 5 0 0 0 0 6.8 294 294 0 0 0 24.3 27.2 240.2 240.2 0 0 0 27.2 22.5 210.4 210.4 0 0 0 29.4 17.6 90 90 0 0 0 34 9.8c13.6.8 26.8-3 37.3-11.8 2-1.6 1.8-5.2 0-6.9a5 5 0 0 0-6.9 0l-.8.7c-.6.5.9-.6-.2.2l-1.4 1a40.5 40.5 0 0 1-3.5 2.1l-3.5 1.8c-.7.3.7-.3 0 0l-1 .4a37.2 37.2 0 0 1-2.1.7 49.5 49.5 0 0 1-7.8 1.8c1-.1 0 0-.2 0l-1.1.1-1.8.2a60.7 60.7 0 0 1-8.3-.1l-2-.2-.9-.1c1.1.1-.3 0-.4 0a75 75 0 0 1-8.2-1.8 88.4 88.4 0 0 1-7.9-2.6l-1.7-.7-1-.4-.3-.1-3.7-1.7a202.7 202.7 0 0 1-28.8-17c-2.2-1.5-4.4-3-6.6-4.7l-1.6-1.2-.9-.7-3.4-2.7Q73 252.1 67 246.5c-9.7-9.1-18.3-19.1-26.7-29.4l-6.9 6.8a16.9 16.9 0 0 0 9 5 5 5 0 0 0 5.5-2.2c.9-1.7 1-4.5-.8-5.9a72.2 72.2 0 0 1-8-7.4 72.7 72.7 0 0 1-3.8-4.3l-.4-.4-.7-1-1.7-2.4a77 77 0 0 1-5.7-9.4 70.6 70.6 0 0 1-1.2-2.5l-.2-.5-.6-1.5-1.8-5.2-1.6-5.9-.7-3c-.4-1.4-1.5-2.3-2.5-3.3a2.7 2.7 0 0 0-4.2.5zM20.4 86l-3.8 7 8.8 3.6.4-1.1.3-.6 1.1-2.4 2.5-4.6 3-4.5 1.4-2.2.8-1 .4-.5c-.3.4-.3.4 0 0a153 153 0 0 1 14.8-16l9-8.3a4.9 4.9 0 0 0 0-6.8 5 5 0 0 0-6.9 0L32.8 65.2l6.8 6.8a133.9 133.9 0 0 1 16.7-16.5l2.3-1.8.6-.5.2-.2c-.4.3.1 0 .2 0l.8-.7 4.8-3.5q5-3.3 10-6.2 5.2-2.9 10.6-5.3l1.3-.6.6-.2s.6-.3.1-.1l.4-.2.6-.2 1.5-.6c2-.8 4.2-1.6 6.3-2.2a48 48 0 0 1 6.4-1.6h.8l1.6-.2a29.2 29.2 0 0 1 3.5 0l1.6.1c.6 0 0 0 0 0l.8.2 3.2.6 6.6 1.7c9 2.4 19.8 4.2 27.9-1.7 1.7-1.2 3-3.3 2.2-5.5a5 5 0 0 0-4.6-3.5 47.6 47.6 0 0 0-14.6 3l3.7 8.8a12.1 12.1 0 0 1 1.4-.8l.7-.4c-.8.4-.3 0 0 0a25.4 25.4 0 0 1 3.4-.9h.7l1.7-.1 3.5-.1a248.5 248.5 0 0 1 23.6.7c1 .1.3 0 .1 0l1 .1 2 .4 3.4.7a59.6 59.6 0 0 1 6.5 2l1.5.5h.2l.4.2 3.1 1.6a48.3 48.3 0 0 1 4.2 2.5l.7.5.5.3.3.3.6.5A43.4 43.4 0 0 1 199 47l1.2 1.3.5.7c.1.2.6.8.1.1l2.1 3 4.1 6.1A199.6 199.6 0 0 1 221 83.7l1.6 3.7.4.8.2.5.7 1.8 3 7.7q2.7 7.8 4.8 15.7a4.8 4.8 0 1 0 9.4-2.6c-1.3-5-2.6-10-3.5-15.1l-.3-2-.1-1v-.1l-.4-3.9a58.6 58.6 0 0 1 0-7.7l-9.5 1.3 6.7 27.5 8.1-4.8-12.3-14.8-1.5-1.7c0-.1-.5-.7 0-.1l-.9-1.1-2.9-3.9a162.6 162.6 0 0 1-5.2-7.7c-3.4-5.4-6-11.2-9.7-16.5a59.2 59.2 0 0 0-13-13.4A153.4 153.4 0 0 0 180 35.6l-3.7 8.9a75.3 75.3 0 0 1 10 2.9c.9.2 1.7.5 2.4.9l1.1.4.5.2 5 2.4A4.9 4.9 0 1 0 200 43c-7.6-4.5-15.4-9-24.2-11s-18-2-26.9-1c-5.3.5-10.6 1.4-15.9 2.2-2.5.5-4.1 3.7-3.4 6 .9 2.8 3.3 3.9 6 3.4l6.3-1 3-.4.9-.2h.6l1.1-.1a107.9 107.9 0 0 1 12.6-.9c2 0 4.2.1 6.2.3l1.6.1 1 .1.5.1.7.1a38.4 38.4 0 0 1 1.8.4 48 48 0 0 1 6 1.6l2.8 1 .3.1.2.1 1.6.8c4.3 2 8.4 4.4 12.4 6.8l4.9-8.4a80.2 80.2 0 0 0-21.3-7.8A5 5 0 0 0 173 38a4.8 4.8 0 0 0 2 6 169.8 169.8 0 0 1 14.5 9.2l1.7 1.2c-.9-.6.2.2.3.3l.6.5 3.4 3 2.9 3 1.3 1.6c.1.2.6.7 0 0l1 1.3c3.5 5 6.2 10.7 9.4 16a174.5 174.5 0 0 0 11.3 16c4.4 5.6 9 11 13.6 16.4a4.9 4.9 0 0 0 6 .8 5 5 0 0 0 2.2-5.5Q240 94 236.5 80.3a4.8 4.8 0 0 0-5.3-3.5 5 5 0 0 0-4.2 4.7c-.7 11 2 21.9 4.6 32.4l9.4-2.6a206.9 206.9 0 0 0-24.5-56.1 66.6 66.6 0 0 0-20.7-23.4 66.2 66.2 0 0 0-29.5-8.4c-6.1-.5-12.2-.4-18.3-.4-5.8 0-12.2.2-17.2 3.7a5 5 0 0 0-2 6c.9 2 3.5 3.7 5.7 2.8a44.3 44.3 0 0 1 6.3-1.9 35.8 35.8 0 0 1 3.8-.6l2-.2-2.5-9a17.1 17.1 0 0 1-2.3 1.4l-.6.3c-.6.3.8-.2.1 0l-1.4.5c-.4.2-1 .2-1.4.3l-.9.1-1 .1h-1.5l-2.8-.1-1.2-.1c-1-.1 0 0 .1 0l-.8-.2c-2.1-.3-4.2-.8-6.3-1.4a90.3 90.3 0 0 0-14-3 39.2 39.2 0 0 0-14 1.4A113 113 0 0 0 72.6 33 141.3 141.3 0 0 0 52 46.6a134.7 134.7 0 0 0-19.3 18.6c-1.7 2-2 5 0 6.8a5 5 0 0 0 6.8 0l19.5-16.5-6.9-6.8A159.8 159.8 0 0 0 22 82a75.7 75.7 0 0 0-5.8 12c-1 2.3.7 4.9 2.8 5.7a4.8 4.8 0 0 0 6-2l3.6-7c1.2-2.3.6-5.2-1.7-6.4a4.8 4.8 0 0 0-6.4 1.6z"/><path d="M19.7 107.8v-.1a2.6 2.6 0 0 0-1.3-2.3 3.1 3.1 0 0 0-3.7.6 3.4 3.4 0 0 0 .9 5.3 4.6 4.6 0 0 0 5.5-.9 22.2 22.2 0 0 0 2.6-3.8c2.5-4.2 5-8.4 7.9-12.4l2-2.9.6-.6c-.6.7-.1.1 0 0l1.3-1.6q2.3-3 4.8-5.7A172.7 172.7 0 0 1 62 63l2.8-2.3 1.5-1.1.1-.1 1.1-.9c2.2-1.7 4.5-3.3 6.8-4.8A75 75 0 0 1 81 50l3.3-1.6.8-.3 2-.8a91.3 91.3 0 0 1 14.8-4.3l4.2-.7 2.2-.4c.2 0 1 0 0 0l1.3-.1a138.9 138.9 0 0 1 26-1 4.9 4.9 0 0 0 4.8-4.8 5 5 0 0 0-4.8-4.8Q119.3 29.9 103 30c-5.5 0-11.1-.1-16.3 2.2a30.5 30.5 0 0 0-9.4 7.3L73 44a38 38 0 0 1-2.4 2.2 8.5 8.5 0 0 0-3 3.7c-1.1 2.9 1.7 5.5 4.4 5.7s5-2.2 6.8-3.8l4-4 3.8-3.9c.5-.4 1.4-1 1.7-1.5-.3.5-.6.4-.1.1l.5-.4a20.5 20.5 0 0 1 1.2-.8l1.2-.6-.4.2a5.3 5.3 0 0 0 .7-.3 13.9 13.9 0 0 1 1.6-.5l1-.1.4-.1h-.1l7.4-.3 16 .2q9 .3 17.8 1v-9.7c-20-.6-41 1.3-59.2 10.4a134 134 0 0 0-25.2 18 176.3 176.3 0 0 0-20.3 20.1 137 137 0 0 0-10 13.3 78.6 78.6 0 0 0-4.2 6.9l-1.8 3.5a14.2 14.2 0 0 0-.8 2.8 5.6 5.6 0 0 0-.3 1.5l.2 1.1c.1.4.1.3 0-.4l.4-1.8v.2l1.9-1.5H16l2.4.3h-.1l1 1 .2.5v1.4l-1.8 1.8a2.5 2.5 0 0 0 2-2.4z"/><path d="M67.4 71.3c-6.9 6.6-6.4 18.7-3 27 4.5 10.6 17 16.8 26.2 7.2 12-12.4 19.4-45.2-3.2-50.5-18.1-4.2-42 17.2-31 35.6C69 112 106 87.6 96.2 67.3 86 46 58.1 65 49.1 77.3c-5.3 7.4-9.2 18.7-4.3 27 6 10.5 20.2 8.7 27.5.8a21.4 21.4 0 0 0 1-27.7c-6.7-8.4-18.5-10-28.3-6.8a31 31 0 0 0-20 19c-3.6 10.3.3 24.5 13.3 24.3C49 113.7 58 102.2 62 93.3c3.1-6.8 2.1-15.4-5.6-18.6-6-2.5-11.4-.2-16.3 3.3a57 57 0 0 0-19.6 24.4c-2.4 6.1-1.9 12-.8 18.3.9 5.1 1.3 11.2 3.8 15.7s8.2 6.7 13.1 5.3h.3c5.2-1.4 8.2-6 8.5-11.2v-.2c.4-6.3-5.6-11.7-11.6-11.7-6.6 0-11.2 5.4-11.6 11.7v.2l8.5-11.2h-.3l13.2 5.4c.9 1.7-.2-3.4-.3-4l-1-5.2c-.6-3-.6-4.5 1-7.1a42.9 42.9 0 0 1 5-6.7c1.4-1.6 5-5 5.8-5.4h-6.2l1 .2-8.2-8.1.4 1v-6.2a28.9 28.9 0 0 1-3 5 12.7 12.7 0 0 1-4.8 4l5.8-1.6h.4l5.1 3-.7-1 3 5.2c.6 1.7 0-.1.2-.6a12.4 12.4 0 0 1 .6-1.5 8.7 8.7 0 0 1 5.8-3.3c3.3-.5 2 1 1.4-1.2s2.5-3.3 4.3-2.7l5.2 3c4.9 4.2 0 5.6 2 3-2 2.7 3-5.7 1.2-2.8a23 23 0 0 1 4.5-5.3 25.3 25.3 0 0 1 6-4 22.6 22.6 0 0 1 3-1.2c-.4.8-4.6-2.4-3.6-1.2l-3-5.1c-.6-1.7 2.7-4.6-.1-2l-1.4 1.4a19 19 0 0 0-2.7 1.7c.3-.6 6.6 5.7 7 5.7 0 0 2.5-3.2 4-3.7.8-.3.5.2 1-.2h.5c-1.8.3-3.1-.9-3.9-3.7l-.6 4.1a36.8 36.8 0 0 1-1.8 6.1 32.2 32.2 0 0 1-1.6 3l-1.3 2.2c-.8 1.3-.5 1 .8-.9l6-1.6H79l6 1.6c1.7 1 .4 1 .3-.7a38.7 38.7 0 0 0-.9-4.5c-.8-3.6-1.6-7.4-3.8-10.4-3-4.4-9-5.7-13.2-1.7z"/><path d="M24.8 100.8c-3.1 1.4-7.3 3.7-9 6.6a34.2 34.2 0 0 0-3.8 10.2 54 54 0 0 0 2.5 26.1c3 11 19.5 11.2 22.5 0a43.8 43.8 0 0 1 13.2-21.5L30.8 117c1.6 5.6 6.3 9.5 12.2 9.5 5 0 9.3-3.7 13.5-6A114.9 114.9 0 0 1 78 112c15.6-4.6 31.7-6.3 48-6.4a427 427 0 0 1 78.7 7.5c7.2 1.4 14.3 2.7 20.5 6.9 10.1 6.8 21.2-6.3 16-16-8-14.5-20.5-25.3-33.8-34.8a186.7 186.7 0 0 0-42-24.4c-17.5-6.5-36.5-4.5-54.3-.7-18.2 4-36 10-53.6 16.1l11.3 3-1.6-1.9v16.5c4.8-5 12-7.4 18.2-9.8a153.2 153.2 0 0 1 24.6-6.8 138.4 138.4 0 0 1 49-.4c7.7 1.4 15.9 3 23 6.5 2.9 1.4 6.4 3 8.5 5.6.1.1.7 1 .5 1-.5.3.7-2 .3-1.4a1.6 1.6 0 0 1 1.2-1.3c1-.5 1-.6 0-.3-.6-.5-5.7-1.4-7.7-2-4.4-1.4-8.8-2.8-13.3-4a199.4 199.4 0 0 0-28.3-5.8c-20.5-2.6-41.1-.3-59.9 8.7-10.5 5-5.2 22 5.9 21.7a218.7 218.7 0 0 1 35 1.6c5.6.8 11.3 1.9 16.9 3a208.6 208.6 0 0 1 9.2 2.3 25.4 25.4 0 0 0 3.7 1c2.5.3.6 1-.6-1 7.1 13.2 27.2 1.5 20.1-11.7-3.7-7-10.8-9-17.9-11s-14.3-3.3-21.5-4.4a243.2 243.2 0 0 0-45-3.1l6 21.7c17.6-8.5 38.2-7.9 56.8-4 10.2 2.2 20 5.5 30 8.5 10.6 3.2 24 2 29.8-8.8 5.5-10.1 1.3-22.2-7-29.3a71.5 71.5 0 0 0-28.3-13.5 161.6 161.6 0 0 0-60.8-3.8A165.4 165.4 0 0 0 82 44.6C71 48.4 59 52.8 50.9 61.2c-4.7 4.9-4 11.5 0 16.5l1.6 2c2.4 3 7.7 4.1 11.3 3a539.5 539.5 0 0 1 48-15c15-3.6 30.8-6.3 45.8-1.1C171 71 183 80.4 194.3 88.3a84 84 0 0 1 26.8 27.4l16-16c-13.5-9-31.7-10.6-47.2-12.7a495.5 495.5 0 0 0-55-4.8c-33.8-.9-68.7 4.4-97.8 22.6l9-1.2-.8-.2 8.2 8.1-.2-.7a11.8 11.8 0 0 0-19.5-5.2 66.3 66.3 0 0 0-19.3 31.9H37a146.7 146.7 0 0 1-4-16.4 26 26 0 0 1-.2-6.3c.2-2.6-.4-5.2 0-7.8 1-5-3.6-8.2-8-6.2zm5.5 79.6a16.7 16.7 0 0 1 0-2.4l-.7 3c.9-2 2-3.8 2.5-6a37.1 37.1 0 0 0 .5-4.3c0-.4.3-3.7 0-1.7 1.5-8.4-5.2-16.5-14-14a11.5 11.5 0 0 0-5 19c-1-1 .4.7.7 1a36.7 36.7 0 0 0 1.6 2.5 43.8 43.8 0 0 0 4.4 4.7l-1.5-2.7a13 13 0 0 1 .8 2.4c1.8 5.8 10.7 4.8 10.7-1.5z"/><path d="M36.7 185.6a44.6 44.6 0 0 0 .1-25.9 10.8 10.8 0 0 0-.7-2.3c1.2.4-2.9 5.2 0 2.1a29.4 29.4 0 0 0 2-2.7 78 78 0 0 1 7.4-8.3 79.6 79.6 0 0 1 35.2-20.1c15.8-4.3 32.3-4.8 48.6-5a447.3 447.3 0 0 1 53.1 2.6 191.9 191.9 0 0 1 26.6 4.3 71 71 0 0 1 11.2 3.6 35.6 35.6 0 0 1 5.3 2.8c-.4-.3 1.6.9 1.1.8.7.7.7.7.1-.3q-.9-1.8-.2.6l22.4-6.2a51 51 0 0 0-24.8-27.8c-10.8-5.2-21 5.2-16 16l11.5 24.2a36.8 36.8 0 0 0 6.4 10c.3.4 2.5 3 3 3q-1.3-6.3-1.4-2.7a9.2 9.2 0 0 0 .7 4c1.7 4.4 6 9.2 11.3 8.6 4.3-.5 8.8-2 10.8-6.4 2.4-5.5 1.9-12.8-4.2-16h-.3c-5.3-2.8-13-1.7-16 4.1a23 23 0 0 0-2 17.3c3.5 12.2 23.8 10.3 23-3.1l-1.3-18.4c-.7-11.3-15.5-16.2-21.7-5.9-6.5 10.8-9.4 23.6 0 33.7 7.6 8 23.8-.2 19.5-11.3-13.9-35.7-55.8-44-90-43-18.2.6-36.8 1.4-54.9 3.7-18.5 2.4-35 9.8-50.3 20.5a52.8 52.8 0 0 0-19.3 22c-3.7 8.2-5 17.1-8.5 25.3-5.9 13.9 11 23.8 20.2 11.8a83 83 0 0 1 10.4-11c4.6-4.3 4.3-12.3 0-16.6a11.9 11.9 0 0 0-16.5 0 116.4 116.4 0 0 0-14 15.8l20.1 11.8c5-11.7 6-27 15.7-36 5.1-4.8 11.8-8.3 17.8-11.7a73.1 73.1 0 0 1 20.5-7.7c15-3.2 30.8-3 46-3.9 15.6-1 31.5-1.7 46.7 2 12.7 3.1 28.5 10 33.6 23.2l19.5-11.4c.9 1-.2 1.8.6.6 1.1-1.7 2-4.2 3-6l-21.7-6 1.2 18.5 22.8-3.1-.3.7-16 4.1.3.2-4.1-16-.3.6 10-5.8h-.4l11.2 8.6c.2 1.5.3 1.4.2-.2a10.6 10.6 0 0 0-.9-4.3 18 18 0 0 0-3.7-6.2c-2.3-2.7-4.3-4.3-6-7.6L228.1 108l-15.9 16c6.2 3 11.6 7.6 14.1 13.9 5.6 14 24.7 8.6 22.5-6.2-1.5-10-11.5-15.5-20-19.1a111.9 111.9 0 0 0-26.7-7.3 434.9 434.9 0 0 0-61.1-5c-19.8-.4-40 0-59.5 4a105.9 105.9 0 0 0-47.8 23.6A83 83 0 0 0 15.4 149c-3.5 6-2.5 11.5-.8 17.8a27.9 27.9 0 0 1 .3 12.8c-3 14.2 17.4 20 21.8 6z"/><path d="M54.7 193.3c12.4-7.9 23.6-16.9 37.2-22.7a125 125 0 0 1 38.5-9.7 129.2 129.2 0 0 1 78.6 19 11.8 11.8 0 0 0 15.9-4.1c3.4-5.8 1-12.4-4.2-16a167.3 167.3 0 0 0-21-12.3l-3.1-1.4a14.2 14.2 0 0 1-2-.9q-2.5-1.5 2 2.5l-11.3 14.8c18.7 2.4 31 21 39.8 35.7 5.8 9.8 22 5.9 21.7-5.9-.2-10 1.5-22.2-6.4-29.8a30 30 0 0 0-11.3-6l-4.3-1.5c2 .6-.5-.8.1 0l-1-1.2-14 18.2c4.3 2.8 11 6.2 11.4 11.8a149.7 149.7 0 0 0 3.8 25.7l19.5-11.3C229.3 185.8 214 173 197 162.7a87.2 87.2 0 0 0-55.3-11.8c-9.5.8-19 2.4-27.8 6-9.6 4-18.3 9.5-27 15-16.4 10.3-32.6 21.4-49.6 30.6-13.3 7-1.5 27.2 11.8 20.1 15.9-8.6 31-18.9 46.3-28.5 14.1-8.9 27.4-18 44.5-19.7 7.8-.8 16-1.3 23.8-.2s14.8 4.6 21.5 8.7c15.2 9.2 29 20.6 42.8 31.8 8.8 7.2 22.3.7 19.5-11.3a107.8 107.8 0 0 1-2.5-13.2c-.5-5.2-.2-10.9-1.7-15.9-3-10-13.4-17.2-21.8-22.4-5-3-11.7-1.5-15 3-3.8 5-2.8 10.6.9 15.3 4.4 5.5 11 6.6 17 9.2.9.3.8.3-.2-.1 1.1.7 1.1.7 0 0-.7-2.7-1-3.3-1-.2l.4 13.2 21.7-6c-13.8-23.1-32-43.5-60-47.2-8.3-1-12.2 8.3-11.2 14.8 1.3 8.6 9.5 11.5 16.2 14.8A153 153 0 0 1 209 180l11.8-20.1a150 150 0 0 0-90.4-22.1 151 151 0 0 0-45 10.6 190.2 190.2 0 0 0-42.2 25.3c-4.9 3.7-7.4 9.9-4 15.6 3 5.2 10.3 7.4 15.5 4.1z"/><path d="M62.3 224c-1.3-3.3-3-5.2-6.5-6.2-7-2.1-15.3 6.8-10.3 13.3 3.7 4.9 8.4 7.7 14.6 5.8 4.4-1.3 8-4.2 11.7-6.9 6.8-5 13.7-9.9 20.7-14.6a149 149 0 0 1 44.3-21.6c14-3.7 31.3-4.9 44.6 2.2 6.7 3.6 11.7 9.2 17 14.6l19.9 20.1 8.2-19.9a65.8 65.8 0 0 0-8 1.4c-1.4.4-3.3 1.4-4.8 1.3s-2.5-1-4-2.3c-6.1-5.3-11.7-11-18.6-15.5-14-9.3-30.4-16.9-47.5-16a84 84 0 0 0-46.2 18 182.5 182.5 0 0 0-18.9 16.5c-4.2 4.2-8.7 10.3-14.4 12.6-7.9 3.2-11.7 12.6-5.1 19.4 5.7 5.8 11.9 14.9 20.9 14.9 8.4 0 13.5-8.3 19.1-13.3a106.3 106.3 0 0 1 33.8-20.8c12-4.5 26-8.3 38.8-5.7 14.8 3 25.5 16.2 36.4 25.8l14.1-18.3-1.7-.8c-5.7-2.6-12.6-1.7-16 4.2-3 5-1.6 13.3 4.2 16l1.7.7c5.3 2.5 11.3 2 15-3 3.3-4.4 3.6-11.4-.9-15.3-11.7-10.4-23.3-23.1-38.1-29.1a74.5 74.5 0 0 0-42.7-2 128.7 128.7 0 0 0-38 14.8 138.4 138.4 0 0 0-17 11.8 110.2 110.2 0 0 0-11.3 10.2l-1.7 1.8c-1.7 1.6-1.4 1.7 1.1.1H83q3.5 2.5.6-.2l-2.7-2.7-5.4-5.5-5.1 19.5c15.2-6.2 24.8-20 37.2-30.1 10.5-8.8 23.7-16 37.7-16.2s27.9 7.7 38.6 16c6.1 4.7 10.8 11.4 18 15a25 25 0 0 0 13.3 2.7c4-.3 7.6-2 11.4-2.6 4.7-.6 8.7-2.4 10.6-7.1a11.7 11.7 0 0 0-2.4-12.7l-20-20.2c-6.2-6.3-12.4-12.9-20.2-17.4-16.6-9.6-37-10.4-55.4-7.2-17.9 3.1-34.8 11-50.2 20.5-7.6 4.7-15 9.9-22.3 15.2L55.9 213c-4 2.8-8.2 4-10.4 9L62 224l-.1-.4v4.4l-1.5 2.4c1.4-1.7 2.7-4.2 1.8-6.5z"/><path d="M217.5 243.5a56.1 56.1 0 0 0-15.7-11.7 101.6 101.6 0 0 0-21.7-7.5 231.4 231.4 0 0 0-47-4l3.2 22.9c14-5.5 28.7-4.7 43.4-3.6 13.4 1 15.5-19.5 3.1-23a90.6 90.6 0 0 0-62 5.2l11.7 20.2c20.8-13 45.4-15.4 69.4-13.7l-3.1-23a145.6 145.6 0 0 0-28.6 12c-9 5-18.5 5.4-28.4 7.4a129.4 129.4 0 0 0-29.1 9.8 78.3 78.3 0 0 0-24.2 19.3l14.1-1.8a15.3 15.3 0 0 0-12.4-1.7 11.7 11.7 0 0 0-8.4 12.8c1 6.2 5.5 9.4 11.5 10.1s13 5.7 18.9 9.4c7.3 4.5 15 9.2 23.5 11.1 10.4 2.4 22 1.7 32.4.1s20.4-6.6 28.5-13.1c7.1-5.7 15-17.3 9.6-26.5-3.7-6.2-10.6-7-17-7.4a105.7 105.7 0 0 1-14.7-2.1 113.5 113.5 0 0 0-32.9-2.3c-10.2.9-25.6 1.8-29.3 13.6a15.2 15.2 0 0 0 6.6 17.1c5 3.1 11 3.4 16.6 4.2q18.8 2.5 37.8 3.2c9.6.4 13.7-10 10.1-17.5l-.5-1.2c-2.7-5.7-11-7.2-16-4.2-5.9 3.4-7 10.3-4.2 16l.5 1.2 10.1-17.6q-12-.4-24-1.6l-10.8-1.2-5-.8a25.6 25.6 0 0 1-2.2-.3q-4.7-1.7 3.2 3.9v6.2l-4 4.3 1.3-.3c1.3 0 3.2-.7 4.6-1a71 71 0 0 1 7-.8 99.8 99.8 0 0 1 17 .3c4.8.5 9.5 1.7 14.3 2.6 5.6 1.1 12 .6 17.4 2l-5.2-3 1 .9-3-5.2v.8-6.2c-.8 5.6-10 10-16 12-4.5 1.4-9 1.7-13.8 1.8s-9.9.6-14.6-.7c-7.1-2-13.7-6.7-20.3-10.8-8.5-5.2-17-8.9-27-10.2l3.2 23 1.1-.4h-6.1l-.6-.3a11.8 11.8 0 0 0 14.2-1.8 61.5 61.5 0 0 1 20.2-16 109.9 109.9 0 0 1 26.3-7.8c10.4-1.8 19.5-3.3 29-8.2 8-4.2 15.7-8 24.5-10.5 13-3.8 9.8-22-3.1-23-28-2-57 2-81.2 17a12 12 0 0 0-4.2 16c3.5 5.8 10.2 6.7 16 4.1a65.2 65.2 0 0 1 44.1-2.8l3.1-23c-16.6-1.2-33.8-1.7-49.6 4.5-5.4 2.1-9.3 6.7-8.4 12.8a11.7 11.7 0 0 0 11.5 10.1c13 .2 26.3.2 39 2.8a85.8 85.8 0 0 1 16.2 4.8 51 51 0 0 1 13 8.4c4.8 3.9 11.5 4.6 16.1 0a11.5 11.5 0 0 0 0-16.1zm-92 73c-2.6 1.1-4 3.9-4.9 6.5a33.5 33.5 0 0 0-1 10.7l.1 2.7a5.4 5.4 0 0 0 .5 2.4 1.6 1.6 0 0 0 2 .5 3.4 3.4 0 0 0 1.5-2 14.6 14.6 0 0 0 .5-5.1 55.3 55.3 0 0 0-.4-5.8c-.2-1.6-.3-3.5-1.4-4.8-1.3-1.6-3 0-3.6 1.3a10.2 10.2 0 0 0-.8 4.6 29 29 0 0 0 .6 5.3 27.8 27.8 0 0 0 1.5 5 2.5 2.5 0 0 0 1.4 1.6 2.1 2.1 0 0 0 2.3-1 7 7 0 0 0 .8-2.2l.7-2.8 1-5.5c.1-1.3 1-4.7-1.2-4.7-1 0-1.5.8-1.7 1.6a23 23 0 0 0-.7 3 32.2 32.2 0 0 0 0 12.4c.3 1 2 .8 2-.3a14.7 14.7 0 0 0-.3-2.2l-.2-2.2c0-.2-.4-.3-.4 0l-.5 2.2a15.2 15.2 0 0 0-.6 2.2l2-.3a34.8 34.8 0 0 1-.5-7.6 28.4 28.4 0 0 1 .4-3.7l.4-1.9.2-.9a2.8 2.8 0 0 0 .2-.3c0-.1.1 0 0 0h-.6l-.2-.2v1.1l-.3 1.8-.6 3.5-.8 3.6-.4 1.7a2.5 2.5 0 0 1-.2.6l-.2.2c.1 0 .2 0 0 0s-.1-.4-.1-.6l-.3-.7-.6-1.7a29.3 29.3 0 0 1-.8-3.4 17.4 17.4 0 0 1-.1-6.3 5 5 0 0 1 .4-1.2 3 3 0 0 1 .4-.5l.1-.2c.2-.1.2-.2 0-.2h-.1a5 5 0 0 1 .3.6 6.4 6.4 0 0 1 .2.8 13.8 13.8 0 0 1 .3 1.6 55 55 0 0 1 .4 7.5 11.6 11.6 0 0 1-.2 3.1 3.2 3.2 0 0 1-.3.6l-.3.5.4.1a3 3 0 0 0 0-.3v-1a41.6 41.6 0 0 1-.2-7.2 39 39 0 0 1 1-7.2 9.9 9.9 0 0 1 3.2-5.2c.2-.1 0-.4-.3-.3z"/><path d="M114.7 333.6a41 41 0 0 0 3.7 10.8 5.4 5.4 0 0 0 5.5 2.6 5.5 5.5 0 0 0 4.5-4 249.5 249.5 0 0 0 4.2-15.6 12.3 12.3 0 0 0 .4-3.4 9.2 9.2 0 0 0-2.3-5.4l1.6 2.8a7.9 7.9 0 0 0-13-3.7c-2.1 2-3 5.2-3.9 7.9a42.9 42.9 0 0 0-2.2 14h15l-.6-3.9.3 2a94 94 0 0 0-2-11.8c-.9-3.4-1.8-6.8-2.5-10.2l.3 2v-.5l-.3 2 .1-.3-.8 1.9.2-.3c1.2-2.7 1.7-5.7 0-8.4a8.3 8.3 0 0 0-11.4-3 8.5 8.5 0 0 0-4 7.2c-.3 4.8-.2 9.7 0 14.5l14.3-2c-.3-1.2-.7-2.4-.9-3.7l.3 1.9-3-25.6c-.6-3.8-1.3-7.6-2.2-11.4s-2.5-7.3-3.4-11a8.6 8.6 0 0 0-9.5-6.3c-4 .6-7.7 4.2-7.5 8.5.3 4.5 2.6 8.6 3.8 12.9 1.1 3.7 2 7.6 2.7 11.4s1.7 8 2.7 11.8 2 8 2.6 12l-.2-1.8.3 3.4c.3 3.6 2.5 6.7 6.3 7.2 3.3.4 7.5-1.7 8-5.3.9-5.5 1.8-11 2.2-16.5l-12.4 7.2.2.2-1.6-1.3.3.3-1.2-1.6.3.4-.8-1.8a73.7 73.7 0 0 1 4.4 17.1l-.3-2a37.7 37.7 0 0 1 .4 4.8c0 4 3.4 7.6 7.4 7.5 4.3-.2 7-3.3 7.4-7.5a57.7 57.7 0 0 1 .3-2.3l-.3 2 .8-5.7-.3 2a49.1 49.1 0 0 1 1.2-5.9l.8-2.6.4-1.3q-4.8 5.4-1 2.2a5.7 5.7 0 0 1-4 1.6l-4.5-1.9-.6-.8c-.4-2.2-.6-2.9-.6-2v.9l-.2 2-.3 2.5v-.2l-.1 1.2a88.1 88.1 0 0 1-1.8 8.9l10-1.3-2.2-4.3-1-2-.5-1-.2-.5c-1-2.3-3.2-4.2-5.9-3.3a4.9 4.9 0 0 0-3.3 5.8z"/><path d="M108.9 288.3a9.2 9.2 0 0 0-1 5.3 18.5 18.5 0 0 0 1.9 6.4 17.7 17.7 0 0 0 4.4 6.5c4.2 3.7 9 6.5 14.4 7.3a8.3 8.3 0 0 0 4.5.2 8.2 8.2 0 0 0 4-1.3 11 11 0 0 0 4-15.2c-1.4-2.3-3.8-4.7-6.6-5.1a31.8 31.8 0 0 1-7.4-2.2l2.6 1a24 24 0 0 1-2.4-1.1l-1-.7a27.8 27.8 0 0 0-3.5-1.5l2.4 1a21.4 21.4 0 0 1-4-2.2 16 16 0 0 0-3.4-1.6 7.5 7.5 0 0 0-9 3.1Z"/><path d="M128 299.7a11.8 11.8 0 0 0-2.9 6 49.3 49.3 0 0 0-1.2 5.9l-1.1 8.9.3-2.1-2 13.2 16 2.2c.2-5.3.2-10.7-1.2-16a35.8 35.8 0 0 0-7.3-13.7c-2-2.2-5.5-2.9-8.2-2.1-2.6.7-5.5 3-5.9 5.9-.4 3-1.1 5.8-1.6 8.8l-1.6 11.6.4-3c-1.2 8.5-3.2 17-3.8 25.6a13 13 0 0 0 3.8 9.1 13.3 13.3 0 0 0 7.4 3.6 12.4 12.4 0 0 0 8.3-1.5c2.7-1.8 5.4-4.5 6-7.8a82.5 82.5 0 0 0 1.1-8.3c.2-1.6 0-3.3 0-5a186.7 186.7 0 0 0-1.6-23c-.2-1.7-.4-3.4-.8-5l-1.3-5.1-12.4 9.5.3.2-1.7-1.3a17.9 17.9 0 0 1 3 3l-1.2-1.6 1 2.2-.8-1.9a27 27 0 0 1 1.8 6.7l-.3-2.1a88.2 88.2 0 0 1 .4 11.2c0 4.3 3.7 8.4 8.1 8.2a8.3 8.3 0 0 0 5.8-2.4 9.5 9.5 0 0 0 2.3-5.8q1-7.6 1.8-15.3c.2-2.4.6-5 .7-7.4l-.1-4c-.1-2.2-.2-4.2-1.5-6.2a6.4 6.4 0 0 0-10-1.2z"/><path d="M116.5 330.3c-2.8.3-4.1 1.9-5.7 4a11 11 0 0 0-1.7 4.9l14 1.9a23.6 23.6 0 0 0-1-5.5l-1.4-4-13.4 5.7c.3.5.3.5 0 0s-.3-.7-.1 0l.2 1.2-.3-2a66.3 66.3 0 0 1-.2 11.8c-.2 4.2-.4 8.5-1 12.6l.4-2.3a20.5 20.5 0 0 1-1.4 5l.9-2a25.8 25.8 0 0 1-3.3 5.4l1.3-1.7c-1.4 1.7-3.7 3.1-4.6 5.1-1.2 2.7-1.5 5.4 0 8a8 8 0 0 0 6.9 4c3.6 0 6.5-2.4 9.1-4.6a22.4 22.4 0 0 0 4.5-5.5 28.6 28.6 0 0 0 4-14.4c0-4.4-.3-8.8-.4-13.3a55.5 55.5 0 0 0-.7-7.7 14.5 14.5 0 0 0-.9-2.9 13.1 13.1 0 0 0-1-2.5c-.4-.7-.3-.5.2.6l-1-2.2a7.2 7.2 0 0 0-4.3-3.3 7.5 7.5 0 0 0-4.8.4 7.3 7.3 0 0 0-4.2 8.6l1.1 4a23.6 23.6 0 0 0 2.2 5 7.1 7.1 0 0 0 13-5.4l-.2-.9c0-.1-.2-1.6 0-.5q0 1.1-.1-.4a3.2 3.2 0 0 0-.5-1.7 10.6 10.6 0 0 0-.6-1.5c.2.4.4 1 0 .3a9.8 9.8 0 0 0-.6-1.6 5 5 0 0 0-4.3-2.6zm11 7.5c-.1 1.2.3-2.3 0 .2a11.5 11.5 0 0 0-.1 1.5l-.2 1.9c0 1.6.4 3.2.3 4.8l-.6 5-.3 2.5c-.2 1.5.4-1-.1.4l-.3 1.2-1.2 4.8a50 50 0 0 0-.6 6.2l-.5 5c-.1 2.1-.6 4.3 0 6.4a6.4 6.4 0 0 0 5.3 4.6 6.3 6.3 0 0 0 6.4-3c1.2-2.5 1.3-5.2 1.5-7.8l.6-5a35.6 35.6 0 0 0 .4-5.4l-.3-5.2a43 43 0 0 1 .2-5.2l.2-2.4v-1.5c0 .8 0 .1.2-.3a21.1 21.1 0 0 0 1.1-5.8 16.2 16.2 0 0 0-.3-3.1 8.5 8.5 0 0 0-2.1-3.8 5.6 5.6 0 0 0-6.2-1.1 5.7 5.7 0 0 0-3.4 5.1z"/><path d="M123.7 354c-2.7.8-4.4 2.6-6 4.8a29.5 29.5 0 0 0-2.7 5.5 74.5 74.5 0 0 0-3.2 7.6 17.3 17.3 0 0 0-.7 4.7 10.8 10.8 0 0 0 1.4 5.6 10.4 10.4 0 0 0 2.6 2.8 8.3 8.3 0 0 0 3.5 1.8l2.5.3a7.1 7.1 0 0 0 3.6-.8 8.9 8.9 0 0 0 4.5-3.9 14.7 14.7 0 0 0 1-2.4 10.2 10.2 0 0 0 .2-4.2c0-.8-.3-1.6-.5-2.4l.4 2.5v-7.4l-.2-3.7a44.5 44.5 0 0 0-.7-4.8l.2 1.6v-1.5c0-.5.1-1.9-.2-.3a4.8 4.8 0 0 0-1.2-4.5 4.7 4.7 0 0 0-4.5-1.2z"/><path d="M131.5 366.6a6.7 6.7 0 0 0-2.2 3c-.3 1-.3 2-.5 3-.3 1.3-.4 2.6-.5 3.9l-.1 1a11.3 11.3 0 0 0-.2 1h11.4c-1-7.1-2.6-14.2-4-21.3l-.5-2.7-.3-1.2c-.2-.8.1 1.1 0 0l-.5-5.3c-.5-4.6-1.7-8.7-6-11.3a7.3 7.3 0 0 0-6.6-.3 7.6 7.6 0 0 0-4.3 4.8c-1.9 5.2-2.8 10.7-3.8 16.1-1 6-2 12-2.6 18l.3-2.2-1 7.5.3 2.2a6.4 6.4 0 0 0 1.5 2.9 8 8 0 0 0 4.3 3c3.5.8 7.7-.5 9.4-3.9a42.5 42.5 0 0 0 3.6-16.6l1.2-15c.8-9.8 2-19.5 2.5-29.2.3-6-.5-12.1-3.4-17.5a8.6 8.6 0 0 0-9.6-3.9 8.9 8.9 0 0 0-6.3 8.2c-.2 4.2-.5 8.3-1 12.4a26.3 26.3 0 0 0 .2 6.1c.2 1.4.2 3 .6 4.3.5 2.3 2 3.6 3.7 4.9l-2-2c-.2-.7-.2-.7 0-.1l.4.8a13 13 0 0 0 .9 2 4 4 0 0 0 2.4 2 4.2 4.2 0 0 0 3-1.2 15.2 15.2 0 0 0 1.5-1.8c-.5.7.5-.5.6-.6l-2.5 1.5c2-.8 3.9-1.7 5-3.8a40.1 40.1 0 0 0 1.6-4 28.4 28.4 0 0 0 1.8-7.9q.6-6.3.8-12.6l-15.8 4.3a18.7 18.7 0 0 1 .9 1.8l-.9-2a20.6 20.6 0 0 1 1.3 4.8l-.3-2.3a60.7 60.7 0 0 1-.2 12.5l-1.1 14.6c-.7 9.5-1.3 19-2.5 28.4l.3-2.2a31.5 31.5 0 0 1-2 7.7l16.4 2.2c.2-4.8.7-9.6 1.4-14.5l-.3 2.2q.8-6 1.8-11.8c.8-4.4 1.8-8.8 2.3-13.3l-9.5 7.2.3.2-1.8-.8c.3.1 1 .7 0-.1s-.2-.1 0 0c-1.2-.9-.8-1.2-.5-.5l.4.7c0-.2-.7-1.7-.3-.5l.3.8.7 2.3c1 3.2 1.7 6.4 2.4 9.7 1.3 6.5 2.5 13 4 19.5a5.9 5.9 0 0 0 6.5 4.2 6 6 0 0 0 5.2-5.8 31.9 31.9 0 0 0-.2-7.5 25.5 25.5 0 0 0-.6-3 6.7 6.7 0 0 0-3.1-3.6 3.5 3.5 0 0 0-4.2.6zM49 393.9c4.4.4 9-.3 13.4-.5a233.4 233.4 0 0 1 13.5-.2c9 0 17.9.2 26.8 1s18 2.6 27 2.7c9 0 18 0 26.9-1.3 4.7-.7 9.5-.7 14.2-1.4a66.6 66.6 0 0 1 7-.8c2.5-.2 5.2 0 7.6-.8a1.5 1.5 0 0 0 0-2.8c-2.2-.6-4.5-.4-6.7-.3s-4.3.2-6.4 0c-4.3-.2-8.5 0-12.8.2s-8.7 0-13.1 0l-13.5.2c-9 .1-18 .2-27-.3s-18-.6-27-.4c-5 .2-10 .7-15 1.2s-10.3.8-15 2.4a.6.6 0 0 0 0 1.1z"/><path d="M120.5 384.6c-1.2 3.2 2.6 6.1 5.3 7a7.8 7.8 0 0 0 7.5-1.7 6.4 6.4 0 0 0 1.3-7.8c-1.7-3-5.3-4.7-8.4-3s-3.5 5.7-2.6 8.8c.9 3 3 5.8 6 6.8a7.3 7.3 0 0 0 8.4-3.5c1.6-2.9 1.3-6 .2-9l-9 3.8c2.4 4.7 8.4 8 13.6 6.4a7.7 7.7 0 0 0 5.3-7.5c0-3-1.8-5.5-3.6-7.7-2.4-2.9-7.5-1.3-8.3 2.1a18.4 18.4 0 0 0-.5 6l9.7-1.2a11.1 11.1 0 0 0-.8-3.1c0-.3-.2-.5-.3-.8-.5-1.2 0 .6-.1-.7l-7.4 4.3c2.7 2.9 6.6 4 10.3 4.7 2.4.5 4.1.6 6.2 1l3 .5a9.7 9.7 0 0 0 4.2-.3h-1.7l5.8 1a19.8 19.8 0 0 0 3 .3 20.2 20.2 0 0 1 3-.2c3.7.5 7.5.8 11.4 1.1l-2-2.5v.1l1.4-1.4h-.1 1-.1l.9.5v.1l.3 1.6v-.2l-1 1.2.3-.2-1 .3a.3.3 0 0 1 .5.1l.5-4c-7.3-1-14.6-1.3-21.9-2l-10.8-1c-3.6-.3-7-.4-10.6-1-2-.4-4.3.5-4.8 2.7a4 4 0 0 0 2.7 4.8c2.7.7 5.6.6 8.3.8l7.7.6a4.1 4.1 0 0 0 1.1-8l-4-1.5-4-1.3-8.2-2.7-8-2.5-4-1.1c-1.6-.5-3.3-1.2-5-1s-3.3.7-4 2.2a11.3 11.3 0 0 0-.5 1.2 4.6 4.6 0 0 0 1.2 4.6 9.3 9.3 0 0 0 3.2 1.7l1.8.5 4.2 1.3 8.4 2.3 8.1 2 4.4 1.2c1.4.3 2.9.5 4.3 1l1.1-8-7.5-.5-3.5-.2a23.1 23.1 0 0 0-4-.2l1 7.7a69.4 69.4 0 0 1 10.3-.7l11.1-.2c7.3 0 14.7.8 21.9 1.4 2.4.3 2.6-3.3.6-4-1.6-.5-3.6 0-3.9 2a2.4 2.4 0 0 0 3 2.5 2 2 0 0 0 1.5-1.4v-.2a2 2 0 0 0-2-2.5 91.4 91.4 0 0 1-10.8-1.4 14.6 14.6 0 0 1-2.5-1 19 19 0 0 0-2.6-.7l-5.5-1.2 1.4.8a11.2 11.2 0 0 0-3.1-1.9l-2.9-.7-5.5-1.5a44 44 0 0 1-4.8-1l-.4-.2-.9-.4-.6-.4-.7-.7a4.4 4.4 0 0 0-5.3-.7 4.7 4.7 0 0 0-2 5l.1 1v-2.4a18.3 18.3 0 0 0-.4 3 23.5 23.5 0 0 0 .5 3.3c.4 2.4 3.2 3.8 5.4 3.5s4.5-2.4 4.3-4.9a15.3 15.3 0 0 1 0-2.1v-.5l.1-.8-8.2 2.2.3.4.2.3c.3.5.4.7.2 0a3 3 0 0 0 .2.7c-.1-.7-.2-.9-.2-.5v-.1a.9.9 0 0 1 .2-.7c.2-.3.2-.3 0 0a3.6 3.6 0 0 1 1.6-1.2c.6-.2.5-.1 0 0s.7.1.1 0l-.9-.3s1 .5.2 0l-.8-.4c-.5-.3.6.5.2.1l-.7-.6.1.1a10.2 10.2 0 0 1-.5-1 4.9 4.9 0 0 0-6.1-2c-2.1 1-3.7 3.5-2.9 5.8.3.6.4 1.2.6 1.9l.1.4v.1c.1-1.6 1.3-2.2 2.9-1.8a1.4 1.4 0 0 1 1 .3c-.4-.4-.4-.3 0 .2l-.2-.2a2.3 2.3 0 0 1-.3-1.1c-.2 1.8.3-1.5 0 .3l-2.3 3c.4-.4.3-.3-.4 0a3 3 0 0 1-1.6 0 2.8 2.8 0 0 1-1.6-4l.1-.1a1.5 1.5 0 0 1 1-.5 4.5 4.5 0 0 1-.7.2c.6-.1.7-.2.2-.1.6 0 .6 0 0-.1.4.1.4.1-.1-.1l-1.5-.8a4 4 0 0 0-5.6 2.2z"/><path d="M124 387.7a12 12 0 0 0-4-3.6 17.6 17.6 0 0 0-5-1.6 67.2 67.2 0 0 0-9.8-1c-3.4-.1-6.7-.4-10-.7a47 47 0 0 0-11.3.3c-2.4.4-3.8 3.3-3.5 5.5a5 5 0 0 0 4.8 4.3 20.4 20.4 0 0 0 9.2-2.5 28.7 28.7 0 0 0 3.1-2c.7-.6 2-1.7 1.9-2.7-.1-.8-1.2-1.3-1.8-1.5a20.8 20.8 0 0 0-3.5-.7 44 44 0 0 0-8.9-.5l1.4 9.7h.3l1.2-.1 2.5-.1h4.6a151 151 0 0 1 17.8 1h.3l1 .3c.7 0 1.4.3 2.1.4l1.6.2 1 .1h2.2c2.2 0 4.2-2.8 2.7-4.8z"/><path d="M116.5 379.4c-1.1-.4-2.4-.2-3.6-.5l-3.7-1.2-4.4-1-4.7-1.2 1.1 8.7 1.7-1.3c.5-.4.4-.3 0 0l.5-.4a16.4 16.4 0 0 1 2.4-1.4l-4.6-7.8a63.2 63.2 0 0 1-6 3.5A25.4 25.4 0 0 1 89 379l2.9 6.9c-.3.2-1.6-.2-.7.2v-7.2l-5.4 2c-1.5.6-3.4 2.2-3.4 4 0 2.9 3.1 3.8 5.4 3.3 1.8-.4 3.7-1.4 5.4-2A3.8 3.8 0 0 0 96 383a3.7 3.7 0 0 0-1.8-3.7 6.3 6.3 0 0 0-6 0 3.8 3.8 0 0 0-1.5 4.8 3.8 3.8 0 0 0 4.4 2.2c5.2-1.1 10.2-2.5 14.8-5.3a4.6 4.6 0 0 0 1.6-6.2c-1.5-2.2-3.9-2.6-6.2-1.6a24.6 24.6 0 0 0-5.8 3.4c-2.7 2.2-1.3 7.4 2 8a41.3 41.3 0 0 0 12.4 0 15.6 15.6 0 0 0 4.3-1.4c1.4-.6 2.7-1.7 2.6-3.3a.5.5 0 0 0-.3-.4z"/><path d="M83.3 385.7a5 5 0 0 0-2.7-.3l-2.8.3a2 2 0 0 0-2 2 2 2 0 0 0 2 2 8.5 8.5 0 0 1 5 .8l1.6-3.6-5.4-1 1.2 3a6.2 6.2 0 0 1 2.1-2.3c2-1.3.8-4.9-1.7-4-2.8 1-6 1.8-8.5 3.3-2.4 1.3-.7 4.6 1.7 4.2a41.1 41.1 0 0 1 4.6-.5 2 2 0 0 0 0-4 15.9 15.9 0 0 0-6.3.2 6.5 6.5 0 0 1-1.5.5l-1.7.2-3 .7-6 2c-2 .7-4.1 1.6-6.2 1.4v2.4c7.5.1 15-.1 22.5-.7a90.7 90.7 0 0 0 11-1.4c1.7-.3 3.4-.6 5-.7l5.5-.8a.4.4 0 0 0 .2-.7 11.4 11.4 0 0 0-4.7-1.9 29.4 29.4 0 0 0-5.6-.1c-3.7.1-7.4.8-11.1 1.2L65 389c-3.8.5-7.8 1-11.6 1.7-1.3.2-1 2.4.3 2.3 2-.3 4.1-.3 6.2-.5a53.6 53.6 0 0 0 6.3-1.5l2.8-.8a17.7 17.7 0 0 1 2.8-.9l1.2.1h1.7a13.7 13.7 0 0 1 3.2.1l.5-3.8a47.3 47.3 0 0 1-5.2 0l.6 4.4c3-.7 5.8-2.2 8.5-3.4l-2.2-3.8a11.2 11.2 0 0 0-3.5 4c-.5 1-.2 2.8 1.3 3l5.4.8c2 .4 3.6-2.4 1.5-3.6a10.6 10.6 0 0 0-7.6-1.3l1 3.8 3-.8a5 5 0 0 0 2.4-1.4 1 1 0 0 0-.4-1.7zm43.2-14.6c4.4-4.1 5.2-11 6-16.6.7-3.9 1.1-7.7 1.7-11.6s1.2-7.6 1.4-11.4c0-.4-.7-.6-.9-.2a54.3 54.3 0 0 0-3 10.4 102.8 102.8 0 0 0-1.8 11c-.6 6.1.6 13-3.7 18.1a.2.2 0 0 0 .3.3z"/></g><path d="M130 20zm-3-.8a151.3 151.3 0 0 1 23.6-3 120.6 120.6 0 0 1 18 .1A70 70 0 0 1 202.7 30a98.6 98.6 0 0 1 24 26.8 132.1 132.1 0 0 1 16.5 37c3.9 14.7 5.4 29.9 6 45 .7 15 1 30 .6 45a83.2 83.2 0 0 1-9 39.7c-3.5 6.1-8.2 11.2-12.7 16.5a45.5 45.5 0 0 0-5.9 8.2 95.9 95.9 0 0 1-4.8 8.9c-6.7 10-15.7 18.8-24.6 26.8a78.6 78.6 0 0 1-9.8 7.8 52.6 52.6 0 0 1-8.3 4 65.4 65.4 0 0 1-9.7 3.2 54.7 54.7 0 0 1-16.2 1.4c-4.6-.3-9.2-1.1-13.8-1.7-7.3-1-13.6-4.8-19.7-8.5-6.4-4-13.2-7.4-19.7-11.4a229.3 229.3 0 0 1-36.3-28.4A222.4 222.4 0 0 1 31.1 218l-5.8-8.5a71.2 71.2 0 0 1-5.5-8.8c-2.9-6-4-13-5-19.5l-3.4-22.8a222.2 222.2 0 0 1-2.2-23.3c-.6-15 .3-30.3 4.4-44.8a92 92 0 0 1 19.1-34.9 111.8 111.8 0 0 1 31.4-25.2c12.9-7 27.7-12 42.5-12.2a69.1 69.1 0 0 1 23.1 4 1.4 1.4 0 0 0 1.4-2.3 5.3 5.3 0 0 0-2-1.1c-.7-.3-1.6-.2-2.2-.8-1-1-2.5.5-1.5 1.5a5.3 5.3 0 0 0 1.7 1.3 4.5 4.5 0 0 1 2 1l1.7-2.2C116 12.3 98.1 14 83 18.8a116.3 116.3 0 0 0-37.5 20A107.2 107.2 0 0 0 19 69C11.6 81.9 8 96 6.4 110.8 5 126.6 5.8 142.5 8 158.2l3.4 23.4c1 7 2.3 14 5.3 20.4a66.2 66.2 0 0 0 5.4 8.8l6.1 8.8a257 257 0 0 0 13.4 17.1 231.8 231.8 0 0 0 33.6 31.6 207.5 207.5 0 0 0 19.2 13.4c6.7 4.1 13.6 7.7 20.3 11.8a52.6 52.6 0 0 0 20 8.3c4.7.6 9.4 1.4 14.2 1.7a57.3 57.3 0 0 0 17-1.4 68.2 68.2 0 0 0 9.7-3.3 59 59 0 0 0 9-4.2 79 79 0 0 0 10-8 204.8 204.8 0 0 0 13.7-13.3 120.1 120.1 0 0 0 11.8-14.4 93.2 93.2 0 0 0 5-9.1 45.9 45.9 0 0 1 6-8.2c4.7-5.5 9.5-11 13-17.4a69 69 0 0 0 7-19.5c2.8-14.5 2.1-29.5 2-44.2-.2-15.5-.5-31.1-2.6-46.5a138.6 138.6 0 0 0-33.3-75.4 79.5 79.5 0 0 0-30.4-21 71 71 0 0 0-18.6-4.4 116.6 116.6 0 0 0-18.8.1 144.8 144.8 0 0 0-23.2 3.5c-1.5.4-.8 2.7.7 2.4zm-53.5 119c3.8 3.2 8 5.6 12 8.5q6.3 4.5 12 9.5a173.4 173.4 0 0 1 21 21.4c1.5 1.9 3.1 3.8 4.5 5.8a23 23 0 0 1 1.9 3c.5 1.2 1.2 2.7 2.6 2.6 3.3 0 1.2-4.5.3-6a50.6 50.6 0 0 0-4.7-6.2 169.3 169.3 0 0 0-21.4-20.9c-4.3-3.5-8.7-6.9-13.3-10s-9.3-6.4-14.5-8.3a.3.3 0 0 0-.4.6z"/><path d="M126.3 137a4.5 4.5 0 0 1-1.8 2.7L122 142l-5 5q-4.9 5.2-9.6 10.5-9.3 10.7-17.7 22-2.4 3.1-4.6 6.3l-2.4 3.4a7 7 0 0 0-.9 1.5 5.6 5.6 0 0 0-.1 2c0 .4.5.6.8.4a7.8 7.8 0 0 0 1.5-.6A5.6 5.6 0 0 0 85 191l2.1-3 4.3-5.9q4.4-6 9.1-11.8c6.2-7.6 12.6-15 19.3-22.1l5.6-6c1.3-1.5 2.6-3.4 1.6-5.5-.2-.4-.7-.1-.8.2zm30.8-5.4c3.6 3.8 8.2 6.7 12.4 9.8l13 9.7 12.4 10c3.6 3 7.3 6 10.7 9.3a63.5 63.5 0 0 1 5.4 6l2.2 3 1 1.9.4.4.1.4c.2.4.2.2.2-.5l.7-.3h.2c-.6-.4-1.4.3-1.3 1 .5 2.2 3.3.4 3.4-1.1 0-1.2-.8-2.3-1.4-3.2l-2.5-3.5a76.3 76.3 0 0 0-11.4-11.4c-9-7.5-18.5-14.5-28-21.3l-8.3-5.7a46.7 46.7 0 0 0-8.8-5c-.4-.1-.6.3-.4.6z"/><path d="M206.6 130a74 74 0 0 0-10.6 10.7q-5 5.7-9.6 11.7a262.7 262.7 0 0 0-17 25l-4.3 7.2a18.5 18.5 0 0 0-1.4 4l-1.4 4.1c0 .3.3.4.4.2l2.3-3a35.6 35.6 0 0 0 2.4-3c1.4-2 2.5-4.3 3.7-6.5q3.8-6.4 8-12.5a268.6 268.6 0 0 1 18-24c3.5-4.3 7.3-8.3 10.5-12.8.5-.6-.4-1.5-1-1zm-66.8 171.5q-2 12.8-2.8 25.8-.7 13-.4 25.8c0 4.1.2 8.3.6 12.5.2 3.6.8 7.4 3 10.3a16.2 16.2 0 0 0 9 5.4c1.7.5 3.5.8 5.3 1.2l6.4 1.5 6.4 1.3 5.9 1.4a41.4 41.4 0 0 1 10.5 3.8l1 .7a14.2 14.2 0 0 0 1.4.7 1.3 1.3 0 0 0 1.7-.4 1.3 1.3 0 0 0-.1-1.7 9.6 9.6 0 0 0-1.1-.9 10.5 10.5 0 0 0-1.3-.7q-1.2-.7-2.5-1.2a45.4 45.4 0 0 0-5.3-2l-11.5-2.8-3-.9-3.2-.7-6.3-1.5a60 60 0 0 1-4.7-1.4 15 15 0 0 1-4.2-2c-2.4-1.8-3.5-5-3.9-8-.5-3.9-.6-7.9-.7-11.8a302.6 302.6 0 0 1 2.5-50.5l.5-3a1.7 1.7 0 0 0-1.2-2 1.7 1.7 0 0 0-2 1.1zm-91.9 92a13 13 0 0 0 1.8-.4l1.7-.7 3.5-1.3 7-2.2 12.2-3.1a95.2 95.2 0 0 0 10.7-3.8 44 44 0 0 0 12.7-7c7.7-6.4 10.3-16.7 10.9-26.3a121.3 121.3 0 0 0-.2-15.9c-.4-5.7-1-11.3-2-16.9a186.4 186.4 0 0 0-8.2-32.2l-1.4-4a1.7 1.7 0 0 0-2-1.1 1.6 1.6 0 0 0-1.2 2 195.7 195.7 0 0 1 8.8 31.9 208.7 208.7 0 0 1 3.4 32.2c.2 9.2-1.4 19.4-7.9 26.4a33.6 33.6 0 0 1-11.4 7.4l-6.6 2.7c-1.6.6-3 1.2-4.6 1.6l-11.3 3a77.5 77.5 0 0 0-13.5 4.9l-1.5.8a9.7 9.7 0 0 0-1.4 1.1c-.5.4 0 1 .5 1zm112.6 4a.1.1 0 0 0 0-.2.1.1 0 0 0 0 .3zm-91.5 0v-.1.1z"/><path d="M9.4 148.2a34.6 34.6 0 0 0 4.1-9.7c.9-2.9 2.2-6.5.2-9a2.4 2.4 0 0 0-2.5-1c-3.3 1-4.2 4.2-5.2 7.2-1 3.6-2.1 7.3-2 11a3 3 0 0 0 5.4 1.5zm9.7-25c5-1 9.7-1.5 14.5-3l14-4.2q14.2-4 28.6-7.1a461 461 0 0 1 59-8.7 382 382 0 0 1 58.9-.6l29.3 2.5q7.6.8 15.2 2c4.6.6 9.3 1.8 14 1.6s5-6.3 1-8c-7-2.8-15.5-3-23-4s-15.1-1.7-22.8-2.3c-15.8-1.1-32-.6-47.8 0a463.2 463.2 0 0 0-91.9 12.3q-13 3-25.7 7c-4.4 1.2-8.9 2.5-13.2 4.1-4 1.6-7.3 3.9-11 5.9-1.5.7-.5 2.6 1 2.4z" opacity=".5"/><g fill="#1e9e5b"><path d="M6 129.8v-.1zM202.6 89a24.8 24.8 0 0 1 8.2-.4v-3l-3.3.6c-1.4.2-1.6 2.3-.4 3a5.2 5.2 0 0 0 3 .7 1.9 1.9 0 0 0 1.4-3.2 3 3 0 0 0-4-.4 2 2 0 0 0 1 3.7c2.4.1 4.9.6 7.3.8l7.6.6h3.7l3.7.1a62.2 62.2 0 0 1 7.4 1c9.3 1.3 18.7 2.6 27.8 5.2 2.5.7 5 1.5 7.4 2.4l1.8.8a.8.8 0 0 1 .4.2s0-.2 0 0c0 .8-1.4 1.8-1.7 2.5l4 1.6v-.4a2 2 0 0 0-2.8-2.2l-.4.2c-2.2 1-.7 4.8 1.7 4a6.1 6.1 0 0 0 4-6c-.3-3-3-4-5.5-5a96.3 96.3 0 0 0-15-4.3c-5.2-1-10.4-1.9-15.6-2.6l-8.5-1.3-4-.6c-.6 0-1.2-.3-1.8-.4l-2.5-.4a45.7 45.7 0 0 0-9.5-1 76.7 76.7 0 0 0-9.5 1l1.4 3.3-.7.2.5-3.4c-.4.2-.6.3-1 0l-.4 3 3.3-.6c1.8-.4 1.3-3-.4-3a21.2 21.2 0 0 0-9.4 1.3c-1.3.5-.3 2.2.8 2z"/><path d="M277.7 102.8a2.5 2.5 0 0 0 .4.1l-.3-.2a1.1 1.1 0 0 0 1 .3 2.7 2.7 0 0 0 .8-.2 2.5 2.5 0 0 0 1.1-1.1 3.9 3.9 0 0 0 .5-1.6 2.3 2.3 0 0 0-.3-1.1 2 2 0 0 0-.8-.9 1.4 1.4 0 0 0-1.7.1 1.4 1.4 0 0 0-.4.6 1.4 1.4 0 0 0 0 1 4.5 4.5 0 0 0 .2.5 1.4 1.4 0 0 1 .1.3l-.1-.3a4.6 4.6 0 0 0 .2.5 2.5 2.5 0 0 1 .2.2l-.2-.3a2.5 2.5 0 0 1 .1.3v-.3a1.7 1.7 0 0 1 0 .3v-.4a1.6 1.6 0 0 1-.1.5l.1-.3a2.9 2.9 0 0 1-.3.5l.2-.2-.3.3c-.1.1-.2.2-.1 0l-.2.2a1 1 0 0 0-.2.4l.2-.3c.2-.2 0 0-.1 0a.6.6 0 0 0 0 1z"/></g><g fill="#092616"><path d="m150.1 93.5 1.1.7c0 .4-.5.2.1.5a2.3 2.3 0 0 0 1 0l2-.2a1.5 1.5 0 0 0 0-3l-4.7.1a1.6 1.6 0 0 0-.4 3.2 31.8 31.8 0 0 0 9.9 1l4.5-.4h4.9c6.8-.2 13.5 0 20.3.2a472.6 472.6 0 0 1 62 6.7l1.6-5.7c-4-.7-8.1-1.3-11.6-3.6l-2.2 5.4q7.9 1.3 15.7 3.1c5.3 1.2 10.4 2.6 15.7 3.9l1.5-5.7c-.5 0-.4 0 0 .1-2-2.5-5.7.7-4.3 3.4a4.8 4.8 0 0 0 2.8 2.2 3 3 0 0 0 1.5-5.7c-5-1.5-10.4-2.7-15.6-3.9a334.2 334.2 0 0 0-15.8-3.1 3 3 0 0 0-2.3 5.4c4 2.5 8.5 3.4 13 4.2a3 3 0 0 0 3.7-2 3 3 0 0 0-2-3.7q-20-3.7-40.3-5.4a361.2 361.2 0 0 0-40-.8l-5.7.2a31 31 0 0 0-5.6.4c-3.6.9-7.2 1.4-10.9.7l-.4 3.1 5.1-.4-.8-2.8c-.8.2-5.3 1-4 2.7.4.5 1.4.4 1.3-.3a.6.6 0 0 0-1-.4z"/><path d="M269.3 102.6a1.4 1.4 0 0 0-.4.1h-.1c-.1.1 0 0 .2 0a1.7 1.7 0 0 0-.7.4 4.6 4.6 0 0 0-.6.7 9.6 9.6 0 0 0-.7 1.2l-.6 1.2a3.4 3.4 0 0 0-.4 1.6 2.3 2.3 0 0 0 1 2l-.3-.3-.4-.8a4.7 4.7 0 0 0 .2.6 1.4 1.4 0 0 0 1.2.7 4.3 4.3 0 0 0 .7-.1l-.4.1h-.4a2.4 2.4 0 0 0 2.3-.7 4.2 4.2 0 0 0 .8-1.5 6.6 6.6 0 0 0 .4-1.4l.2-1.1a3.6 3.6 0 0 0 0-1.1l-.2-.3a1.8 1.8 0 0 0-.4-.8l.2.2a5 5 0 0 0-.3-.4 1.3 1.3 0 0 0-1.3-.3z"/><path d="M266.5 106.6c-.4 0-.5.4-.7.8a6.6 6.6 0 0 1-.3.7c0 .2-.6.6-.2.5a1.5 1.5 0 0 0-.4 3c1.4.4 2.8-.2 4.2-.6l-2.2-3.6c-.6.8-1.6.9-2.6 1a35.8 35.8 0 0 0-3.7.5c-1.5.3-3 1-4.4 1.4l-1.3.4h-.4a.5.5 0 0 1 .3.2c.2-.1.3.4 0-.2a10 10 0 0 0-.7-1 56.4 56.4 0 0 0-13.3-13.6l-3 5.1c2.6 1.4 5.3 1.4 8.1 1.7 2.4.3 4.5 1.6 6.7 2.5 2.5 1 5.2.8 7.7 1.6 2.8 1 5.3 2 8.3 1.3a3 3 0 1 0-1.6-5.7c-1.9.4-4.1-1-6-1.6-2.3-.6-4.6-.4-6.8-1.3s-4.3-2.2-6.7-2.5c-2.1-.4-4.7 0-6.7-1.1a3 3 0 0 0-3 5.1 51.6 51.6 0 0 1 7.4 6.7l3.3 4c1 1.3 2 3 3.5 3.9 3.6 2.1 7.2-1.5 10.8-2.2a28.5 28.5 0 0 0 4-.7 6.7 6.7 0 0 0 3.6-2.9 2.2 2.2 0 0 0-.3-2.6 2.3 2.3 0 0 0-2.7-.4c-1.2.6-2.6 1.1-3.3 2.4l2.3 1.8c1-1.3 2-2.5 1.2-4.2a.9.9 0 0 0-.8-.4h-.2z"/><path d="m273.5 104.3-.2-.3a2.6 2.6 0 0 0-.2-.3l-.5-.4-.7-.3a1.5 1.5 0 0 0-.7 0l1.8.7a2.6 2.6 0 0 0-1.1-.7 2.5 2.5 0 0 0-1.4 0 2 2 0 0 0-.8.5 2 2 0 0 0-.7.7 2.5 2.5 0 0 0-.3 1.2 3 3 0 0 0 0 .7v.1l1.2-2.9a2.6 2.6 0 0 0-1 1l.5-.5-.5.5-.2.7-.1.7v.7l.3.6.5.6.5.4a2 2 0 0 0 1 .3 1.2 1.2 0 0 0 .7 0 1.4 1.4 0 0 0 .7-.2 1.3 1.3 0 0 0 .6-.3 1.4 1.4 0 0 0 .5-.5 1.3 1.3 0 0 0 .3-.6 1.3 1.3 0 0 0 .2-.7 1.4 1.4 0 0 0 0-.7 2 2 0 0 0-.3-1z"/><path d="M270.9 104.5a2.2 2.2 0 0 0-.4-.2h-.4a.8.8 0 0 0-.4 0 1 1 0 0 0-.2.2l.5-.2h-.2a.7.7 0 0 0-.2.2.3.3 0 0 0-.1 0l.4-.1h-.2a.7.7 0 0 0-.3 0 2.8 2.8 0 0 0-.3.3.3.3 0 0 0 0 .4h.1a.9.9 0 0 0 .2.2l.1.1-.3-.5a.8.8 0 0 0 0 .2.6.6 0 0 0 .1.2 1 1 0 0 0 .1.1l-.1-.6v.2a.3.3 0 0 0 0 .1.6.6 0 0 0 0 .3 2 2 0 0 0 .2.2l.2.2-.2-.2h.1a1 1 0 0 0 .8.5 1 1 0 0 0 .9-.9 1 1 0 0 0-.5-.8zm-6.6-.4a2.8 2.8 0 0 0-2.3.3l.8-.2h-.2a1.6 1.6 0 0 0-1.4.8c-.9 1.6.5 3.2 1.6 4.2l-.3-2.5-.1.2.7-.8c-.2.2-.2.2 0 0s.3 0 .1 0a4.9 4.9 0 0 0-.6 0h-1.3a8.6 8.6 0 0 1-1.6-.4c-.6-.2.2.2-.3-.1l-1-.5-.7 5.4.6-.2h2.6c-.3 0-.3 0 0 0a3 3 0 0 0 3.5-1.8 3 3 0 0 0-1.2-3.7c-3-1.5-6.4-2-9.8-2.2a3 3 0 0 0-2.5 4.5l2.9 4.5 5-3-2.7-3.8c-1.2-1.6-2.3-3-4.5-3.1a3 3 0 0 0-2.6 4.4 37.4 37.4 0 0 0 3.2 4.5l3.6-4.7a11.5 11.5 0 0 1-1.7-.8c-.1-.1-1-.7-.3-.3l-.7-.5-.5-.6c-.1-.2-.7-1-.3-.3a5.6 5.6 0 0 0-2-2 2.8 2.8 0 0 0-4 2.3c-.2 1.8 1.4 3.6 2.7 4.8a13 13 0 0 0 3.8 2.5 3 3 0 0 0 3.6-4.6l-.4-.4c.2.2.2.2 0-.1l-.6-.9-1.2-1.9-2.6 4.5a1.5 1.5 0 0 1-1-.4c-.1-.1-.1-.1 0 .1l-.1-.3.2.4 1 1.4 2 2.8a3 3 0 0 0 4 1 3 3 0 0 0 1.1-4L256 104l-2.5 4.4 2 .2 1 .1c-.6 0 .4.1.5.1a17.7 17.7 0 0 1 1.9.5l.9.3.5.2 2.3-5.4a14.7 14.7 0 0 0-6.4.2c-2.3.6-3 4.2-.7 5.4 3.2 1.6 8.7 2.3 10.7-1.4a2.2 2.2 0 0 0-.7-2.9c-1-.6-1.5-1.8-2.8-1.8l1.6 1.7v-.2l-.2.8.8-1.1a.8.8 0 0 0-.5-1.2z"/></g><g fill="#4ea676"><path d="M27.4 116.4c3.4-1.5 6.8-3 10.4-4.2l10.4-3.7a216.6 216.6 0 0 1 21.3-6.4 319.7 319.7 0 0 1 45.3-7.4c8.7-.8 17.4-1.3 26.1-2 1.6-.2 2.7-2.5 1-3.3s-4-1.1-5 .8a.7.7 0 0 0 .3 1l1.2.5a2.7 2.7 0 0 1 1.3.5l1.2-3a353.7 353.7 0 0 0-47 4.1A254.4 254.4 0 0 0 49.2 104a119.8 119.8 0 0 0-23 10.8c-1.1.7-.1 2.3 1 1.8z"/><path d="M126.8 91.8a15.3 15.3 0 0 0 2.7.3l3-.1 6-.4 12-1-.4-3.6a13 13 0 0 1-4.9.5v3.7c15.4-1 30.8-1.3 46.2-1.1 7.6 0 15.2.4 22.9.7a42.6 42.6 0 0 0 5.6 0 33.1 33.1 0 0 1 6 0l11.2 1c8.6 1 17.3 2 25.9 3.4V92c-2.5 1-5 .5-7.6-.4l-.8 3.2A95.2 95.2 0 0 1 272 100c2.2.9 3.2-2.4 1.5-3.6s-3.3-2-4.9-3.1l-1.2 3c2.7 1 7.8 3 7 6.8-.5 2 2 3.6 3.5 2 1.4-1.3 2.7-3 2.5-5.1a4 4 0 0 0-3.7-3.7c-2.3-.2-2.8 3.7-.6 4 .7.1.1.1.1 0 0 .3.3-.5 0 .4a4.9 4.9 0 0 1-1.3 1.5l3.6 2a8 8 0 0 0-2.6-7.6c-2.1-1.9-5-2.6-7.6-3.4-2-.6-2.8 2-1.3 3s3 2.5 4.6 3.7l1.5-3.6a105.3 105.3 0 0 0-17.7-4.8 1.6 1.6 0 0 0-.9 3.2c3 1 6.3 1.7 9.3.4 1.3-.5 1.8-2.9 0-3.2q-11.5-1.7-23.1-2.8l-11.5-1-5.4-.4c-2.2-.2-4.2-.9-6.4-1a434.6 434.6 0 0 0-46.2-.9c-8.7.3-17.4 1-26 1.6a1.9 1.9 0 0 0 0 3.8 16 16 0 0 0 5.8-.8c1.9-.5 1.7-3.7-.5-3.5l-12 1.2-5.9.7-2.9.4a13.2 13.2 0 0 0-3 .8c-.7.3-1 1.6 0 1.7z"/></g><g fill="#30b776"><path d="M36.5 89.4c7.9 3.1 16-4.3 20.5-9.6l-4.2 2.4L54 82c5.1-.8 8.3-7 7.6-11.6a10.7 10.7 0 0 0-10.4-9.2C44.9 61 40 65 37.5 70.6c-3.2 7-.7 14.9 7.1 17.4 6 1.9 13-1.2 18.3-4S74 76.1 76 70a14.2 14.2 0 0 0-9-18.3 20 20 0 0 0-19.2 4.6c-10 9.4-8.3 27 3.2 34.5a19.6 19.6 0 0 0 19.7.2 17.3 17.3 0 0 0 7-7.8c1.8-4.2.7-6.5-.5-10.4a5.4 5.4 0 0 0-5-3.9l1.9.6-2.4-1a12.3 12.3 0 0 0-5.1-.2c-.5.1-6.8 1.4-6.8 1.8 0-.8 5 .7 5 2.2-.1 2.4-5 2-6 1.4l-4.2-4.2.5 1-1.6-6 1.4-3.8-1 1.2c-.8.6-1.4 1.7-2.2 2.3a8.1 8.1 0 0 1-4.4 1.9h6l-1.3-.4 5.1 3-.9-.8 3 11.6c.5-1.4 2-3.2 2.3-5.1H41l.2 1 1-7.3c-3.4 5.2-9 10-9.2 16.6 0 2.2 1.6 3.8 3.5 4.5zm-30 48.7c-1.8.4-2.4 1.6-2 3.4.2 1.5 2.9 1.6 3.1 0 1.2-7.8 2.8-15.4 3.3-23.3a88.6 88.6 0 0 1 29.9-65.3 182 182 0 0 1 41.4-27.4A122 122 0 0 1 130.5 15c8.2 0 8.2-12.8 0-12.8a127.8 127.8 0 0 0-53 11.9c-16 7.5-30.6 18.8-44.1 30.2s-22.3 26.5-28 43c-6 16.9-2.5 36.5-1 53.8l3-.9.1.3c1.5-.7.4-2.8-1-2.4z"/><path d="m10 138.1 11.8-18a51 51 0 0 1 12.7-14.5l-7-7a7.7 7.7 0 0 1-2 3c-4.3 4 1.2 11.2 6.2 8.1a86 86 0 0 1 23-9.4 146.2 146.2 0 0 1 11.7-2.5c4-.7 8.7-.5 12-3 3.5-2.5 3-7.2-1.2-8.8s-8.8 0-13 .8c-4.4.8-8.9 1.8-13.3 3a93.2 93.2 0 0 0-24.4 11l6.3 8.2a18 18 0 0 0 4-6.4c1.7-4-4-8.3-7.4-5.7-12.7 9.3-18 24.4-24.6 38.1-1.8 3.5 3 6.4 5.2 3z"/><path d="M70 95.2c3 .7 6.1 1.6 9.2 1.3s6.3-1.6 9.4-2.3c6.9-1.6 4-12.3-2.9-10.6-2.9.7-5.7 1.8-8.6 2.4s-5.5.6-8.1 1.9c-3.1 1.5-2.3 6.6 1 7.3Z"/><path d="M83.2 93.4c8.5 2 18.4-1.7 27-3 9.5-1.4 19-2.5 28.7-3.2 19-1.6 38.2-1.7 57.2-3.7l-1.3-9.7-5.3.9c-5.5.8-3.8 9 1.2 9.2 9.4.6 18.9 1.7 28.3 1.4 4.5-.1 9 .7 13.5 1.3 3.8.5 6.5 1.1 8.9-2.2l-4.5-1.2v1.2a2.7 2.7 0 0 0 1.3 2.4l1.6.8c4.8 2.8 7-6.2 1.6-6l-1.8.1L242 83c-2.4-4.1-4.2-4.5-9.2-5.2-4.5-.6-9-1.1-13.4-2-9.4-1.7-19.2-1.7-28.6-1.3v9.4l5.4-.5c6.3-.4 6.4-9.5 0-9.8-19.5-1-39.6 0-59.1 1.8q-14.1 1.2-28.1 3.2c-9 1.3-20.3 1.9-27.6 7.8-2.4 2-1 6.4 1.9 7z"/><path d="M14.4 124.6a171.4 171.4 0 0 1 14.7-28c2.6-4.2 4.7-8.8 8-12.5a111.4 111.4 0 0 1 10.7-10.7c14.8-12.6 33-20.2 50.9-27.1 5.4-2.2 9.3-6.8 8.4-13-.8-5.3-5.6-10.7-11.6-10.2a63.3 63.3 0 0 0-32.7 12.1c-5.1 3.9-7.7 10.2-4.3 16.1a12 12 0 0 0 16.2 4.3c22.9-14.1 48.3-25.7 75.8-23.7A60 60 0 0 1 203 70.5l14.5-14.6c-16.8-2.5-33.7-1.2-50.5 0A823 823 0 0 0 66 70C49.7 73.5 35 80.4 20.5 89L35 107.6c3-3.4 6.5-6.8 10.8-8.5 5.9-2.5 10.1-7.9 8.3-14.6-1.6-5.6-8.7-10.8-14.6-8.3A54.6 54.6 0 0 0 18 90.9c-3.8 4.5-4.7 10.7-.9 15.6a11.9 11.9 0 0 0 15.3 3c6.4-3.8 12.8-7.7 19.6-10.7 6.7-3 14-4.7 21-6.3A736.3 736.3 0 0 1 165 79.7c15-1.1 31.2-3.2 46.2-1 8 1.3 17.9-5 14.5-14.5a83.9 83.9 0 0 0-70.1-55.4c-33.2-4-65.2 9.4-92.8 26.4l11.9 20.4a41.2 41.2 0 0 1 20.8-9l-3-23C71 31.9 48 40.5 32 57.6a94.5 94.5 0 0 0-18 30c-2.1 5.2-2.7 11.3-3.8 16.9l-3.4 18c-1 5 5.7 6.8 7.6 2.1z"/><path d="M53 78.7c3.3 1.5 5.9 2.6 9.6 2.4a56.2 56.2 0 0 0 9.7-1.3L89 75.7c11.6-2.6 23.4-5 35.2-6.6 23.8-3.2 48-2.3 72-1.6 9.5.3 16.5-13.7 8.3-20.2-9.6-7.6-20.6-9-32.6-9.4-12.2-.4-24.4-.4-36.6-.1-22.7.4-46.6 1.8-66.6 13.4l12 20.5c7.5-4.6 15-9.2 23-13.1s15.9-4.9 24.6-4.9c9.6 0 19.1.3 28.6.8 8.3.3 17.4.4 25.2 3.7 5.9 2.5 12.7 1.7 16.2-4.3 3-5 1.7-13.7-4.3-16.2C173.8 29 150 30 128.4 30a79.2 79.2 0 0 0-32.7 6.3c-9.3 4-18.1 9.7-26.9 15-13 7.8-1.2 28.1 12 20.4 15.8-9.2 34.9-9.8 52.7-10.2a883.8 883.8 0 0 1 45.8.5c2.6.2 6.6.4 8.7 2l8.4-20.1c-25.2-.8-50.3-1.3-75.2 2a450 450 0 0 0-36.4 6.6c-6 1.3-12 2.6-17.8 4.3-7 2-12.9 4.5-17 10.8-2.1 3.4-.9 9.3 3 11.1z"/><path d="M124.4 7.9c-.5 6.6 8.8 8.9 13.3 11.1 6 3 11.7 6.5 18.8 6 9.9-.6 13.4-16 2.5-18.3a55.3 55.3 0 0 1-6.6-1.6l6.4 8.4V13l-4.3 7.6.6-.3-4.5 1.2c2.8-.2 8 2.6 10.7 3.4 3.6 1.1 7 2.4 10.5 3.7 7.3 2.6 14.5 5.6 21.5 8.9 6.6 3 9 9.4 12.1 15.6a433 433 0 0 1 10.4 21.3c1.5 3.5 6.5 6.2 10.2 5.9a12.8 12.8 0 0 0 8.3-3.5c4.3-3.7 4-9.6 1.9-14.3a141.1 141.1 0 0 0-15.4-26.8c-2.9-4-5.4-8.7-9.2-12-4.2-3.6-9.3-5.4-14.4-7.5-9.6-4.1-19.3-8.3-29.6-10.6-8.7-1.9-25.5-5.2-26.3 8-.3 4 3 7.2 6.4 8.4a34.3 34.3 0 0 1 4 1.8l4.8-17.4c-5.8.3-11-4.4-16.7-5.4-5.4-.9-14.9-.4-15.4 6.8z"/><path d="M230 67c.2 4.7 3.1 9.1 4.1 13.8 1 5 9 3.9 9-1.3 0-3.4-2-9.4-6.3-9a2.6 2.6 0 0 0-2.5 2.5 39.7 39.7 0 0 1-.3 7c-.5 4.8 8.3 3.9 6.6-.9-.9-2.4-2.7-5.5-5.3-6.2a.6.6 0 0 0-.8.4 6.1 6.1 0 0 0 0 2.6 5.4 5.4 0 0 1-.3 3.2h6.4a24.3 24.3 0 0 1-1.2-6.1l-4.3-1.8c-2.1 2.4-.5 4.5-1 7.1h8.9a41.7 41.7 0 0 0-5.4-13.4c-2-3.3-7.7-2.2-7.6 2z"/></g><path d="M44.8 76.3c5 7.6 8.8 16.4 15.3 23l1.3-3.2-4.3.5c-.7 0-2.8.6-3.3.2l.7.7v-.2l.2 1v-.2l-3.4 1.4c2 2.2 5.2-.2 4.9-2.8a14.4 14.4 0 0 0-1.5-3.7l-1.9-4.1c-1-2.1-4-.6-3.6 1.5a9.2 9.2 0 0 0 6.4 6.8 2 2 0 0 0 2-3.3 37.6 37.6 0 0 1-5.7-6.9l-3.5 2a38 38 0 0 1 5 9.1l3.7-1.5a14.2 14.2 0 0 0-5.8-5.5 2 2 0 0 0-3 2.2 11.7 11.7 0 0 0 5.2 7.2l1-3.7c-.6 0-1.4-.8-2-1a3.3 3.3 0 0 0-2.8.6c-2 1.4-1.4 4-.3 5.8a2 2 0 0 0 2.3.9 2.7 2.7 0 0 0 2-1.5c.3-1 .3-2.4-.8-2.9a6.8 6.8 0 0 0-6 .1l2.5 3.3c1-.8 2-1.7 2.8-2.6 1.6-1.8-.5-4.9-2.6-3.5-1.3.8-4 1.7-3.4 3.7.9 2.4 4.2 1 5.5.1l-2.6-3.4a33.5 33.5 0 0 1-2.7 2.8c-1.8 1.7.5 4.3 2.6 3.3a2.5 2.5 0 0 1 2.3 0L50 100l-.1.3.5-1-.2.3.8-.6h-.3l2.3 1-.5-.8q-1.4.3-.9.5l.4.3a5.4 5.4 0 0 0 2.6.8 2 2 0 0 0 1-3.8 7.6 7.6 0 0 1-3.4-4.8l-3 2.3a10.3 10.3 0 0 1 4.4 4c1.1 1.9 4.5.7 3.7-1.5a41.8 41.8 0 0 0-5.4-10 2 2 0 0 0-2.7-.7 2 2 0 0 0-.8 2.7 42 42 0 0 0 6.3 7.7l2-3.3a5.2 5.2 0 0 1-3.7-4l-3.6 1.5 1.6 3.4.8 1.8.4.8q.2 1 1.2-.5l.9.5-.2-.2c-1.1-1.2-3.5-.3-3.3 1.4.1 2.3 2.2 2.9 4.2 2.6l6.9-1a1.9 1.9 0 0 0 .8-3c-7-6-10-15.1-16.3-21.7-.8-.8-2.3.2-1.6 1.2z" fill="#2fa569"/><g fill="#27935d"><path d="M25.2 51.4c5 6.4 10 12.6 14.5 19.3 2 3.2 4.3 6.4 5.6 10a23.3 23.3 0 0 1 .7 11.6L45 98c-.3 2-1.3 5 1.3 5.7 2.7.7 2.9-2.7 3.1-4.4.3-2 .8-4.1 1-6.2.6-4 1-8.2-.2-12.3A37.3 37.3 0 0 0 45 71q-3.7-5.8-7.8-11.2a116.5 116.5 0 0 0-9-10.7c-1.5-1.6-4.5.6-3.1 2.4zm-1.6 31.7c-4-1.8-7.4 2.9-9 5.9a58 58 0 0 0-4.8 13.7 4 4 0 0 0 2.4 4.7c1.7.7 4.2.2 5-1.6 2.6-5.8 5-11.5 7.7-17.2l-6.6-3.9c-2.6 4.8-4.8 9.8-7 14.7-2.3 5.1-4.6 10.4-6.4 15.7a4.7 4.7 0 0 0 2.7 5.7 4.8 4.8 0 0 0 6-2 47.2 47.2 0 0 0 5.2-11.1c1.6-5-6-8.2-8.4-3.6a40.8 40.8 0 0 0-3 7 53.9 53.9 0 0 0-1.5 6.7 25.2 25.2 0 0 1-.7 3 14.5 14.5 0 0 1-.4 1 48.4 48.4 0 0 0-1 2.4 13.5 13.5 0 0 0-.6 8 4.4 4.4 0 0 0 3.1 3.2 4.5 4.5 0 0 0 5.5-3.1 9.3 9.3 0 0 0 .1-2.5 8.7 8.7 0 0 1 0-1c0 .5 0 .5 0 0s.4-1.2.6-1.8l.4-1a25.9 25.9 0 0 0 1.5-4c.5-2.4.8-4.8 1.4-7.1a21.3 21.3 0 0 1 2.5-6l-8.4-3.6-.5 1.2-.2.5-1.1 2.4a42.8 42.8 0 0 1-2.7 4.6l8.7 3.7 5.5-15 5.7-15a3.8 3.8 0 0 0-2.2-4.5c-1.6-.6-4-.2-4.8 1.6-2.5 5.7-5.3 11.3-8 17l7.4 3.1a123.6 123.6 0 0 1 3-12.3 39.6 39.6 0 0 1 1.5-4.1 20.2 20.2 0 0 0 1.7-4.5.8.8 0 0 0-.3-1z"/><path d="M7.8 132.2a10 10 0 0 0-2.2 3.2 20.4 20.4 0 0 0-1.1 4c-.5 2.5 3.3 3.6 3.8 1 .4-2 .6-4.2.8-6.2S6 131.2 5 133a14.1 14.1 0 0 0-1.7 6.8c0 2.6 4.3 3.4 4.8.6l1.3-6.4H4.6a8 8 0 0 1 .7 3.6c-.1 3 4 3.2 4.9.7a38.4 38.4 0 0 1 2.4-5.2 43 43 0 0 1 3-5l6.6-9.7 2.7-4.1.7-1 .3-.5a26.2 26.2 0 0 1 1.5-1.7 20.7 20.7 0 0 1 1.7-1.7l.4-.4a10.6 10.6 0 0 1 .9-.6 14.7 14.7 0 0 1 1.9-1c-.8.4.1 0 .3-.1a13.7 13.7 0 0 1 1.4-.4l-4-6.7a24.3 24.3 0 0 1-2.6 2.6l-.4.2-.9.6-1.8 1 4.9 6.4 1.3-1.1.3-.3.7-.5a36.4 36.4 0 0 1 3.3-2.1 26.8 26.8 0 0 1 6-2.7c2.8-.8 5.6-1.9 6.8-4.7s1.1-5.9 1.1-8.7a80.7 80.7 0 0 0-.4-8.3c-.3-3-1-5.8-3-8.2a24.6 24.6 0 0 0-3.2-2.7l-.6-.6-1.2-1.2c.6.7-.2-.3-.3-.6a20.9 20.9 0 0 1-.8-1.1l-1.4-2.9-.3-.6-.4-1c0 .1.3.8 0 0l-.3-.8L35 59a26.5 26.5 0 0 0-4.2-6.5 4.3 4.3 0 0 0-6.6.9c-5 9.2-10.2 18.1-14.8 27.4s-8.8 19.5-8.3 29.9a58.2 58.2 0 0 0 1.5 8.9 43 43 0 0 1 .3 2v.2l.1 1.2v2a6 6 0 0 0 1.2 3l5.5-3.3-.4-.5c-.7-1.1-2.3-1.9-3.5-1l-.5.4a3.3 3.3 0 0 0-1 4.4 3.2 3.2 0 0 0 4.3 1.2 5.6 5.6 0 0 0 2.9-4.6 16.2 16.2 0 0 0-.2-3.6c-.3-2.7-1-5.3-1.5-8l-.1-.8v-.3l-.1-1.9a30.6 30.6 0 0 1 0-3.7l.2-.9v-.3a49.2 49.2 0 0 1 .2-1.6q.4-2 1-3.8c2.5-9.5 7.1-17.8 12-26.6l8.5-15.3-6.7.8.5.5c-.6-.6-.2-.1 0 0l.7 1.2 1.4 2.5.6 1.3.2.6 1.4 3.4c1.6 3.7 3.6 7.4 6.9 9.9l1.6 1.3c.6.4.3.2.2 0l.6.6a5.2 5.2 0 0 1 .5.6c-.1-.2-.2-.4 0 .2.1 0 .3.7 0 0a9.3 9.3 0 0 1 .4 1l.1.6.2 1.8a82.2 82.2 0 0 1 .1 11.8c0 .7 0-.6 0 0 0 .5.4-.1 0 .2s.9-.6 0-.1-.2 0 0 0l-.7.2-1.7.5a42 42 0 0 0-14.4 8.6 4 4 0 0 0 4.9 6.3 26.3 26.3 0 0 0 7.4-5.8 4 4 0 0 0-3.9-6.7c-7.5 1.6-12.3 8.3-16 14.5A76.9 76.9 0 0 0 10 125l-2.5 5.9c-.8 2-1.4 4-2 6l4.8.6a11.7 11.7 0 0 0-.8-4.9 2.6 2.6 0 0 0-2.5-1.8 2.5 2.5 0 0 0-2.4 1.8l-1.3 6.5 4.9.7a9.9 9.9 0 0 1 .6-4.5l-4.1-1.1-.3 5.7h4a14.1 14.1 0 0 1 .3-3.4l.7-3.4a1 1 0 0 0-1.5-1z"/><path d="M27.3 75.2a46 46 0 0 1-2.5 4.8l-.7 1-.4.7v1c-.2 0 1-1.6 1-1.7a4 4 0 0 0-4.7-6.2c-2.4 1.3-3.8 4.4-4.9 6.8a53.6 53.6 0 0 0-2.8 7.4 4.7 4.7 0 0 0 8.7 3.6 62.9 62.9 0 0 0 6.8-15.8 4.8 4.8 0 0 0-8.8-3.7 80 80 0 0 0-6.7 15.3 4.9 4.9 0 0 0 2.8 5.8 5 5 0 0 0 6-2 102.7 102.7 0 0 0 12-23.4h-9.4v.2-2.6q9.5-2 7.4 2.2l-6.7 1.8c-.5-.5-.6-.5-.3-.2L24 70l.3.6-.2-.4c-.1.3.7 1.8.8 2 1 2.4 2.2 4.5 4.6 5.7a5.8 5.8 0 0 0 1.2.6c-.3.1-1-1.6-.4-.2l1.5 3 3.2 6.7c1 2.2 4 2.9 6.1 2a5 5 0 0 0 2.9-5.8 12.5 12.5 0 0 0-3.5-6.1 5 5 0 0 0-6-.8 5.1 5.1 0 0 0-2.2 5.6l.2 1.4.1.5.3 2.9a40 40 0 0 1-.2 5.7l1.5-3.5a64.9 64.9 0 0 0-10.3 10q-2.4 3-4.5 6.2l-.9 1.3-.3.4-.2.3a14 14 0 0 1-1.1 1l-.3.3-.4.3 7.2 5.6A117.8 117.8 0 0 1 29 96.3l.9-2.2.1-.3.5-1 2.2-5.2a17.7 17.7 0 0 0 1-11.1 5 5 0 0 0-6-3.4c-2.8.9-3.8 3.3-3.4 6l1.7 9.5 1 4.5.7 2.3a6.3 6.3 0 0 0 2.7 3.8 4.3 4.3 0 0 0 4 .3 4.8 4.8 0 0 0 2.7-3c.8-2-.2-4.3-.7-6.3l-1-4.5-1.6-9.2-9.5 2.6.2.6V81l-.1.7a18.5 18.5 0 0 1-.7 2.1l-.4 1.1c-.1.4 0 .3 0-.1v.4c-1.5 3.1-2.9 6.2-4 9.3a112.3 112.3 0 0 0-5.4 18 5 5 0 0 0 1.8 5.2 5 5 0 0 0 5.4.3c3.3-2 5.3-5 7.4-8.1l1.5-2.1.3-.4.8-1 3.6-4a66.2 66.2 0 0 1 3.8-3.7l2-1.6c1.5-1.3 1.8-2.7 2-4.6a48.3 48.3 0 0 0-.8-12.4l-8.2 4.8c.1 0 .9.8.4.3s.3.5.3.5c.3.5 0 .3 0-.1l.3 1.1 9-3.8-3.4-7.2c-1.1-2.4-2.4-4.9-5.1-6.1-.2 0-1.2-.4-1.2-.6l.3.2.2.3-.3-.6.2.4-.5-1.2a12.3 12.3 0 0 0-4.3-6.2c-2-1.5-5.7-.4-6.8 1.8A7.2 7.2 0 0 0 22 69a5.8 5.8 0 0 0 9.7 2.7 5.7 5.7 0 0 0 1.5-5.5 5 5 0 0 0-4.7-3.6 5.1 5.1 0 0 0-4.7 3.6l-1.1 3-.6 1.4c-.1.3-.1.3 0-.2l-.3.9-2.6 5.4a97.3 97.3 0 0 1-6.3 10.6l8.9 3.7a82.4 82.4 0 0 1 1.1-3.5l.7-1.7.3-.8c-.2.6 0 0 .2-.3a78 78 0 0 1 3.3-6.7l-8.8-3.7a58 58 0 0 1-1.7 5.5l-.3.8-.3.7-.2.4-.4.8-.8 1.8a52 52 0 0 1-2 3.6l8.6 3.6a44.4 44.4 0 0 1 2-6.5c-.2.7.5-.8.5-1l.6-1.2a11.3 11.3 0 0 0 1.5-4.6L19.2 81a5.3 5.3 0 0 1 1.2 1.3 6 6 0 0 0 1 1.5c1.1 1 2.2.4 3-.5a16 16 0 0 0 4-7.6c.2-.7-.8-1.3-1.1-.5zm68.4-28.5a2.5 2.5 0 0 0-.3 2.4l1 3.3 2 6.1c1.4 4.3 2.5 8.6 3.7 12.9.8 3 5.6 1.8 4.8-1.3a100.3 100.3 0 0 0-4.3-13L99.7 51l-1.5-2.8a2.7 2.7 0 0 0-2-1.7.4.4 0 0 0-.5.2zm26.7-4c-1.4 2.1-.7 5.6-.4 8a59.5 59.5 0 0 0 1.7 7.7 24 24 0 0 0 2.6 6.3c1.3 2 3.4 4.7 6 4.7a2.9 2.9 0 0 0 2.8-2v-.2a2.7 2.7 0 0 0-1.9-3.2 6 6 0 0 1-1.5-1 8 8 0 0 1-1.6-1.7 22.5 22.5 0 0 1-2.5-4.9 62.2 62.2 0 0 1-2-6.4 27.5 27.5 0 0 1-.7-3.5 13.6 13.6 0 0 0-.4-3.4 1.2 1.2 0 0 0-2.1-.3zm13.8 1a1.6 1.6 0 0 0-1.5-1.1h-.1a1.6 1.6 0 0 0-1.6 1.6 11 11 0 0 0 .6 3.3l.8 2.8.8 3c.4 1.2 1.2 3 2.8 2.5s1.4-2.4 1-3.6l-.9-3-.9-2.8a11 11 0 0 0-1.2-3l-.3 1.9a1.6 1.6 0 0 0 .5-1.6zm13.7-2c-1.1 1.4-.4 4-.3 5.6l.6 6c.4 4.2.8 8.4 1.5 12.6a2.4 2.4 0 0 0 2.8 1.7 2.4 2.4 0 0 0 1.7-2.9c-.6-4-1.4-8.1-2.2-12.2l-1.3-5.9c-.4-1.6-.4-4-1.8-5a.8.8 0 0 0-1 .1zm28.4-2.6c-1.3 1.2-.8 4.1-.7 5.7v6.4l.3 13.4c.1 2.9 4.7 2.9 4.6 0-.2-4.6-.5-9-1-13.6l-1-6.6c-.2-1.6-.1-4.4-1.8-5.3a.4.4 0 0 0-.4 0zm-20 11v.2a2.4 2.4 0 0 0 0 .3 2.7 2.7 0 0 0 0 .4 1.8 1.8 0 0 0 0 .3l.2.2a1.3 1.3 0 0 0 .2.1l.2.1h.2a.8.8 0 0 0 .5-.1.8.8 0 0 0 .3-.3.8.8 0 0 0 .1-.4.9.9 0 0 0-.1-.5.6.6 0 0 0-.3-.3l.2.1a.2.2 0 0 1-.1 0l.1.1V50.5v-.1.2a.7.7 0 0 0 0-.3.6.6 0 0 0 0-.3l-.2-.2a.7.7 0 0 0-.2-.2.5.5 0 0 0-.2 0 .7.7 0 0 0-.4 0h-.1a.8.8 0 0 0-.3.4zm2.9 3a10.2 10.2 0 0 1 3.6 7h.1a10.3 10.3 0 0 0-3.6-7.1s-.2 0-.1 0z"/><path d="M157.1 50.3a5.2 5.2 0 0 0 .3 3c.1.7.4 1.4.6 2a10.8 10.8 0 0 0 1.2 2.6 3.2 3.2 0 0 0 1.8 1.5 1.3 1.3 0 0 0 .6 0h-.3a2 2 0 0 0 1.2 0l.4-.3.2-.3c-.1.2.3-.3.3-.5a3.3 3.3 0 0 0 .4-1.8 9.3 9.3 0 0 0-.7-2.8c-.8-1.8-1.6-4-3.6-4.8a2 2 0 0 0-1.5.2 2.3 2.3 0 0 0-.8 1.2z"/></g><g fill="#2fa569"><path d="M227 41.4c-1.1.9-.8 2.3-.5 3.6l2 5.5a144 144 0 0 1 3.4 11c2 7.6 3 15.3 4 23 .2 1.7 1.6 3.4 3.5 2.7a8.1 8.1 0 0 1 2-.4 2.8 2.8 0 0 0 2.7-3.5l-1.8-7.3a19.1 19.1 0 0 0-1-3.5 8.2 8.2 0 0 0-.9-1.7l-1.3-1.3c-.2-.5-1-.5-1.1.1a11.4 11.4 0 0 1-.7 1.6 7.9 7.9 0 0 0-.2 2 17.8 17.8 0 0 0 .5 4c.5 2.5.9 5 1.2 7.6l2.6-3.4a11.5 11.5 0 0 0-3.5.5l3.5 2.7c-.6-7.7-2.7-15-5.2-22.3a111.8 111.8 0 0 0-4-10.4l-2.3-5c-.8-1.6-2.3-3-2.3-5a.4.4 0 0 0-.5-.4z"/><path d="M236.1 66.5v1.6a8.8 8.8 0 0 0 .5 1.5l.7 2.8.6 2.8a4.6 4.6 0 0 0 1.3 2.5.4.4 0 0 0 .6 0 3.7 3.7 0 0 0 .6-2.7 22.4 22.4 0 0 0-.7-3.2l-1-3a7 7 0 0 0-.6-1.4l-1-1.3a.5.5 0 0 0-1 .4zm4.2 17.2a4 4 0 0 0-.3.5v.2a2.4 2.4 0 0 0 0 .5v.4a1.9 1.9 0 0 0 0 .2l.1.4a2.6 2.6 0 0 0 .3.4 3.8 3.8 0 0 0 .7.8 4.8 4.8 0 0 0 .5.4 2.6 2.6 0 0 0 .6.2 2.7 2.7 0 0 0 .6 0h.4l.4-.1.3-.3a1.2 1.2 0 0 0 .4-.5.8.8 0 0 0 0-.4.8.8 0 0 0 0-.5.8.8 0 0 0 0-.4 1.2 1.2 0 0 0-.3-.5 4.2 4.2 0 0 0-.6-.4 2.2 2.2 0 0 1-.3-.2l.3.2a2 2 0 0 1-.4-.4l.3.3a1.9 1.9 0 0 1-.2-.2 3 3 0 0 0-.4-.5l-.3-.4a1.4 1.4 0 0 0-.6-.3 1 1 0 0 0-.5 0 1 1 0 0 0-.5.1 1.2 1.2 0 0 0-.5.5z"/></g><g fill="#278252"><path d="M2 111.3a1 1 0 0 0-.5.1 1 1 0 0 0-.5.9c0 1.7 1.2 3.2 2 4.6l2.8 4.9 6 9.8.2-2.4c-2.7 3.1-5.5 6-8.4 9l4 1.7a61 61 0 0 0-.2-11.7c-.5-3.6-.8-8-2.9-11a2.4 2.4 0 0 0-3-1A2.4 2.4 0 0 0 .2 119a71.4 71.4 0 0 0 3.2 7.3l1.8 3.3a10.2 10.2 0 0 1 .6 1.4 1 1 0 0 1 0 .4c0-.2.4-.5 0 0l1-.7a1.4 1.4 0 0 1-.6.2l2.9 1.1a8.1 8.1 0 0 0-.8-1.1c-1.3-1.7-4-.3-4 1.6a8.7 8.7 0 0 0 .1 1.5 2.6 2.6 0 0 0 3.8 1.5 4.9 4.9 0 0 0 2.4-3.8 8 8 0 0 0-1.5-4.7 54.7 54.7 0 0 1-4.3-9.3l-4.4 1.8a12 12 0 0 1 1.5 4.3q.6 2.6.9 5.3a62.2 62.2 0 0 1 .1 10.8c-.1 2.1 2.7 3.1 4.1 1.7a102 102 0 0 0 8.2-10 2 2 0 0 0 0-2L8 119.1 4.3 114l-1.5-2.1c-.2-.2-.6-.6-.9-.5z"/><path d="M.7 116.3a1.7 1.7 0 0 1 0 .2 2.3 2.3 0 0 0 .4.7l.4.4-.2-.3a5.3 5.3 0 0 1 .4.8l.5.7a3.3 3.3 0 0 0 .5.9l.3.2a1 1 0 0 0 .8.4h-.3a.6.6 0 0 0 .6-.2l.3-.2a1 1 0 0 0 .1-.3 2.3 2.3 0 0 0 .1-.2 2 2 0 0 0 0-1 4.8 4.8 0 0 0-.3-1.4 6.2 6.2 0 0 0-.8-1.2l-.4-.4a2.4 2.4 0 0 0-1-.5 1.1 1.1 0 0 0-1.1.3 1.1 1.1 0 0 0-.3 1.1z"/></g><g fill="#27935d"><path d="M62 24a3.2 3.2 0 0 0 .8 1 8 8 0 0 0 1.7 1l3.9 1.7 6.9 3.6c4.4 2.4 8.7 5.3 14 5.2a55.3 55.3 0 0 0 7.8-1.2l8-1.5 16-2.9 18.4-3.5a3 3 0 0 0 2.1-3.8c-.6-2-1.4-3.8-2.1-5.8a44.3 44.3 0 0 0-2.5-5.5 38 38 0 0 0-3.2-4.9 23 23 0 0 1-1.7-2.3 8.2 8.2 0 0 0-3-3.1c-3.2-2-7.4 2-5.3 5.3a9.8 9.8 0 0 0 2.9 2.9 9 9 0 0 1 1.3 1.4 42 42 0 0 1 3 4.1 44.6 44.6 0 0 1 3 4.6 31 31 0 0 1 1.8 5l2-3.8-31 7-15.5 3a12.8 12.8 0 0 1-6.7-.1c-2.2-.8-4.4-2-6.6-3a149 149 0 0 0-7.8-3.3l-4-1.5a20.5 20.5 0 0 0-2-.6 2.8 2.8 0 0 0-1.8.2.6.6 0 0 0-.3.8z"/><path d="m122 8.3 1.5.7 2.2-5.2A23.1 23.1 0 0 0 123 3a8.6 8.6 0 0 0-4.3.4l-6.3 2-12.3 3.4 3.8 9c3.3-1.6 6.4-3.4 9.5-5.3a5 5 0 0 0 2-6.2c-.8-2-3.5-3.7-5.8-2.8l-22.5 8.2-11.1 4a45.5 45.5 0 0 0-5.7 2.2c-.2.1-.2.1 0 0a5 5 0 0 0-1.2.6l-1.1.7a13.4 13.4 0 0 1-2.4 1 3.1 3.1 0 0 0-2 3.7 3 3 0 0 0 3.6 2.1 6.4 6.4 0 0 1 5 .3A43.7 43.7 0 0 1 77 30a18.9 18.9 0 0 0 6.5 3.6 30.9 30.9 0 0 0 6.9 1.2c9.1.5 18.4-2.4 27.2-4.5l16.3-3.9c3.8-.9 4.6-5.6 2.2-8.2a56.7 56.7 0 0 0-12-10 4.9 4.9 0 0 0-5 0 65.2 65.2 0 0 1-8 4.2l-1.9.8c-.3.2-.3.2.1 0l-.4.2-1 .4-4.2 1.7-4.1 1.5-2.2.6-1.1.2c-.8.2 1 0-.3 0H94.6c-1 0-2-.3-2.9-.4a9.4 9.4 0 0 0-5.6 1.1 5 5 0 0 0-2.3 5.6 5 5 0 0 0 4.8 3.6c5.6.2 11.2-1.7 16.5-3l15.8-4-2.6-9.4-3.3 1.3c-2.3 1-3.8 2.8-3.5 5.4a5 5 0 0 0 4.8 4.2l9.9.6a4.9 4.9 0 0 0 4.8-4.2c.3-2.2-1-5-3.5-5.4-8-1.2-15.7.3-23.4 2.4l-10.8 2.8-2.5.5-1.2.3-.8.1c-2.1.3-4.3.1-6.3.6l5.3 7 1.3-1.8a4.2 4.2 0 0 0-.7-5.1 4.3 4.3 0 0 0-5-.7l-2 1.1c-3.7 2-2.9 7.7 1 8.7a17.9 17.9 0 0 0 6.4 0l6-1c3.6-.8 7.2-1.8 10.7-2.7a102.3 102.3 0 0 1 10.3-2.5l1.3-.2c-1.2.2.3 0 .5 0l2.7-.2h3.8l.8.1 1.3-9.6-9.9-.6 1.3 9.7 3.3-1.3c2.4-1 4.3-3.4 3.4-6a5 5 0 0 0-6-3.4L103 15l-7.6 1.9a54 54 0 0 1-3.8.8c1-.2-1 0-1.1 0h-2L91 27l-.2.1h-.1c-.7 0 .4 0 .5.1h.2l1 .1a20 20 0 0 0 6.2 0 44 44 0 0 0 8.5-2.8 98.8 98.8 0 0 0 17-8h-5l2.9 2c.1.1 1.6 1.2.7.6l1.4 1a53.6 53.6 0 0 1 5 5l2.1-8.3-27.7 6.6a88.8 88.8 0 0 1-7.1 1.3l-1.5.1-3.5.3a60.1 60.1 0 0 1-6.2-.2c-.7 0 .7.1 0 0l-.7-.1a32 32 0 0 0-2.1-.3h-.9l-1.8-.4a21.9 21.9 0 0 1-3.2-1l-3.1-1c-2.4-1-4.3-2-7-2v6a23.1 23.1 0 0 1 2.8 0l2.7.2a18.2 18.2 0 0 0 6.2-1c3.8-1.2 7.6-2.7 11.3-4l22.9-8.2-3.8-9q-4.7 2.8-9.5 5.3a5 5 0 0 0 3.8 9c4.2-1.1 8.4-2.3 12.5-3.6l6-2a9.1 9.1 0 0 0 4.1-2.3 27.3 27.3 0 0 0 2-2.5 2.9 2.9 0 0 0-.7-3.7 2.9 2.9 0 0 0-3.8.2l-1.2 1.3a1.6 1.6 0 0 0 .3 2.6z"/></g><path d="m3.5 146 .4-.7.7-.5h.8l.4.2.3.3.3.3.2.4v.4l-.2.8-.2.4v-.1l-.3.3-.4.1h-.4.2H5l3.2.6a1.7 1.7 0 0 0 1.3-.1 1.7 1.7 0 0 0 .7-1 1.6 1.6 0 0 0-.1-1.3 1.6 1.6 0 0 0-1-.8l-3-.5a2.9 2.9 0 0 0-1.4 0 1.8 1.8 0 0 0 0 3.4 1.7 1.7 0 0 0 1 0 1.8 1.8 0 0 0 .8-.4 2 2 0 0 0 .4-.8 1.6 1.6 0 0 0-1.1-2 1.6 1.6 0 0 0-1.3.2 1.9 1.9 0 0 0-.8 1z"/><path d="M3.9 148.6a12.8 12.8 0 0 0 2.6 2.4 3 3 0 0 0 1 .5 1.9 1.9 0 0 0 1.8-3.1 1.7 1.7 0 0 0-2.7.3 1.7 1.7 0 0 0-.2 1.3 1.7 1.7 0 0 0 .7 1 1.7 1.7 0 0 0 1.3.2 1.8 1.8 0 0 0 1-.8l-.3.3-.3.3-.4.2h-.9l-.4-.2-.1-.3-.3-.3-.1-.4v-.8l.1-.4.3-.3.3-.2.3-.2h.5-.2.5a.5.5 0 0 1-.2 0l.4.1a4.4 4.4 0 0 1-.9-.6l.3.4a11.1 11.1 0 0 1-1.8-1.8 1.6 1.6 0 0 0-1.2-.5 1.7 1.7 0 0 0-1.2.5 1.7 1.7 0 0 0-.5 1.2l.1.4a1.7 1.7 0 0 0 .4.8z"/><path d="M7 145.6q8-11 15.4-22.3c1.1-1.8-1.7-3.4-2.9-1.7Q12.1 133 4.2 144c-1.2 1.8 1.6 3.4 2.8 1.7z"/><path d="M22.7 122.8c2.7-7.3 9.6-11.7 16.5-14.6 8.6-3.5 17.9-5.5 26.9-7.7a503.7 503.7 0 0 1 62.5-11 511.2 511.2 0 0 1 63.3-3 447.6 447.6 0 0 1 63 5 102.2 102.2 0 0 1 14.6 3.2 59.1 59.1 0 0 1 7 2.7c1.4.6 4.6 2 3.6 3.8a10.3 10.3 0 0 1-2.4 2.4 47 47 0 0 1-2.7 2.2 51.6 51.6 0 0 1-5.8 3.7 52.1 52.1 0 0 1-12.8 5 50.5 50.5 0 0 1-6.8 1.2c-1.9.2-1.9 3.2 0 3a54.9 54.9 0 0 0 26.7-10.2c3-2.2 9-6 6.3-10.3-1.2-2-3.4-3-5.4-3.8a67.5 67.5 0 0 0-7.3-2.7c-10.2-3.1-21-4.2-31.5-5.3q-16.6-1.8-33.3-2.5a511.5 511.5 0 0 0-132.6 12c-10 2.2-20.2 4.5-29.9 7.8a39 39 0 0 0-20.1 13 22.3 22.3 0 0 0-2.7 5.3c-.7 1.8 2.2 2.6 2.9.8Z"/><path d="M22 123.1c6-5.4 14.3-8 22-10.7 8-2.8 16.3-5.2 24.6-7.3a402 402 0 0 1 51.5-8.7c17.4-2 34.8-3.2 52.3-4a426.5 426.5 0 0 1 52.9.5 268 268 0 0 1 26.3 3.4q6.5 1.2 13 2.7l6.2 1.6a5.5 5.5 0 0 1 2 .9c.7.6.3 1.4-.2 2.1l-3.5 5.8c-1 1.6 1.6 3.1 2.6 1.5 1.2-2 2.6-4 3.7-6.1a4.3 4.3 0 0 0 0-4.8c-1-1.4-2.8-2-4.4-2.4l-6.6-1.7a250.4 250.4 0 0 0-26.9-4.7 368.1 368.1 0 0 0-55-2.2 785 785 0 0 0-54.6 3.6 447 447 0 0 0-53.4 8 311.2 311.2 0 0 0-38.7 11.5 66.9 66.9 0 0 0-11.2 5.3 36.9 36.9 0 0 0-4.8 3.6c-1.5 1.3.7 3.4 2.1 2.1z"/><path d="M251.8 115.2A32.5 32.5 0 0 0 235 99a43 43 0 0 0-13.4-2.8l-15.7-1q-31.4-1.8-62.9-1.4-17.8.2-35.5 1.1c-2 .1-2 3.1 0 3q30.8-1.6 61.6-1 15.3.2 30.6 1l15.4.8c4.8.4 9.8.5 14.5 1.7a29.6 29.6 0 0 1 19.6 16.3c.8 1.7 3.4.2 2.6-1.5zM6 146a188.9 188.9 0 0 1-2.4-22c-.5-7.4-1-15 0-22.3 2-13.6 8.4-26 15.2-37.6C22 58.4 25.2 52 30.3 47.5a95.3 95.3 0 0 1 8.4-6.2l9.3-6.5c6.1-4.3 12.1-8.7 18.4-12.6a106.4 106.4 0 0 1 18.7-9.4c14.5-5.5 29.8-8.1 45-9.7 2-.2 2-3.2 0-3a186 186 0 0 0-41.6 8.2 110.8 110.8 0 0 0-19.1 8.5c-6.5 3.8-12.6 8.2-18.8 12.5L31.8 42.4a37 37 0 0 0-7.6 7.3 91.8 91.8 0 0 0-5.7 8.8 125.5 125.5 0 0 0-17 38c-1.8 8.3-1.7 16.7-1.1 25s1 17 2.6 25.2c.4 2 3.3 1.1 2.9-.7z"/><path d="M130.8 3a222.5 222.5 0 0 1 65.3 13.3q4.4 1.6 8.7 3.4a20.9 20.9 0 0 1 3.8 1.9c.7.4 1.4 1.1 2.2.8a1.5 1.5 0 0 0 1-2.2 3.8 3.8 0 0 0-2-1.5 1.5 1.5 0 0 0-1.8 1 2 2 0 0 0 .7 1.8l2.6 3 5 5.7q5 6.3 9.3 13a129.2 129.2 0 0 1 14.2 28.1l2.4 8.1.8 3.8a15.7 15.7 0 0 1 .6 4l.4-1-.1.2 1-.5h-.1l1 .5.3 1-1.4 1.1c2-.1 2-3.1 0-3a1.5 1.5 0 0 0-1.5 1.1 1.8 1.8 0 0 0 1.6 2.4c1.4 0 2-1.4 1.8-2.5a71.2 71.2 0 0 0-1.5-7.8 99.7 99.7 0 0 0-5.3-15.4 147 147 0 0 0-17.6-30q-2.9-4-6-7.7l-3-3.5-1.7-1.9-.5-.6c-.2-.2-.3-.3-.2-.1l.1 1.1-1.8 1c-.5 0-.5-.2-.1.1.2.2.3.5.1.1l1-2.2 1.1.2c-.7-.3-1.3-1-2-1.3A33.2 33.2 0 0 0 206 17l-7.9-3.1q-7.8-3-15.9-5.3a224.4 224.4 0 0 0-32.5-6.8Q140.2.5 130.8 0c-2 0-2 3 0 3z"/><g fill="#eaeaea"><path d="m101.4 53.8 1.8 8.7 1.5-.6a32.6 32.6 0 0 1-2.7-6.7l-1.6.4a72.8 72.8 0 0 0 2.9 8.1l2.4-.6a22.5 22.5 0 0 1-1.4-4.7l-2.6.7c1.1 3.2 1.8 6.4 2.6 9.6l2.8-1.1a31.8 31.8 0 0 1-1.8-4l-2.6 1.2c1 2 1.7 4.2 2.5 6.2a1.5 1.5 0 0 0 1.9 1 1.5 1.5 0 0 0 1-1.8 17.4 17.4 0 0 1-1.2-4.3l-2.6.3a27.4 27.4 0 0 0 2.4 5 1.3 1.3 0 0 0 2.3-1l-3.1-10a49.3 49.3 0 0 1-2.4-9.8l-2.4.4a40 40 0 0 0 2 7.9l2.3-.7-4-9.6a1.3 1.3 0 0 0-2.5.6 20.8 20.8 0 0 0 1.8 5.6l2.3-1.4a19.9 19.9 0 0 1-1.3-3 11.2 11.2 0 0 1-.5-3.2l-2.4 1.8c-.2 0 0 .1 0 0l.3.6.8 1.8a4.3 4.3 0 0 0 2.9 2.7 2 2 0 0 0 2.4-2.5 12 12 0 0 0-1.9-4.8c-1.3-2-4.4-.2-3.2 1.9a11.6 11.6 0 0 1 1.3 4l2.5-2.5c-.4 0 0 .2-.2 0l-.2-.6c-.3-.4-.5-1-.7-1.6a4.6 4.6 0 0 0-3-2.6 1.9 1.9 0 0 0-2.2 2.3 31.5 31.5 0 0 0 3.1 7 1.4 1.4 0 0 0 2.4-1.3 18.6 18.6 0 0 1-1.6-4.9l-2.4 1 4 9.4c.5 1.4 2.9.8 2.3-.7a37.3 37.3 0 0 1-2-8c-.2-1.3-2.5-1-2.4.4a49.7 49.7 0 0 0 2.3 10l3.3 10.6 2.3-1a18 18 0 0 1-2-4.5c-.4-1.3-2.7-1.2-2.6.4a20.1 20.1 0 0 0 1 5.1L108 70l-2.7-6.2c-.6-1.6-3.2-1-2.7.7a39 39 0 0 0 2 4.7c.7 1.6 3 .4 2.7-1.2a55 55 0 0 0-3-9.5 1.3 1.3 0 0 0-2.6.7 22.4 22.4 0 0 0 1.8 4.9c.7 1.4 2.7.2 2-1.2A70.5 70.5 0 0 0 102 55a.8.8 0 0 0-1.3.8 40.9 40.9 0 0 1 2.6 6.8.8.8 0 0 0 1.6-.5c-.4-3-1.1-5.9-1.7-8.8-.2-1.1-2-.6-1.7.5z"/><path d="M101.8 47v-.8l-.6 1c.2 0 .6 0 .2-.1a4 4 0 0 1 .9.4 8.4 8.4 0 0 0 2.3.9c1.5.2 3.2 0 4.6.5 2.4 1 3.4 4.4 4.2 6.6 1 2.9 1.6 5.6 0 8.3A15.3 15.3 0 0 1 107 69l3.3 2.5a5.2 5.2 0 0 0 0-2 2 2 0 0 0-3.3-.8 5.3 5.3 0 0 0-1 1.7c-.7 2 1.6 3.3 3.2 2.5 3.4-1.7 6.7-4.3 8.4-7.7 2-4 1.2-8.1-.4-12.2-1.4-3.5-3.1-7.3-7-8.5a29 29 0 0 0-6.6-.6c-1.6 0-3.5.3-4 2a1.2 1.2 0 0 0 .7 1.4l.8.2a.6.6 0 0 0 .7-.5Z"/><path d="M109.2 68.2c.1-.4 0-.4-.7 0l.9-3.1-1.4.1 1.8 2.4v-.1l-.8 1h.1l-1 .3a6.1 6.1 0 0 0 3.6-1.3 10 10 0 0 0 2.6-2.7 10.5 10.5 0 0 0 1.3-7.7c-.9-5-6.2-11.4-11.8-8l3.3 2.5a3.4 3.4 0 0 0 .1-1c0-1.5-1.7-3-3.1-1.9a2.9 2.9 0 0 0-1.3 1.8A2.3 2.3 0 0 0 106 53c1.4-1 2.6.2 3.5 1.4a8.4 8.4 0 0 1 1.8 5.1 5.5 5.5 0 0 1-1.8 4 7 7 0 0 1-2 1.2 2.4 2.4 0 0 0-1.1 3.3 1.9 1.9 0 0 0 3 .4l.4-.1a1.7 1.7 0 0 0-.4-3.3c-1.6 0-3.3 2-2.2 3.4a1.1 1.1 0 0 0 2-.2z"/><path d="M103 49.5a1 1 0 0 0 .6 0 1.6 1.6 0 0 0 .4-.1c0-.1-.2 0-.1 0l.3-.1c-.2 0 0 0 0 0h.1-.1a.3.3 0 0 0 .1 0h.7c-.2 0 0 0 0 0 .5 0 1 .2 1.4.4a11.2 11.2 0 0 0 2 .4 1.7 1.7 0 0 0 1-.3 1.8 1.8 0 0 0 .6-.8 1.8 1.8 0 0 0-.3-2 4.5 4.5 0 0 0-1.5-1 7.3 7.3 0 0 0-1.7-.6 7.7 7.7 0 0 0-3.8 0 2.2 2.2 0 0 0-1.6 2 2.5 2.5 0 0 0 .3 1.2 2.3 2.3 0 0 0 1.3 1l.5.1-.6-.2a4.6 4.6 0 0 1 1 .5l-.5-.3a8.8 8.8 0 0 0 .8.6 2.6 2.6 0 0 0 1.3.3 1.9 1.9 0 0 0 1.6-1 4.5 4.5 0 0 0 .3-.5 2.3 2.3 0 0 0-.3-1.8 3.6 3.6 0 0 0-1.2-1.1 6.8 6.8 0 0 0-1.7-.8v4.2a9.6 9.6 0 0 1 1.5-.4h-.6a4.8 4.8 0 0 1 1.3 0h-.5a6.4 6.4 0 0 1 1.5.4l-.4-.2 1.2.5v-3.4a5.3 5.3 0 0 1-.5.1h.4a4.3 4.3 0 0 1-1.1-.1h.4a7.7 7.7 0 0 0-1.6 0 4.7 4.7 0 0 0-1.5.2 2.8 2.8 0 0 0-1.2 1 2 2 0 0 0-.3.6 1 1 0 0 0 .6 1.2zm0 1c-.6.8-.3 2.1 0 3.1a9.7 9.7 0 0 1 .3 3.6h2.5a55.2 55.2 0 0 0-1.3-5.4c-.4-1.4-2.8-1.2-2.6.4l.8 5.8c.4 2 1 3.8 1.5 5.6a1.8 1.8 0 0 0 3.4-.9l-1.3-4.8a1.6 1.6 0 0 0-3.2.8 67.3 67.3 0 0 0 2.4 8.7 1.8 1.8 0 0 0 2 1.3 1.8 1.8 0 0 0 1.6-1.8 2.7 2.7 0 0 0-1-2 1.2 1.2 0 0 0-1.5 0 5.7 5.7 0 0 0-1 1l3.4.5-2.7-8.5-3.2.8 1 5 3.5-1a63.4 63.4 0 0 1-3-10.9l-2.6.7a41 41 0 0 1 1.4 5.4 1.3 1.3 0 0 0 1.4.9 1.3 1.3 0 0 0 1-1.3 9 9 0 0 0-.7-4c-.3-1-.8-2.6-2-3.1a.1.1 0 0 0-.1 0z"/><path d="M108.2 67.2c.6.1.8-.1 1.3-.4a9.9 9.9 0 0 1 1.2-.6 8.2 8.2 0 0 0 2.6-1.9c1.7-2 1.7-4.7 1.2-7.1a12.8 12.8 0 0 0-3-6.2 8 8 0 0 0-7-2.3 2.2 2.2 0 0 0 .6 4.4 5.4 5.4 0 0 1 4 1.3 7.9 7.9 0 0 1 2 4.7 4.6 4.6 0 0 1-.2 2.2 9.3 9.3 0 0 1-1.3 2c-.4.4-3 3.7-1.3 4zm-2.2 2.4h.4a.7.7 0 0 0-.7.2l-.2.3a1.9 1.9 0 0 0-.3.6 1.8 1.8 0 0 0 .1 1.3 1.6 1.6 0 0 0 1.3.8 1.3 1.3 0 0 0 1.3-1 .8.8 0 0 0-.3-.8.8.8 0 0 0-.9 0h.2-.4.2-.2.2-.1.2-.1l.2.1h-.1.1v.1a.7.7 0 0 1 0-.2v.3l-.1-.4v.2a.8.8 0 0 1 0-.2v.2a2 2 0 0 1 0-.5v.2-.3a1.2 1.2 0 0 0 0-.3.7.7 0 0 0-.2-.4l.2.2v.2-.1a.6.6 0 0 0-.3-.5.6.6 0 0 0-.5 0zM128 46a1.5 1.5 0 0 0-.8-1 1.4 1.4 0 0 0-2.1.9 14.8 14.8 0 0 0-.3 5.2c.1 1.5 0 3.7 1.2 4.7a2.3 2.3 0 0 0 3.8-1.5 20.2 20.2 0 0 0-1-4.8 14.6 14.6 0 0 1-.2-2.2c0-.4-.2-1 .1-1.4l-.8.8h-.4l-1.1-.3.1.1-.8-.8a19 19 0 0 1 1.4 5.2c.4 1.8.5 3.5.7 5.3.4 3.2 1.8 7.1 5.7 7.2a2.2 2.2 0 0 0 1.9-3.4 5.6 5.6 0 0 0-2.6-2.4 2.2 2.2 0 0 0-2.3 3.8c1.6 1.3 4.3 2.3 6.2 1.3s3-3.8 3.5-5.8a20.4 20.4 0 0 0 .5-7l-.3-3.4v-2.9c0-.2-.1-.1-.4.3l-1 .3c-.7.1-.7-.5-.3.3a5.5 5.5 0 0 1 .2.7l.4 2.3a47.3 47.3 0 0 1 .5 5v5.2c0 1.3 0 3-.6 4.3a5.7 5.7 0 0 1-3 2.3c-1 .2-2.4-1.2-3-1.8a7.9 7.9 0 0 1-1.8-3.6l-1.6-5.3-3.2 2.5.2.1-.8-.8.1.3c1.4 2.4 5 .2 3.8-2.3a2.4 2.4 0 0 0-.6-.8 2.2 2.2 0 0 0-3.7 2.1 48.4 48.4 0 0 0 2.4 7.9 11.8 11.8 0 0 0 4.9 5.2c2.4 1.6 4.8.8 7.1-.6a7.9 7.9 0 0 0 4-5.8 49.9 49.9 0 0 0-.6-16.3c-.4-2.2-1.4-5.3-4.1-5.4-3.2 0-3.5 3.5-3.4 5.8.2 2.9.8 5.8.4 8.7a12 12 0 0 1-1.3 4l-.5.8.5-.3-.5-.2a5.3 5.3 0 0 1-1.7-.9l-2.2 3.8a1.7 1.7 0 0 1 1 .8l2-3.3c-1.5 0-1.5-5-1.6-5.9a33.8 33.8 0 0 0-2.2-9 2.7 2.7 0 0 0-3.4-1.6 3.5 3.5 0 0 0-2.2 3.1 15.5 15.5 0 0 0 .3 4.5c.2 1.4.8 2.8.8 4.2l3.8-1.5-.2-.2.6 1c-.5-1.1-.4-2.7-.6-3.9a13.2 13.2 0 0 0-1.2-4l-.8 2h.1l-1-.2h.1c1 .8 2-.4 2-1.4z"/><path d="M131.5 62.7a2.2 2.2 0 0 0 1 2.5 9 9 0 0 0 1.2.5 7.1 7.1 0 0 0 1.7.4c1.6.3 3.4.4 4.7-.8a2.2 2.2 0 0 0-.5-3.5 6 6 0 0 0-2.6-.7l.6 4.4a11.6 11.6 0 0 0 4.3-2.8 3.3 3.3 0 0 0 1-3.3 4 4 0 0 0-.6-1.1l-.2-.4c-.1 0-.2-.3 0 .1s0 .2 0 0v.6a.4.4 0 0 1 0-.1v.6-.1a2.2 2.2 0 0 0-4-1.7 6 6 0 0 0-1 2 2.3 2.3 0 0 0 1 2.5 2.4 2.4 0 0 0 3.5-1.5 4.3 4.3 0 0 0-.2-3 2 2 0 0 0-1.5-1 2 2 0 0 0-1.8.6 3 3 0 0 0-.6 1 5 5 0 0 0-.2 1v.8-.6l.3-.5.2-.3 1-.6 1.7.3 1 2.5a5.2 5.2 0 0 1 .2-.8l-.2.5a5.8 5.8 0 0 1 .4-.7l-4.1-1.7a3.3 3.3 0 0 0 .4 2.5l.3.4.2.3s-.2-.7-.1-.2l-.1-.6a1 1 0 0 1 0 .2v-.6c0 .3.2-.2.2-.2-.2.3.3-.3.1-.2l-.4.4-.4.4-.2.2c-.2.1.5-.4 0-.1a8.7 8.7 0 0 1-.8.6l-.5.2-.3.2c-.2 0 .5-.2.1 0a2.1 2.1 0 0 0-1.6 2.4 2.2 2.2 0 0 0 2.3 1.8h.4-.6a4.8 4.8 0 0 1 .5 0l.3.2-.2-.1-.4-3.5c-.1.2 0 .1 0 0a1 1 0 0 1 .6-.2h-.4.6a8.4 8.4 0 0 1-1.8 0h.6a14.7 14.7 0 0 1-1.7-.3 5.2 5.2 0 0 0-1.2-.3 2.2 2.2 0 0 0-2.2 1.5zm19.6-20.4a24.2 24.2 0 0 0 .8 5.7l1.3 6.3 2.6 12.4c.4 2 3.1 2.1 4 .6a7.2 7.2 0 0 0 1.5-3 13 13 0 0 0-.5-3.6l-1.6-6.6a44 44 0 0 1-1-6.4 20.7 20.7 0 0 0-1.3-6.9c-.7-1.6-3-1.3-3.9 0a2.7 2.7 0 0 0-.4 1.6c.2 2.9 4.6 2.9 4.4 0v-.2l-.3 1 .2-.2H153c.7 1.7.7 3.7.8 5.5a51.3 51.3 0 0 0 1 6L156 60l.7 3.1v.7c.1.4.2.3.2-.3a14.3 14.3 0 0 1-1 1.4l4 .5-2.6-12.6-1.2-6.1c-.4-1.9-.7-4.4-2.2-5.8a1.8 1.8 0 0 0-3 1.3z"/><path d="M154.5 43.4c1.3.8 3 .8 4.5 1.2a11.5 11.5 0 0 1 3.3 1.5c2.2 1.4 2.8 4.1 3.5 6.5s.8 5.1-.8 7-4 2.6-6.2 3.2c-2 .5-2.3 4 0 4.3h.2a2.3 2.3 0 0 0 2.8-2.1v-.2a2 2 0 0 0-2.6-2h-.2 1.1-.2v4.3c3-.8 6.2-2 8.3-4.4 2.6-3 2.8-7 2-10.6-.8-3.5-2-7-4.9-9.3a15.2 15.2 0 0 0-4.4-2.3c-1.7-.6-4.2-1.4-6-.7a2 2 0 0 0-.4 3.6z"/><path d="M159.2 63.4c.6 1.2 2 1.2 3.2 1a10.6 10.6 0 0 0 2.2-.4 7.6 7.6 0 0 0 4-3.2 13.2 13.2 0 0 0 1.9-4.2 7.9 7.9 0 0 0 .1-2.6 3.2 3.2 0 0 0-.8-2 2.3 2.3 0 0 0-2.4-.7 2.2 2.2 0 0 0-1.5 1.8 2.2 2.2 0 0 0 1 2.2l-.3-.4c-.4-.4-.5-.7-.4-.4-.1-.6 0-.1 0 0V55.3l-.1.5-.3.9c0 .3 0 .2 0 0a2.6 2.6 0 0 1-.2.4l-.4.8-.3.6-.3.4c-.3.4.3-.3 0 0l-.6.6c-.1.2.4-.3 0 0l-.3.2a1.9 1.9 0 0 0-.4.2c.1-.1.4-.2 0 0l-.7.2-.8.1h-.3a3 3 0 0 0-2 .8 2.2 2.2 0 0 0-.3 2.5z"/><path d="M166 57.5a2.8 2.8 0 0 0 1.4-.4 2 2 0 0 0 .8-.7c-.2.2-.2.2 0 0a2.7 2.7 0 0 0 .5-1.6 8.4 8.4 0 0 0-.2-2.8 16.6 16.6 0 0 0-2.4-5.3 8.4 8.4 0 0 0-9.6-3.4 2.2 2.2 0 1 0 1.2 4.3c.2 0 .8-.3 1-.2h-.3H159.6c.6 0-.5-.1 0 0l1 .2c.2.1-.4-.2 0 0l.4.2.4.3c.3.2-.2-.2 0 0l.7.7v-.1l.1.2.4.6a21.6 21.6 0 0 1 1 2s.3.6.1.1l.2.6a9 9 0 0 1 .3 1.1l.1.6v.1a9.5 9.5 0 0 0 0 1.5 3.1 3.1 0 0 0 .7 1.3 1.4 1.4 0 0 0 1 .6z"/><path d="M154.6 45.3c-1 .6-.5 3-.3 3.9.2 1.6.6 3.2 1 4.8a30.1 30.1 0 0 1 .8 4.6l.1 2.6a4.2 4.2 0 0 0 .9 3 2 2 0 0 0 2.8 0 3 3 0 0 0 .8-1.7V61l-.2-2.6a24.3 24.3 0 0 0-1-5.6 18 18 0 0 0-2.9-4.7c-.3-.3-1.4-3.2-2-2.8zm29.2-3.8-.2-.9a2.2 2.2 0 0 0-2.6-1.5 2.2 2.2 0 0 0-1.5 2.7l1 6a28.7 28.7 0 0 1 .3 5.7l-.3 12a2.2 2.2 0 0 0 2.2 2.2 34.2 34.2 0 0 1 3.6.5l3.8.3a41.5 41.5 0 0 0 7.6-.6c1.3-.2 1.8-1.7 1.6-2.8-.3-1.5 0-3-1.6-3.9-1.4-.8-3.3-.5-4.8-.5l-9.5-.2 1.1.3.9 1.1a2 2 0 0 0-1.4-1.3c-2.7-.9-3.9 3.6-1.2 4.2a32.8 32.8 0 0 0 6.8.4h3.3a9.8 9.8 0 0 1 3 .1l-1-.6v-.3.7a10.8 10.8 0 0 0 0 1.3l1.6-2.8a35.8 35.8 0 0 1-7 .5c-2.2-.1-4.5-.7-6.8-.8l2.2 2.2.3-12.5a51.2 51.2 0 0 0-1.6-12.4l-4.2 1.2.2.9a2.1 2.1 0 1 0 4.1-1.2z"/><path d="m187.3 62.3.6-.4.3-.2a1.6 1.6 0 0 0 .4-.6 3.6 3.6 0 0 0 .4-1.8v-7.7h-4.5a5.6 5.6 0 0 0 2.2 4.2c1.4.9 3.5.5 5 0a2.2 2.2 0 0 0-1.3-4.3h-.1a2.2 2.2 0 0 0-1.6 1.8 2.1 2.1 0 0 0 1 2.2h.2l.5-4a6.4 6.4 0 0 1-1.3.3h-.2c-.1 0-.8-.1-.2 0 .1 0 .6.5.4.2.4.4 0-.1-.1-.2-.2-.4 0 .4 0 0 0-.2-.2-1 0-.3a2.4 2.4 0 0 0-.7-1.6 2.3 2.3 0 0 0-1.6-.6 2.3 2.3 0 0 0-2.2 2.2V58.4a7.4 7.4 0 0 0 .1 1.8 4 4 0 0 0 .4.8 1.4 1.4 0 0 0 .4.6l.2.2a1.5 1.5 0 0 0 1.6.4z"/><path d="M186.7 49.6c0 .2.1 0 .1 0a2.4 2.4 0 0 0 .3-1.1 6.1 6.1 0 0 0 0-1l-.2-2-.6-4.3-2.2 2.8a2 2 0 0 1 .5 0c-.3 0-.2 0 0 0l.7.2a11.6 11.6 0 0 0 1.5.4 16.3 16.3 0 0 0 3.2.3 22.5 22.5 0 0 0 3.3-.3l1.6-.3h.7c-.2 0-.2 0 0 0l-1.5-2.7a16.8 16.8 0 0 0-.2 3l2.8-2.2a24.9 24.9 0 0 0-5.8-.4l-3 .3h-.7l-.3.1a9 9 0 0 1-1.4 0 2.2 2.2 0 0 0-2.2 2.3 2.3 2.3 0 0 0 2.2 2.2 13.3 13.3 0 0 0 2.9-.3h.7c.7-.2-.4 0 .3-.1l1.3-.1a21.5 21.5 0 0 1 2.5 0h1.3c.7.2-.4 0 .3.1l.7.2a2.3 2.3 0 0 0 2.8-2.2v-1.8a2.3 2.3 0 0 0-1.5-2.7 9.6 9.6 0 0 0-3.8 0l-.9.2h-.3l-1.6.1a13.7 13.7 0 0 1-1.5 0s-.7 0-.3 0l-.9-.1a11.8 11.8 0 0 0-3.4-.7 2.3 2.3 0 0 0-2.1 2.8l.3 1.9v.5l.2 1 .3 2.3v.2a3.2 3.2 0 0 0 0 .7 2.5 2.5 0 0 0 .5.8l.3.3a1.7 1.7 0 0 0 3-.4z"/><path d="M183.8 42.3a9.2 9.2 0 0 0-.8 2.6l-.7 2.6a6.2 6.2 0 0 0 0 2.9c.2.7 1 2 2 1.7.5-.2.6-1 .7-1.5l.2-1.1.2-1.2a20 20 0 0 0 .7-2.8 8 8 0 0 0-.3-3 1.1 1.1 0 0 0-2-.2z"/><path d="M184.8 46a10.8 10.8 0 0 0-1 3.2 14.9 14.9 0 0 0 0 3.2 4.7 4.7 0 0 0 1.4 3.2c.2.2.5.4.8.3a.8.8 0 0 0 .2 0v-.2a1.6 1.6 0 0 0 .6-.8l-.3.5a3.8 3.8 0 0 0 .7-1.1 5.5 5.5 0 0 0 .2-1 15.4 15.4 0 0 0 0-2.6 21 21 0 0 0-.2-2.5 13.9 13.9 0 0 0-.5-2c-.2-.8-1.4-1.1-1.8-.3Z"/></g><g fill="#f7f7f7"><path d="M98.1 47.4a3 3 0 0 0 1-.3l.8-.4a6.5 6.5 0 0 0 1.7-1 4.5 4.5 0 0 0-1.9.6l-.8.4a2.5 2.5 0 0 0-.8.6v.1zM98.9 48.1a1.6 1.6 0 0 0 .5-.2l.6-.3 1.3-.7 1.2-.6.7-.3.5-.4c.2-.2 0-.1 0 0a4.7 4.7 0 0 0-.6 0 4.4 4.4 0 0 0-.7.2l-1.3.6-1.2.7-.6.4a1.4 1.4 0 0 0-.5.4.1.1 0 0 0 .1.2zm.6.6a3.2 3.2 0 0 0 1-.4l.7-.4 1.9-1 1.7-.9a9.5 9.5 0 0 0 1.5-.8V45a2.7 2.7 0 0 0-1.6.4l-1.8 1-1.8.9-.9.5a3.9 3.9 0 0 0-.8.5.2.2 0 0 0 .2.3zM100.1 49.4a4.7 4.7 0 0 0 1.6-.8l1.7-1 1.8-.7a4.8 4.8 0 0 0 1.7-.9V46a3.7 3.7 0 0 0-1.9.5l-1.8.8-1.7 1c-.6.4-1.2.6-1.5 1.1l.1.2zM99.6 50.7h-.1c-.1 0 0 .1 0 .2a.2.2 0 0 0 .2 0 4.5 4.5 0 0 0 1-.6l1-.7 2.4-1.3 2.5-1.1 1.3-.5c.4-.2.6-.2.7-.5a.1.1 0 0 0 0-.1c-.2-.2-.6 0-1 0l-1.3.6-2.4 1.1a26.9 26.9 0 0 0-2.4 1.3l-1.1.8a4.3 4.3 0 0 0-1 .8h.2zm.7 1a4.8 4.8 0 0 0 1-.5l1-.6 2.3-1.2 2.2-1.2a15.8 15.8 0 0 0 2.3-1.1.1.1 0 0 0-.1-.3 10.4 10.4 0 0 0-2.4 1l-2.2 1.1-2.1 1.2-1.2.8a4.4 4.4 0 0 0-1 .7l.1.2zm.3 1.2a27.8 27.8 0 0 0 2.5-1.5l2.5-1.4 2.5-1.4 1.3-.6 1-.7a.1.1 0 0 0-.1-.2c-.4 0-.8.3-1.1.5l-1.3.7-2.5 1.4-2.6 1.5a20.2 20.2 0 0 0-2.3 1.6l.1.1zM100.9 53.8l5.3-3.3L109 49l1.4-.8a2.7 2.7 0 0 0 1-.7.1.1 0 0 0-.1-.1 2.6 2.6 0 0 0-1.2.5l-1.4.8-2.7 1.6a45.3 45.3 0 0 0-5.1 3.3c-.1 0 0 .2 0 .2zm0 1a2.2 2.2 0 0 0 .8-.5l1-.5.8-.6a2 2 0 0 0 .7-.6s0-.1 0-.1a1.9 1.9 0 0 0-1 .3l-.8.6-.9.6a2.4 2.4 0 0 0-.7.6v.2zm.3 1a.4.4 0 0 0 .3 0l.6-.3 1-.5 1-.6.5-.3a2.6 2.6 0 0 0 .3-.4v-.2a1.8 1.8 0 0 0-.6.2 4.3 4.3 0 0 0-.5.3l-1 .6-1 .6a1.7 1.7 0 0 0-.5.4s-.1.2 0 .2zm.4 1 .9-.5.9-.6a18.3 18.3 0 0 0 1.6-1s0-.2 0-.2a8.4 8.4 0 0 0-1.8 1l-.8.6-.8.7zM102 57.4a.4.4 0 0 0 .3 0l.4-.3a6.7 6.7 0 0 0 .6-.4 5.5 5.5 0 0 0 .7-.4 3.6 3.6 0 0 0 .5-.6s0-.1 0 0a6.2 6.2 0 0 0-.7.3l-.7.5-.6.4-.3.2-.2.2zM102 58.3a11.8 11.8 0 0 0 1.8-1l.8-.5a2.2 2.2 0 0 0 .4-.3 3.6 3.6 0 0 0 .3-.4 2.8 2.8 0 0 0-.5.1 5.9 5.9 0 0 0-.4.2l-.9.6a10 10 0 0 0-1.5 1.3zm-.1 1.1a4.9 4.9 0 0 0 .8-.4l1-.5a4.7 4.7 0 0 0 1.4-1.2v-.1a6 6 0 0 0-1.7 1l-.8.6a5.3 5.3 0 0 0-.8.5v.2zM102.3 60.1a7.6 7.6 0 0 0 .8-.3l.7-.5.7-.5a4.5 4.5 0 0 0 .7-.6h-.1a6.5 6.5 0 0 0-.8.4l-.7.4-.8.5-.6.5c-.1 0 0 .2 0 .1zm.5.7 1.7-.9a6.4 6.4 0 0 0 1.6-1.1v-.1a6.5 6.5 0 0 0-1.7 1l-1.6 1.1zM102.8 61.7a1.8 1.8 0 0 0 1-.4l.8-.6.8-.6a4.6 4.6 0 0 0 .5-.3 2.9 2.9 0 0 0 .3-.5l-.4.1a4.5 4.5 0 0 0-.5.3l-.9.6-.8.6c-.3.2-.7.4-.8.7v.1zm.2 1 .8-.4.8-.5.8-.5.7-.6a7 7 0 0 0-.8.3l-.8.5-.8.5-.3.2a4.3 4.3 0 0 1-.4.4zm0 1a6 6 0 0 0 1.7-1 6 6 0 0 0 1.4-1.4 9.3 9.3 0 0 0-1.7 1 9.5 9.5 0 0 0-1.4 1.3zm.6.7a2.2 2.2 0 0 0 .7-.4 7.3 7.3 0 0 0 .7-.5l.7-.5a4 4 0 0 0 .3-.3 2.9 2.9 0 0 0 .2-.4s0-.1 0 0a2.7 2.7 0 0 0-.8.3l-.6.5-.7.6a3 3 0 0 0-.6.5l.1.2zm.4.9v.1h.3a8 8 0 0 0 1.1-.7l1-.9a5.3 5.3 0 0 0 .5-.4 1.4 1.4 0 0 0 .3-.5s0-.1 0-.1a2.5 2.5 0 0 0-1 .6l-.8.7-.9.7-.4.4-.1.1zM104 66.6a2.3 2.3 0 0 0 .9-.5l.8-.7.7-.6.4-.4a1 1 0 0 0 .2-.4.8.8 0 0 0-.4.1 4.3 4.3 0 0 0-.4.3l-.8.7-.8.6a2.7 2.7 0 0 0-.7.7.1.1 0 0 0 .1.2zm.3.8a.1.1 0 0 0 .2 0 .8.8 0 0 0 .3-.1l.3-.3.6-.5a4.3 4.3 0 0 0 1-1v-.2a4.5 4.5 0 0 0-1.3 1l-.7.5-.3.2v.1a.2.2 0 0 0 0 .1s0 .1 0 0zm0 1.3 1-.8.9-.7 1-.8a6.5 6.5 0 0 0 .8-.9 7.2 7.2 0 0 0-1 .7l-1 .8-.9.7-1 1z"/><path d="m105.8 66.6.4-.2a1.8 1.8 0 0 0 .3-.2l.6-.4a4.6 4.6 0 0 0 1-1l-.1-.1a7.2 7.2 0 0 0-1.2.8l-.5.4-.3.3a3 3 0 0 1-.2.2c-.1.1 0 .3 0 .2zm.6-15.3a18.2 18.2 0 0 0 2.7-1.7l1.4-.9a10.7 10.7 0 0 0 1.2-1 9.4 9.4 0 0 0-1.4.8l-1.3.8a17.8 17.8 0 0 0-2.6 1.9zm1.4.4 2.5-1.8 1.2-.8a3.4 3.4 0 0 0 1-.9 3 3 0 0 0-1.2.5l-1.3 1-2.3 1.8c-.2.1 0 .3.2.2zm.8.4.5-.1.6-.4 1.2-.9a8.9 8.9 0 0 0 1.1-.9 14.7 14.7 0 0 0 1-1l-1.2.7-1.1.9-1.2.8-.6.4c-.1.1-.3.3-.3.5zm1.4.2a.6.6 0 0 0 .5-.2l.4-.3 1-.7 1-.8.5-.4a4.3 4.3 0 0 0 .4-.4 4.9 4.9 0 0 0-.5.2 5.3 5.3 0 0 0-.5.3 10 10 0 0 0-1 .7l-1 .7-.5.4c-.1.1-.3.2-.3.4zM110.5 52.9a3.8 3.8 0 0 0 .9-.5l.8-.7.9-.7a4.4 4.4 0 0 0 .7-.7s0-.1 0 0a3.9 3.9 0 0 0-1 .4l-.8.7-.8.7a3.8 3.8 0 0 0-.8.7s0 .1 0 .1zm.4.6c.2.2.3 0 .5 0l.5-.4 1-.7.9-.7a3.5 3.5 0 0 0 .8-.8 4 4 0 0 0-1 .4l-1 .7-.8.6a6 6 0 0 0-.9.7.2.2 0 0 0 0 .2zm.4.6a1.7 1.7 0 0 0 .5-.2l.4-.3 1-.6a6 6 0 0 0 1.5-1.3v-.1a6.5 6.5 0 0 0-1.9 1.1l-.8.6-.4.4a1.4 1.4 0 0 0-.3.3v.1zM112 54.4a1.7 1.7 0 0 0 .9-.3l.8-.5.9-.5a1.9 1.9 0 0 0 .7-.7 2 2 0 0 0-.9.3l-.8.5-.9.6a1.7 1.7 0 0 0-.7.6zm-.1 1a1 1 0 0 0 .2 0l.2-.1.6-.3 1-.6 1-.6a3.5 3.5 0 0 0 .8-.8 4.2 4.2 0 0 0-1 .5l-1 .6q-.4.4-1 .6l-.5.3-.2.2a.7.7 0 0 0-.2.2zM111.7 56.2a1.2 1.2 0 0 0 .5-.2l.6-.3a15 15 0 0 0 1.1-.7l1.1-.7a3 3 0 0 0 1-.8s0 0-.1 0a3.1 3.1 0 0 0-1.1.5l-1.1.7-1 .7-.6.3a1.4 1.4 0 0 0-.4.4zM112.2 56.5a10.6 10.6 0 0 0 2.2-1l1-.5a3 3 0 0 0 1-.6c0-.2-.1-.3-.3-.3a3 3 0 0 0-1 .5l-1 .6-2 1.2zM112.1 57.5a9.6 9.6 0 0 0 1-.4l1-.6a6.6 6.6 0 0 0 1.7-1.3V55l-1.8 1.1-1 .6-1 .6zM112.4 58.2a2.2 2.2 0 0 0 .5-.3l.5-.3 1-.6 1-.7c.3-.2.7-.4.9-.7v-.1a2.3 2.3 0 0 0-1 .5l-1 .7-1 .7a3.9 3.9 0 0 0-1 .7zm.3.5a15.3 15.3 0 0 0 2.1-1.3l1-.6a6.1 6.1 0 0 0 1-.6V56a5.6 5.6 0 0 0-1 .5l-1 .6a11 11 0 0 0-2 1.4zM112.2 59.5a6.4 6.4 0 0 0 2-1 12 12 0 0 0 2-1.4s0-.2-.1-.1a12.6 12.6 0 0 0-2 1.2 11.6 11.6 0 0 1-2 1.2v.1z"/><path d="m112.6 60 1.2-.7 1.1-.7 1.2-.6a3.6 3.6 0 0 0 1-.7V57a3.1 3.1 0 0 0-1.2.5l-1.2.7-1 .8c-.5.2-.8.5-1 .8v.1zM112.5 60.8a7 7 0 0 0 1.1-.5l1.1-.6 1-.7.6-.3a2.7 2.7 0 0 0 .5-.4.2.2 0 0 0-.3-.3 4.5 4.5 0 0 0-.5.3l-.5.4-1 .6-1 .7-1.1.6v.1zM112.1 61.6c0 .5 1.3-.3 1.5-.4l2.3-1.4 1-.7c.2-.1.3-.5 0-.4a1.8 1.8 0 0 0-.6.3l-.5.3-1.2.7-1.3.8-.6.4c-.2.2-.4.5-.6.4zM112 62.4a2.3 2.3 0 0 0 1.2-.3l1.2-.6 1.2-.6.5-.4.5-.4a.2.2 0 0 0-.1-.2.8.8 0 0 0-.6.2l-.5.3-1.2.7-1.2.6a2.7 2.7 0 0 0-1 .7zM111.6 63.7a13 13 0 0 0 2.9-1.3l1.4-.8a3.7 3.7 0 0 0 1-1 4.3 4.3 0 0 0-1.3.7l-1.3.8a26.1 26.1 0 0 0-2.7 1.6zm-6.8 5.3a31.4 31.4 0 0 0 3-1.9l3.1-1.9 6.3-3.6c.2-.1 0-.4-.2-.3-2.2 1-4.3 2.4-6.3 3.7l-3 1.9a22.2 22.2 0 0 0-3 2s0 0 .1 0zm3.6-3h-.1.1z"/><path d="M107.7 66.2a.2.2 0 0 0-.3.2.1.1 0 0 0 .2 0 5.3 5.3 0 0 0 1.4-.6l1.3-.8a12.6 12.6 0 0 0 2.5-1.8V63a16.5 16.5 0 0 0-2.7 1.5l-1.4.8a5.8 5.8 0 0 0-1.2.9h.1l.1-.1zm-2.4 3 5.2-3 2.5-1.7a17 17 0 0 0 2.4-1.6 16 16 0 0 0-2.4 1.3l-2.6 1.7-5 3.3zm0 .8a51.3 51.3 0 0 0 5.8-3.4l2.8-1.7 1.4-.8a3.4 3.4 0 0 0 1.1-.8v-.1a4.2 4.2 0 0 0-1.4.7l-1.3.8-2.8 1.7a50.3 50.3 0 0 0-5.7 3.6zM105.2 70.8a15.6 15.6 0 0 0 2.5-1.3l2.7-1.6 2.6-1.6a9.5 9.5 0 0 0 2.4-1.6 9 9 0 0 0-2.6 1.3l-2.6 1.6-2.6 1.4a15.9 15.9 0 0 0-2.4 1.6s0 .2 0 .2zM105.8 71.8l5-3.2 2.5-1.6 1.3-.8a3.8 3.8 0 0 0 1-.8v-.1a3.1 3.1 0 0 0-1 .5l-1.4.8-2.6 1.6a28.8 28.8 0 0 0-4.8 3.5zM108.3 71.2a9.3 9.3 0 0 0 1.8-1.1l1.8-1.3 1.9-1.3a5.7 5.7 0 0 0 1.5-1.2 6.3 6.3 0 0 0-1.8 1l-1.8 1.2-1.8 1.2a9.4 9.4 0 0 0-1.7 1.3v.2zm3-1.2 1.3-.6 1.2-.6a26.4 26.4 0 0 0 2.2-1.6s0-.1 0 0l-2.5 1.2-1.1.7-1.1.8zm13.8-26 .8-.2.9-.2a5 5 0 0 0 1.6-.6 3.3 3.3 0 0 0-1.7.1 7.1 7.1 0 0 0-.8.4 4.1 4.1 0 0 0-.8.4v.1z"/><path d="M124.8 44.8a11.5 11.5 0 0 0 2.1-.4l1.1-.3a4.1 4.1 0 0 0 .5-.2 1.4 1.4 0 0 0 .4-.2v-.1a1.2 1.2 0 0 0-.4 0h-.6l-1 .4a13.7 13.7 0 0 0-2.2.7v.1zm1.4-1.6a5.4 5.4 0 0 0 .6-.1l.6-.1a4.5 4.5 0 0 0 1.1-.3v-.1a2.3 2.3 0 0 0-1.2 0 3.3 3.3 0 0 0-1.1.5zM124.7 45.6h.6l.6-.1 1.2-.3 1.3-.3c.3-.1.8-.1 1-.4a.1.1 0 0 0 0-.2 2.1 2.1 0 0 0-1.1.2l-1.2.3-1.2.3-.7.2a1.2 1.2 0 0 0-.2 0l-.3.3z"/><path d="M124.7 46.4a7.8 7.8 0 0 0 2.3-.6 5.8 5.8 0 0 0 2-.9 7 7 0 0 0-2.2.5 9 9 0 0 0-2 1zM124.8 47.1a1.1 1.1 0 0 0 .6 0 6.3 6.3 0 0 0 .6-.2l1.3-.3 1.3-.4c.2-.1.9-.2 1-.5v-.1h-.5l-.6.2-1.3.4-1.3.4-.6.2a1 1 0 0 0-.5.3zm-1.1 1.1 2.8-.7a15.4 15.4 0 0 0 2.8-1 16 16 0 0 0-2.8.7l-2.8 1zm.5.9a5.7 5.7 0 0 0 1.3-.3l1.2-.4 2.5-.9a14 14 0 0 0-2.5.6l-1.3.4a4.9 4.9 0 0 0-1.2.5zM125.9 49.3a14.2 14.2 0 0 0 2-.5 12.8 12.8 0 0 0 1.9-.9l-2 .7-2 .7zm-.5-1a15.7 15.7 0 0 0 3-.8l-3 .9z"/><path d="m125.5 49.7 1.2-.3 1.2-.3 1.2-.4a2 2 0 0 0 .6-.2l.2-.2a2 2 0 0 1 .3-.2 1.4 1.4 0 0 1-.5.1.7.7 0 0 0-.2 0 3 3 0 0 0-.6.2l-1.1.3-1.1.4-1.3.5v.1zM125.7 50.2c.2.2.7 0 .9 0l1-.3 1.1-.4c.4 0 .8-.2 1-.5a.1.1 0 0 0-.1-.2.9.9 0 0 0-.5.1l-.6.2-1 .4-1.2.3s-.7.2-.6.4zm-1.1 1.6 3-1 3-.7a12.9 12.9 0 0 0-3.1.5 15 15 0 0 0-3 1.1v.1zM125.5 51.8c-.2 0 0 .3.1.3a4.4 4.4 0 0 0 .8-.2l.8-.3a12.8 12.8 0 0 0 3.2-1.2v-.1a12.4 12.4 0 0 0-2.5.7l-1.2.4-.6.3h-.3l-.2.1v.1c0 .1 0 0 0 0z"/><path d="M126 52.7a2.4 2.4 0 0 0 .6-.1l.6-.2 1.2-.3a17.8 17.8 0 0 0 2.2-.8 17.1 17.1 0 0 0-2.3.5l-1.2.3-.6.2a2.7 2.7 0 0 0-.6.1c-.1.1 0 .4.1.3zm.2-1.6 2-.4a9.8 9.8 0 0 0 2-.6 9.9 9.9 0 0 0-2 .3l-2 .6z"/><path d="M125.7 50.9a10.3 10.3 0 0 0 4.5-1.3 13.3 13.3 0 0 0-2.2.4l-1.1.3-1.1.5zm.4 2.6 1.2-.3 1.1-.3 1.2-.3a2.6 2.6 0 0 0 1-.5 2.8 2.8 0 0 0-1.1 0l-1.1.4-1.2.3-1 .5a.1.1 0 0 0 0 .2z"/><path d="M126.2 54.2a.4.4 0 0 0 0-.7.4.4 0 0 0 0 .7Z"/><path d="M126 54.4a.7.7 0 0 0 .6 0 5.3 5.3 0 0 0 .5 0l1.2-.4a4.7 4.7 0 0 0 2.1-1v-.1a3 3 0 0 0-1 .2l-1.2.4-1.2.4a5.5 5.5 0 0 0-.5.1.7.7 0 0 0-.4.3zM126.3 55.3a5.8 5.8 0 0 0 1.4-.2l1.3-.5a7 7 0 0 0 2.4-1.2s0-.1 0-.1a12.3 12.3 0 0 0-2.6.9l-1.3.4a10.3 10.3 0 0 0-1.2.6zM126.3 56.1a11.4 11.4 0 0 0 1.3-.2l1.2-.5 1.1-.4a1.9 1.9 0 0 0 1-.6v-.1a2 2 0 0 0-1.1.2l-1.2.4-1.1.5-.5.2-.6.4c-.3.1 0 .2 0 .1zM126.8 56.6a.6.6 0 0 0 .5 0l.6-.1 1.2-.4 1.1-.3.6-.2a2.5 2.5 0 0 0 .3-.1.8.8 0 0 0 .2-.2V55a1 1 0 0 0-.5 0l-.6.2-1.2.4-1.2.4-.5.2c-.2 0-.4.1-.4.3zm0 1.1 1.2-.4 1.3-.5 1.1-.4a4.6 4.6 0 0 0 1.1-.6 3.6 3.6 0 0 0-1.1.2l-1.3.4-1.1.5-1.2.6c-.1 0 0 .2 0 .2zm.2 1.2 1-.4 1.1-.4 1-.5a3.7 3.7 0 0 0 1-.6 3.6 3.6 0 0 0-1 .2l-1 .5-1 .5-1 .5c-.1 0 0 .2 0 .2z"/><path d="m127.3 59.4 1.2-.4c.4 0 .7-.2 1-.4l1.1-.5a3.5 3.5 0 0 0 1-.7v-.1a4.3 4.3 0 0 0-1 .5l-1 .5-1.1.4-1.2.5v.2zm-.1-1 .6-.1.6-.2 1.2-.4 1.1-.5.6-.2.3-.2.2-.2c.2-.1 0-.2-.1-.1H131l-.6.3-1.1.4-1.2.5-.5.2-.6.3c-.2.1 0 .1 0 .1zm.8 1.5a21.5 21.5 0 0 0 4.8-2.2v-.1a22 22 0 0 0-4.8 2.2s0 .1 0 0zm.3.8a1.6 1.6 0 0 0 .6-.1l.7-.2 1.4-.5 1.4-.5a3.2 3.2 0 0 0 1.1-.6 3.3 3.3 0 0 0-1.3.2l-1.4.6-1.3.5-.6.2a2 2 0 0 0-.6.4z"/><path d="m128.4 60.5 1.1-.4 1-.4a8.9 8.9 0 0 0 2-1 8.8 8.8 0 0 0-2.1.6l-1 .5-1 .5v.1zm.7 1a9 9 0 0 0 1.4-.4l1.4-.6a22 22 0 0 0 2.8-1.2 14 14 0 0 0-3 .8l-1.3.6a7 7 0 0 0-1.3.7v.2zm.4.9a4.3 4.3 0 0 0 .8-.2l.9-.3 1.6-.6a12.2 12.2 0 0 0 3.1-1.6 18.5 18.5 0 0 0-3.3 1.1l-1.6.7-.8.3a5.4 5.4 0 0 0-.7.4v.2zM137 42a7 7 0 0 0 1.6-.4 5.3 5.3 0 0 0 1.6-.6v-.2a4.2 4.2 0 0 0-1.7.3 5.2 5.2 0 0 0-1.5.7v.2zM137 42.9l1.2-.2 1-.3 1-.3a10.6 10.6 0 0 0 1-.4v-.1a8.4 8.4 0 0 0-1 .1 8 8 0 0 0-1 .3l-1 .3-1.2.5zM137 43.8a3.2 3.2 0 0 0 1-.2l.8-.3a6.5 6.5 0 0 0 1.8-.8v-.1a6.4 6.4 0 0 0-1.9.4l-.9.3a3.6 3.6 0 0 0-.8.4v.3ZM136.7 44.7h.7a5 5 0 0 0 .7-.2l1.2-.4 1.3-.4a2.7 2.7 0 0 0 1.1-.6v-.2a2.5 2.5 0 0 0-1.2.2l-1.3.4-1.2.5a6.6 6.6 0 0 0-.6.2l-.7.5zM136.7 45.5h.4a4.7 4.7 0 0 0 .5-.1l1.1-.3 1.2-.4a2.3 2.3 0 0 0 .9-.5V44a2.7 2.7 0 0 0-1.1.2l-1.2.4-1.2.4c-.1 0-.7.2-.6.4zm-.6 1.2a24.5 24.5 0 0 0 2.7-.7l1.3-.3.6-.3a1.6 1.6 0 0 0 .3 0l.3-.3V45a4.6 4.6 0 0 0-.6 0l-.7.2-1.3.4a23.3 23.3 0 0 0-2.6 1zm1 .9a13.8 13.8 0 0 0 2.4-.6 10.2 10.2 0 0 0 2.2-.9 18.6 18.6 0 0 0-2.3.6l-2.3.8zm-.7 1.1a4.3 4.3 0 0 0 1.2-.2l1.3-.2 1.3-.4a2.7 2.7 0 0 0 1-.5v-.1a2.8 2.8 0 0 0-1.1.1l-1.3.3-1.2.4a4.5 4.5 0 0 0-1.3.4.1.1 0 0 0 .1.2zM136.6 49.6l1.3-.3 1.3-.3 1.2-.4a10.2 10.2 0 0 0 1.1-.6s0-.1 0 0a11.4 11.4 0 0 0-1.3.2l-1.2.3-1.2.4-1.2.5v.2zM138.4 49.7l2.2-.5 1.2-.4a10.2 10.2 0 0 0 1-.3v-.1a9.9 9.9 0 0 0-1 .2l-1.2.3-2.2.7c-.1 0 0 .1 0 .1zm-.4.8a1.5 1.5 0 0 0 1 0l1.1-.3a8.2 8.2 0 0 0 2.1-.8v-.2a11.4 11.4 0 0 0-2.2.5l-1 .4a1.5 1.5 0 0 0-1 .4zm-.4 1.2c.3.2.8 0 1-.2l1.2-.3 1.1-.4a3.9 3.9 0 0 0 1.1-.5V50a6.8 6.8 0 0 0-2.3.6l-1.1.4c-.3.1-.9.2-1 .5zM138 52.2c.2.2.7 0 1 0l1.1-.3 1.2-.3a4 4 0 0 0 1-.5 4 4 0 0 0-1.2.1l-1.2.3-1.3.4a1.1 1.1 0 0 0-.5.2s-.1.1 0 .2ZM138.2 52.9a10 10 0 0 0 2.1-.4 5.8 5.8 0 0 0 2-.8 14.4 14.4 0 0 0-2 .5l-2 .6zm0 .8a.5.5 0 0 0-.2.1.1.1 0 0 0 0 .2 3.5 3.5 0 0 0 1.2-.2l1.2-.3 1.1-.4a8.4 8.4 0 0 0 1.1-.4 5.9 5.9 0 0 0-1.2 0l-1.2.3-1.2.3a3 3 0 0 0-1 .5l.1.1.2-.2zm-1.3 1.5a7.9 7.9 0 0 0 2.8-.4l1.4-.4a3.5 3.5 0 0 0 1.2-.6 4.3 4.3 0 0 0-1.3.1l-1.4.4a11.8 11.8 0 0 0-2.6 1zm1 .8c0 .4.5.2.8.2l1.7-.4a17.8 17.8 0 0 0 3-.9 15.7 15.7 0 0 0-2.8.3l-1.3.3-.7.2a3.5 3.5 0 0 0-.5.2s-.3 0-.2.1z"/><path d="M141.1 54.6c.4 0 .8-.3 1.3-.4l1.3-.3v-.1a3.2 3.2 0 0 0-1.4 0 3 3 0 0 0-1.4.5c-.1.1 0 .3.2.3zm-3.3 2.4a2.2 2.2 0 0 0 1.2 0l1.3-.3a7.5 7.5 0 0 0 2.4-1v-.2a16 16 0 0 0-2.5.6l-1.2.4-.6.1a1.2 1.2 0 0 0-.6.3.1.1 0 0 0 0 .2zm-.4 1a6.3 6.3 0 0 0 1.3-.3l1.3-.3a22 22 0 0 0 2.6-1 12.4 12.4 0 0 0-2.7.5l-1.3.5a5.3 5.3 0 0 0-1.2.6zM137.5 58.8a2.4 2.4 0 0 0 1.4-.1l1.4-.4 1.3-.5c.4 0 1-.2 1.1-.6a1.9 1.9 0 0 0-1.2 0l-1.4.5-1.4.4c-.3.2-1 .2-1.2.6v.1z"/><path d="M137 59.5a2.6 2.6 0 0 0 1.2-.1l1.4-.3A9.3 9.3 0 0 0 142 58v-.1a27.4 27.4 0 0 0-2.7.7l-1.3.3a2.8 2.8 0 0 0-1.2.5.1.1 0 0 0 0 .1z"/><path d="M129.5 63a3 3 0 0 0-.5 0l.1.3 3.7-1.4 3.8-1.4 3.7-1.2 1.9-.6a11.1 11.1 0 0 0 1.8-.5V58a8.4 8.4 0 0 0-1.8.4l-2 .5-3.8 1.2-3.8 1.3A25.2 25.2 0 0 0 129 63l.1.2.4-.3zM129.7 64a20.3 20.3 0 0 0 3.6-1.3l3.5-1.3 3.5-1.3a22.9 22.9 0 0 0 3.5-1.1.2.2 0 0 0-.1-.3 17.4 17.4 0 0 0-3.5 1l-3.6 1.1-3.6 1.3a15.8 15.8 0 0 0-3.4 1.5.1.1 0 0 0 .1.3zm.7.6a3.4 3.4 0 0 0 1.4-.3l1.6-.6 3.4-1.3 6.3-2.5-6.6 2.3-3.3 1.1-1.6.6a3.3 3.3 0 0 0-1.3.6.1.1 0 0 0 0 .2zm1 .6a19.2 19.2 0 0 0 3-1l2.9-1.1a50.3 50.3 0 0 0 5.7-2.2 38.4 38.4 0 0 0-6 1.8l-3 1.1a17 17 0 0 0-2.7 1.2v.1zM132.1 66c2-.7 4-1.7 6-2.5l3-1a24 24 0 0 0 2.9-1.2 14.9 14.9 0 0 0-3 .8l-3 1a34 34 0 0 0-5.8 2.8v.1zm1.3.5a.1.1 0 0 0-.1 0 .2.2 0 0 0-.2.1.1.1 0 0 0 .1.2c.3.1.6 0 .9-.2l1-.5L138 65l5.2-2.2a29.6 29.6 0 0 0-5.1 1.6l-2.4 1-1.2.6-.6.3-.3.2c-.2 0-.2 0-.2.2zm.9.5a6.4 6.4 0 0 0 1.7-.6l1.7-.7a15.6 15.6 0 0 0 3.8-1.5V64a15.5 15.5 0 0 0-4 1.2l-1.8.7a3.1 3.1 0 0 0-1.5 1zM135 67.2a.1.1 0 0 0 .1.2.7.7 0 0 0 .6 0l.8-.3 1.9-.7a13.7 13.7 0 0 0 3.4-1.7 11.6 11.6 0 0 0-2 .5l-1.9.8-1.8.7-.9.4h-.1zm1.7.5a11.8 11.8 0 0 0 4-1.6s0-.1 0 0l-4 1.6zm15.5-25.4 3-.8 1.3-.4a5 5 0 0 0 1.4-.5v-.1a4.5 4.5 0 0 0-1.5.2l-1.4.4-2.8.9c-.2 0-.2.3 0 .3zM151.7 42.7a1.3 1.3 0 0 0 .8 0l1-.2 2-.5 2-.6a17.5 17.5 0 0 0 1.9-.7 19.5 19.5 0 0 0-2 .3l-2 .5-2 .6-1 .3a1.2 1.2 0 0 0-.7.3z"/><path d="m151.4 43.8 4.4-1.6a31.8 31.8 0 0 0 4.3-1.5 23 23 0 0 0-4.4 1.3l-4.3 1.7zM151.9 44.3l5-1.6 2.3-.9a15.9 15.9 0 0 0 2.4-.8l-.1-.2a17.6 17.6 0 0 0-2.5.8l-2.4.8-4.7 1.8v.1zM152.7 44.7l5-1.6 2.6-.8a14.3 14.3 0 0 0 2.3-1c.1 0 0-.1 0-.1a13.4 13.4 0 0 0-2.4.7l-2.6.9-5 1.8v.1zM152.3 45.7c.6-.3 1.2-.4 1.7-.5l1.5-.5 2.7-1 5.5-2v-.1c-1 .2-2 .6-3 1l-2.8.9-2.7 1-1.4.6a15.3 15.3 0 0 1-1.5.6zm-.7 1.1 6-2.3 3-1.1a21.8 21.8 0 0 0 3-1.1v-.1a16.7 16.7 0 0 0-3.1 1l-3.1 1a59.6 59.6 0 0 0-5.8 2.5v.1zm1.3.3 5.9-2.2 6-2.1v-.1a41.7 41.7 0 0 0-6.2 2L153 47zm-.3.8a27.7 27.7 0 0 0 3-1l3.2-1.3 3-1.1 1.5-.6a3.8 3.8 0 0 0 1.2-.5c.1 0 0-.1 0-.1a4.1 4.1 0 0 0-1.4.3l-1.5.6-3.2 1.2a35.8 35.8 0 0 0-5.9 2.5zm.7.5 6.1-2.5 3-1.1a22.6 22.6 0 0 0 2.8-1v-.1a16.4 16.4 0 0 0-3 1l-3 1.2-5.8 2.5zM153.4 48.8l6.3-2.4L163 45l2.9-1.1v-.1a30.7 30.7 0 0 0-3.2 1.1l-3.2 1.2-6 2.6zM153.2 49.6l3.1-1.2a16.7 16.7 0 0 0 3.2-1.6v-.2a16.3 16.3 0 0 0-3.3 1.4c-1 .5-2 1-3 1.7zM153.8 50l1.9-.8 1.9-.9a13.3 13.3 0 0 0-2 .8l-1.8 1zm-.4 1a22.9 22.9 0 0 1 2.5-1l1.2-.6a4.6 4.6 0 0 0 1.1-.6l-1.2.5-1.3.5a12.4 12.4 0 0 0-2.3 1.2zM153.3 51.7l1.8-1 1.7-1a17.3 17.3 0 0 0-1.7 1l-1.8 1zm0 .5 2.4-1.1 1.2-.6a7.3 7.3 0 0 0 1.1-.6 5.5 5.5 0 0 0-1.1.4l-1.2.6a24.9 24.9 0 0 0-2.3 1.3zM154.5 52.1l2-1a13.8 13.8 0 0 0 2-1.2 13.5 13.5 0 0 0-2 1l-2 1.1c-.1 0 0 .1 0 .1ZM154 52.7a4.1 4.1 0 0 0 1-.4l1-.5a20.4 20.4 0 0 0 2.2-1l-2.2.8-1 .5a4.2 4.2 0 0 0-1 .5zM154.3 53.4a20.8 20.8 0 0 0 3.6-2l-3.6 2zM154.4 54l1.9-.9 1.8-.9a10 10 0 0 0-2 .7 9.9 9.9 0 0 0-1.7 1zm.1.6a13.2 13.2 0 0 1 2.1-1 7.3 7.3 0 0 0 2-1l-2.1.9a7.2 7.2 0 0 0-2 1s0 .1 0 0zM154.7 55.3l1.8-.9a6.7 6.7 0 0 0 1.6-1 6.9 6.9 0 0 0-1.8.8l-1.7 1 .1.1zM154.6 56a14.1 14.1 0 0 0 2.5-1l1.2-.6a3.4 3.4 0 0 0 1.1-.7v-.1a3.2 3.2 0 0 0-1.2.4l-1.3.7a14.3 14.3 0 0 0-2.4 1.3zM155 56.4a12.4 12.4 0 0 0 2-.8l1-.4a3.6 3.6 0 0 0 1-.6 3 3 0 0 0-1 .3l-1 .4a12.2 12.2 0 0 0-2 1v.1zm.1.9 2.1-1 1-.5a3.2 3.2 0 0 0 1-.6 3 3 0 0 0-1 .4l-1 .5-2.1 1c-.1.1 0 .3.1.3zM154.6 58.3a1.4 1.4 0 0 0 .5-.2l.6-.3 1.3-.6 1.3-.6a4.9 4.9 0 0 0 1.1-.7 4.8 4.8 0 0 0-1.2.4l-1.3.7-1.3.6a2.8 2.8 0 0 0-1 .7zm.6.3a13.3 13.3 0 0 0 2.4-1l2.3-1.4-2.4 1.1a16.1 16.1 0 0 0-2.3 1.3zM155.6 59.2a1.3 1.3 0 0 1-.3 0v.1l1-.5 1-.6a23.3 23.3 0 0 0 2.2-1.1 14.3 14.3 0 0 0-2 1l-1.1.5a9 9 0 0 0-1.1.7s.2 0 .3 0zm-.2 1a16.9 16.9 0 0 0 5-2.8l-5 2.7c-.2 0 0 .1 0 .1zm.4.8 2.2-1.1a20.6 20.6 0 0 0 2.2-1.2 10.7 10.7 0 0 0-2.3.9 14.3 14.3 0 0 0-2.2 1.2l.2.2zm.2 1.1 2.6-1.4 2.5-1.4a20.5 20.5 0 0 0-2.6 1.2l-2.5 1.6zm-.1.9a6.3 6.3 0 0 0 1.4-.7l1.3-.7 2.6-1.6-2.8 1.4-1.3.7a6 6 0 0 0-1.3.8v.1zM156.1 63.6c1.5-.6 2.8-1.4 4.2-2.1l2.1-1 2.2-1v-.2a16.2 16.2 0 0 0-2.3.9l-2.1 1a23 23 0 0 0-4 2.3v.1zm3.5-16.6 1.6-.5 1.5-.5 3-1v-.1a13 13 0 0 0-3.1.8l-1.4.5-1.6.8zM160.9 47.4a20.9 20.9 0 0 0 2.5-1 13.3 13.3 0 0 0 2.3-1v-.2a8.4 8.4 0 0 0-2.4.8 11.3 11.3 0 0 0-2.4 1.3v.1zM162.1 47.8c.9-.3 1.7-.8 2.5-1.2l2.5-1.1v-.1a10 10 0 0 0-2.6 1 10.3 10.3 0 0 0-2.4 1.3zm.5.6c.8-.2 1.5-.6 2.2-1l1-.5a6.7 6.7 0 0 0 1.2-.6 5.7 5.7 0 0 0-1.1.4l-1.1.5a16 16 0 0 0-2.2 1.2zM163.8 48.5l3.8-1.7a16 16 0 0 0-3.8 1.6s0 .1 0 0zm.3.8a1.1 1.1 0 0 0 .5-.1l.6-.2 1-.5a17.1 17.1 0 0 0 2.2-1.1 19.5 19.5 0 0 0-2.2.7l-1.1.5-.5.3a1.4 1.4 0 0 0-.5.3zm-.5.8 2.3-1a8.8 8.8 0 0 0 2.2-1l-2.4.9a5.9 5.9 0 0 0-2 1s0 .1 0 0zM164.3 50.5l2.5-1 1.2-.4a4.8 4.8 0 0 0 1.2-.5v-.1a4.4 4.4 0 0 0-1.2.3l-1.3.4a14.7 14.7 0 0 0-2.4 1.3zm1 .4 1.9-.7.9-.4.4-.2a2.6 2.6 0 0 0 .5-.2 5.2 5.2 0 0 0-1 .3l-1 .4-1.8.8zM165.1 51.7l1-.4 1-.4 1-.4.8-.4V50a.9.9 0 0 0-.5 0 4.5 4.5 0 0 0-.5.2l-1 .3-.8.5-1 .6h.1zM165.2 52.4l2-1 1-.4a3.9 3.9 0 0 0 1-.5v-.1a3.3 3.3 0 0 0-1 .3l-1 .4a18.6 18.6 0 0 0-2 1.2h.1zM165.6 52.6a18 18 0 0 0 2-.7 8 8 0 0 0 1.7-1 8.3 8.3 0 0 0-1.8.7 19.2 19.2 0 0 0-1.8 1zm.6 1a13.7 13.7 0 0 1 1.5-.9l1.6-.7a7.8 7.8 0 0 0-1.6.6 13.2 13.2 0 0 0-1.6 1zM166 54a16.8 16.8 0 0 0 2-.7l.8-.4a2 2 0 0 0 .9-.4 1.9 1.9 0 0 0-1 .1l-.9.4a9.6 9.6 0 0 0-1.8 1zM166 54.3h.6l.4-.2 1-.3.8-.3a1.5 1.5 0 0 0 .8-.4v-.2a1.5 1.5 0 0 0-1 .2l-.8.3a7.5 7.5 0 0 0-.9.4 3.8 3.8 0 0 0-.4.2l-.4.3c-.2 0 0 0 0 0zm.5-1.5.8-.3.7-.4 1.5-.7a7.3 7.3 0 0 0-1.5.5 7.4 7.4 0 0 0-.8.4l-.7.5zm-.7 2.8a8.5 8.5 0 0 0 2.2-.7l1-.5c.3 0 .8-.2 1-.5a.1.1 0 0 0 0-.2l-1.2.3-1 .4a7.5 7.5 0 0 0-2 1c-.1.1 0 .2 0 .2zM165.7 56.4l2-.8a7 7 0 0 0 1.1-.5c.3-.1.7-.3 1-.7a3 3 0 0 0-1.2.4l-1.2.5c-.6.2-1.5.4-1.7 1zm-.3 1h.3a1.3 1.3 0 0 0 .3 0l.5-.3c.4 0 .7-.3 1-.4a6.4 6.4 0 0 0 2-1.2v-.1a10.3 10.3 0 0 0-2.1.9l-1 .4-.5.3-.3.1s0 .2-.2.2z"/><path d="M165.2 58.2c1-.6 2-1 2.8-1.8a17.2 17.2 0 0 0-3 1.6c-.1 0 0 .3.1.2Z"/><path d="m165 58.7 2-1 1.8-1.2a14.2 14.2 0 0 0-2 .8 9.7 9.7 0 0 0-1.8 1.3s0 .1 0 0z"/><path d="M164.7 59a20 20 0 0 0 2.4-1.2l2.4-1.3a11 11 0 0 0-2.5 1 8.3 8.3 0 0 0-2.3 1.5zM164.6 59.5a8.7 8.7 0 0 1 1.1-.5l1.2-.5a13.9 13.9 0 0 0 2.1-1.2s0-.1 0 0a13.8 13.8 0 0 0-2.3.9 14.8 14.8 0 0 0-2.1 1.2z"/><path d="M156.4 63.9a56 56 0 0 0 6.3-3.2l3.2-1.7c1-.5 2.3-.9 3.2-1.6a26 26 0 0 0-3.3 1.5l-3 1.4a35.3 35.3 0 0 0-6.4 3.5v.1zM156.6 64.3a31.1 31.1 0 0 0 3.4-1.5l3.4-1.6 6.8-3.5-6.9 3.2-3.3 1.5a32.8 32.8 0 0 0-3.5 1.8c-.1 0 0 .2 0 .2zM156.5 64.8a7.7 7.7 0 0 0 2.3-.9l2.4-1 4.8-2.4-5 2-2.2 1-1.2.5a3.6 3.6 0 0 0-1.2.7l.1.1zm.3 1a16.5 16.5 0 0 0 3.1-1.4l3.2-1.6q3.3-1.6 6.4-3.5l-6.6 3-3.2 1.7a18.4 18.4 0 0 0-3 1.6c-.2.1 0 .3 0 .3zM158.8 65.5l8.8-4.6s0-.1 0 0l-8.9 4.5.1.1zm-.3 1a75.3 75.3 0 0 0 8.2-4 39.2 39.2 0 0 0-4.2 1.8l-4 2.3zM161.5 65.8a8.1 8.1 0 0 0 1.6-.7l1.6-.8a27 27 0 0 0 3.1-1.8 14.9 14.9 0 0 0-3.3 1.3l-1.6 1a6.3 6.3 0 0 0-1.4 1zM162.7 66a.4.4 0 0 1-.1 0c-.1.1 0 .3 0 .2a4.4 4.4 0 0 0 1-.5l1-.7 2-1.4a20.5 20.5 0 0 0-2 1l-1 .7a4.1 4.1 0 0 0-1 .8h.2a.6.6 0 0 1 0-.1c0-.1 0-.1 0 0zm17.7-24.4c0 .2.5 0 .6 0l.8-.1 1.6-.4a18 18 0 0 0 3-.8v-.1a23.8 23.8 0 0 0-4 .7l-1 .3-.6.1a1.2 1.2 0 0 0-.4.1c-.2.1 0 .4.1.3z"/><path d="M180.8 42.6c1.2-.4 2.2-1 3.3-1.4l1.8-.7a7.5 7.5 0 0 0 1.6-.7 6.5 6.5 0 0 0-1.7.5l-1.6.6a22.2 22.2 0 0 0-3.4 1.7zm-.1 1.3 1.8-.8 2.2-.8 2-.8a10.6 10.6 0 0 1 2-.8 14.4 14.4 0 0 0-4.2 1.3l-2.2 1a4 4 0 0 0-1.6.8z"/><path d="M181 42.8a.8.8 0 0 1-.2 0v.1l1.8-.7 1.6-.6 1.7-.8a6.2 6.2 0 0 0 1.6-.8s0-.1 0-.1a6.8 6.8 0 0 0-1.7.6l-1.6.8-1.8.7-1.7.7c-.1 0 0 .3.1.2a.8.8 0 0 1 .2 0zm.7 1.5 4.6-2 4.4-1.8v-.1a32 32 0 0 0-4.7 1.8 45.3 45.3 0 0 0-4.3 2zm-.9 1.2 5.2-2.3 2.8-1.1a14.5 14.5 0 0 0 2.6-1v-.3a10.8 10.8 0 0 0-2.8 1l-2.6 1a54.6 54.6 0 0 0-5.3 2.6l.1.2zM181 46.4l6.2-2.9 3.4-1.3 1.5-.6a6.8 6.8 0 0 0 1.5-.6V41a6 6 0 0 0-1.6.4l-1.5.6-3.2 1.3a53.7 53.7 0 0 0-6.3 3.2zM181.8 47.2l6.1-2.9 3-1.4 1.5-.7a4.8 4.8 0 0 0 1.5-.8 4 4 0 0 0-1.3.5l-1.5.7L188 44l-6.2 3.2zM181.4 48.2c2.4-1 4.8-2.3 7.2-3.5l3.8-1.7 1.8-.8a9 9 0 0 0 2-.9 14.7 14.7 0 0 0-3.6 1.3l-3.9 1.7a57.6 57.6 0 0 0-7.3 3.9zM189.3 45.1a4.1 4.1 0 0 0 1-.4l1-.4 2-.9 2-.9 1-.4a6 6 0 0 0 .9-.5 2.7 2.7 0 0 0-1 .2l-1 .3-2 1-2 1-1 .4a5 5 0 0 0-.9.6zm1.4.6L194 44l1.6-.9a10 10 0 0 0 1.7-.8 8.8 8.8 0 0 0-1.6.6l-1.8.9-3.3 1.7zM191.8 45.4l2.8-1.1 1.4-.7.7-.3c.1 0 .4 0 .4-.3l-.5.1-.6.3-1.4.6-2.8 1.4zm1 .9 2.6-1.2 1.3-.6c.3-.1.6-.3.6-.6l-.1-.1a2.5 2.5 0 0 1-.9.6l-1.2.6-2.3 1.3zm1.9-.2 1.7-.8 1.6-.8-1.6.7-1.7.9zm-13.4 3.1 2.7-1.4 1.3-.7a4.3 4.3 0 0 0 1.2-.9v-.1a4 4 0 0 0-1.4.6l-1.3.8-2.5 1.6c-.1 0 0 .2 0 .1zm.6 1.1 1.1-.6 1.1-.7 2.2-1.3c.2-.1.6-.3.7-.6a.5.5 0 0 0-.3-.5c-.5-.1-.6.7-.1.7V47s.2-.1 0 0a.8.8 0 0 0-.2 0l-.7.4-1.4.9-1.3.8-1.3.8c-.2.2 0 .4.2.3zM182.2 50.9a20 20 0 0 0 2.7-1.7l1.3-.9.7-.3a2 2 0 0 0 .7-.4.2.2 0 0 0-.2-.3 1.4 1.4 0 0 0-.6.2l-.7.4-1.4.9a16.2 16.2 0 0 0-2.6 2zM181.2 52.4l2.9-1.9 3-1.7a16 16 0 0 0-3.1 1.5 24.8 24.8 0 0 0-2.9 2zm.3 1.4 3-2.2 1.4-1a14.9 14.9 0 0 0 1.5-1 8.3 8.3 0 0 0-1.5.8l-1.6 1a25 25 0 0 0-2.8 2.4zm.2.7 3-1.8 1.6-.9a8.3 8.3 0 0 0 1.4-.8v-.1a5.6 5.6 0 0 0-1.6.6l-1.6.9a19.4 19.4 0 0 0-2.8 2s0 .1 0 0z"/><path d="m182 55.3 3-2.3 1.5-1a13.4 13.4 0 0 0 1.5-1 12.5 12.5 0 0 0-3.2 1.8 21.4 21.4 0 0 0-2.8 2.4v.1zm-.8 1.1L185 54l1.8-1.2a11.3 11.3 0 0 0 1.8-1.2v-.1a10 10 0 0 0-1.8 1l-2 1.3-3.8 2.5v.1zM182.1 57l-.2.1c0 .1 0 .3.2.2l3.5-2.7 1.8-1.3 1-.6a1.6 1.6 0 0 0 .5-.6 1.7 1.7 0 0 0-.8.3l-.9.6-1.8 1.4A29.3 29.3 0 0 0 182 57l.1.2.2-.3s0-.1-.1 0zM181.4 58.5l4.2-3 2-1.4a21.2 21.2 0 0 0 2.1-1.5 14.6 14.6 0 0 0-2.2 1.3l-2.2 1.4a50 50 0 0 0-4 3.2zm.8.2 4.2-2.7 2-1.4a15.8 15.8 0 0 0 1.9-1.4V53a16.4 16.4 0 0 0-2.2 1.3l-2 1.4-4 2.9zm1.2.4 1.1-.8 1.1-.7 2-1.4 2-1.4a11.2 11.2 0 0 0 2-1.4v-.2a11.5 11.5 0 0 0-2.3 1.4l-2.2 1.6-2.2 1.5-1 .9c-.3.1-.6.2-.6.5a.1.1 0 0 0 .2 0c0-.1-.2 0 0 0zM182 60.7a23.7 23.7 0 0 0 3-1.7 18.5 18.5 0 0 0 2.7-1.8V57a18 18 0 0 0-3 1.6 23.7 23.7 0 0 0-2.7 2zm9-5.6.4-.3.4-.3.4-.4.2-.1a1.6 1.6 0 0 0 .2-.2 1.1 1.1 0 0 0-.2 0l-.3.1a3.7 3.7 0 0 0-.4.4 3.5 3.5 0 0 0-.4.4 3.3 3.3 0 0 0-.3.4zM182.4 61c0-.1-.2 0-.1.2a.1.1 0 0 0 .1.1 1 1 0 0 0 .6-.3l.7-.4 1.4-.8 1.4-.8a7.4 7.4 0 0 0 1.5-.7V58a5 5 0 0 0-1.4.5l-1.5.7-1.4.8-.7.5-.3.2c-.1 0-.4.1-.2.3zm.6 1.3a2 2 0 0 0 .4-.4 3.9 3.9 0 0 1 .6-.4l1.4-.8 1.4-.8a7.2 7.2 0 0 0 1.4-1 7.4 7.4 0 0 0-1.6.7l-1.5.9-1.3.8c-.5.3-.8.5-.8 1z"/><path d="m182.3 63.6-.2.1h.2a1 1 0 0 1 .1-.2 1.1 1.1 0 0 0 .2-.2.2.2 0 0 0 0-.1h-.1a.7.7 0 0 0-.2 0 1 1 0 0 0-.1.2l-.1.1a.1.1 0 0 0 0 .2c0 .1 0 .2.1 0zm-.9-1a6.4 6.4 0 0 0 .8-.3l.8-.5a16.2 16.2 0 0 0 1.6-1 15.2 15.2 0 0 0-1.6.8l-.8.5a5.2 5.2 0 0 0-.8.5z"/><path d="m182.4 63.4-.8.5c-.1.1 0 .3.1.2a14.8 14.8 0 0 0 2-1.2l1.9-1.1 1.8-1.1a7.6 7.6 0 0 0 1.9-1.2s0-.2-.1-.1a7 7 0 0 0-2 1l-1.9 1.1-1.9 1.2a12.1 12.1 0 0 0-1.8 1.2l.2.2.6-.7zm-.4 2a35.3 35.3 0 0 0 3.4-2.4l1.7-1.2a10 10 0 0 0 1.5-1.2 9.5 9.5 0 0 0-1.6 1l-1.8 1.1a24.6 24.6 0 0 0-3.2 2.6zm-.2 1v.2l.5-.2a10.4 10.4 0 0 0 1-.7l2-1.4a37.4 37.4 0 0 0 3.8-3 36.6 36.6 0 0 0-3.8 2.5l-1.9 1.3-.8.7a4.1 4.1 0 0 0-.5.4l-.3.3zM182.8 66.6a32 32 0 0 0 4-2.6l3.8-2.7c-1.4.7-2.8 1.6-4 2.5a30 30 0 0 0-3.8 2.8zm1 .3c.8-.4 1.5-1 2.1-1.4l2-1.3 2-1.4 1-.7a12 12 0 0 0 1-.7s0-.1 0 0a11.5 11.5 0 0 0-1.1.6l-1 .7-2 1.3-2 1.4-1.9 1.5zm1.3.2a41.5 41.5 0 0 0 3.4-2.6A31.9 31.9 0 0 0 192 62v-.1a17 17 0 0 0-3.6 2.3A18.6 18.6 0 0 0 185 67zM186 67zm.3 0a27.2 27.2 0 0 0 3.7-2.3l1.8-1.2.9-.6a2.3 2.3 0 0 0 .6-.6v-.1a2 2 0 0 0-.8.3l-.9.6-1.8 1.3a20.5 20.5 0 0 0-3.4 2.5v.1zM187 67.4a18.6 18.6 0 0 0 2-1.4l2-1.3 2-1.3a16.3 16.3 0 0 0 2-1.3s0-.1 0-.1a12.4 12.4 0 0 0-2 1.2l-2 1.3-2.1 1.4a14.5 14.5 0 0 0-2 1.4h.1zm1.8-.3c2.7-1 4.3-3.6 6.8-5a17.2 17.2 0 0 0-3.3 2.4 24.4 24.4 0 0 1-3.5 2.6v.1zm2.6-1h.2V66h-.1z"/><path d="M190.8 66.8a4.7 4.7 0 0 0 1.7-.9 18.3 18.3 0 0 0 1.5-1.2l1.4-1.2a18.2 18.2 0 0 1 1.5-1.2 7.2 7.2 0 0 0-3 2l-1.6 1.2a11.5 11.5 0 0 0-1.6 1.3z"/><path d="M191.2 67a12.7 12.7 0 0 0 3-2l1.5-1 .8-.6c.2-.2.4-.3.4-.6a.8.8 0 0 0-.6.2l-.8.6-1.5 1.2-2.9 2.1v.1zm1.1.5c.2 0 .4-.2.6-.4l.7-.5 1.5-1 1.3-1.1.7-.5a.8.8 0 0 0 .4-.6.7.7 0 0 0-.6.1l-.7.6-1.4 1-1.4 1.2-.7.5c-.1.2-.4.3-.5.6h.1zM193 67.6l.6-.5.7-.5 1.2-.8 1.2-.8.7-.4c.2 0 .4-.2.4-.4a.8.8 0 0 0-.6.1l-.6.4-1.3.8-1.2 1-.5.4-.3.3-.3.3c-.1 0 0 .1 0 0zm2-.5a.3.3 0 0 1 0 .1c-.2 0-.1.3 0 .3a1.8 1.8 0 0 0 .7-.4l.7-.4.6-.5a3 3 0 0 0 .7-.5s0-.3-.2-.3a2.6 2.6 0 0 0-.7.4l-.7.5-.6.4a2.2 2.2 0 0 0-.6.5h.2zm1.7.4a2 2 0 0 0 .5-.3 1.6 1.6 0 0 0 .3-.2 2.2 2.2 0 0 0 .2-.2s0-.1 0 0a1.7 1.7 0 0 1-.3.2l-.2.1a1.5 1.5 0 0 1-.6.2.1.1 0 0 0 0 .1.1.1 0 0 0 0 .1z"/></g><path d="M96 46.4q4 13.1 7.5 26.4a1.1 1.1 0 0 0 2.2-.6q-3.5-13.3-7.5-26.4c-.5-1.4-2.6-.8-2.2.6Z"/><path d="M97.8 46.9a12.6 12.6 0 0 1 11.9-.9c3.9 1.8 6.2 5.3 7.2 9.4s1 8.4-1.9 11.8a13.8 13.8 0 0 1-4.2 3.2 14.2 14.2 0 0 1-2.4 1 13.9 13.9 0 0 1-1.4.2l-.7.2c-.4-.1-.5 0-.3.4l-.5 1.3.1-.1a1.1 1.1 0 0 0-1.1-2l-.1.1a1.2 1.2 0 0 0-.6 1.3c.4 1.8 2.8 1.2 4 1a17.3 17.3 0 0 0 5-2 14.2 14.2 0 0 0 6.5-7.7c1.3-4.1.3-9-1.4-12.9A14.6 14.6 0 0 0 96.6 45c-1.2.8 0 2.7 1.2 2Z"/><path d="m104.2 53 3.1 12c.3 1.2 2.3 1 2.2-.3l-.1-1.5a1.2 1.2 0 0 0-1.2-1.2 1.1 1.1 0 0 0-1 1.1v1.5l2.3-.3-3.2-12a1.1 1.1 0 0 0-2.1.6Z"/><path d="M105.7 53.6a3.5 3.5 0 0 1 3.7 2 7.7 7.7 0 0 1 1 5.2 4.2 4.2 0 0 1-1 2l-.5.4s.5 0 0 0a1.8 1.8 0 0 0-1 .2 1.2 1.2 0 0 0 .6 2.2 2.4 2.4 0 0 0 1.6-.6 1.1 1.1 0 0 0-.5-1.9c-1.4-.4-2 1.8-.6 2.2l-.5-1.9.5-.3a1.6 1.6 0 0 1-.3.1c-.2 0 .1 0 0 0s-.3 0 0 0l.5.3.3 1-.6.8h-.2.5a2.3 2.3 0 0 0 1.3-.5 5.8 5.8 0 0 0 1.5-2 8.2 8.2 0 0 0 .5-5.4 8.9 8.9 0 0 0-2.5-4.7 5.8 5.8 0 0 0-5-1.3 1.1 1.1 0 0 0-.7 1.4 1.2 1.2 0 0 0 1.4.8zm16.8-6c1 4.4 1.8 9 3.4 13.2 1.3 3.5 3.5 6.7 7 8.3a8.4 8.4 0 0 0 9.6-1.5c2.8-2.8 3.5-7 3.3-10.8l-.8-7c-.3-2.1-.5-4.3-.9-6.4a6.7 6.7 0 0 0-2.7-4.6 4 4 0 0 0-4.6 0c-3.6 2.6-1.8 7.4-1.3 10.9a21.2 21.2 0 0 1 .1 7c-.3 1.3-1.2.5-1.5-.4a22.9 22.9 0 0 1-.7-3.2l-1.5-7.8c-.4-1.7-1-3.5-2.6-4.5a4 4 0 0 0-5 .6 7.2 7.2 0 0 0-1.8 5.8c.1 1.4 2.3 1.5 2.2 0v-1.3c0-1.4-2.2-1.4-2.2 0v1.3h2.2c-.1-1.6.2-3.8 1.8-4.5s2.6.9 3 2.2c1.1 3.6 1.4 7.6 2.2 11.3a4.3 4.3 0 0 0 2.3 3.3 2.6 2.6 0 0 0 3.3-1c.9-1.4.7-3.2.7-4.7a34.3 34.3 0 0 0-.5-5.7c-.3-1.8-1-3.9-.5-5.7.4-1.6 2-2.7 3.4-1.5s1.6 3.4 1.9 5.2l.7 5.9c.5 3.6 1.2 7.6-.2 11.2-1.3 3-4 5.1-7.4 4.4-4-1-6.3-4.4-7.6-8a118.8 118.8 0 0 1-3.1-12.5c-.4-1.4-2.5-.8-2.2.6zm27.4-6.3q2.4 13 4.4 26l2.2-.6-.2-1c-.2-1.4-2.4-.8-2.1.6l.2 1c.2 1.4 2.3.8 2.1-.6q-2-13-4.5-26c-.2-1.4-2.4-.8-2.1.7z"/><path d="M152 40.8v-.2.8c0 .2.5-.1.7-.2a8.4 8.4 0 0 1 1-.3 11.4 11.4 0 0 1 2.4-.5 12.6 12.6 0 0 1 4.5.6 12.8 12.8 0 0 1 7.2 5.7 16.1 16.1 0 0 1 2 9.5c-.2 3.2-1.3 7-4.2 8.8s-6.6 2-10 1.6c-1.3-.3-2 2-.5 2.1 3.7.6 7.7.5 11-1.4 3.8-2.1 5.4-6.1 5.9-10.2 1-8.2-3.5-16.6-12-18.6a14.2 14.2 0 0 0-6.3 0c-1.5.4-4.8 1.3-3.7 3.4.7 1.3 2.6.2 2-1.1zm5.3 8 2.4 11.7c.3 1.3 2.4 1 2.3-.3l-.2-1.4a1.2 1.2 0 0 0-1.1-1.2 1.1 1.1 0 0 0-1.1 1.2l.1 1.4 2.2-.3-2.5-11.7c-.3-1.4-2.4-.8-2.1.6z"/><path d="m158.4 47.6.8.1.3.4V48l.1.5-.3.7h.1l-.5.2c.9-.3 2.2.3 3 .8a4.4 4.4 0 0 1 1.6 3c.3 2.2-.4 4.8-2.5 5.8l1.6.4a1.2 1.2 0 0 0-1.4-.6 1.5 1.5 0 0 0-.5.2s-.4.2-.1.2h.5l.7.5a1.1 1.1 0 0 0-1.5-.4 1.1 1.1 0 0 0-.4 1.5 1.2 1.2 0 0 0 1.4.6 2.4 2.4 0 0 0 .4-.2c.1-.1.4-.2.1-.2h-.5l-.7-.5a1.2 1.2 0 0 0 1.6.4c3.5-1.8 4.5-6.9 2.9-10.2a6.6 6.6 0 0 0-4.3-3.4 3.7 3.7 0 0 0-2.9.1 1.3 1.3 0 0 0 1.1 2.3c1.4-.4.8-2.6-.6-2.2zm19.9-7.6a171.7 171.7 0 0 1 1.5 27.6c0 1.4 2.2 1.4 2.3 0V66c.2-1.4-2-1.4-2.2 0v1.6h2.2a174.3 174.3 0 0 0-1.6-28.2c-.2-1.4-2.4-.8-2.2.6z"/><path d="m179.7 40.6 10-.1h4.7l2.5.2a3.8 3.8 0 0 0 1.9-.1 1.1 1.1 0 0 0 .2-1.8 1.1 1.1 0 0 0-1.9.5 1.5 1.5 0 0 0 .2 1.1 1.1 1.1 0 0 0 1.5.4h.1c1.3-.6.2-2.6-1.1-1.9l1.5.4v.6l-1.9.5.3-1.8c.5-.2-.5-.1-.7-.2h-3.3l-4.6-.2q-4.7 0-9.3.2c-1.5 0-1.5 2.3 0 2.2zm1.4 28.1 17.2 1c1.4.1 1.4-2.2 0-2.2l-17.2-1c-1.5-.1-1.5 2.1 0 2.2z"/><path d="m199.8 68.2.4-5.2a3.9 3.9 0 0 0 0-1.2 1.3 1.3 0 0 0-1.6-1 1.3 1.3 0 0 0-1 1.3 1.2 1.2 0 0 0 1.6 1 1.1 1.1 0 0 0-.6-2h.5l.7.4-.1 1.2-.5.3h-.3l-.5-.2c-.6-.3-.4-1-.4-.5V63.5l-.2 1.5-.3 3a1.1 1.1 0 0 0 1.2 1.2 1.2 1.2 0 0 0 1-1.1zm-2.6-27.6.6 7 2-.9c0-.2.1.3 0 .1v.2a1.3 1.3 0 0 0 0-.2v-.2c0 .1 0 .1 0 0a1.2 1.2 0 0 0-.8-1.4 1.1 1.1 0 0 0-1.3.8 3 3 0 0 0 0 1.9 1.1 1.1 0 0 0 1.5.5 1.2 1.2 0 0 0 .7-1.4 1.1 1.1 0 0 1 0-.2v-.4l-.1-.8-.1-1.7-.2-3.3a1.1 1.1 0 0 0-1.2-1c-.5 0-1.2.4-1.1 1z"/><path d="m189.4 61.9 9.1.5c1.3 0 1.6-2 .3-2.2l-.6-.1a1.1 1.1 0 0 0-.6 2.1l.6.1.3-2.2-9.1-.5a1.1 1.1 0 0 0 0 2.3z"/><path d="M187.4 56.8a23.1 23.1 0 0 0 .5 4.4 1.1 1.1 0 0 0 1.2.8 1.1 1.1 0 0 0 1-1.1V60a1.1 1.1 0 0 0-1.1-1.2 1.1 1.1 0 0 0-1.2 1.2v.8l2.2-.3-.1-1a2 2 0 0 0 0-.3c0 .3 0 0 0 0v-.5l-.2-2a1.1 1.1 0 0 0-1.1-1.1 1.1 1.1 0 0 0-1.1 1.1zm.2-8.8a65.3 65.3 0 0 1 10.8.5 1.1 1.1 0 0 0 1-.9 1.4 1.4 0 0 0-1.3-1.7 1.1 1.1 0 1 0 0 2.2h.1l-.5-.2v.1l-.3-.4v-.7.1l1-.8a65.3 65.3 0 0 0-10.7-.5c-1.4 0-1.5 2.3 0 2.3z"/><path d="m186.2 47.1.3 3.1a1.2 1.2 0 0 0 .3.8 1.2 1.2 0 0 0 .8.3 1.2 1.2 0 0 0 .8-.3 1.1 1.1 0 0 0 .3-.8l-.3-3a1.2 1.2 0 0 0-.3-.9 1.1 1.1 0 0 0-.8-.3 1.1 1.1 0 0 0-.8.4 1 1 0 0 0-.3.7Z"/><path d="m189.2 57.7 4.3-.5a1.2 1.2 0 0 0 1.2-1.1 15.6 15.6 0 0 0-.9-5.1 1.2 1.2 0 0 0-1.4-.8l-.6.1c.2 0 0 0 0 0h-.3a10.3 10.3 0 0 1-1.3 0h-1a5.4 5.4 0 0 1-.5-.1h-.4s.4.2.3 0l.2.5v.5l-.5.6-.2.1h-.6c.2 0 .1 0-.3-.2l-.3-.5v-.5l.5-.7a1.1 1.1 0 0 0 1.1 2 1.2 1.2 0 0 0 .3-2 1.2 1.2 0 1 0-1.8 1.8 2.3 2.3 0 0 0 1.2.5 11.5 11.5 0 0 0 4.9 0l-1.4-.8a14.2 14.2 0 0 1 .6 2.4v.2c0 .1 0 0 0 0v2l1.2-1.1-4.3.5a1.1 1.1 0 0 0-1.2 1 1.1 1.1 0 0 0 1.1 1.2z"/></svg>