<svg xmlns="http://www.w3.org/2000/svg" viewBox="0 0 694.9 386.9"><g fill="#444"><path d="M3 5h285a2 2 0 0 0 0-3H3a2 2 0 0 0 0 3z"/><path d="M5 13V3a2 2 0 0 0-2-1 2 2 0 0 0-1 1v10a2 2 0 0 0 3 0Z"/><path d="m153 199-4-5-11-14-16-20-19-24-22-27-21-27-20-26-17-21-13-16-6-7c-1-2-3 0-2 2l4 5 11 14 16 20 19 24 22 27 22 27 20 26 17 21 12 16 6 7c1 2 3 0 2-2z"/><path d="m4 372 4-4 11-13 16-18 20-23 21-24 22-25 20-23 17-20 12-14 6-6v-1c1-1-1-3-2-2l-4 5-11 12-16 19-19 22-22 25-21 24-21 24-17 19-12 14-6 7c-1 2 1 4 2 2z"/><path d="M5 384v-13a2 2 0 0 0-3 0v13a2 2 0 0 0 3 0Z"/><path d="M300 380h-62l-39 1h-85l-41 1H3a2 2 0 0 0 0 3h100l43-1h43l40-1h71a2 2 0 0 0 0-3z"/><path d="m312 267-1 12-4 27-4 33-3 28-1 10-1 4c0 2 3 2 3 0l2-11 3-27 4-33 3-29 1-9 1-4v-1c0-2-3-1-3 0z"/><path d="m303 267 9 2h1a2 2 0 0 0 2-1 2 2 0 0 0-1-2l-9-2h-1a2 2 0 0 0-2 1 2 2 0 0 0 1 2zM69 331l3-5 10-11 14-16 17-21 19-22 19-22 18-21 15-18 11-13 5-6c1-2-1-4-2-2l-4 4-9 11-14 17-18 20-18 22-19 23-18 21-15 17-11 13-5 6c-2 2 1 4 2 2z"/><path d="m82 26 3 4 8 11 13 16 15 20 17 22 17 21 15 20 14 18 9 12 5 6c1 1 3-1 2-2l-3-4-9-11-12-16-15-20-17-21-17-22-15-20-14-17-9-13-5-5v-1c-1-1-3 1-2 2zm216 72-1-10-2-22-3-28-2-23-1-12c0-2-3-2-3 0l1 10 2 22 3 27 2 24 1 12c0 2 3 2 3 0z"/><path d="m287 98 7 1h1a2 2 0 0 0 2-1 2 2 0 0 0-2-2h-7l-1-1a2 2 0 0 0-2 2 2 2 0 0 0 2 2zm69 287 4-11 13-27 18-41 22-50 24-55 24-55 23-52 19-43 13-32 7-14V4c1-2-2-3-2-1l-5 10-12 27-18 41-22 50-24 55-24 55-23 52-19 43-14 32-6 14-1 1c0 2 2 3 3 2zm338-1-5-11-11-27-17-41-21-50-22-55-23-55-22-52-18-43-13-32-6-15c-1-2-4-1-3 1l4 10 12 28 17 41 20 49 23 55 23 55 21 52 18 44 13 31 7 15c1 2 3 1 3 0z"/><path d="M522 5h13a2 2 0 0 0 0-3h-13a2 2 0 0 0 0 3zM355 385h337a2 2 0 0 0 0-3H355a2 2 0 0 0 0 3zm38-24h233a2 2 0 0 0 0-3H393a2 2 0 0 0 0 3z"/><path d="m513 86-3 7-9 20-13 30-16 36-18 39-17 39-17 37-14 32-10 22-4 11h-1c0 2 2 3 3 2l3-8 9-20 13-29 16-36 18-39 17-40 17-37 14-31 10-22 4-11h1c0-2-2-4-3-2z"/><path d="m627 359-3-7-8-20-12-29-15-36-16-39-16-40-15-37-13-31-9-22-4-11v-1c-1-1-4-1-3 1l3 8 8 19 12 30 15 36 16 39 16 40 15 37 13 31 9 22 4 11c1 2 4 1 3-1zM84 26l50 1 51 2c17 0 34 0 50 3 13 2 27 5 35 15 5 5 8 12 10 19a182 182 0 0 1 4 24l1 6c0 2 3 2 3 0a195 195 0 0 0-4-25c-2-7-4-14-8-21-7-11-20-17-33-20-16-3-32-4-49-4l-52-1-52-2h-6c-2 0-2 3 0 3zM68 331h57l56 1c19 0 38 1 56-2 16-2 31-8 43-18s18-25 23-40l1-5c0-2-2-3-3-1-3 15-9 29-20 40s-25 17-40 20c-18 4-37 3-55 3l-55-1H68a2 2 0 0 0 0 3z"/></g><g fill="#e5e5e5"><path d="m7 13-2-2v-1a5 5 0 0 0 2 5 3 3 0 0 0 2 0 3 3 0 0 0 2 0 3 3 0 0 0 0-4l-1-2a3 3 0 0 0-2-1 3 3 0 0 0-1 0 3 3 0 0 0-2 4 8 8 0 0 0 3 4 3 3 0 0 0 4 0 3 3 0 0 0 0-4l-1-2v1a17 17 0 0 1-1-4v1-1L5 9a20 20 0 0 0 3 3 18 18 0 0 0 5 2 8 8 0 0 0 2 1 4 4 0 0 0 4-3 4 4 0 0 0-1-2 4 4 0 0 0-2-2l-2-1 1 1a30 30 0 0 1-6-4 3 3 0 0 0-2 0 3 3 0 0 0-2 0 3 3 0 0 0-1 4l1 3a27 27 0 0 0 2 4l4-4c-1 0 0 1 0 0l-1-1 1 1a3 3 0 0 1-1-1l-4 3 1 2 3-5h1c0 1 0 0 0 0v1a2 2 0 0 1 0-1v1a4 4 0 0 0 0-1 5 5 0 0 0 0-1 3 3 0 0 0-3-2 3 3 0 0 0-2 0 3 3 0 0 0 1 6z"/><path d="M5 10a5 5 0 0 0 1 1 2 2 0 0 0 1 2 2 2 0 0 0 3-1 2 2 0 0 0 0-2 4 4 0 0 0-1-1 6 6 0 0 0-1-1 7 7 0 0 0 0-1l1 2a3 3 0 0 0-1-2 2 2 0 0 0-1 0 2 2 0 0 0-1 0 3 3 0 0 0-1 0 3 3 0 0 0-1 1 3 3 0 0 0-1 2 6 6 0 0 0 1 1 6 6 0 0 0 1 3h1v1h1a2 2 0 0 0 1-1 2 2 0 0 0 1 0 1 1 0 0 0 0-1 2 2 0 0 0 1 0 2 2 0 0 0 0-1V9a2 2 0 0 0 0-1 2 2 0 0 0-1-1 2 2 0 0 0-2-1 2 2 0 0 0-2 1 3 3 0 0 0-1 1 25 25 0 0 0 0 3 8 8 0 0 0 0 2 3 3 0 0 0 0 1 3 3 0 0 0 1 1 3 3 0 0 0 1 1 2 2 0 0 0 1 0 3 3 0 0 0 2-1 3 3 0 0 0 1-2 8 8 0 0 0 0-1 7 7 0 0 0 0-1V9v2a1 1 0 0 1 0-1v1a4 4 0 0 0 0-2 3 3 0 0 0 0-1V7H9V6a6 6 0 0 0-1 0 4 4 0 0 0-2 0 5 5 0 0 0-1 0L4 7 3 8a2 2 0 0 0 0 1v1a10 10 0 0 0 0 1 10 10 0 0 1 1 2v-2a1 1 0 0 1 0 1l6 1v-2 1a11 11 0 0 1 0-3H4v3l5-2a4 4 0 0 1 0-1v1a3 3 0 0 1 0-1v1a3 3 0 0 1 0-1v1a3 3 0 0 0 0-2H8a6 6 0 0 0 0-1v5H5a3 3 0 0 1 1 0l4-2-1-1a1 1 0 0 0-1-1 2 2 0 0 0-3 2z"/><path d="M10 9a9 9 0 0 0 2 2 25 25 0 0 0 3 0 29 29 0 0 0 6 1 4 4 0 0 0 1-7A24 24 0 0 0 9 4c-5 1-4 8 1 8h65l66 1 18 1h2c-1 0 0 0 0 0a7 7 0 0 0 3 0 5 5 0 0 0 4-5 4 4 0 0 0-6-4 4 4 0 0 0-3 5c1 4 6 4 7 0l-1 3h-3l-2-1h1l-1-2v1-3 1l1-2c1-2 3-1 2-1a15 15 0 0 0-2 0h-2l-4-1h-22l-30-1-59-1-34 1 1 8a16 16 0 0 1 9 0l1-8-5 1h-3a10 10 0 0 0-3 0 2 2 0 0 0-1 4z"/><path d="M136 8a8 8 0 0 0 2 2 10 10 0 0 0 4 1h8l14 1h86l16 1 17-1a5 5 0 1 0 0-10l-58 1h-81a26 26 0 0 0-4 0 6 6 0 0 0-4 2 2 2 0 0 0 0 2z"/><path d="m282 10 3 33 1 16 1 17 1 9 1 4a25 25 0 0 0 0 6 4 4 0 0 0 5 2c2 0 3-2 3-3a19 19 0 0 0 0-4l-1-5-1-8-1-16-3-16-1-16-2-19a3 3 0 0 0-3-2 3 3 0 0 0-3 2z"/><path d="M288 93a6 6 0 0 0-1 1l5 1V76a101 101 0 0 0-4-19c-3-11-8-22-18-29a45 45 0 0 0-9-5l-4-1h-1c0-1-2-1 0 0l-2-1a7 7 0 0 0-10 3 7 7 0 0 0 0 5 7 7 0 0 0 4 5l8 2 4 1c-2 0-1 0 0 0l2 1a57 57 0 0 1 6 4l1 1s-1-1 0 0l1 1a36 36 0 0 1 3 2 29 29 0 0 1 1 2c1 1 1 1 0 0a7 7 0 0 1 1 2l2 2a38 38 0 0 1 1 1c0 1 0 1 0 0v1l1 4 4 17 2 10 2 5v5a2 2 0 0 0 3 2 2 2 0 0 0 2-3 7 7 0 0 0-1-1c0-2-3-2-3 0zM144 16l-4 2 4-2z"/><path d="M80 22c2 2 5 3 9 3h58l33 2 33 2 19 2 9 1h5l2 1a10 10 0 0 0 3-1c3-1 4-5 1-7a18 18 0 0 0-2-1 12 12 0 0 0-3 0l-4-1h-9l-16-2-33-2-33-2h-17l-16-1H86a21 21 0 0 0-5 1 3 3 0 0 0-1 5z"/><path d="M82 18a16 16 0 0 1 2 1 13 13 0 0 0 2 0 34 34 0 0 0 5 1h19l10 1 37 1 38 2 19 1h19l21 1 11 1 10 1a10 10 0 0 0 10-9 9 9 0 0 0-1-6c-1-2-4-4-6-4-7-2-14-2-21-2l-19-1H125l-11 1-7 1s-1 0 0 0h-4l-10 2a34 34 0 0 0-6 1l-5 2a3 3 0 0 0-2 3 3 3 0 0 0 2 2z"/><path d="M264 21a4 4 0 0 0-1 4 8 8 0 0 0 2 4v-1c1 1 0 0 0 0a8 8 0 0 0 1 3 15 15 0 0 0 2 2h1-1l1 1 1 2 3 6 2 3a13 13 0 0 0 2 3l4 3-3-2a7 7 0 0 0 5 2 8 8 0 0 0 5-2c3-2 3-6 2-9l1-8v-8a18 18 0 0 0-1-4 15 15 0 0 0-2-3 10 10 0 0 0-6-4 8 8 0 0 0-7 1 9 9 0 0 0-3 7c0 4 2 6 4 8l-1-1a20 20 0 0 1 1 3v-2l1 8 1 2c0 1 0 0 0 0a4 4 0 0 1 0 1 11 11 0 0 0 0 2v-2h1l3-2h-1l9 5-1-1 1 2v-1l-1 2a9 9 0 0 0 0-6l-1-2-2-4a44 44 0 0 0-5-7l-9-6h-4s1 1 0 0a4 4 0 0 0-4 1zM7 18l6 5 7 6 5-8a39 39 0 0 0-6-3 4 4 0 0 0-5 2 4 4 0 0 0 1 5v1h1a21 21 0 0 0 1 3 34 34 0 0 0 3 3 4 4 0 0 0 7-6 25 25 0 0 0-9-9 5 5 0 0 0-6 8l18 17a5 5 0 0 0 7 0c2-1 3-4 1-6a17 17 0 0 0-10-8 5 5 0 0 0-6 3 5 5 0 0 0 1 6l1 1c-1-1 0 0 0 0a38 38 0 0 0 1 1l2 4 5 6 11 14 21 26 10 12 5 7 3 3 1 1 1 1s1 1 0 0l9 13a103 103 0 0 0 9 12l5 6 6 5 2 3 2 1v1s1 1 0 0a55 55 0 0 1 5 6l7-5-1-1-1-1-1-2-4-5-3-6a6 6 0 0 0-5-2 4 4 0 0 0-3 1 6 6 0 0 0-1 1 6 6 0 0 0 0 4 3 3 0 0 0 0 2l1 1 4 5 2 2 2 3 3 4c2 2 5 2 6 1a5 5 0 0 0 2-6 73 73 0 0 0-9-12l-1-1a10 10 0 0 0 0-1h-1v-1l-1-2a66 66 0 0 0-5-6 227 227 0 0 1-6-6v-1c-1-1 0 0 0 0l-1-1-2-2-8-13-21-26-20-26-12-14-6-7-3-3a22 22 0 0 0-2-2l-1-1c1 1 0 0 0 0l-6 7h1c1 1-1 0 0 0a10 10 0 0 1 2 1s-1 0 0 0v1l1 1c1 0-1-1 0 0l8-7-18-16-6 8a21 21 0 0 1 2 1l1 1h1a23 23 0 0 1 1 2h1a10 10 0 0 0 0 1l7-5a34 34 0 0 1-3-3l-1-2-1-1-6 5a40 40 0 0 0 6 4 5 5 0 0 0 6-1 5 5 0 0 0-1-6l-6-6-7-6c-2-1-5 0-6 2a5 5 0 0 0 0 6z"/><path d="M14 23c3 2 7 2 11 2h7l15-1 30 1c6 0 11-5 10-10A10 10 0 0 0 77 5H21a22 22 0 0 0-4 1 13 13 0 0 0-5 3c-2 1-3 5-3 7a9 9 0 0 0 5 7z"/><path d="M73 27a13 13 0 0 0 1 4l1 1 2 4 2 3 2 4 9 14 19 27 12 16c3 2 6 2 9 1a6 6 0 0 0 1-9l-9-13-9-14-10-13-9-13-4-5-1-2c0 1 0 1 0 0l-1-1-2-3a31 31 0 0 0-3-5 6 6 0 0 0-7-1c-1 1-3 3-3 5z"/><path d="m111 79 2 2v2l1 1v-1a9 9 0 0 0 0 1l1 3a22 22 0 0 0 2 3 214 214 0 0 0 20 29l15 20 16 19 8 11 5 5c2 2 3 6 6 6a6 6 0 0 0 6-1 6 6 0 0 0 2-5c0-3-2-5-4-8l-4-5-4-4-2-3-1-1s-1-2 0 0l-14-20-28-39-10-11a30 30 0 0 0-5-6c1 1 0 0 0 0l-1-2-3-2a5 5 0 0 0-6-1 5 5 0 0 0-2 7zm13 84c-1-1 0-1 0 0v1a20 20 0 0 0 1 2 21 21 0 0 0 1 2l5 6 7 9 8 9 4 5h1l1 1 1 3a5 5 0 1 0 8-6h-1c-1-2-5-1-6 1h-1 8c-4-7-10-13-15-19l-4-5-2-2s0-1 0 0l-1-1v-1l-3-3v-1l-1-1a24 24 0 0 0-3-3l-1-1q1 1 0 0l-1-1a4 4 0 0 0-5-1c-2 2-2 4-1 6zM21 28c1 5 7 7 11 8l4 2a29 29 0 0 0 5 1 45 45 0 0 0 11 1l12-2h-3a29 29 0 0 1 6 0h-2a6 6 0 0 1 1 0l-3-1a3 3 0 0 1 1 0c4 3 11 1 14-3a10 10 0 0 0-4-14c-3-2-7-2-10-2l-9 1h2a65 65 0 0 1-8 1 86 86 0 0 1-9-1h-8a27 27 0 0 0-4 1 12 12 0 0 0-3 1 7 7 0 0 0-4 7z"/><path d="M33 42v1l-2-3c1 4 5 7 9 10l7 5-2-2a117 117 0 0 1 15 15l14 16-2-2c11 14 21 29 30 43l29 44 8 12 5 6 3 4a21 21 0 0 0 3 3l12-15h-1l-2-1a7 7 0 0 0-4-1 9 9 0 0 0-6 3 12 12 0 0 0-2 4 10 10 0 0 0 1 8 10 10 0 0 0 6 5 10 10 0 0 0 11-14l-6-8 2 2c-15-19-28-39-41-60-13-20-26-41-42-59a158 158 0 0 0-15-15 89 89 0 0 0-9-8 48 48 0 0 0-5-2 20 20 0 0 0-4-2h-1a12 12 0 0 0-6 0l3-1a12 12 0 0 0-5 1 17 17 0 0 0-1 1l3-1a7 7 0 0 0-6 4c-2 3-1 5 1 7z"/><path d="M55 29a8 8 0 0 0-1 6 22 22 0 0 0 2 3l-1-2v-4a11 11 0 0 0 0 6c0 3 2 4 3 6l4 5 8 8 15 18-2-2 19 27 22 28 11 15-1-2c11 14 21 30 31 46l12-15h-1a11 11 0 0 0-6 0 9 9 0 0 0-5 5 10 10 0 0 0 2 11v1c3 3 9 3 13 0s5-8 2-12a663 663 0 0 0-45-63l-12-16 1 2-10-14-10-15c-7-11-16-20-24-30l-7-7-3-4a12 12 0 0 0-5-4 11 11 0 0 0-6 0h4-1l2 1a9 9 0 0 0-5-2 8 8 0 0 0-6 4z"/><path d="M191 172a35 35 0 0 0-2 2l-2 2 1-1-2 1a7 7 0 0 0-1 1 8 8 0 0 0-2 2 4 4 0 0 0 2 5 5 5 0 0 0 3 1 7 7 0 0 0 2-1 43 43 0 0 0 4-3l1-1a16 16 0 0 0 2-2l1-1a3 3 0 0 0 0-2 4 4 0 0 0-1-3 5 5 0 0 0-2-1 4 4 0 0 0-3 1zM9 375a12 12 0 0 0 2-2c2-4-2-7-5-5l-2 1c-3 3 1 8 5 6l14-13 15-16a4 4 0 0 0 0-5c-1-1-3-2-5-1a54 54 0 0 0-6 5l-4 4c-2 1-3 2-2 4a4 4 0 0 0 4 2 13 13 0 0 0 5-2l5-4 8-8 15-16 15-17 14-17 5-5a47 47 0 0 0 4-5c2-4-1-8-5-7a5 5 0 0 0-3 4 4 4 0 0 0 3 4 4 4 0 0 0 5-3 4 4 0 0 0-3-5l1 7-2 1-3-1-1-3 1-3-13 15-13 14-13 15-13 14-7 8-4 4a78 78 0 0 0-2 2v1c-1 0-1 0 0 0h-1l4 6 5-3a55 55 0 0 0 6-5l-6-5-14 15c-4 5-8 10-13 13l5 6 1-1-6-5a12 12 0 0 0-1 3c-1 3 3 6 5 3z"/><path d="M86 276a8 8 0 0 0-2 3 4 4 0 0 0 7 4l7-7 7-6 13-15 14-14 13-14 14-17a8 8 0 0 0 2-5 7 7 0 0 0-2-5c-2-2-7-3-10 0l-3 4-1 2-1 1-1 1-6 8-12 15-13 15-13 14-7 9-6 9 6 3s0-1 0 0v-1c1-1 1-3-1-4a4 4 0 0 0-5 0z"/><path d="M157 209a7 7 0 0 0 3-1 26 26 0 0 0 3-2 27 27 0 0 0 3-1l2-2c1-1 0 0 0 0a110 110 0 0 0 12-10 9 9 0 0 0 1-11c-3-4-8-5-12-3-5 4-9 8-11 14a9 9 0 0 0 1 7 9 9 0 0 0 5 4c5 1 10-1 11-6a38 38 0 0 0 1-4l-1 4 1-3 1-1 4-4 3-4 1-1c2-1 0 0 0 0a16 16 0 0 1 3-1l-11-8v2-1 1a22 22 0 0 1-2 3 7 7 0 0 0-1 5 7 7 0 0 0 2 4c3 2 7 2 9-1a29 29 0 0 0 6-9 7 7 0 0 0-3-8c-2-2-5-1-7 0-4 1-7 5-10 8l-4 4-2 2v1-1 1h-1 2a27 27 0 0 0-4 1l12 12a41 41 0 0 1 3-4l-1 1a23 23 0 0 1 4-4l-2 2v-1l-10-13a65 65 0 0 0-9 12 41 41 0 0 0-4 7 16 16 0 0 0-1 3v4a3 3 0 0 0 3 2zM64 325a12 12 0 0 0-2 4v1a12 12 0 0 1 2-5c1 0 0 0 0 0z"/><path d="M60 333c2 0 3 0 5-2l3-3 6-7 13-14 6-8 6-6a251 251 0 0 0 25-29l2-2v-1h1l3-4 6-7 23-29 14-17 13-17-10-7-4 6-1 1c-1 1 0 0 0 0l-3 3a85 85 0 0 1-5 5l-2 3a9 9 0 0 0-3 6l1-3a9 9 0 0 0-1 4 9 9 0 0 0 0 2l3 2h1a5 5 0 0 0 3 0h-1l5-1a47 47 0 0 0 5-4 89 89 0 0 0 13-18 7 7 0 0 0-1-8c-3-2-7-2-9 0l-6 9-2 2c-1 1 0 0 0 0l-1 1-3 3-12 15-23 29-12 15-12 14-13 16-5 7-3 4v1h-1l-1 2-14 16-7 9-3 4a9 9 0 0 0-2 3 7 7 0 0 0 0 3c0 1 1 2 3 2z"/><path d="M59 320a6 6 0 0 0-4 2 11 11 0 0 0-1 2 17 17 0 0 0-2 3l-2 5a6 6 0 0 0 1 5 6 6 0 0 0 3 2 6 6 0 0 0 7-2 29 29 0 0 0 2-4l1-4v2l1-4a6 6 0 0 0 1-4 5 5 0 0 0-1-3 5 5 0 0 0-7-1l-5 6 1-1-2 3-1 1-2 3 1-1a25 25 0 0 0-2 2 7 7 0 0 0 0 7l10-6v2-6a1 1 0 0 0 0-1 6 6 0 0 0-2 1h-2l-3 2h4a6 6 0 0 0-5 0 6 6 0 0 0-3 4 6 6 0 0 0 1 4 6 6 0 0 0 4 3 7 7 0 0 0 6-2 17 17 0 0 0 2-3l2-3a25 25 0 0 0 2-4l1-4v2a1 1 0 0 1 0-1l-1 1-1 1a1 1 0 0 1 1 0l-8-8-2 5-2 3a25 25 0 0 0-2 3l12 3 1-5a17 17 0 0 0 1-4 7 7 0 0 0 0-2 5 5 0 0 0-5-4z"/><path d="M63 318c-3 0-5 2-7 3a42 42 0 0 0-5 5 31 31 0 0 0-4 6c-1 3-3 8 0 11l-2-5c0 2 0 4 2 6s3 0 5 0h-4c3 2 7-1 10-4a24 24 0 0 0 4-7 31 31 0 0 0 2-4 28 28 0 0 0 1-4c0-2 0-6-2-7zM4 378v1l5 2v-1a45 45 0 0 1 1-4l-1 1a4 4 0 0 0 1-1 4 4 0 0 0 0-3 3 3 0 0 0-2-2 3 3 0 0 0-2 0 3 3 0 0 0-1 1 4 4 0 0 0-1 1 13 13 0 0 0-1 6 4 4 0 0 0 1 3 4 4 0 0 0 2 1 4 4 0 0 0 3-1 4 4 0 0 0 1-3v-4 1-1l-6-1v1a4 4 0 0 0 0 2v-3a50 50 0 0 0-1 7 3 3 0 0 0 2 3 4 4 0 0 0 2 0 3 3 0 0 0 2-2v-1a3 3 0 0 0 0-2 3 3 0 0 0-1-2 3 3 0 0 0-4 1z"/><path d="M58 339h1a4 4 0 0 0 1 1 5 5 0 0 0 3 1l-1-1a2 2 0 0 1 0 1l-2-1a2 2 0 0 1 1 0l-2-1-1-1v-2 1a4 4 0 0 0 1 2 3 3 0 0 0 1 1 17 17 0 0 0 2 2h1a3 3 0 0 0 1 1 3 3 0 0 0 2 0 4 4 0 0 0 2 0h1a13 13 0 0 0 2-1 3 3 0 0 0 1 0 3 3 0 0 0 1-1 3 3 0 0 0 1-2 5 5 0 0 0 0-2 4 4 0 0 0 0-2 4 4 0 0 0 0-1 6 6 0 0 0-2-3l-4-3 4 5a8 8 0 0 0-1-2l-1-2-1-1a7 7 0 0 0-1 0 14 14 0 0 0-2-1 10 10 0 0 0-2 0h-2a7 7 0 0 0-1 0l-1 1h-1a3 3 0 0 0-1 1 4 4 0 0 0-1 2 2 2 0 0 0-1 1v2a5 5 0 0 0 1 2 5 5 0 0 0 1 3z"/><path d="M66 336a10 10 0 0 0 3 2 10 10 0 0 0 3 0l6 1h10l21-1h42l43 1h42a121 121 0 0 0 12-1h1l1-1h6l4-1 11-3 5-2a10 10 0 0 0 4-2 8 8 0 0 0 2-3 4 4 0 0 0-1-4 18 18 0 0 0-2-1h-5l-5 1-10 3-10 3a46 46 0 0 1-4 1h-5a175 175 0 0 1-20 1h-21l-85-1-23 1H73a18 18 0 0 0-4 0 4 4 0 0 0-2 1v1h-1a3 3 0 0 0 0 4z"/><path d="M239 334a42 42 0 0 0 13 0 63 63 0 0 0 12-4 76 76 0 0 0 21-13 81 81 0 0 0 10-10 4 4 0 0 0 0-5 4 4 0 0 0-5 0l-2 2a12 12 0 0 1-2 2l5 5c5-5 9-12 12-19a170 170 0 0 0 8-22 4 4 0 0 0-3-5 4 4 0 0 0-5 3l-4 10v1l-1 1-1 3-2 5-10 20c-1 1 0 4 2 4a4 4 0 0 0 4-1 12 12 0 0 1 2-2l2-2-5-5a78 78 0 0 1-9 8v1h-2l-2 2-5 3a81 81 0 0 1-10 6h-2l-3 2-6 1-6 2-6 2c-3 1-2 5 0 5zM9 383l41 1h83l42-1h23l23-1a5 5 0 0 0 0-9l-41 1-42 1-41 1-21 1-10-1H9a3 3 0 1 0 0 7z"/><path d="M221 377c0 2 3 3 4 4a25 25 0 0 0 6 1 43 43 0 0 0 6 0l3-1a26 26 0 0 0 3 0 39 39 0 0 1 5-1h17a4 4 0 0 0 3-3l-2-4a62 62 0 0 0-12 0h-6a43 43 0 0 1-5 1l-3-1h-8a50 50 0 0 0-6 1c-2 0-5 1-5 3z"/><path d="m248 381 7 1 6 1a108 108 0 0 0 12-1 106 106 0 0 1 12-1h5a54 54 0 0 0 7 1 4 4 0 0 0 1-8 24 24 0 0 0-7-1 76 76 0 0 0-6 0l-12 1-12 1h-12a3 3 0 0 0-1 6z"/><path d="M298 375a6 6 0 0 0 1-3v-2l1-5h-6a17 17 0 0 1 1 3 19 19 0 0 1 0 5l5-1a25 25 0 0 1 0-4v-4l1-8a159 159 0 0 1 2-16l-6-1v13h5l5-32a27 27 0 0 0 0-4 28 28 0 0 1 0-4l1-8 1-8 2-9 2-18c0-3-5-4-5-1l-3 17v8l-2 8-1 8-1 4-1 4-1 9-1 8a175 175 0 0 0-1 18c0 4 5 4 5 0l1-13a3 3 0 0 0-3-3 3 3 0 0 0-3 3l-2 17v16a3 3 0 0 0 2 3 3 3 0 0 0 3-2 17 17 0 0 0 0-10c-1-3-5-3-6 0a36 36 0 0 0-1 6v3a6 6 0 0 0 1 3 2 2 0 0 0 4 0z"/><path d="M18 379c-1 0 0 0 0 0a14 14 0 0 0 3-1 16 16 0 0 0 3-3l5-4 8-7 8-7 1-2c-2 2 1 0 1 0a26 26 0 0 1 5-3l-2 1a23 23 0 0 1 5-1h-2 47l47 1c32 0 64-2 95-4l27-2 13-1 6-1a23 23 0 0 0 6-1 14 14 0 0 0 5-4c3-3 3-10-2-12a15 15 0 0 0-5-3 17 17 0 0 0-5 1h-7l-14 2-29 1-58 3H77l-14 1-15 3a43 43 0 0 0-14 8l-9 9-11 10-2 2a11 11 0 0 0-2 4v1c-2 2-2 6 1 8a7 7 0 0 0 7 1z"/><path d="M278 334c2 2 5 2 7 1a11 11 0 0 0 5-3l1-2-1 1a17 17 0 0 0 4-3l-2 2a16 16 0 0 0 3-3 31 31 0 0 0 2-2l1-3a60 60 0 0 0 4-5 33 33 0 0 0 3-7 25 25 0 0 0 0-3v-7a10 10 0 0 0-4-3 9 9 0 0 0-11 2l-2 3-3 5-3 5-1 3a22 22 0 0 0-2 5l1-2-1 2a12 12 0 0 0-1 4l1-4-3 6c0 3 0 6 2 8l-1-3a7 7 0 0 0 1 3z"/><path d="M299 302a10 10 0 0 1 1-1l2-2 2-4 4-9-7-3a58 58 0 0 0-1 8 75 75 0 0 0 0 8 55 55 0 0 1-2 14l-3 16-3 7-1 7a5 5 0 0 0 6 5c5-2 5-8 6-12l3-13a94 94 0 0 0 3-31 47 47 0 0 1 0-4 24 24 0 0 1 0-3c0-2-1-4-3-5a4 4 0 0 0-5 3l-3 9a21 21 0 0 0-1 5 20 20 0 0 0 0 2 13 13 0 0 1 1 3h1z"/><path d="M289 327c-2 2-2 5-3 8a53 53 0 0 0-1 10v14a9 9 0 0 0 3 5l5 3-4-4v1a5 5 0 0 0 4 3 5 5 0 0 0 5-2v-1l-2 2a8 8 0 0 0 5-4 11 11 0 0 0 0-4v2a12 12 0 0 0 0-5v3-12a44 44 0 0 0-1-5l-2-7-1-4a12 12 0 0 0-1-2 15 15 0 0 0-2-2c-1-2-4-1-5 1z"/><path d="M289 363c-2 1-3 3-3 5l-1 2c-1 2 0 0 0 0v1a12 12 0 0 0-1 1 6 6 0 0 0 4 7 6 6 0 0 0 6-4l1-8-1-7c-3-4-8-5-11-2a7 7 0 0 0-2 3c0 3 0 5 2 7s5 2 7 1c3-2 3-6 4-9l1-8a15 15 0 0 0 1-6 15 15 0 0 0-1-2 8 8 0 0 0 0-1c-1-1 0 1 0 0a5 5 0 0 0 0-1v1-3a7 7 0 0 0-3-6c-1-2-4-3-6-2s-3 3-4 6v-1a5 5 0 0 0 0 2 4 4 0 0 0 0 1v2a8 8 0 0 0 0 1 13 13 0 0 0 1 4v2q0-1 0 0a5 5 0 0 1 0 1 52 52 0 0 1 0 6l-1 4v2a4 4 0 0 1 2-3l7 1a4 4 0 0 1 0 5q-4 4-7 0c1 1 0-1 0 0v2a28 28 0 0 1 0 3c0 1 0 1 0 0v1a16 16 0 0 0 0 3h11a7 7 0 0 0-1-3v1-3l-2-5a3 3 0 0 0-3-1z"/><path d="m285 345-2-1 3 1a14 14 0 0 0-6-1h-1a35 35 0 0 0-4 0h-19l-26 1-52 1-52 1-52-1c-9-1-18-1-26 2a51 51 0 0 0-22 12 42 42 0 0 0-3 4c-2 2-3 4-3 7a10 10 0 0 0 3 7 10 10 0 0 0 7 3c2 0 5-1 7-3a41 41 0 0 1 7-7l-2 2a42 42 0 0 1 9-6l-3 1a44 44 0 0 1 11-3l-2 1 20-1 22 1 44 1 87-2 24-1 12-1h15-3a31 31 0 0 0 5-1 40 40 0 0 0 4-1l-2 1v-1a10 10 0 0 0 5-3 8 8 0 0 0 1-5 9 9 0 0 0-6-8z"/><path d="M27 374v1l-1-2v1a5 5 0 0 0 4 3 22 22 0 0 1 2 1 20 20 0 0 0 4 1h18l23-2 48-2 96-3h40a95 95 0 0 1 12 1l-3-1a21 21 0 0 1 5 2l-2-1a14 14 0 0 1 3 1v-17a25 25 0 0 1-1 1l2-1a23 23 0 0 1-6 1h3a23 23 0 0 1-6 0h3-1l-7 1a10 10 0 0 0-4 14c1 2 3 4 6 4a42 42 0 0 0 6 1 36 36 0 0 0 6-1 31 31 0 0 0 9-3c3-1 5-5 5-8a10 10 0 0 0-2-5 10 10 0 0 0-3-4c-4-3-9-4-14-4a95 95 0 0 0-11-1h-25l-50 1-50 1-51 3-24 2a65 65 0 0 0-8 1l-6 2-6 1-6 2a6 6 0 0 0-2 1c-1 1 0 0 0 0a23 23 0 0 0-3 1v1c-1 0-1 0 0 0a5 5 0 0 0-4 3l1-1h-1a3 3 0 0 0 0 5z"/><path d="M266 366c-1-1 1 0 0 0l-3-1h-1c-1 0-1 0 0 0a7 7 0 0 0-1 0h-3l-1 1c-2 0 2-1 0 0a62 62 0 0 1-8 0l-17-1-18-2h-56l-37 1H90a52 52 0 0 0-7 1 15 15 0 0 0-7 3c-2 2-2 4-2 6a7 7 0 0 0 3 6c4 2 8 2 12 2l10-1 18-1 38-2 37-1a364 364 0 0 1 36 2l20 1a71 71 0 0 0 11-1 40 40 0 0 0 4-2 18 18 0 0 0 3-1 8 8 0 0 0 3-3c1-3 0-6-3-7zM523 10a67 67 0 0 0 8 1l-1-1a3 3 0 0 1 0 1l-2-3a4 4 0 0 0 1 2 4 4 0 0 0 2 1 4 4 0 0 0 3-1 4 4 0 0 0 0-5 4 4 0 0 0-3-1 4 4 0 0 0-2 1 5 5 0 0 0-1 1l2-2h1a26 26 0 0 1-4 0h-3a3 3 0 0 0-2 1 3 3 0 0 0-1 1 3 3 0 0 0 2 4z"/><path d="m535 12-1-3c0-3-5-1-4 1a43 43 0 0 0 3 7 3 3 0 0 0 4 0 3 3 0 0 0 1-3 18 18 0 0 1-2-6l-5 1 3 13 2 6 2 6a409 409 0 0 0 10 25l6-5a4 4 0 0 0-4-1 3 3 0 0 0-2 2 4 4 0 0 0 0 4 4 4 0 0 0 5 1c2-1 2-3 1-5l-9-23-2-6-3-6-4-12a3 3 0 0 0-3-2 3 3 0 0 0-2 2 25 25 0 0 0 2 9l5-3a43 43 0 0 0-4-6l-2 4h2a1 1 0 0 0 1 0z"/><path d="M539 29a3 3 0 0 0 1 3l1 4a40 40 0 0 1 3 5l5 13c3 9 5 19 9 27l7 15a284 284 0 0 1 18 44l12 35a4 4 0 0 0 5 3 4 4 0 0 0 2-5l-22-62-14-30-1-3-1-2-1-1s0-1 0 0l-2-7-5-13-3-8a40 40 0 0 0-3-7l-4-6a40 40 0 0 0-3-4 4 4 0 0 0-3-1 1 1 0 0 0-1 0z"/><path d="M594 158a15 15 0 0 1 0 3 6 6 0 0 0 0 2 41 41 0 0 1 2 5l2 5 2 5 6-2a6 6 0 0 0-2-3 5 5 0 0 0-3 0 2 2 0 0 0-2 1 5 5 0 0 0 1 5 3 3 0 0 0 4 1c2 0 3-2 2-4l-2-5a30 30 0 0 0-3-5l-3-4a6 6 0 0 0-2-3 19 19 0 0 1-2-1z"/><path d="m595 161 1-1a3 3 0 0 0-1 3 23 23 0 0 0 0 5l2 7 5 14 6 15 3 7c2 2 3 6 6 6a4 4 0 0 0 4-2c1-2 0-3-1-5l-2-3-3-7-5-13-6-14-3-7a24 24 0 0 0-2-4l-2-2 1 1-1-1-2 1z"/><path d="M616 214a4 4 0 0 0 0 3 11 11 0 0 0 0 2l2 4 3 8 6 17 13 33 3 9 2 5 1 2a6 6 0 0 0 3 3c1 2 4 0 5-2a9 9 0 0 0-1-5l-2-4-3-9-6-16-13-33-4-10a44 44 0 0 0-2-4c-1-2-1-3-4-4a3 3 0 0 0-3 1z"/><path d="M644 280v5l2 7 4 12c3 9 6 17 11 24a4 4 0 0 0 4 2 3 3 0 0 0 2-1 4 4 0 0 0 0-4c-5-8-8-16-11-24l-4-13a52 52 0 0 0-3-6 5 5 0 0 0-3-3h-2z"/><path d="M653 308a31 31 0 0 0 2 6l2 3 1 1a6 6 0 0 0 1 2 3 3 0 0 0 4-2 6 6 0 0 0 0-3l-1-1-1-3a31 31 0 0 0-4-5 3 3 0 0 0-4 2z"/><path d="m653 302 2 5 2 5 2 5c1 2 1 5 4 5a3 3 0 0 0 2-1c2-2 0-5-1-7l-2-4-2-5-4-5a2 2 0 0 0-3 2zm8 22a7 7 0 0 0 0 4l2 4 3 7 6 15 7 15 3 7 2 3c0 2 1 4 3 4a3 3 0 0 0 3-2c2-2 0-5-1-7l-2-6-6-11-10-23-3-6c-1-2-2-4-5-5a2 2 0 0 0-2 1zm-302 59 1 1a14 14 0 0 0 3 0 9 9 0 0 0 2 0h1v-1a3 3 0 0 0 2 0v-1a3 3 0 0 0 0-3 3 3 0 0 0-2-2 4 4 0 0 0-2 0l-1 1 1-1-2 1h1a9 9 0 0 1-2 0h1l-2-1a2 2 0 0 0-1 0 2 2 0 0 0-1 1 3 3 0 0 0-2 2 3 3 0 0 0 3 3z"/><path d="M358 382h1-1a2 2 0 0 0 2 1h1c-1 0 0 0 0 0l2-1a9 9 0 0 0 2 0l2-2-3-2a7 7 0 0 0-2 0l-2 1-2 1h1c-1 0-2 1-1 2z"/><path d="M367 384a68 68 0 0 0 7 0h102l16-1 62 1h132c6 1 6-8 0-8l-62 1h-16l-7-1h-40l-31 1h-30l-16-1H376a74 74 0 0 0-9 0 4 4 0 0 0 0 8zm25-17 25 1h73l99 1h28l13 1 7 1h4a10 10 0 0 0 4-1c2-1 5-3 4-6a6 6 0 0 0-4-5 10 10 0 0 0-4-2l-3 1h-6l-12 1h-25l-49 1-99-1h-55a4 4 0 0 0-4 4 4 4 0 0 0 4 4z"/><path d="M361 381c2 0 4-3 5-4a41 41 0 0 0 4-4 53 53 0 0 0 5-9 3 3 0 0 0-6-3 6 6 0 0 0-1 3 8 8 0 0 0 0 1 6 6 0 0 0 0 1 2 2 0 0 0 3 1 5 5 0 0 0 2 0 6 6 0 0 0 2-3l-6-3a53 53 0 0 1-5 8l-1 2-1 1s1-1 0 0l-2 2-1 1a4 4 0 0 0-1 3 3 3 0 0 0 3 3z"/><path d="M362 376a5 5 0 0 0 4-1 13 13 0 0 0 3-4l5-7a147 147 0 0 0 9-16l16-33 5-9 5-9c1-3 1-7-2-9-3-1-7-1-9 2l-7 17-8 16-16 32-3 10-1 3h-1s0 1 0 0v1l-1 2a5 5 0 0 0 0 1v1c0-1 0-1 0 0a2 2 0 0 0 1 2z"/><path d="M384 323c3 0 5-3 7-5l5-7 9-13 18-28 5-8c2-3 5-8 4-12a7 7 0 0 0-3-4 8 8 0 0 0-5-1c-4 1-7 5-9 9l-4 7-8 15a367 367 0 0 0-15 31l-4 8a16 16 0 0 0-1 5c0 1 0 2 2 2z"/><path d="M412 264a19 19 0 0 0 2-2l2-1 2-2 2-1-6-5-7 11a4 4 0 0 0 1 6 4 4 0 0 0 6-2l6-10a109 109 0 0 1 7-9v-6a5 5 0 0 0-7 0l-6 6 8 6 11-18 11-18 20-37a200 200 0 0 0 8-17l1-3a21 21 0 0 0 1-5 10 10 0 0 0-7-9 10 10 0 0 0-10 4 198 198 0 0 1-9 23v-2l-13 30-13 30-8 17a5 5 0 0 0 1 6h6l6-8-8-4a112 112 0 0 1-6 10l-6 10 7 4 6-11a4 4 0 0 0-1-5c-1-1-3-2-5 0a8 8 0 0 0-1 2v1l-2 2-1 3a11 11 0 0 0 0 3 2 2 0 0 0 2 1z"/><path d="M463 146h-1l3 10c3-1 4-4 6-6l3-5 7-10a131 131 0 0 0 12-23c1-2 0-6-2-7a8 8 0 0 0-12 1c-2 3-1 5 0 8s4 4 7 4l-8-10-2 5 1-2-10 19-4 10-3 4a30 30 0 0 0-3 6 6 6 0 0 0 2 6c2 1 4 2 6 0h1c2-1 3-4 2-6-1-3-3-5-5-5z"/><path d="M474 129h1a3 3 0 0 0 1-1q1 0 0 0a8 8 0 0 0 2-2h1l1-1a18 18 0 0 0 2-3l1-2-2 2 1-1a8 8 0 0 0 3-3l2-2 3-5 6-9 10-20a770 770 0 0 0 29-66 9 9 0 0 0 0-7 10 10 0 0 0-5-3 9 9 0 0 0-6-1l-5 4-10 23-11 23-20 47-2 3v2h-1 1l-2 3-2 6a6 6 0 0 0 1 2v-2h-1v2l-1 1a5 5 0 0 0 0 1v1a13 13 0 0 0-1 4v1a9 9 0 0 0 1 1v1c0 2 1 2 3 1zm34-48a14 14 0 0 0-2 7c0 3 4 5 6 3a31 31 0 0 0 3-5l-6-4a101 101 0 0 1-5 9l-5 9-8 18-17 35-15 37-4 9-1 4a4 4 0 0 1-1 1v1l-1 2-9 16-4 10a77 77 0 0 1-3 8 31 31 0 0 1-3 4l-2 4c-2 3-4 6-4 9-1 2 0 4 1 5s4 0 6-1l6-8a38 38 0 0 0 2-5l1-2v-1l1-1 4-10 1-4 1-2v-1h1a59 59 0 0 1 4-9 101 101 0 0 0 9-17l14-36 16-35 9-18 9-19 3-8a4 4 0 1 0-6-4 32 32 0 0 0-3 5h7a6 6 0 0 1 0-3c2-4-4-6-5-3z"/><path d="M429 252a21 21 0 0 0 2-1h2a5 5 0 0 0 2-1c2-2-1 1 0 0l1-1 1-1a14 14 0 0 0 4-3l-2 2a35 35 0 0 0 6-7l3-7 7-15 9-28c1-6 3-11 6-16l-1 2c6-15 14-31 22-46l11-23 6-12 6-11 7-12a46 46 0 0 0 3-8 33 33 0 0 0 1-4 10 10 0 0 0 0-6 25 25 0 0 0-1-1 6 6 0 0 0-5-3 16 16 0 0 0-3 0 10 10 0 0 0-5 3 40 40 0 0 0-4 5 75 75 0 0 0-4 8l-9 16-9 15-8 17-16 33c-6 11-11 23-15 35l-13 38 1-3-6 12a45 45 0 0 0-3 7 26 26 0 0 0 0 5l-1 3 1-2a9 9 0 0 0-1 4 12 12 0 0 0 1 1l1 3a3 3 0 0 0 3 2z"/><path d="M516 74a5 5 0 0 0-2 5l2 6 9-3-4-6h-7c-2 2-2 4-1 6v1l1 1v1l1 3 3 8 6 13 1 3v1l1 1 2 7 5 13a135 135 0 0 0 6 13l6 13 3 6 1 1v1a17 17 0 0 1 0 1l2 3 5 13 12 32c1 2 4 2 6 2a4 4 0 0 0 3-6l-10-27-10-27-6-14-3-7-1-3-1-1v-1c0-1 0 0 0 0l-2-4v-1s0-1 0 0l-1-1-2-7a126 126 0 0 0-5-14l-7-14-3-7-5-8-7 6 3 4c3 4 10 0 8-4l-2-6a5 5 0 0 0-4-4v1a3 3 0 0 0-3 0z"/><path d="M569 217a21 21 0 0 0 2 6l1 5 4 10 4 11 2 5 1 3a6 6 0 0 0 5 4l-2-2 2 4 2 3a3 3 0 0 0 4-2l-1-4-1-3v2a6 6 0 0 0 1-5l-1-3-2-5-5-11-5-11c-1-3-3-7-6-10-2-1-5 1-5 3z"/><path d="M594 259a4 4 0 0 0-6 4l5 15a4 4 0 0 0 4 3 4 4 0 0 0 4-3 6 6 0 0 0-1-5l-1-2a12 12 0 0 1-1-1v-1a76 76 0 0 1-3-7v-3l-1-1v-1a2 2 0 0 0-1 0l1 1c0-3-2-4-4-4a3 3 0 0 0-3 4 64 64 0 0 0 1 6l7-3-1-3-1-1v-1 2a4 4 0 0 0-5-4 4 4 0 0 0-3 4 7 7 0 0 0 1 3l3 4a4 4 0 0 0 7-3l-3-6-4 5-1-1a16 16 0 0 1 1 2 16 16 0 0 1 1 1 37 37 0 0 1 1 5l1 5a22 22 0 0 0 1 2v1s0 1 0 0q0 1 0 0h8l-7-16-1 5a3 3 0 0 0 1-6z"/><path d="M596 272c-2 2-1 4-1 7l1 3 1 3 9-3a18 18 0 0 0-5-7 5 5 0 0 0-7 6c-1-1 0 0 0 0v1l1 2 1 4 3 9 7 16 7 17 4 9v1l1 2 1 4 7 20-1-3a5 5 0 0 0 3 4 6 6 0 0 0 4 1c3 0 5-3 5-6l-2-6-4-9v-1h-1v-2l-2-5-3-8-14-35-5-10-2-5-1-2-1-1v-1l-8 5h1a15 15 0 0 1 1 1l1 3c1 2 4 3 6 2a5 5 0 0 0 2-7l-1-3-2-2-4-5a2 2 0 0 0-2 1zm-209 94c2 0 3-2 4-4l3-5 5-10 10-22 19-43 5-12 3-6 3-7a4 4 0 0 0-8-3 29 29 0 0 0-3 5l-2 6-5 10-9 22-19 43-5 13-2 6c-1 2-2 4-1 7a1 1 0 0 0 2 0z"/><path d="M426 262a14 14 0 0 1-2 1l-3 2a54 54 0 0 0-4 6l-7 10-6 10-5 10-11 22-10 21-3 5-3 5-3 6-2 2a23 23 0 0 0-2 5l1-2a21 21 0 0 0-2 5 9 9 0 0 0 3 9 8 8 0 0 0 9 0l2-1a29 29 0 0 0 3-2l-2 1a16 16 0 0 0 4-3 30 30 0 0 0 4-6l3-6 4-9 2-8v2l14-32 7-16 4-9 3-8 3-9a37 37 0 0 0 1-5v-2a14 14 0 0 1 0-3c0-1-1-3-2-1z"/><path d="M389 374a7 7 0 0 0-7-4l3 10 4-3 5-2a7 7 0 0 0 3-7 7 7 0 0 0-7-5h-3a7 7 0 0 0-6 3v7c2 5 9 7 14 7a69 69 0 0 1 7 0h2a6 6 0 0 1 1 0h-1a9 9 0 0 0 2 0h3l29-2c10-1 19 0 28 1l29 2 58-1 58-2h57a47 47 0 0 1 7 0l-3-1a15 15 0 0 1 3 1l-2-1 1 1v-1c3 4 9 4 12 0s3-8 0-12c-4-4-10-5-15-5h-15l-29 1-60 2-58 1h-30l-29-2a155 155 0 0 0-17-1l-16 2h-8l-10 2c-2 0 2 0 0 0h-7c1 0 1 0 0 0h1a4 4 0 0 1-1 0h1a4 4 0 0 1-1 0l-3 12 3-1-7-11-3 3-4 4a6 6 0 0 0-1 6 6 6 0 0 0 7 3 6 6 0 0 0 5-4 3 3 0 0 0 0-3zM525 24l-1 7 1-3a17 17 0 0 0-1 2 8 8 0 0 0 1 4v4l1 5 2 11 5 22 19-5-6-26-18 7v1l-1-3 9 33 18-8a219 219 0 0 0-11-21l-5-9a21 21 0 0 0-6-7c-3-2-8-2-11-1s-5 2-6 5a10 10 0 0 0-1 7l13 37a10 10 0 0 0 6 5 10 10 0 0 0 7-1 10 10 0 0 0 4-4 11 11 0 0 0 1-8 165 165 0 0 0-4-17l-3-9c-2-5-4-9-8-11a12 12 0 0 0-17 7v12a170 170 0 0 0 5 18 195 195 0 0 0 8 21l17-10a190 190 0 0 1-13-24l-17 10a61 61 0 0 1 8 14l-1-3 10 32a259 259 0 0 0 15 36l10 19c2 4 8 5 12 4a9 9 0 0 0 5-4c1-3 2-6 1-8l-10-27a175 175 0 0 1-6-28v3a177 177 0 0 1-2-25l-19 2 17 56c3 6 5 12 9 16a10 10 0 0 0 11 2 9 9 0 0 0 4-3 9 9 0 0 0 2-6 30 30 0 0 0-1-6 55 55 0 0 0-2-6l-4-9 1 3c-7-16-10-32-14-49l-2-14v3a22 22 0 0 1 0-6v3a12 12 0 0 1 1-3l-1 3a12 12 0 0 1 0-2l-18-2c2 8 6 16 9 23l10 22 6 12-1-2a196 196 0 0 1 8 24l6 27 18-8a261 261 0 0 1-17-33l1 2-7-18a11 11 0 0 0-4-6 10 10 0 0 0-14 4 10 10 0 0 0-1 7 273 273 0 0 0 25 54 10 10 0 0 0 13 4 9 9 0 0 0 4-4 11 11 0 0 0 1-7c-2-14-5-27-10-40l-16-37-9-20 1 2a67 67 0 0 1-4-11 10 10 0 0 0-18-3c-4 7-3 14-1 22l3 17a248 248 0 0 0 9 33l8 19-1-2a24 24 0 0 1 2 6l-1-3v1l17-7-1-2 2 2a31 31 0 0 1-4-6l1 2-5-14-5-15-9-30a10 10 0 0 0-19 3 184 184 0 0 0 11 65l7 17 18-7c-6-12-13-24-18-37l1 2a220 220 0 0 1-9-25c-2-9-5-17-9-26a59 59 0 0 0-7-12l-5-4a10 10 0 0 0-8 1 10 10 0 0 0-5 6v2a10 10 0 0 0 1 5 192 192 0 0 0 13 24 10 10 0 0 0 6 5 10 10 0 0 0 8-1 10 10 0 0 0 4-6v-3a10 10 0 0 0-1-5l-2-4 1 3a161 161 0 0 1-10-37v3a8 8 0 0 1 0-3v3a5 5 0 0 1 0-1l-1 3a3 3 0 0 1 0-1l-1 2-2 1-2 1a2 2 0 0 1 1 0h-3a2 2 0 0 1 1 0h-3l-2-1-2-1a5 5 0 0 1 1 1l-1-2a9 9 0 0 1 1 1l-1-2a150 150 0 0 1 8 29l18-8-2-5 1 2-10-29-7 12a3 3 0 0 1 1 0h-3a4 4 0 0 1 1 0h-3a5 5 0 0 1 1 0l-2-1a7 7 0 0 1 1 1l-2-2a12 12 0 0 1 2 2l-2-2a70 70 0 0 1 5 7l4 8 8 16c0 2 3 4 6 4a10 10 0 0 0 6 0 9 9 0 0 0 5-4 11 11 0 0 0 1-8l-4-17a129 129 0 0 0-6-18c-1-2-4-4-6-4a10 10 0 0 0-7 0 10 10 0 0 0-5 12l6 26c1 5 7 9 12 7a10 10 0 0 0 7-12l-5-22-2-10-1-6c0-2 0-5-2-7l1 2-2-7a9 9 0 0 0-4-5 8 8 0 0 0-5-1 8 8 0 0 0-7 8z"/><path d="M570 148a18 18 0 0 0-1 4v1c0 1 0 1 0 0a9 9 0 0 0 0 2 10 10 0 0 1-1 2c1-1 1-1 0 0a4 4 0 0 0 0 1v3a41 41 0 0 0 1 7l1 8 4 13 3 13 19-8-3-4-3-5-5-9-5-9-5-9 1 2-1-2 1 3v-2c-1-5-5-9-11-9a9 9 0 0 0-8 12l5 13 5 13 4 14 2 6a14 14 0 0 0 3 7 11 11 0 0 0 8 3 9 9 0 0 0 7-4 9 9 0 0 0 2-8v2a16 16 0 0 0-1-6l1 3-2-6-2-6-4-13-4-12-7-13-14 11 3 2-2-1 1 1-2-2 6 12 6 11-1-2 3 8a93 93 0 0 0 4 9 10 10 0 0 0 6 5 10 10 0 0 0 7-1 10 10 0 0 0 5-11l-3-13-4-13-6-13-2-3-3-3-1-1-1-2a16 16 0 0 0-2-2 3 3 0 0 0-4 1z"/><path d="M584 208a7 7 0 0 0-2 3c0 1 0 0 0 0a11 11 0 0 0-1 2 12 12 0 0 0 0 3 35 35 0 0 0 1 5v5l2 8c1 4 3 8 6 10 3 1 7 1 10-1a8 8 0 0 0 1-9l-8-13-8-13 1 2v-1 3a4 4 0 0 1 0-1h-18c0 4 2 6 4 9l-1-2a50 50 0 0 1 6 11l-1-3a96 96 0 0 1 4 12l3 12 10 23c1 3 2 5 4 6a10 10 0 0 0 8 1 10 10 0 0 0 6-4c1-2 2-5 1-8l-10-25c-3-9-5-19-9-27a47 47 0 0 0-5-8c-3-3-6-6-11-6a9 9 0 0 0-2 18l-2-1a7 7 0 0 1 1 0l-1-1v1l-1-2 16 24 10-10 1 1c1 1 1 1 0 0v-1l1 2-3-7-1-1c1 1 1 1 0 0v-1l-2-5a66 66 0 0 0-3-6 9 9 0 0 0-3-3h1c-1-1 0 0 0 0a3 3 0 0 0-5-2z"/><path d="m594 278 7 14-1-2c9 20 15 42 23 63l5 11c1 4 3 8 7 11a9 9 0 0 0 8 0 9 9 0 0 0 5-6 14 14 0 0 0 1-3 12 12 0 0 0-2-6l-1-2-2-5 1 3c-9-22-15-46-24-68l-9-20a10 10 0 1 0-18 10zm-9-100v-5l-1 1a14 14 0 0 0 0 4 19 19 0 0 0 3 8l4 8 7 16-1-2a318 318 0 0 1 11 31l11 32 14 33 14 32 16 35 16-12a11 11 0 0 0-8-4 10 10 0 0 0-7 3 10 10 0 0 0-3 7 10 10 0 0 0 2 5 25 25 0 0 0 2 3 10 10 0 0 0 7 3 10 10 0 0 0 6-2 9 9 0 0 0 4-5v-3a10 10 0 0 0-1-5l-32-68-8-19 1 3-8-22-7-21a311 311 0 0 0-16-44l-6-11a40 40 0 0 0-5-7 13 13 0 0 0-4-3 9 9 0 0 0-2-1 6 6 0 0 0-1 0q-3 0 0 0a6 6 0 0 0-4 0 7 7 0 0 0-3 2 7 7 0 0 0-1 8z"/><path d="M661 367a3 3 0 0 1 0-1l-1 3a11 11 0 0 0 2-6 12 12 0 0 0-2-5l-2-4-4-6a128 128 0 0 1-6-14l1 3c-4-9-6-19-8-28a231 231 0 0 0-6-29 455 455 0 0 0-21-56l-15-30c-2-4-9-6-14-3a10 10 0 0 0-3 13q11 20 19 41l-1-2q6 12 10 25l8 26 5 27a115 115 0 0 0 9 27 148 148 0 0 0 11 19 16 16 0 0 0 3 4 10 10 0 0 0 6 2c4 0 8-2 9-6z"/><path d="M587 189a6 6 0 0 0 0 4 33 33 0 0 0 0 4l2 9 5 17 5 16 6 17 6 16 3 9 3 8 14 31a176 176 0 0 0 10 16l8 14-1-2a24 24 0 0 1 2 6v-3 2l17-7a14 14 0 0 0-3-2 10 10 0 0 0-12 1 10 10 0 0 0-1 12 15 15 0 0 0 2 3 10 10 0 0 0 11 2c3-2 6-5 6-9-1-7-3-13-7-19l-9-13c-6-10-10-21-15-31l-7-16-8-17-16-33-9-19-5-9a37 37 0 0 0-2-4 20 20 0 0 0-2-2 6 6 0 0 0-2-1 1 1 0 0 0-1 0z"/><path d="m602 219-1-3a35 35 0 0 1-1-4l-1-8-1-7-1-9-3-15a163 163 0 0 0-2-7l-1-8c-2-4-4-9-8-10a7 7 0 0 0-8 2 8 8 0 0 0-2 3 13 13 0 0 0 0 6v-3c1 10 4 18 8 27l6 13 6 11 4 6 2 3 1 4c1 1 2 0 2-1z"/></g><g fill="#444"><path d="M3 6h284c4 0 4-6 0-6H3c-4 0-4 6 0 6z"/><path d="M6 13V3a3 3 0 0 0-3-3 3 3 0 0 0-3 3v10a3 3 0 1 0 6 0z"/><path d="m154 198-4-5-11-14-16-20-19-24-22-27-21-28-21-25-17-21-12-16-6-7c-1-2-3-1-4 0a3 3 0 0 0 0 4l4 5 11 14 16 20 19 24 22 27 21 28 20 25 17 21 13 16 5 7h1c1 2 3 1 4 0a3 3 0 0 0 0-4z"/><path d="m5 373 4-4 11-13 16-18 19-23 22-24 21-25 21-23 17-20 12-14 6-6v-1a3 3 0 0 0 0-4 3 3 0 0 0-4 0l-4 5-11 12-16 19-20 22-21 25-22 24-20 24-17 19-12 14-6 7a3 3 0 0 0 0 4 3 3 0 0 0 4 0z"/><path d="M6 384v-13a3 3 0 1 0-6 0v13a3 3 0 0 0 3 3 3 3 0 0 0 3-3z"/><path d="M299 378h-8l-21 1h-71l-43 1H73l-34 1H3c-4 0-4 6 0 6h30l32-1h81l43-1h74l24-1h12c4 0 4-6 0-6z"/><path d="m310 267-1 12-3 27-4 33-4 28-1 10-1 4c0 2 2 3 3 3a3 3 0 0 0 3-3l2-11 3-27 4-33 4-29 1-9v-5c1-1-1-3-3-3a3 3 0 0 0-3 3z"/><path d="m302 268 9 2h2a3 3 0 0 0 2 0 3 3 0 0 0 1-2 3 3 0 0 0-2-4l-9-1h-1a3 3 0 0 0-2 0 3 3 0 0 0 0 5zM70 332l3-5 10-11 14-16 17-21 19-22 19-22 18-21 15-18 11-13 5-6a3 3 0 0 0 0-4 3 3 0 0 0-4 0l-4 4-9 11-15 17-17 20-19 22-19 23-17 21-15 17-11 13-5 6h-1a3 3 0 0 0 0 5 3 3 0 0 0 5 0z"/><path d="m81 28 3 4 8 10 13 17 15 19 17 22 16 21 16 21 13 17 10 12 4 6h5a3 3 0 0 0 0-4l-3-4-9-11-12-16-15-20-17-21-17-22-16-20-13-17-9-13-5-5v-1h-4a3 3 0 0 0 0 5zm218 70-1-10-2-22-2-28-3-23-1-12a3 3 0 0 0-3-3 3 3 0 0 0-3 3l1 10 2 22 3 27 2 24 1 12a3 3 0 0 0 3 3 3 3 0 0 0 3-3z"/><path d="m286 100 8 1h1a3 3 0 0 0 3-3 3 3 0 0 0-3-3l-7-1h-2a3 3 0 0 0-3 3 3 3 0 0 0 3 3z"/><path d="m83 28 51 1 51 1c17 0 33 1 50 3 12 2 26 6 34 15 5 5 7 12 9 19a178 178 0 0 1 4 23l1 6a3 3 0 0 0 3 3 3 3 0 0 0 3-3 199 199 0 0 0-4-25c-1-7-3-15-7-22-8-12-21-17-34-20-17-4-33-4-50-5l-52-1-52-1h-7c-3 0-3 6 0 6zM68 332l57 1h56c19 0 38 1 56-2 16-2 32-8 44-18 12-11 19-25 23-40a155 155 0 0 0 1-6c1-4-5-5-6-1-3 14-8 28-19 39s-25 17-40 20c-17 3-36 2-54 2h-55l-56-1h-7c-4 0-4 6 0 6zm289 53 4-10 12-28 18-41 22-50 24-54 25-56 22-51 19-44 14-31 7-15a3 3 0 0 0-1-5l-4 1-5 11-12 27-18 41-22 50-24 55-24 55-23 52-19 43-14 32-6 15a3 3 0 0 0 1 4c1 1 3 1 4-1zm338-2-5-10-11-28-17-41-21-50-22-55-23-55-22-52-18-43-13-31-6-15V2a3 3 0 0 0-4-2l-2 4 4 10 12 28 17 41 21 50 22 54 23 55 21 52 18 44 13 31 7 15a3 3 0 0 0 4 3l2-4z"/><path d="M521 6h13a3 3 0 1 0 0-6h-13a3 3 0 1 0 0 6zM354 387h338c4 0 4-6 0-6H354c-4 0-4 6 0 6zm38-24h233c4 0 4-6 0-6H392c-4 0-4 6 0 6z"/><path d="m511 85-3 7-9 20-13 30-16 36-17 39-18 39-17 37-13 31-10 23-5 11a3 3 0 0 0 1 4c1 1 3 1 4-1l3-7 9-20 13-29 16-36 18-40 17-39 17-37 14-31 10-23 4-10v-1a3 3 0 0 0-1-4c-1-1-3 0-4 1z"/><path d="m628 359-3-8-8-19-12-30-15-36-16-39-16-40-15-36-13-32-9-22-4-11a3 3 0 0 0-4-2c-1 0-3 2-2 3l3 8 8 20 12 29 15 36 16 39 16 40 15 37 13 31 9 22 4 11a3 3 0 0 0 4 2c2 0 3-2 2-3z"/></g></svg>