<svg xmlns="http://www.w3.org/2000/svg" viewBox="0 0 482.3 726.2"><path fill="#6cb767" d="M63 176c-3-3-9-2-10 3v5l2 4 4 10a46 46 0 0 0 4 7 18 18 0 0 0 6 6 13 13 0 0 0 10 0 16 16 0 0 0 10-13 18 18 0 0 0-2-9 32 32 0 0 0-5-8l2 3a8 8 0 0 0-2-4 13 13 0 0 0-1-1v1a18 18 0 0 0-2-2 21 21 0 0 0-6-3h2a19 19 0 0 0-10-2l5 1a10 10 0 0 0-11 0l3-1a20 20 0 0 0-10 6l5-3c-2 1-4 1-5 3a17 17 0 0 0-4 6l2-3-2 2a28 28 0 0 0-2 6l10-10a11 11 0 0 0-5 3 11 11 0 0 0-4 4l-1 3a15 15 0 0 0 0 8 16 16 0 0 0 0 3 36 36 0 0 0 3 6 37 37 0 0 0 7 8 60 60 0 0 0 9 7 31 31 0 0 0 3 2 47 47 0 0 0 7 2 31 31 0 0 0 24-2 29 29 0 0 0 7-7 40 40 0 0 0 4-5 41 41 0 0 0 3-6 19 19 0 0 0 1-3 41 41 0 0 0 1-7 41 41 0 0 0-1-7 22 22 0 0 0-1-4 39 39 0 0 0-11-17 36 36 0 0 0-9-6c-4-2-9-4-14-3-4 0-9 1-12 4a31 31 0 0 0-9 9 22 22 0 0 0-1 3 55 55 0 0 0-3 6 51 51 0 0 0-2 10 60 60 0 0 0 2 20c2 7 5 13 10 18a28 28 0 0 0 11 7c5 2 10 2 14 1a17 17 0 0 0 4-1 36 36 0 0 0 6-3 34 34 0 0 0 8-7c4-5 7-11 8-18a41 41 0 0 0 1-9 38 38 0 0 0-2-10 40 40 0 0 0-11-17 54 54 0 0 0-18-11 32 32 0 0 0-6-1 40 40 0 0 0-10-1 34 34 0 0 0-10 2 36 36 0 0 0-6 3 38 38 0 0 0-5 4 28 28 0 0 0-6 8 32 32 0 0 0-3 9 45 45 0 0 0-1 10 63 63 0 0 0 2 10 76 76 0 0 0 6 16c5 10 12 20 22 26a43 43 0 0 0 21 6 28 28 0 0 0 11-2 39 39 0 0 0 6-2 41 41 0 0 0 5-4c5-5 9-11 11-17 2-8 2-16 0-23a44 44 0 0 0-2-8 60 60 0 0 0-5-9 47 47 0 0 0-14-15 38 38 0 0 0-10-4 26 26 0 0 0-4-1 47 47 0 0 0-7-1 44 44 0 0 0-7 1 19 19 0 0 0-3 1 42 42 0 0 0-7 3 40 40 0 0 0-5 4c-5 4-8 9-10 15a32 32 0 0 0-2 6 62 62 0 0 0 1 27 46 46 0 0 0 2 8 53 53 0 0 0 5 10 48 48 0 0 0 14 14 55 55 0 0 0 10 4 37 37 0 0 0 7 2 59 59 0 0 0 10 1 63 63 0 0 0 12-1 47 47 0 0 0 7-2 78 78 0 0 0 10-5 53 53 0 0 0 6-4 36 36 0 0 1 7-4l-4 2a10 10 0 0 1 3-1l-4 1a9 9 0 0 1 1 0l-4-1a8 8 0 0 1 1 1l-3-2a7 7 0 0 1 1 1l-3-3a9 9 0 0 1 2 2l-3-3c3 3 4 6 6 10l5 10-1-3a13 13 0 0 1 1 3l-1-4v1l2 8-1-3a6 6 0 0 1 0 1v-4a6 6 0 0 1 0 1v-3a5 5 0 0 1 0 1l1-3a4 4 0 0 1 0 1l2-3a14 14 0 0 0-2 3l9-5c-6 0-12 5-11 11a11 11 0 0 0 11 11l-8-3a11 11 0 0 0 6 3 16 16 0 0 0 4 1 18 18 0 0 0 8-3 17 17 0 0 0 6-4 16 16 0 0 0 3-10 25 25 0 0 0-1-5 31 31 0 0 0-2-7l-2-3-4-7c-3-7-6-13-12-17a23 23 0 0 0-5-2 9 9 0 0 0-1 0 22 22 0 0 0-10 0 28 28 0 0 0-9 4 70 70 0 0 1-14 8l4-1a47 47 0 0 1-12 3l4-1a40 40 0 0 1-10 0l4 1a39 39 0 0 1-10-3l4 2a35 35 0 0 1-7-5l3 3a31 31 0 0 1-6-6l3 3a34 34 0 0 1-5-7l2 3a49 49 0 0 1-3-12v4a50 50 0 0 1 0-13l-1 4a35 35 0 0 1 3-8l-2 3a26 26 0 0 1 3-5l-2 3a21 21 0 0 1 3-3l-3 2a19 19 0 0 1 5-3l-4 2a20 20 0 0 1 5-1h-4a23 23 0 0 1 5 0h-4a25 25 0 0 1 7 1l-4-1a26 26 0 0 1 5 3l-3-2a31 31 0 0 1 6 5l-3-3a40 40 0 0 1 5 9l-1-4a43 43 0 0 1 3 10l-1-4a33 33 0 0 1 0 9l1-4a26 26 0 0 1-2 6l2-4a23 23 0 0 1-3 5l2-3a21 21 0 0 1-3 4l3-2a19 19 0 0 1-4 2l3-1a17 17 0 0 1-4 1l4-1a21 21 0 0 1-6 0l4 1a29 29 0 0 1-6-2l3 1a35 35 0 0 1-7-4l3 2a44 44 0 0 1-8-7l3 3a64 64 0 0 1-8-14l1 3a51 51 0 0 1-3-13v4a32 32 0 0 1 0-8l-1 4a22 22 0 0 1 2-5l-2 4a18 18 0 0 1 3-4l-3 3a18 18 0 0 1 3-3l-3 2a18 18 0 0 1 4-2l-4 2a21 21 0 0 1 5-1h-4a26 26 0 0 1 7 0h-4a33 33 0 0 1 8 2l-3-2a38 38 0 0 1 7 5l-3-2a32 32 0 0 1 6 5l-2-3a24 24 0 0 1 3 5l-2-3a23 23 0 0 1 2 5l-1-4a25 25 0 0 1 0 7l1-4a26 26 0 0 1-2 6l1-3a24 24 0 0 1-3 5l3-3a22 22 0 0 1-4 3l3-2a20 20 0 0 1-4 3l4-2a17 17 0 0 1-4 1h4a14 14 0 0 1-3 0h4a12 12 0 0 1-3-1l3 2a13 13 0 0 1-2-2l3 3a17 17 0 0 1-3-3l2 3a24 24 0 0 1-3-5l2 3a44 44 0 0 1-3-10l1 4a47 47 0 0 1 0-13l-1 4a28 28 0 0 1 2-6l-2 3a20 20 0 0 1 3-4l-3 3a14 14 0 0 1 3-3l-3 3a13 13 0 0 1 2-2l-3 2a12 12 0 0 1 2-1l-4 1a13 13 0 0 1 3 0l-4-1a16 16 0 0 1 4 1l-4-1a22 22 0 0 1 5 2l-3-2a27 27 0 0 1 4 5l-2-3a25 25 0 0 1 3 5l-1-4a23 23 0 0 1 1 6v-4a20 20 0 0 1 0 5v-4a19 19 0 0 1-1 4l2-3a20 20 0 0 1-3 4l2-3a19 19 0 0 1-3 3l3-2a17 17 0 0 1-3 2l4-2a16 16 0 0 1-4 1h4a19 19 0 0 1-4 0h4a25 25 0 0 1-7-2l4 2a39 39 0 0 1-8-5l3 3a29 29 0 0 1-5-5l2 3a19 19 0 0 1-2-4l2 3a14 14 0 0 1-1-3l-2-3a11 11 0 0 0-4-4c-2-2-5-4-8-3l12 7v-1l1 3a14 14 0 0 1-1-3l1 4a14 14 0 0 1 0-2l-1 4v-3a11 11 0 0 0 0-5v7a11 11 0 0 1 1-3l-1 3a9 9 0 0 1 1-2l-2 2a6 6 0 0 1 1-1l-2 2c3-2 5-6 5-9l-3 7a12 12 0 0 1 1-1l-2 2a10 10 0 0 1 2-2l-2 1a16 16 0 0 1 2-1l-2 1h2-2a20 20 0 0 1 3 0c1 0 2 1 0 0a5 5 0 0 0 2 1 6 6 0 0 0 2 0l-3-1a18 18 0 0 1 2 2h1a4 4 0 0 0 1 1l-1-1s1 0 0 0l1 1c-1-1 0 0 0 0v1a4 4 0 0 1 1 0s-1 0 0 0v2s0-1 0 0v1s0-1 0 0v2h-1v1s-1 0 0 0l-1 1c-1 0 0 0 0 0a3 3 0 0 1-1 1h-1 1-1c-1 0 0 0 0 0a5 5 0 0 0-1 0s-1 0 0 0h-2v-1s1 1 0 0a9 9 0 0 1-2-2s1 1 0 0l-1-1-3-6-2-3v-1l-1-2a124 124 0 0 1-1-4 13 13 0 0 0-1-2c0 1 0 0 0 0v-1 2a3 3 0 0 1-5 2c1 1 4 2 6 0a5 5 0 0 0 0-7z"/><g fill="#c4982c"><path d="m106 156-1-5-2 4 1-1a12 12 0 0 0 5-6 12 12 0 0 0-1-9 12 12 0 0 0-7-6l-9 1v1l3-2a20 20 0 0 0-8 5l3-2a17 17 0 0 0-5 5l2-3a27 27 0 0 0-3 4l2-2c-8 8-2 20 1 30a385 385 0 0 0 19 41 53 53 0 0 0 8 10 30 30 0 0 0 13 9 32 32 0 0 0 6 0 12 12 0 0 0 2 0 26 26 0 0 0 11-3l9-7-3 2a15 15 0 0 1 4-2l-4 2a9 9 0 0 1 2-1l-4 1h1l-15-19a41 41 0 0 0 0 10 42 42 0 0 0 1 10 40 40 0 0 0 11 17 16 16 0 0 0 6 3l4 1a11 11 0 0 0 6-1 15 15 0 0 0 6-5 8 8 0 0 0 2-3 11 11 0 0 0 1-6 30 30 0 0 0 0-7 49 49 0 0 0-2-9 53 53 0 0 0-7-15 78 78 0 0 0-11-12l-14-11-3-1a11 11 0 0 0-6 0 14 14 0 0 0-9 4 18 18 0 0 0-3 6 15 15 0 0 0 1 12 42 42 0 0 0 19 16 57 57 0 0 0 7 3 45 45 0 0 0 6 1 44 44 0 0 0 7 1 56 56 0 0 0 8-1 29 29 0 0 0 5-1 48 48 0 0 0 8-4l-20-5a19 19 0 0 1 2 4l-2-4a21 21 0 0 1 2 5l-1-4a32 32 0 0 1 0 9v-4c0 6-3 12-5 18a62 62 0 0 0-3 10 60 60 0 0 0-1 9 17 17 0 0 0 3 9 18 18 0 0 0 3 4 14 14 0 0 0 6 4 10 10 0 0 0 5 0 10 10 0 0 0 5-2 14 14 0 0 0 5-4 20 20 0 0 0 2-4l-1 3v-1l2-4v-5a32 32 0 0 1 0-4v4c1-9 5-17 7-25a50 50 0 0 0 2-16c-1-6-2-12-6-17-2-3-5-6-9-7a16 16 0 0 0-11 2 28 28 0 0 1-3 1l4-1a29 29 0 0 1-7 1h4a32 32 0 0 1-9 0h4a34 34 0 0 1-8-2l4 2a32 32 0 0 1-7-4l3 2a28 28 0 0 1-5-5l2 3a27 27 0 0 1-1-2l-21 20 6 4-3-2a74 74 0 0 1 13 12l-3-3a43 43 0 0 1 6 9l-2-3a35 35 0 0 1 3 8l-1-4a29 29 0 0 1 0 7l26-10a26 26 0 0 1-3-3l2 3a26 26 0 0 1-3-6l2 4a27 27 0 0 1-2-7l1 4a26 26 0 0 1 0-6l-1 4v-1a15 15 0 0 0 0-8 11 11 0 0 0-2-5c-3-4-7-6-12-6a24 24 0 0 0-13 4l-8 7 3-3a16 16 0 0 1-3 2l4-1a10 10 0 0 1-3 0h4a11 11 0 0 1-3 0h4a14 14 0 0 1-3-1l4 2a17 17 0 0 1-3-2l3 2a21 21 0 0 1-3-3l2 3a65 65 0 0 1-6-9l-5-11-10-23 1 4-3-9a34 34 0 0 1-3-7l1 4v-1a11 11 0 0 0-1-5 11 11 0 0 0-3-5l-3-3 5 6a10 10 0 0 1-1-2l1 3-1-4 1 4v-1 3a5 5 0 0 1 0-1v3l-1 3v-1l-7 6 1-1-4-1 2 5 4 1a3 3 0 0 0 2-4z"/><path d="M180 224a8 8 0 0 0-1 0s-1 1 0 0l-2 1a10 10 0 0 0-3 4l1-2a42 42 0 0 0-2 4l1-2 2-1a17 17 0 0 0-2 1 26 26 0 0 0-2 3l1-2-3 4 2-3a42 42 0 0 0-3 5l-2 2a18 18 0 0 0-3 10 11 11 0 0 0 17 9 20 20 0 0 0 3-2l-2 2 1-1a17 17 0 0 0 5-5l2-4a20 20 0 0 0 2-8l-2-7-4-4 2 1a23 23 0 0 0-4-3l2 1-2-1h1v4a2 2 0 0 1-1 1 4 4 0 0 0-4-7zm-73-69 1-1-2 1a23 23 0 0 1 5-2l-3 1c6-3 12-3 18-5h-7 8a34 34 0 0 0 4-2l3-1a56 56 0 0 0 5-3 148 148 0 0 0 12-10l20-16-3 2a287 287 0 0 1 26-18 215 215 0 0 1 27-14l-3 2a73 73 0 0 1 18-6l-4 1a41 41 0 0 1 11 0l-4-1a31 31 0 0 1 7 2l-4-1a28 28 0 0 1 6 3l-3-2a18 18 0 0 1 3 3l-2-3a13 13 0 0 1 1 2l-1-3a11 11 0 0 1 0 2v-4a10 10 0 0 1 0 2v-4a11 11 0 0 1 0 2l1-4a13 13 0 0 1-1 3l2-3a19 19 0 0 1-3 3l3-2a36 36 0 0 1-8 4l4-1a72 72 0 0 1-18 4h4c-17 2-34 1-50 5-11 3-15 17-7 25 12 12 29 13 44 9 14-3 27-12 37-21a109 109 0 0 0 16-19c3-4 3-9 1-14a14 14 0 0 0-9-8 80 80 0 0 0-36 0 79 79 0 0 0-17 6c-6 3-12 7-15 13a24 24 0 0 0-2 16c1 4 3 8 6 11l11 7a36 36 0 0 0 11 2 87 87 0 0 0 19-1 34 34 0 0 0 18-9 35 35 0 0 0 4-5 15 15 0 0 0 1-2 28 28 0 0 0 2-6 25 25 0 0 0 1-7c0-4-1-8-4-12s-5-6-9-8c-5-3-10-3-16-2a15 15 0 0 0-11 11 26 26 0 0 0-1 7 36 36 0 0 0 4 14 46 46 0 0 0 4 6 141 141 0 0 0 11 15 44 44 0 0 0 5 5 47 47 0 0 0 9 6 42 42 0 0 0 9 3 35 35 0 0 0 10 1 37 37 0 0 0 13-3 39 39 0 0 0 8-6 61 61 0 0 0 12-12 17 17 0 0 0 2-6 20 20 0 0 0 0-9 16 16 0 0 0-1-5 22 22 0 0 0-10-8c-12-5-24-10-36-11a57 57 0 0 0-11 1l-4 1a11 11 0 0 0-4 4 14 14 0 0 0-3 9 18 18 0 0 0 2 8 15 15 0 0 0 8 7 192 192 0 0 1 36 11l-3-2a194 194 0 0 1 20 11 15 15 0 0 0 20-4 14 14 0 0 0 3-9c0-4-2-8-5-11l-58-49-14 25a54 54 0 0 1 7 2l-4-2a83 83 0 0 1 18 11l-3-2c10 8 19 17 30 24a74 74 0 0 0 8 4 62 62 0 0 0 11 5 28 28 0 0 0 21-2 23 23 0 0 0 11-14 21 21 0 0 0 0-11 26 26 0 0 0-6-10 66 66 0 0 0-7-7 140 140 0 0 0-19-13 131 131 0 0 0-41-16c-6-1-13-2-19 2a18 18 0 0 0-8 14 21 21 0 0 0 2 11l8 9a83 83 0 0 0 8 7 90 90 0 0 0 11 8 75 75 0 0 0 12 5 58 58 0 0 0 13 3 43 43 0 0 0 9 0c9-1 17-3 24-8a39 39 0 0 0 11-11 27 27 0 0 0 4-15 27 27 0 0 0-7-17 23 23 0 0 0-9-6c-5-2-10-1-14 1a17 17 0 0 0-8 9 21 21 0 0 0-1 13l5 11 24 40 12 19 7 9c3 4 6 8 11 10 4 2 6 3 10 3 5 0 9-2 13-6a15 15 0 0 0 4-10v-4a15 15 0 0 0-4-7l-23-27-12-14-11-12 2 3a36 36 0 0 1-4-7l1 3a22 22 0 0 1-1-6v4-1l-7 13-3 2a5 5 0 0 1 1-1l-4 1a6 6 0 0 1 1 0l-4-1a7 7 0 0 1 2 1l-4-2a11 11 0 0 1 2 1l-3-2a20 20 0 0 1 3 3l-2-3a198 198 0 0 1 24 43l-1-4c6 16 10 34 23 46a15 15 0 0 0 13 4c4-1 8-3 10-7a31 31 0 0 0 4-14 35 35 0 0 0-2-11 78 78 0 0 0-8-17 189 189 0 0 0-21-27 186 186 0 0 0-25-23c-5-4-11-6-18-7a20 20 0 0 0-6 1 18 18 0 0 0-6 2 20 20 0 0 0-9 17c-1 6 2 12 4 17a131 131 0 0 0 7 16 120 120 0 0 0 20 26 131 131 0 0 0 14 11 71 71 0 0 0 16 9 39 39 0 0 0 22 2 35 35 0 0 0 9-3 41 41 0 0 0 8-6 48 48 0 0 0 6-8 35 35 0 0 0 4-5 61 61 0 0 0 3-10 63 63 0 0 0 2-10c1-11-1-23-6-33a62 62 0 0 0-10-14 43 43 0 0 0-5-5 51 51 0 0 0-9-6 40 40 0 0 0-10-4 34 34 0 0 0-10-1 49 49 0 0 0-7 1 40 40 0 0 0-6 3 27 27 0 0 0-8 5c-10 10-11 25-9 38a111 111 0 0 0 3 19 110 110 0 0 0 7 19c3 5 6 10 10 13s7 6 12 7a27 27 0 0 0 13-1c13-3 22-17 24-30a68 68 0 0 0 1-11 70 70 0 0 0-1-10 55 55 0 0 0-6-17l-2-3a23 23 0 0 0-3-4 16 16 0 0 0-11-5 18 18 0 0 0-15 9c-4 7-4 14-2 21q9 35 20 68l6 17a16 16 0 0 0 7 8 15 15 0 0 0 21-16l-13-55c-2-7-11-13-18-10a21 21 0 0 0-9 5 22 22 0 0 0-5 8 29 29 0 0 0-1 7 23 23 0 0 0 0 3l1 20-1 41-3 23 1-4c-1 8-2 16-5 23l1-3a34 34 0 0 1-4 7h26l-2-5 1 4a63 63 0 0 1-4-16l1 4c-2-12-1-24-1-36l4-38v4l8-51c0-4 0-8-2-12a15 15 0 0 0-7-6 14 14 0 0 0-9 0c-4 1-8 3-9 6a71 71 0 0 0-5 16 76 76 0 0 0-2 16 73 73 0 0 0 8 31 15 15 0 0 0 9 7 16 16 0 0 0 11-2c8-4 11-13 12-21l-1-16a198 198 0 0 0-22-70c-2-5-6-10-10-14a34 34 0 0 0-11-7h-13c-7 1-14 7-17 13s-5 13-6 21a80 80 0 0 0 1 20 119 119 0 0 0 5 17l6 15a143 143 0 0 0 7 17 62 62 0 0 0 10 14c5 5 11 10 18 11 4 1 9 1 13-1a24 24 0 0 0 13-10c4-6 4-13 4-19a130 130 0 0 0-8-37l-5-10c-2-4-7-7-11-7a11 11 0 0 0-6 0 15 15 0 0 0-6 4 25 25 0 0 0-4 4 15 15 0 0 0-2 3 44 44 0 0 0-3 9l-3 14-5 30c-3 22-5 43-6 65v34h29a454 454 0 0 1-2-41l1-13v4a85 85 0 0 1 5-20l-1 3a101 101 0 0 1 2-4l-28-7v4-4l-2 15 1-3a693 693 0 0 1-17 83l-6 24a15 15 0 0 0 10 18c8 2 16-3 18-11a687 687 0 0 0 22-95l4-31-1-4a11 11 0 0 0-3-5 14 14 0 0 0-7-5 17 17 0 0 0-8 0c-3 0-7 3-9 6a102 102 0 0 0-6 18 165 165 0 0 0-4 50l2 18c0 4 1 8 4 11a15 15 0 0 0 11 4c8 0 14-7 14-15a643 643 0 0 1 4-72l2-21v4l4-27 2-13 3-11-2 3a15 15 0 0 1 2-3l-2 3a12 12 0 0 1 2-1l-24-3 3 4-2-3a119 119 0 0 1 8 30v-4a47 47 0 0 1 0 12l1-4a16 16 0 0 1-1 4l1-4a11 11 0 0 1-1 2l2-3a10 10 0 0 1-1 1l3-2a10 10 0 0 1-2 1l4-1a11 11 0 0 1-3 0h4a13 13 0 0 1-2 0h4a17 17 0 0 1-5-1l4 2a22 22 0 0 1-4-3l3 2a39 39 0 0 1-7-6l2 3a69 69 0 0 1-8-16l1 4-7-19a118 118 0 0 1-5-22v4a61 61 0 0 1 0-16l-1 4a35 35 0 0 1 3-9l-2 4a21 21 0 0 1 2-4l-2 3a15 15 0 0 1 3-3l-3 3a13 13 0 0 1 2-2l-4 2a12 12 0 0 1 3-1l-4 1a11 11 0 0 1 2 0l-4-1a12 12 0 0 1 3 1l-3-2a17 17 0 0 1 3 2l-3-2a27 27 0 0 1 5 5l-3-3c5 6 8 13 11 20l-2-3a189 189 0 0 1 13 47v-4l1 11a43 43 0 0 1 0 8l1-4a15 15 0 0 1-1 4l1-4a10 10 0 0 1-1 2l2-3a9 9 0 0 1-1 1l3-2a11 11 0 0 1-1 1l20 5-1-4 1 4a57 57 0 0 1-3-14v4a59 59 0 0 1 0-15v4a57 57 0 0 1 3-14l-1 3v-1l-27-11a1319 1319 0 0 0-12 93 235 235 0 0 0-1 29c1 12 3 24 9 34a15 15 0 0 0 26 0c5-6 7-14 9-22l3-27a415 415 0 0 0 2-50v-26l-1 4a12 12 0 0 1 1-2l-2 3a8 8 0 0 1 1-1l-2 3a6 6 0 0 1 1-1l-3 2a6 6 0 0 1 1 0l-4 1-18-10 14 55 28-8q-12-34-21-69l-3-10a87 87 0 0 1-2-9v4a15 15 0 0 1 0-4v4a10 10 0 0 1 0-2l-1 4a7 7 0 0 1 0-1l-2 3a6 6 0 0 1 1-1l-3 3a3 3 0 0 1 0-1l-3 2a3 3 0 0 1 0-1l-3 1a4 4 0 0 1 1 0l-13-7a44 44 0 0 1 4 7l-2-3a46 46 0 0 1 3 11v-4a45 45 0 0 1 0 11v-3a39 39 0 0 1-2 9l1-4a27 27 0 0 1-3 6l2-3a21 21 0 0 1-3 3l3-2a15 15 0 0 1-3 2l3-1a13 13 0 0 1-3 0h4a12 12 0 0 1-2 0h4a13 13 0 0 1-3-1l3 2a15 15 0 0 1-2-2l3 3a21 21 0 0 1-4-4l2 3a55 55 0 0 1-6-12l1 4a90 90 0 0 1-6-23l1 4a73 73 0 0 1-1-19v4a27 27 0 0 1 2-6l-2 3a19 19 0 0 1 2-3l-2 3a17 17 0 0 1 3-3l-3 2a18 18 0 0 1 3-2l-3 2a21 21 0 0 1 4-2l-4 1a22 22 0 0 1 6 0l-4-1a25 25 0 0 1 6 2l-3-1a34 34 0 0 1 6 4l-3-3a46 46 0 0 1 8 8l-2-3a50 50 0 0 1 6 11l-1-3a50 50 0 0 1 3 12l-1-4a46 46 0 0 1 0 11l1-3a41 41 0 0 1-3 10l2-4a36 36 0 0 1-5 8l3-3a31 31 0 0 1-5 5l3-2a25 25 0 0 1-6 3l4-2a22 22 0 0 1-5 2l3-1a23 23 0 0 1-5 0l4 1a31 31 0 0 1-8-2l4 1a64 64 0 0 1-14-8l3 2a106 106 0 0 1-18-19l2 3a107 107 0 0 1-14-23l2 4-4-12v4a12 12 0 0 1 0-3v4a9 9 0 0 1 1-2l-2 4a8 8 0 0 1 1-1l-3 3a7 7 0 0 1 1-1l-3 2a6 6 0 0 1 2-1l-4 2a8 8 0 0 1 1-1l-4 1a10 10 0 0 1 3 0l-4-1a16 16 0 0 1 4 1l-4-1a33 33 0 0 1 7 4l-3-2a170 170 0 0 1 30 30l-3-3c6 8 12 16 16 25l-2-4a30 30 0 0 1 3 8l-1-4a19 19 0 0 1 0 4l1-4a15 15 0 0 1-1 4l1-4v1l23-3a39 39 0 0 1-4-5l2 3a60 60 0 0 1-7-13l2 4-6-15-8-20a204 204 0 0 0-18-30l-5-6a30 30 0 0 0-6-5 18 18 0 0 0-7-3 19 19 0 0 0-5-1c-4 0-5 1-9 3s-8 8-7 12a39 39 0 0 0 7 21 165 165 0 0 0 12 14l24 27 13 16v-21 1l3-3a6 6 0 0 1-1 1l3-2a6 6 0 0 1-1 1l4-1a7 7 0 0 1-1 0l4 1a9 9 0 0 1-2-1l4 2a13 13 0 0 1-3-2l3 2a20 20 0 0 1-3-3l2 3-9-14-9-14q-10-14-18-29l-5-8a81 81 0 0 1-4-8l1 3a12 12 0 0 1-1-3l1 4a8 8 0 0 1 0-1l-1 4a6 6 0 0 1 1-1l-2 3-2 3a4 4 0 0 1 1-1l-3 2a3 3 0 0 1 1 0l-4 1-3 1a5 5 0 0 1 1 0l-4-1a7 7 0 0 1 1 1l-3-2a11 11 0 0 1 1 1l-3-2a11 11 0 0 1 2 1l-3-3a11 11 0 0 1 2 3l-2-4a12 12 0 0 1 1 3v-4a13 13 0 0 1 0 3v-4a15 15 0 0 1-1 3l2-3a18 18 0 0 1-3 3l3-3a25 25 0 0 1-4 4l3-2a32 32 0 0 1-7 4l3-1a37 37 0 0 1-8 2l4-1a42 42 0 0 1-11 0l4 1a46 46 0 0 1-12-3l4 1a62 62 0 0 1-14-8l3 2a74 74 0 0 1-12-12l2 3a12 12 0 0 1-1-2l2 4a9 9 0 0 1-1-2l1 4a6 6 0 0 1 0-1l-1 4a3 3 0 0 1 0-1l-1 4a2 2 0 0 1 0-1l-2 3-3 2a3 3 0 0 1 1 0l-4 1a4 4 0 0 1 1 0l-4 1a9 9 0 0 1 2 0l-4-1a115 115 0 0 1 27 8l-3-1a120 120 0 0 1 26 15l-3-2 11 10-2-3a11 11 0 0 1 1 2l-1-4a7 7 0 0 1 0 2v-4a8 8 0 0 1 0 1v-4a8 8 0 0 1 0 2l1-4a10 10 0 0 1 0 2l2-3a11 11 0 0 1-2 1l3-2a10 10 0 0 1-2 1l4-1a12 12 0 0 1-3 1l4-1a16 16 0 0 1-3 0l4 1a31 31 0 0 1-8-3l4 2a85 85 0 0 1-18-11l3 2c-17-13-31-28-52-33-6-2-13 1-16 7a18 18 0 0 0-2 7c0 4 1 8 4 11l58 49 18-23a204 204 0 0 0-60-23v28h1l-3 1a40 40 0 0 1 9 0l-4-1a69 69 0 0 1 17 5l-3-1 6 3a32 32 0 0 1 5 2l-3-2a4 4 0 0 1 1 1l-2-3-1-3a3 3 0 0 1 0 1l-1-4 1-4a5 5 0 0 1-1 2l2-4a12 12 0 0 1-1 1l2-3a55 55 0 0 1-9 10l3-2a24 24 0 0 1-5 3l4-2a20 20 0 0 1-5 2l4-1a22 22 0 0 1-5 0l4 1a27 27 0 0 1-7-2l4 1a31 31 0 0 1-7-4l3 3a53 53 0 0 1-8-10l2 3-10-14 2 3a19 19 0 0 1-1-4v4a14 14 0 0 1 0-3v4-2l-10 11a9 9 0 0 1 1 0h-4a8 8 0 0 1 1 0h-3a9 9 0 0 1 2 0l-4-2a11 11 0 0 1 2 2l-3-3a12 12 0 0 1 2 2l-3-3a11 11 0 0 1 2 2l-2-3a10 10 0 0 1 1 2l-1-4a10 10 0 0 1 0 2l1-4a12 12 0 0 1-1 3l2-4a14 14 0 0 1-2 3l2-3a18 18 0 0 1-3 3l3-2a19 19 0 0 1-3 2l3-1a28 28 0 0 1-6 1h4a66 66 0 0 1-17 0h4a20 20 0 0 1-5-1l4 2a14 14 0 0 1-3-2l3 2a14 14 0 0 1-2-2l2 3a12 12 0 0 1-1-2l1 4a10 10 0 0 1 0-3v4a9 9 0 0 1 0-1v4a10 10 0 0 1 0-2l-1 3a11 11 0 0 1 1-2l-2 3a15 15 0 0 1 2-2l-3 2a41 41 0 0 1 9-5l-4 2a65 65 0 0 1 16-4h-4a65 65 0 0 1 17 0h-4l6 1-9-22-3 4 2-3a94 94 0 0 1-16 16l3-2a85 85 0 0 1-18 11l3-2a53 53 0 0 1-13 4l4-1a37 37 0 0 1-10 0l4 1a27 27 0 0 1-6-2l3 2a23 23 0 0 1-4-3l3 2a24 24 0 0 1-3-2l-6 25a88 88 0 0 1 12-2h-4c16-2 32-1 48-5a75 75 0 0 0 14-6 33 33 0 0 0 11-8 28 28 0 0 0 6-9 23 23 0 0 0 0-12c-1-6-5-11-9-14a44 44 0 0 0-15-9 46 46 0 0 0-13-2 70 70 0 0 0-25 5 224 224 0 0 0-69 43l-20 17 3-2a67 67 0 0 1-6 4 44 44 0 0 1-4 2h-1c-4 2-6 6-7 10l6-9-12 6a38 38 0 0 0-13 12 11 11 0 0 0-2 9 12 12 0 0 0 4 5c5 4 11 3 15 0z"/><path d="m355 287-7 2 9 2-3-2a10 10 0 0 0-6 0 13 13 0 0 0-7 4l-9 8-9 8 3-2a79 79 0 0 0-6 6l-4 3-8 7q-7 7-16 13l3-2q-11 9-23 16l18 24 58-47 16-14 3-3a11 11 0 0 0 1-6 14 14 0 0 0-1-9 18 18 0 0 0-6-5 11 11 0 0 0-5-2 11 11 0 0 0-6 0 179 179 0 0 0-39 20c-13 9-24 19-36 29l-19 16 24 18 1-2-2 3c14-18 31-33 48-47l15-12a17 17 0 0 0 5-10 15 15 0 0 0-3-9 14 14 0 0 0-8-6h-4a15 15 0 0 0-8 2 293 293 0 0 0-68 43l-17 15a15 15 0 0 0-4 11 15 15 0 0 0 3 9 14 14 0 0 0 8 5c4 1 8 1 11-1a352 352 0 0 0 39-31l10-9a15 15 0 0 0 4-11 15 15 0 0 0-3-9 14 14 0 0 0-8-5c-3-1-8-1-11 2l-58 38-16 11 14 25 41-27c3-2 6-5 6-8l1-4a11 11 0 0 0-1-6 14 14 0 0 0-6-7c-4-2-8-3-12-2l-30 12a85 85 0 0 0-23 17 59 59 0 0 0-10 14l-2 4a11 11 0 0 0 0 6 14 14 0 0 0 4 8 17 17 0 0 0 7 4c3 1 8 0 11-1a146 146 0 0 0 25-17 125 125 0 0 0 19-19 16 16 0 0 0 5-10 15 15 0 0 0-3-9 14 14 0 0 0-8-5l-4-1a14 14 0 0 0-7 2c-24 11-42 31-55 53-7 11-12 23-17 35l-2 4a51 51 0 0 0-3 7 22 22 0 0 0 0 11 18 18 0 0 0 7 10c6 5 15 5 22 1a40 40 0 0 0 9-8l14-19 12-17-2 3c11-14 23-27 37-38l-3 2 7-5-21-9a15 15 0 0 1 1 3v-3a18 18 0 0 1-1 4l1-4a64 64 0 0 1-2 8 62 62 0 0 0 6 45 59 59 0 0 0 6 9 21 21 0 0 0 5 4 19 19 0 0 0 9 3c6 0 11-3 15-6a38 38 0 0 0 8-9l-2 3a80 80 0 0 0 9-13l3-5a51 51 0 0 0 3-8l-1 2a121 121 0 0 0 6-17 12 12 0 0 0-8-14 12 12 0 0 0-7 0 46 46 0 0 0-7 3 48 48 0 0 0-6 5l3-2c-4 2-8 7-10 11a65 65 0 0 0-6 11 52 52 0 0 0-3 9 103 103 0 0 0-1 5 52 52 0 0 0-1 8l1-4v1a13 13 0 0 0 1 10 12 12 0 0 0 16 4c3-2 5-4 6-7a78 78 0 0 1 2-11 98 98 0 0 1 4-10l-1 3a44 44 0 0 1 5-10l-2 3 5-7-2 3a32 32 0 0 1 3-2l-2 2a28 28 0 0 1 4-3l-17-14a67 67 0 0 1-4 14l1-3a69 69 0 0 1-9 14l2-2a62 62 0 0 1-10 10l3-2a16 16 0 0 1-4 2l4-1a10 10 0 0 1-2 0h3a7 7 0 0 1-2 0h4a7 7 0 0 1-1 0l3 1a7 7 0 0 1-1 0l2 2a10 10 0 0 1-1-2l2 3a45 45 0 0 1-5-9l2 4a50 50 0 0 1-4-13l1 4a49 49 0 0 1 0-13l-1 4 3-12c1-6 2-13-1-19a14 14 0 0 0-4-6 16 16 0 0 0-10-4 15 15 0 0 0-7 2 206 206 0 0 0-32 27 337 337 0 0 0-27 33l-13 18 3-3a45 45 0 0 1-8 8l3-3a12 12 0 0 1-3 2l4-2a9 9 0 0 1-2 1l4-1a6 6 0 0 1-1 0l4 1a5 5 0 0 1-1 0l4 1a4 4 0 0 1-1 0l3 2a4 4 0 0 1-1-1l3 3a5 5 0 0 1-1 0l2 3a6 6 0 0 1-1-1l1 4a8 8 0 0 1 0-2v4a15 15 0 0 1 0-3l-1 4c7-16 14-32 23-47l8-11-2 3a117 117 0 0 1 20-21l-3 3a81 81 0 0 1 16-10l-3 1 4-1-3 1-14-24a133 133 0 0 1-21 19l3-2a130 130 0 0 1-21 13l20 20a45 45 0 0 1 5-8l-2 3a56 56 0 0 1 10-10l-3 3a85 85 0 0 1 19-11l-4 1 21-7-11-27-40 27a16 16 0 0 0-7 9 15 15 0 0 0 1 11c2 3 5 6 9 7s8 1 11-1l58-39 17-11-18-23a328 328 0 0 1-30 26l3-2-16 11 18 23a283 283 0 0 1 26-22l-3 2a281 281 0 0 1 43-27l13-7-18-23a444 444 0 0 0-67 64 11 11 0 0 0-2 6 11 11 0 0 0 0 6 15 15 0 0 0 6 7 14 14 0 0 0 9 3h4a15 15 0 0 0 6-4l23-19 21-18-3 3a171 171 0 0 1 38-23l-4 2 6-2-15-25-58 48-16 13a17 17 0 0 0-5 10 15 15 0 0 0 4 9 14 14 0 0 0 7 5c4 1 8 1 12-1a391 391 0 0 0 53-42l6-6a108 108 0 0 0 8-10l-2 3 8-9 2-3a10 10 0 0 0 2-5 13 13 0 0 0-2-9l1 10 2-9c0-3 0-5-2-7a7 7 0 0 0-7-2z"/><path d="M281 379c0-5-4-8-8-8a14 14 0 0 0-9 2l3-1a10 10 0 0 0-5 3l-2 2 1-2-5 6 2-2-7 8-2 4 2-3-7 10 3-2-3 3a22 22 0 0 0-1 3l-1 2-1 4a104 104 0 0 0-3 7 14 14 0 0 0 3 12 11 11 0 0 0 4 4 14 14 0 0 0 7 2 16 16 0 0 0 6-1 17 17 0 0 0 2-1 19 19 0 0 0 3-1 26 26 0 0 0 7-7 124 124 0 0 0 7-10 144 144 0 0 0 12-24l4-12 1-4a11 11 0 0 0-2-6 14 14 0 0 0-5-7 17 17 0 0 0-8-2 16 16 0 0 0-10 5 62 62 0 0 0-2 1l3-2c-6 4-10 10-14 15a86 86 0 0 0-8 16l2-3a81 81 0 0 0-5 11 93 93 0 0 0-2 12c-1 9-1 18 6 25a19 19 0 0 0 9 5 22 22 0 0 0 15-2l9-8a99 99 0 0 0 14-17 98 98 0 0 0 10-21 15 15 0 0 0 0-8 11 11 0 0 0-3-5 15 15 0 0 0-11-6c-6 0-11 3-15 6a37 37 0 0 0-6 9l-9 16-17 31-9 17a15 15 0 0 0 1 17 15 15 0 0 0 6 4 15 15 0 0 0 9 1c11-3 20-10 27-19l-26-10 1-4a32 32 0 0 1-2 8l1-4a53 53 0 0 1-7 12l2-3-18 23a112 112 0 0 0-14 28 98 98 0 0 0-3 15 11 11 0 0 0-1 6 11 11 0 0 0 2 6 15 15 0 0 0 9 7c4 0 8 0 11-2 4-2 7-5 7-9l11-59 2-17a11 11 0 0 0 1-6 11 11 0 0 0-2-6 15 15 0 0 0-9-7c-4-1-8 0-12 2l-3 2a15 15 0 0 0-3 7l-16 38 29 8 19-58 6-16a11 11 0 0 0 0-6 11 11 0 0 0-2-6l-2-3a11 11 0 0 0-5-3 14 14 0 0 0-9-1 16 16 0 0 0-9 7 412 412 0 0 0-32 63l-6 17c-1 4-1 9 1 12a15 15 0 0 0 9 7c4 0 8 0 12-2l3-2a15 15 0 0 0 3-7l15-35 14-34a133 133 0 0 0 6-20v-4a11 11 0 0 0-1-6 14 14 0 0 0-6-7 18 18 0 0 0-8-2c-4 0-7 2-10 5a143 143 0 0 0-41 74 62 62 0 0 0-2 8l1 8v-6a17 17 0 0 0 0 8v2a26 26 0 0 0 2 6l-1-6a12 12 0 0 0 0 5l1 1v2a18 18 0 0 0 2 5v-3h-1a4 4 0 0 0 8 2h1l-2 2a17 17 0 0 0 3-3l2-2a13 13 0 0 0 3-5l-4 5a27 27 0 0 0 5-4l1-2a17 17 0 0 0 4-7l-3 6 4-7a47 47 0 0 0 3-7l-1 3 6-16 5-13-2 4a129 129 0 0 1 17-29l-3 3a95 95 0 0 1 13-13l-25-15c-2 12-7 23-11 34l-15 35-8 20 28 8 9-23-1 3a388 388 0 0 1 20-41l7-12-27-11-19 58-6 16c-1 4 0 9 2 12a15 15 0 0 0 9 7c4 0 8 0 11-2l3-2a15 15 0 0 0 4-7l15-38-28-8q-4 30-10 59l-3 17 28 8a99 99 0 0 1 7-23l-2 4a99 99 0 0 1 13-22l-2 3 16-19a51 51 0 0 0 5-9 60 60 0 0 0 4-9 53 53 0 0 0 1-8v-4l-2-4a15 15 0 0 0-7-6 7 7 0 0 0-4-1 8 8 0 0 0-4 0c-3 0-6 2-8 4a73 73 0 0 1-11 11l3-3a29 29 0 0 1-6 4l4-2a25 25 0 0 1-4 1l17 22 30-54 4-8a52 52 0 0 1 4-6l-2 3a12 12 0 0 1 2-2l-3 2a8 8 0 0 1 1-1l-4 2a6 6 0 0 1 2-1l-4 1a6 6 0 0 1 1 0l-15-19a92 92 0 0 1-2 5l2-3a82 82 0 0 1-11 18l3-3a71 71 0 0 1-12 12l3-3a14 14 0 0 1-3 2l4-1a9 9 0 0 1-2 0h4a7 7 0 0 1-1 0h4a6 6 0 0 1-1 0l3 1 3 2a6 6 0 0 1-1-1l2 3a7 7 0 0 1-1-1l2 4a11 11 0 0 1-1-3l1 4a41 41 0 0 1 0-10v4a70 70 0 0 1 5-18l-2 4a68 68 0 0 1 9-15l-3 3 8-9-2 3 1-2-24-14a83 83 0 0 1-5 15l2-3a123 123 0 0 1-15 26l2-3a18 18 0 0 1-3 3l3-2a9 9 0 0 1-2 1l4-1a8 8 0 0 1-2 0h4a8 8 0 0 1-1 0l13 18 2-8 1-3 1-2a18 18 0 0 0 1-5l-1 4 2-8-1 3 4-11-1 3 1-2a13 13 0 0 0 1-5v3l2-6-1 3a15 15 0 0 1 1-2 10 10 0 0 0 1-4 16 16 0 0 0 0-4v4-1l-1 2a7 7 0 0 1 1-1l-1 1 1-1-1 1-1 1h-4c1 0 1 0 0 0a4 4 0 0 1-2-1 7 7 0 0 0 11-5zM146 543v1l1-6 2-2h-1a14 14 0 0 0-3 6 15 15 0 0 0 0 8l2 8 5 9a54 54 0 0 0 10 14 60 60 0 0 0 7 6 38 38 0 0 0 5 3 51 51 0 0 0 15 6 59 59 0 0 0 10 1 57 57 0 0 0 11-2c5-1 9-5 10-10a37 37 0 0 0 1-17 37 37 0 0 0-3-9 23 23 0 0 0-3-4 35 35 0 0 0-6-7 43 43 0 0 0-8-5 59 59 0 0 1-10-6l3 3a46 46 0 0 1-7-8l2 3a75 75 0 0 1-9-17l1 4-6-19a15 15 0 0 0-6-7 14 14 0 0 0-9-4 18 18 0 0 0-7 2 15 15 0 0 0-7 9 87 87 0 0 0-1 35l27-11-1-3 2 3a126 126 0 0 1-9-31l1 3a41 41 0 0 1-1-9v4a18 18 0 0 1 1-5l-2 4a29 29 0 0 1 4-7l-2 3a99 99 0 0 1 14-14h-21l-2-3a10 10 0 0 1 1 2l-1-4a7 7 0 0 1 0 2l-1-4a7 7 0 0 1 0 2l1-4a7 7 0 0 1 0 1l1-3 25 4v-2h-1a15 15 0 0 0-3-6l3 11a26 26 0 0 0 1-6l-1 6 2-5-16-2a16 16 0 0 0 1 3l-1-4v43c1 5 2 11 6 15a13 13 0 0 0 10 4 7 7 0 0 0 1 0q2 0 0 0h1a8 8 0 0 0 3-1 12 12 0 0 0 3-3c1-2 0-6-3-7v1a3 3 0 0 0 0-1v1a10 10 0 0 0-1-1l-1-1q1 0 0 0h-1 1a4 4 0 0 1-1 0 20 20 0 0 0-2-2h1-1 1-1v-1c-1-1 0 1 0 0a32 32 0 0 1-1-5v2a162 162 0 0 1 0-37l-1 2a67 67 0 0 0 3-7l-3 3a16 16 0 0 0 2-2c2-4 2-9-1-11a9 9 0 0 0-11-2 15 15 0 0 0-2 2 26 26 0 0 0-4 3l2-1a18 18 0 0 0-4 2 12 12 0 0 0-1 1l8-3-8 2a14 14 0 1 0 16 22c4-3 6-8 6-13a19 19 0 0 0 0-6c-1-4-3-6-5-8a11 11 0 0 0-5-3 11 11 0 0 0-5-2l-4 1a15 15 0 0 0-7 4 100 100 0 0 0-11 11c-5 5-9 11-11 18-2 8-1 15 0 23a124 124 0 0 0 3 16 152 152 0 0 0 8 20 16 16 0 0 0 9 6l4 1a11 11 0 0 0 5-1 14 14 0 0 0 8-6l1-4a15 15 0 0 0 0-8v-1 4a76 76 0 0 1 0-20v4l1-6h-29a182 182 0 0 0 11 28 68 68 0 0 0 6 11 75 75 0 0 0 7 7 69 69 0 0 0 7 6 42 42 0 0 0 7 4 49 49 0 0 1 7 4l-3-2a22 22 0 0 1 4 3l-3-3a23 23 0 0 1 3 5l-1-3a23 23 0 0 1 1 5v-4a22 22 0 0 1 0 6v-4a20 20 0 0 1 0 3l10-10a44 44 0 0 1-3 0l4-1a37 37 0 0 1-9 0l4 1a40 40 0 0 1-10-3l3 2a40 40 0 0 1-8-5l3 2a37 37 0 0 1-6-6l2 3a62 62 0 0 1-7-14l1 4-5-11a14 14 0 0 0-12-7h-1 4-1l5 3a15 15 0 0 0-5-3 12 12 0 0 0-8 0 11 11 0 0 0-5 4 6 6 0 0 0-1 2 9 9 0 0 0-1 5zm47-25v6a29 29 0 0 0 2 6l1 3a14 14 0 0 0 1 3l2 2a13 13 0 0 0 2 2h1a42 42 0 0 0-1-6 26 26 0 0 0-1-2l-1-3-2-6-1-2a30 30 0 0 1-1-3 1 1 0 0 0-2 0zm272-339a13 13 0 0 0 0 1 5 5 0 0 0-1 1l-1 6-1 7v-2a150 150 0 0 1-5 25l-9 24 1-3a250 250 0 0 1-19 37l-26 34-7 11a39 39 0 0 0-4 8c-1 6 0 11 3 16l-2-7a13 13 0 0 1 0 3v-4l-2 8 1-3a24 24 0 0 0-2 5 14 14 0 0 0 0 4v-2a17 17 0 0 0 0 4 26 26 0 0 0 0 4l1-6a16 16 0 0 0-2 4v1s0 1 0 0v1h-1l-1 3c-2 3-4 6-4 10a4 4 0 0 0 4 3c4-1 6-4 9-7l3-3h-1 1a8 8 0 0 0 1 0 16 16 0 0 0 2-3l-5 2a22 22 0 0 0 4 0 17 17 0 0 0 4-2l-2 1 8-5-2 2a24 24 0 0 0 11-20l-1 4 1-3-1 3 2-6-1 4a58 58 0 0 1 4-8 179 179 0 0 1 15-20l19-27a173 173 0 0 0 8-18 148 148 0 0 0 5-15 155 155 0 0 0 6-34v-31a12 12 0 0 0-1-5 24 24 0 0 0-2-3l1 3-1-2c-1-2-2-4-5-4a5 5 0 0 0-5 4zM82 70h-1l2 1a9 9 0 0 0-6-4 14 14 0 0 0-5 0l-1 1h-1 2-4 3a15 15 0 0 0-6 1l3-1-6 3 2-1-9 5-9 7a132 132 0 0 0-11 17c-7 12-13 26-18 39l-8 20a70 70 0 0 0-2 14 68 68 0 0 0 1 12c2 16 8 30 15 45 6 14 14 28 25 40a15 15 0 0 0 7 4 11 11 0 0 0 6 0 11 11 0 0 0 5-2 15 15 0 0 0 5-5 24 24 0 0 0 2-5c1-4 1-8-1-12a15 15 0 0 0-9-6c-4-1-8-1-11 1-4 2-7 5-7 9a9 9 0 0 1-1 1l2-3 23-3-5-6 2 3c-8-11-14-23-20-36l2 4c-5-11-9-23-11-35l1 4a57 57 0 0 1-1-14v4c1-10 6-19 9-28l-1 3c5-13 11-26 18-38a100 100 0 0 1 7-10l-3 3a38 38 0 0 0 4-4l1-3a38 38 0 0 1 3-4l-2 3 5-7-2 3 2-3a54 54 0 0 0 3-4l-1 2 1-2a13 13 0 0 0 3-4 15 15 0 0 1 0-1l-1 2 1-1a9 9 0 0 0 0-6v4-1c1-3 0-5-2-6z"/><path d="M43 251v2a6 6 0 0 0 0-5v-1 2-1 2a10 10 0 0 0 0-3 12 12 0 0 0-1-4l1 2-5-15a83 83 0 0 1-4-16l1 3-2-8 1 3a101 101 0 0 1-1-26v4c1-9 4-18 8-27l10-30 1-4-1-4a15 15 0 0 0-5-8 7 7 0 0 0-3-2 7 7 0 0 0-4-1 8 8 0 0 0-4 0 11 11 0 0 0-6 2 26 26 0 0 0-5 3 42 42 0 0 0-7 6c-4 5-7 10-9 16v4a11 11 0 0 0 1 6 14 14 0 0 0 6 7 17 17 0 0 0 8 2c3 0 7-2 10-4a18 18 0 0 0 2-3 11 11 0 0 0 3-4 11 11 0 0 0 1-6 15 15 0 0 0-3-8 14 14 0 0 0-7-6h-4a14 14 0 0 0-7 2 17 17 0 0 0-3 2l22 16 1-3-2 3a26 26 0 0 1 3-5l-2 3a27 27 0 0 1 5-5l-3 3a26 26 0 0 1 5-4l-21-16-9 24-7 23c-3 15-4 31 1 46a83 83 0 0 0 5 14 65 65 0 0 0 7 11l-2-2a58 58 0 0 0 6 8 57 57 0 0 0 7 5l-1-1a10 10 0 0 0 2 2 12 12 0 0 0 4 0h-3l2 1h-1a7 7 0 0 0 5 0h-1a5 5 0 0 0 4-1 6 6 0 0 0 1-4zm74-123a20 20 0 0 0-8-8c-5-3-10-3-16-2l-5 2a89 89 0 0 0-8 3 28 28 0 0 0-4 2c-6 4-10 8-13 14a49 49 0 0 0-4 9 53 53 0 0 0-1 10c-1 5 0 10 1 15a95 95 0 0 0 3 11 55 55 0 0 0 5 12c3 5 8 10 13 13a27 27 0 0 0 13 3c6 0 13-2 17-7a23 23 0 0 0 5-9c2-5 1-8 0-13v-3c-2-7-8-13-15-14l8 4a17 17 0 0 0-8-5 13 13 0 0 0-7 0 13 13 0 0 0-7 2 18 18 0 0 0-6 6v1l6-7a20 20 0 0 0-4 4 19 19 0 0 0-5 8v15-5a5 5 0 0 1 0 1v-5l2-4 3-4a2 2 0 0 1 0 1l4-4a5 5 0 0 1-1 1l5-2a5 5 0 0 1-2 0h6a8 8 0 0 1-2 0h5a8 8 0 0 1-1 0l4 2a12 12 0 0 1-2-2l4 3a16 16 0 0 1-3-2l3 4a26 26 0 0 1-3-6l2 5a71 71 0 0 1-4-17l1 5a34 34 0 0 1-1-8v5a25 25 0 0 1 1-6l-2 4a20 20 0 0 1 3-4l-3 4a22 22 0 0 1 3-3l-4 3a31 31 0 0 1 7-4l-5 2 4-2h3a21 21 0 0 0 5-2 22 22 0 0 0 7-8l-3 4-3 3v-1a14 14 0 0 0 5-4 14 14 0 0 0 3-6 20 20 0 0 0-2-14z"/><path d="M94 241c4-3 7-5 9-9a29 29 0 0 0 4-15l-3-12-8-18-13-25 3 6a70 70 0 0 1-5-17l1 6a50 50 0 0 1 0-13l-1 7a38 38 0 0 1 2-10l-2 6a32 32 0 0 1 4-7l-4 5 8-8 6-10c2-4 4-9 4-14a42 42 0 0 0-1-7c-1-5-3-8-6-12l-5-3a18 18 0 0 0-9-3 12 12 0 0 0-6 0 18 18 0 0 0-9 3 7 7 0 0 0-3 2 8 8 0 0 0-3 2 22 22 0 0 0-4 5l-3 8 2-6a23 23 0 0 1-3 5l4-5-7 8-8 12-5 15a78 78 0 0 0-1 16 85 85 0 0 0 4 24 177 177 0 0 0 12 25l11 22-2-5 1 3 4 8-3-5 3 7 9 9-5-4a11 11 0 0 1 1 1l-3-5v1a17 17 0 0 0 6 6 16 16 0 0 0 7 4h6a22 22 0 0 0 11-3Z"/><path d="M112 276a11 11 0 0 1 1 1l-6-4a10 10 0 0 1 2 1l-4-5a12 12 0 0 1 1 1l-3-7a7 7 0 0 1 0 1l28-37 7 1-9-1 7 1a35 35 0 0 1-8-3l7 3a49 49 0 0 1-11-6l6 5c-11-9-20-22-29-33l5 6-12-16-10-15 3 7a23 23 0 0 1-1-5l1 8a30 30 0 0 1 0-7l-1 8a69 69 0 0 1 5-16l-3 7a88 88 0 0 1 11-20l-5 6a107 107 0 0 1 19-18l-6 5a128 128 0 0 1 28-17l-7 3c18-7 37-11 57-14l-8 1c29-4 59-5 88-4l26 3-8-1a256 256 0 0 1 64 17l-7-3a177 177 0 0 1 39 22l-6-5a141 141 0 0 1 25 25l-4-6a109 109 0 0 1 13 24l-3-7a90 90 0 0 1 7 22l-2-8a86 86 0 0 1 0 23l2-8a107 107 0 0 1-8 26l3-7c-6 14-14 26-23 38l5-6c-19 24-42 46-67 66l6-5a454 454 0 0 1-43 29c-15 9-30 17-44 27a203 203 0 0 0-60 63 144 144 0 0 0-11 28 93 93 0 0 0-3 12l-2 20c0 11 2 22 6 32a22 22 0 0 0 5 10 23 23 0 0 0 9 8 22 22 0 0 0 11 4 23 23 0 0 0 12-1c7-2 14-7 18-14l3-7a30 30 0 0 0 0-16 69 69 0 0 1-5-16l1 8a78 78 0 0 1 0-19l-1 7a97 97 0 0 1 7-24l-3 7a121 121 0 0 1 16-26l-5 6c8-11 18-20 28-28l-6 5c24-18 52-32 77-49a418 418 0 0 0 76-65c11-13 22-26 32-41a155 155 0 0 0 11-19l10-27a120 120 0 0 0 1-56l-9-24a105 105 0 0 0-10-17 160 160 0 0 0-32-34c-12-10-25-19-40-26a271 271 0 0 0-50-17 346 346 0 0 0-52-8 447 447 0 0 0-148 13 205 205 0 0 0-29 12 120 120 0 0 0-17 10 153 153 0 0 0-21 18 133 133 0 0 0-16 21 115 115 0 0 0-11 24 65 65 0 0 0-3 11 79 79 0 0 0-1 12 52 52 0 0 0 0 7 50 50 0 0 0 1 6c3 11 9 19 15 27l20 25c10 14 21 27 35 36 10 5 21 9 32 9a29 29 0 0 0 15-4 22 22 0 0 0 8-8 22 22 0 0 0 6-10 30 30 0 0 0 0-15c-3-7-5-11-10-16a38 38 0 0 0-16-9 22 22 0 0 0-12-1 22 22 0 0 0-10 3l-6 5a22 22 0 0 0-6 9 14 14 0 0 0-2 7 22 22 0 0 0 0 12c3 7 7 14 14 17z"/><path d="m180 492-5 8 2-1-4 3h1c3-3 7-6 9-10l4-9-2 6 4-9-3 7 4-10 1-3 2-6-3 7a105 105 0 0 1 14-23l-5 6 10-13-4 6 26-32a33 33 0 0 0 9-21 33 33 0 0 0-9-21l-6-5a30 30 0 0 0-15-4l-8 1a30 30 0 0 0-13 8 192 192 0 0 0-24 24l46 36a172 172 0 0 1 13-19l-5 6a65 65 0 0 1 11-12l-6 5a64 64 0 0 1 14-8l-7 3 24-9 26-8c15-4 31-7 46-12l13-4 3-1 1-1h1l7-4h2v-1h1l6-5 1-1a14 14 0 0 0 3-3 14 14 0 0 0 2-3l-4 5a20 20 0 0 0 4-6 21 21 0 0 0 4-10v-5c0-4-1-9-3-13l-4-5h-1a56 56 0 0 0-6-5 28 28 0 0 0-14-4l-8 1h15a35 35 0 0 0-9-1 61 61 0 0 0-9 2 28 28 0 0 0-4 1l-9 3-16 5-35 9a648 648 0 0 0-61 21c-8 4-14 8-21 14a61 61 0 0 0-6 6l-10 13-10 16a22 22 0 0 0-4 11 23 23 0 0 0 1 12l3 7a23 23 0 0 0 8 9 15 15 0 0 0 6 4 22 22 0 0 0 12 2l7-1a30 30 0 0 0 14-7 190 190 0 0 1 24-25l-42-42-24 29a194 194 0 0 0-14 20 145 145 0 0 0-11 22 75 75 0 0 0-3 9 56 56 0 0 0-1 5 38 38 0 0 0-1 10 40 40 0 0 0 1 9l-1-7 2 8a11 11 0 0 0 0 2l1 2a60 60 0 0 0 2 6 19 19 0 0 0 7 7 16 16 0 0 0 2 2l-5-4a80 80 0 0 0 8 6l-7-7 3 4 4 3 5 2a15 15 0 0 0 7 1 10 10 0 0 0 5-2 10 10 0 0 0 4-2 10 10 0 0 0 4-4 14 14 0 0 0 3-6z"/><path d="M306 335v-1l-5 2 4-1-5 1 6-1 5-2-5 2 3-1a51 51 0 0 0 8-3l-6 3 5-2a46 46 0 0 0 9-5l8-5 19-16-5 4c3-2 7-4 9-7l-5 4 10-7 2-2a35 35 0 0 0 6-7 112 112 0 0 0 6-10 192 192 0 0 0 12-29 131 131 0 0 0 5-23c2-10 3-19 2-29a163 163 0 0 0-2-18 81 81 0 0 0-2-10 128 128 0 0 0-7-16 65 65 0 0 0-5-9 104 104 0 0 0-20-22l-25-19a298 298 0 0 0-42-24 352 352 0 0 0-30-12 85 85 0 0 0-12-2 137 137 0 0 0-20-2 121 121 0 0 0-13 0l-20 3-23 5a121 121 0 0 0-17 6 45 45 0 0 0-9 6 96 96 0 0 0-10 8l-4 4a90 90 0 0 1-9 8 137 137 0 0 0-17 15 187 187 0 0 0-17 23 158 158 0 0 0-12 26 100 100 0 0 0-6 28l-1 3v1l1 5 1 4 3 7a40 40 0 0 0 6 9 27 27 0 0 0 12 7 20 20 0 0 0 10 0 20 20 0 0 0 10-3 27 27 0 0 0 10-9v-1l-4 6 5-7 1-2 3-7v-2l1-2 2-9a114 114 0 0 1 5-16l-3 7a116 116 0 0 1 15-26l-5 6a113 113 0 0 1 18-18l11-9 9-9-6 4a45 45 0 0 1 10-5l-7 3a100 100 0 0 1 19-6l23-4-8 1a106 106 0 0 1 28 0l-8-1c9 1 18 4 27 8l-7-3a290 290 0 0 1 66 40l-6-5a90 90 0 0 1 16 16l-4-6a66 66 0 0 1 8 14l-3-7a80 80 0 0 1 5 20l-1-8a102 102 0 0 1 0 27l1-8c-2 14-7 28-12 41l3-7a131 131 0 0 1-6 12 42 42 0 0 0-4 10l-1 3-2 6 2-7a10 10 0 0 0-1 4 10 10 0 0 0-2 4l3-7-2 4 4-5a107 107 0 0 1-15 15l5-4-8 5a63 63 0 0 0-7 6l-2 2a42 42 0 0 0-5 6l4-5-3 3 4-3-5 3a57 57 0 0 0-3 5l3-4-3 3 4-3a22 22 0 0 0-10 12 15 15 0 0 0 0 8 15 15 0 0 0 2 8c3 4 7 8 12 9h6a20 20 0 0 0 10-2z"/><path d="M159 240a23 23 0 0 0-6 1c-5 1-7 3-10 6a14 14 0 0 1-1 0l4-3a25 25 0 0 1-5 3l6-2a5 5 0 0 1-2 0l7-1a15 15 0 0 1-3 0 62 62 0 0 0-8 1l6-1a21 21 0 0 1-5 0l7 1-15-3a17 17 0 0 1-3-1 18 18 0 0 0-4-1l-3-1-11-1 7 1a34 34 0 0 1-8-2l7 3-13-9a38 38 0 0 0-6-4 67 67 0 0 0-10-4h-2l-9-1-8 1a22 22 0 0 0-10 5 15 15 0 0 0-6 6 22 22 0 0 0-5 10l-1 8v5a35 35 0 0 0 1 4 29 29 0 0 0 4 8c4 6 5 8 12 12a30 30 0 0 0 5 2 30 30 0 0 0 5 3 58 58 0 0 0 10 1 25 25 0 0 0 3 0l9-2 8-3 6-5a22 22 0 0 0 7-9 15 15 0 0 0 2-8 22 22 0 0 0-1-11l-3-7-5-6a22 22 0 0 0-9-6 22 22 0 0 0-12-3 70 70 0 0 0-9 1l8-1a20 20 0 0 1-5 0l8 1a12 12 0 0 1-3 0l7 3a9 9 0 0 1-2-1l6 4a7 7 0 0 1-1-1l5 6a5 5 0 0 1-1-1l3 7 1 8a4 4 0 0 1 0-1l-1 8v-1l-28 22h1l-8-1a20 20 0 0 1 5 1l-7-3c6 3 11 9 17 12a67 67 0 0 0 13 5l3 1a69 69 0 0 0 10 1 56 56 0 0 0 7 0 70 70 0 0 0 10-2l3-1-7 1 15 1 9-1a23 23 0 0 0 1-1 54 54 0 0 0 9-3h1l5-4a17 17 0 0 0 1-1 63 63 0 0 0 5-7l-3 5a34 34 0 0 0 7-10l2-6a14 14 0 0 0 1-6 40 40 0 0 0 0-6 16 16 0 0 0-2-3 17 17 0 0 0-1-3 39 39 0 0 0-3-4c-3-4-9-6-14-6zM97 115a23 23 0 0 1 3-3l-5 5a25 25 0 0 1 4-3l-7 3a9 9 0 0 0 4-1 22 22 0 0 0 10-7l1-1-6 5c8-6 16-10 25-13l-7 3a195 195 0 0 1 49-14l-8 2c25-4 50-3 74 0l-7-1a547 547 0 0 1 55 11 765 765 0 0 1 81 25l-7-3c14 6 28 13 40 22l-6-4a84 84 0 0 1 15 14l-5-6a61 61 0 0 1 8 13l-3-7a55 55 0 0 1 4 14l-1-8a46 46 0 0 1 0 11l1-8a43 43 0 0 1-2 7 23 23 0 0 0 0 12 22 22 0 0 0 3 11 22 22 0 0 0 8 8 22 22 0 0 0 10 6c8 1 16 1 23-3l6-5a30 30 0 0 0 8-13l7-19h-57a51 51 0 0 1 1 5l-1-8a57 57 0 0 1 0 15l1-8a76 76 0 0 1-6 19l3-7-4 10c-3 6-4 9-5 16v2a29 29 0 0 0 4 16 40 40 0 0 1 3 5c2 4 6 7 11 7h4-5a71 71 0 0 0 10 1l7-1a21 21 0 0 0 7-3l1-1c6-3 10-7 13-12a120 120 0 0 0 10-22c3-8 4-17 5-25a78 78 0 0 0-2-25l-3-7a22 22 0 0 0-8-8 15 15 0 0 0-6-4 22 22 0 0 0-12-2l-7 1-7 3a22 22 0 0 0-9 7 22 22 0 0 0-5 10l-8 19 57 16c2-5 3-11 3-16a44 44 0 0 0 0-10c0-5-1-11-3-16a104 104 0 0 0-6-15c-3-8-9-15-15-21a166 166 0 0 0-55-37 417 417 0 0 0-46-17 825 825 0 0 0-85-20 327 327 0 0 0-139 5 242 242 0 0 0-26 10 123 123 0 0 0-17 9 74 74 0 0 0-3 3l-7 5-3 4-3 3a75 75 0 0 0-3 7l3-7-5 8a20 20 0 0 0-3 10 21 21 0 0 0 0 11l3 7a21 21 0 0 0 7 7 14 14 0 0 0 6 4 21 21 0 0 0 11 2c7 0 14-2 19-8zm167 340h1l-3 1a19 19 0 0 0 7-4l1-1a26 26 0 0 1 2-1l-4 2a29 29 0 0 1 7-3l-4 1 18-5-17-29-8 8a18 18 0 0 0-5 12c0 4 2 10 5 12s8 6 12 6l5-1a17 17 0 0 0 8-5l3-3-3 3 12-8 12-8 24-17 24-16 21-14a138 138 0 0 0 14-12 66 66 0 0 0 5-4 46 46 0 0 0 5-7 21 21 0 0 0 3-10 21 21 0 0 0-1-7l1 5-3-9v-1l2 4h-1l1 5-1-6a12 12 0 0 0-3-6 12 12 0 0 0-4-4c-4-2-8-3-12-1h-1 4a4 4 0 0 1-1 0 16 16 0 0 0-5 0h5a24 24 0 0 0-11 3 17 17 0 0 0-6 4 62 62 0 0 1-3 4 82 82 0 0 1-8 7l4-3-17 12-21 13-24 17-19 16-11 9-5 5-5 5 25 24 8-7 2-4a13 13 0 0 0 2-6 9 9 0 0 0 0-5 13 13 0 0 0-2-6 20 20 0 0 0-6-6 13 13 0 0 0-6-2 13 13 0 0 0-7 0l-8 3a86 86 0 0 0-12 5 48 48 0 0 0-9 6 23 23 0 0 0-3 3l-3 4c-2 2-2 5-3 9l1-4-1 5a15 15 0 0 0 7 12 15 15 0 0 0 15 0zm-68 49a19 19 0 0 0 0 2l2-5a13 13 0 0 0-3 13v2a26 26 0 0 0 2 6l-1-4a42 42 0 0 1 2 8l1 9 1 5 2 4a63 63 0 0 1 2 9l-1-6 1 9-1-6a42 42 0 0 1 0 11l1-6a42 42 0 0 1-2 9 17 17 0 0 0-1 9 20 20 0 0 0 8 14 17 17 0 0 0 8 4l6 1a22 22 0 0 0 11-3l4-3a22 22 0 0 0 6-10 59 59 0 0 0 3-19 56 56 0 0 0 0-9 43 43 0 0 0-3-10c-2-6-4-12-8-17a133 133 0 0 0-11-14l-3-3-8-5a30 30 0 0 0-6-1 14 14 0 0 0-9 2l10 3v1a8 8 0 0 0-2-4 6 6 0 0 0-4-1 8 8 0 0 0-4 1 7 7 0 0 0-3 4z"/><path d="M209 585v2l1 1a10 10 0 0 0 1 3 9 9 0 0 0 3 3 7 7 0 0 0 4 2 7 7 0 0 0 3-1 9 9 0 0 0 4-2l1-1a11 11 0 0 0 1-1l1-2v-1a12 12 0 0 0 0-1v-1a2 2 0 0 0 0-1v-2l-1-2v-1l-1-1a7 7 0 0 0-3-2 5 5 0 0 0-3-1 7 7 0 0 0-3 0l-2 1-2 2a10 10 0 0 0-2 6v-2l1-2a2 2 0 0 1-1 0l2-2a2 2 0 0 1 0 1l2-2a1 1 0 0 1-1 0l2-1 12 7a5 5 0 0 0-1-1 3 3 0 0 0 0-1v-1h-1v-1l-2-2a9 9 0 0 0-5-4h-2a6 6 0 0 0-3 1 4 4 0 0 0-2 1 7 7 0 0 0-2 2l-1 2a9 9 0 0 0 0 5zm-29-63a15 15 0 0 0 11-4 15 15 0 0 0 4-11c0-3-1-7-4-10a15 15 0 0 0-21 0 15 15 0 0 0-5 10c1 4 2 8 5 11a15 15 0 0 0 10 4zm-7-478-2 1 2-1zm272 99 2 3v1h1a4 4 0 0 0 2 1 1 1 0 0 0 1-1 6 6 0 0 0 0-2 4 4 0 0 0-1-1h-1l-3-3a1 1 0 0 0-2 1 2 2 0 0 0 0 1z"/><path d="m469 142-2-7 1 4c0-5-2-9-4-13l-4-11a167 167 0 0 0-9-17 174 174 0 0 0-25-32 219 219 0 0 0-68-46c-13-5-27-9-41-11a265 265 0 0 0-30-4h-24a407 407 0 0 0-48 2c-17 2-35 5-52 11a220 220 0 0 0-43 19 179 179 0 0 0-22 16 134 134 0 0 0-14 14l-3 3c-4 5-8 10-9 17l3-7a40 40 0 0 0-3 7l-1 1a16 16 0 0 0-1 3l-1 7 1 7 3 7a21 21 0 0 0 7 7 14 14 0 0 0 6 4 14 14 0 0 0 7 2 14 14 0 0 0 7 0 20 20 0 0 0 10-4 21 21 0 0 0 2-1c3-2 6-3 8-6l-6 5 7-6-6 5 9-7 3-3 5-6a141 141 0 0 1 13-11l-6 4a182 182 0 0 1 37-22l-7 3 8-3-7 3c22-9 45-15 68-18l-7 1a440 440 0 0 1 74-4 183 183 0 0 1 21 2l-6-1a166 166 0 0 1 43 11l-5-2a174 174 0 0 1 17 9 131 131 0 0 1 16 10l-4-3a207 207 0 0 1 37 38l-3-4a168 168 0 0 1 18 30l-1-3 2 4 2 3-2-3 4 7a14 14 0 0 0 8 6 14 14 0 0 0 9-1c6-2 9-9 8-16zm-266-30-1-1 1 1-1-2a12 12 0 0 0 3 5l-1-2 1 2-2-6a32 32 0 0 0 0 3 12 12 0 0 0 5 7 27 27 0 0 0 3 2l4 2 6-24h-12l-6 1a32 32 0 0 0-9 1 20 20 0 0 0-10 8 14 14 0 0 0-2 3 15 15 0 0 0-1 2 18 18 0 0 0 0 9 17 17 0 0 0 8 10 21 21 0 0 0 10 3 44 44 0 0 0 5-1 43 43 0 0 1 7 1l-4-1a70 70 0 0 1 11 3l10 2 20 6c12 3 24 5 35 9l18 6-3-1 21 12-3-3 7 6 3 3a47 47 0 0 0 3 3l19-25-3-2a30 30 0 0 0-6-2 41 41 0 0 0-5 0l7 2-10-5-6-2 3 1-9-4-8-4a16 16 0 0 0-11-2 15 15 0 0 0-9 7c-2 4-3 8-2 12l2 3a15 15 0 0 0 5 6l15 9-4-2 2 2-3-4 6 7 3 4a73 73 0 0 1 6 7l-3-4 7 9-3-4a72 72 0 0 1 9 16l-2-5 5 15 3 8a24 24 0 0 0 3 6l1 2a25 25 0 0 0 4 5l5 3-4-2 5 3a19 19 0 0 0 4 2l-6-3a16 16 0 0 0 4 3 26 26 0 0 0 4 1c4 1 9 1 12-3a26 26 0 0 0 3-3 16 16 0 0 0 2-5l-2 4a24 24 0 0 0 3-7 33 33 0 0 0 1-9 30 30 0 0 0-1-9l-2-4-5-16-9-20-2-3a52 52 0 0 0-6-7 75 75 0 0 0-5-5l-11-7-12-5 4 2a91 91 0 0 0-19-9l-8 29 5 1h-4a45 45 0 0 1 8 1l8 3-3-1a48 48 0 0 1 6 4l6 4-5-6a47 47 0 0 0 4 5 33 33 0 0 0 4 3l-3-2 6 5a18 18 0 0 0 13 2l3-2a12 12 0 0 0 5-4 15 15 0 0 0 3-10v-4a16 16 0 0 0-4-7 18 18 0 0 0-3-3l-5-4-6-4-12-7a176 176 0 0 0-29-12l-27-7-33-8-19-4a72 72 0 0 0-13-1h-7l3 1a8 8 0 0 1-1-1l3 2a5 5 0 0 1-1-1l3 2a6 6 0 0 1-1-1l2 3a5 5 0 0 1 0-1l1 3a5 5 0 0 1 0-1v4a4 4 0 0 1 0-1v4a6 6 0 0 1 0-2l-1 3-2 2a7 7 0 0 1 1-1l-2 2a9 9 0 0 1 1-1l-3 2a12 12 0 0 1 3-1l-4 1 11-1 5-1 9-1 3-1a10 10 0 0 0 3-3 12 12 0 0 0 3-8 15 15 0 0 0-2-7 10 10 0 0 0-3-3 10 10 0 0 0-4-3l-6-2 3 1c-2-1-4-2-7-1a14 14 0 0 0-6 1l6-1h-2 3a13 13 0 0 0-7 0h3a21 21 0 0 1-3 0h-2l-2 1a9 9 0 0 0-4 4 9 9 0 0 0 2 10z"/></g><g fill="#6cb767"><path d="M77 277v2-1c-1 4 2 8 5 10h1l-4-4a56 56 0 0 0 4 6l-3-6c1 3 1 5 4 7a16 16 0 0 0 6 4l-3-2a57 57 0 0 0 9 4 58 58 0 0 0 9 1h-4c5 1 10 0 15-1l-5 1c5 0 9-2 13-4a25 25 0 0 0 5-2 38 38 0 0 0 9-10 32 32 0 0 0 4-9l-1 5a68 68 0 0 0 3-9l-2 4a23 23 0 0 0 3-11l-1 6 2-5-2 5c2-4 3-7 3-12l-1 6 1-3v-2l1-3a12 12 0 0 0 0-7l-1-4a31 31 0 0 0-1-7 116 116 0 0 0-9-18c-7-11-15-20-23-29l-11-14 4 5c-6-7-11-15-15-24l3 6a59 59 0 0 1-4-14l1 7a47 47 0 0 1 0-12l-1 6a50 50 0 0 1 3-12l-2 6a84 84 0 0 1 11-18l-4 5a129 129 0 0 1 23-23l-5 4c16-12 35-22 53-30l-6 3a537 537 0 0 1 82-27 239 239 0 0 1 24-5l-7 1a66 66 0 0 1 17 0l-6-1 21 4 15 2 11 1-6-1a97 97 0 0 0 11 2l-5-1 12 2-5-1c9 1 18 3 26 1h-8a54 54 0 0 0 10 1l-4-1a34 34 0 0 0 13 1h-7a53 53 0 0 0 8 1l10-1h-5c5 1 10 2 15 1h-3l7 2 6 2 12 6 12 6 6 3a46 46 0 0 0 7 3c3 1 6-4 3-6a44 44 0 0 0-5-4l-7-3-12-6-12-6c-2-1-4-3-7-3s-4-3-6-4l2 2a23 23 0 0 0-4-5 44 44 0 0 0-4-3l-2-1c-1-1-1-1 0 0l-2-2a20 20 0 0 0-4-4 49 49 0 0 0-8-4l6 3-7-5a45 45 0 0 0-6-3l4 2a17 17 0 0 0-3-2 56 56 0 0 0-5-4 54 54 0 0 0-6-3l-5-3a104 104 0 0 0-11-4l5 2a80 80 0 0 0-10-4l5 2-14-5a71 71 0 0 0-10-4l-20-3a110 110 0 0 0-16-2 116 116 0 0 0-16 2l-21 4a538 538 0 0 0-79 25 401 401 0 0 0-38 18 216 216 0 0 0-34 23 143 143 0 0 0-27 30 94 94 0 0 0-11 22 48 48 0 0 0-3 9l-1 15c1 16 7 31 16 45 7 11 17 22 26 33l6 7-4-5c5 7 10 14 14 23l-3-6 5 12-2-6 4 9 2 4-2-5c1 4 3 7 6 10l-3-4 1 4-2-5 1 1-1-6c0 5 1 7 3 11l-2-4a35 35 0 0 1 0 1l-1-5a23 23 0 0 1 1 4v-5a18 18 0 0 1-1 3l2-5a16 16 0 0 1-1 3l2-3a19 19 0 0 1-3 3l4-3a27 27 0 0 1-6 3l4-1-6 3 4-2a34 34 0 0 1-4 1h4a116 116 0 0 0-5 0l-4 2 4-2a34 34 0 0 1-4 1h4a33 33 0 0 1-7 0h4a15 15 0 0 0-12 2l3-2-2 1 4-1-2 1 5 1c-4-2-8-3-12 0l1-1v1l1-1h-1c-5 1-7 5-6 9z"/><path d="M347 32a10 10 0 0 0 3 6 29 29 0 0 0 3 2l6 6 5 3 5 3 18 10 6 3 3 2a16 16 0 0 0 4 2h7a11 11 0 0 0 8-14 15 15 0 0 0-7-8l-6-3-20-10-11-5-6-3a51 51 0 0 0-6-2 11 11 0 0 0-7 0c-4 1-5 5-5 8zm-98 113v-1 2a7 7 0 0 0 3 2 32 32 0 0 0 3 2 56 56 0 0 0 7 3c4 2 10 2 14 3l28 2h-2a108 108 0 0 1 12 3 113 113 0 0 1 13 3l-3-1a50 50 0 0 1 11 7l-2-2a46 46 0 0 1 8 8l-2-2a42 42 0 0 1 5 9l-1-3a42 42 0 0 1 3 10v-3a29 29 0 0 1 0 7v-3a29 29 0 0 1-2 7l1-2a47 47 0 0 1-6 10l2-2-5 6 2-2a24 24 0 0 0-4 5l-1 4a19 19 0 0 0-1 4 3 3 0 0 0 0 1v-2 1a11 11 0 0 0-2 5v2c0-1 0-1 0 0l-1 6a1 1 0 0 0 3 1 14 14 0 0 1 3-3l1-1s-1 0 0 0h2a12 12 0 0 0 3-3h1c2-2-2 0-1 0a12 12 0 0 0 3-1l3-1-2 1 1-1a14 14 0 0 0 5-3l3-3a70 70 0 0 0 6-7 41 41 0 0 0 7-15 41 41 0 0 0 0-19c-2-7-5-13-9-18-8-9-19-16-31-19a77 77 0 0 0-19-2h-18a190 190 0 0 1-20 1l-4-1c-1 0 2 0 0 0h-4s-2-1 0 0l-4-1-2-1a5 5 0 0 0-2 0 9 9 0 0 0-2 0c-3 0-5 4-3 7z"/><path d="M335 215h2a14 14 0 0 0 6-2l4-3a29 29 0 0 0 9-8 15 15 0 0 0 1-16c-3-5-9-8-15-10l3 1 2 2 2 2 1 3a7 7 0 0 1 0-1v3c0-3 0-6-2-9l-5-6 2 3-5-8a40 40 0 0 0-4-6 27 27 0 0 0-6-5c-6-5-13-7-19-12l3 3a19 19 0 0 1-2-2l-11 27-8-2 8 4a18 18 0 0 0 14 2 17 17 0 0 0 10-7 16 16 0 0 0-3-19c-3-4-8-5-13-7a44 44 0 0 0-6-1l-3-1a16 16 0 0 0-7 3 17 17 0 0 0-4 2l-2 3a16 16 0 0 0-2 8c0 3 0 4 2 7a13 13 0 0 0 2 4c5 4 11 5 16 7l-3-2a6 6 0 0 1 1 1l-3-2-2-3-2-4-1-4 1-4 2-4 2-3 3-3 4-1a3 3 0 0 1-1 0l4-1h-1l4 1 4 2a41 41 0 0 1-5-3c-3-3-7-4-11-5l-4 1-4 2-3 2a12 12 0 0 0-3 5 8 8 0 0 0-1 4 8 8 0 0 0 0 4c0 3 1 7 4 9a46 46 0 0 0 8 5l9 4 11 4-3-1a19 19 0 0 1 4 2l-3-2a18 18 0 0 1 3 3l-2-2 6 7 7 7-2-2a13 13 0 0 1 1 1l-2-2a3 3 0 0 1 1 0l-2-3 1 2a14 14 0 0 0 6 8c2 2 5 2 8 3l-3-1a13 13 0 0 1 2 1l-2-1a7 7 0 0 1 1 1l-1-3a5 5 0 0 1 0 1l-1-2a4 4 0 0 1 0 1v-3a5 5 0 0 1 0 1v-3a6 6 0 0 1 0 1l1-2a11 11 0 0 1-1 2l1-2a42 42 0 0 1-7 7l2-2a12 12 0 0 0-4 5l-1 1a9 9 0 0 0 0 8c2 3 5 5 7 5zm-9 58-1 1h1v-2 1zm137-124c2-1 1 0 0 0l-3 1-3 1 3-1a14 14 0 0 0-5 3l2-1a57 57 0 0 0-5 3l2-1a200 200 0 0 0-20 17 95 95 0 0 0-8 9l3-3-9 11 3-4a155 155 0 0 0-10 15l-7 12-17 25-11 15 4-5-24 30 4-5-7 8-7 8a110 110 0 0 1-15 14l5-4a95 95 0 0 1-20 12l6-2c-11 4-22 6-33 8l7-1-14 2h-7l-4 1-10 1a24 24 0 0 0-17 17v4l9-9c-5 1-11 2-15 5l2-1a91 91 0 0 0-10 3 56 56 0 0 0-6 3l-5 2-8 5-5 2a7 7 0 0 0-3 5v1a4 4 0 0 0 1 4l2 1 6 1 5-1 11-3h-2l8-1 5-1-2 1 6-1-3-1a42 42 0 0 0 10 1l7 1-13-10v2a24 24 0 0 0 17 17 44 44 0 0 0 12 1l7-1 12-1 29-5a125 125 0 0 0 27-11 120 120 0 0 0 24-17 134 134 0 0 0 15-16l7-9 3-5 6-10 12-22a643 643 0 0 0 26-43l5-11 3-6 4-9-2 4 7-16-2 4 6-15-1 4 5-11a48 48 0 0 0 3-8l1-2 1-1c0-1 1-3 0 0a8 8 0 0 0 1-5 7 7 0 0 0-2-4 8 8 0 0 0-3-2l-6 1z"/><path d="M199 360a4 4 0 0 0 1 1q-1-2 0 0l1 1a7 7 0 0 0 2 1l1 1a12 12 0 0 0 5 1h24-2l20 3 17 1h9l9-1h18a93 93 0 0 0 13-2l2-1a34 34 0 0 0 6-2 31 31 0 0 0 4-2l-3 1a28 28 0 0 0 10-5l-2 1a13 13 0 0 0 2-1l2-1 1-1-1 1 2-1 2-2c2-1 2-5 0-6l-10-5 2 1a16 16 0 0 0-2-1 26 26 0 0 0-6-2l3 1a36 36 0 0 0-11-4l-8-1h-4l-18 1-21 2-18 3-9 2-5 1a46 46 0 0 1-5 2l3-1-17 2h-4l-7 2-2 1a9 9 0 0 0-2 1h1l-2 2a3 3 0 0 0-1 1 5 5 0 0 0 0 5zm-52 80a16 16 0 0 1 2 2 13 13 0 0 0 1 1 10 10 0 0 0 4 2l6 2 2 1s-1 0 0 0l3 1c2 2 5 2 8 3l-2-1 3 3-2-2a12 12 0 0 0 6 3h2l3 1 11 1a110 110 0 0 0 16 1l20-2a131 131 0 0 0 16-3 392 392 0 0 0 49-18 149 149 0 0 0 15-7l8-5a33 33 0 0 0 6-5l3-4 6-7a67 67 0 0 1 7-7l-2 2a116 116 0 0 1 11-8l12-6 11-7a30 30 0 0 0 7-4l5-4 5-6 5-6c1-1 0-3-2-2a18 18 0 0 1-3 1l-3 1-6 1-6 2-3 1a28 28 0 0 0-5 2l-24 12-7 3-7 4 2-1-7 3 3-1-13 5 3-1-5 2 3-2a70 70 0 0 0-11 4l-8 4-15 7 4-2-37 14-19 5a189 189 0 0 1-40 9h3a131 131 0 0 1-6 1c-4 0-8 0-11 2l3-1a20 20 0 0 1-5 1h3-8 2a26 26 0 0 1-5 0h-4a41 41 0 0 0-6-1 27 27 0 0 0-3 0c1 0 0 0 0 0h-2a3 3 0 0 0-3 2 3 3 0 0 0 1 4z"/><path d="M304 421h13l10-3c7-2 13-5 18-10a11 11 0 0 0 2-2c0-1 0-1 0 0l1-2 3-3a8 8 0 0 0 2-3c0-1-2 1 0 1v-1l4-2 1-1c-1 0 0 0 0 0l2-1a46 46 0 0 1 4-1 76 76 0 0 0 8-3 106 106 0 0 0 5-2 23 23 0 0 0 4-2 16 16 0 0 0 5-5 20 20 0 0 0 0-1l1-2c0-1 0 0 0 0v-1l-6-3a12 12 0 0 0-1 2 8 8 0 0 1 0 2l-1 1a5 5 0 0 1-2 1l-4 1-2 1h-2l-5 2a39 39 0 0 0-5 2 53 53 0 0 0-7 4 30 30 0 0 0-9 9 7 7 0 0 0 1 7 7 7 0 0 0 8 1l11-7a239 239 0 0 0 6-5 49 49 0 0 0 5-4l4-5 4-6a12 12 0 0 0 1-3 12 12 0 0 1 2-3l3-5c1-1 0-2-1-1l-5 4a9 9 0 0 1-2 1 14 14 0 0 0-3 2h-1c-1 0-1 0 0 0a8 8 0 0 1-1 1 16 16 0 0 0-4 1l-5 4-6 5-1 1h-1l-1 1-1 1-11 7 9 9 1-2v1l1-1v-1 1l3-3 1-2h1-1 1a67 67 0 0 1 4-3 51 51 0 0 0 4-3l3-3h1c-1 1 0 0 0 0l1-1c-1 0 0 0 0 0a22 22 0 0 0 1-2l3-3a9 9 0 0 1 2-1 14 14 0 0 1 2-2h2a8 8 0 0 0 2-1 4 4 0 0 0 2-5 4 4 0 0 0-5-2l-1 1h-2a26 26 0 0 0-5 3 10 10 0 0 0-1 1c1-1 0-1 0 0l-2 1a66 66 0 0 1-3 2l-4 2-1 1h-1c-1 1-1 1 0 0l-1 1-7 4-4 2-1 1-2 1s2 0 0 0a6 6 0 0 0-2 0 17 17 0 0 0-2 2l-4 2s-2 1 0 0a9 9 0 0 1-1 0 14 14 0 0 0-3 2 44 44 0 0 1-4 2l-2 1c-1 1 2 0 0 0l-1 1a43 43 0 0 1-4 1l-11 3h-3a30 30 0 0 0-4 2l-2 1a16 16 0 0 0-3 3c-4 3-2 8 2 9zm86-52 11-6c1-1 0-2-1-2l-10 7v1z"/><path d="m381 378 2 1a11 11 0 0 0 5-2l4-2a33 33 0 0 0 4-2l4-3 8-7 4-3c2-1 3-4 3-6 1-2 0-5-1-6-2-2-4-2-6-2a13 13 0 0 0-6 2l-4 3-7 5a103 103 0 0 0-9 7l-3 3-4 5a5 5 0 0 0 1 5 6 6 0 0 0 5 2z"/><path d="m370 377 13-6a78 78 0 0 0 11-7l6-3a127 127 0 0 0 5-3 94 94 0 0 0 12-9c2-2 5-4 5-8a3 3 0 0 0 0-1v1-2a7 7 0 0 0 1-3 1 1 0 0 0-1-1 15 15 0 0 0-2 0 7 7 0 0 0-2 1l-1 1c1 0 0 0 0 0a6 6 0 0 0-3 0 14 14 0 0 0-4 3 106 106 0 0 1-5 4l-1 1h-1l-2 2c-1 0 1-1 0 0l-5 4a40 40 0 0 1-6 3l-12 5-6 4-7 3a6 6 0 0 0-2 7c1 3 4 5 7 4zm54-42v-1 1zM136 526a95 95 0 0 0 8 7l9 7 4 3 2 1c1 1-1-1 0 0l1 1a75 75 0 0 0 10 7 120 120 0 0 0 20 9l10 4 10 2a126 126 0 0 0 14 2l12 1a12 12 0 0 0 9-4 13 13 0 0 0 3-7 12 12 0 0 0-1-8c-2-3-4-5-8-6l-14-2-18-2h3l-12-2 3 1a153 153 0 0 1-25-6l-6-1-3-1-1-1 1 1a5 5 0 0 1-1-1 153 153 0 0 1-11-6l-7-3-6-4a5 5 0 0 0-6 8zm44 140h-1l9-4a28 28 0 0 0-4 1 30 30 0 0 0-4 1l4-1h-1c-5 1-9 6-10 10v12c1 5 4 8 9 11l-4-2c3 2 5 4 9 4a24 24 0 0 0 5 1 24 24 0 0 0 11-3 20 20 0 0 0 6-6 19 19 0 0 0 4-7 24 24 0 0 0-6-23 28 28 0 0 0-15-7 42 42 0 0 0-5-1 29 29 0 0 0-4 0 28 28 0 0 0-4 1 50 50 0 0 0-6 2 21 21 0 0 0-7 5 27 27 0 0 0-5 7 28 28 0 0 0-2 7 30 30 0 0 0 0 13 25 25 0 0 0 3 8 28 28 0 0 0 5 6 31 31 0 0 0 11 7 25 25 0 0 0 14 0 31 31 0 0 0 6-2 14 14 0 0 0 2-1 34 34 0 0 0 10-10l-3 4 6-10a22 22 0 0 0 1-7 21 21 0 0 0-1-6 23 23 0 0 0-5-9l4 6a29 29 0 0 0-6-10 26 26 0 0 0-6-5c-5-3-10-4-15-4h4l-9-1a36 36 0 0 0-10 2 32 32 0 0 0-9 4 32 32 0 0 0-5 4 31 31 0 0 0-4 6 30 30 0 0 0-4 15 72 72 0 0 0 2 12 40 40 0 0 0 3 10 13 13 0 0 0 1 1 39 39 0 0 0 3 4 22 22 0 0 0 7 5 38 38 0 0 0 5 2 13 13 0 0 0 2 1 47 47 0 0 0 8 1l7-1 21-3a68 68 0 0 0 7-2 45 45 0 0 0 7-3 38 38 0 0 0 7-4 32 32 0 0 0 6-9 39 39 0 0 0 5-9c2-9 1-18-1-27a40 40 0 0 0-1-4 55 55 0 0 0-2-6 12 12 0 0 0-1-1 30 30 0 0 0-4-5l-3-2a31 31 0 0 0-2-2 32 32 0 0 0-6-3 16 16 0 0 0-2 0l5 2a49 49 0 0 0-12-5 70 70 0 0 0-10-1h-1l-3 1a16 16 0 0 0-3 0l-3 1-12 5-8 4a34 34 0 0 0-6 3 79 79 0 0 0-7 6 61 61 0 0 0-6 8 42 42 0 0 0-6 11 19 19 0 0 0-1 3l-1 10a63 63 0 0 0 2 7 12 12 0 0 0 0 2 48 48 0 0 0 3 7 6 6 0 0 0 0 1 41 41 0 0 0 4 5 25 25 0 0 0 6 5h1l5 2a3 3 0 0 0 1 0l6 1h5l-6-1a13 13 0 0 1 3 1l-6-2 6 2 6 1 7-1h1l-6 1a41 41 0 0 0 6-1l5-2a15 15 0 0 0 6-5 17 17 0 0 0 4-8l1-6a36 36 0 0 0-1-7 24 24 0 0 0-6-10l-5-4h-1a33 33 0 0 0-9-3 48 48 0 0 0-7-1 23 23 0 0 1-3 0l6 1a3 3 0 0 1-1-1l6 3a4 4 0 0 1-1-1l5 4a5 5 0 0 1-1-1l4 5a9 9 0 0 1-1-1l2 5a14 14 0 0 1-1-3l1 6a16 16 0 0 1 0-4l-1 7a19 19 0 0 1 2-5l-3 6a22 22 0 0 1 3-5l-4 5a25 25 0 0 1 5-4l-5 3a87 87 0 0 1 10-6l12-6-5 2a70 70 0 0 0 7-3 24 24 0 0 1 3-2l-5 2a30 30 0 0 1 7-2l-5 1h1l-5-1a13 13 0 0 1 2 1l-5-2a9 9 0 0 1 2 1l-4-3a8 8 0 0 1 1 1l-3-4a10 10 0 0 1 1 2l-2-4a44 44 0 0 1 3 10l-1-5a34 34 0 0 1 0 8l1-5a23 23 0 0 1-1 5l1-4a21 21 0 0 1-2 4l3-4a17 17 0 0 1-3 3l4-3a16 16 0 0 1-3 2l4-2a57 57 0 0 1-10 3l-11 2 5-1-13 1h5a17 17 0 0 1-4 0l4 1a11 11 0 0 1-1 0l3 2a10 10 0 0 1-1-1l2 3a13 13 0 0 1-1-2l2 4a40 40 0 0 1-3-9l1 5a22 22 0 0 1 0-6v5a13 13 0 0 1 0-3l-1 4a14 14 0 0 1 1-3l-3 4a16 16 0 0 1 3-3l-3 3a21 21 0 0 1 4-3l-3 2a21 21 0 0 1 5-2l-4 1a15 15 0 0 1 3 0l-4-1a21 21 0 0 1 4 1l-3-1a17 17 0 0 1 3 2l-3-3a14 14 0 0 1 2 3l-2-3a13 13 0 0 1 2 2l-2-3v-4 2-5a9 9 0 0 1 0 2l1-3a7 7 0 0 1 0 1l2-4a9 9 0 0 1-1 1l4-2a13 13 0 0 1-2 1 32 32 0 0 0-5 3l4-3a31 31 0 0 1-4 3l5-2a13 13 0 0 1-3 0h5a16 16 0 0 1-3 0h5a10 10 0 0 1-2 0l4 2a11 11 0 0 1-2-2l4 3a13 13 0 0 1-2-2l3 4a12 12 0 0 1-2-2l2 4a11 11 0 0 1 0-2v5a10 10 0 0 1 0-2v5a12 12 0 0 1 0-3l-1 4a13 13 0 0 1 1-2l-3 4a21 21 0 0 1 3-4l-3 3a13 13 0 0 1 2-1l-4 1a12 12 0 0 1 3-1l-4 1a8 8 0 0 1 1 0l-4-1a11 11 0 0 1 2 1l-4-2a10 10 0 0 1 2 2l-3-3a9 9 0 0 1 1 1l-2-3a10 10 0 0 1 1 2l-2-4a9 9 0 0 1 1 2l-1-5a8 8 0 0 1 0 2l1-4a8 8 0 0 1-1 1l2-4a7 7 0 0 1-1 1l3-3a7 7 0 0 1-1 1l3-3a7 7 0 0 1-1 1l4-2a8 8 0 0 1-2 1l4-1a6 6 0 0 1-1 0l4 1a33 33 0 0 0-5-1l4 1a6 6 0 0 1-1-1l4 2a6 6 0 0 1-1-1l3 3a5 5 0 0 1 0-1l2 3a5 5 0 0 1-1 0l2 3a6 6 0 0 1 0-1v4-5c-1-2-2-5-5-6l3 2 1 3a6 6 0 0 1 0-1v4l-4 9 1-1a13 13 0 0 0 3-9 13 13 0 0 0-3-8 13 13 0 0 0-9-4 13 13 0 0 0-9 4z"/></g><path fill="#c4982c" d="M154 710c3 0 5-3 7-5l2-2 1-1 1-1 3-2 4-3c-1 1 0 0 0 0l2-1a21 21 0 0 1 3-2l-2 1a37 37 0 0 0 4-2l3-1 5-4 11-6 11-6 11-6 8-5 4-5a9 9 0 0 0 2-10 9 9 0 0 0-3-4l-5-2-5 1 2-1a42 42 0 0 0-8 1 26 26 0 0 0-5 3l-3 1a96 96 0 0 0-11 6l-10 7a120 120 0 0 0-11 9l-5 5-2 3a34 34 0 0 0-3 4l1-1-5 6a28 28 0 0 0-2 3l-2 4v1a5 5 0 0 0-1 1s1 0 0 0v1l-2 3-2 3-1 5a3 3 0 0 0 3 2zm8-49 6-2 6-3 6-3a14 14 0 0 0 3-2 5 5 0 0 0 2-2 1 1 0 0 0 0-2 4 4 0 0 0-4 0 12 12 0 0 0-4 0 53 53 0 0 0-6 4 40 40 0 0 0-5 5c-2 1-4 3-4 5zm29 54a54 54 0 0 1 6-2 26 26 0 0 0 4-1 5 5 0 0 1 2 0 25 25 0 0 0 8-1 40 40 0 0 0 7-1 51 51 0 0 0 14-8l3-2a26 26 0 0 0 3-4l2-3a13 13 0 0 0 2-6c0-7-7-11-13-8l-5 6 2-2-5 6 1-1a46 46 0 0 1-8 8l2-2-4 3a23 23 0 0 0-2 2v-1l-1 1-3 2a42 42 0 0 0-4 3l-1 1v1a13 13 0 0 1-1 1 20 20 0 0 1-4 2 62 62 0 0 0-6 5l1 1z"/><path fill="#6cb767" d="M420 68h-8l4 5a24 24 0 0 0 2 2l2 2a6 6 0 0 0 5 2 6 6 0 0 0 5-6v-2a6 6 0 0 0-1-2l-2-2a24 24 0 0 0-2-3l-5-4a5 5 0 0 0-8 0 7 7 0 0 0-1 3 5 5 0 0 0 0 4 5 5 0 0 0 2 2 6 6 0 0 0 3 1 6 6 0 0 0 4-2Z"/><path d="M138 293c-39 4-80-12-104-43-26-31-32-77-17-114 8-21 23-39 39-54a248 248 0 0 1 50-37 301 301 0 0 1 259-13c38 17 70 46 89 83 20 38 24 84 14 126-9 41-31 79-59 110a329 329 0 0 1-47 43c-17 13-37 24-55 36s-35 27-46 46a135 135 0 0 0-20 59 131 131 0 0 0 0 31c1 2 4 4 6 3s3-3 3-6a124 124 0 0 1 8-62c8-20 21-37 38-51 18-15 38-26 57-39a356 356 0 0 0 50-41c31-30 56-67 69-109s14-89-1-131c-15-41-46-74-83-96C347 9 299 0 251 0c-44 0-88 9-129 27a270 270 0 0 0-56 34c-17 14-34 30-46 49-24 37-26 84-8 123 18 37 56 63 96 69a119 119 0 0 0 30 0c2 0 4-2 4-4 0-3-2-5-4-5Z"/><path d="M139 302c29-10 51-36 56-66 3-14 2-30-6-43-4-6-10-11-17-12l-12-1h-10c-5-4-2-12 1-16a48 48 0 0 1 15-14c14-9 29-11 45-10 19 1 37 8 54 15 14 6 28 13 40 22 11 9 20 22 22 37 1 17-6 34-15 49a173 173 0 0 1-32 39c-14 12-29 20-45 29-16 8-31 16-45 28a172 172 0 0 0-31 36 175 175 0 0 0-28 96 188 188 0 0 0 8 53 191 191 0 0 0 9 26c4 8 8 15 14 22 6 6 14 9 23 10a141 141 0 0 0 28 1c14-1 30-8 37-21a20 20 0 0 0 0-20c-3-5-11 0-8 5s2 10-2 14a33 33 0 0 1-7 6 46 46 0 0 1-7 4c-8 3-17 3-26 3s-18 1-26-4c-7-3-11-11-14-17a173 173 0 0 1-11-24 180 180 0 0 1-9-52 167 167 0 0 1 25-94 163 163 0 0 1 30-36c13-12 28-20 43-28 16-8 32-17 45-29a182 182 0 0 0 34-38c10-15 18-31 19-49 1-16-5-32-16-44-10-11-23-19-37-25-16-8-33-15-50-19-17-5-35-6-52-1-15 4-28 12-37 25-4 5-7 14-5 21a14 14 0 0 0 8 8c3 2 8 2 12 1h11a16 16 0 0 1 7 4c5 5 8 11 9 17 3 14 1 29-4 41a78 78 0 0 1-27 33 70 70 0 0 1-18 9c-5 2-3 11 3 9zm70 328c-11 1-21 3-31 7s-20 10-27 18c-12 14-17 37-5 54 6 8 15 14 26 16s24 1 35-2a123 123 0 0 0 18-6 32 32 0 0 0 13-11 50 50 0 0 0 7-14 60 60 0 0 0 3-17c0-11-4-22-11-31a38 38 0 0 0-26-13 33 33 0 0 0-8 1 5 5 0 0 0-3 5 5 5 0 0 0 5 3h1s1 0 0 0h2a27 27 0 0 1 3 0h2-1 1a29 29 0 0 1 3 1l4 1v1a36 36 0 0 1 2 0l3 2 1 1 1 1a36 36 0 0 1 4 4l1 1c-1-1 0 0 0 0l1 1a48 48 0 0 1 2 5 12 12 0 0 1 1 1s0-1 0 0l1 4a38 38 0 0 1 1 3 37 37 0 0 1 0 2v1c0-1 0 0 0 0a50 50 0 0 1 1 8l-1 3v3a56 56 0 0 1-2 8l-1 3h-1v1a49 49 0 0 1-1 2l-1 2a20 20 0 0 1-1 2l-1 1-2 2-2 2h-1a25 25 0 0 1-3 2l-1 1h-1l-1 1-8 2a124 124 0 0 1-16 4l-2 1h-6a58 58 0 0 1-8 0h-3l-3-1a55 55 0 0 1-6-2h-1l-2-1a56 56 0 0 1-6-4c1 1 0 0 0 0l-2-2a32 32 0 0 1-2-2v-1l-1-1a29 29 0 0 1-2-3l-1-1v-1c0 1 0 0 0 0a32 32 0 0 1-2-6s0-1 0 0a11 11 0 0 1 0-2v-3a40 40 0 0 1 0-3v-2s0 1 0 0v-1a45 45 0 0 1 2-6l1-3s0 1 0 0v-1a49 49 0 0 1 1-1 47 47 0 0 1 4-6v-1l1-1c-1 1 0 1 0 0l2-2a49 49 0 0 1 5-5h1s0-1 0 0l1-1a54 54 0 0 1 3-3 68 68 0 0 1 7-3l3-1c0-1 0 0 0 0l1-1 1-1a93 93 0 0 1 7-2 122 122 0 0 1 15-3h3s1-1 0 0l1-1h2c2 0 5-2 4-4 0-2-2-5-4-5z"/></svg>