<svg xmlns="http://www.w3.org/2000/svg" viewBox="0 0 283.3 397.6"><g fill="#d8d3ce"><path d="M16 97a14 14 0 0 1 1-2 10 10 0 0 0 1-3 48 48 0 0 1 2-5 74 74 0 0 1 4-8l5-7 2-2v-1l3-3a127 127 0 0 1 13-13l4-3c1-1-1 1 0 0l1-1 2-1 7-5 9-5 5-2c1-1-1 0 0 0l1-1 3-1c2-1 4-3 3-6a5 5 0 0 0-6-3 81 81 0 0 0-16 7l6 8 2-2v-1h2a42 42 0 0 1 5-3l1-1c1 0 0 0 0 0h1l3-1 6-2c4-1 8-3 13-3a33 33 0 0 1 1-1h1a38 38 0 0 1 4 0 33 33 0 0 1 4 0h3l8 2a76 76 0 0 0 9 1 5 5 0 0 0 1-9l-15-3a69 69 0 0 0-8-1 43 43 0 0 0-9 1 131 131 0 0 0-14 3 99 99 0 0 0-13 5 44 44 0 0 0-12 8 5 5 0 0 0 6 7 75 75 0 0 1 7-3l1-1c1 0-1 1 0 0h2a79 79 0 0 1 4-2l-3-9a121 121 0 0 0-34 19 95 95 0 0 0-13 14l-1 1c0-1 0-1 0 0l-1 1-2 2-2 4a95 95 0 0 0-5 8l-1 1v1l-1 1v2l-3 5a29 29 0 0 0-2 6 7 7 0 0 0 1 4 22 22 0 0 0 1 3 1 1 0 0 0 2 0z"/><path d="M14 91c-2 0-2 2-3 3l-1 4a45 45 0 0 0-1 9l-1 16a225 225 0 0 0 2 34l2 9a73 73 0 0 0 2 9c1 2 3 4 6 3s4-3 3-5l-1-8-2-8v-4l-1-1v-2l-1-8v-33a79 79 0 0 0 0-9v-2a16 16 0 0 1-1-2 11 11 0 0 1 1-2 4 4 0 0 0-1-3 3 3 0 0 0-3-1zm119-68h-1a1 1 0 0 0 0 1 5 5 0 0 0 1 0v-1z"/><path d="M131 25a32 32 0 0 0 4 0l-1-7-3 1a4 4 0 1 0 2 8l9-2 4-1c1 0-1 0 0 0h18l3 1a89 89 0 0 1 17 4c1 1-1 0 0 0l1 1 2 1 4 2a73 73 0 0 1 8 5h1v1l1 1 4 3a88 88 0 0 1 7 8l1 1 1 1v1l3 4 6 9a161 161 0 0 1 10 19l1 1v3a85 85 0 0 1 2 5l2 11 1 3v1c0 1 0 1 0 0v1l1 6 1 13v27a5 5 0 0 0 5 4 5 5 0 0 0 5-4 278 278 0 0 0-3-49 108 108 0 0 0-5-22 131 131 0 0 0-10-21c-7-12-15-24-25-33a80 80 0 0 0-35-16 70 70 0 0 0-22-1h-5l-6 1a41 41 0 0 0-10 3l4 7 3-1a4 4 0 0 0 1-5 4 4 0 0 0-4-2 35 35 0 0 0-4 1 3 3 0 0 0 1 6z"/><path d="M245 164a7 7 0 0 0 1 1c2 1 4 0 5-2a5 5 0 0 0 0-5 4 4 0 0 0-7 2v3l-1 5v7l-1 16-1 7v3c0-1 0 0 0 0l-1 3a36 36 0 0 1-1 4v1l-1 1c0 1 1 0 0 0a64 64 0 0 1-3 6l-4 6-2 3-1 1v1h-1l-9 12-7 12a68 68 0 0 1-4 6c-1 1 0 0 0 0l-1 1-1 1-2 3-13 12-5 6-4 3c-1 1 1 0 0 0a4 4 0 0 0-1 1h-1 1l2-1 1 1a4 4 0 0 0-6 3 5 5 0 0 0 3 5 6 6 0 0 0 6-1 19 19 0 0 0 3-2l3-3 12-11 11-12 8-13 4-6 2-3 1-1 1-2 9-12a65 65 0 0 0 8-14l3-15a272 272 0 0 0 1-28 14 14 0 0 0 0-3l-1-2a28 28 0 0 1 0-4l-6 2v-1l5-2a2 2 0 0 1-1 0 3 3 0 0 0-4 0 3 3 0 0 0 0 5z"/><path d="M14 175a12 12 0 0 0-1 2v4a47 47 0 0 0 1 6 81 81 0 0 0 4 12 88 88 0 0 0 5 10 69 69 0 0 0 8 10 73 73 0 0 0 9 9l5-8a13 13 0 0 1-2-1h-1a12 12 0 0 1-1-1c1 0 0 0 0 0l-1-1a5 5 0 0 0-7 0 5 5 0 0 0 0 7 294 294 0 0 0 25 27 240 240 0 0 0 27 23 210 210 0 0 0 29 17 90 90 0 0 0 34 10c14 1 27-3 38-12 2-1 1-5 0-7a5 5 0 0 0-7 0l-1 1c-1 1 1-1 0 0l-2 1a41 41 0 0 1-3 2l-4 2s1 0 0 0l-1 1a37 37 0 0 1-2 0 50 50 0 0 1-8 2c1 0 0 0 0 0h-3a61 61 0 0 1-8 0h-3c1 0 0 0 0 0a75 75 0 0 1-9-2 88 88 0 0 1-7-2l-2-1-1-1-4-1a203 203 0 0 1-29-17l-7-5-1-1-1-1-3-3-13-10-27-30-7 7a17 17 0 0 0 9 5 5 5 0 0 0 6-2c1-2 1-5-1-6a72 72 0 0 1-8-8 73 73 0 0 1-4-4l-1-1-1-3a77 77 0 0 1-6-9 71 71 0 0 1-1-3h-1v-2l-2-5-2-6v-3l-3-3a3 3 0 0 0-4 0zm6-89-3 7 8 4 1-2 1-2 3-5 3-5 1-2 1-1a153 153 0 0 1 15-16l9-9a5 5 0 0 0 0-6 5 5 0 0 0-7 0L33 65l7 7a134 134 0 0 1 16-16l3-2v-1h1v-1l5-3 10-6 11-6h1l1-1h1l1-1 7-2a48 48 0 0 1 6-1h1l1-1a29 29 0 0 1 4 0h1c1 0 0 0 0 0l1 1h3l7 2c9 2 20 4 28-2 2-1 3-3 2-5a5 5 0 0 0-4-4 48 48 0 0 0-15 3l4 9a12 12 0 0 1 1-1h1c-1 0-1 0 0 0a25 25 0 0 1 3-1h6a249 249 0 0 1 24 0c1 1 0 0 0 0l1 1h2l3 1a60 60 0 0 1 7 2h2l3 2a48 48 0 0 1 4 2l1 1 1 1a43 43 0 0 1 4 4l1 1 1 1s0 1 0 0l2 3 4 6a200 200 0 0 1 14 26l2 3v2l1 2 3 7 5 16a5 5 0 1 0 9-3l-3-15-1-2v-5a59 59 0 0 1 0-7l-10 1 7 27 8-4-12-15-2-2s0-1 0 0l-1-1-3-4a163 163 0 0 1-5-8l-9-16a59 59 0 0 0-13-14 153 153 0 0 0-17-10l-4 9a75 75 0 0 1 10 2l3 1 1 1 5 2a5 5 0 1 0 5-8c-8-4-15-9-24-11s-18-2-27-1l-16 2c-2 1-4 4-3 6 0 3 3 4 6 4l6-1 3-1h3a108 108 0 0 1 12-1h9v1h1a38 38 0 0 1 2 0 48 48 0 0 1 6 2l3 1 2 1 12 7 5-9a80 80 0 0 0-21-8 5 5 0 0 0-6 3 5 5 0 0 0 2 6 170 170 0 0 1 15 9l1 1v1h1l3 3 3 3 2 2s0 1 0 0l1 1 9 16a175 175 0 0 0 11 16l14 17a5 5 0 0 0 6 0 5 5 0 0 0 2-5l-6-28a5 5 0 0 0-6-3 5 5 0 0 0-4 4c-1 12 2 22 5 33l9-3a207 207 0 0 0-24-56 67 67 0 0 0-21-23 66 66 0 0 0-30-9h-18c-6 0-12 0-17 4a5 5 0 0 0-2 6c1 2 3 3 6 3a44 44 0 0 1 6-2 36 36 0 0 1 4-1h2l-3-9a17 17 0 0 1-2 1l-1 1s1-1 0 0h-3l-1 1h-2l-3-1h-1c-1 0 0 0 0 0h-1l-6-1a90 90 0 0 0-14-3 39 39 0 0 0-14 1 113 113 0 0 0-23 10 141 141 0 0 0-21 14 135 135 0 0 0-19 18c-2 2-2 5 0 7a5 5 0 0 0 7 0l19-16-7-7a160 160 0 0 0-30 33 76 76 0 0 0-6 12c-1 2 1 5 3 6a5 5 0 0 0 6-2l4-7c1-3 0-5-2-7a5 5 0 0 0-6 2z"/><path d="M20 108a3 3 0 0 0-2-3 3 3 0 0 0-3 1 3 3 0 0 0 1 5 5 5 0 0 0 5-1 22 22 0 0 0 3-3l8-13 2-3 2-2 4-6a173 173 0 0 1 22-20l3-2 1-1 1-1 7-5a75 75 0 0 1 7-4l3-2h1l2-1a91 91 0 0 1 15-4l4-1h2s1 0 0 0h2a139 139 0 0 1 26-1 5 5 0 0 0 4-5 5 5 0 0 0-4-5l-33-1c-5 0-11 0-16 2a31 31 0 0 0-10 8l-4 4a38 38 0 0 1-2 2 9 9 0 0 0-3 4c-2 3 1 5 4 6s5-3 7-4l4-4 4-4 1-2v1l1-1a21 21 0 0 1 1-1h1a14 14 0 0 1 2-1h25l18 1V31c-20 0-41 1-60 11a134 134 0 0 0-25 18 176 176 0 0 0-20 20 137 137 0 0 0-10 13 79 79 0 0 0-4 7l-2 3a14 14 0 0 0-1 3 6 6 0 0 0 0 2v1-2l2-2 2 1 1 1v1l-1 2a3 3 0 0 0 2-2z"/><path d="M67 71c-6 7-6 19-3 27 5 11 17 17 27 7 12-12 19-45-4-50-18-4-42 17-31 36 13 21 50-3 40-24s-38-2-47 10c-5 8-9 19-4 27 6 11 20 9 27 1a21 21 0 0 0 1-28c-6-8-18-10-28-6a31 31 0 0 0-20 19c-4 10 0 24 13 24 11 0 20-12 24-21 3-7 2-15-6-18-6-3-11-1-16 3a57 57 0 0 0-20 24c-2 6-1 12 0 19 1 5 1 11 3 15s9 7 14 6c5-2 8-6 8-12 1-6-5-11-11-11-7 0-11 5-12 11v1l9-12h-1l14 6-1-4-1-5 1-8a43 43 0 0 1 5-6l6-6h-6 1l-8-8v1-6a29 29 0 0 1-3 5 13 13 0 0 1-5 4l6-1 6 3-1-1 3 5v-1a12 12 0 0 1 1-1 9 9 0 0 1 5-4c4 0 2 1 2-1s2-3 4-2l5 3c5 4 0 5 2 3l2-3a23 23 0 0 1 4-6 25 25 0 0 1 6-4 23 23 0 0 1 3-1l-4-1-3-5c0-2 3-5 0-2l-1 1a19 19 0 0 0-3 2c1-1 7 6 7 6l4-4h2c-2 0-3-1-4-4l-1 4a37 37 0 0 1-2 6 32 32 0 0 1-1 3l-1 3v-1l6-2h-1l6 2c2 1 0 1 0-1a39 39 0 0 0-1-5c0-3-1-7-3-10-3-4-9-6-14-2z"/><path d="M25 101c-3 1-7 3-9 6a34 34 0 0 0-4 11 54 54 0 0 0 3 26c3 11 19 11 22 0a44 44 0 0 1 13-22l-19-5c1 6 6 10 12 10 5 0 9-4 14-6a115 115 0 0 1 21-9c16-5 32-6 48-6a427 427 0 0 1 79 7c7 1 14 3 20 7 10 7 21-6 16-16-8-14-20-25-34-35a187 187 0 0 0-42-24c-17-7-36-5-54-1S75 54 57 60l12 3-2-2v17c5-5 12-8 18-10a153 153 0 0 1 25-7 138 138 0 0 1 49 0c8 1 16 3 23 6l9 6v1-1a2 2 0 0 1 2-2c1 0 1 0 0 0l-8-2-13-4a199 199 0 0 0-29-6c-20-2-41 0-60 9-10 5-5 22 6 22a219 219 0 0 1 35 1l17 3a209 209 0 0 1 9 2 25 25 0 0 0 4 1l-1-1c7 14 28 2 20-11-3-7-10-9-17-11l-22-5a243 243 0 0 0-45-3l6 22c18-9 38-8 57-4l30 8c10 4 24 2 30-8 5-10 1-23-7-30a72 72 0 0 0-29-13 162 162 0 0 0-60-4 165 165 0 0 0-34 8c-11 3-23 8-31 16-5 5-4 12 0 17l1 2c3 3 8 4 12 3a540 540 0 0 1 48-15c15-4 31-7 46-1 13 4 25 13 36 21a84 84 0 0 1 27 28l16-16c-13-9-32-11-47-13a496 496 0 0 0-55-5c-34-1-69 5-98 23l9-1-1-1 9 8h-1a12 12 0 0 0-19-5 66 66 0 0 0-19 31h22a147 147 0 0 1-4-16 26 26 0 0 1 0-6v-8c1-5-4-8-8-6zm5 79a17 17 0 0 1 0-2v3l2-6a37 37 0 0 0 1-4v-2c1-8-6-17-14-14a12 12 0 0 0-5 19v1a37 37 0 0 0 2 2 44 44 0 0 0 4 5l-1-3a13 13 0 0 1 1 3c1 6 10 5 10-2z"/><path d="M37 186a45 45 0 0 0 0-26 11 11 0 0 0-1-3c1 1-3 6 0 2a29 29 0 0 0 2-2 78 78 0 0 1 8-9 80 80 0 0 1 35-20c16-4 32-4 48-5a447 447 0 0 1 53 3 192 192 0 0 1 27 4 71 71 0 0 1 11 4 36 36 0 0 1 5 3h2c0 1 0 1 0 0q-1-2-1 1l23-6a51 51 0 0 0-25-28c-11-5-21 5-16 16l12 24a37 37 0 0 0 6 10l3 3-1-3a9 9 0 0 0 0 4c2 5 6 10 12 9 4-1 8-2 10-6 3-6 2-13-4-16-5-3-13-2-16 4a23 23 0 0 0-2 17c3 12 24 10 23-3l-1-19c-1-11-16-16-22-5-7 10-9 23 0 33 8 8 24 0 19-11-13-36-55-44-90-43-18 0-36 1-54 4-19 2-35 9-51 20a53 53 0 0 0-19 22c-4 8-5 17-9 25-5 14 11 24 21 12a83 83 0 0 1 10-11c5-4 4-12 0-16a12 12 0 0 0-16 0 116 116 0 0 0-14 15l20 12c5-11 6-27 15-36 5-5 12-8 18-11a73 73 0 0 1 21-8c15-3 30-3 46-4 15-1 31-2 46 2 13 3 29 10 34 23l19-11c1 1 0 2 1 0l3-6-22-6 2 19 22-3-16 5-4-16 10-6 11 9c0 2 0 1 0 0a11 11 0 0 0-1-4 18 18 0 0 0-4-7l-6-7-12-26-16 16c6 3 12 8 14 14 6 14 25 9 23-6-2-10-12-16-20-19a112 112 0 0 0-27-8 435 435 0 0 0-61-5c-20 0-40 0-59 4a106 106 0 0 0-48 24 83 83 0 0 0-19 21c-3 6-2 12 0 18a28 28 0 0 1 0 13c-3 14 17 20 22 6z"/><path d="M55 193c12-8 23-17 37-22a125 125 0 0 1 38-10 129 129 0 0 1 79 19 12 12 0 0 0 16-4c3-6 1-13-4-16a167 167 0 0 0-21-12l-3-2a14 14 0 0 1-2-1q-3-1 2 3l-12 15c19 2 31 21 40 35 6 10 22 6 22-6 0-10 1-22-7-29a30 30 0 0 0-11-6l-4-2c2 1-1-1 0 0l-1-1-14 18c4 3 11 6 11 12a150 150 0 0 0 4 26l20-12c-16-12-31-25-48-35a87 87 0 0 0-55-12c-10 1-19 2-28 6-10 4-18 9-27 15-17 10-33 21-50 30-13 7-1 28 12 21l46-29c14-9 28-18 45-20h24c8 1 14 5 21 9 15 9 29 20 43 32 9 7 22 0 20-12a108 108 0 0 1-3-13c0-5 0-11-2-16-3-10-13-17-21-22-5-3-12-2-15 3-4 5-3 10 0 15 5 6 11 7 17 9 1 1 1 1 0 0 1 1 1 1 0 0 0-2-1-3-1 0l1 13 21-6c-13-23-32-43-60-47-8-1-12 8-11 15 1 8 10 11 16 15a153 153 0 0 1 19 11l12-20a150 150 0 0 0-91-22 151 151 0 0 0-45 10 190 190 0 0 0-42 26c-5 3-7 10-4 15 3 6 11 8 16 4z"/><path d="M62 224c-1-3-3-5-6-6-7-2-16 7-11 13 4 5 9 8 15 6 5-1 8-4 12-7l20-15a149 149 0 0 1 45-21c14-4 31-5 44 2 7 4 12 9 17 15l20 20 9-20a66 66 0 0 0-8 1l-5 2-4-3c-6-5-12-11-19-15-14-10-30-17-47-16a84 84 0 0 0-47 18 183 183 0 0 0-19 16c-4 4-8 11-14 13-8 3-12 12-5 19 6 6 12 15 21 15 8 0 13-8 19-13a106 106 0 0 1 34-21c12-4 26-8 39-6 14 3 25 17 36 26l14-18-2-1c-5-3-12-2-16 4-3 5-1 13 5 16l1 1c6 2 12 2 15-3 4-5 4-12-1-15-11-11-23-24-38-30a75 75 0 0 0-42-2 129 129 0 0 0-38 15 138 138 0 0 0-17 12 110 110 0 0 0-12 10l-1 2c-2 2-2 2 1 0h6q4 3 1 0l-3-3-6-5-5 19c16-6 25-20 38-30 10-9 23-16 37-16s28 8 39 16c6 5 11 11 18 15a25 25 0 0 0 13 3l12-3c4 0 8-2 10-7a12 12 0 0 0-2-13l-20-20c-6-6-13-13-20-17a83 83 0 0 0-56-7c-18 3-35 11-50 20l-22 15-11 8c-4 3-8 4-11 9l17 2v4l-2 2c2-1 3-4 2-6z"/><path d="M218 244a56 56 0 0 0-16-12 102 102 0 0 0-22-8 231 231 0 0 0-47-4l3 23c14-5 29-4 44-3 13 1 15-20 3-23a91 91 0 0 0-62 5l12 20c20-13 45-15 69-14l-3-23a146 146 0 0 0-29 12c-9 5-18 6-28 8a129 129 0 0 0-29 10 78 78 0 0 0-24 19l14-2a15 15 0 0 0-13-2 12 12 0 0 0-8 13c1 6 5 10 11 10s13 6 19 10c7 4 15 9 24 11 10 2 22 1 32 0s20-7 29-13c7-6 15-18 9-27-4-6-10-7-17-7a106 106 0 0 1-15-2 114 114 0 0 0-32-3c-11 1-26 2-30 14a15 15 0 0 0 7 17c5 3 11 4 16 4l38 4c10 0 14-10 10-18v-1c-3-6-11-7-16-4-6 3-7 10-4 16v1l10-18-24-1-10-2h-5a26 26 0 0 1-3-1q-4-1 4 4v6l-4 5 1-1 4-1a71 71 0 0 1 7 0 100 100 0 0 1 17 0l15 3c5 1 12 0 17 2l-5-3h1l-3-5v1-6c-1 5-10 10-16 12l-14 2-14-1c-8-2-14-7-21-11-8-5-17-9-27-10l3 23h2-7v-1a12 12 0 0 0 14-2 62 62 0 0 1 20-16 110 110 0 0 1 27-7c10-2 19-4 29-9 8-4 15-8 24-10 13-4 10-22-3-23-28-2-57 2-81 17a12 12 0 0 0-4 16c3 6 10 7 16 4a65 65 0 0 1 44-3l3-23c-17-1-34-1-50 5-5 2-9 6-8 13a12 12 0 0 0 11 10c13 0 27 0 39 2a86 86 0 0 1 16 5 51 51 0 0 1 13 9c5 4 12 4 17 0a12 12 0 0 0 0-16zm-92 73c-3 1-4 3-5 6a34 34 0 0 0-1 11v2a5 5 0 0 0 0 3 2 2 0 0 0 2 0 3 3 0 0 0 2-2 15 15 0 0 0 0-5 55 55 0 0 0 0-6l-2-4c-1-2-3 0-3 1a10 10 0 0 0-1 4 29 29 0 0 0 1 6 28 28 0 0 0 1 5 3 3 0 0 0 1 1 2 2 0 0 0 3-1 7 7 0 0 0 1-2v-3l1-5c0-1 1-5-1-5l-2 2a23 23 0 0 0 0 3 32 32 0 0 0 0 12h2a15 15 0 0 0-1-2v-3 1l-1 2a15 15 0 0 0 0 2h2a35 35 0 0 1-1-8 28 28 0 0 1 1-4v-3 1l-1 2v3l-1 4v2a3 3 0 0 1-1 0v1-2l-1-1a29 29 0 0 1-1-4 17 17 0 0 1 0-6 5 5 0 0 1 1-1 3 3 0 0 1 0-1 6 6 0 0 1 1 1 14 14 0 0 1 0 2 55 55 0 0 1 0 7 12 12 0 0 1 0 3 3 3 0 0 1 0 1h-1l1 1a3 3 0 0 0 0-1v-1a42 42 0 0 1 0-7 39 39 0 0 1 1-7 10 10 0 0 1 3-5v-1z"/><path d="M115 334a41 41 0 0 0 3 10 5 5 0 0 0 6 3 6 6 0 0 0 4-4 250 250 0 0 0 5-16 12 12 0 0 0 0-3 9 9 0 0 0-2-5l1 2a8 8 0 0 0-13-3l-4 8a43 43 0 0 0-2 14h15v-4 2a94 94 0 0 0-2-12l-3-10 1 2v-1l-1 2v2c1-3 2-6 0-9a8 8 0 0 0-12-3 9 9 0 0 0-4 7v15l15-2-1-4v2l-3-26-2-11c-1-4-3-7-3-11a9 9 0 0 0-10-6c-4 0-8 4-7 8 0 5 2 9 3 13l3 12 3 11 2 12v-1 3c1 3 3 7 7 7 3 0 7-2 8-5l2-17-12 7v1l-2-2v1l-1-2h1l-1-1a74 74 0 0 1 4 17v-2a38 38 0 0 1 0 5c0 4 4 7 8 7s7-3 7-7a58 58 0 0 1 0-3v2l1-5v2a49 49 0 0 1 1-6l1-3v-1q-5 5-1 2a6 6 0 0 1-4 2l-5-2v-1l-1-2v6a88 88 0 0 1-2 9l10-1-2-4-1-2-1-1v-1c-1-2-3-4-6-3a5 5 0 0 0-3 6z"/><path d="M109 288a9 9 0 0 0-1 6 19 19 0 0 0 2 6 18 18 0 0 0 4 7c4 3 9 6 15 7a8 8 0 0 0 4 0 8 8 0 0 0 4-1 11 11 0 0 0 4-16l-6-5a32 32 0 0 1-8-2l3 1a24 24 0 0 1-3-1l-1-1a28 28 0 0 0-3-1l2 1a21 21 0 0 1-4-2 16 16 0 0 0-3-2 8 8 0 0 0-9 3Z"/><path d="M128 300a12 12 0 0 0-3 6 49 49 0 0 0-1 6l-1 8v-2l-2 14 16 2-1-16a36 36 0 0 0-7-14c-2-2-6-3-9-2-2 1-5 3-6 6l-1 9-2 11 1-3-4 26a13 13 0 0 0 4 9 13 13 0 0 0 7 4 12 12 0 0 0 8-2c3-2 6-4 6-8a83 83 0 0 0 2-8v-5a187 187 0 0 0-2-23l-1-5-1-5-13 9 1 1-2-2a18 18 0 0 1 3 3l-1-1 1 2-1-2a27 27 0 0 1 2 7l-1-2a88 88 0 0 1 1 11c0 4 4 8 8 8a8 8 0 0 0 6-2 10 10 0 0 0 2-6l2-16 1-7-1-4-1-6a6 6 0 0 0-10-1z"/><path d="M117 330c-3 1-5 2-6 4a11 11 0 0 0-2 5l14 2a24 24 0 0 0-1-5l-1-4-14 5c1 1 1 1 0 0v1-2a66 66 0 0 1 0 12l-1 13v-2a21 21 0 0 1-1 5l1-2a26 26 0 0 1-4 5l2-2-5 5v8a8 8 0 0 0 7 4c4 0 7-2 9-4a22 22 0 0 0 5-6 29 29 0 0 0 4-14l-1-13a56 56 0 0 0 0-8 15 15 0 0 0-1-3 13 13 0 0 0-1-2c-1-1-1-1 0 0l-1-2a7 7 0 0 0-4-3 8 8 0 0 0-5 0 7 7 0 0 0-4 9l1 4a24 24 0 0 0 2 5 7 7 0 0 0 13-6v-1s-1-1 0 0v-1a3 3 0 0 0-1-1 11 11 0 0 0-1-2l1 1a10 10 0 0 0-1-2 5 5 0 0 0-4-3zm11 8c-1 1 0-2 0 0a12 12 0 0 0-1 2v1l1 5-1 5v3c-1 1 0-1 0 0l-1 1-1 5a50 50 0 0 0-1 6v12a6 6 0 0 0 5 4 6 6 0 0 0 7-3l1-8 1-5a36 36 0 0 0 0-5v-5a43 43 0 0 1 0-5v-4c0 1 0 0 0 0a21 21 0 0 0 1-6 16 16 0 0 0 0-3 9 9 0 0 0-2-4 6 6 0 0 0-6-1 6 6 0 0 0-4 5z"/><path d="M124 354c-3 1-5 3-6 5a30 30 0 0 0-3 5 75 75 0 0 0-3 8 17 17 0 0 0-1 5 11 11 0 0 0 1 5 10 10 0 0 0 3 3 8 8 0 0 0 4 2h2a7 7 0 0 0 4-1 9 9 0 0 0 4-4 15 15 0 0 0 1-2 10 10 0 0 0 0-4v-3 3-11a45 45 0 0 0-1-5l1 2v-2s0-2-1 0a5 5 0 0 0-1-5 5 5 0 0 0-4-1z"/><path d="M132 367a7 7 0 0 0-3 3v3l-1 4v1a11 11 0 0 0 0 1h11l-4-22v-4c-1 0 0 1 0 0l-1-5c0-5-2-9-6-11a7 7 0 0 0-6-1 8 8 0 0 0-5 5l-4 16-2 18v-2l-1 8v2a6 6 0 0 0 2 3 8 8 0 0 0 4 3c4 0 8-1 10-4a43 43 0 0 0 3-17l1-15 3-29c0-6-1-12-3-17a9 9 0 0 0-10-4 9 9 0 0 0-6 8l-1 12a26 26 0 0 0 0 6v5l4 5-2-2v-1l1 1a13 13 0 0 0 0 2 4 4 0 0 0 3 2 4 4 0 0 0 3-1 15 15 0 0 0 1-2h1l-3 1 5-4a40 40 0 0 0 2-4 28 28 0 0 0 2-8l1-12-16 4a19 19 0 0 1 1 2l-1-2a21 21 0 0 1 1 5v-3a61 61 0 0 1 0 13l-1 14-3 29v-2a32 32 0 0 1-2 7l17 3 1-15v2l2-12 2-13-10 7 1 1-2-1s1 0 0 0l-1-1 1 1v-1 1l1 2 2 10 4 20a6 6 0 0 0 6 4 6 6 0 0 0 6-6 32 32 0 0 0-1-7 26 26 0 0 0 0-3 7 7 0 0 0-3-4 4 4 0 0 0-4 1zm-83 27 13-1a233 233 0 0 1 14 0l27 1 27 3 27-1 14-2a67 67 0 0 1 7-1h7a2 2 0 0 0 0-3l-6-1h-7l-13 1h-53l-27-1-15 1-15 3a1 1 0 0 0 0 1z"/><path d="M121 385c-2 3 2 6 5 7a8 8 0 0 0 7-2 6 6 0 0 0 2-8c-2-3-6-5-9-3s-3 6-2 9 3 6 6 7a7 7 0 0 0 8-4c2-3 1-6 0-9l-9 4c3 5 9 8 14 6a8 8 0 0 0 5-7c0-3-2-6-3-8-3-3-8-1-9 2a18 18 0 0 0 0 6l9-1a11 11 0 0 0 0-3l-1-1c0-1 0 1 0 0l-7 4c2 3 6 4 10 5l6 1h3a10 10 0 0 0 4 0h-1l6 1a20 20 0 0 0 3 0 20 20 0 0 1 3 0l11 1-2-3v1l1-2h1l1 1v1l-1 1h1-1v1l1-4-22-2-11-1-11-1c-2-1-4 0-4 2a4 4 0 0 0 2 5l9 1h7a4 4 0 0 0 1-8l-4-1-4-1-8-3-8-3-4-1-5-1c-2 0-3 1-4 3a11 11 0 0 0 0 1 5 5 0 0 0 1 4 9 9 0 0 0 3 2l2 1 4 1 9 2 8 2 4 1 4 1 1-8h-11a23 23 0 0 0-4-1l1 8a69 69 0 0 1 11-1h11l22 2c2 0 2-4 0-4-1-1-3 0-4 2a2 2 0 0 0 3 2 2 2 0 0 0 2-1 2 2 0 0 0-2-3 91 91 0 0 1-11-1 15 15 0 0 1-2-1 19 19 0 0 0-3-1l-5-1 1 1a11 11 0 0 0-3-2l-3-1-6-2a44 44 0 0 1-4-1h-2v-1h-1a4 4 0 0 0-5-1 5 5 0 0 0-2 5v1-2a18 18 0 0 0-1 3 24 24 0 0 0 1 3c0 2 3 4 5 3s5-2 5-4a15 15 0 0 1 0-3v-1l-8 2v1c0 1 0 1 0 0a3 3 0 0 0 0 1v-1a1 1 0 0 1 0-1c1 0 1 0 0 0a4 4 0 0 1 2-1c1 0 1 0 0 0h-1c-1-1 0 0 0 0l-1-1a10 10 0 0 1 0-1 5 5 0 0 0-6-2c-3 1-4 4-3 6v2c0-1 2-2 3-1a1 1 0 0 1 1 0c0-1 0 0 0 0a2 2 0 0 1 0-1c0 2 0-2 0 0l-3 3c1 0 1 0 0 0a3 3 0 0 1-2 0 3 3 0 0 1-1-4 2 2 0 0 1 1-1 5 5 0 0 1-1 1c1 0 1-1 0 0v-1c1 1 1 1 0 0h-1a4 4 0 0 0-6 2z"/><path d="M124 388a12 12 0 0 0-4-4 18 18 0 0 0-5-2 67 67 0 0 0-10-1H95a47 47 0 0 0-11 0c-2 0-4 3-4 6a5 5 0 0 0 5 4 20 20 0 0 0 9-3 29 29 0 0 0 4-2s2-1 1-2l-1-2a21 21 0 0 0-4-1 44 44 0 0 0-9 0l2 10h1l3-1h4a151 151 0 0 1 18 1l1 1h7c2 0 4-2 3-4z"/><path d="M117 379h-4l-4-1-4-1-5-2 1 9 2-1c0-1 0 0 0 0v-1a16 16 0 0 1 3-1l-5-8a63 63 0 0 1-6 4 25 25 0 0 1-6 2l3 7h-1v-7l-5 2c-2 0-4 2-4 4 0 3 3 4 6 3l5-2a4 4 0 0 0 3-3 4 4 0 0 0-2-4 6 6 0 0 0-6 0 4 4 0 0 0-1 5 4 4 0 0 0 4 2c5-1 10-2 15-5a5 5 0 0 0 2-6c-2-2-4-3-7-2a25 25 0 0 0-6 4c-2 2-1 7 3 8a41 41 0 0 0 12 0 16 16 0 0 0 4-2c2 0 3-2 3-3a1 1 0 0 0-1-1z"/><path d="M83 386a5 5 0 0 0-2-1l-3 1a2 2 0 0 0-2 2 2 2 0 0 0 2 2 9 9 0 0 1 5 0l1-3-5-1 1 3a6 6 0 0 1 2-2c2-2 1-5-1-4l-9 3c-2 1-1 4 2 4a41 41 0 0 1 4 0 2 2 0 0 0 0-4 16 16 0 0 0-6 0 7 7 0 0 1-1 0h-2l-3 1-6 2-6 2v2l22-1a91 91 0 0 0 11-1l5-1 6-1a11 11 0 0 0-5-2 29 29 0 0 0-5 0l-12 1-11 1-12 2c-1 0-1 2 1 2h6a54 54 0 0 0 6-2l3-1a18 18 0 0 1 3-1h3a14 14 0 0 1 3 1v-4a47 47 0 0 1-5 0l1 4 8-3-2-4a11 11 0 0 0-3 4c-1 1-1 3 1 3l5 1c2 0 4-3 2-4a11 11 0 0 0-8-1l1 4 3-1a5 5 0 0 0 3-2 1 1 0 0 0-1-1zm44-15c4-4 5-11 6-17l1-11 2-12h-1a54 54 0 0 0-3 11 103 103 0 0 0-2 11c-1 6 0 13-4 18z"/></g><path d="M130 20zm-3-1a151 151 0 0 1 24-3 121 121 0 0 1 18 0 70 70 0 0 1 34 14 99 99 0 0 1 24 27 132 132 0 0 1 16 37 614 614 0 0 1 7 90 83 83 0 0 1-9 40l-13 16a46 46 0 0 0-6 8 96 96 0 0 1-5 9c-6 10-15 19-24 27a79 79 0 0 1-10 8 53 53 0 0 1-8 4 65 65 0 0 1-10 3 55 55 0 0 1-16 1l-14-1c-7-1-14-5-20-9l-19-11a229 229 0 0 1-37-29 222 222 0 0 1-28-32l-6-8a71 71 0 0 1-5-9c-3-6-4-13-5-20l-4-23a222 222 0 0 1-2-23c0-15 0-30 5-45a92 92 0 0 1 19-35 112 112 0 0 1 31-25c13-7 28-12 43-12a69 69 0 0 1 23 4 1 1 0 0 0 1-2 5 5 0 0 0-2-1l-2-1c-1-1-3 0-2 1a5 5 0 0 0 2 2 5 5 0 0 1 2 1l2-3c-15-7-33-5-48 0a116 116 0 0 0-37 20 107 107 0 0 0-27 30C12 82 8 96 6 111c-1 16 0 32 2 47l3 24c1 7 3 14 6 20a66 66 0 0 0 5 9l6 9a257 257 0 0 0 14 17 232 232 0 0 0 33 31 208 208 0 0 0 19 14l21 11a53 53 0 0 0 20 9l14 2a57 57 0 0 0 17-2 68 68 0 0 0 10-3 59 59 0 0 0 9-4 79 79 0 0 0 10-8 205 205 0 0 0 13-14 120 120 0 0 0 12-14 93 93 0 0 0 5-9 46 46 0 0 1 6-8c5-6 10-11 13-18a69 69 0 0 0 7-19c3-15 2-30 2-44 0-16 0-32-3-47a139 139 0 0 0-33-75 80 80 0 0 0-30-21 71 71 0 0 0-19-5 117 117 0 0 0-19 0 145 145 0 0 0-23 4c-1 0-1 3 1 2zM74 138l12 9 12 9a173 173 0 0 1 21 22l4 5a23 23 0 0 1 2 3c0 2 1 3 3 3 3 0 1-4 0-6a51 51 0 0 0-5-6 169 169 0 0 0-21-21l-14-10-14-8h-1z"/><path d="M126 137a5 5 0 0 1-2 3l-2 2-5 5-10 11q-9 10-17 22l-5 6-2 3a7 7 0 0 0-1 2 6 6 0 0 0 0 2h1a8 8 0 0 0 1 0 6 6 0 0 0 1-2l2-3 4-6 9-12 20-22 5-6c2-1 3-3 2-5h-1zm31-5 12 9 14 10 12 10 11 9a64 64 0 0 1 5 6l2 3 1 2 1 1c0 1 0 0 0 0l1-1-2 1c1 3 4 1 4-1l-2-3-2-3a76 76 0 0 0-11-12l-28-21-9-6a47 47 0 0 0-9-5v1z"/><path d="M207 130a74 74 0 0 0-11 11l-10 11a263 263 0 0 0-17 25l-4 8a19 19 0 0 0-1 4l-2 4h1l2-3a36 36 0 0 0 2-3l4-7 8-12a269 269 0 0 1 18-24l11-13-1-1zm-67 172-3 25v39c0 3 1 7 3 10a16 16 0 0 0 9 5l5 2 7 1 6 1 6 2a41 41 0 0 1 11 3l1 1a14 14 0 0 0 1 1 1 1 0 0 0 2-1 1 1 0 0 0 0-1 10 10 0 0 0-1-1 11 11 0 0 0-2-1l-2-1a45 45 0 0 0-5-2l-12-3-3-1h-3l-6-2a60 60 0 0 1-5-1 15 15 0 0 1-4-2c-3-2-4-5-4-8l-1-12a303 303 0 0 1 3-51v-3a2 2 0 0 0-1-2 2 2 0 0 0-2 2zm-92 92a13 13 0 0 0 2-1l1-1 4-1 7-2 12-3a95 95 0 0 0 11-4 44 44 0 0 0 13-7c7-6 10-17 10-26a121 121 0 0 0 0-16l-2-17a186 186 0 0 0-8-32l-1-4a2 2 0 0 0-2-1 2 2 0 0 0-2 2 196 196 0 0 1 9 32 209 209 0 0 1 4 32c0 9-2 19-8 26a34 34 0 0 1-12 7l-6 3-5 2-11 3a78 78 0 0 0-14 5h-1a10 10 0 0 0-2 2l1 1zm113 4v-1 1zm-92 0v-1z"/><path d="M9 148a35 35 0 0 0 5-10c0-2 2-6 0-8a2 2 0 0 0-3-1c-3 1-4 4-5 7l-2 11a3 3 0 0 0 5 1zm10-25 15-3 14-4 28-7a461 461 0 0 1 59-9 382 382 0 0 1 59 0l29 2 16 2 14 2c5 0 5-7 1-8-7-3-16-3-23-4a374 374 0 0 0-71-3 463 463 0 0 0-92 13l-26 7-13 4c-4 1-7 4-11 6l1 2z" opacity=".5"/><g fill="#1e9e5b"><path d="M6 130zm197-41a25 25 0 0 1 8 0v-3h-4v3a5 5 0 0 0 3 1 2 2 0 0 0 1-3 3 3 0 0 0-4-1 2 2 0 0 0 1 4l8 1h15a62 62 0 0 1 7 1c9 2 19 3 28 6l7 2 2 1a1 1 0 0 1 1 0l-2 3 4 1a2 2 0 0 0-3-2c-3 1-1 5 1 4a6 6 0 0 0 4-6c0-3-3-4-5-5a96 96 0 0 0-15-5l-16-2-8-1-4-1h-2l-3-1a46 46 0 0 0-9-1 77 77 0 0 0-10 1l2 3-1 1 1-4h-1l-1 3h4c1-1 1-3-1-3a21 21 0 0 0-9 1c-2 0-1 2 1 2z"/><path d="M278 103a1 1 0 0 0 1 0 3 3 0 0 0 1 0 3 3 0 0 0 1-1 4 4 0 0 0 0-2 2 2 0 0 0 0-1 2 2 0 0 0-1-1 1 1 0 0 0-2 0 1 1 0 0 0 0 1 1 1 0 0 0 0 1 1 1 0 0 1 0 1v-1a5 5 0 0 0 0 1 3 3 0 0 1 1 0h-1a2 2 0 0 1 1 0 2 2 0 0 1-1 0s0 1 0 0v1c0-1 0 0 0 0a1 1 0 0 0 0 1z"/></g><g fill="#092616"><path d="M150 94h1v1a2 2 0 0 0 1 0h2a2 2 0 0 0 0-3h-4a2 2 0 0 0-1 3 32 32 0 0 0 10 1l5-1h4l21 1a473 473 0 0 1 62 6l1-5-11-4-2 5 15 4 16 3 2-5c-1 0-1 0 0 0-2-3-6 0-5 3a5 5 0 0 0 3 2 3 3 0 0 0 2-5l-16-4a334 334 0 0 0-16-3 3 3 0 0 0-2 5c4 3 8 4 13 4a3 3 0 0 0 3-2 3 3 0 0 0-2-3l-40-6a361 361 0 0 0-40-1l-6 1a31 31 0 0 0-5 0l-11 1v3l5-1-1-2c-1 0-5 1-4 2h1a1 1 0 0 0-1 0z"/><path d="M269 103a2 2 0 0 0-1 0 5 5 0 0 0 0 1 10 10 0 0 0-1 1l-1 1a3 3 0 0 0 0 2 2 2 0 0 0 1 2v-1h-1a5 5 0 0 0 1 0 1 1 0 0 0 1 1 2 2 0 0 0 2-1 4 4 0 0 0 1-1 7 7 0 0 0 0-2v-1a4 4 0 0 0 0-1 2 2 0 0 0 0-1 1 1 0 0 0-2 0z"/><path d="M267 107h-1a7 7 0 0 1 0 1l-1 1a2 2 0 0 0 0 3l4-1-2-4-3 1a36 36 0 0 0-3 1l-5 1-1 1a10 10 0 0 0-1-1 56 56 0 0 0-13-14l-3 5c2 2 5 2 8 2l7 2 7 2c3 1 6 2 9 1a3 3 0 1 0-2-5l-6-2-7-1-7-3-6-1a3 3 0 0 0-3 5 52 52 0 0 1 7 7l4 4 3 4c4 2 7-2 11-2a29 29 0 0 0 4-1 7 7 0 0 0 3-3 2 2 0 0 0 0-3 2 2 0 0 0-3 0l-3 2 2 2 2-4a1 1 0 0 0-1 0z"/><path d="M274 104h-1v-1h-1a2 2 0 0 0-1 0l2 1a3 3 0 0 0-1-1 3 3 0 0 0-1 0 2 2 0 0 0-1 1 2 2 0 0 0-1 0 3 3 0 0 0 0 1 3 3 0 0 0 0 1l1-3a3 3 0 0 0-1 1v4h1a2 2 0 0 0 1 0 1 1 0 0 0 1 0 1 1 0 0 0 1 0 1 1 0 0 0 0-1 1 1 0 0 0 1 0 1 1 0 0 0 0-1 1 1 0 0 0 0-1 2 2 0 0 0 0-1z"/><path d="M271 105a2 2 0 0 0-1-1v1-1a1 1 0 0 0-1 0 3 3 0 0 0 0 1h1-1a2 2 0 0 0 1 1 1 1 0 0 0 1-1 1 1 0 0 0 0-1zm-7-1a3 3 0 0 0-2 0h1a2 2 0 0 0-2 1c-1 2 1 3 2 4v-2h-1l1-1h-2a9 9 0 0 1-1 0h-1l-1-1v5h3a3 3 0 0 0 3-2 3 3 0 0 0-1-3c-3-2-6-2-10-2a3 3 0 0 0-2 4l3 5 5-3-3-4c-1-2-2-3-4-3a3 3 0 0 0-3 4 37 37 0 0 0 3 5l4-5a12 12 0 0 1-2-1s-1-1 0 0l-1-1-1-1a6 6 0 0 0-2-2 3 3 0 0 0-4 3c0 2 2 3 3 5a13 13 0 0 0 4 2 3 3 0 0 0 3-5l-1-1-1-2-2 5a2 2 0 0 1-1-1c-1 0-1 0 0 0h-1 1l1 2 2 3a3 3 0 0 0 4 1 3 3 0 0 0 1-4l-3-5-2 4 2 1h1c-1 0 0 0 0 0a18 18 0 0 1 2 0l1 1 3-6a15 15 0 0 0-7 1c-2 0-3 4-1 5 4 2 9 2 11-1a2 2 0 0 0-1-3l-2-2 1 2v-1 1l1-1a1 1 0 0 0-1-1z"/></g><g fill="#4ea676"><path d="m27 116 11-4 10-3a217 217 0 0 1 21-7 320 320 0 0 1 46-7l26-2c2-1 3-3 1-4s-4-1-5 1a1 1 0 0 0 0 1l1 1a3 3 0 0 1 2 0l1-3a354 354 0 0 0-47 4 254 254 0 0 0-45 11 120 120 0 0 0-23 11l1 2z"/><path d="M127 92a15 15 0 0 0 2 0h10l12-1-1-4a13 13 0 0 1-5 1v3l46-1 23 1a43 43 0 0 0 6 0 33 33 0 0 1 6 0l11 1 26 3v-3h-8v3a95 95 0 0 1 17 5c2 1 3-2 2-4s-4-2-5-3l-2 3c3 1 8 3 7 7 0 2 2 4 4 2 1-1 3-3 2-5a4 4 0 0 0-3-4c-3 0-3 4-1 4 1 0 0 0 0 0v1a5 5 0 0 1-1 1l4 2a8 8 0 0 0-3-7l-8-4c-2 0-2 2-1 3l5 4 1-4a105 105 0 0 0-18-4 2 2 0 0 0 0 3h9c1 0 2-3 0-3l-23-3-12-1h-5l-7-1a435 435 0 0 0-46-1l-26 1a2 2 0 0 0 0 4 16 16 0 0 0 6-1c2 0 2-3 0-3l-12 1-6 1h-3a13 13 0 0 0-3 1v2z"/></g><g fill="#30b776"><path d="M37 89c7 4 16-4 20-9l-4 2h1c5-1 8-7 8-12a11 11 0 0 0-11-9c-6 0-11 4-13 10-4 7-1 14 7 17 6 2 13-1 18-4s11-8 13-14a14 14 0 0 0-9-18 20 20 0 0 0-19 4c-10 10-9 27 3 35a20 20 0 0 0 20 0 17 17 0 0 0 7-8c2-4 0-6-1-10a5 5 0 0 0-5-4l2 1-2-1a12 12 0 0 0-5-1l-7 2 5 2c0 3-5 2-6 2l-4-4v1l-1-6 1-4-1 1-2 2a8 8 0 0 1-5 2h6-1l5 3-1-1 3 12 3-6H41v1l1-7c-3 5-9 10-9 17 0 2 2 4 4 4zM7 138c-2 1-3 2-2 4h3l3-24a89 89 0 0 1 30-65 182 182 0 0 1 41-27 122 122 0 0 1 49-11c8 0 8-13 0-13a128 128 0 0 0-53 12c-16 8-31 19-45 30S11 71 5 87c-6 17-2 37-1 54l3-1c2 0 1-2-1-2z"/><path d="m10 138 12-18a51 51 0 0 1 13-14l-7-7a8 8 0 0 1-2 3c-5 4 1 11 6 8a86 86 0 0 1 23-10 146 146 0 0 1 11-2c4-1 9-1 12-3 4-3 3-7-1-9s-9 0-13 1l-13 3a93 93 0 0 0-24 11l6 8a18 18 0 0 0 4-6c2-4-4-9-8-6-12 9-18 24-24 38-2 3 3 6 5 3z"/><path d="m70 95 9 2 10-3c7-1 4-12-3-10l-9 2-8 2c-3 1-2 7 1 7Z"/><path d="M83 93c9 2 19-1 27-3l29-3 57-3-1-10-5 1c-6 1-4 9 1 9 9 1 19 2 28 1l14 2c3 0 6 1 8-3l-4-1v1a3 3 0 0 0 1 3l2 1c5 2 7-7 1-6h-1l2 1c-2-4-4-4-9-5l-14-2c-9-2-19-2-28-2v10l5-1c7 0 7-9 0-9-19-1-39 0-59 1l-28 4c-9 1-20 2-28 7-2 2-1 7 2 7z"/><path d="M14 125a171 171 0 0 1 15-28l8-13a111 111 0 0 1 11-11c15-12 33-20 51-27 5-2 9-7 8-13-1-5-6-10-12-10a63 63 0 0 0-32 12c-5 4-8 10-5 16a12 12 0 0 0 17 5c23-15 48-26 76-24a60 60 0 0 1 52 39l15-15c-17-3-34-1-51 0A823 823 0 0 0 66 70c-16 4-31 10-45 19l14 19c3-4 7-7 11-9 6-2 10-8 8-15-2-5-9-10-15-8a55 55 0 0 0-21 15c-4 4-5 11-1 16a12 12 0 0 0 15 3l20-11 21-7a736 736 0 0 1 92-12c15-1 31-3 46-1 8 1 18-5 15-15a84 84 0 0 0-70-55c-34-4-66 9-93 26l12 21a41 41 0 0 1 21-9l-3-23c-22 8-45 17-61 34a95 95 0 0 0-18 30l-4 16-3 19c-1 5 5 6 7 2z"/><path d="m53 79 10 2a56 56 0 0 0 9-1l17-4 35-7c24-3 48-2 72-1 10 0 17-14 8-21s-20-9-32-9h-37c-22 0-46 2-66 13l12 21 23-13c8-4 16-5 24-5l29 1c8 0 17 0 25 3 6 3 13 2 16-4 3-5 2-14-4-16-20-9-44-8-66-8a79 79 0 0 0-32 6c-10 4-18 10-27 15-13 8-1 28 12 21 16-10 35-10 53-11a884 884 0 0 1 45 1c3 0 7 0 9 2l8-20c-25-1-50-1-75 2a450 450 0 0 0-36 6l-18 5c-7 2-13 4-17 11-2 3-1 9 3 11z"/><path d="M124 8c0 7 9 9 14 11 6 3 11 7 19 6 9-1 13-16 2-18a55 55 0 0 1-7-2l7 9v-1l-4 8v-1l-4 2c2-1 8 2 10 3l11 4 21 8c7 4 9 10 12 16a433 433 0 0 1 11 21c1 4 6 7 10 6a13 13 0 0 0 8-3c5-4 4-10 2-14a141 141 0 0 0-15-27l-9-12c-5-4-10-6-15-8-9-4-19-8-29-10-9-2-26-6-27 8 0 4 3 7 7 8a34 34 0 0 1 4 2l5-18c-6 1-11-4-17-5s-15 0-16 7z"/><path d="M230 67c0 5 3 9 4 14s9 4 9-2c0-3-2-9-6-8a3 3 0 0 0-3 2 40 40 0 0 1 0 7c-1 5 8 4 7-1-1-2-3-5-6-6a1 1 0 0 0-1 0 6 6 0 0 0 0 3 5 5 0 0 1 0 3h7a24 24 0 0 1-2-6l-4-2c-2 3 0 5-1 7h9a42 42 0 0 0-5-13c-2-3-8-2-8 2z"/></g><path fill="#2fa569" d="M45 76c5 8 9 17 15 23l1-3-4 1h-3l1 1-4 1c2 3 6 0 5-2a14 14 0 0 0-1-4l-2-4c-1-2-4-1-4 1a9 9 0 0 0 7 7 2 2 0 0 0 2-3 38 38 0 0 1-6-7l-4 2a38 38 0 0 1 5 9l4-1a14 14 0 0 0-6-6 2 2 0 0 0-3 2 12 12 0 0 0 6 7l1-3-2-1a3 3 0 0 0-3 0c-2 2-2 4-1 6a2 2 0 0 0 3 1 3 3 0 0 0 2-1l-1-3a7 7 0 0 0-6 0l2 3 3-3c2-1 0-4-2-3s-4 2-4 4c1 2 4 1 6 0l-3-4a34 34 0 0 1-3 3c-1 2 1 4 3 3a3 3 0 0 1 2 0l-1-2v-1 1l1-1 2 1-1-1v1a5 5 0 0 0 3 1 2 2 0 0 0 1-4 8 8 0 0 1-4-5l-3 3a10 10 0 0 1 5 4c1 1 4 0 3-2a42 42 0 0 0-5-10 2 2 0 0 0-3-1 2 2 0 0 0-1 3 42 42 0 0 0 7 8l2-4a5 5 0 0 1-4-4l-4 2 2 3 1 2v1l1-1 1 1c-1-1-3-1-3 1s2 3 4 3l7-1a2 2 0 0 0 1-3c-7-6-10-15-17-22 0-1-2 0-1 1z"/><g fill="#27935d"><path d="m25 51 15 20 5 10a23 23 0 0 1 1 11l-1 6c0 2-1 5 1 6 3 0 3-3 3-5l1-6V81a37 37 0 0 0-5-10l-8-11a117 117 0 0 0-9-11c-1-2-4 1-3 2zm-1 32c-4-2-8 3-9 6a58 58 0 0 0-5 14 4 4 0 0 0 2 4c2 1 4 1 5-1l8-17-7-4-7 14-6 16a5 5 0 0 0 3 6 5 5 0 0 0 6-2 47 47 0 0 0 5-11c1-5-6-8-9-4a41 41 0 0 0-3 7 54 54 0 0 0-1 7 25 25 0 0 1-1 3 15 15 0 0 1 0 1 48 48 0 0 0-1 2 14 14 0 0 0-1 8 4 4 0 0 0 3 3 5 5 0 0 0 6-3 9 9 0 0 0 0-2 9 9 0 0 1 0-1v-2l1-1a26 26 0 0 0 1-4l2-7a21 21 0 0 1 2-6l-8-4-1 2-1 2a43 43 0 0 1-3 5l9 4 6-15 5-15a4 4 0 0 0-2-5c-2 0-4 0-5 2l-8 17 8 3a124 124 0 0 1 3-12 40 40 0 0 1 1-4 20 20 0 0 0 2-5 1 1 0 0 0 0-1z"/><path d="M8 132a10 10 0 0 0-2 3 20 20 0 0 0-2 4c0 3 4 4 4 1l1-6c0-2-3-3-4-1a14 14 0 0 0-2 7c0 2 5 3 5 0l1-6H5a8 8 0 0 1 0 4c0 3 4 3 5 0a38 38 0 0 1 3-5 43 43 0 0 1 3-5l6-10 3-4 1-1a26 26 0 0 1 1-2 21 21 0 0 1 2-2 11 11 0 0 1 1-1 15 15 0 0 1 2-1h1a14 14 0 0 1 1 0l-4-7a24 24 0 0 1-3 3l-1 1-2 1 5 6 1-1h1v-1a36 36 0 0 1 4-2 27 27 0 0 1 6-3l7-4c2-2 1-6 1-9a81 81 0 0 0-1-8l-3-9a25 25 0 0 0-3-2l-1-1-1-1v-1a21 21 0 0 1-1-1l-1-3h-1v-1s0 1 0 0v-1l-2-4a27 27 0 0 0-4-6 4 4 0 0 0-7 0L9 81c-5 9-8 19-8 30a58 58 0 0 0 2 9 43 43 0 0 1 0 2v3a6 6 0 0 0 1 3l6-3-1-1c0-1-2-2-3-1l-1 1a3 3 0 0 0-1 4 3 3 0 0 0 5 1 6 6 0 0 0 3-4 16 16 0 0 0-1-4l-1-8v-3a31 31 0 0 1 0-4v-1a49 49 0 0 1 0-2l1-3c3-10 7-18 12-27l9-15-7 1c0-1 0 0 0 0l1 1 1 3 1 1v1l2 3c1 4 3 7 6 10l2 1c1 1 0 0 0 0l1 1v1c1 0 1 0 0 0a9 9 0 0 1 1 1v2a82 82 0 0 1 0 12c0 1 0-1 0 0 0 0 1 0 0 0-1 1 0 0 0 0l-2 1a42 42 0 0 0-15 8 4 4 0 0 0 5 7 26 26 0 0 0 8-6 4 4 0 0 0-4-7c-8 2-12 8-16 15a77 77 0 0 0-6 11l-2 6-2 6 4 1a12 12 0 0 0 0-5 3 3 0 0 0-3-2 3 3 0 0 0-2 2l-2 6 5 1a10 10 0 0 1 1-5l-4-1-1 6h4a14 14 0 0 1 1-4v-3a1 1 0 0 0-1-1z"/><path d="M27 75a46 46 0 0 1-2 5l-1 1v2l1-2a4 4 0 0 0-5-6c-2 1-4 4-5 7a54 54 0 0 0-3 7 5 5 0 0 0 9 4 63 63 0 0 0 7-16 5 5 0 0 0-9-4 80 80 0 0 0-7 15 5 5 0 0 0 3 6 5 5 0 0 0 6-2 103 103 0 0 0 12-23h-9v-3q9-2 7 3l-7 1v1-1l1 2c1 3 2 5 5 6a6 6 0 0 0 1 0h-1l2 3 3 7c1 2 4 3 6 2a5 5 0 0 0 3-6 13 13 0 0 0-3-6 5 5 0 0 0-6-1 5 5 0 0 0-3 6v1l1 1v3a40 40 0 0 1 0 5l1-3a65 65 0 0 0-10 10l-5 6-1 1v1a14 14 0 0 1-1 1l-1 1 7 5a118 118 0 0 1 6-19l1-2 1-1 2-5a18 18 0 0 0 1-12 5 5 0 0 0-6-3c-3 1-4 3-4 6l2 10 1 4 1 2a6 6 0 0 0 2 4 4 4 0 0 0 4 0 5 5 0 0 0 3-3c1-2 0-4-1-6l-1-4-1-10-10 3 1 1v1l-1 1a19 19 0 0 1 0 2l-1 1-4 10a112 112 0 0 0-5 18 5 5 0 0 0 2 5 5 5 0 0 0 5 0l8-8 1-2v-1l1-1 4-4a66 66 0 0 1 4-3l2-2 2-4a48 48 0 0 0-1-13l-8 5s0 1 0 0v1c1 0 0 0 0 0l1 1 9-4-4-7c-1-3-2-5-5-6l-1-1v1-2a12 12 0 0 0-5-6c-2-2-5 0-6 2a7 7 0 0 0-1 5 6 6 0 0 0 10 3 6 6 0 0 0 1-6 5 5 0 0 0-4-3 5 5 0 0 0-5 3l-1 3-1 2v-1 1l-3 6a97 97 0 0 1-6 10l9 4a82 82 0 0 1 1-3l1-2v-1c0 1 0 0 0 0a78 78 0 0 1 3-7l-8-4a58 58 0 0 1-2 6v1h-1v2l-1 1a52 52 0 0 1-2 4l8 4a44 44 0 0 1 2-7l1-1 1-1a11 11 0 0 0 1-5l-7 3a5 5 0 0 1 1 1 6 6 0 0 0 1 2c1 1 3 0 3-1a16 16 0 0 0 4-7c1-1 0-2-1-1zm69-28a3 3 0 0 0-1 2l1 3 2 6 4 13c1 3 6 2 5-1a100 100 0 0 0-4-13l-3-6-2-3a3 3 0 0 0-2-1zm26-4v8a60 60 0 0 0 2 7 24 24 0 0 0 2 7c2 2 4 4 6 4a3 3 0 0 0 3-2 3 3 0 0 0-2-3 6 6 0 0 1-1-1 8 8 0 0 1-2-2 23 23 0 0 1-2-5 62 62 0 0 1-2-6 28 28 0 0 1-1-3 14 14 0 0 0 0-4 1 1 0 0 0-3 0zm14 1a2 2 0 0 0-1-1 2 2 0 0 0-2 1 11 11 0 0 0 1 4v2l1 3c1 1 1 3 3 3s1-3 1-4l-1-3-1-3a11 11 0 0 0-1-3v2a2 2 0 0 0 0-1zm14-2v11l2 13a2 2 0 0 0 2 2 2 2 0 0 0 2-3l-2-12-1-6-2-5a1 1 0 0 0-1 0zm28-3v26c0 3 5 3 5 0l-1-14-1-7-2-5h-1zm-20 11a2 2 0 0 0 0 1h1a1 1 0 0 0 0 1 1 1 0 0 0 1 0 1 1 0 0 0 0-1 1 1 0 0 0 0-1v1-1 1a1 1 0 0 0 0-1 1 1 0 0 0-1 0 1 1 0 0 0-1 0zm3 3a10 10 0 0 1 4 7 10 10 0 0 0-4-7z"/><path d="M157 50a5 5 0 0 0 0 3l1 2a11 11 0 0 0 1 3 3 3 0 0 0 2 1 1 1 0 0 0 1 0h-1a2 2 0 0 0 1 0h1v-1a3 3 0 0 0 1-1 9 9 0 0 0-1-3l-4-5a2 2 0 0 0-1 0 2 2 0 0 0-1 1z"/></g><g fill="#2fa569"><path d="M227 41v4l2 6a144 144 0 0 1 3 11l4 23c0 1 2 3 3 2a8 8 0 0 1 2 0 3 3 0 0 0 3-4l-2-7a19 19 0 0 0-1-3 8 8 0 0 0-1-2l-1-2-1 1a11 11 0 0 1-1 1 8 8 0 0 0 0 2 18 18 0 0 0 1 4l1 8 2-4a12 12 0 0 0-3 1l3 3c0-8-2-15-5-23a112 112 0 0 0-4-10l-2-5-2-5-1-1z"/><path d="M236 67v1a9 9 0 0 0 1 2v2l1 3a5 5 0 0 0 1 3h1a4 4 0 0 0 0-3 22 22 0 0 0 0-3l-1-3a7 7 0 0 0-1-2l-1-1a1 1 0 0 0-1 0zm4 17a2 2 0 0 0 0 1 2 2 0 0 0 0 1 4 4 0 0 0 1 1 5 5 0 0 0 1 1 3 3 0 0 0 1 0h1v-1a1 1 0 0 0 0-1 1 1 0 0 0 0-1 4 4 0 0 0-1 0 2 2 0 0 1 0-1v1a2 2 0 0 1 0-1v1a2 2 0 0 1 0-1l-1-1a1 1 0 0 0-1 0 1 1 0 0 0-1 1z"/></g><g fill="#278252"><path d="M2 111a1 1 0 0 0-1 1l2 5 3 5 6 10v-3l-8 9 4 2a61 61 0 0 0-1-12c0-3 0-8-3-11a2 2 0 0 0-2-1 2 2 0 0 0-2 3 71 71 0 0 0 3 7l2 4a10 10 0 0 1 1 1h1a1 1 0 0 1-1 0l3 1a8 8 0 0 0-1-1c-1-2-4 0-4 2a9 9 0 0 0 0 1 3 3 0 0 0 4 2 5 5 0 0 0 3-4 8 8 0 0 0-2-5 55 55 0 0 1-4-9l-5 1a12 12 0 0 1 2 5l1 5a62 62 0 0 1 0 11c0 2 3 3 4 2a102 102 0 0 0 8-10 2 2 0 0 0 0-2l-7-11-4-5-1-2-1-1z"/><path d="M1 116a2 2 0 0 0 0 1l1 1-1-1a5 5 0 0 1 1 1v1a3 3 0 0 0 1 1 1 1 0 0 0 1 0H3a1 1 0 0 0 1 0 2 2 0 0 0 1-1 2 2 0 0 0 0-1 5 5 0 0 0-1-1 6 6 0 0 0-1-1v-1a2 2 0 0 0-1 0 1 1 0 0 0-1 0 1 1 0 0 0 0 1z"/></g><g fill="#27935d"><path d="M62 24a3 3 0 0 0 1 1 8 8 0 0 0 1 1l4 2 7 3c5 3 9 6 14 6a55 55 0 0 0 8-2l8-1 16-3 19-4a3 3 0 0 0 2-3l-3-6a44 44 0 0 0-2-6 38 38 0 0 0-3-5 23 23 0 0 1-2-2 8 8 0 0 0-3-3c-3-2-7 2-5 5a10 10 0 0 0 3 3 9 9 0 0 1 1 2 42 42 0 0 1 3 4 45 45 0 0 1 3 4 31 31 0 0 1 2 5l2-4-31 7-16 3a13 13 0 0 1-6 0c-3 0-5-2-7-3a149 149 0 0 0-8-3l-4-1a21 21 0 0 0-2-1 3 3 0 0 0-2 0 1 1 0 0 0 0 1z"/><path d="m122 8 2 1 2-5a23 23 0 0 0-3-1 9 9 0 0 0-4 0l-7 2-12 4 4 9 9-5a5 5 0 0 0 2-7c0-2-3-3-5-2l-23 8-11 4a46 46 0 0 0-6 2 5 5 0 0 0-1 0l-1 1a13 13 0 0 1-2 1 3 3 0 0 0-2 4 3 3 0 0 0 3 2 6 6 0 0 1 5 0 44 44 0 0 1 5 4 19 19 0 0 0 7 4 31 31 0 0 0 6 1c10 0 19-3 28-5l16-4c4 0 5-5 2-8a57 57 0 0 0-12-10 5 5 0 0 0-5 0 65 65 0 0 1-8 4l-2 1-1 1-4 2-4 1-3 1h-1c-1 0 1 0 0 0h-1l-3-1a9 9 0 0 0-6 2 5 5 0 0 0-2 5 5 5 0 0 0 5 4l16-3 16-4-3-10-3 2c-2 1-4 2-3 5a5 5 0 0 0 4 4l10 1a5 5 0 0 0 5-4c0-3-1-5-3-6-8-1-16 1-24 3l-11 2-2 1h-2l-7 1 6 7 1-2a4 4 0 0 0-1-5 4 4 0 0 0-5-1l-2 1c-3 2-3 8 1 9a18 18 0 0 0 7 0l6-1 10-3a102 102 0 0 1 11-2h9l1-10-10-1 2 10 3-1c2-1 4-4 3-6a5 5 0 0 0-6-4l-15 4-8 2a54 54 0 0 1-3 1h-3l2 9c-1 0 0 0 0 0h1a20 20 0 0 0 7 0 44 44 0 0 0 8-2 99 99 0 0 0 17-8h-5l3 2h1l1 1a54 54 0 0 1 5 5l2-8-27 6a89 89 0 0 1-8 2h-5a60 60 0 0 1-6 0s1 0 0 0a32 32 0 0 0-3 0l-2-1a22 22 0 0 1-3-1l-4-1-7-2v6a23 23 0 0 1 3 0h3a18 18 0 0 0 6-1l11-4 23-8-3-9-10 5a5 5 0 0 0 4 9l12-3 6-2a9 9 0 0 0 4-2 27 27 0 0 0 2-3 3 3 0 0 0 0-4 3 3 0 0 0-4 1l-1 1a2 2 0 0 0 0 2z"/></g><path d="M4 146v-1h2v1h1l-1 1v1H5l3 1a2 2 0 0 0 1-1 2 2 0 0 0 1-1 2 2 0 0 0 0-1 2 2 0 0 0-1-1H6a3 3 0 0 0-1 0 2 2 0 0 0 0 3 2 2 0 0 0 1 0 2 2 0 0 0 1-1 2 2 0 0 0-1-2 2 2 0 0 0-2 0 2 2 0 0 0 0 1z"/><path d="M4 149a13 13 0 0 0 3 2 3 3 0 0 0 1 1 2 2 0 0 0 1-4 2 2 0 0 0-2 1 2 2 0 0 0-1 1 2 2 0 0 0 1 1 2 2 0 0 0 1 0 2 2 0 0 0 1-1v1H7v-3h2a4 4 0 0 1-1 0 11 11 0 0 1-2-2 2 2 0 0 0-1 0 2 2 0 0 0-1 0 2 2 0 0 0-1 1v1a2 2 0 0 0 1 1z"/><path d="m7 146 15-23c1-2-1-3-3-1L5 144c-1 2 2 3 3 2z"/><path d="M23 123c2-8 9-12 16-15l27-7a504 504 0 0 1 63-11 511 511 0 0 1 63-3 448 448 0 0 1 63 5 102 102 0 0 1 14 3 59 59 0 0 1 8 2c1 1 4 2 3 4a10 10 0 0 1-2 3 47 47 0 0 1-3 2 52 52 0 0 1-6 4 52 52 0 0 1-13 5 51 51 0 0 1-6 1c-2 0-2 3 0 3a55 55 0 0 0 26-10c3-3 9-6 7-11l-6-4a68 68 0 0 0-7-2c-10-3-21-4-32-6l-33-2A512 512 0 0 0 73 96c-10 2-21 4-30 8a39 39 0 0 0-20 13 22 22 0 0 0-3 5c-1 2 2 3 3 1Z"/><path d="M22 123c6-5 14-8 22-11l25-7a402 402 0 0 1 51-9l52-4a427 427 0 0 1 53 1 268 268 0 0 1 27 3l13 3 6 2a6 6 0 0 1 2 0v3l-4 5c-1 2 2 3 3 2l3-6a4 4 0 0 0 0-5l-4-2-7-2a250 250 0 0 0-26-5 368 368 0 0 0-55-2 785 785 0 0 0-55 4 447 447 0 0 0-53 8 311 311 0 0 0-39 11 67 67 0 0 0-11 5 37 37 0 0 0-5 4c-2 1 1 3 2 2z"/><path d="M252 115a33 33 0 0 0-17-16 43 43 0 0 0-13-3l-16-1q-31-2-63-1l-35 1c-2 0-2 3 0 3q30-2 61-1l31 1 15 1 15 1a30 30 0 0 1 19 17c1 1 4 0 3-2zM6 146a189 189 0 0 1-2-22v-22c2-14 8-26 15-38 3-6 6-12 11-16a95 95 0 0 1 9-7l9-6 18-13a106 106 0 0 1 19-9c15-6 30-8 45-10 2 0 2-3 0-3a186 186 0 0 0-41 8 111 111 0 0 0-20 9L51 29 32 42a37 37 0 0 0-8 8 92 92 0 0 0-5 8A126 126 0 0 0 2 98c-2 8-2 16-2 25l3 25c0 2 3 1 3-1z"/><path d="M131 3a223 223 0 0 1 65 13l9 4a21 21 0 0 1 4 2h2a2 2 0 0 0 1-2 4 4 0 0 0-2-1 2 2 0 0 0-2 1 2 2 0 0 0 1 1l2 4 5 5 10 13a129 129 0 0 1 14 28l2 8 1 4a16 16 0 0 1 1 4v-1h2v1l-1 2c2-1 2-4 0-3a2 2 0 0 0-2 1 2 2 0 0 0 2 2l2-2a71 71 0 0 0-2-8 100 100 0 0 0-5-16 147 147 0 0 0-18-30l-6-7-3-4-1-2h-1c0-1 0-1 0 0v1l-2 1s0-1 0 0l1-2h1l-2-1a33 33 0 0 0-3-2l-8-3-16-5a224 224 0 0 0-32-7l-19-2c-2 0-2 3 0 3z"/><g fill="#eaeaea"><path d="m101 54 2 8h2a33 33 0 0 1-3-7l-2 1a73 73 0 0 0 3 8l3-1a23 23 0 0 1-2-5l-2 1 2 10 3-1a32 32 0 0 1-2-4l-2 1 2 6a2 2 0 0 0 2 1 2 2 0 0 0 1-2 17 17 0 0 1-1-4h-3a27 27 0 0 0 3 5 1 1 0 0 0 2-1l-3-10a49 49 0 0 1-2-10l-3 1a40 40 0 0 0 2 8l2-1-4-10a1 1 0 0 0-2 1 21 21 0 0 0 2 6l2-2a20 20 0 0 1-1-3 11 11 0 0 1-1-3l-2 2 1 2a4 4 0 0 0 3 3 2 2 0 0 0 2-3 12 12 0 0 0-2-4c-1-2-4-1-3 2a12 12 0 0 1 1 4l3-3v-1l-1-1a5 5 0 0 0-3-3 2 2 0 0 0-2 2 32 32 0 0 0 3 7 1 1 0 0 0 2-1 19 19 0 0 1-2-5l-2 1 4 10c1 1 3 0 2-1a37 37 0 0 1-2-8h-2a50 50 0 0 0 2 10l4 11 2-1a18 18 0 0 1-2-5c-1-1-3-1-3 1a20 20 0 0 0 1 5l3-1-3-6c0-2-3-1-2 0a39 39 0 0 0 2 5c0 2 3 1 2-1a55 55 0 0 0-3-9 1 1 0 0 0-2 0 22 22 0 0 0 2 5c0 2 2 0 2-1a71 71 0 0 0-4-8 1 1 0 0 0-1 1 41 41 0 0 1 2 7 1 1 0 0 0 2-1l-2-9-2 1z"/><path d="M102 47v-1l-1 1s1 0 0 0a4 4 0 0 1 1 1 8 8 0 0 0 3 0l4 1c3 1 4 4 4 6 1 3 2 6 0 9a15 15 0 0 1-6 5l3 3a5 5 0 0 0 0-2 2 2 0 0 0-3-1 5 5 0 0 0-1 1c-1 2 2 4 3 3 4-2 7-4 9-8s1-8-1-12c-1-3-3-7-7-8a29 29 0 0 0-6-1c-2 0-4 0-4 2a1 1 0 0 0 0 1h1a1 1 0 0 0 1 0Z"/><path d="M109 68v-3h-1l2 3-1 1h-1a6 6 0 0 0 4-1 10 10 0 0 0 2-3 11 11 0 0 0 2-8c-1-5-7-11-12-8l3 3a3 3 0 0 0 0-1c0-2-2-3-3-2a3 3 0 0 0-1 2 2 2 0 0 0 3 2c1-1 3 0 4 1a8 8 0 0 1 1 5 6 6 0 0 1-2 5 7 7 0 0 1-1 1 2 2 0 0 0-2 3 2 2 0 0 0 3 0h1a2 2 0 0 0-1-3c-1 0-3 2-2 3a1 1 0 0 0 2 0z"/><path d="M103 50a1 1 0 0 0 1 0 2 2 0 0 0 0-1h1l1 1a11 11 0 0 0 2 0 2 2 0 0 0 1 0 2 2 0 0 0 1-1 2 2 0 0 0 0-2 5 5 0 0 0-2-1 7 7 0 0 0-1-1 8 8 0 0 0-4 0 2 2 0 0 0-2 2 3 3 0 0 0 0 2 2 2 0 0 0 2 1 5 5 0 0 1 1 0h-1a9 9 0 0 0 1 0 3 3 0 0 0 1 1 2 2 0 0 0 2-1 5 5 0 0 0 0-1 2 2 0 0 0 0-2 4 4 0 0 0-1-1 7 7 0 0 0-2-1v5a10 10 0 0 1 1-1 5 5 0 0 1 1 0 6 6 0 0 1 1 1v-1l1 1v-3a5 5 0 0 1-1 0h1a4 4 0 0 1-1 0 8 8 0 0 0-1 0 5 5 0 0 0-2 0 3 3 0 0 0-1 1 1 1 0 0 0 0 2zm0 1v3a10 10 0 0 1 0 3h3a55 55 0 0 0-2-5c0-2-2-1-2 0l1 6 1 6a2 2 0 0 0 4-1l-2-5a2 2 0 0 0-3 1 67 67 0 0 0 3 8 2 2 0 0 0 2 2 2 2 0 0 0 1-2 3 3 0 0 0-1-2 1 1 0 0 0-1 0 6 6 0 0 0-1 1h3l-3-8-3 1 1 5 4-1a63 63 0 0 1-3-11l-3 1a41 41 0 0 1 1 5 1 1 0 0 0 2 1 1 1 0 0 0 1-1 9 9 0 0 0-1-4l-2-4z"/><path d="M108 67h2a10 10 0 0 1 1-1 8 8 0 0 0 2-2c2-2 2-4 1-7a13 13 0 0 0-2-6 8 8 0 0 0-7-2 2 2 0 0 0 0 4 5 5 0 0 1 4 1 8 8 0 0 1 2 5 5 5 0 0 1 0 2 9 9 0 0 1-1 2l-2 4zm-2 3a2 2 0 0 0-1 1 2 2 0 0 0 0 1 2 2 0 0 0 2 1 1 1 0 0 0 1-1 1 1 0 0 0 0-1 1 1 0 0 0-1 0h-1 1-1 1v-1a1 1 0 0 0-1 0zm22-24a2 2 0 0 0-1-1 1 1 0 0 0-2 1 15 15 0 0 0 0 5l1 5a2 2 0 0 0 4-2 20 20 0 0 0-1-4 15 15 0 0 1 0-3v-1l-1 1-2-1 1 1-1-1a19 19 0 0 1 1 5l1 5c0 3 2 7 6 7a2 2 0 0 0 1-3 6 6 0 0 0-2-2 2 2 0 0 0-2 3c1 2 4 3 6 2s3-4 3-6a20 20 0 0 0 1-7l-1-3v-3c0-1 0 0 0 0h-1v4a47 47 0 0 1 1 5v5l-1 4a6 6 0 0 1-3 2c-1 1-2-1-3-1a8 8 0 0 1-2-4l-1-5-3 2-1-1v1c1 2 5 0 4-3a2 2 0 0 0-1 0 2 2 0 0 0-3 2 48 48 0 0 0 2 8 12 12 0 0 0 5 5c2 1 5 1 7-1a8 8 0 0 0 4-6 50 50 0 0 0-1-16c0-2-1-5-4-5s-3 3-3 6v8a12 12 0 0 1-1 4l-1 1h1-1a5 5 0 0 1-1-1l-2 3a2 2 0 0 1 1 1l2-3c-2 0-2-5-2-6a34 34 0 0 0-2-9 3 3 0 0 0-4-2 4 4 0 0 0-2 4 16 16 0 0 0 1 4v4l4-1 1 1-1-4a13 13 0 0 0-1-4l-1 2-1-1c1 1 2 0 2-1z"/><path d="M132 63a2 2 0 0 0 1 2 9 9 0 0 0 1 1 7 7 0 0 0 1 0c2 0 4 1 5-1a2 2 0 0 0 0-3 6 6 0 0 0-3-1l1 5a12 12 0 0 0 4-3 3 3 0 0 0 1-4 4 4 0 0 0-1-1v1a2 2 0 0 0-4-2 6 6 0 0 0-1 2 2 2 0 0 0 1 3 2 2 0 0 0 4-2 4 4 0 0 0-1-3 2 2 0 0 0-1-1 2 2 0 0 0-2 1 3 3 0 0 0-1 1 5 5 0 0 0 0 1v1-1h1v-1h3l1 3a5 5 0 0 1 0-1h-1a6 6 0 0 1 1 0l-4-2a3 3 0 0 0 0 2l1 1v-2l-1 1a9 9 0 0 1-1 1h-1s1 0 0 0a2 2 0 0 0-1 3 2 2 0 0 0 2 2h1-1v-4a1 1 0 0 1 1 0h-1 1a8 8 0 0 1-2 0h1a15 15 0 0 1-2 0 5 5 0 0 0-1-1 2 2 0 0 0-2 2zm19-21a24 24 0 0 0 1 6l1 6 3 13c0 2 3 2 4 0a7 7 0 0 0 1-3 13 13 0 0 0 0-3l-2-7a44 44 0 0 1-1-6 21 21 0 0 0-1-7c-1-2-3-2-4 0a3 3 0 0 0 0 1c0 3 4 3 4 0v1h-4l1 5a51 51 0 0 0 1 6l1 6 1 3v1a14 14 0 0 1-1 1h4l-3-12-1-6-2-6a2 2 0 0 0-3 1z"/><path d="m155 43 4 2a12 12 0 0 1 3 1c3 2 3 4 4 7s1 5-1 7l-6 3c-2 0-2 4 0 4a2 2 0 0 0 3-2 2 2 0 0 0-3-2h1v4l8-4c3-3 3-7 2-11-1-3-2-7-5-9a15 15 0 0 0-4-2c-2-1-4-2-6-1a2 2 0 0 0 0 3z"/><path d="M159 63c1 2 2 2 3 1a11 11 0 0 0 3 0 8 8 0 0 0 4-3 13 13 0 0 0 1-4 8 8 0 0 0 1-3 3 3 0 0 0-1-2 2 2 0 0 0-3-1 2 2 0 0 0-1 2 2 2 0 0 0 1 2l-1-1v3l-1 1v1c-1 0 0 0 0 0h-1c0 1 0 0 0 0v1a2 2 0 0 0-1 0s1 0 0 0h-2a3 3 0 0 0-2 1 2 2 0 0 0 0 3z"/><path d="M166 58a3 3 0 0 0 1-1 2 2 0 0 0 1-1c0 1 0 1 0 0a3 3 0 0 0 1-1 8 8 0 0 0 0-3 17 17 0 0 0-3-5 8 8 0 0 0-9-4 2 2 0 1 0 1 5l1-1h-1 2s-1 0 0 0l1 1s-1-1 0 0c1 0 0 0 0 0l1 1 1 1a22 22 0 0 1 1 2 9 9 0 0 1 0 1v1a10 10 0 0 0 0 2 3 3 0 0 0 1 1 1 1 0 0 0 1 0z"/><path d="m155 45-1 4 1 5a30 30 0 0 1 1 5v2a4 4 0 0 0 1 3 2 2 0 0 0 3 0 3 3 0 0 0 1-2v-4a24 24 0 0 0-1-5 18 18 0 0 0-3-5l-2-3zm29-4a2 2 0 0 0-3-2 2 2 0 0 0-1 3l1 6a29 29 0 0 1 0 6v12a2 2 0 0 0 2 2 34 34 0 0 1 3 0l4 1a42 42 0 0 0 8-1l1-3-1-4h-15 1l1 1a2 2 0 0 0-1-1c-3-1-4 3-1 4a33 33 0 0 0 7 0h3a10 10 0 0 1 3 0h-1v-1 1a11 11 0 0 0 0 1l2-2a36 36 0 0 1-7 0l-7-1 2 3V53a51 51 0 0 0-1-12l-5 1 1 1a2 2 0 1 0 4-1z"/><path d="M187 62h1a2 2 0 0 0 1-1 4 4 0 0 0 0-2v-7h-4a6 6 0 0 0 2 4h5a2 2 0 0 0-2-5 2 2 0 0 0-1 2 2 2 0 0 0 1 2v-3a6 6 0 0 1-1 0s-1 0 0 0c0-1 0 0 0 0v-1a2 2 0 0 0-1-1 2 2 0 0 0-1-1 2 2 0 0 0-2 2v7a7 7 0 0 0 0 2 4 4 0 0 0 0 1 1 1 0 0 0 0 1h1a2 2 0 0 0 1 0z"/><path d="M187 50a2 2 0 0 0 0-1 6 6 0 0 0 0-1v-2l-1-5-2 3a2 2 0 0 1 1 0c-1 0-1 0 0 0a12 12 0 0 0 2 1 16 16 0 0 0 3 0 23 23 0 0 0 3 0l2-1h1c-1 0-1 0 0 0l-2-2a17 17 0 0 0 0 3l3-3a25 25 0 0 0-6 0h-4a9 9 0 0 1-1 0 2 2 0 0 0-3 3 2 2 0 0 0 3 2 13 13 0 0 0 2 0h1c1-1 0 0 0 0l2-1a22 22 0 0 1 2 0h2c0 1-1 0 0 0l1 1a2 2 0 0 0 2-2v-2a2 2 0 0 0-1-3 10 10 0 0 0-4 0h-3a14 14 0 0 1-1 0h-1a12 12 0 0 0-4 0 2 2 0 0 0-2 2v3l1 1v2a3 3 0 0 0 0 1 3 3 0 0 0 0 1h1a2 2 0 0 0 3 0z"/><path d="M184 42a9 9 0 0 0-1 3l-1 2a6 6 0 0 0 0 3l2 2 1-1v-3a20 20 0 0 0 1-3 8 8 0 0 0 0-2 1 1 0 0 0-2-1z"/><path d="M185 46a11 11 0 0 0-1 3 15 15 0 0 0 0 3 5 5 0 0 0 1 4h1a2 2 0 0 0 1-1 4 4 0 0 0 0-1 6 6 0 0 0 0-1 15 15 0 0 0 0-2 21 21 0 0 0 0-3 14 14 0 0 0 0-2h-2Z"/></g><g fill="#f7f7f7"><path d="M98 47a3 3 0 0 0 1 0h1a7 7 0 0 0 2-1 5 5 0 0 0-2 0l-1 1a3 3 0 0 0-1 0zm1 1h1l1-1 1-1h2c0-1 0 0 0 0a5 5 0 0 0-1 0 4 4 0 0 0-1 0h-1l-1 1-1 1zm1 1a3 3 0 0 0 1-1l2-1 2-1a10 10 0 0 0 1-1 3 3 0 0 0-1 0l-2 1-2 1-1 1a4 4 0 0 0-1 0l1 1zm0 0a5 5 0 0 0 2 0l1-1 2-1a5 5 0 0 0 2-1 4 4 0 0 0-2 1h-2l-2 1-1 1v1zm0 2h-1 1a5 5 0 0 0 1-1h1l2-2 3-1h1l1-1h-1l-2 1-2 1a27 27 0 0 0-2 1l-2 1a4 4 0 0 0-1 1h1zm0 1a5 5 0 0 0 1-1h1l3-2 2-1a16 16 0 0 0 2-1 10 10 0 0 0-2 1l-3 1-2 1-1 1a4 4 0 0 0-1 1zm1 1a28 28 0 0 0 2-2l3-1 2-1 1-1 1-1-1 1h-1l-3 2-2 1a20 20 0 0 0-2 2zm0 1 5-4 3-1 1-1a3 3 0 0 0 1 0v-1a3 3 0 0 0-1 1l-1 1-3 1a45 45 0 0 0-5 4zm0 1a2 2 0 0 0 1-1h1l1-1v-1a2 2 0 0 0-1 1h-1v1a2 2 0 0 0-1 1zm0 1h1v-1h1l1-1h1a2 2 0 0 0-1 0l-1 1h-1a2 2 0 0 0-1 1zm1 1 1-1a18 18 0 0 0 2-1s0-1 0-1a8 8 0 0 0-2 1l-1 1v1zm0 0h1a6 6 0 0 0 1-1 4 4 0 0 0 1 0 6 6 0 0 0-1 0l-1 1h-1zm0 1a12 12 0 0 0 2-1h1a2 2 0 0 0 0-1 6 6 0 0 0-1 0l-1 1a10 10 0 0 0-1 1zm0 1a5 5 0 0 0 1 0h1a5 5 0 0 0 1-2 6 6 0 0 0-2 1v1a5 5 0 0 0-1 0zm0 1a8 8 0 0 0 1 0l1-1a5 5 0 0 0 1-1 7 7 0 0 0-1 1l-1 1h-1zm1 1 1-1a6 6 0 0 0 2-1 7 7 0 0 0-2 1l-1 1zm0 1a2 2 0 0 0 1-1h1v-1a5 5 0 0 0 1 0 3 3 0 0 0 0-1 5 5 0 0 0-1 1h-1v1l-1 1zm0 1 1-1h1v-1h1a7 7 0 0 0-1 0l-1 1h-1a4 4 0 0 1 0 1zm0 1a6 6 0 0 0 2-1 6 6 0 0 0 1-2 9 9 0 0 0-2 1 10 10 0 0 0-1 2zm1 0a7 7 0 0 0 1 0l1-1a3 3 0 0 0 0-1 3 3 0 0 0-1 1l-1 1zm0 1a8 8 0 0 0 1 0l1-1a5 5 0 0 0 1-1 3 3 0 0 0-1 0l-1 1-1 1zm0 2a2 2 0 0 0 1-1l1-1 1-1a4 4 0 0 0-1 0l-1 1v1a3 3 0 0 0-1 0v1zm0 0a1 1 0 0 0 1 0h1a4 4 0 0 0 1-1v-1a5 5 0 0 0-2 1v1h-1zm0 2 1-1 1-1 1-1a7 7 0 0 0 1-1 7 7 0 0 0-1 1l-1 1-1 1-1 1z"/><path d="M106 67v-1a2 2 0 0 0 1 0 5 5 0 0 0 1-1 7 7 0 0 0-1 0l-1 1v1zm0-16a18 18 0 0 0 3-1l1-1a11 11 0 0 0 2-1 9 9 0 0 0-2 0l-1 1a18 18 0 0 0-3 2zm2 1 2-2 1-1a3 3 0 0 0 2-1 3 3 0 0 0-2 1l-1 1-2 2zm1 0h1l1-1a9 9 0 0 0 1-1 15 15 0 0 0 1-1h-1l-1 1-2 1v1zm1 0a1 1 0 0 0 1 0l1-1 1-1a4 4 0 0 0 1-1 5 5 0 0 0-1 1 10 10 0 0 0-1 1h-1l-1 1zm1 1a4 4 0 0 0 0-1h1l1-1a4 4 0 0 0 1-1 4 4 0 0 0-1 1h-1l-1 1a4 4 0 0 0-1 1zm0 0v1l1-1 1-1h1a4 4 0 0 0 1-1 4 4 0 0 0-1 0l-1 1-1 1a6 6 0 0 0-1 0v1zm0 1a2 2 0 0 0 1 0l1-1a6 6 0 0 0 2-1 7 7 0 0 0-2 1h-1v1a1 1 0 0 0-1 0zm1 0a2 2 0 0 0 1 0h1l1-1a2 2 0 0 0 0-1 2 2 0 0 0-1 1l-1 1a2 2 0 0 0-1 0zm0 1h1l1-1h1a4 4 0 0 0 1-1 4 4 0 0 0-1 1h-1l-1 1h-1zm0 1h1a15 15 0 0 0 1-1l1-1a3 3 0 0 0 1-1v1a3 3 0 0 0-1 0l-1 1h-1l-1 1zm0 1a11 11 0 0 0 2-1l1-1a3 3 0 0 0 1-1 3 3 0 0 0-1 1h-1l-2 1zm0 1a10 10 0 0 0 1-1h1a7 7 0 0 0 2-2l-2 1-1 1h-1zm0 0a2 2 0 0 0 1 0l1-1 1-1h1a2 2 0 0 0-1 0l-1 1h-1a4 4 0 0 0-1 1zm1 1a15 15 0 0 0 2-2h1a6 6 0 0 0 1-1 6 6 0 0 0-1 1h-1a11 11 0 0 0-2 2zm-1 1a6 6 0 0 0 2-1 12 12 0 0 0 2-2 13 13 0 0 0-2 1 12 12 0 0 1-2 1v1z"/><path d="m113 60 1-1h1l1-1a4 4 0 0 0 1-1 3 3 0 0 0-1 1h-1l-1 1-1 1zm0 1a7 7 0 0 0 1-1h1l1-1a3 3 0 0 0 1-1h-1l-1 1h-1l-1 1-1 1zm-1 1 2-1 2-1 1-1a2 2 0 0 0-1 0l-1 1-2 1-1 1zm0 0a2 2 0 0 0 1 0h1l2-1v-1h1a1 1 0 0 0-1 0h-1l-1 1-1 1a3 3 0 0 0-1 0zm0 2a13 13 0 0 0 2-2h2a4 4 0 0 0 1-1 4 4 0 0 0-1 0l-2 1a26 26 0 0 0-2 2zm-7 5a31 31 0 0 0 3-2l3-2 6-3v-1l-6 4-3 2a22 22 0 0 0-3 2zm3-3z"/><path d="M108 66h-1 1a5 5 0 0 0 1 0l1-1a13 13 0 0 0 3-2 17 17 0 0 0-3 2h-1a6 6 0 0 0-1 1zm-3 3 5-3 3-1a17 17 0 0 0 2-2 16 16 0 0 0-2 1l-3 2-5 3zm0 1a51 51 0 0 0 6-3l3-2 1-1a3 3 0 0 0 1-1 4 4 0 0 0-1 1l-1 1-3 1a50 50 0 0 0-6 4zm0 1a16 16 0 0 0 3-2l2-1 3-2a10 10 0 0 0 2-1 9 9 0 0 0-2 1l-3 2-2 1a16 16 0 0 0-3 2zm1 1 5-3 2-2 2-1a4 4 0 0 0 1-1 3 3 0 0 0-1 1l-2 1-2 1a29 29 0 0 0-5 4zm2-1a9 9 0 0 0 2-1l2-1 2-1a6 6 0 0 0 1-2 6 6 0 0 0-2 1l-1 2-2 1a9 9 0 0 0-2 1zm3-1 2-1h1a26 26 0 0 0 2-2l-2 1-2 1-1 1zm14-26h2a5 5 0 0 0 1-1 3 3 0 0 0-1 0 7 7 0 0 0-1 0 4 4 0 0 0-1 1z"/><path d="M125 45a12 12 0 0 0 2-1h1a1 1 0 0 0 1 0h-2a14 14 0 0 0-2 1zm1-2a5 5 0 0 0 1 0 5 5 0 0 0 1 0 2 2 0 0 0-1 0 3 3 0 0 0-1 0zm-1 3h1l1-1h2v-1a2 2 0 0 0-1 1h-3v1z"/><path d="M125 46a8 8 0 0 0 2 0 6 6 0 0 0 2-1 7 7 0 0 0-2 0 9 9 0 0 0-2 1zm0 1a6 6 0 0 0 1 0h1l2-1h1-3l-1 1h-1zm-1 1h3a15 15 0 0 0 2-1 16 16 0 0 0-2 0l-3 1zm0 1a6 6 0 0 0 2 0l1-1h2a14 14 0 0 0-2 0l-2 1a5 5 0 0 0-1 0zm2 0a14 14 0 0 0 2 0 13 13 0 0 0 2-1l-2 1h-2zm-1-1a16 16 0 0 0 3-1l-3 1z"/><path d="m126 50 1-1h2a2 2 0 0 0 1 0v-1a1 1 0 0 0-1 0l-1 1h-1l-2 1zm0 0h3l1-1a1 1 0 0 0-1 0l-1 1h-2zm-1 2 3-1 3-1a13 13 0 0 0-3 1 15 15 0 0 0-3 1zm1 0c-1 0 0 0 0 0h1a13 13 0 0 0 3-2 12 12 0 0 0-2 1h-1l-1 1z"/><path d="M126 53a2 2 0 0 0 1 0v-1h1a18 18 0 0 0 3-1 17 17 0 0 0-3 1h-2v1zm0-2h2a10 10 0 0 0 2-1 10 10 0 0 0-2 0l-2 1z"/><path d="M126 51a10 10 0 0 0 4-1 13 13 0 0 0-2 0h-1l-1 1zm0 2h4a3 3 0 0 0 1-1 3 3 0 0 0-2 0l-1 1h-2v1zM126 54Z"/><path d="M126 54a1 1 0 0 0 1 0h1a5 5 0 0 0 2-1 3 3 0 0 0-1 0l-1 1h-1a6 6 0 0 0-1 0zm0 1a6 6 0 0 0 2 0h1a7 7 0 0 0 2-2 12 12 0 0 0-2 1l-1 1a10 10 0 0 0-2 0zm0 1a11 11 0 0 0 2 0l1-1h1a2 2 0 0 0 1-1 2 2 0 0 0-1 0l-1 1h-2v1h-1zm1 1h1l1-1h2a1 1 0 0 0 0-1h-1l-1 1h-2v1zm0 1 1-1h1l1-1a5 5 0 0 0 2 0 4 4 0 0 0-2 0h-1l-1 1-1 1zm0 1h1l1-1h1a4 4 0 0 0 1-1 4 4 0 0 0-1 0l-1 1h-1l-1 1z"/><path d="M127 59h3l1-1a4 4 0 0 0 1-1 4 4 0 0 0-1 1h-1l-2 1h-1zm0-1h3l1-1h1v-1h-1l-1 1h-1l-1 1h-1zm1 2a22 22 0 0 0 5-2 22 22 0 0 0-5 2zm0 1a2 2 0 0 0 1 0l1-1h1l1-1a3 3 0 0 0 2 0 3 3 0 0 0-2 0l-1 1h-2a2 2 0 0 0-1 1z"/><path d="m128 61 2-1h1a9 9 0 0 0 2-1 9 9 0 0 0-3 0l-1 1h-1zm1 1a9 9 0 0 0 1-1h2a22 22 0 0 0 3-2 14 14 0 0 0-3 1l-2 1a7 7 0 0 0-1 0v1zm0 0a4 4 0 0 0 1 0h1l2-1a12 12 0 0 0 3-1 19 19 0 0 0-3 1h-2l-1 1a5 5 0 0 0-1 0zm8-20a7 7 0 0 0 2 0 5 5 0 0 0 1-1 4 4 0 0 0-2 0 5 5 0 0 0-1 1zm0 1h1l1-1h1a11 11 0 0 0 1 0 8 8 0 0 0-1 0 8 8 0 0 0-1 0h-1l-1 1zm0 1a3 3 0 0 0 1 0l1-1a7 7 0 0 0 2-1 6 6 0 0 0-2 1h-1a4 4 0 0 0-1 0v1Zm0 1a5 5 0 0 0 1 0l1-1h2a3 3 0 0 0 1-1 3 3 0 0 0-2 0l-1 1h-1a7 7 0 0 0-1 0v1zm0 1a5 5 0 0 0 1-1h2a2 2 0 0 0 1-1 3 3 0 0 0-1 0l-2 1h-1zm-1 1a25 25 0 0 0 3-1h1l1-1h-1l-1 1a23 23 0 0 0-3 1zm1 1a14 14 0 0 0 2-1 10 10 0 0 0 3-1 19 19 0 0 0-3 1l-2 1zm-1 1a4 4 0 0 0 2 0l1-1h1a3 3 0 0 0 1-1 3 3 0 0 0-1 0l-1 1h-1a5 5 0 0 0-2 0v1zm1 1 1-1h2a10 10 0 0 0 2-1 11 11 0 0 0-2 0l-1 1h-2v1zm1 0 3-1h1a10 10 0 0 0 1 0v-1a10 10 0 0 0-1 1h-1l-3 1zm0 1a2 2 0 0 0 1 0l1-1a8 8 0 0 0 2-1 11 11 0 0 0-2 1h-1a2 2 0 0 0-1 1zm0 1h1l1-1h1a4 4 0 0 0 1-1 7 7 0 0 0-2 1h-1l-1 1zm0 0h3a4 4 0 0 0 1-1 4 4 0 0 0-1 0l-1 1h-1a1 1 0 0 0-1 0Zm0 1a10 10 0 0 0 2-1 6 6 0 0 0 2 0 14 14 0 0 0-2 0l-2 1zm0 1a4 4 0 0 0 1 0l1-1h1a8 8 0 0 0 2 0 6 6 0 0 0-2 0h-2a3 3 0 0 0-1 1zm-1 1a8 8 0 0 0 3 0l1-1a4 4 0 0 0 1 0 4 4 0 0 0-1 0h-1a12 12 0 0 0-3 1zm1 1h2a18 18 0 0 0 3-1 16 16 0 0 0-2 0h-2v1a4 4 0 0 0-1 0z"/><path d="m141 55 1-1h2a3 3 0 0 0-2 0 3 3 0 0 0-1 0v1zm-3 2a2 2 0 0 0 1 0h1a8 8 0 0 0 3-1 16 16 0 0 0-3 0l-1 1h-1zm-1 1a6 6 0 0 0 2 0l1-1a22 22 0 0 0 3-1 12 12 0 0 0-3 1h-1a5 5 0 0 0-2 1zm1 1a2 2 0 0 0 1 0l1-1h2l1-1a2 2 0 0 0-1 0l-2 1h-1l-1 1z"/><path d="M137 60a3 3 0 0 0 1-1h2a9 9 0 0 0 2-1 27 27 0 0 0-3 1h-1a3 3 0 0 0-1 0z"/><path d="M130 63a3 3 0 0 0-1 0l4-1 4-2 3-1h2a11 11 0 0 0 2-1 8 8 0 0 0-2 0l-2 1-4 1-3 1a25 25 0 0 0-4 2zm0 1a20 20 0 0 0 3-1l4-2 3-1a23 23 0 0 0 4-1 17 17 0 0 0-4 1l-3 1-4 1a16 16 0 0 0-3 2zm0 1a3 3 0 0 0 2-1h1l4-2 6-2-7 2-3 1-1 1a3 3 0 0 0-2 0v1zm1 0a19 19 0 0 0 3-1l3-1a50 50 0 0 0 6-2 38 38 0 0 0-6 2l-3 1a17 17 0 0 0-3 1zm1 1 6-2 3-1a24 24 0 0 0 3-2 15 15 0 0 0-3 1l-3 1a34 34 0 0 0-6 3zm1 1h1l1-1 3-1 5-2a30 30 0 0 0-5 1l-2 1-2 1-1 1zm1 0a6 6 0 0 0 2-1h2a16 16 0 0 0 3-2 16 16 0 0 0-3 1l-2 1a3 3 0 0 0-2 1zm1 0a1 1 0 0 0 1 0l2-1a14 14 0 0 0 4-1 12 12 0 0 0-2 0l-2 1-2 1h-1zm2 1a12 12 0 0 0 4-2l-4 2zm15-26h3l1-1a5 5 0 0 0 2 0 5 5 0 0 0-2 0h-1l-3 1zm0 1h2l2-1 2-1a18 18 0 0 0 1 0 20 20 0 0 0-2 0h-2l-2 1h-1a1 1 0 0 0 0 1z"/><path d="m151 44 5-2a32 32 0 0 0 4-1 23 23 0 0 0-4 1l-5 2zm1 0 5-1 2-1a16 16 0 0 0 3-1 18 18 0 0 0-3 1h-2l-5 2zm1 1 5-2 2-1a14 14 0 0 0 3-1 13 13 0 0 0-3 1l-2 1-5 2zm-1 1 2-1h2l2-1 6-2-3 1-3 1-3 1h-1a15 15 0 0 1-2 1zm0 1 6-2 3-2a22 22 0 0 0 3-1 17 17 0 0 0-3 1l-4 1a60 60 0 0 0-5 3zm1 0 6-2 6-2a42 42 0 0 0-6 2l-6 2zm0 1a28 28 0 0 0 3-1l3-1 3-1 1-1a4 4 0 0 0 2-1 4 4 0 0 0-2 1h-1l-4 1a36 36 0 0 0-5 3zm0 0 6-2 3-1a23 23 0 0 0 3-1 16 16 0 0 0-3 1l-3 1-6 2zm0 1 7-3 3-1 3-1a31 31 0 0 0-3 1l-3 1-6 3zm0 1 3-2a17 17 0 0 0 3-1 16 16 0 0 0-3 1l-3 2zm1 0 2-1 2-1a13 13 0 0 0-2 1l-2 1zm-1 1a23 23 0 0 1 3-1l1-1a5 5 0 0 0 1 0h-1l-1 1a12 12 0 0 0-3 1zm0 1 2-1 2-1a17 17 0 0 0-2 1l-2 1zm0 0 3-1h1a7 7 0 0 0 1-1 6 6 0 0 0-1 0l-1 1a25 25 0 0 0-3 1zm2 0 2-1a14 14 0 0 0 2-1 14 14 0 0 0-2 1l-2 1c-1 0 0 0 0 0Zm-1 1a4 4 0 0 0 1-1h1a20 20 0 0 0 2-1l-2 1h-1a4 4 0 0 0-1 1zm0 0a21 21 0 0 0 4-2l-4 2zm0 1 2-1 2-1a10 10 0 0 0-2 1 10 10 0 0 0-2 1zm1 1a13 13 0 0 1 2-1 7 7 0 0 0 2-1l-3 1a7 7 0 0 0-1 1zm0 0 1-1a7 7 0 0 0 2-1 7 7 0 0 0-2 1l-1 1zm0 1a14 14 0 0 0 2-1l1-1a3 3 0 0 0 1 0 3 3 0 0 0-1 0l-1 1a14 14 0 0 0-3 1zm0 0a12 12 0 0 0 2 0l1-1a4 4 0 0 0 1 0 3 3 0 0 0-1 0h-1a12 12 0 0 0-2 1zm0 1 2-1h1a3 3 0 0 0 1-1 3 3 0 0 0-1 1h-1l-2 1zm0 1h1l1-1h1a5 5 0 0 0 1-1 5 5 0 0 0-1 0l-1 1-1 1a3 3 0 0 0-1 0zm0 1a13 13 0 0 0 3-1l2-2-2 1a16 16 0 0 0-3 2zm1 0a1 1 0 0 1-1 0h1l1-1a23 23 0 0 0 2-1 14 14 0 0 0-2 1l-1 1a9 9 0 0 0-1 0h1zm-1 1a17 17 0 0 0 5-3l-5 3zm1 1 2-1a21 21 0 0 0 2-1 11 11 0 0 0-2 1 14 14 0 0 0-2 1zm0 1 3-1 2-2a21 21 0 0 0-3 2l-2 1zm0 1a6 6 0 0 0 1-1h2l2-2-3 1-1 1a6 6 0 0 0-1 1zm0 1 4-2 2-1 3-1v-1a16 16 0 0 0-3 1l-2 1a23 23 0 0 0-4 2v1zm4-17h1l2-1 3-1a13 13 0 0 0-3 1h-2l-1 1zm1 0a21 21 0 0 0 2-1 13 13 0 0 0 3-1 8 8 0 0 0-3 1 11 11 0 0 0-2 1zm1 1 3-1 2-2a10 10 0 0 0-3 1 10 10 0 0 0-2 2zm1 0 2-1h1a7 7 0 0 0 1-1 6 6 0 0 0-1 1h-1a16 16 0 0 0-2 1zm1 1 4-2a16 16 0 0 0-4 1zm0 0a1 1 0 0 0 1 0l1-1a17 17 0 0 0 2-1 20 20 0 0 0-2 1l-1 1a1 1 0 0 0-1 0zm0 1 2-1a9 9 0 0 0 2-1l-2 1a6 6 0 0 0-2 1zm0 1 3-1 1-1a5 5 0 0 0 1 0 4 4 0 0 0-1 0h-1a15 15 0 0 0-3 1zm1 0 2-1h2a3 3 0 0 0 0-1 5 5 0 0 0-1 1h-1l-2 1zm0 1 1-1h2l1-1a1 1 0 0 0-1 0l-1 1h-1l-1 1zm0 0 2-1h1a4 4 0 0 0 1 0v-1a3 3 0 0 0-1 1h-1a19 19 0 0 0-2 1zm1 1a18 18 0 0 0 2-1 8 8 0 0 0 1-1 8 8 0 0 0-2 1 19 19 0 0 0-1 1zm0 1a14 14 0 0 1 2-1l1-1a8 8 0 0 0-1 1 13 13 0 0 0-2 1zm0 0a17 17 0 0 0 2-1h1a2 2 0 0 0 1-1 2 2 0 0 0-1 1h-1a10 10 0 0 0-2 1zm0 0h2l1-1a2 2 0 0 0 1 0 2 2 0 0 0-1 0h-1a8 8 0 0 0-1 1h-1zm1-1v-1h1l2-1a7 7 0 0 0-2 1 7 7 0 0 0-1 0l-1 1zm-1 3a9 9 0 0 0 2-1l1-1h1-2a8 8 0 0 0-2 1v1zm0 0h2a7 7 0 0 0 1-1l1-1a3 3 0 0 0-1 1h-2l-1 1zm-1 1h3a6 6 0 0 0 2-1v-1a10 10 0 0 0-3 1l-1 1h-1z"/><path d="m165 58 3-2a17 17 0 0 0-3 2ZM165 59l2-1 2-1a14 14 0 0 0-2 0 10 10 0 0 0-2 2z"/><path d="M165 59a20 20 0 0 0 2-1l2-2a11 11 0 0 0-2 2 8 8 0 0 0-2 1zm0 1a9 9 0 0 1 1-1h1a14 14 0 0 0 2-2 14 14 0 0 0-2 1 15 15 0 0 0-2 1z"/><path d="M156 64a56 56 0 0 0 7-3l3-2 3-2a26 26 0 0 0-3 2l-3 1a35 35 0 0 0-7 4zm1 0a31 31 0 0 0 3-1l3-2 7-3-7 3-3 1a33 33 0 0 0-3 2c-1 0 0 0 0 0zm0 1a8 8 0 0 0 2-1l2-1 5-3-5 3-2 1h-1a4 4 0 0 0-2 1h1zm0 1a17 17 0 0 0 3-2l3-1 6-4-6 3-3 2a18 18 0 0 0-3 2zm2 0 9-5-9 4v1zm0 1a75 75 0 0 0 8-4 39 39 0 0 0-5 1l-3 3zm3-1a8 8 0 0 0 1-1l2-1a27 27 0 0 0 3-2 15 15 0 0 0-4 2l-1 1a6 6 0 0 0-2 1zm1 0c-1 0 0 0 0 0a4 4 0 0 0 1 0l1-1 2-1a21 21 0 0 0-2 1h-1a4 4 0 0 0-1 1zm17-24h2l1-1a18 18 0 0 0 3-1 24 24 0 0 0-4 1h-1a1 1 0 0 0-1 0v1z"/><path d="m181 43 3-2h2a8 8 0 0 0 2-1 7 7 0 0 0-2 0l-2 1a22 22 0 0 0-3 2zm0 1 2-1 2-1h2a11 11 0 0 1 2-1 14 14 0 0 0-4 1l-3 1a4 4 0 0 0-1 1z"/><path d="m181 43 2-1h1l2-1a6 6 0 0 0 2-1 7 7 0 0 0-2 0l-2 1-2 1-1 1zm1 1 4-2 5-2a32 32 0 0 0-5 2 45 45 0 0 0-4 2zm-1 1 5-2 3-1a15 15 0 0 0 2-1 11 11 0 0 0-2 1l-3 1a55 55 0 0 0-5 2v1zm0 1 6-3 4-1h1a7 7 0 0 0 2-1 6 6 0 0 0-2 0l-1 1-4 1a54 54 0 0 0-6 3zm1 1 6-3 3-1 1-1a5 5 0 0 0 2-1 4 4 0 0 0-1 1l-2 1-3 1-6 3zm-1 1 8-3 3-2 2-1a9 9 0 0 0 2-1 15 15 0 0 0-3 2l-4 1a58 58 0 0 0-8 4zm8-3a4 4 0 0 0 1 0l1-1 2-1h2l1-1a6 6 0 0 0 1 0 3 3 0 0 0-1 0h-1l-2 1-2 1-1 1a5 5 0 0 0-1 0zm2 1 3-2 2-1a10 10 0 0 0 1-1 9 9 0 0 0-1 1l-2 1-3 2zm1-1 3-1h1l1-1h-1l-1 1-3 1zm1 1 2-1 2-1a3 3 0 0 1-1 0l-1 1-2 1zm2 0 1-1 2-1-2 1-1 1zm-14 3 3-1 1-1a4 4 0 0 0 2-1 4 4 0 0 0-2 1h-1l-3 2zm1 1h1l1-1 2-1 1-1c-1-1-1 0 0 0a1 1 0 0 0-1 0l-2 1-1 1-1 1c-1 0 0 0 0 0zm0 1a20 20 0 0 0 3-2l1-1h1a2 2 0 0 0 1 0l-1-1a1 1 0 0 0 0 1h-1l-1 1a16 16 0 0 0-3 2zm-1 1 3-2 3-1a16 16 0 0 0-3 1 25 25 0 0 0-3 2zm0 2 4-2 1-1a15 15 0 0 0 1-1 8 8 0 0 0-1 0l-2 1a25 25 0 0 0-2 3zm1 0 3-1 1-1a8 8 0 0 0 2-1 6 6 0 0 0-2 1h-2a19 19 0 0 0-2 2s0 1 0 0z"/><path d="m182 55 3-2 2-1a13 13 0 0 0 1-1 13 13 0 0 0-3 2 21 21 0 0 0-3 2zm-1 1 4-2 2-1a11 11 0 0 0 2-1v-1a10 10 0 0 0-2 1l-2 2-4 2zm1 1 4-2 1-2h1a2 2 0 0 0 1-1 2 2 0 0 0-1 0l-1 1-2 1a29 29 0 0 0-3 3zm-1 2 5-3 2-2a21 21 0 0 0 2-1 15 15 0 0 0-3 1l-2 1a50 50 0 0 0-4 3zm1 0 4-3 2-1a16 16 0 0 0 2-2 16 16 0 0 0-2 1l-2 2-4 3zm1 0 2-1h1l2-2 2-1a11 11 0 0 0 2-2 12 12 0 0 0-3 2l-2 1-2 2-1 1h-1 1s-1 0 0 0zm-1 2a24 24 0 0 0 3-2 19 19 0 0 0 3-2 18 18 0 0 0-3 2 24 24 0 0 0-3 2zm9-6h1v-1a2 2 0 0 0 1 0 1 1 0 0 0-1 0 4 4 0 0 0-1 1zm-9 6a1 1 0 0 0 1 0h1l1-1 1-1a7 7 0 0 0 2-1 5 5 0 0 0-1 1h-2l-1 1-1 1h-1zm1 1a4 4 0 0 1 1-1h1l2-1a7 7 0 0 0 1-1 7 7 0 0 0-1 1l-2 1h-1l-1 1z"/><path d="M182 64a1 1 0 0 0 1-1h-1v1zm-1-1a6 6 0 0 0 1-1h1a16 16 0 0 0 2-1 15 15 0 0 0-2 1h-1a5 5 0 0 0-1 1z"/><path d="M182 63v1c-1 0 0 0 0 0a15 15 0 0 0 2-1l2-1 1-1a8 8 0 0 0 2-2 7 7 0 0 0-2 1l-2 1-2 2a12 12 0 0 0-1 1v-1zm0 2a35 35 0 0 0 3-2l2-1a10 10 0 0 0 2-1 10 10 0 0 0-2 1l-2 1a25 25 0 0 0-3 2zm0 1v1-1a10 10 0 0 0 1 0l2-2a37 37 0 0 0 4-3 37 37 0 0 0-4 3l-2 1v1a4 4 0 0 0-1 0v1zm1 1a32 32 0 0 0 4-3l4-3-4 3a30 30 0 0 0-4 3zm1 0 2-2 2-1 2-1 1-1a12 12 0 0 0 1-1 12 12 0 0 0-1 1l-1 1-2 1-2 1-2 2zm1 0a42 42 0 0 0 4-3 32 32 0 0 0 3-2 17 17 0 0 0-4 2 19 19 0 0 0-3 3zm1 0zm0 0a27 27 0 0 0 4-2l2-1 1-1a2 2 0 0 0 0-1l-1 1-2 1a21 21 0 0 0-4 3zm1 0a19 19 0 0 0 2-1l2-1 2-2a16 16 0 0 0 2-1 12 12 0 0 0-2 1l-2 2-2 1a15 15 0 0 0-2 1zm2 0 7-5a17 17 0 0 0-4 3 24 24 0 0 1-3 2zm2-1h1-1z"/><path d="M191 67a5 5 0 0 0 2-1 18 18 0 0 0 1-1l1-2a18 18 0 0 1 2-1 7 7 0 0 0-3 2l-2 1a12 12 0 0 0-1 2z"/><path d="M191 67a13 13 0 0 0 3-2l2-1v-1h1a1 1 0 0 0-1 0v1l-2 1-3 2zm1 1 1-1h1l1-1 1-2h1a1 1 0 0 0 0-1l-1 1-1 1-2 1v1h-1zm1 0 1-1 1-1 2-1 1-1a1 1 0 0 0-1 0v1h-2l-1 1v1h-1s0 1 0 0zm2-1a2 2 0 0 0 1 0l1-1a3 3 0 0 0 1 0l-1-1a3 3 0 0 0 0 1h-1l-1 1zm2 0a2 2 0 0 0 1 0 2 2 0 0 1-1 0z"/></g><path d="m96 46 8 27a1 1 0 0 0 2-1l-8-26c0-2-2-1-2 0Z"/><path d="M98 47a13 13 0 0 1 12-1c4 2 6 5 7 9s1 9-2 12a14 14 0 0 1-4 3 14 14 0 0 1-3 1 14 14 0 0 1-1 1h-1l-1 2 1-1a1 1 0 0 0-2-2v1a1 1 0 0 0 0 1c0 2 3 1 4 1a17 17 0 0 0 5-2 14 14 0 0 0 6-8c2-4 1-9-1-13a15 15 0 0 0-21-6c-2 1 0 3 1 2Z"/><path d="m104 53 3 12h2v-2a1 1 0 0 0-1-1 1 1 0 0 0-1 1v2l3-1-4-12a1 1 0 0 0-2 1Z"/><path d="M106 54a4 4 0 0 1 3 2 8 8 0 0 1 1 5 4 4 0 0 1-1 2 2 2 0 0 0-1 0 1 1 0 0 0 1 3 2 2 0 0 0 1-1 1 1 0 0 0 0-2c-2 0-2 2-1 2v-2s-1 0 0 0v1l1 1h-1a2 2 0 0 0 2 0 6 6 0 0 0 1-2 8 8 0 0 0 1-6 9 9 0 0 0-3-4 6 6 0 0 0-5-2 1 1 0 0 0-1 2 1 1 0 0 0 2 1zm17-6c1 4 1 9 3 13 1 3 3 6 7 8a8 8 0 0 0 10-1c2-3 3-7 3-11l-1-7-1-7a7 7 0 0 0-3-4 4 4 0 0 0-4 0c-4 2-2 7-1 11a21 21 0 0 1 0 7c-1 1-2 0-2-1a23 23 0 0 1-1-3l-1-8-3-4a4 4 0 0 0-5 0 7 7 0 0 0-1 6c0 2 2 2 2 0v-1c0-2-2-2-2 0v1h2c0-1 0-4 2-4s2 1 3 2l2 11a4 4 0 0 0 2 4 3 3 0 0 0 3-1l1-5a34 34 0 0 0 0-6l-1-6c0-1 2-2 3-1l2 5 1 6v11c-1 3-4 5-8 5-4-1-6-5-7-8a119 119 0 0 1-3-13c-1-1-3-1-2 1zm27-7 4 26h3l-1-1c0-2-2-1-2 0v1c1 2 3 1 3 0l-5-26c0-2-2-1-2 0z"/><path d="M152 41h1a8 8 0 0 1 1 0 11 11 0 0 1 2-1 13 13 0 0 1 5 1 13 13 0 0 1 7 6 16 16 0 0 1 2 9c0 3-2 7-4 9s-7 2-10 2c-2-1-2 2-1 2 4 0 8 0 11-2 4-2 5-6 6-10 1-8-3-17-12-19a14 14 0 0 0-6 0c-2 1-5 2-4 4 1 1 3 0 2-1zm5 8 3 11c0 2 2 2 2 0v-1a1 1 0 0 0-1-1 1 1 0 0 0-1 1v1h2l-3-12c0-1-2-1-2 1z"/><path d="M158 48h2v1h-1l3 1a4 4 0 0 1 2 3c0 2-1 5-3 6h2a1 1 0 0 0-2 0s-1 0 0 0l1 1a1 1 0 0 0-2-1 1 1 0 0 0 0 2 1 1 0 0 0 1 0 2 2 0 0 0 1 0h-1a1 1 0 0 0 1 0c4-2 5-7 3-10a7 7 0 0 0-4-4 4 4 0 0 0-3 0 1 1 0 0 0 1 3c1-1 1-3-1-2zm20-8a172 172 0 0 1 2 28h2v-2h-2v2h2a174 174 0 0 0-1-29c-1-1-3 0-3 1z"/><path d="M180 41h17a4 4 0 0 0 2 0 1 1 0 0 0 0-2 1 1 0 0 0-2 0 2 2 0 0 0 0 1 1 1 0 0 0 2 1c1-1 0-3-1-2h1v1h-2l1-1-1-1h-17c-2 0-2 3 0 3zm1 28 17 1c2 0 2-2 0-2l-17-1v2z"/><path d="M200 68v-5a4 4 0 0 0 0-1 1 1 0 0 0-1-1 1 1 0 0 0-1 1 1 1 0 0 0 1 1 1 1 0 0 0 0-2h1v2h-2v-1 6a1 1 0 0 0 1 1 1 1 0 0 0 1-1zm-3-27 1 7 2-1a1 1 0 0 0-1-2 1 1 0 0 0-1 1 3 3 0 0 0 0 2 1 1 0 0 0 1 0 1 1 0 0 0 1-1v-3l-1-3a1 1 0 0 0-1-1l-1 1z"/><path d="M189 62h10v-2h-1a1 1 0 0 0 0 2l1-2h-10a1 1 0 0 0 0 2z"/><path d="M187 57a23 23 0 0 0 1 4 1 1 0 0 0 1 1 1 1 0 0 0 1-1v-1a1 1 0 0 0-1-1 1 1 0 0 0-1 1v1l2-1a2 2 0 0 0 0-1c0 1 0 0 0 0v-2a1 1 0 0 0-1-1 1 1 0 0 0-1 1zm1-9a65 65 0 0 1 10 1 1 1 0 0 0 1-1 1 1 0 0 0-1-2 1 1 0 1 0 0 2h-1v-1l1-1a65 65 0 0 0-10 0c-2 0-2 2 0 2z"/><path d="M186 47v3a1 1 0 0 0 1 1 1 1 0 0 0 1 0 1 1 0 0 0 1-1l-1-3a1 1 0 0 0 0-1 1 1 0 0 0-1 0 1 1 0 0 0-1 1Z"/><path d="m189 58 4-1a1 1 0 0 0 2-1 16 16 0 0 0-1-5 1 1 0 0 0-2-1h-1a10 10 0 0 1-1 0h-2 1v1l-1 1h-1c1 0 1 0 0 0v-2a1 1 0 0 0 1 2 1 1 0 0 0 1-2 1 1 0 1 0-2 2 2 2 0 0 0 1 0 12 12 0 0 0 5 0l-1-1a14 14 0 0 1 0 3v2l1-1-4 1a1 1 0 0 0-1 1 1 1 0 0 0 1 1z"/></svg>