<svg xmlns="http://www.w3.org/2000/svg" viewBox="0 0 710.9 275.1"><g fill="#d68a27"><path d="M381 110c-1-3-2-5-5-7l2 3a5 5 0 0 0-3-4h-2a16 16 0 0 0-3-1 8 8 0 0 0-1 0h-3l-1 1a6 6 0 0 1-1 0 35 35 0 0 0-3 1l-2 1-1 1a12 12 0 0 0-2 1q2-2 0 1a28 28 0 0 0-11 17 29 29 0 0 0 1 12 21 21 0 0 0 5 10 17 17 0 0 0 16 5c4-1 8-3 11-6a65 65 0 0 0 14-17 91 91 0 0 0 10-19 20 20 0 0 0 0-12 14 14 0 0 0-14-10c-8 1-15 6-21 11a49 49 0 0 0-11 17 36 36 0 0 0-3 8l1 9a15 15 0 0 0 6 8 17 17 0 0 0 15 2 38 38 0 0 0 11-7 42 42 0 0 0 8-9c3-5 4-10 3-16s-5-8-11-10a23 23 0 0 0-12-1c-6 2-13 6-17 11a58 58 0 0 0-11 15 44 44 0 0 0-4 12 29 29 0 0 0-1 8 26 26 0 0 0 2 8 22 22 0 0 0 8 9 19 19 0 0 0 14 3c8-1 15-8 18-15a29 29 0 0 0 2-24 40 40 0 0 0-3-6 50 50 0 0 0-3-5 54 54 0 0 0-7-7c-6-5-13-11-22-11-8-1-16 5-20 12s-5 15-5 23a74 74 0 0 0 0 12 48 48 0 0 0 3 10c1 4 3 9 7 11a21 21 0 0 0 7 4 18 18 0 0 0 9 1c5-1 9-4 12-7a77 77 0 0 0 7-7 98 98 0 0 0 12-17 97 97 0 0 0 9-19 38 38 0 0 0 2-12 31 31 0 0 0-3-13 24 24 0 0 0-21-13 31 31 0 0 0-22 9 48 48 0 0 0-11 17 57 57 0 0 0-5 22 43 43 0 0 0 5 21 24 24 0 0 0 20 13c8 0 16-5 22-10a82 82 0 0 0 13-16 75 75 0 0 0 5-9c2-4 4-8 4-12a18 18 0 0 0-4-15 21 21 0 0 0-12-6 39 39 0 0 0-14 1 36 36 0 0 0-11 4 24 24 0 0 0-9 9c-3 5-1 12 3 15a6 6 0 0 0 9-1 7 7 0 0 1 1-1l-1 1 1-1-2 2a15 15 0 0 1 2-2c3-1 4-3 5-5l-1 2a15 15 0 0 1 2-2l-2 1a20 20 0 0 1 4-2l-2 1a37 37 0 0 1 9-3l-3 1a26 26 0 0 1 6 0l-2-1a15 15 0 0 1 3 1l-2-1a12 12 0 0 1 2 2l-2-2a11 11 0 0 1 2 2l-1-2a10 10 0 0 1 1 2l-1-2a9 9 0 0 1 0 1v-2a10 10 0 0 1 0 2v-3a21 21 0 0 1-1 5l1-2a75 75 0 0 1-10 16l2-2a65 65 0 0 1-11 12l2-2a30 30 0 0 1-7 4l3-1a19 19 0 0 1-4 1h2a15 15 0 0 1-3 0h2a14 14 0 0 1-3-1l2 1a13 13 0 0 1-2-1l2 1a16 16 0 0 1-3-3l1 2a22 22 0 0 1-2-4l1 2a31 31 0 0 1-2-8v3a46 46 0 0 1 0-12v3a48 48 0 0 1 3-12l-1 3a46 46 0 0 1 6-10l-2 2a34 34 0 0 1 6-6l-2 1a25 25 0 0 1 5-3l-2 1a20 20 0 0 1 5-1h-3a20 20 0 0 1 5 0h-3a16 16 0 0 1 4 1l-2-1a15 15 0 0 1 3 2l-2-2a15 15 0 0 1 2 2l-2-2a17 17 0 0 1 3 4l-1-2a20 20 0 0 1 1 4l-1-3a24 24 0 0 1 0 7l1-3a44 44 0 0 1-4 11l1-3a99 99 0 0 1-12 22l2-2a74 74 0 0 1-13 13l2-2a20 20 0 0 1-4 3l2-1a12 12 0 0 1-2 1l2-1a9 9 0 0 1-2 0l3 1a10 10 0 0 1-3-1l3 1a13 13 0 0 1-2-1l2 1a14 14 0 0 1-2-2l1 2a17 17 0 0 1-2-4l1 3a46 46 0 0 1-3-11l1 3a59 59 0 0 1 0-16l-1 3a39 39 0 0 1 3-9l-1 2a24 24 0 0 1 3-5l-2 2a17 17 0 0 1 3-3l-2 2a13 13 0 0 1 3-2l-3 1a12 12 0 0 1 3-1l-3 1a13 13 0 0 1 3 0l-2-1a16 16 0 0 1 3 1l-2-1a30 30 0 0 1 6 4l-2-1a63 63 0 0 1 11 10l-1-2a28 28 0 0 1 3 6l-1-2a20 20 0 0 1 1 5v-3a19 19 0 0 1 0 5v-3a23 23 0 0 1-1 6l1-3a30 30 0 0 1-4 6l2-2a22 22 0 0 1-4 4l2-2a15 15 0 0 1-3 2l3-1a12 12 0 0 1-3 1h3a10 10 0 0 1-3 0h3a11 11 0 0 1-2-1l2 1a12 12 0 0 1-2-1l2 2a13 13 0 0 1-2-3l1 2a15 15 0 0 1-2-3l1 3a15 15 0 0 1 0-3v2a19 19 0 0 1 0-5v3a32 32 0 0 1 2-8l-1 3a56 56 0 0 1 7-13l-2 2a38 38 0 0 1 7-6l-2 1a28 28 0 0 1 5-3l-2 1a24 24 0 0 1 6-2l-3 1a14 14 0 0 1 4 0l-3-1a10 10 0 0 1 2 1l-2-1a8 8 0 0 1 2 1l-2-2a6 6 0 0 1 1 1l-2-2a6 6 0 0 1 1 1l-1-2a7 7 0 0 1 0 1v-2a8 8 0 0 1 0 1v-2a11 11 0 0 1-1 2l1-2a27 27 0 0 1-3 5l1-2a34 34 0 0 1-5 6l2-2a26 26 0 0 1-6 4l3-1a13 13 0 0 1-3 0h3a9 9 0 0 1-2 0h2a8 8 0 0 1-1 0l2 1a7 7 0 0 1-1-1l2 2a7 7 0 0 1-1-1l1 2a6 6 0 0 1 0-1l1 2a7 7 0 0 1-1-1l1 3a10 10 0 0 1 0-3l-1 3a35 35 0 0 1 3-9l-1 3a39 39 0 0 1 5-9l-2 2a39 39 0 0 1 7-7l-2 2a37 37 0 0 1 8-5l-3 1a13 13 0 0 1 3 0h-3a7 7 0 0 1 2 0h-3a6 6 0 0 1 2 0l-3-1a6 6 0 0 1 1 0l-2-1a6 6 0 0 1 1 0l-2-2a6 6 0 0 1 1 1l-1-2a6 6 0 0 1 0 2v-3a11 11 0 0 1 0 2v-2a33 33 0 0 1-3 8l1-3a84 84 0 0 1-10 19l1-2-3 4 1-2a38 38 0 0 1-6 6l2-1a20 20 0 0 1-4 2l3-1a13 13 0 0 1-3 1h2a11 11 0 0 1-2 0h2a9 9 0 0 1-2-1l3 1a10 10 0 0 1-2-1l2 2a10 10 0 0 1-2-2l2 2a13 13 0 0 1-2-2l1 2a17 17 0 0 1-1-5v3-4 2a25 25 0 0 1 0-5v3a26 26 0 0 1 2-7l-1 2a27 27 0 0 0 1-4v2a26 26 0 0 1 1-3l1-1s1-1 0 0q-1 1 0 0a6 6 0 0 0 1-1l1-2-2 2a5 5 0 0 0 1 0 24 24 0 0 1 1-2l2-1-1 1a3 3 0 0 0 1-1 7 7 0 0 0 2-2l-2 2a13 13 0 0 1 1-1h2a2 2 0 0 1-1 0l3-1a6 6 0 0 0 1-1l-3 1a7 7 0 0 1 2 0v1a4 4 0 0 1 2 0 2 2 0 0 0 3-1z"/><path d="m368 121-1 2a13 13 0 0 0 3-8 14 14 0 0 0-1-8l-2-3 2 3a19 19 0 0 0-4-6l-1-1-1-2a30 30 0 0 0-4-3l-2-1a31 31 0 0 0-11-5c-5 0-10-1-16 1-4 1-9 4-12 8a31 31 0 0 0-7 12 50 50 0 0 0-1 8 31 31 0 0 0 0 4 86 86 0 0 0 1 12 49 49 0 0 0 3 10 54 54 0 0 0 3 7 45 45 0 0 0 5 6 22 22 0 0 0 3 3 33 33 0 0 0 6 4c5 3 10 4 15 4a39 39 0 0 0 8-2 50 50 0 0 0 8-3 65 65 0 0 0 8-5l10-8a53 53 0 0 0 7-6 49 49 0 0 0 7-11 61 61 0 0 0 3-7 47 47 0 0 0 1-8 33 33 0 0 0-1-12 31 31 0 0 0-5-11 47 47 0 0 0-4-5 54 54 0 0 0-6-5 47 47 0 0 0-11-6 37 37 0 0 0-8-2 58 58 0 0 0-12-1 61 61 0 0 0-11 2 53 53 0 0 0-36 72 26 26 0 0 0 10 11c5 3 9 4 14 4a41 41 0 0 0 12-1 46 46 0 0 0 8-2 62 62 0 0 0 22-14 31 31 0 0 0 8-13 20 20 0 0 0 0-7 30 30 0 0 0-3-11 26 26 0 0 0-9-11l2 2-2-2a23 23 0 0 0-4-3c-3-1-5-3-8-3l5 2a20 20 0 0 0-4-2l-1-1a29 29 0 0 0-5-2c2 1 0 0 0 0l-2-1a20 20 0 0 0-4-2l2 1a29 29 0 0 0-4-3 3 3 0 0 0-3 1 3 3 0 0 0-1 3 26 26 0 0 0 2 4l-1-2a20 20 0 0 0 2 4 26 26 0 0 0 1 5l-1-4a21 21 0 0 0 2 5 30 30 0 0 0 2 6l-1-3a15 15 0 0 0 1 3l1 3a36 36 0 0 0 3 7l-1-3 3 8-1-4a18 18 0 0 1 1 4l-1-3a14 14 0 0 1 0 3l1-4a18 18 0 0 1-1 4l1-4a17 17 0 0 1-2 4l3-3a26 26 0 0 1-5 4l3-2a55 55 0 0 1-12 6l4-1a43 43 0 0 1-11 3h4a26 26 0 0 1-6 0h4a17 17 0 0 1-4-1l3 1a13 13 0 0 1-2-1l3 2a13 13 0 0 1-2-2l2 3a15 15 0 0 1-2-3l1 4a31 31 0 0 1-2-8l1 4a40 40 0 0 1 0-10v4a42 42 0 0 1 2-10l-1 3a40 40 0 0 1 5-9l-2 3a38 38 0 0 1 6-6l-3 2a39 39 0 0 1 8-5l-3 2a42 42 0 0 1 10-3h-4a41 41 0 0 1 11 0h-4a37 37 0 0 1 9 2l-3-1a33 33 0 0 1 6 4l-3-2a26 26 0 0 1 5 4l-2-3a22 22 0 0 1 2 5l-1-4a20 20 0 0 1 1 5v-4a24 24 0 0 1 0 6v-4a29 29 0 0 1-2 7l2-4a34 34 0 0 1-5 8l3-3a59 59 0 0 1-11 10l3-3c-4 4-9 7-14 9l4-1a23 23 0 0 1-6 1h4a17 17 0 0 1-4 0h4a16 16 0 0 1-3-1l3 2a18 18 0 0 1-4-2l3 2a22 22 0 0 1-3-4l2 3a27 27 0 0 1-3-5l1 3a54 54 0 0 1-3-14v4a37 37 0 0 1 0-9l-1 4a21 21 0 0 1 2-5l-2 3a16 16 0 0 1 2-3l-2 3a15 15 0 0 1 2-2l-3 2a15 15 0 0 1 3-2l-4 2a17 17 0 0 1 4-1h-4a19 19 0 0 1 5 0h-4a20 20 0 0 1 5 1l-4-1a26 26 0 0 1 6 3l-3-2a54 54 0 0 0 6 4l-3-2 3 2a130 130 0 0 0 4 2l-4-2a24 24 0 0 1 3 2 13 13 0 0 0 13 0l-2 1a11 11 0 0 0 6-5z"/><path d="m342 110 2 6 1 7v-1a22 22 0 0 0-2-11 22 22 0 0 0-6-9l-6-5a29 29 0 0 0-15-4c-7 1-12 2-18 5a37 37 0 0 0-13 13l-4 9a14 14 0 0 0-1 2 48 48 0 0 0-1 12 49 49 0 0 0 6 22l7 9a24 24 0 0 0 2 3 66 66 0 0 0 9 6 63 63 0 0 0 11 5 20 20 0 0 0 4 1l11 2a57 57 0 0 0 12-2 58 58 0 0 0 11-5 28 28 0 0 0 4-2 97 97 0 0 0 10-7 82 82 0 0 0 10-13 29 29 0 0 0 3-4l4-9a20 20 0 0 0 0-3 85 85 0 0 0 2-10 19 19 0 0 0 0-2 71 71 0 0 0-1-10 22 22 0 0 0-1-3 66 66 0 0 0-5-12 31 31 0 0 0-2-4 80 80 0 0 0-8-9 82 82 0 0 0-9-7l-14-7a31 31 0 0 0-5-2 89 89 0 0 0-12-1 35 35 0 0 0-6 0l-6 1-6 1a37 37 0 0 0-5 1 96 96 0 0 0-12 5 30 30 0 0 0-3 2l-10 8a49 49 0 0 0-11 20 61 61 0 0 0-2 13 33 33 0 0 0 0 5 85 85 0 0 0 2 16 92 92 0 0 0 5 11 26 26 0 0 0 2 4 50 50 0 0 0 15 16c7 4 16 6 24 6a72 72 0 0 0 12-1 42 42 0 0 0 6-2 85 85 0 0 0 15-6 49 49 0 0 0 5-3 72 72 0 0 0 20-20 34 34 0 0 0 3-4 73 73 0 0 0 5-11 26 26 0 0 0 1-4l1-12a64 64 0 0 0-2-12 66 66 0 0 0-4-11 26 26 0 0 0-2-3 77 77 0 0 0-7-10 29 29 0 0 0-3-2 83 83 0 0 0-10-8 31 31 0 0 0-3-1 91 91 0 0 0-11-5 33 33 0 0 0-4-1 91 91 0 0 0-13-1 40 40 0 0 0-5 0 116 116 0 0 0-13 2l-16 6a72 72 0 0 0-9 5c-9 5-16 11-24 17l-8 7 6-5-1 1-1 1a22 22 0 0 0-9 7 15 15 0 0 0-3 7 15 15 0 0 0-2 8v8a15 15 0 0 0 2 7 15 15 0 0 0 3 6 15 15 0 0 0 6 6 11 11 0 0 0 3 2 30 30 0 0 0 30 0l22-18-6 5c7-5 13-10 21-13l-7 3a54 54 0 0 1 13-4l-8 1a41 41 0 0 1 10 0l-8-1a31 31 0 0 1 8 2l-7-3a31 31 0 0 1 7 4l-6-4a30 30 0 0 1 5 5l-4-6a26 26 0 0 1 3 5l-3-7a23 23 0 0 1 1 6l-1-8a22 22 0 0 1 0 6l1-8a26 26 0 0 1-1 6l3-7a33 33 0 0 1-5 7l5-6a42 42 0 0 1-7 7l6-5a48 48 0 0 1-10 6l7-3a44 44 0 0 1-11 3l8-1a25 25 0 0 1-7 0l8 1a18 18 0 0 1-4-1l7 3a16 16 0 0 1-3-2l6 5a18 18 0 0 1-3-3l5 6a24 24 0 0 1-3-5l3 7a39 39 0 0 1-3-10l1 8a37 37 0 0 1 0-9l-1 8a21 21 0 0 1 2-5l-3 7a19 19 0 0 1 2-4l-5 6a23 23 0 0 1 4-4l-6 5a33 33 0 0 1 7-4l-7 3a38 38 0 0 1 9-3l-8 1a37 37 0 0 1 9 0l-7-1a33 33 0 0 1 8 3l-7-3a33 33 0 0 1 7 4l-6-5a31 31 0 0 1 5 5l-5-6a29 29 0 0 1 4 6l-3-7a23 23 0 0 1 1 6l-1-8a19 19 0 0 1 0 4l1-8a21 21 0 0 1-1 5l3-7a31 31 0 0 1-4 7l5-6a45 45 0 0 1-8 7l6-4a29 29 0 0 1-6 4l7-3a21 21 0 0 1-5 1l8-1a18 18 0 0 1-5 0l8 1a20 20 0 0 1-5-1l8 3a22 22 0 0 1-5-3l6 5a23 23 0 0 1-4-4l4 6a22 22 0 0 1-2-5l3 7a21 21 0 0 1-2-5l1 8a18 18 0 0 1 0-4l-1 8a13 13 0 0 1 1-3l-3 7a9 9 0 0 1 1-2l-4 6a9 9 0 0 1 1-2l-6 5a8 8 0 0 1 1-1l-7 3a9 9 0 0 1 3 0l-8 1 8-1a22 22 0 0 0 10-6 15 15 0 0 0 5-5 22 22 0 0 0 5-10l-6 11-6 4h1a19 19 0 0 0 7-6 19 19 0 0 0 4-9l1-7a26 26 0 0 0-3-13zM33 190a32 32 0 0 0-6 4l2-1a22 22 0 0 0-2 1 14 14 0 0 0-2 3l-1 1-2 4a30 30 0 0 0-3 8c-2 6-1 13 4 18a15 15 0 0 0 13 3l9-4 13-6a157 157 0 0 0 48-33c9-9 16-21 24-31l-2 2 10-13 8-8 2-3a14 14 0 0 0 2-7 18 18 0 0 0 0-6v3a42 42 0 0 0 0-4v3-1 3-1a15 15 0 0 0 0-6 10 10 0 0 0-5-6 12 12 0 0 0-8-1 11 11 0 0 0-4 2l3-1h-3a16 16 0 0 0-6 4 27 27 0 0 0-3 4 68 68 0 0 0-3 6l-6 12-3 6a61 61 0 0 1-4 5l-7 11-8 12 1-2a90 90 0 0 1-16 16l2-2c-11 9-24 16-38 22l-11 5 2-1a14 14 0 0 1-2 1h2a7 7 0 0 1-1 0h2a7 7 0 0 1-1 0l2 1a6 6 0 0 1 0-1l2 2a5 5 0 0 1-1-1l1 2a6 6 0 0 1 0-1l1 2a8 8 0 0 1-1-2l1 3a14 14 0 0 1 0-3l-1 3a40 40 0 0 1 2-6 69 69 0 0 1 3-8l-1 2a14 14 0 0 0 1-3v-2 2-6a6 6 0 0 0-3-6 7 7 0 0 0-6 0z"/><path d="m41 198 1-1-2 1a9 9 0 0 0 7-3l3-3 5-6a10 10 0 0 0 3-6 9 9 0 0 0-16-7 87 87 0 0 0-8 9l16 12c6-8 12-16 16-24a102 102 0 0 0 7-16 33 33 0 0 0 2-10 16 16 0 0 0-1-6 21 21 0 0 0-2-5 10 10 0 0 0-4-4 8 8 0 0 0-4-1 10 10 0 0 0-8 3 35 35 0 0 0-4 4 22 22 0 0 0-2 6 28 28 0 0 0-1 4 71 71 0 0 1-1 4 90 90 0 0 1-5 15l2-3a230 230 0 0 1-12 23 11 11 0 0 0-1 8 10 10 0 0 0 18 2 88 88 0 0 0 6-10l-16-7-3 8-1 3a9 9 0 0 0 1 8v-2 2a2 2 0 0 0 4 2z"/><path d="M61 158a16 16 0 0 0 2-5l1-5a64 64 0 0 0 1-11v-5l1-5a35 35 0 0 0-1-7l-1-5a95 95 0 0 0-7-21 168 168 0 0 0-9-17 119 119 0 0 0-6-9l-2-3-2-1-2-2a51 51 0 0 0-5-5l3 4c-3-5-8-10-11-17l1 3a10 10 0 0 1 0-2v2a6 6 0 0 1 0-1v2a6 6 0 0 1 0-1l-1 3a5 5 0 0 1 0-1l-1 2-2 1a5 5 0 0 1 1 0l-2 1a6 6 0 0 1 1 0h-3a14 14 0 0 1 3 0h-2a24 24 0 0 1 6 1l-3-1 20 14 21 13a246 246 0 0 0 46 24l14 5 6 2 3 1h11l3-1 3-3a14 14 0 0 0 4-8 7 7 0 0 0 0-3 7 7 0 0 0-1-4 14 14 0 0 0-6-7l-2-1c-2-2-5-2-8-2l-5-1 4 1a75 75 0 0 1-11-2l-10-3-20-8 3 1a223 223 0 0 1-42-22l-9-7a58 58 0 0 0-10-6 38 38 0 0 0-15-3 16 16 0 0 0-12 4 14 14 0 0 0-4 7 19 19 0 0 0 1 9 23 23 0 0 0 3 7l8 12-1-3a44 44 0 0 0 2 6l3 7 6 10a154 154 0 0 1 10 20l-1-3 5 12-2-3a103 103 0 0 1 4 10 46 46 0 0 0 2 6l-1-2a18 18 0 0 1 2 4l-1-2a131 131 0 0 1 1 16 19 19 0 0 0 0 3l1 4c0 3 3 5 6 5 4 1 6-1 8-4z"/><path d="M35 69c-2 4 0 8 1 12l2 6 3 11 4 10 1 5 5 12-2-7 5 12-3-7a51 51 0 0 1 3 13l-1-8a53 53 0 0 1 0 13l1-7a54 54 0 0 1-4 13l3-7a52 52 0 0 1-4 8l-2 4a32 32 0 0 0-5 16 22 22 0 0 0 1 4 21 21 0 0 0 3 11l4 6-4-6a61 61 0 0 0 4 6l6 4 7 3 7 1a24 24 0 0 0 8-1l7-3a20 20 0 0 0 4-3 21 21 0 0 0 3-2 54 54 0 0 0 8-10l8-16a54 54 0 0 0 3-10l1-13a53 53 0 0 0 0-6v-5a120 120 0 0 0-2-13 47 47 0 0 0-2-6l-2-6a45 45 0 0 0-3-6 53 53 0 0 0-3-5l-7-7-2-2a80 80 0 0 0-10-8l-5-2-12-6-7-3-4-2-3-1a13 13 0 0 0-7 0 27 27 0 0 0-3 1 9 9 0 0 0-3 3 9 9 0 0 0-3 4z"/><path d="M58 182h-2 7l-5-1a10 10 0 0 0-5 1l3-1-3 1-1 1a11 11 0 0 0-5 3l2-2a44 44 0 0 1-10 6l4-2-2 1a14 14 0 0 0-8 6 13 13 0 0 0-1 10 13 13 0 0 0 6 7c3 2 6 2 9 1a96 96 0 0 0 15-7 108 108 0 0 0 12-7 199 199 0 0 0 23-20l18-20c7-8 16-15 21-23a27 27 0 0 0 3-8 28 28 0 0 0 1-3 28 28 0 0 0 0-4 24 24 0 0 0-2-11 15 15 0 0 0-2-3 15 15 0 0 0-2-2 20 20 0 0 0-5-3 23 23 0 0 0-5-2 23 23 0 0 0-10 0 20 20 0 0 0-9 5 22 22 0 0 0-3 4 20 20 0 0 0-2 4 17 17 0 0 0 4 16c4 4 10 6 16 4l18-5a17 17 0 0 0 10-8 17 17 0 0 0 1-12c-1-4-3-8-7-10l-4-2a16 16 0 0 0-9 0l-3 1 5-1a178 178 0 0 1-9 1h-5a14 14 0 0 0-6 2 14 14 0 0 0-5 4l-2 2a10 10 0 0 0-1 5 11 11 0 0 0 0 6 14 14 0 0 0 5 7 13 13 0 0 0 8 3c4 0 8-1 10-4a30 30 0 0 0 2-3l-2 2a26 26 0 0 0 3-3l-2 3v-1l-2 2a18 18 0 0 0 4-3l-3 2 2-1a31 31 0 0 0 4-2l4-4-2-5-6-3 1 1 1 2a15 15 0 0 0-2-3 35 35 0 0 0-3-3l4 4 1 2a31 31 0 0 0-2-3l2 3a32 32 0 0 0-2-4l-24 14a16 16 0 0 0 9 7 30 30 0 0 0 6 1l5 1h10l-5-32-18 6 20 20-1 3-2 3-3 2a5 5 0 0 1 1 0l-4 1a6 6 0 0 1 1 0l-4 1a7 7 0 0 1 1 0l-5-1a6 6 0 0 1 2 0l-4-1a5 5 0 0 1 1 0l-3-2a5 5 0 0 1 0 1l-2-4a8 8 0 0 1 1 2l-2-4a9 9 0 0 1 0 1v-4a11 11 0 0 1 0 2v-4a23 23 0 0 1-1 6l1-4a74 74 0 0 1-6 11l-7 9 2-2a294 294 0 0 1-29 32l-9 8 2-2-11 8-12 7 12 21a57 57 0 0 0 10-7 42 42 0 0 0 3-3 16 16 0 0 0 4-7 29 29 0 0 0 0-2l-1 3v-1c2-3 2-6 0-9v-1 5l1-1a6 6 0 0 0-3-7 6 6 0 0 0-6 0z"/><path d="m148 107 7 1a56 56 0 0 0 7-1 156 156 0 0 0 17-3l14-3 14-4c20-4 39-8 58-14l15-5a108 108 0 0 1 16-4l-4 1c12-2 23-2 35-2l8-1 9-1 18-1 19-2a12 12 0 0 0 6-2 12 12 0 0 0 5-3l3-3a12 12 0 0 0 2-6 8 8 0 0 0 0-4 12 12 0 0 0-2-6 17 17 0 0 0-10-7 16 16 0 0 0-7 0 8 8 0 0 0-4 1 8 8 0 0 0-3 2 10 10 0 0 0-2 1 36 36 0 0 0-3 4l1-2 2-2-3 3a9 9 0 0 0-3 7 10 10 0 0 0 3 6l1 1-2-2h1l-1-2v1a10 10 0 0 0 1 3 8 8 0 0 0 2 3 8 8 0 0 0 3 3 11 11 0 0 0 3 2l3 1 4-31-29 3-14 1-19 3-16 2h4l-5 1 4-1a161 161 0 0 0-31 6l-27 10-14 5-14 4-29 10-31 8 2-1-11 2 3-1-6 1a10 10 0 0 0-7 3 9 9 0 0 0 0 13 11 11 0 0 0 7 2z"/><path d="M336 58c2 3 5 3 8 4a31 31 0 0 0 5 1l4 1a73 73 0 0 0 9 1h10l11-1 41-4 23-2a17 17 0 0 0 9-2l3-3a17 17 0 0 0 4-7 13 13 0 0 0 1-7 13 13 0 0 0-2-6 13 13 0 0 0-5-5 13 13 0 0 0-5-3 17 17 0 0 0-9 0h-1c-4 1-8 4-10 8l-2 4a13 13 0 0 0 0 6 8 8 0 0 0 1 5 13 13 0 0 0 4 5l3 3a17 17 0 0 0 9 2V24l-42 4-20 2-15 2-10 2a38 38 0 0 0-5 1l-5 2a52 52 0 0 0-8 3c-3 2-6 3-8 6a10 10 0 0 0-1 6 11 11 0 0 0 3 6z"/><path d="M396 47h2l-1-2h-1a7 7 0 0 0 5 4l3 1a33 33 0 0 0 5 1h-3 10l9 1h16a198 198 0 0 1 33 1h-4l25 5 23 4a397 397 0 0 1 44 13l24 9-3-1a304 304 0 0 1 48 27l13 9-3-2a92 92 0 0 1 16 16l-2-3a72 72 0 0 1 5 8l2 3a26 26 0 0 0 5 6 13 13 0 0 0 14 3 13 13 0 0 0 8-12 43 43 0 0 0-1-6 27 27 0 0 0-3-6 71 71 0 0 0-3-6 88 88 0 0 0-11-14 121 121 0 0 0-12-10l-13-10a312 312 0 0 0-49-27 419 419 0 0 0-29-12l-27-9-27-7-31-5a200 200 0 0 0-32-1 124 124 0 0 0-19 1l-16 4a62 62 0 0 0-9 3l2-1-6 2-3 2a7 7 0 0 0-4 7v-1l1-2c1-1 0 0 0 0l-1 1c-3 1-2 5 0 6z"/><path d="M687 142a33 33 0 0 0 4 1 8 8 0 0 0 9-8l-5 6a25 25 0 0 0 5-3c2 0 3-2 3-4v-1l-1 2 1-1 3-2a2 2 0 0 0 0-3 2 2 0 0 0-2-1l-2 1 3 1a3 3 0 0 0-3-2l-2-1v7c2 0 4 0 5-2a7 7 0 0 0 1-2 4 4 0 0 0 0-4 4 4 0 0 0-5 0l-1 1h4a4 4 0 0 0-4-2 4 4 0 0 0-3 2 4 4 0 0 0 0 4 6 6 0 0 0 6 3 8 8 0 0 0 5-3 5 5 0 0 0 0-5 5 5 0 0 0-5-2 14 14 0 0 0-3 1l-1 1a12 12 0 0 0-4 2v1l-2 1-3 1a2 2 0 0 0-1 2 2 2 0 0 0 2 1l6-1h-1l1 1a10 10 0 0 0 3 0h2a13 13 0 0 0 4-1l-6-7h1c-1 0-1 0 0 0v-1 1l1-1a18 18 0 0 0-2 1h1l2 5h1s-1 1 0 0a4 4 0 0 0 1-2l-5 1 1 1 3-6a4 4 0 0 0-3 1h-1a5 5 0 0 0-1 2h-1a4 4 0 0 0 0 5 4 4 0 0 0 4 1l1-1a3 3 0 0 0 2-2l-2 2 1-1-1-3a9 9 0 0 1-2 1 10 10 0 0 1-2 1l3 1a6 6 0 0 0-3-3 7 7 0 0 0-2 0 18 18 0 0 1-2 0h2-2l5 4a7 7 0 0 0-2-4 8 8 0 0 0-5-2h-3 2-1a8 8 0 0 0-6 1 8 8 0 0 0-3 10 8 8 0 0 0 5 4zm-544-8a10 10 0 0 0 3 7 10 10 0 0 0 10 3 8 8 0 0 0 5-8c0-3-2-6-5-7a16 16 0 0 0-7 0 30 30 0 0 0-3 1 6 6 0 0 0-4 6l1 3a11 11 0 0 0 2 5 49 49 0 0 0 4 4 20 20 0 0 0 7 4l7 3 22 8-2-1a56 56 0 0 1 12 7l-2-1 14-18c-3-1-5-3-8-3a23 23 0 0 0-6 1l-3 1h-4c-2 1-3 3-2 5v2a20 20 0 0 0 2 6c1 3 3 5 6 7a101 101 0 0 0 7 5 62 62 0 0 0 7 4l28 14a408 408 0 0 0 62 25 294 294 0 0 0 66 12l34 2c12 0 23 2 35 3s25 2 38 1l19-1 13-1a24 24 0 0 0 12-8c2-2 3-5 3-8a11 11 0 0 0-3-8 29 29 0 0 0-4-4 35 35 0 0 0-7-2c-4-2-8-1-12-1h-49l-33 1a709 709 0 0 1-70-4h4c-23-3-44-9-66-17l-18-7 3 1-23-10 3 2-26-11a61 61 0 0 0-8-4 119 119 0 0 1-9-3 15 15 0 0 0-5-1h-1 1-4l-4 7a20 20 0 0 1 2 2v1-1a10 10 0 0 0 0 1 19 19 0 0 0 3 6l6 5 8 1a11 11 0 0 0 8-14l-5-7c-13-9-29-11-43-17l3 1-6-3-4-1-6-1a26 26 0 0 1-3 0l-4 10a28 28 0 0 0 2 2 15 15 0 0 0 6 3v-15h2-2c-1 0-1 0 0 0h1s1 1 0 0c-1-2-4-2-6-1-3 1-4 3-4 6z"/><path d="M401 221a23 23 0 0 0-2 12 40 40 0 0 0 1 10l2 9 1 4a16 16 0 0 0 2 4l1 2-1-2 2 4a9 9 0 0 0 5 6c2 1 5 1 8-1l5-4-2 1a152 152 0 0 0 24-19l9-10 10-12 6-7 3-3c1-2 3-3 3-6a10 10 0 0 0-1-7l1 6a9 9 0 0 0 0-5 8 8 0 0 0-6-6c-2 0-6 0-8 2v1l2-2-1 1 7-1a10 10 0 0 0-5 0 11 11 0 0 0-5 3l-3 3-5 6-10 11-8 10-10 10a112 112 0 0 1-11 10l2-1a37 37 0 0 1-6 4l13 5-1-4v4-2l1-2a39 39 0 0 0-1-3v-4l-2-6-1-6-1-6v3a29 29 0 0 1 0-7v-3a7 7 0 0 0-2-3 9 9 0 0 0-5-3c-4-1-9 0-11 4z"/><path d="M451 242h6a16 16 0 0 0 5-3l3-3a68 68 0 0 0 9-11 121 121 0 0 0 7-11l5-11 4-7 1-3a31 31 0 0 0 2-5 7 7 0 0 0-13-5 64 64 0 0 0-3 6l-3 6a96 96 0 0 1-8 12l1-2-6 8 2-2-6 8-4 6-2 3a14 14 0 0 0-2 5l-1 6c0 1 1 3 3 3z"/><path d="M489 191a10 10 0 0 0-4-2l-6 1a19 19 0 0 0-4 1l-4 1a19 19 0 0 0-3 2l-2 1-4 2-10 9a12 12 0 0 0-1 6 12 12 0 0 0 2 7 12 12 0 0 0 5 4 12 12 0 0 0 8 1 25 25 0 0 0 3-1 21 21 0 0 0 3-3l2-1 3-3 3-2 1-1a20 20 0 0 0 4-4l-2 2 3-3a32 32 0 0 0 3-5l2-7c0-2 0-4-2-5zm-37 29a36 36 0 0 1-4 2l-3 1-8 4-2 1h-1v1h-2l-1 1a41 41 0 0 1-8 2h6-9a14 14 0 0 0-9 9c-2 4 0 10 3 13a14 14 0 0 0 14 3 15 15 0 0 0 10-10 15 15 0 0 0-4-14 14 14 0 0 0-14-3h-1 4-1v30a19 19 0 0 0 9-3 19 19 0 0 0 6-6l1-1a42 42 0 0 0 3-8c2-5 2-10 2-14v3l1-4 1-8v4a36 36 0 0 0 0-7v-2a12 12 0 0 0-3-8l2 2 1 2a10 10 0 0 0-2-3l1 2v4a29 29 0 0 0 1-3 7 7 0 0 0-3-5 7 7 0 0 0-6-2 15 15 0 0 0-3 2l4-1h2a9 9 0 0 0-3 0h2-5a20 20 0 0 0-4 1 24 24 0 0 0-2 1 26 26 0 0 0-8 9l-7 15 2-4-3 7 2-3a22 22 0 0 1-3 5l2-4-1 3a8 8 0 0 0-2 3 21 21 0 0 0-1 2l1-4-2 6a12 12 0 0 0 0 6 11 11 0 0 0 2 6 16 16 0 0 0 9 7 15 15 0 0 0 19-11v-1l-2 4a16 16 0 0 1 1-2l-12 7-7-2-2-2-3-2h1l-2-4v1-7l1-3 2-3 6-3 4-1 13 17a15 15 0 0 0 0-6l-1 3 1-4 1-1c0-1-1 1 0 0l1-2 1-1v-1l1-1 1-1 6-6 2-3a24 24 0 0 1 3-3c1-1 0-2-1-2zm52 14a21 21 0 0 0 11 2 25 25 0 0 0 7-1l5-2h-3 7a87 87 0 0 0 8-1l13-2a37 37 0 0 0 6-1l6-2 5-3 4-1a26 26 0 0 0 3-1c3-2 4-5 5-8l-5 5 9-3 4-1a59 59 0 0 0 6-2l-8-13a28 28 0 0 0-2 2l-2 2s1-1 0 0l-2 1-8 3a8 8 0 0 0-4 5 8 8 0 0 0 1 5 8 8 0 0 0 9 5l11-4 11-3 5-2a51 51 0 0 0 8-3l10-5h-2l24-10 9-4a36 36 0 0 0 5-3l4-4 2-1 1-1c1-1-1 1 0 0a47 47 0 0 0 4-2l9-8 6-8a22 22 0 0 0 3-4v-2l2-1a51 51 0 0 0 7-10s1 0 0 0h1a11 11 0 0 0 3-4 74 74 0 0 0 2-5 8 8 0 0 0 1-5 6 6 0 0 0-4-4 6 6 0 0 0-5 0 7 7 0 0 0-4 4v-1 1l-1 2-1 2a15 15 0 0 0-1 3v2-1 1c-1 0 0-1 0 0l-1 1-7 11 2-2a26 26 0 0 1-3 1l-1 1-1 1-2 1-1 1h1l-2 1-5 4-6 4-1 1-1 1-2 1a31 31 0 0 1-5 3l-5 2-5 3a187 187 0 0 1-14 6l2-1-14 6-15 5a78 78 0 0 0-9 4l-7 3-14 7 9 13 6-5 2-1 1-1-1 1a6 6 0 0 0 1-1 22 22 0 0 0 3-1c4-2 5-6 3-9a7 7 0 0 0-8-4l-17 5 7 2-7-4a15 15 0 0 0-5 0l-3 1-6 1-6 1a46 46 0 0 0-6 2l-12 3-6 1-6 2h2-5a47 47 0 0 0-7 1l2-1a14 14 0 0 1-3 0l3 1a8 8 0 0 1-2-1l3 1h-1a11 11 0 0 0-8-1 11 11 0 0 0-6 5c-3 5-1 12 4 15z"/><path d="M679 131a27 27 0 0 0-6 2l-3 2-6 3 4-2a63 63 0 0 0-6 2l-3 2-4 2 4-2a95 95 0 0 1-12 4l-6 2-7 2a243 243 0 0 1-28 5l5-1-14 2-14 1-27 3h-9l-5 1a40 40 0 0 0-5 2l-1 1a19 19 0 0 0-4 2 17 17 0 0 0-5 6l-2 4a14 14 0 0 0 0 7 9 9 0 0 0 1 5 14 14 0 0 0 4 6 20 20 0 0 0 4 4 26 26 0 0 0 6 2h13l6-1 13-2 26-4-5 1 17-2 21-3a166 166 0 0 0 17-3 84 84 0 0 0 18-7 110 110 0 0 0 17-12l-4 3a37 37 0 0 0 5-4l1-1 3-4 4-5a19 19 0 0 0 3-7 13 13 0 0 0-3-13 13 13 0 0 0-13-3z"/><path d="M622 181a26 26 0 0 0-7-4 17 17 0 0 0-6-1h-4l-4-1-4 1-7 1-16 1h-16l-18-2 5 1a334 334 0 0 1-14-3l-7-1a66 66 0 0 1-7-2l-13-5a60 60 0 0 0-6-3h-4l-8-2-6 1a16 16 0 0 0-8 4 11 11 0 0 0-3 4 16 16 0 0 0-4 7 26 26 0 0 0 0 12 16 16 0 0 0 4 7 16 16 0 0 0 6 6l3 1a16 16 0 0 0 8 2h1l3 1a31 31 0 0 0 5 0l10-1a100 100 0 0 1 10 0l11 1-4-1a258 258 0 0 0 60 2 104 104 0 0 0 13-2 201 201 0 0 0 9-2 39 39 0 0 0 7-4c2-1 5-2 6-4a22 22 0 0 0 6-9 4 4 0 0 0-1-5z"/><path d="M550 190a47 47 0 0 1-6-1 60 60 0 0 0-11-2h5l-35-6-35-6-34-9c-8-2-15-5-24-5l-17-1c-13 0-27 0-40-2l8 1c-32-4-62-16-91-28l7 3a148 148 0 0 1-16-8 163 163 0 0 1-14-10 118 118 0 0 0-38-17l-8-1a22 22 0 0 0-11 3 15 15 0 0 0-7 3 22 22 0 0 0-7 9l-1 2 16-9-9 1h4l-14-3-14-5a16 16 0 0 0-13 2 17 17 0 0 0-6 8 16 16 0 0 0-1 10 19 19 0 0 0 7 10l8 5-3-2a196 196 0 0 0 21 16l-4-3a59 59 0 0 0 5 4l6 2-5-2a222 222 0 0 0 21 9l-5-2a37 37 0 0 0 7 3l7 1h3a34 34 0 0 0 16-5 21 21 0 0 0 11-15c1-7-2-13-6-18a33 33 0 0 0-15-9l-3-1-9-2 6 1a179 179 0 0 1-9-1l-15-3 6 1-11-2-11-3 4 2-8-4-13 30 15 2 14 5-4-2 8 6-10-17v3l1 7a22 22 0 0 0 5 10 15 15 0 0 0 5 6 22 22 0 0 0 10 5 132 132 0 0 1 16 5l-7-3c10 5 18 12 27 17a398 398 0 0 0 97 37 247 247 0 0 0 40 6l35 1a262 262 0 0 1 8 0 76 76 0 0 0 9 0 454 454 0 0 1 17-1h35l38 4 19 1a68 68 0 0 0 9 1l14-3 4-1a12 12 0 0 0 4-4 15 15 0 0 0 4-10 19 19 0 0 0-2-8 16 16 0 0 0-10-8z"/><path d="m177 118 8 3 7 2a63 63 0 0 0 13 3h8l-6-1a41 41 0 0 0 10 1h4l9-1 23-3 34-6-7 1 24-3 17-3-8 1a916 916 0 0 1 194-4l-7-1c24 3 47 9 69 18l-7-3a201 201 0 0 1 44 26l-6-5 9 8c5 4 9 9 15 12l7 3a23 23 0 0 0 11 1 15 15 0 0 0 8-2 22 22 0 0 0 9-6 35 35 0 0 0 8-14c2-7 1-16-3-22-4-8-12-14-18-19a249 249 0 0 0-21-16 247 247 0 0 0-41-20 309 309 0 0 0-88-21 643 643 0 0 0-92-1c-32 1-64 3-96 7l-26 4-22 6-43 13c-5 2-11 3-16 6l6-3-11 4-10 5 5-1-7 2 5-1-13 5 4-2a15 15 0 0 1-3 2c-6 1-10 7-10 13a16 16 0 0 0 2 6c1 3 5 6 8 6z"/><path d="m640 117 4 4a46 46 0 0 0-4-6l2 4a33 33 0 0 0-3-4 22 22 0 0 0-9-5l-3-1-5-2 6 3c-5-3-9-3-14-4l7 1-3-1a15 15 0 0 0-2-1h-4a13 13 0 0 0-4-1h-9a252 252 0 0 1-45 1 1461 1461 0 0 1-63-3l-37-3 8 1-41-6a219 219 0 0 0-34-2l-20 2 30 30v-1a22 22 0 0 0-3-11 22 22 0 0 0-6-10 22 22 0 0 0-9-6 22 22 0 0 0-12-2l-8 1a30 30 0 0 0-13 7l-5 6a30 30 0 0 0-4 15v1a22 22 0 0 0 3 11 22 22 0 0 0 6 10l6 4a30 30 0 0 0 15 4 223 223 0 0 1 57 1l-7-1 45 6 39 4 38 1a435 435 0 0 0 56-1 109 109 0 0 0 17-2l3-1h1l10-6 6-5-5 4a27 27 0 0 0 9-9l-4 5 3-3-4 4c4-3 9-7 11-11l3-11a10 10 0 0 0 0-2l-1 2 1-2a7 7 0 0 0-1-4 10 10 0 0 0-4-5z"/><path d="M346 155v4a19 19 0 0 0 3 9c3 5 5 6 10 10l2 1-5-4 5 5 7 2 1 1a61 61 0 0 0 1 0 122 122 0 0 0 4 1 65 65 0 0 0 12 1h4a114 114 0 0 1 15 1l-7-1 15 2 24 3 32 4a524 524 0 0 0 65-1l18-2 9-1h4l8-1a8 8 0 0 0 1 0l4-2a22 22 0 0 0 9-6l5-6a51 51 0 0 0 3-7 22 22 0 0 0 1-12 22 22 0 0 0-4-11l-4-6a30 30 0 0 0-13-8 11 11 0 0 0-5 0 23 23 0 0 0-11 0 8 8 0 0 1-1 0l8-1c-17 2-34 4-51 4a499 499 0 0 1-51 0l-29-3 8 1-37-6a109 109 0 0 0-15 0h-7l-15 2 8-1-9 1-7 3a50 50 0 0 0-6 5l6-5a52 52 0 0 1-2 1 26 26 0 0 0-10 10l-2 6a23 23 0 0 0-1 7zm-82-89 1-1a10 10 0 0 0 4-1l4-1 6-3h-2a294 294 0 0 1 38-12 645 645 0 0 1 62-14l-3 1a168 168 0 0 1 44-1h-4a111 111 0 0 1 26 6l-4-2a109 109 0 0 1 11 6l5 3a23 23 0 0 0 6 3 20 20 0 0 0 11 0 15 15 0 0 0 9-7 16 16 0 0 0 1-12 19 19 0 0 0-6-9 15 15 0 0 0-5-4l-6-2-9-4-19-4a159 159 0 0 0-44-2 235 235 0 0 0-25 4l-21 5a400 400 0 0 0-43 16 222 222 0 0 0-21 10 168 168 0 0 0-10 7l-5 3-3 2a12 12 0 0 0-3 4c-2 4 0 9 5 9z"/><path d="m356 30 2 1 1 1a8 8 0 0 0 5 0 51 51 0 0 0 6-3l9-4h-2a28 28 0 0 1 6-1h-2a105 105 0 0 1 14-1 100 100 0 0 1 13 1h-3 1a10 10 0 0 0 6 0h-2 1a10 10 0 0 0 6-2 8 8 0 0 0 3-7c0-5-4-9-9-10a28 28 0 0 0-8-1l-7 1a160 160 0 0 0-16 1 34 34 0 0 0-14 6l-6 4a26 26 0 0 0-4 3 17 17 0 0 0-2 4c-2 2-1 6 2 7zm-66 107a303 303 0 0 0 42 23c2 1 3-2 2-3a302 302 0 0 1-43-22c-1-1-3 1-1 2zm156 119a63 63 0 0 0 16-17l14-20a8 8 0 0 0-3-10c-4-2-8-1-10 3l-13 19-3 3-1 2v-1l-1 2a43 43 0 0 1-4 4l-1 1c-1 1 1-1 0 0l-1 1c-4 2-5 7-3 10s7 5 10 3zm-58-38a148 148 0 0 0-28-6 166 166 0 0 0-15-2l-14-1h2a41 41 0 0 1-11-2h2l-10-5a119 119 0 0 0-13-4l-24-7c-4-1-9 1-9 5a8 8 0 0 0 5 9l18 6a171 171 0 0 1 17 5l-2-1 13 6a50 50 0 0 0 13 3l13 1 13 1h-2a148 148 0 0 1 28 7c4 1 9-2 9-6a8 8 0 0 0-5-9zm-352 3a18 18 0 0 1-2-3l1 2a21 21 0 0 1-2-5l1 2a26 26 0 0 1 0-7l-1 2a35 35 0 0 1 3-8l-1 2 10-17 5-9a89 89 0 0 0 5-9 31 31 0 0 0 3-12l1-10v-21l1-12a11 11 0 0 0-4-8 10 10 0 0 0-11-2 8 8 0 0 0-2 11 8 8 0 0 0 10 2l-2 1h1-4 1l-2-1-1-1h-1v-2a6 6 0 0 1 0 1v-2a52 52 0 0 1 0 6l-1 6v24l-1 11v-2a19 19 0 0 1-1 5l1-2-7 12-8 12c-5 8-9 16-10 26a27 27 0 0 0 5 16c2 3 6 5 10 2 3-2 5-7 2-10zM16 49h-2a66 66 0 0 1 17 4h-2a65 65 0 0 1 11 6l3 1h-1l1 1 1 1a74 74 0 0 0 7 5c7 4 17 5 25 8l-2-1a28 28 0 0 1 5 3l1 1h1-1l4 3a45 45 0 0 0 11 6l21 6-1-1 18 12a82 82 0 0 0 21 11 70 70 0 0 0 12 3 8 8 0 0 0 6-1 8 8 0 0 0 2-10 7 7 0 0 0-4-3 71 71 0 0 1-16-5l1 1a70 70 0 0 1-11-6l-10-8a64 64 0 0 0-11-6 86 86 0 0 0-13-5 109 109 0 0 1-13-4l2 1a38 38 0 0 1-5-2 30 30 0 0 1-2-2h-1 1l-10-7a65 65 0 0 0-11-3 67 67 0 0 1-10-3h2a31 31 0 0 1-6-3l-1-1h-1 1l-3-2a76 76 0 0 0-11-7 76 76 0 0 0-27-8l-5 2a8 8 0 0 0 0 11 9 9 0 0 0 5 2z"/></g><g fill="#efefef"><path d="M635 144a2 2 0 0 1-1 0z"/><path d="M634 144a3 3 0 0 0 0-2 1 1 0 0 0-2 0l-1 1 3 1v-5a14 14 0 0 0 0-5l-3 1a38 38 0 0 1 2 5l1 1v1a1 1 0 0 1 1-1 2 2 0 0 0-2 0 2 2 0 0 0-1 3 3 3 0 0 0 4 0 2 2 0 0 0 1-2 5 5 0 0 0 0-2 60 60 0 0 0-3-6 1 1 0 0 0-3 1 13 13 0 0 1 0 4v5a1 1 0 0 0 1 1 1 1 0 0 0 1 0l1-1a2 2 0 0 0 0-1 2 2 0 0 1 0-1h-2a1 1 0 0 1 0 1c0 1 1 2 2 1zm8-2a2 2 0 0 0 2-1v-2a14 14 0 0 0 0-2h-3v2l1 2a2 2 0 0 0 1 1 2 2 0 0 0 1 0 2 2 0 0 0 1-2v-2l-1-2a2 2 0 0 0-3 1 20 20 0 0 1 0 3v-1a5 5 0 0 0 0 2 1 1 0 0 0 1 1zm7-3 1-2v-3a33 33 0 0 0 0-5l-2 1a12 12 0 0 1 1 4 16 16 0 0 0 1 3v1a4 4 0 0 1 0 1l3-1a3 3 0 0 0-1-1 2 2 0 0 0-1 0h-1l1 1v1h-1c1 0 3 0 3-2a1 1 0 0 0-1-1 3 3 0 0 0-2 0l-2 2a2 2 0 0 0 2 2h1c-1 0 0 0 0 0a1 1 0 0 0 2-1 9 9 0 0 0-1-3 16 16 0 0 1 0-2 13 13 0 0 0-2-5 1 1 0 0 0-3 1 32 32 0 0 1 1 5v4a1 1 0 0 0 1 1zm9-3 1-1a15 15 0 0 0 0-2 10 10 0 0 0 0-2v-2 1a2 2 0 0 0 0-2 2 2 0 0 0-1-1 2 2 0 0 0-3 2 11 11 0 0 0 0 2 9 9 0 0 0 1 2 17 17 0 0 0 1 2 3 3 0 0 0 2 1 2 2 0 0 0 2 0 2 2 0 0 0 0-2 3 3 0 0 0 0-1 16 16 0 0 1-2-3l1 1-1-1a7 7 0 0 1 0-1l-3 2-1-1 1 3v2a1 1 0 0 0 1 1zm8-3a3 3 0 0 0 1 0 2 2 0 0 0 0-1v-2a2 2 0 0 0-1-2 1 1 0 0 0-1 0 1 1 0 0 0-1 0 2 2 0 0 0 0 1 2 2 0 0 0-1 1 9 9 0 0 0 0 2 5 5 0 0 0 1 0 2 2 0 0 0 0 1v1h1a1 1 0 0 0 1 0 1 1 0 0 0 1 0 2 2 0 0 0 0-1 2 2 0 0 0 1-1 3 3 0 0 0 0-1h-1a6 6 0 0 1 0-1v1-1a2 2 0 0 0 0-1v1h-3v2a2 2 0 0 0 1 1 1 1 0 0 0 2 0zm5-12a2 2 0 0 0-1 2l1 1v4-1 2a2 2 0 0 0 1 2 2 2 0 0 0 2 0 4 4 0 0 0 3-3 3 3 0 0 0-1-2v-1 1c0-1 0 0 0 0l-4 1 1 1a4 4 0 0 0 1 1 2 2 0 0 0 1 1 2 2 0 0 0 2-2 2 2 0 0 0-1-2v-1a2 2 0 0 0-3-1 2 2 0 0 0 0 1 2 2 0 0 0-1 1 3 3 0 0 0 1 2v1-1c0 1 0 0 0 0v-1s0 1 0 0a4 4 0 0 1-1 1l3 1v-3a14 14 0 0 0-1-4 2 2 0 0 0-1 0 2 2 0 0 0-1-1 2 2 0 0 0-1 0zm10 7 1-1a4 4 0 0 0 0-1 5 5 0 0 0 1-3v-4h-3a16 16 0 0 0 1 3c0 1 0 0 0 0v1a13 13 0 0 0 1 2 6 6 0 0 0 1 1 2 2 0 0 0 3 0 2 2 0 0 0 0-3h-1v-1 2h-1a1 1 0 0 1-1 0s1 1 0 0l1 1a2 2 0 0 0 3-1 4 4 0 0 0-1-2 3 3 0 0 0-3-1 2 2 0 0 0-1 2 8 8 0 0 0 1 1v1-1h1v-1l1 1s1 0 0 0v-1l-1-1v-2l-1-1c0-1 0-1 0 0a2 2 0 0 0-1-2 2 2 0 0 0-2 1 20 20 0 0 0 0 3 18 18 0 0 0 0 2 9 9 0 0 1 0 1 5 5 0 0 1-1 0v1c0-1 0-1 0 0a6 6 0 0 1 0 1 1 1 0 0 0 1 2z"/><path d="M683 121a3 3 0 0 0-2 1 10 10 0 0 0 0 1 10 10 0 0 0-1 2 2 2 0 0 0 0 2 2 2 0 0 0 1 1 2 2 0 0 0 3-1 5 5 0 0 0 1-3 17 17 0 0 0 0-1v-1a2 2 0 0 0-1-2 2 2 0 0 0-2 0 2 2 0 0 0-1 2v1l-1 2v-1a4 4 0 0 1 1 1v-1a2 2 0 0 1 0 1v-1l3 2v-1 1-3 1a7 7 0 0 0 0-1 3 3 0 0 0 0-1 2 2 0 0 0 0-1 1 1 0 0 0-2 0z"/><path d="M682 122a2 2 0 0 0-1 1v1l-1 1h1l-1 1a2 2 0 0 0 0 1 2 2 0 0 0 2 1 2 2 0 0 0 2-2 2 2 0 0 0-1-1l1 1v1a6 6 0 0 0 0-1 8 8 0 0 0 0-1 9 9 0 0 0 0-1 5 5 0 0 0 0-1 2 2 0 0 0 0-1 1 1 0 0 0-1-1 1 1 0 0 0-1 1zm9-3a4 4 0 0 0-1 2 5 5 0 0 0 0 2 3 3 0 0 0 0 1 2 2 0 0 0 1 0 2 2 0 0 0 1 1 2 2 0 0 0 1-1 14 14 0 0 0 1-4h-3l1 2v1a3 3 0 0 0 1 1 2 2 0 0 0 1 0 2 2 0 0 0 1 0 2 2 0 0 0 0-1 2 2 0 0 0 0-1 3 3 0 0 0 0-1l-1-1-1-1a2 2 0 0 0 0-1 2 2 0 0 0-1 0 2 2 0 0 0-2 2 20 20 0 0 1 0 3v-1 1l3-1v1a2 2 0 0 1 0-1v1a6 6 0 0 1 0-2 6 6 0 0 0 0-1 1 1 0 0 0-2 0z"/><path d="m700 122 1-5v1-1l-1 1a2 2 0 0 1 1 0l-4-2a5 5 0 0 0 1 2v3a4 4 0 0 0 2 3 2 2 0 0 0 3-2 4 4 0 0 0 0-2v1a24 24 0 0 1-1-3v-1l-1-1a3 3 0 0 0-1-2 2 2 0 0 0-2 1 2 2 0 0 0-1 0 2 2 0 0 0 0 2l1 1-1-1a19 19 0 0 0 1 3v-1a7 7 0 0 1 0 2 1 1 0 0 0 0 1 1 1 0 0 0 2 0zm-8-2h1-3a23 23 0 0 1-1 3 1 1 0 0 0 1 1 2 2 0 0 0 2 0 4 4 0 0 0 1-4 2 2 0 0 0-1-1 2 2 0 0 0-1 0 2 2 0 0 0-1 1 3 3 0 0 0 0 2 3 3 0 0 0 1 0 6 6 0 0 0 1 1 2 2 0 0 0 1 0 2 2 0 0 0 1 0 2 2 0 0 0 0-1v-1a1 1 0 0 1-1-1l1 1a4 4 0 0 1-1-1l-3 1a3 3 0 0 1 0 1v-1a3 3 0 0 1 0 1l2 2a25 25 0 0 0 1-4 2 2 0 0 0-1-1 2 2 0 0 0-1 0 2 2 0 0 0-1 0 2 2 0 0 0 0 1 2 2 0 0 0 0 1 2 2 0 0 0 0 1 2 2 0 0 0 3-1 2 2 0 0 0-1-1z"/><path d="M698 116a46 46 0 0 0 0 5 2 2 0 0 0 3 0 11 11 0 0 0 0-4h-3a11 11 0 0 0 0 2 5 5 0 0 0 1 1 10 10 0 0 0 0 1 2 2 0 0 0 2 1 2 2 0 0 0 1-1 2 2 0 1 0-3 0l3-1a4 4 0 0 0-1-1 3 3 0 0 1 0-1v1a6 6 0 0 1 0-2 2 2 0 0 0-1-1 2 2 0 0 0-1-1 2 2 0 0 0-1 2 15 15 0 0 1 0 3 7 7 0 0 1 0 1h3a46 46 0 0 1 0-5 2 2 0 0 0-1-1 2 2 0 0 0-1 0 2 2 0 0 0-1 1zm-5 3h-1a2 2 0 0 0-1 0 1 1 0 0 0-1 0 2 2 0 0 0 0 1 2 2 0 0 0 0 1 5 5 0 0 0 0 1 4 4 0 0 0 1 0 6 6 0 0 0 1 1 2 2 0 0 0 0 1 2 2 0 0 0 1 0 2 2 0 0 0 1-1 2 2 0 0 0 0-1 17 17 0 0 0-1-3 2 2 0 0 0-1 0 2 2 0 0 0-1 0 2 2 0 0 0-1 0 2 2 0 0 0 0 2l1 2a2 2 0 0 0 2 1 2 2 0 0 0 1-2l-1-2-3 1 1 1v-1 2l3-2a3 3 0 0 1-1 0 5 5 0 0 1 0-1v1h-2a2 2 0 0 0 1 1 2 2 0 0 0 1-1 2 2 0 0 0 0-1 2 2 0 0 0 0-1zm-11 4a19 19 0 0 0 3 3 2 2 0 0 0 1 1 2 2 0 0 0 1-2 2 2 0 0 0 0-1l-1-1v1a17 17 0 0 1-2-3 2 2 0 0 0-1-1 2 2 0 0 0-1 1 2 2 0 0 0-1 1 1 1 0 0 0 0 1z"/></g><g fill="#ba7019"><path d="M502 100a10 10 0 0 0-2 3v2l-2 7-1 12-2 13v6l1 7a3 3 0 0 0 4 0l1-7v-18l1-12v-7l1-3v-1a9 9 0 0 0 0-2 1 1 0 0 0-1 0zm-22 8-1 6a35 35 0 0 0-1 5 22 22 0 0 0 1 4 22 22 0 0 1 1 3 5 5 0 0 0 0 2h1a5 5 0 0 0 0-2 15 15 0 0 1 0-2l1-5v-10a1 1 0 0 0-2 0zm16 98-1 4a11 11 0 0 1-2 3 27 27 0 0 1-5 6 57 57 0 0 1-7 4l-8 4a4 4 0 1 0 4 7 84 84 0 0 0 8-6 60 60 0 0 0 7-6l5-8a13 13 0 0 0 1-4l-1-4a1 1 0 0 0-1 0zm-158-73a5 5 0 0 0-1 3l-1 3a41 41 0 0 0 0 6 53 53 0 0 0 1 6v2a5 5 0 0 0 1 3 2 2 0 0 0 4-1 5 5 0 0 0 0-3l-1-2a35 35 0 0 1-1-5 44 44 0 0 1 0-6l1-2a6 6 0 0 0 0-3 2 2 0 0 0-3-1zm2-58a19 19 0 0 0-2 5 43 43 0 0 0-1 6 32 32 0 0 0 0 12c1 3 6 2 5-1V87a46 46 0 0 1-1-6l1-5a1 1 0 0 0-2-1zm-59 5a4 4 0 0 0-1 2 19 19 0 0 0-1 2 45 45 0 0 0 0 6v5a13 13 0 0 0 1 6c1 2 4 1 4-1a14 14 0 0 0 0-3l-1-3a21 21 0 0 1-1-5 46 46 0 0 1-1-5v-2a5 5 0 0 0 0-2zm25 34-2 4a19 19 0 0 1 0 2 7 7 0 0 0-1 3 30 30 0 0 0 0 9 2 2 0 0 0 2 2 2 2 0 0 0 2-2v-9a8 8 0 0 0 0-2 8 8 0 0 1-1-2 21 21 0 0 1 0-2l1-3a1 1 0 0 0-1 0zm-11 56a4 4 0 0 0 0 2l-1 2a28 28 0 0 0 0 6 49 49 0 0 0 1 5 24 24 0 0 0 1 3 12 12 0 0 0 1 3 2 2 0 1 0 4-3 2 2 0 0 0-3-1l3 3a29 29 0 0 0-1-6 44 44 0 0 1-2-5l-1-4v-3a5 5 0 0 0-1-2 1 1 0 0 0-1 0zm-40-36a5 5 0 0 1-1 0 3 3 0 0 0-1 1 7 7 0 0 0-2 2 14 14 0 0 0-1 5 21 21 0 0 0 1 6 24 24 0 0 0 1 3 9 9 0 0 0 2 3 2 2 0 0 0 2-2 15 15 0 0 0-1-2 24 24 0 0 1 0-3 30 30 0 0 1-1-5 12 12 0 0 1 0-4 11 11 0 0 1 1-2v-2zm0-77a13 13 0 0 1 3 0 7 7 0 0 0 2 0l5-1 10-2a395 395 0 0 0 18-4l38-9a663 663 0 0 1 75-14 389 389 0 0 1 42-3 4 4 0 1 0 0-9 530 530 0 0 0-76 10 893 893 0 0 0-38 8l-38 9a376 376 0 0 0-31 9l-5 2a7 7 0 0 0-2 1 14 14 0 0 1-3 2 1 1 0 0 0 0 1z"/><path d="M449 18v-1a3 3 0 0 0 1 2 5 5 0 0 0 1 0 5 5 0 0 0 1 1 16 16 0 0 0 4 0 6 6 0 0 0 1 0 10 10 0 0 0 1 0l1-1a5 5 0 0 0 2-1 4 4 0 0 0 0-1 1 1 0 0 0 0-1l-1-1a4 4 0 0 0-1 0 14 14 0 0 0-2-1 8 8 0 0 0-1 0h-1a12 12 0 0 1-2 0h1l-4 1 1-1a3 3 0 0 0-2 4zM35 102a3 3 0 0 0 0 2 4 4 0 0 0 2 1 28 28 0 0 0 3 1l6 2a92 92 0 0 0 14 2 115 115 0 0 0 26 0 57 57 0 0 0 15-4v-1l-13 1a118 118 0 0 1-13 0 147 147 0 0 1-27-3l-7-2c-2-1-5-2-6 0zm11 46 6 1 7-1a111 111 0 0 0 13-2 97 97 0 0 0 12-3 82 82 0 0 0 12-6l-13 3-12 3-12 1-7 1-6 1a1 1 0 0 0 0 2zm-10 31 5-1 7-1 12-4 13-4 12-4v-1l-12 3-12 3-12 4-6 1-3 1-2 1c-2-1-3 1-1 2zm-16 42a207 207 0 0 0 25-8l25-10a49 49 0 0 0 6-4 58 58 0 0 0 6-4 1 1 0 0 0-1-2l-6 3-6 2-12 5-24 10-14 4a2 2 0 0 0 1 4zM9 52l25 6 12 3 13 3v-1l-12-4a378 378 0 0 0-37-9c-2-1-3 2-1 2zm217 37c-3 2-4 7-4 11a31 31 0 0 0 4 14v-1l-1-12a24 24 0 0 1 2-11c1-1 0-2-1-1zm-6 55a9 9 0 0 0-1 1 6 6 0 0 0-2 3 19 19 0 0 0 0 5 14 14 0 0 0 3 9h1a52 52 0 0 1-1-9 26 26 0 0 1 1-5 9 9 0 0 0 0-2v-2h-1zm-21-29a5 5 0 0 0-4 3 16 16 0 0 0-2 7 22 22 0 0 0 5 14 33 33 0 0 1 0-4l-1-3v-6a29 29 0 0 1 0-6 9 9 0 0 1 2-4v-1zm430 16-1 1a3 3 0 0 0-1 1l-1 2-2 6c-2 3-3 6-2 9h1a15 15 0 0 1 2-4 47 47 0 0 0 2-5l1-4 1-3a4 4 0 0 0 1-1l-1-1z"/><path d="M628 137a2 2 0 0 0-1 1 5 5 0 0 0 0 1l-1 2a11 11 0 0 0-1 2 4 4 0 0 0 0 2h1a4 4 0 0 0 1-1 10 10 0 0 0 1-2 20 20 0 0 0 1-2 3 3 0 0 0 0-3v1-1h-1zm6-5v-1a1 1 0 0 0 0 1v1a8 8 0 0 0 0 1 2 2 0 0 0 1 1l1 2h1a8 8 0 0 0 0 1 2 2 0 0 0 3 0 2 2 0 0 0 0-2v-1a12 12 0 0 0-1-1l-1-1a4 4 0 0 0-1-1 6 6 0 0 0-1 0l-1-1h-1v1zm13-5a4 4 0 0 0-1 0l-2 1a5 5 0 0 0-1 2 6 6 0 0 0 0 4 2 2 0 0 0 2 1 2 2 0 0 0 1-2v-4a2 2 0 0 0 0-2v1a3 3 0 0 1 1-1zm7-2a1 1 0 0 0 0 1v-1a2 2 0 0 0 0 1l-1 1a5 5 0 0 0 0 1 7 7 0 0 0 0 1 3 3 0 0 0 0 2 1 1 0 0 0 1 0 1 1 0 0 0 1 0 2 2 0 0 0 0-1 4 4 0 0 0 0-1v-1a10 10 0 0 0 0-1v-1a1 1 0 0 0 0-1v1-1h-1zm6 0a1 1 0 0 0-1 1 6 6 0 0 0 0 1 4 4 0 0 0 1 2 7 7 0 0 0 1 2 2 2 0 0 0 2 1h-1 2a1 1 0 0 0 0-2v1a1 1 0 0 0 0-1l-1-1v-1c-1 0 0 0 0 0l-1-1a5 5 0 0 0 0-1 1 1 0 0 0-1-1 1 1 0 0 0-1 0zm7-2v1-1a1 1 0 0 0 0 1 7 7 0 0 0 0 1 7 7 0 0 0 1 1c0 1 0 3 2 3h-1a1 1 0 0 0 1-1 2 2 0 0 0 0-1v-1a5 5 0 0 0-1-2 4 4 0 0 0 0-1 1 1 0 0 0-1 0 1 1 0 0 0-1 0zm11-4-1 1a3 3 0 0 0 0 1 5 5 0 0 0 0 3 3 3 0 0 0 1 1 1 1 0 0 0 2-1 2 2 0 0 0 0-1 1 1 0 0 1-1 0v-2a3 3 0 0 1 0-1 1 1 0 0 0-1 0 1 1 0 0 0 0-1v1-1z"/></g><path d="M126 92a208 208 0 0 0 49-5 481 481 0 0 0 49-13c20-7 39-13 59-18l62-15c41-10 84-18 126-15a364 364 0 0 1 118 31 221 221 0 0 1 94 71c2 3 7 0 5-3-20-30-50-51-82-67a392 392 0 0 0-115-36c-43-6-85-1-127 8l-63 15-63 18c-33 10-66 21-101 23h-11c-4 0-4 6 0 6zm-13 49c18 0 34 8 50 16l23 14 26 14a848 848 0 0 0 84 35 213 213 0 0 0 30 6c20 3 41 5 62 6l8 1a3 3 0 0 0 0-6c-21-2-42-3-62-6a228 228 0 0 1-30-6 273 273 0 0 1-29-9 863 863 0 0 1-55-24 392 392 0 0 1-27-14l-23-14c-16-9-32-17-50-19l-7-1c-4 0-4 7 0 7z"/><path d="m472 236 43 1a212 212 0 0 0 42-5 371 371 0 0 0 40-12l37-14c23-10 45-23 60-43a91 91 0 0 0 16-31c1-3 2-6-1-9s-5-3-9-2a104 104 0 0 0-18 5l-36 14a128 128 0 0 1-18 5l-20 4a86 86 0 0 0-10 3 3 3 0 0 0-2 3 3 3 0 0 0 3 3c13-5 26-5 39-9 12-3 23-8 35-13a198 198 0 0 1 27-9 17 17 0 0 1 3 0 3 3 0 0 1 1 0s1 0 0 0h1a4 4 0 0 1 0 2l-2 5a72 72 0 0 1-3 7 90 90 0 0 1-8 14c-14 20-34 33-55 43a386 386 0 0 1-35 14 441 441 0 0 1-39 12 214 214 0 0 1-39 6h-52c-4 0-4 6 0 6zm1-216a185 185 0 0 0-45-17 101 101 0 0 0-24-3c-9 0-17 2-26 3a334 334 0 0 0-47 12 347 347 0 0 0-44 18 362 362 0 0 0-41 23l-4 4a3 3 0 0 0-2 4 3 3 0 0 0 5 1 366 366 0 0 1 39-24 339 339 0 0 1 43-18 314 314 0 0 1 45-12l25-4a90 90 0 0 1 23 1c16 2 31 8 45 15l5 2a3 3 0 0 0 4-1 3 3 0 0 0-1-4zm-73 140a31 31 0 0 0-1 6l-2 6-2 12a179 179 0 0 0-3 23c-1 15 0 30 5 44a100 100 0 0 0 10 22 4 4 0 0 0 5 1 4 4 0 0 0 1-5 100 100 0 0 1-13-38 155 155 0 0 1-1-10 149 149 0 0 1 0-11 230 230 0 0 1 1-23l1-13 1-6a43 43 0 0 0 1-7c0-1-2-2-3-1z"/><path d="m411 275 7-1a64 64 0 0 0 6-3 92 92 0 0 0 21-14l10-8 20-19 10-9a85 85 0 0 0 9-10c3-4 4-9 3-13-1-2-3-5-5-5a6 6 0 0 0-4-1 9 9 0 0 0-2 2 1 1 0 0 0 0 1l1 1c0-1 0 0 0 0a5 5 0 0 0 1 1s0 1 0 0l1 1v1a10 10 0 0 1 1 1 4 4 0 0 1 0 1c0-1 0-1 0 0v1a6 6 0 0 1 0 2 15 15 0 0 1-2 5l-8 9-10 9a204 204 0 0 1-37 30l-12 6-3 1c0 1 1 0 0 0l-1 1h-1v1l-3 1a14 14 0 0 0-4 1 4 4 0 0 0-1 4 4 4 0 0 0 3 3zm69-172a13 13 0 0 0-4 6 47 47 0 0 0-1 9 27 27 0 0 0 1 8 23 23 0 0 0 1 4 29 29 0 0 0 2 4h1v-16a40 40 0 0 1 1-8 23 23 0 0 0 0-7 1 1 0 0 0-1-1zm21-7a30 30 0 0 0-3 4 42 42 0 0 0-2 6 66 66 0 0 0-3 10 86 86 0 0 0 0 23c0 4 1 8 3 11a1 1 0 0 0 1 0 25 25 0 0 0 0-6v-7a84 84 0 0 1 0-14 99 99 0 0 1 2-13l2-7a18 18 0 0 0 1-3 26 26 0 0 1 1-4 1 1 0 0 0-2 0zM341 74a16 16 0 0 0-3 2 15 15 0 0 0-2 4 23 23 0 0 0-2 7c0 5 1 11 5 14h1a36 36 0 0 1-2-14 25 25 0 0 1 1-6l2-4a29 29 0 0 1 1-3h-1zm-4 58a14 14 0 0 0-3 6 19 19 0 0 0-1 7c1 5 3 10 7 13l1-1a45 45 0 0 1-3-12 30 30 0 0 1 0-6 39 39 0 0 1 1-6 1 1 0 0 0-2-1zm-31-20c-4 1-6 6-6 10 1 5 2 9 5 14a1 1 0 0 0 0-1v-13c0-3 0-6 2-9l-1-1zm-12 56a17 17 0 0 0-3 6 20 20 0 0 0 0 7c1 4 4 8 8 10v-1l-4-10a22 22 0 0 1 0-6 24 24 0 0 1 0-6 1 1 0 0 0-1 0zm-41-37a4 4 0 0 0-1 1 8 8 0 0 0-1 1 14 14 0 0 0-2 4 23 23 0 0 0-1 7c0 5 2 10 7 13l1-1-2-6a28 28 0 0 1-2-6 21 21 0 0 1 1-6 66 66 0 0 1 1-4v-1a8 8 0 0 0 0-2 1 1 0 0 0-1 0zm27-55a26 26 0 0 0-2 3 12 12 0 0 0-2 3 21 21 0 0 0-1 8c0 5 2 9 7 12a33 33 0 0 1-3-13 21 21 0 0 1 1-6v-3a16 16 0 0 1 1-3 1 1 0 0 0-1-1zm-132 9L96 65a988 988 0 0 1-50-24 61 61 0 0 0-26-9c-8 0-20 4-20 14 0 4 2 8 4 12a352 352 0 0 0 14 24 92 92 0 0 1 17 36 237 237 0 0 1 5 26c1 8 1 16-2 24a65 65 0 0 1-5 9l-6 9c-8 12-17 26-10 40a15 15 0 0 0 7 7c4 2 9 2 13 0l13-4a92 92 0 0 0 13-6l12-7 11-7a131 131 0 0 0 18-16c11-12 20-25 29-37l8-9a3 3 0 0 0 0-5 3 3 0 0 0-5 0l-28 37a157 157 0 0 1-16 16 147 147 0 0 1-19 15c-7 4-15 9-23 12l-13 5a28 28 0 0 1-6 1 11 11 0 0 1-2 0 10 10 0 0 1-2 0h-1a14 14 0 0 1 0-1h-1c0-1 0 0 0 0l-1-1v-1a13 13 0 0 1-1-1l-1-1v-1a18 18 0 0 1-1-8c1-7 4-13 8-19l11-17a50 50 0 0 0 7-22l-3-27-7-25a84 84 0 0 0-5-12 121 121 0 0 0-7-11 267 267 0 0 1-14-23c-1-3-4-7-4-11-1-3 1-6 4-7 8-3 17-1 24 2l11 6 13 6 24 12 51 21 12 4a3 3 0 0 0 4-2 3 3 0 0 0-2-4z"/><path d="M19 74c1 2 4 3 6 4l6 3a141 141 0 0 0 14 4 147 147 0 0 0 29 6 74 74 0 0 0 8 1 72 72 0 0 0 8-1l1-1-15-2c-5 0-9-2-14-3a166 166 0 0 1-28-8l-7-3c-2 0-5-2-7-1a1 1 0 0 0-1 1zm22 44a5 5 0 0 0 2 3 10 10 0 0 0 4 1l11 2c7 1 14 2 21 1v-1l-19-4-10-1-4-1-3-1a1 1 0 0 0-2 1zm8 44-1 1c0 2 2 1 4 1a92 92 0 0 0 11-2 112 112 0 0 0 12-3 40 40 0 0 0 11-5 1 1 0 0 0 0-1 74 74 0 0 0-10 2l-9 3-9 2-5 1h-2l-1 1h-1zm-20 32 6 1a42 42 0 0 0 8-2l15-5a288 288 0 0 0 45-18c1 0 0 0 0 0l-15 4-14 5-29 10-9 2a25 25 0 0 1-4 1h-3a1 1 0 0 0 0 2zm618-51c2-8 2-15 2-23l-3 1 8 20a2 2 0 0 0 3-1c-4-7-6-13-8-20a2 2 0 0 0-3 0 121 121 0 0 1-2 22c0 2 3 3 3 1z"/><path d="M657 138a113 113 0 0 1 0-13h-3l8 13c1 2 4 0 3-1l-9-13a2 2 0 0 0-2 1 113 113 0 0 0 0 13 2 2 0 0 0 2 2 2 2 0 0 0 1-2Z"/><path d="M665 134a37 37 0 0 0 0-10l-3 1a47 47 0 0 1 4 7 2 2 0 0 0 2 0 2 2 0 0 0 1-2 49 49 0 0 0-4-6 2 2 0 0 0-3 0 32 32 0 0 1 0 9 2 2 0 0 0 3 1Z"/><path d="m672 131-1-8-1-8h-2a100 100 0 0 0 9 14 2 2 0 0 0 2 0 2 2 0 0 0 0-2 95 95 0 0 1-9-13c0-1-3-1-3 1l1 8 1 4a9 9 0 0 1 0 3c-1 2 2 3 3 1z"/><path d="M680 129a41 41 0 0 0 2-14l-3 1a90 90 0 0 0 9 11c1 1 3-1 2-2a83 83 0 0 1-8-10 2 2 0 0 0-2-1 2 2 0 0 0-1 1 39 39 0 0 1-2 13 2 2 0 0 0 3 1Z"/><path d="M690 125a29 29 0 0 0 2-11l-3 1a22 22 0 0 0 6 8 2 2 0 0 0 2 0 2 2 0 0 0 0-2 20 20 0 0 1-6-8 2 2 0 0 0-1 0 2 2 0 0 0-1 1l-2 10a2 2 0 0 0 1 2 2 2 0 0 0 2-1Z"/><path d="m698 123 1-8a60 60 0 0 1 0-9h-3l2 9 4 9a2 2 0 0 0 3-2l-4-8-2-8a2 2 0 0 0-1-2 2 2 0 0 0-2 2 60 60 0 0 0 0 9l-1 7c-1 1 1 3 2 1zm-51 17-5-11a2 2 0 0 0-3 1 42 42 0 0 1 0 8c-1 3-2 6-1 9a2 2 0 0 0 1 2 2 2 0 0 0 2-2l1-8a44 44 0 0 0 0-9l-3 1 6 11a2 2 0 0 0 2 0 2 2 0 0 0 0-2z"/><path d="m640 143-8-16a2 2 0 0 0-3 1 108 108 0 0 1-1 15l1 5c1 1 4-1 2-3v1-2l1-2v-5a106 106 0 0 0 0-9l-3 1 9 15c1 2 3 1 2-1zm-16-56c-2 1-3 5 0 6a3 3 0 0 0 3-1 4 4 0 0 0 0-3 4 4 0 0 0-2-3 2 2 0 0 0-3 1 6 6 0 0 0 1 6 2 2 0 0 0 4 1 5 5 0 0 0 1-3 10 10 0 0 0 0-6 4 4 0 0 0-2-2 3 3 0 0 0-3 0c-2 1-3 4-3 6a9 9 0 0 0 3 6 4 4 0 0 0 4 1 4 4 0 0 0 2-3 13 13 0 0 0-1-7 8 8 0 0 0-2-3 3 3 0 0 0-3-1c-3 1-3 4-3 7a8 8 0 0 0 3 6 4 4 0 0 0 3 1 4 4 0 0 0 3-3 9 9 0 0 0 0-4 23 23 0 0 0-1-4c-1-2-3-4-5-4-3 1-3 3-3 6a16 16 0 0 0 1 7 8 8 0 0 0 2 3 3 3 0 0 0 3 0 2 2 0 0 0 0-3 2 2 0 0 0-2 0 2 2 0 0 0 0 2 1 1 0 0 1 0-1h1v-1a9 9 0 0 1-1-1 14 14 0 0 1-1-5 12 12 0 0 1 0-2 5 5 0 0 1 0-1 1 1 0 0 1 0-1 1 1 0 0 1 1 0 1 1 0 0 1 1 1l1 4a10 10 0 0 1 0 2 3 3 0 0 1-1 2v-1a3 3 0 0 1-1-1 7 7 0 0 1-1-3l1-3a2 2 0 0 1 1 1 10 10 0 0 1 0 2 10 10 0 0 1 1 4l-1 1s1 0 0 0a6 6 0 0 1-1-7 2 2 0 0 1 0-1h1a6 6 0 0 1 1 3 5 5 0 0 1 0 2 2 2 0 0 1-1 1h1a4 4 0 0 1-1 0 3 3 0 0 1 0-1 3 3 0 0 1 0-2h-1v1l1 1s-1 0 0 0c0 0 0 1 0 0a2 2 0 0 1 1-1c1-2-1-4-2-2z"/><g fill="#f2f2f2"><path d="M606 58c-2 0-3 3-1 4l1-3a6 6 0 0 0-3 0 10 10 0 0 0-2 2 18 18 0 0 0-3 5 6 6 0 0 0 0 2l-1 1a15 15 0 0 0 1 3 25 25 0 0 0 1 7c2 4 6 8 11 7 4-1 6-5 7-9a28 28 0 0 0-1-12c-2-4-4-8-8-9s-10 1-12 4a19 19 0 0 0-4 12 21 21 0 0 0 4 13 10 10 0 0 0 13 2c8-4 10-16 4-23-3-4-8-6-12-3-3 2-4 4-5 7a27 27 0 0 0-1 5 33 33 0 0 0 0 14 8 8 0 0 0 12 6c4-2 6-7 7-11a23 23 0 0 0-2-12c-2-4-5-9-10-9s-8 6-9 10a38 38 0 0 0-2 12 42 42 0 0 0 1 7c0 3 1 5 3 7a8 8 0 0 0 8 0 13 13 0 0 0 5-6 35 35 0 0 0 4-13c1-8-4-16-12-19a11 11 0 0 0-13 4 30 30 0 0 0-4 11 67 67 0 0 0-1 13 80 80 0 0 0 1 13c1 4 4 8 9 8s9-4 11-8c5-7 5-16 3-24a35 35 0 0 0-6-12 10 10 0 0 0-6-3 9 9 0 0 0-8 2 27 27 0 0 0-6 24 38 38 0 0 0 4 12 11 11 0 0 0 5 5 8 8 0 0 0 8-1 9 9 0 0 0 4-6 6 6 0 0 0-1-5 16 16 0 0 0-1-2 2 2 0 0 0-4 0l-3 4c0 1 0 0 0 0 0 1 0 1 0 0 0 1-1 1 0 0-1 1 1 0 0 0a2 2 0 0 1 1 1c1 0 1 0 0 0a64 64 0 0 1-2-4v-2a31 31 0 0 1-1-2v-2l-1-1s0-1 0 0a28 28 0 0 1 0-4v-2l1-2v-2h1a17 17 0 0 1 1-2v-1h1v-1c1-1 0 0 0 0h-1c-1 0-1 0 0 0-1 0 0 0 0 0 1 0-1-1 0 0l1 1a35 35 0 0 1 2 4v1h1v2a34 34 0 0 1 1 5c1 1 0-1 0 0v1a16 16 0 0 1 0 2 6 6 0 0 1 0 2c1-1 0 0 0 0v3l-1 1a28 28 0 0 1-2 4c0 1 1-1 0 0l-1 1s-1 1 0 0l-1 1c-1 0 0 0 0 0a2 2 0 0 1 1 0c-1 0 1 1 0 0 0 1 0 1 0 0v-1c0-1 0 0 0 0v-2l-1-5a80 80 0 0 1 0-9v-2l1-1c-1 1 0 0 0 0a47 47 0 0 1 1-5 16 16 0 0 1 1-4l1-1c-1 0-1 0 0 0-1 0 1 0 0 0 1 0 1 0 0 0h1c1 0 1 0 0 0a5 5 0 0 1 2 1l1 1c1 1 0 0 0 0a5 5 0 0 1 1 2l1 1a14 14 0 0 1 0 1 3 3 0 0 1 0 1v4c0-1 0-1 0 0a37 37 0 0 1-1 4 28 28 0 0 1-1 1l-1 3-1 1c0 1 1 0 0 0 1 0 1 0 0 0a3 3 0 0 1 4 1c0 1 0 1 0 0l-1-1v-1c0-1 0 1 0 0v-2a35 35 0 0 1 0-5v-1c0-1 0 1 0 0l1-2a34 34 0 0 1 1-4v-2h1v-1 1c0-1 0-1 0 0h-1a3 3 0 0 1-2 0v-1c0 1 0 1 0 0a18 18 0 0 1 2 3c0 1 0 1 0 0v1a18 18 0 0 1 1 3v3a8 8 0 0 1 0 2 4 4 0 0 1-1 1c1-1 0 0 0 0v1c-1 1 0 0 0 0s-1 1 0 0c-1 0 0 0 0 0-1 0 1 0 0 0h1c-1 0-1 0 0 0a3 3 0 0 1 1 1c-1-1 0 1 0 0l-1-2v-1c0 1 0 0 0 0v-6c0-1 0 1 0 0a44 44 0 0 1 1-4l1-1v-2 1h-1 1-1c1 0 1 0 0 0 0 0 2 0 0 0 1 0 0-1 0 0h1s-1 0 0 0v1s0-1 0 0v1a3 3 0 0 1 1 1c0-1 0-1 0 0v1c0 1 0 1 0 0l-1 2a3 3 0 0 1 0 1v-1a5 5 0 0 1 0 1l-1 1c0 1 1-1 0 0v1h-1c2 0-1 0 0 0l-1-1a15 15 0 0 1-1-2v-2h-1a10 10 0 0 1 0-2v-1a6 6 0 0 1 1-2v-1c0-1 0 1 0 0l1-1s0-1 0 0l1-1s-1 0 0 0v-1h1-1 1l1 1-1-1v1-1l1 1c1 1-1-1 0 0v1l1 1v1l1 2v1c0-1 0 0 0 0a20 20 0 0 1 0 3 3 3 0 0 1 0 1v1l-1 1s1-1 0 0c1-1 0 0 0 0l1-1s1 1 0 0c1 1 0 1 0 0 0 0 1 1 0 0 0 1 0 0 0 0l-1-1v-1l-1-1a19 19 0 0 1-1-3 22 22 0 0 1 0-4v-1a5 5 0 0 1 0-1 7 7 0 0 1 1-1l1-2c1-1 0-4-2-3 1 0 2 0 1 1v-2z"/><path d="M584 90q0 1 0 0a14 14 0 0 0 0-2 28 28 0 0 0-1-3v-4c0-2-1-4-3-5a4 4 0 0 0-5 3v10a56 56 0 0 0 3 7c1 5 4 9 9 11a4 4 0 1 0 3-8h-1v-1c-1 0 0 0 0 0a5 5 0 0 0-1-1s0 1 0 0v-1c0 1 0 0 0 0l-5 4 14 5c4 1 9 1 13-2a15 15 0 0 0 4-5v-1a5 5 0 0 1 1 0c-1 0-1 0 0 0l2-1a9 9 0 0 0 4-4 8 8 0 0 0 1-4v-1c0-1 0-1 0 0q0-1 0 0a3 3 0 0 1-3 1l-4-4a53 53 0 0 0 1 7 5 5 0 0 0 2 4 5 5 0 0 0 5 0c2-2 2-4 1-6l1 1v1a5 5 0 0 0-1-2v1-3l-1-4a4 4 0 0 0-4-3 6 6 0 0 0-6 5 9 9 0 0 0 0 2v1c0 1 0 1 0 0h1l-5 3-4 5s0 1 0 0v1h-1c1 0 1 0 0 0h-2s-1 0 0 0a24 24 0 0 1-3-1l-14-4a4 4 0 0 0-5 4 11 11 0 0 0 7 11l2-8v-1h-1l-1-1s1 1 0 0a22 22 0 0 1-1-2v-1l-1-1-2-6a30 30 0 0 1-1-7l-7 1v3a24 24 0 0 0 1 4 10 10 0 0 0 4 5c2 2 5-1 4-3z"/><path d="M583 95c0-1 0 0 0 0v1-1a5 5 0 0 0-1-2c0 1 0 0 0 0v-2l-1-9a57 57 0 0 1 0-8l1-1s0-1 0 0v-2a40 40 0 0 1 1-5l1-1v-1c0 1 0 0 0 0a35 35 0 0 1 2-4l1-2v1a5 5 0 0 1 1-1 29 29 0 0 1 2-3 8 8 0 0 0 1-1c0 1 0 0 0 0h1a28 28 0 0 1 3-2l1-1c1 0-1 1 0 0h2l1-1h6c1 0-1 0 0 0h1l2 1c1 0 0 0 0 0a11 11 0 0 0 2 1l2 1s-1-1 0 0v1l2 1 1 1c1 1-1-1 0 0l1 1a29 29 0 0 1 2 4l1 3a40 40 0 0 1 1 4v4a83 83 0 0 1 0 9v4c0 1 0 2 0 0v2l-1 2v2l-1 1-1 2a7 7 0 0 1-1 1 20 20 0 0 1-1 1l-1 1a42 42 0 0 1-4 2l-4 2-2 1-1 1c1-1 0 0 0 0h-1 1l-2-1a16 16 0 0 0-6-2h-3a5 5 0 0 0-1 0c-1 0 1 0 0 0 0 0-1-1 0 0 0-1 0 0 0 0v1a4 4 0 0 1 0-1l-9 3a14 14 0 0 0 7 8 20 20 0 0 0 13 1 19 19 0 0 0 10-5 13 13 0 0 0 3-5 8 8 0 0 0-2-7c-2-3-6-1-7 1v1a7 7 0 0 0-1 2s1 0 0 0v1-1a6 6 0 0 0 0 1c0 1 1 0 0 0v1c-1 0-1 0 0 0a14 14 0 0 1-1 0l-2 1c1 0 1 0 0 0h-1a26 26 0 0 1-2 1h-1s1 0 0 0h-2a10 10 0 0 1-1 0c1 0 1 0 0 0h-1c-1-1 0 0 0 0l-1-1c-1 0 0 1 0 0l-1-1s-1-1 0 0l-1-1a5 5 0 0 0-6-4c-3 1-4 4-3 6 0 4 4 7 8 8a39 39 0 0 0 5 0 6 6 0 0 1 1 0c-1 0 0 0 0 0 1 1 0 0 0 0l2 1a10 10 0 0 0 7 1 24 24 0 0 0 5-2 57 57 0 0 0 8-4c6-4 10-9 12-16a64 64 0 0 0 0-21c-1-7-3-14-8-19a24 24 0 0 0-15-10 31 31 0 0 0-30 16 45 45 0 0 0-6 22 66 66 0 0 0 1 11 16 16 0 0 0 2 6h1v1a9 9 0 0 0 2 2 4 4 0 0 0 4 1 6 6 0 0 0 2-1 2 2 0 0 0 0-3z"/><path d="M606 69a37 37 0 0 0-4-6l-3-3a10 10 0 0 0-2-3 6 6 0 0 0-4-1l-3 3a34 34 0 0 0-4 7c-2 4-5 10-1 14 3 3 7 2 9-1l3-7a50 50 0 0 0 2-8 40 40 0 0 0 1-8c0-3-2-7-5-8-4 0-7 2-9 5a28 28 0 0 0-8 13 16 16 0 0 0 0 8 8 8 0 0 0 8 5c4 0 7-2 9-5l6-7a29 29 0 0 0 5-8c1-3 1-6-1-9-2-2-3-3-5-2a5 5 0 0 0-4 3 29 29 0 0 0-1 16c1 4 3 9 8 11a14 14 0 0 0 13-1 16 16 0 0 0 7-13 19 19 0 0 0-6-13c-3-4-10-8-15-3l-3 7a54 54 0 0 0-2 7c-1 4-1 10 1 14s5 8 10 10a13 13 0 0 0 13-2c4-4 4-9 3-14s-2-10-6-13a7 7 0 0 0-10 0 19 19 0 0 0-4 6 24 24 0 0 0-1 12 25 25 0 0 0 4 11c2 4 6 8 11 8a7 7 0 0 0 7-5v-8c0-5-1-11-4-15a9 9 0 0 0-8-4l-7 5a41 41 0 0 0-5 14c-1 5-2 10 0 15s6 9 12 8c6 0 8-5 9-11a27 27 0 0 0-1-6l-1-7a64 64 0 0 0-1-7 27 27 0 0 0-3-6 9 9 0 0 0-9-4 16 16 0 0 0-7 3c-7 6-9 15-10 23 0 5 0 11 4 14a10 10 0 0 0 14 0c4-3 5-8 6-13a29 29 0 0 0-2-15 11 11 0 0 0-6-5c-3-2-6-1-9 0a21 21 0 0 0-9 9c-4 7-5 19 2 25a8 8 0 0 0 9 0c2-1 4-4 4-7 2-5 1-11-1-15a20 20 0 0 0-3-7 9 9 0 0 0-8-4 15 15 0 0 0-12 9 10 10 0 0 0-1 4 9 9 0 0 0 1 4c1 1 3 4 5 3l-3-1c2 3 6 0 4-2v2a3 3 0 0 0 1-1v-1s1-2 0 0a10 10 0 0 0 2-3v-1c0 1-1 1 0 0a3 3 0 0 1 0-1v1l1-1v-1c1 0-1 1 0 0h2l1-1h-1c1 1 0 0 0 0v1c0-1 0-1 0 0l1 1v-1 2a49 49 0 0 1 1 3l1 2c0 1 0 1 0 0v5l-1 1v1s-1 1 0 0a2 2 0 0 1 2-1h1c1 1 0 1 0 0v1a6 6 0 0 1-1-1l1 1a7 7 0 0 1-1-1 7 7 0 0 1 0-1v1-3 1a6 6 0 0 1 0-1 16 16 0 0 1 0-2 5 5 0 0 1 0-1 19 19 0 0 1 0-2l1-1c0-2-1 1 0 0v-2a16 16 0 0 1 1-1c0-1 0-1 0 0l1-2h1v-1 1l2-1 1-1c-1 1 0 0 0 0h1-1c1 0 0-1 0 0l1 1c0 1 0-1 0 0l1 2v2a26 26 0 0 1 0 3v3c0 1 0-1 0 0l-1 1a19 19 0 0 1 0 3q-1 1 0 0l-1 1v1c-1 1 1-1 0 0h-1c-1 1 0 0 0 0-1 0-1 0 0 0-1 0-1 0 0 0-1 0-1 0 0 0a4 4 0 0 1-1-1v1a8 8 0 0 1 0-1v-2a24 24 0 0 1 0-2v-3c0-1 0-1 0 0v-1l1-4a31 31 0 0 1 1-2v-2a4 4 0 0 0 1 0 29 29 0 0 1 1-3c1 0 1-1 0 0a5 5 0 0 1 1-1 23 23 0 0 1 2-2c1 0-1 1 0 0h1s1-1 0 0l1-1h-1c1 0 1 0 0 0 0 0-1-1 0 0-1-1-1 0 0 0v1a57 57 0 0 1 3 10v6l1 1c0 1 0 0 0 0a10 10 0 0 0 0 2v2-1 1a5 5 0 0 0-1 1c0-1 1-1 0 0v-1h1a6 6 0 0 1-1 1l1-1a5 5 0 0 1-1 0c-1 0 1 1 0 0a3 3 0 0 1-1 0h1a8 8 0 0 1-1-1s0-1 0 0v-1a8 8 0 0 1 0-1v-6c0-1 0 1 0 0v-2a38 38 0 0 1 1-5 31 31 0 0 1 1-1l1-3 1-2h1c0-1 0-1 0 0 0-1 1-1 0 0h-2c1 0-1-1 0 0 1 0 1 0 0 0a9 9 0 0 1 1 0v2l1 2a45 45 0 0 1 0 3v2l1 3v1c0 1-1 2 0 0 0 1 0 0 0 0a3 3 0 0 1 2-1c-1 0 1 0 0 0l-1-1 1 1-1-1a16 16 0 0 1-1-1l-1-1 1 1-1-1a19 19 0 0 1-1-2v-1c-1-1 0 1 0 0l-1-2a16 16 0 0 1 0-1 4 4 0 0 1-1-1v-1a19 19 0 0 1 0-1v-2l1-3c1-1 0 1 0 0l1-1 1-2c0-1-1 0 0 0a3 3 0 0 1-3 0c-1 0-1 0 0 0 0 1 0 1 0 0v1a11 11 0 0 1 1 1s0 1 0 0a24 24 0 0 1 1 3 28 28 0 0 1 0 2v1c1 1 0-1 0 0v3c0 1 1-1 0 0v1c0 1 1 0 0 0v1h-2c-1 0 1 0 0 0l-1-1v1l-1-1h-1s1 0 0 0v-1h-1a7 7 0 0 1-1-2v-3c-1-1 0 0 0 0a9 9 0 0 1-1-2 24 24 0 0 1 0-3 36 36 0 0 1 2-7l1-3s1-2 0 0h1a3 3 0 0 1-3 0s-1 0 0 0l1 1h1a6 6 0 0 1 0 1 10 10 0 0 1 2 2c0-1 0 0 0 0l1 1a6 6 0 0 1 0 1v1a8 8 0 0 1 1 2 4 4 0 0 1 0 1l-1 1v2c-1 1 0-1 0 0h-1v1-1l-1 1c-1 1 1 0 0 0h-1c-1 1 1 0 0 0h-1c-1 0 1 1 0 0h-1s1 1 0 0h-1 1l-1-1c-1-1 0 1 0 0l-1-1a12 12 0 0 1-1-2v-2a27 27 0 0 1 0-5v-2a29 29 0 0 1 1-2l-9 1c1 1 1 1 0 0 1 1 0 1 0 0v1c0 1 1-1 0 0v1a20 20 0 0 1-2 3l-1 1s-1 1 0 0l-2 2-4 5a16 16 0 0 1-2 2c1-1 0 0 0 0l1-1c-1 1-1 1 0 0a2 2 0 0 1 1 1s1 1 0 0l1 1a7 7 0 0 1 0-1v1-5s1-1 0 0l1-1a23 23 0 0 1 1-3l1-1c1-1-1 1 0 0l2-2 2-2-1 1a3 3 0 0 1-3-2h-1c1 1 0-1 0 0a6 6 0 0 0 0 1v8a52 52 0 0 1-1 5l-1 3-1 1v1-1a2 2 0 0 1 2 0l2 1v-2a42 42 0 0 1 1-3 48 48 0 0 1 2-5 15 15 0 0 1 1-3h1v-1 1a7 7 0 0 0 1 0 8 8 0 0 1 1 1l3 2 4 4h1z"/><path d="M604 77a2 2 0 0 0 1 2l4-1a14 14 0 0 0 1-1c1 0 0 0 0 0a1 1 0 0 1-1 0c0-1 0-1 0 0v3l-2 7-1 4-1 1-1 2a1 1 0 0 0 1 1 15 15 0 0 0 3-3 21 21 0 0 0 3-3 22 22 0 0 0 3-8c0-3 1-8-3-8a5 5 0 0 0-4 2l-1 1h-1a1 1 0 0 0-1 1z"/></g><path d="M619 88a8 8 0 0 0-1 5c0 2 1 4 3 4l4-4a8 8 0 0 0 0-5 3 3 0 0 0-4-2 6 6 0 0 0-3 3 15 15 0 0 0 2 11 3 3 0 0 0 4 0 19 19 0 0 0 2-12 6 6 0 0 0-2-4 5 5 0 0 0-7 1c-2 4-2 9 0 12 1 3 4 4 6 3s4-3 4-5a16 16 0 0 0-1-13 3 3 0 0 0-4-2 13 13 0 0 0-6 11 13 13 0 0 0 5 10c2 1 4 1 5-1a19 19 0 0 0 3-10 21 21 0 0 0-3-10 4 4 0 0 0-5-1 17 17 0 0 0-4 17 9 9 0 0 0 3 5 5 5 0 0 0 7-2 17 17 0 0 0 2-9 18 18 0 0 0-3-10c-1-2-3-3-5-1a14 14 0 0 0-6 10 23 23 0 0 0 1 7 23 23 0 0 0 2 6 4 4 0 0 0 6 2c1-1 2-4 1-6l-1-1c-1-1-3-2-5 0l7 2a44 44 0 0 0-2-5 9 9 0 0 1-1-2v-3c0-1 0 1 0 0v-1l1-1v-1c1 0 1 0 0 0h1v-1l-5-1a13 13 0 0 1 1 2s0 1 0 0a5 5 0 0 1 0 1 6 6 0 0 1 1 2v3a10 10 0 0 1-1 2c0 1 0 1 0 0v1a6 6 0 0 1-1 1 3 3 0 0 1 3-2 2 2 0 0 1 1 1s1 1 0 0a14 14 0 0 1-1-2v-2a16 16 0 0 1 0-2v1-1l1-1a17 17 0 0 1 0-1l1-1c-1 0-1 1 0 0v-2h1l-6-1a14 14 0 0 1 1 2l1 1v2a16 16 0 0 1 0 2v2a16 16 0 0 1 0 2l-1 1a17 17 0 0 1-1 2l5-1-1-1v-1l-1-1s0 1 0 0v-3c0 1 0 0 0 0v-2l1-1 1-1-4-1v1a15 15 0 0 1 1 2s0 1 0 0a18 18 0 0 1 0 3 17 17 0 0 1 0 1l-1 1v1a3 3 0 0 1-1 0 1 1 0 0 1 1 0 2 2 0 0 1 1 0 1 1 0 0 1 0 1 8 8 0 0 1 0-1l-1-2v-2l1-1a9 9 0 0 1 0-1 2 2 0 0 1-1 0v1l1 2a14 14 0 0 1-1 2 15 15 0 0 1-1 5h4a12 12 0 0 1-1-4 10 10 0 0 1 0-4c0-1 0 0 0 0a1 1 0 0 1-1-1 2 2 0 0 0-1 0 4 4 0 0 1 0 1 4 4 0 0 1 0 2 5 5 0 0 1-1 0v1h2v-1a5 5 0 0 1 0-1 6 6 0 0 1 0-2 2 2 0 0 0 0-2 2 2 0 0 0-3 1z"/><g fill="#efefef"><path d="M680 122a3 3 0 0 0 0 2l1-1a2 2 0 0 0-2 2 2 2 0 0 0 3 1l1-1a4 4 0 0 1 1 0 2 2 0 0 0 1-1 2 2 0 0 0 0-2l-1-2a7 7 0 0 1-1 0v-2a2 2 0 0 0-1-1 2 2 0 0 0-1 0 2 2 0 0 0-1 1v5a2 2 0 0 0 1 1 2 2 0 0 0 2-1v-5h-3a8 8 0 0 0 1 3 14 14 0 0 0 1 2 2 2 0 0 0 0 1l1-1v-1a5 5 0 0 0-1 0 7 7 0 0 0-2 2h2a1 1 0 0 1 0 1 1 1 0 0 1 0 1 2 2 0 0 0 1-2 2 2 0 0 0-1-2 2 2 0 0 0-2 1z"/><path d="M683 123a2 2 0 0 0-3 2 2 2 0 0 0 2 1l4-1a2 2 0 1 0-1-3l-4 1 2 2h-1v1h-2a2 2 0 0 0 3-2z"/></g><ellipse cx="600.9" cy="77.5" fill="none" stroke="#000" stroke-width="4" rx="31.3" ry="36.2"/><path d="M680 129a41 41 0 0 0 2-13h-3a90 90 0 0 0 9 11c1 2 3 0 2-2a84 84 0 0 1-8-10 2 2 0 0 0-2-1 2 2 0 0 0-1 2 38 38 0 0 1-2 12 2 2 0 0 0 3 1Z"/></svg>