<svg id="Layer_25" data-name="Layer 25" xmlns="http://www.w3.org/2000/svg" viewBox="0 0 1728 1787.9"><defs><style>.cls-1{fill:#b4b4b4;}.cls-2{fill:#eeeded;}</style></defs><path class="cls-1" d="M1391.6,586.4a1.2,1.2,0,0,0,0-2.4,1.2,1.2,0,0,0,0,2.4Z"/><path class="cls-1" d="M1100,563a1.2,1.2,0,0,0,0-2.4,1.2,1.2,0,0,0,0,2.4Z"/><path class="cls-1" d="M387.4,781.8a1.2,1.2,0,0,0,0-2.4,1.2,1.2,0,0,0,0,2.4Z"/><path class="cls-1" d="M1171.8,718.6a1.2,1.2,0,0,0,0-2.4,1.2,1.2,0,0,0,0,2.4Z"/><path class="cls-1" d="M633.9,627.9a1.2,1.2,0,0,0,0-2.4,1.2,1.2,0,1,0,0,2.4Z"/><path class="cls-1" d="M992.4,754.1a1.2,1.2,0,0,0,0-2.4,1.2,1.2,0,1,0,0,2.4Z"/><path class="cls-1" d="M1699.4,1074.2a1.2,1.2,0,0,0,0-2.4,1.2,1.2,0,0,0,0,2.4Z"/><path class="cls-1" d="M74.2,816.3a1.2,1.2,0,0,0,0-2.4,1.2,1.2,0,0,0,0,2.4Z"/><path class="cls-1" d="M928.3,772.6a1.2,1.2,0,0,0,0-2.4,1.2,1.2,0,1,0,0,2.4Z"/><path class="cls-1" d="M1011.1,627.9a1.2,1.2,0,1,0,0-2.4,1.2,1.2,0,0,0,0,2.4Z"/><path class="cls-1" d="M785,623.3a1.2,1.2,0,0,0,0-2.4,1.2,1.2,0,0,0,0,2.4Z"/><path class="cls-1" d="M160.6,900.3a1.2,1.2,0,0,0,0-2.4,1.2,1.2,0,0,0,0,2.4Z"/><path class="cls-1" d="M77.5,1006.4a1.2,1.2,0,1,0,0-2.4,1.2,1.2,0,0,0,0,2.4Z"/><path class="cls-1" d="M1085.2,854.1a1.2,1.2,0,0,0,0-2.4,1.2,1.2,0,0,0,0,2.4Z"/><path class="cls-1" d="M1425.2,758.7a1.2,1.2,0,1,0,0-2.4,1.2,1.2,0,0,0,0,2.4Z"/><path class="cls-1" d="M1191.1,885.5a1.2,1.2,0,1,0,0-2.4,1.2,1.2,0,0,0,0,2.4Z"/><path class="cls-1" d="M169.3,671.3a1.2,1.2,0,0,0,0-2.4,1.2,1.2,0,1,0,0,2.4Z"/><path class="cls-1" d="M1657.5,772.6a1.2,1.2,0,0,0,0-2.4,1.2,1.2,0,0,0,0,2.4Z"/><path class="cls-1" d="M1530.3,639a1.5,1.5,0,0,0,0-3,1.5,1.5,0,0,0,0,3Z"/><path class="cls-1" d="M435.7,586.7a1.5,1.5,0,0,0,0-3,1.5,1.5,0,0,0,0,3Z"/><path class="cls-1" d="M471.4,782.1a1.5,1.5,0,0,0,0-3,1.5,1.5,0,0,0,0,3Z"/><path class="cls-1" d="M1268.1,639a1.5,1.5,0,0,0,0-3,1.5,1.5,0,0,0,0,3Z"/><path class="cls-1" d="M721.9,754.4a1.5,1.5,0,0,0,0-3,1.5,1.5,0,0,0,0,3Z"/><path class="cls-1" d="M1597.9,890.6a1.2,1.2,0,0,0,0-2.4,1.2,1.2,0,0,0,0,2.4Z"/><path class="cls-1" d="M908.3,890.2a1.2,1.2,0,0,0,0-2.4,1.2,1.2,0,0,0,0,2.4Z"/><path class="cls-1" d="M232.2,1006.4a1.2,1.2,0,0,0,0-2.4,1.2,1.2,0,0,0,0,2.4Z"/><path class="cls-1" d="M846.4,990.2a1.2,1.2,0,0,0,0-2.4,1.2,1.2,0,0,0,0,2.4Z"/><path class="cls-1" d="M506.4,894.8a1.2,1.2,0,1,0,0-2.4,1.2,1.2,0,0,0,0,2.4Z"/><path class="cls-1" d="M524.5,990.2a1.2,1.2,0,0,0,0-2.4,1.2,1.2,0,0,0,0,2.4Z"/><path class="cls-1" d="M648,1042.5a1.2,1.2,0,0,0,0-2.4,1.2,1.2,0,0,0,0,2.4Z"/><path class="cls-1" d="M274.1,908.6a1.2,1.2,0,1,0,0-2.4,1.2,1.2,0,0,0,0,2.4Z"/><path class="cls-1" d="M1213.5,1100.2a1.2,1.2,0,0,0,0-2.4,1.2,1.2,0,0,0,0,2.4Z"/><path class="cls-1" d="M1176.7,1006.4a1.2,1.2,0,1,0,0-2.4,1.2,1.2,0,0,0,0,2.4Z"/><path class="cls-1" d="M1032.1,1181.7a1.2,1.2,0,0,0,0-2.4,1.2,1.2,0,1,0,0,2.4Z"/><path class="cls-1" d="M1391.6,901.2a1.2,1.2,0,0,0,0-2.4,1.2,1.2,0,1,0,0,2.4Z"/><path class="cls-1" d="M1280.4,834.5a1.2,1.2,0,0,0,0-2.4,1.2,1.2,0,0,0,0,2.4Z"/><path class="cls-1" d="M545.2,731.1a1.5,1.5,0,0,0,0-3,1.5,1.5,0,0,0,0,3Z"/><path class="cls-1" d="M262.7,757.7a1.2,1.2,0,0,0,0-2.4,1.2,1.2,0,1,0,0,2.4Z"/><path class="cls-1" d="M237.4,1042.5a1.2,1.2,0,0,0,0-2.4,1.2,1.2,0,1,0,0,2.4Z"/><path class="cls-1" d="M324,557.8a1.2,1.2,0,0,0,0-2.4,1.2,1.2,0,0,0,0,2.4Z"/><path class="cls-1" d="M49.3,1127.4a1.2,1.2,0,0,0,0-2.4,1.2,1.2,0,1,0,0,2.4Z"/><path class="cls-1" d="M1537,1190.1a1.2,1.2,0,0,0,0-2.4,1.2,1.2,0,1,0,0,2.4Z"/><path class="cls-1" d="M1620,1084a1.2,1.2,0,0,0,0-2.4,1.2,1.2,0,0,0,0,2.4Z"/><path class="cls-1" d="M169.3,1130.1a1.2,1.2,0,0,0,0-2.4,1.2,1.2,0,1,0,0,2.4Z"/><path class="cls-1" d="M443.1,1143.6a1.2,1.2,0,0,0,0-2.4,1.2,1.2,0,1,0,0,2.4Z"/><path class="cls-1" d="M226.8,1622.9a1.2,1.2,0,0,0,0-2.4,1.2,1.2,0,0,0,0,2.4Z"/><path class="cls-1" d="M789.3,1200.2a1.2,1.2,0,0,0,0-2.4,1.2,1.2,0,0,0,0,2.4Z"/><path class="cls-1" d="M1499.3,1016.1a1.2,1.2,0,1,0,0-2.4,1.2,1.2,0,0,0,0,2.4Z"/><path class="cls-1" d="M851.1,1100.2a1.2,1.2,0,1,0,0-2.4,1.2,1.2,0,0,0,0,2.4Z"/><path class="cls-1" d="M1191.1,1195.6a1.2,1.2,0,1,0,0-2.4,1.2,1.2,0,0,0,0,2.4Z"/><path class="cls-1" d="M1049.6,1047.9a1.2,1.2,0,0,0,0-2.4,1.2,1.2,0,1,0,0,2.4Z"/><path class="cls-1" d="M1494.4,1287a1.2,1.2,0,0,0,0-2.4,1.2,1.2,0,0,0,0,2.4Z"/><path class="cls-1" d="M1363.8,1063.7a1.2,1.2,0,1,0,0-2.4,1.2,1.2,0,0,0,0,2.4Z"/><path class="cls-1" d="M367.8,1089.2a1.2,1.2,0,0,0,0-2.4,1.2,1.2,0,0,0,0,2.4Z"/><path class="cls-1" d="M349.1,963a1.2,1.2,0,0,0,0-2.4,1.2,1.2,0,1,0,0,2.4Z"/><path class="cls-1" d="M306,1189.2a1.2,1.2,0,0,0,0-2.4,1.2,1.2,0,1,0,0,2.4Z"/><path class="cls-1" d="M664.9,1127.4a1.2,1.2,0,0,0,0-2.4,1.2,1.2,0,0,0,0,2.4Z"/><path class="cls-1" d="M600.3,835.9a1.2,1.2,0,1,0,0-2.4,1.2,1.2,0,0,0,0,2.4Z"/><path class="cls-1" d="M754.1,953.1a1.2,1.2,0,0,0,0-2.4,1.2,1.2,0,0,0,0,2.4Z"/><path class="cls-1" d="M44,1287a1.2,1.2,0,0,0,0-2.4,1.2,1.2,0,0,0,0,2.4Z"/><path class="cls-1" d="M44,1441.7a1.2,1.2,0,0,0,0-2.4,1.2,1.2,0,0,0,0,2.4Z"/><path class="cls-1" d="M165,1258.8a1.2,1.2,0,0,0,0-2.4,1.2,1.2,0,1,0,0,2.4Z"/><path class="cls-1" d="M167.7,1378.8a1.2,1.2,0,0,0,0-2.4,1.2,1.2,0,0,0,0,2.4Z"/><path class="cls-1" d="M237.4,1309.2a1.2,1.2,0,0,0,0-2.4,1.2,1.2,0,1,0,0,2.4Z"/><path class="cls-1" d="M126.8,1577.4a1.2,1.2,0,0,0,0-2.4,1.2,1.2,0,1,0,0,2.4Z"/><path class="cls-1" d="M226.8,1515.5a1.2,1.2,0,0,0,0-2.4,1.2,1.2,0,0,0,0,2.4Z"/><path class="cls-1" d="M860.9,1262.8a1.2,1.2,0,1,0,0-2.4,1.2,1.2,0,0,0,0,2.4Z"/><path class="cls-1" d="M516.3,1387.5a1.2,1.2,0,0,0,0-2.4,1.2,1.2,0,1,0,0,2.4Z"/><path class="cls-1" d="M413.2,1347a1.2,1.2,0,0,0,0-2.4,1.2,1.2,0,1,0,0,2.4Z"/><path class="cls-1" d="M686.5,1266.6a1.2,1.2,0,0,0,0-2.4,1.2,1.2,0,1,0,0,2.4Z"/><path class="cls-1" d="M619.5,1368a1.2,1.2,0,0,0,0-2.4,1.2,1.2,0,0,0,0,2.4Z"/><path class="cls-1" d="M413.2,1266.6a1.2,1.2,0,0,0,0-2.4,1.2,1.2,0,1,0,0,2.4Z"/><path class="cls-1" d="M576.2,1225.5a1.2,1.2,0,0,0,0-2.4,1.2,1.2,0,0,0,0,2.4Z"/><path class="cls-1" d="M1704.3,1517.3a1.2,1.2,0,0,0,0-2.4,1.2,1.2,0,0,0,0,2.4Z"/><path class="cls-1" d="M1479.2,1601.3a1.2,1.2,0,0,0,0-2.4,1.2,1.2,0,0,0,0,2.4Z"/><path class="cls-1" d="M1319.4,1334.9a1.2,1.2,0,0,0,0-2.4,1.2,1.2,0,0,0,0,2.4Z"/><path class="cls-1" d="M1537,1480.2a1.2,1.2,0,0,0,0-2.4,1.2,1.2,0,1,0,0,2.4Z"/><path class="cls-1" d="M1651.5,1397a1.2,1.2,0,0,0,0-2.4,1.2,1.2,0,0,0,0,2.4Z"/><path class="cls-1" d="M1463.1,1381.2a1.2,1.2,0,1,0,0-2.4,1.2,1.2,0,0,0,0,2.4Z"/><path class="cls-1" d="M934.4,1417.3a1.2,1.2,0,0,0,0-2.4,1.2,1.2,0,0,0,0,2.4Z"/><path class="cls-1" d="M983.5,1347a1.2,1.2,0,0,0,0-2.4,1.2,1.2,0,0,0,0,2.4Z"/><path class="cls-1" d="M1148.1,1320.9a1.2,1.2,0,1,0,0-2.4,1.2,1.2,0,0,0,0,2.4Z"/><path class="cls-1" d="M1096.4,1433.5a1.2,1.2,0,0,0,0-2.4,1.2,1.2,0,0,0,0,2.4Z"/><path class="cls-1" d="M1657.5,1225.8a1.5,1.5,0,0,0,0-3,1.5,1.5,0,0,0,0,3Z"/><path class="cls-1" d="M1391.6,1225.5a1.2,1.2,0,0,0,0-2.4,1.2,1.2,0,1,0,0,2.4Z"/><path class="cls-1" d="M327.9,1433.5a1.2,1.2,0,0,0,0-2.4,1.2,1.2,0,0,0,0,2.4Z"/><path class="cls-1" d="M357.9,1587.8a1.2,1.2,0,0,0,0-2.4,1.2,1.2,0,1,0,0,2.4Z"/><path class="cls-1" d="M513.5,1659.6a1.2,1.2,0,0,0,0-2.4,1.2,1.2,0,0,0,0,2.4Z"/><path class="cls-1" d="M549,1480.2a1.2,1.2,0,0,0,0-2.4,1.2,1.2,0,0,0,0,2.4Z"/><path class="cls-1" d="M422.8,1498.9a1.2,1.2,0,0,0,0-2.4,1.2,1.2,0,0,0,0,2.4Z"/><path class="cls-1" d="M649,1542a1.2,1.2,0,0,0,0-2.4,1.2,1.2,0,0,0,0,2.4Z"/><path class="cls-1" d="M680.4,1647.9a1.2,1.2,0,0,0,0-2.4,1.2,1.2,0,0,0,0,2.4Z"/><path class="cls-1" d="M801.3,1633.5a1.2,1.2,0,0,0,0-2.4,1.2,1.2,0,0,0,0,2.4Z"/><path class="cls-1" d="M842.8,1506.4a1.2,1.2,0,0,0,0-2.4,1.2,1.2,0,0,0,0,2.4Z"/><path class="cls-1" d="M754.1,1406.9a1.2,1.2,0,0,0,0-2.4,1.2,1.2,0,0,0,0,2.4Z"/><path class="cls-1" d="M1343.1,1433.5a1.2,1.2,0,1,0,0-2.4,1.2,1.2,0,0,0,0,2.4Z"/><path class="cls-1" d="M1382.3,1510.2a1.2,1.2,0,1,0,0-2.4,1.2,1.2,0,0,0,0,2.4Z"/><path class="cls-1" d="M1224.6,1651.5a1.2,1.2,0,0,0,0-2.4,1.2,1.2,0,1,0,0,2.4Z"/><path class="cls-1" d="M979.5,1622.9a1.2,1.2,0,0,0,0-2.4,1.2,1.2,0,0,0,0,2.4Z"/><path class="cls-1" d="M1297.4,1527.1a1.2,1.2,0,0,0,0-2.4,1.2,1.2,0,0,0,0,2.4Z"/><path class="cls-1" d="M1158.1,1548.7a1.2,1.2,0,1,0,0-2.4,1.2,1.2,0,0,0,0,2.4Z"/><path class="cls-1" d="M1199.3,1438.5a1.2,1.2,0,0,0,0-2.4,1.2,1.2,0,0,0,0,2.4Z"/><path class="cls-1" d="M1521.4,804a1.2,1.2,0,0,0,0-2.4,1.2,1.2,0,0,0,0,2.4Z"/><path class="cls-1" d="M506.4,1568.6a1.2,1.2,0,0,0,0-2.4,1.2,1.2,0,0,0,0,2.4Z"/><path class="cls-1" d="M1003,963a1.2,1.2,0,1,0,0-2.4,1.2,1.2,0,0,0,0,2.4Z"/><path class="cls-1" d="M1657.5,586.4a1.2,1.2,0,0,0,0-2.4,1.2,1.2,0,0,0,0,2.4Z"/><path class="cls-1" d="M897.3,586.4a1.2,1.2,0,0,0,0-2.4,1.2,1.2,0,0,0,0,2.4Z"/><path class="cls-1" d="M1178.7,781.8a1.2,1.2,0,1,0,0-2.4,1.2,1.2,0,0,0,0,2.4Z"/><path class="cls-2" d="M559.2,291a1.2,1.2,0,0,0,0-2.4,1.2,1.2,0,0,0,0,2.4Z"/><path class="cls-2" d="M1086.2,448.1a1.2,1.2,0,0,0,0-2.4,1.2,1.2,0,0,0,0,2.4Z"/><path class="cls-2" d="M23.7,515.3a1.2,1.2,0,0,0,0-2.4,1.2,1.2,0,0,0,0,2.4Z"/><path class="cls-2" d="M1687.7,388.7a1.2,1.2,0,1,0,0-2.4,1.2,1.2,0,0,0,0,2.4Z"/><path class="cls-2" d="M833.7,345a1.2,1.2,0,0,0,0-2.4,1.2,1.2,0,0,0,0,2.4Z"/><path class="cls-2" d="M719.8,200.3a1.2,1.2,0,1,0,0-2.4,1.2,1.2,0,0,0,0,2.4Z"/><path class="cls-2" d="M1110.6,169.6a1.2,1.2,0,0,0,0-2.4,1.2,1.2,0,0,0,0,2.4Z"/><path class="cls-2" d="M946,195.7a1.2,1.2,0,0,0,0-2.4,1.2,1.2,0,0,0,0,2.4Z"/><path class="cls-2" d="M1139.8,335.7a1.2,1.2,0,1,0,0-2.4,1.2,1.2,0,0,0,0,2.4Z"/><path class="cls-2" d="M1324.2,478.8a1.2,1.2,0,1,0,0-2.4,1.2,1.2,0,0,0,0,2.4Z"/><path class="cls-2" d="M1601.4,472.6a1.2,1.2,0,0,0,0-2.4,1.2,1.2,0,1,0,0,2.4Z"/><path class="cls-2" d="M676.8,426.5a1.2,1.2,0,0,0,0-2.4,1.2,1.2,0,1,0,0,2.4Z"/><path class="cls-2" d="M336.8,331.1a1.2,1.2,0,0,0,0-2.4,1.2,1.2,0,1,0,0,2.4Z"/><path class="cls-2" d="M202.7,532.6a1.2,1.2,0,0,0,0-2.4,1.2,1.2,0,0,0,0,2.4Z"/><path class="cls-2" d="M447.3,478.8a1.2,1.2,0,0,0,0-2.4,1.2,1.2,0,1,0,0,2.4Z"/><path class="cls-2" d="M1641.4,206.5a1.2,1.2,0,0,0,0-2.4,1.2,1.2,0,1,0,0,2.4Z"/><path class="cls-2" d="M104.4,345a1.2,1.2,0,1,0,0-2.4,1.2,1.2,0,0,0,0,2.4Z"/><path class="cls-2" d="M267.5,180.6a1.5,1.5,0,1,0,0-3,1.5,1.5,0,0,0,0,3Z"/><path class="cls-2" d="M1295.2,159.1a1.5,1.5,0,0,0,0-3,1.5,1.5,0,0,0,0,3Z"/><path class="cls-2" d="M1290.6,354.5a1.5,1.5,0,0,0,0-3,1.5,1.5,0,0,0,0,3Z"/><path class="cls-2" d="M462.9,211.4a1.5,1.5,0,0,0,0-3,1.5,1.5,0,0,0,0,3Z"/><path class="cls-2" d="M1009.1,326.8a1.5,1.5,0,0,0,0-3,1.5,1.5,0,1,0,0,3Z"/><path class="cls-2" d="M447.3,57.4a1.5,1.5,0,0,0,0-3,1.5,1.5,0,0,0,0,3Z"/><path class="cls-2" d="M645.6,125.6a1.5,1.5,0,0,0,0-3,1.5,1.5,0,0,0,0,3Z"/><path class="cls-2" d="M864,33.6a1.5,1.5,0,0,0,0-3,1.5,1.5,0,0,0,0,3Z"/><path class="cls-2" d="M1483.6,42.3a1.5,1.5,0,0,0,0-3,1.5,1.5,0,0,0,0,3Z"/><path class="cls-1" d="M820.5,816.6a1.5,1.5,0,0,0,0-3,1.5,1.5,0,0,0,0,3Z"/><path class="cls-2" d="M1148.1,67.5a1.5,1.5,0,0,0,0-3,1.5,1.5,0,0,0,0,3Z"/></svg>