<svg xmlns="http://www.w3.org/2000/svg" viewBox="0 0 791.68 898.37" class="img-logo">
    <defs>
        <style>
                                .cls-1 {
                                    fill: none;
                                    stroke: #fff;
                                    stroke-linecap: round;
                                    stroke-miterlimit: 10;
                                    stroke-width: 8px;
                                }

                                .cls-2,
                                .cls-3 {
                                    fill: #fff;
                                }

                                .cls-3 {
                                    font-size: 116.51px;
                                    font-family: "gilbert", sans-serif;
                                    font-style: normal;
                                }
        </style>
    </defs>
    <g id="Layer_2" data-name="Layer 2">
        <g id="Layer_3" data-name="Layer 3">
            <ellipse class="cls-1" cx="305.75" cy="326.72" rx="134.5" ry="34.87" />
            <path class="cls-2" d="M166.68,574.6q-1.35-5.83-2.4-11.73-.56-3-1-6.12c-.14-.94-.29-1.89-.42-2.83-.07-.47-.13-.95-.2-1.42l0-.35c0,.35-.07-.5-.08-.58-1-7.88-1.71-15.81-2.12-23.75a444,444,0,0,1,.45-48.4c.94-16.13,2.51-32.22,4.18-48.28,1.72-16.38,3.48-32.75,5.1-49.14q2.49-25,4.7-50.08l.54-6.2a4.53,4.53,0,0,0-4.5-4.5,4.62,4.62,0,0,0-4.5,4.5q-2.17,25-4.63,50.09c-1.61,16.53-3.35,33.06-5.1,49.58-1.71,16.14-3.36,32.3-4.44,48.5a470.64,470.64,0,0,0-1,48.68,294.71,294.71,0,0,0,5.56,48.57q.6,2.94,1.28,5.85a4.54,4.54,0,0,0,5.53,3.15,4.61,4.61,0,0,0,3.15-5.54Z" />
            <path class="cls-2" d="M436,330.22a494.56,494.56,0,0,1-3,49.56c-1.68,16.38-3.8,32.7-5.55,49.08s-3,33-3.67,49.55c-.69,15.77-.87,31.57-.21,47.34A433.41,433.41,0,0,0,428.4,574c.32,2.09.67,4.18,1,6.27.4,2.33,3.39,3.84,5.54,3.15a4.63,4.63,0,0,0,3.14-5.54q-1-6.11-1.91-12.24c-.07-.47-.13-1-.2-1.42,0-.24-.06-.48-.1-.71,0,.1.08.54,0,0-.15-1.1-.29-2.2-.43-3.3-.24-2-.47-3.91-.69-5.86q-1.29-11.75-1.92-23.55c-.83-15.64-.81-31.32-.25-47,.59-16.42,1.65-32.83,3.29-49.18s3.75-32.58,5.52-48.88,3.2-32.74,3.52-49.17q.07-3.19.07-6.37a4.5,4.5,0,0,0-9,0Z" />
            <path class="cls-2" d="M160.22,581.61a258,258,0,0,0,51.61,22.27,263.1,263.1,0,0,0,55.25,10.64,256.35,256.35,0,0,0,56-1.49c20.52-2.78,40.77-7.89,60.75-13.27q15-4.05,29.92-8.66,7.44-2.29,14.83-4.75c2.43-.8,5.44-1.37,7.48-2.94,3.44-2.66,2.58-8.53-2.06-9.15-3.9-.53-7.33,3.49-5.09,7.18a4.5,4.5,0,0,0,7.77-4.54l-.09-.16.45,3.47,0-.13-1.15,2-3.52,1-2-1.16.13.13-1.15-2,.05.19v-2.39l.67-.84a1.34,1.34,0,0,1,.89-.93l.21-.09-.75.26-1.5.5L425.18,578l-6.78,2.2q-6.91,2.2-13.87,4.29-14,4.21-28.2,7.94t-28.28,6.88c-4.86,1.08-9.73,2.09-14.62,3q-3.54.65-7.09,1.21-1.79.29-3.57.54l-1.4.2-.33,0-.81.11a252.3,252.3,0,0,1-52,1.2c-4.31-.34-8.6-.8-12.89-1.35,0,0-.77-.1-.34,0l-.57-.08-1.4-.19-3.49-.53q-3.15-.51-6.28-1.08a258.46,258.46,0,0,1-25.45-6,254.64,254.64,0,0,1-24.47-8.51c-3.54-1.44-7.3-3.08-11.23-4.93s-7.78-3.78-11.59-5.82c-1.94-1-3.86-2.11-5.77-3.19a4.5,4.5,0,0,0-4.55,7.77Z" />
            <path class="cls-2" d="M436.63,332.49c5.82,11.4,17.49,18.74,29.65,21.78,14.8,3.69,30.21,1,44.68-2.85,15.45-4.15,30.72-9,46.08-13.48a174.49,174.49,0,0,1,22.88-5.43s1.53-.21.69-.1l1.43-.17c1-.11,1.9-.2,2.86-.28,1.79-.14,3.59-.21,5.39-.24,3.49,0,7,.09,10.48.38,2,.17,4,.38,6,.64l.52.07,1.28.19,3,.49q6,1,11.87,2.6c3.69,1,7.35,2.08,10.95,3.34q2.7.94,5.35,2l1.12.45c.48.2.49.21,0,0l.73.31c.83.36,1.66.73,2.48,1.11,2.14,1,4.95.68,6.16-1.61,1-2,.67-5.11-1.62-6.16A142.26,142.26,0,0,0,608.38,324a115.4,115.4,0,0,0-21.09-1.15,116.81,116.81,0,0,0-23.84,4c-7.53,2-15,4.27-22.46,6.48l-23.19,6.83a211.64,211.64,0,0,1-22.31,5.62A72.82,72.82,0,0,1,484.64,347a68.87,68.87,0,0,1-10.65-.34c-1.23-.14,1,.16-.26,0-.48-.08-1-.15-1.45-.24-.73-.13-1.45-.27-2.17-.43-1.68-.37-3.35-.83-5-1.36-.81-.27-1.62-.55-2.43-.86l-1-.41c1,.42-.43-.19-.61-.27a46.53,46.53,0,0,1-4.21-2.18c-.73-.43-1.45-.88-2.15-1.35l-.89-.62c-.16-.11-1.42-1.05-.53-.37a35.25,35.25,0,0,1-3.49-3.08c-.59-.59-1.16-1.21-1.7-1.84l-.69-.82c-.31-.4-.3-.37.05.06l-.43-.57A32.16,32.16,0,0,1,444.4,328a4.54,4.54,0,0,0-6.16-1.62,4.61,4.61,0,0,0-1.61,6.16Z" />
            <path class="cls-2" d="M431.66,582.31c23.47,14.69,52,20.07,79.28,16.1a109.76,109.76,0,0,0,19.75-4.77,161.55,161.55,0,0,0,20.78-9.18c6.76-3.45,13.44-7.08,20.41-10.12l1.25-.54.61-.25,2.54-1q2.78-1,5.58-2,5.19-1.72,10.5-3,6.2-1.51,12.52-2.45l1.35-.2c-.81.11.91-.11,1.07-.13,1.05-.12,2.11-.24,3.17-.34q2.94-.28,5.9-.44A154,154,0,0,1,642.13,565c2.34.27,4.6-2.26,4.5-4.5-.12-2.67-2-4.21-4.5-4.5a159.1,159.1,0,0,0-22.57-1.21,143.31,143.31,0,0,0-22.91,2.55,134.56,134.56,0,0,0-21.48,6A196.85,196.85,0,0,0,554,573.06c-3.31,1.71-6.6,3.44-9.93,5.1-1.66.83-3.34,1.65-5,2.43-.84.4-1.69.78-2.53,1.16l-1.28.56-.85.37c.36-.16.29-.13-.22.08a110.8,110.8,0,0,1-18.76,5.76q-2.4.51-4.8.9l-2.42.37c-1.34.2.93-.11-.42.06l-1.61.19q-4.86.54-9.75.67c-3.4.09-6.79,0-10.18-.19-1.49-.1-3-.22-4.47-.37-.81-.08-1.62-.18-2.43-.28-.12,0-1.47-.19-.42,0l-1.61-.23a113.34,113.34,0,0,1-21.67-5.53q-2.49-.9-4.93-1.92c.91.38-.33-.15-.42-.19l-1.49-.66c-.86-.4-1.72-.8-2.57-1.22a105.29,105.29,0,0,1-10-5.53,4.5,4.5,0,1,0-4.54,7.77Z" />
            <path class="cls-2" d="M608.94,359.11c.8-.64-.34.21.43-.32l1-.73c.7-.47,1.41-.91,2.13-1.34,1.46-.85,3-1.61,4.49-2.31.38-.18.77-.35,1.16-.51,1.27-.56-.81.31.48-.2.79-.32,1.58-.63,2.38-.93,1.59-.59,3.2-1.15,4.81-1.7l21.71-7.3c2.23-.75,3.92-3.13,3.14-5.53-.71-2.22-3.14-3.95-5.53-3.14-7.51,2.52-15,5-22.51,7.57-7.19,2.45-14.1,5.32-20.09,10.07-1.85,1.48-1.65,4.85,0,6.37,2,1.8,4.39,1.57,6.37,0Z" />
            <path class="cls-2" d="M605.76,360.43a166.34,166.34,0,0,0,28.23.46c2.35-.16,4.62-1.95,4.5-4.5-.1-2.3-2-4.67-4.5-4.5a166.34,166.34,0,0,1-28.23-.46c-2.35-.24-4.61,2.24-4.5,4.5a4.62,4.62,0,0,0,4.5,4.5Z" />
            <path class="cls-2" d="M632.37,353.53A45.28,45.28,0,0,0,616,367.34c-1.64,2.19,0,6.18,2.69,6.61a39.61,39.61,0,0,1,9,2.56l-2-7.53a42.42,42.42,0,0,0-7.69,7.92c-1.42,1.89-.37,5.11,1.61,6.16,2.36,1.24,4.65.4,6.16-1.62.31-.41.3-.4,0,0l.46-.56c.22-.27.45-.54.68-.8.5-.56,1-1.1,1.55-1.62a45.28,45.28,0,0,1,3.63-3.13,4.43,4.43,0,0,0,1.15-4.38,4.72,4.72,0,0,0-3.14-3.14,38.93,38.93,0,0,0-9-2.55l2.69,6.61c.3-.4.28-.39-.05.05l.33-.42c.27-.32.53-.65.81-1,.46-.55.95-1.08,1.44-1.59a39.37,39.37,0,0,1,3.42-3.17l.84-.68c-.82.65.05,0,.24-.15.68-.5,1.37-1,2.08-1.41a41.35,41.35,0,0,1,4.07-2.26,4.53,4.53,0,0,0,1.62-6.16,4.62,4.62,0,0,0-6.16-1.61Z" />
            <path class="cls-2" d="M620.63,383.51a69,69,0,0,0,17.21,1.39c2.35-.12,4.62-2,4.5-4.5-.1-2.34-2-4.63-4.5-4.5a64.9,64.9,0,0,1-11.74-.5l1.19.16c-1.43-.2-2.85-.44-4.27-.73-2.3-.47-5,.66-5.54,3.14-.51,2.25.68,5,3.15,5.54Z" />
            <path class="cls-2" d="M636,377.4a200.79,200.79,0,0,0-24.56,20.14,4.55,4.55,0,0,0,0,6.37,4.61,4.61,0,0,0,6.37,0q5.43-5.25,11.26-10.06c1-.79,1.93-1.57,2.9-2.34l1.38-1.08.13-.1.87-.66q3-2.31,6.2-4.5c1.92-1.35,3-4,1.61-6.16C640.89,377.1,638,376,636,377.4Z" />
            <path class="cls-2" d="M613.39,405.06c10.46,3.7,21,7.23,31.44,10.92l2.39-8.67-.94-.32a4.54,4.54,0,0,0-5.54,3.14,4.61,4.61,0,0,0,3.15,5.54l.94.31a4.53,4.53,0,0,0,5.53-3.14,4.6,4.6,0,0,0-3.14-5.53c-10.46-3.7-21-7.23-31.44-10.92a4.51,4.51,0,0,0-5.53,3.14,4.6,4.6,0,0,0,3.14,5.53Z" />
            <path class="cls-2" d="M643.29,408q-15.87,10.49-30.7,22.43c-1.85,1.48-1.66,4.84,0,6.36,2,1.8,4.39,1.58,6.36,0,4.75-3.81,8.86-6.95,13.93-10.64q7.35-5.37,15-10.38c2-1.3,3-4,1.61-6.16-1.26-1.95-4.05-3-6.15-1.61Z" />
            <path class="cls-2" d="M614.41,438.19l18.24,11.46A4.53,4.53,0,0,0,638.8,448a4.59,4.59,0,0,0-1.61-6.15L619,430.42A4.53,4.53,0,0,0,612.8,432a4.59,4.59,0,0,0,1.61,6.15Z" />
            <path class="cls-2" d="M631.75,442.47a143.18,143.18,0,0,1-19.29,10.58,4.53,4.53,0,0,0-1.61,6.16,4.63,4.63,0,0,0,6.16,1.61,142.57,142.57,0,0,0,19.28-10.58c1.94-1.33,3-4,1.62-6.16-1.25-1.93-4.09-3-6.16-1.61Z" />
            <path class="cls-2" d="M613.54,461.28a286.93,286.93,0,0,0,34.13,9c2.3.46,5-.65,5.53-3.14.51-2.23-.67-5.05-3.14-5.54a285,285,0,0,1-34.13-9,4.52,4.52,0,0,0-5.53,3.14,4.6,4.6,0,0,0,3.14,5.54Z" />
            <path class="cls-2" d="M646.27,463.14a224.24,224.24,0,0,0-25.36,20.23,4.54,4.54,0,0,0,0,6.36,4.6,4.6,0,0,0,6.37,0c3.83-3.43,7.71-6.81,11.7-10.06.95-.77,1.91-1.54,2.88-2.29l.63-.5c-.25.2.39-.3.45-.34l1.46-1.11c2.1-1.56,4.23-3.07,6.41-4.52,2-1.31,3-4,1.61-6.16-1.26-1.95-4.06-3-6.15-1.61Z" />
            <path class="cls-2" d="M621.83,490.44a243,243,0,0,0,21.5,12.84,4.5,4.5,0,0,0,4.55-7.77,244.11,244.11,0,0,1-21.51-12.84,4.53,4.53,0,0,0-6.16,1.61,4.6,4.6,0,0,0,1.62,6.16Z" />
            <path class="cls-2" d="M641.74,497.19l-17,13.47a4.53,4.53,0,0,0-1.31,3.19,4.61,4.61,0,0,0,1.31,3.18,4.55,4.55,0,0,0,3.19,1.32A5.29,5.29,0,0,0,631.1,517l17-13.48a4.49,4.49,0,0,0,1.31-3.18,4.61,4.61,0,0,0-1.31-3.18,4.55,4.55,0,0,0-3.19-1.32,5.29,5.29,0,0,0-3.18,1.32Z" />
            <path class="cls-2" d="M626.72,518.19l.14,0-1.08-.45a30.24,30.24,0,0,1,4.7,2.75c.75.5,1.51,1,2.28,1.46a26,26,0,0,0,3.36,1.62,4.49,4.49,0,0,0,3.47-.45,4.59,4.59,0,0,0,2.06-2.69,4.53,4.53,0,0,0-.45-3.47l-.7-.91a4.56,4.56,0,0,0-2-1.16l-.14-.05,1.08.45a30.24,30.24,0,0,1-4.7-2.75c-.75-.5-1.51-1-2.28-1.46a26,26,0,0,0-3.36-1.62,4.49,4.49,0,0,0-3.47.45,4.59,4.59,0,0,0-2.06,2.69,4.52,4.52,0,0,0,.45,3.47l.7.91a4.56,4.56,0,0,0,2,1.16Z" />
            <path class="cls-2" d="M633.6,517.32c-5.29,4.88-10.83,9.5-16.12,14.39a4.54,4.54,0,0,0,0,6.36,4.59,4.59,0,0,0,6.36,0c5.3-4.89,10.84-9.5,16.13-14.39a4.54,4.54,0,0,0,0-6.36,4.6,4.6,0,0,0-6.37,0Z" />
            <path class="cls-2" d="M618.39,538.77l9.76,6.07v-7.77l-6.44,4.3a4.83,4.83,0,0,0-2.07,2.69,4.62,4.62,0,0,0,.45,3.47,4.57,4.57,0,0,0,2.69,2.07,4.47,4.47,0,0,0,3.47-.46l6.45-4.3a4.5,4.5,0,0,0,0-7.77L622.93,531a4.5,4.5,0,0,0-4.54,7.77Z" />
            <path class="cls-2" d="M621.43,549.36c3.58,2,7.08,4.18,10.46,6.5,1.65,1.13,3.26,2.29,4.85,3.49l.6.45c.36.27.29.23,0,0l1.32,1,1.16.93a3.22,3.22,0,0,0,.54.45c.17.17.15.12-.06-.13s-.22-.31-.06,0l-.61-2.27.11-.7,1.16-2-.11.11,2-1.15-.14,0H645l2.61,2.71-.45,3.47,0-.1-2.69,2.07.13,0c2.19-.86,4-3.05,3.15-5.54-.69-2.11-3.19-4.06-5.54-3.14a4.78,4.78,0,0,0-3.4,3.89,4.71,4.71,0,0,0,1.47,4.11,4.9,4.9,0,0,0,8.06-2c.78-2.58-.59-4.79-2.52-6.36-1.42-1.14-2.85-2.25-4.3-3.35A140,140,0,0,0,626,541.58a4.51,4.51,0,0,0-4.55,7.78Z" />
            <ellipse class="cls-2" cx="300.11" cy="326.14" rx="42.14" ry="13.25" />
            <path class="cls-2" d="M242.63,413.25l-6.25,8.63c-2.08,2.88-4,6.12-4.08,9.78-.13,4.53,2.83,8,6.93,9.48a25.3,25.3,0,0,0,3.54.84c.4.09,1.42.15,1.71.47l-.57-.23a6.44,6.44,0,0,1,.63.36c.91.46-.77-.65.17.19l.11.12a2.11,2.11,0,0,1-.67-1.16c.27.85,0-.92.07-1.15.28-1,.33-.67.11-.32l.38-.53c-.4.37-.31.32.26-.14-.22.38-1.1.71-1.48,1a20.54,20.54,0,0,0-2.56,1.88c-3.27,2.82-5.92,7.77-3.65,12a8.93,8.93,0,0,0,4.95,4,8.55,8.55,0,0,0,1.65.44c.55.1,1.16.17,1.73.23l.78.08c.58.07.52.05-.2,0,.31,0,.63.17.93.19.58.05-.85-.64,0,0-1.17-.88.26.67-.69-.69.45.65-.11-.28-.15-.41.33,1,.09-1.19,0-.15-.11,1.21,0-.07.06-.08s-.18.7-.17.65c-.18.52-.13.43.15-.26-.09.21-.19.42-.3.62s-.24.39-.35.59c-.32.46-.25.39.2-.2-.14.17-.29.34-.44.5-.56.59-1.18,1.13-1.78,1.68a23,23,0,0,0-3.86,4.27,10.35,10.35,0,0,0,.68,12.56,5.12,5.12,0,0,0,7.21,0,5.22,5.22,0,0,0,0-7.21c.92,1.06,0-.56.48.82-.33-.93.12.35,0,.37V472c0-.57,0-.46-.09.32a5.43,5.43,0,0,0,.16-.69c.18-1.09-.55.86,0-.09l.36-.6c.64-1.09-.69.66.21-.23.29-.28.56-.58.85-.87,2.14-2.06,4.38-3.88,5.6-6.67,1.61-3.66,1.77-7.83-1-11a9,9,0,0,0-4.61-2.75,19.88,19.88,0,0,0-2.87-.43l-.78-.08c-.6-.06-.51-.05.26,0-.23,0-.45-.09-.67-.15-.82-.16.41,0,.26.14s-1.34-1.2,0,0a2.67,2.67,0,0,1,.69,1.18v1.5c.17-.57.17-.58,0-.05.13-.23.27-.44.4-.67.61-1.07-.72.66.15-.22.18-.18.35-.38.54-.57s.38-.35.57-.52c-.47.35-.55.42-.25.2,3.15-1.89,6.23-4.21,6.41-8.22.2-4.29-3.08-7.38-6.78-8.86a20.9,20.9,0,0,0-3.48-.89c-.6-.12-1.17-.29-1.76-.44-1.08-.27.63.42.09,0-1-.73.4.67-.21-.12.72.93.25.38.15.15.25.68.3.75.13.22.07.78.08.88.05.31s-.27-.51-.09.26a3.2,3.2,0,0,1,.33-1.29c.13-.39.12-1.05,0-.08a3.88,3.88,0,0,1,.57-1.08c.4-.7.85-1.36,1.31-2,2.25-3.16,4.55-6.29,6.82-9.43,1.57-2.17.44-5.77-1.83-7a5.24,5.24,0,0,0-7,1.83Z" />
            <path class="cls-2" d="M310.81,409.5a28.52,28.52,0,0,0-7.27,4.88,23.82,23.82,0,0,0-5.23,6.47,7.47,7.47,0,0,0-.16,6.88,11.6,11.6,0,0,0,3.91,4.12,33.16,33.16,0,0,0,3.56,2.17l1.47.8a8.17,8.17,0,0,1,2.13,1.34c-.08-.1-.84-.76-.15-.1l.55.52c.18.19,1.13,1,.19.13a3.2,3.2,0,0,1,.43.63,3.27,3.27,0,0,1,.36.65l-.22-.55a5.05,5.05,0,0,1,.22.69c.24.61-.28.22,0-.31a4.68,4.68,0,0,1,0,.53c0,.39,0,.23.08-.48-.22,1.09.45-.59.07,0-.16.25-.52,1.06.08.05a5.7,5.7,0,0,1-1,1.1,30.33,30.33,0,0,0-3.22,3.29c-2.4,3.11-3.16,7.5-.7,10.85a16.25,16.25,0,0,0,2.84,2.9c.13.1,1.33,1,1.28,1.18s-.66-1.09-.16-.19c.09.15.17.3.25.45.17.35.11.2-.17-.43.1,0,.2.72.24.84.14.4-.06-1.16,0,0,0,.29,0,.59,0,.88,0,1.15.27-1.05,0,.07-.06.23-.11.47-.18.7s-.14.46-.22.69l.17-.38c-.33.62-.66,1.19-1,1.78.1-.16.66-.76,0-.08-.28.3-.55.61-.83.9a23.42,23.42,0,0,1-1.84,1.62c.14-.11.81-.6,0-.05q-.51.38-1,.72c-.68.47-1.37.92-2.06,1.38-2.23,1.46-3.37,4.58-1.83,7,1.44,2.23,4.59,3.4,7,1.83,5-3.25,10.32-7.18,11.62-13.37a13.49,13.49,0,0,0-1.15-9.4,11.94,11.94,0,0,0-2.89-3.36c-.36-.3-.73-.58-1.09-.89-.21-.19-.4-.42-.62-.59s-.17-.16.27.39c-.28-.48-.26-.36,0,.34-.12-.38,0-.61,0,.25,0,1-.14.54,0,.2-.51,1.16.09,0,.21-.23-.11.17-.67.72,0,.05.9-.93,1.93-1.73,2.82-2.67a10.77,10.77,0,0,0,2.94-10.09,14.46,14.46,0,0,0-5.81-8c-2.13-1.57-4.59-2.58-6.78-4.05,0,0-1.05-.84-.49-.34s-.43-.44-.53-.54l-.12-.14a2.44,2.44,0,0,1,.78,1.94c0,1.6-.71,2,0,.93.14-.23.29-.45.44-.66s.3-.43.46-.64l-.2.25c.47-.55.93-1.11,1.44-1.63s.93-.92,1.42-1.36l.76-.63c.29-.23.2-.17-.26.19l.65-.46A25.37,25.37,0,0,1,316,418.3c2.43-1.11,3.22-4.82,1.83-7a5.25,5.25,0,0,0-7-1.83Z" />
            <path class="cls-2" d="M202.31,491.17c-5.57,7.06-14.47,24.31-1.5,28.82,4.22,1.46,8.48.09,12.46-1.37a23.44,23.44,0,0,1,3.09-.94,4.65,4.65,0,0,1,.76-.15c-1.17,0-.5.07-.21.07h.74c.47,0,.49,0,0,0s-.43,0,0,.06l.17.05c.36.12.24.07-.37-.16.13,0,.56.41.65.4s-1.08-.7-.3-.17c.58.39-.4.24-.2-.31,0,0,.33.55.31.52.38.59-.34,0-.14-.37.05-.1.17,2,.27.85.08-.87,0,.59,0,.81q0,.69,0,1.38c-.05,1-.17,2-.3,3a37.59,37.59,0,0,0-.45,7,60.78,60.78,0,0,0,1.38,9.1,59.18,59.18,0,0,0,1.65,6.45c1.62,4.83,4.5,9.42,9.36,11.51s10,1.81,15,.44c4.3-1.18,8.27-3.28,12.54-4.55a28.15,28.15,0,0,1,3.14-.76c.18,0,1-.2.3-.07s.11,0,.3,0c.57,0,1.15-.08,1.73-.08a4.45,4.45,0,0,1,1.51.09c-.66-.34-.73-.13-.24,0l.73.17c.24.06.47.15.71.21,1,.28-.2,0-.17-.1a16,16,0,0,1,1.68.94c.23.15.79.37-.08-.07a3.88,3.88,0,0,1,.62.52c.4.34.81.69,1.23,1a16,16,0,0,0,4.41,2.61,14.15,14.15,0,0,0,7.95.38c5-1,9.13-4.55,12.26-8.47.89-1.11,1.75-2.25,2.61-3.39.18-.22.35-.45.52-.68l.25-.32c-.4.5.16-.21.26-.32.22-.28.44-.56.67-.83a27,27,0,0,1,2.26-2.4c.23-.22,1.41-1.18.53-.51a17,17,0,0,1,1.68-1.13,5,5,0,0,1,1.42-.73c-.1,0-1.07.34-.11.08l.75-.22.76-.17c0,.08-1.3.05-.2,0h.78c1,0-.57-.18,0,0a15.61,15.61,0,0,1,1.53.4c.16.06,1,.36.32.11s.15.07.31.14c1,.49,2,1.05,3.05,1.55,4.32,2.09,9,2.91,13.57,1.16,4-1.52,7.27-4.08,10.63-6.71a10.23,10.23,0,0,1,1.05-.82c-1.17.67,0,0,.3-.22.8-.6,1.6-1.19,2.44-1.73s1.47-.93,2.24-1.34c.15-.08,1.12-.43,1.15-.57,0,.07-1.19.46-.33.15.25-.09.49-.19.75-.27a18,18,0,0,1,2.61-.63c.46-.09.93-.15,1.39-.22l-.3,0,1.88-.25a22.3,22.3,0,0,0,6.52-1.73,11.69,11.69,0,0,0,5.41-5.13,26.63,26.63,0,0,0,2.12-7.64L365,499.47l1.42-8-3.56,3.57c-1.54.24,0,.09.32.07,1-.05-1.12-.32.12,0,.53.14,2.08.3,2.41.76l-.57-.25.63.29,1.28.61c.74.37,1.48.74,2.23,1.09,3.83,1.77,8,3,12.18,1.65,7.53-2.41,11.13-10.22,13.35-17.2a5.15,5.15,0,0,0-3.57-6.27,5.21,5.21,0,0,0-6.27,3.56c-.24.74-.48,1.48-.75,2.21-.11.32-.23.63-.36.95s-.16.43-.25.64c.3-.69.33-.78.11-.27a30.81,30.81,0,0,1-2.08,3.88s-.55.81-.56.8c.47-.6.54-.68.2-.26l-.31.36c-.32.35-1.31,1-1.46,1.41.64-.48.74-.57.3-.26-.12.09-.25.17-.38.25s-.76.3-.92.5c.71-.29.89-.37.52-.23l-.43.14c-.23.07-1.42.19-.52.17s-.46,0-.62,0h-.34c-.57,0-.45,0,.34.08l-2.31-.61c-.36-.13-1.31-.24-.08,0a4.6,4.6,0,0,1-1-.44c-.75-.35-1.49-.73-2.23-1.09-3.86-1.88-7.41-3-11.73-2.36a4.92,4.92,0,0,0-3.57,3.56l-2.74,15.48L352.5,512c-.22,1.23-.42,2.47-.66,3.7-.09.47-.18.94-.3,1.4-.07.27-.14.53-.22.79s-.12.39-.19.58l.2-.48c0,.12-.31.57-.38.71-.54,1,.11-.18.12-.12s-.46.49-.46.48c-.51.57.08-.38.28-.19,0,0-.87.49-1,.57-.47.41.94-.3.33-.13-.27.07-.52.18-.79.26a21.88,21.88,0,0,1-2.67.58l-.71.1c.78-.1,0,0-.2,0l-1.88.25a25.22,25.22,0,0,0-10.71,4.11c-1.74,1.17-3.39,2.48-5.05,3.78l-1.05.82a5,5,0,0,1-.53.41c.09,0,.95-.72.25-.19s-1.39,1-2.1,1.53-1.4.93-2.13,1.34c-.31.17-.62.34-.94.5s-.37.16-.55.26c-.55.29,1.11-.4.26-.12a13,13,0,0,0-2.25.62c.08-.05,1.32-.1.48-.07l-.44,0a6.72,6.72,0,0,0-1.34,0c.51-.19,1.07.19.44.06-.23-.05-.47-.09-.7-.15a4,4,0,0,1-1.51-.5c.06.06,1.05.49.11,0l-.54-.26-1.62-.82a21.66,21.66,0,0,0-7.79-2.59c-5.21-.53-10.29,2.38-13.91,5.87a49.23,49.23,0,0,0-4.87,5.82c-.34.46-.68.91-1,1.36-.12.16-.6.75,0,0L286,543c-.71.87-1.44,1.73-2.23,2.54-.4.4-.84.76-1.23,1.16-.17.16-.7.69.14-.08a7.17,7.17,0,0,1-.63.45c-.37.25-.75.48-1.15.7-.22.12-.47.22-.68.36-.53.31.88-.3,0,0a14.51,14.51,0,0,1-1.46.45,7.11,7.11,0,0,0-.73.15c.06-.1,1.24-.06.25-.05H277c-.7,0,.94.24.28,0-.29-.09-.59-.15-.89-.23-1-.27.23,0,.2.09a7.44,7.44,0,0,1-.68-.38,2.87,2.87,0,0,1-.65-.45c.07.09.84.71.09,0a31.81,31.81,0,0,0-3.22-2.57,16.69,16.69,0,0,0-7.47-2.55c-4.51-.55-9.18.71-13.37,2.29-3.93,1.49-7.73,3.3-11.91,4a6,6,0,0,1-.76.12c1.23-.05.49-.06.22,0-.5,0-1,.07-1.5.07s-.85,0-1.28,0c-.22,0-1-.19-.23,0s-.21-.06-.38-.1-1.29-.2-1.38-.4c0,0,1.13.57.23.09-.22-.11-.44-.22-.65-.34s-1.19-.84-.71-.43-.08-.09-.2-.21-.43-.45-.65-.66c-.73-.72.15.08.09.17s-.37-.53-.42-.61a14.78,14.78,0,0,1-.75-1.28c-.12-.23-.62-1.37-.38-.76s0-.11-.09-.28-.22-.6-.32-.9a64.61,64.61,0,0,1-1.58-6.27c-.28-1.28-.54-2.57-.75-3.86-.06-.32-.11-.65-.15-1,0,.1.07.74,0,.14s-.15-1.45-.18-2.19a38.68,38.68,0,0,1,.48-6.54c.58-4.51.54-9.32-2.71-12.89-3.87-4.25-9.82-3.83-14.75-2-.94.34-1.86.75-2.81,1.06-.77.26-1.72.28-2.45.59.85-.36.91-.08.41-.08-.2,0-.41,0-.62,0a6.4,6.4,0,0,0-1.23-.05c.13,0,1.26.28.48.05l-.42-.11c-.21,0-.8-.32,0,0s.06,0-.12-.11c-.7-.34.36.19.39.31s-.33-.36-.38-.38c.11.05.71,1,.34.34l.14.35q.27.72,0-.09c.11,0,0,1.23,0,0,0-.22,0-.45,0-.67,0-.77-.21.74,0,0,.11-.34.15-.7.23-1.05a33.12,33.12,0,0,1,.95-3.27c.17-.47.36-.93.53-1.4.26-.71-.36.73,0,.05.16-.32.3-.65.45-1a33.21,33.21,0,0,1,1.65-3c.26-.42.53-.84.81-1.25.13-.19,1.31-1.75.6-.85a5.53,5.53,0,0,0,1.49-3.6,5.19,5.19,0,0,0-1.49-3.61c-1.84-1.69-5.45-2.24-7.21,0Z" />
        </g>
        <g id="Layer_5" data-name="Layer 5">
            <text class="cls-3" transform="matrix(0.79, 0.61, -0.61, 0.79, 115.56, 754.23)">D</text>
            <text class="cls-3" transform="matrix(0.88, 0.47, -0.47, 0.88, 185.34, 804.33)">
            </text>
            <text class="cls-3" transform="translate(233.43 829.52) rotate(18.49)">U</text>
            <text class="cls-3" transform="translate(315.21 853.64) rotate(8.86)"></text>
            <text class="cls-3" transform="translate(369.58 861.7) rotate(-0.93)">D</text>
            <text class="cls-3" transform="matrix(0.98, -0.18, 0.18, 0.98, 454.42, 857.54)"></text>
            <text class="cls-3" transform="translate(506.54 847.6) rotate(-19.33)">E</text>
            <text class="cls-3" transform="translate(579.99 819.1) rotate(-28.42)"></text>
            <text class="cls-3" transform="matrix(0.79, -0.61, 0.61, 0.79, 626.15, 793.53)">S</text>
            <text class="cls-3" transform="translate(89.32 295.08) rotate(-60.44)">S</text>
            <text class="cls-3" transform="translate(120.98 241.64) rotate(-52.03)"></text>
            <text class="cls-3" transform="matrix(0.72, -0.7, 0.7, 0.72, 143.46, 212.22)">T</text>
            <text class="cls-3" transform="matrix(0.8, -0.59, 0.59, 0.8, 183.64, 174.33)">
            </text>
            <text class="cls-3" transform="translate(212.77 151.86) rotate(-27.83)">R</text>
            <text class="cls-3" transform="translate(270.1 123.05) rotate(-19.19)"></text>
            <text class="cls-3" transform="translate(304.47 110.13) rotate(-10.35)">A</text>
            <text class="cls-3" transform="translate(370.17 99.56) rotate(-1.59)"></text>
            <text class="cls-3" transform="translate(406.87 97.54) rotate(7.27)">N</text>
            <text class="cls-3" transform="translate(474.64 107.69) rotate(16.26)"></text>
            <text class="cls-3" transform="matrix(0.91, 0.42, -0.42, 0.91, 510.16, 117.1)">G</text>
            <text class="cls-3" transform="matrix(0.83, 0.56, -0.56, 0.83, 569.89, 146.65)">
            </text>
            <text class="cls-3" transform="matrix(0.74, 0.67, -0.67, 0.74, 600.84, 166.63)">E</text>
            <text class="cls-3" transform="matrix(0.63, 0.77, -0.77, 0.63, 646.3, 209.67)">
            </text>
            <text class="cls-3" transform="matrix(0.51, 0.86, -0.86, 0.51, 670.19, 237.69)">R</text>
        </g>
        <g id="Layer_7" data-name="Layer 7">
            <circle class="cls-2" cx="14.74" cy="486.54" r="14.74" />
            <circle class="cls-2" cx="759.27" cy="483.39" r="14.74" />
        </g>
    </g>
</svg>