<svg id="divisor" xmlns="http://www.w3.org/2000/svg" viewBox="0 0 1717.2 188.6"><defs><style>.cls-1{fill:#c1c1c6;stroke:#000;stroke-miterlimit:10;stroke-width:8px;}</style></defs><path class="cls-1" d="M1721.8,151.5V-5.6H-3.4V133.8A45.9,45.9,0,0,0,23.1,145a45,45,0,0,0,19.4-3.1,45.5,45.5,0,0,0,17.7-16c7.6-12.2,6.5-25.2,6-31.3a54.3,54.3,0,0,0-.8-6.1c-3.4-11-6.8-22.6-10.3-35-1.4-4.9-3.3-10.8-2.1-18.3a35.1,35.1,0,0,1,5.6-14.3c1.4-2.2,6.2-7.1,11.6-6.2s7.1,5.2,7.7,6.2c2,3.5,2,7,1.7,10.5-.8,9.6-3.2,14-6.8,28.7a37.8,37.8,0,0,0-1.1,13.7,26.4,26.4,0,0,0,1.1,5.3,24.1,24.1,0,0,0,4.7,9.1,20.6,20.6,0,0,0,6.6,5,27.2,27.2,0,0,0,32.2-9.8,33.3,33.3,0,0,0,6.1-14.7c.9-5.5.2-9.8-.9-16.5s-2-8.4-2.9-15.9c-.4-2.9-.6-5.2-.7-6.8a18,18,0,0,1,2.9-11.1,18.4,18.4,0,0,1,6.7-5.9A22.8,22.8,0,0,1,141.9,10a29.8,29.8,0,0,1,16.4,9.6,29.5,29.5,0,0,1,7.3,17.6,64.7,64.7,0,0,1-2.2,19.9,67,67,0,0,1-10,20.8,79.3,79.3,0,0,0-7.3,16.8,82.1,82.1,0,0,0-3.3,15.9,42.5,42.5,0,0,0,5.1,17.6,37.3,37.3,0,0,0,4.7,6.7,51.8,51.8,0,0,0,22.5,8.8,57.6,57.6,0,0,0,11.7.1,46.3,46.3,0,0,0,30.4-15.1A36.8,36.8,0,0,0,221,96.1c-1.7-3.8-3.2-7.9-4.7-12.2A171.4,171.4,0,0,1,209,55.1a59.9,59.9,0,0,1,.3-20.2,60.6,60.6,0,0,1,4.1-13,23,23,0,0,1,10.2-10A23.2,23.2,0,0,1,238.4,10a41.7,41.7,0,0,1,17.5,12.6,41.3,41.3,0,0,1,8.4,18.3,142.5,142.5,0,0,1,.5,23.1,150.5,150.5,0,0,1-4.1,26.2c-1.4,7.7-2.7,15.9-3.6,24.5-.7,6.1-1.1,12-1.5,17.6,0,3.2.2,19.8,12.9,30.4a34.6,34.6,0,0,0,11,6.2,43.4,43.4,0,0,0,19.9.3,42.8,42.8,0,0,0,15.5-6.9A58.7,58.7,0,0,0,328,145.5a59.3,59.3,0,0,0,6.2-19.8,161.1,161.1,0,0,0-1.3-29.3,165,165,0,0,0-7.4-31.2c-1.1-2.8-9.4-25.9,2.9-40.7a26.1,26.1,0,0,1,6.4-5.7,20,20,0,0,1,14.3,1.9,19.5,19.5,0,0,1,9.1,11.6,32.7,32.7,0,0,1,2.2,12.6c-.1,5.7-1.7,8.7-3.2,17.4a107.1,107.1,0,0,0-1.5,10.9A30.3,30.3,0,0,0,379,102.5a35,35,0,0,0,17.2-2.6,34.6,34.6,0,0,0,12.3-9.4,39.5,39.5,0,0,0,4.7-11.6,45.7,45.7,0,0,0,1-6.4c.1-3-.1-6-2.4-16.3-1.9-8.1-2.3-8.7-2.3-11.3a26.9,26.9,0,0,1,2.6-11.3,23.2,23.2,0,0,1,12.4-7.9,22.2,22.2,0,0,1,13.9,1.2,17,17,0,0,1,5.4,5.4c1.3,2.1,2.4,5.1,2.3,17.3,0,2.5-.1,6.1-.4,10.5,0,1.4.1,13,8.7,18.9a19,19,0,0,0,7,2.9,24.2,24.2,0,0,0,14.4-2.8,23.1,23.1,0,0,0,9-8.8,26.5,26.5,0,0,0,3.4-9.6,35.3,35.3,0,0,0,.3-12c-.2-1.4-.6-3.5-.9-6-.7-5.5-.6-6.8-.4-7.9a13,13,0,0,1,3-5.5c3.5-3.6,8.3-3.5,9.3-3.5a31.8,31.8,0,0,1,16.2,7.3A32.3,32.3,0,0,1,526,52.5a84.7,84.7,0,0,1-2,23.2,147.3,147.3,0,0,1-5.3,16.5c-1.7,4.5-3.3,8.2-4.5,10.8a100.6,100.6,0,0,0-7.9,25.7,98,98,0,0,0-1.3,17.8,33.3,33.3,0,0,0,8.4,15.4,32.3,32.3,0,0,0,13.7,8.6,46.7,46.7,0,0,0,33.1,1.8,47.9,47.9,0,0,0,16.2-8.2,47.1,47.1,0,0,0,9.7-10.5,38.3,38.3,0,0,0,5.2-12.8,39.1,39.1,0,0,0,.9-11.2,58.6,58.6,0,0,0-4.5-19.5,66.9,66.9,0,0,0-12.4-19.9,102.9,102.9,0,0,1-8.1-12.7c-4.3-7.9-7.4-13.7-8.1-21.4a40.1,40.1,0,0,1,3.4-19.3,19,19,0,0,1,18.8-8.1c8.1,1.5,12.2,8.3,12.7,9.3,2.8,4.7,2.9,8.4,2.7,10.3s-.3,2.9-3.7,10.5c-1.6,3.3-3,6.1-4,7.9a28.1,28.1,0,0,0,1.4,18.5,27.5,27.5,0,0,0,11.2,12.4,32.2,32.2,0,0,0,34.7-5.8A29.4,29.4,0,0,0,646.1,75a29.3,29.3,0,0,0-.9-13.4c-.6-1.1-7.5-14.5-.6-26.3a23.9,23.9,0,0,1,8.6-8.4,30.2,30.2,0,0,1,14.5-2c16.1,1.8,24.5,16.5,25.6,18.4a81.8,81.8,0,0,1,5.9,25,80.7,80.7,0,0,1-3.6,29.4c-1.1,3.8-2.4,8.7-4,14.5-3.5,13-4.5,16.2-5,21.3a72.3,72.3,0,0,0-.2,14.9,34.1,34.1,0,0,0,8.4,17.1,36,36,0,0,0,14.6,9.4c3.9,1.8,13.4,5.7,24.9,3.4a41.4,41.4,0,0,0,10.4-3.8,43.9,43.9,0,0,0,16.6-38.2,147.5,147.5,0,0,0-2.7-19.8,149,149,0,0,0-8.3-26.3,76.3,76.3,0,0,1-2.2-16.3c-.1-5.9-.4-12.8,2.2-20.7a47.2,47.2,0,0,1,13.6-20.7c3.6-3.3,10.4-8.9,20.8-9.7a33.6,33.6,0,0,1,19.9,4.8,30.7,30.7,0,0,1,5.6,10.3c3.7,11.2-.2,21.2-1.6,24.3-2.4,7.2-4.2,13.3-5.4,18-3,11.5-3.1,15.4-2.9,18.3a39,39,0,0,0,3.1,12.5,37.5,37.5,0,0,0,14.2,13.6,38.8,38.8,0,0,0,14.2,4.4,31.8,31.8,0,0,0,16.9-4.4,30.9,30.9,0,0,0,10.7-10.4,31.8,31.8,0,0,0,5.4-16.9,32.5,32.5,0,0,0-3.9-15.9c-.4-1.6-1.1-4-2.1-7-3.2-10.3-4.5-12.5-5-16.4a27,27,0,0,1,2.5-14.5,34.2,34.2,0,0,1,33.3-18.2A34.5,34.5,0,0,1,908,38.1a34.1,34.1,0,0,1,6.4,17.2,117.8,117.8,0,0,1-2.3,18.2c-1.6,7.9-3.4,12.4-3.8,20.4a67.5,67.5,0,0,0,.4,10.9,27.7,27.7,0,0,0,27,19.1,34,34,0,0,0,28.4-16.4,59.7,59.7,0,0,0,6.3-28.2A43.5,43.5,0,0,0,969.2,68c-1.4-5.4-3.1-7.3-3.3-11.9a22.2,22.2,0,0,1,1.1-7.4,20.2,20.2,0,0,1,5.8-6.3c3-2.2,5.9-3,10-4a61.1,61.1,0,0,1,11.7-1.6,43.7,43.7,0,0,1,24.9,7.7c13.1,9.2,16.5,22.8,17.3,26.1a137.2,137.2,0,0,1-.9,26.5,135,135,0,0,1-6.5,26.5,39.7,39.7,0,0,0,4.8,45.9,44.4,44.4,0,0,0,14.8,7.5,42.9,42.9,0,0,0,15.7,1.5,51.8,51.8,0,0,0,20.5-10.5,49.9,49.9,0,0,0,11.1-13.5,69.7,69.7,0,0,0,6.2-20.9,70.5,70.5,0,0,0-2.2-28c-1.1-3-2.5-7.3-4-12.6-2.5-9.3-4.1-15.2-4.1-22.7a52.9,52.9,0,0,1,2.5-16,32.7,32.7,0,0,1,30.1-18.6,22.1,22.1,0,0,1,18.7,25.1c-1.1,2.4-2.7,6-4.9,10.4-3.2,6.6-4.6,8.7-5.7,12.6a37.2,37.2,0,0,0-1.5,11.7c.5,2.2,2.6,12.1,11.7,18.3a27.6,27.6,0,0,0,13.5,4.7,28.7,28.7,0,0,0,19.1-9c7.9-8.5,7.2-19.8,7-23.7a67.2,67.2,0,0,0-3.2-16.1c-1.7-5-3.4-8.4-3.4-13.8a25.3,25.3,0,0,1,1.5-8.4,21.2,21.2,0,0,1,13.1-9.3c9.1-2,16,2.9,17.1,3.6A44,44,0,0,1,1218.5,57c6.4,15.4,1.2,29.8-.2,33.4s-2.1,8.5-3.8,14.8c-2.5,9.3-3.3,11.7-3.8,15.7a55.8,55.8,0,0,0,.6,17.4,34.1,34.1,0,0,0,26.1,25.2,36.9,36.9,0,0,0,21.7-2.7,37.3,37.3,0,0,0,15.2-12.4,54.8,54.8,0,0,0,5.2-19.4,54,54,0,0,0-4.3-24.9,72.1,72.1,0,0,1-5.6-43.4c.5-1.6,3.4-11.3,13.3-16.3A27.2,27.2,0,0,1,1300,42a16.7,16.7,0,0,1,7.7,5.2c4.8,6,4.7,15.4-.1,23.8a47.2,47.2,0,0,0-8.9,18c-1.6,6.8-.8,10.9-.5,12.1a23.8,23.8,0,0,0,2.7,6.8,22.9,22.9,0,0,0,8.8,6.5,23.4,23.4,0,0,0,11,1.5,25,25,0,0,0,10.3-6.6,26.2,26.2,0,0,0,5.4-8.8,30.6,30.6,0,0,0,1.9-10.4,32.9,32.9,0,0,0-1.9-10.9,34.9,34.9,0,0,1-2-10c-.3-4.4-.6-9.7,2.3-14.9,3.8-6.8,10.9-9.2,13.2-9.8l4.8-1.8c5.9-1.7,9.2-2.7,12.1-1.2s3.9,4.7,4.5,6.5c1.8,5.7-.6,10.8-1.3,12.2s-1.6,5.1-2.9,9c-1.9,6-2.3,7.4-2.5,9.4a21.9,21.9,0,0,0,2,10.6,22.3,22.3,0,0,0,9.9,8.3,23.6,23.6,0,0,0,10.1,1.6,23.2,23.2,0,0,0,14-6.9,22.6,22.6,0,0,0,6.3-13c.2-1.6.5-4.2.7-7.5,1.1-12.1.7-15.7,3.6-18.9a10.1,10.1,0,0,1,6-3.2,9.1,9.1,0,0,1,5.2.9,16.7,16.7,0,0,1,6.1,8.3c.6,1.8,1,4.4-.9,12a89.7,89.7,0,0,1-5,15.1c-2.1,5,1-2-7.9,21.1-6.4,16.5-8.8,22-10.3,31.3-.5,3-.8,5.4-.9,6.9a33.5,33.5,0,0,0,8.3,20.3,33,33,0,0,0,14.2,9.2,36.9,36.9,0,0,0,21.6-.7,37.2,37.2,0,0,0,15.5-10.5,45.4,45.4,0,0,0,8.3-14.4c2.2-6.3,2.3-11.3,2.5-16.8.3-9.3-1.1-16.9-2.3-23.3s-1.6-6-2-9.5c-1-9.8,1.2-17.3,2.6-22.1,2.1-6.6,3.3-10.4,7.1-13.8a20.5,20.5,0,0,1,8.4-4.5,19.1,19.1,0,0,1,12.8,6.1c4.9,5.6,4.5,12.5,4.3,15.5s-.7,4.3-3,11.2c-6.1,17.9-7.1,22.2-7.4,26.6a52.5,52.5,0,0,0,.4,10.9,28.7,28.7,0,0,0,25.7,19,35.5,35.5,0,0,0,32.5-20.7,62.1,62.1,0,0,0,1.5-18.7,61.5,61.5,0,0,0-4.5-19.1c-2.7-6.8-4.7-23.2,3.4-36.2A35.5,35.5,0,0,1,1567,41.5c11.6-2.3,22.2,1.5,26.4,9a17,17,0,0,1,2,9.9,72.9,72.9,0,0,1-2.4,10.8c-3.3,10.7-7.2,14.6-8.1,23.2a33.8,33.8,0,0,0,.6,10.3,30.3,30.3,0,0,0,12.6,17.1,29.5,29.5,0,0,0,19.8,4.3,31.8,31.8,0,0,0,22.7-23.9,74.3,74.3,0,0,0,.5-21.3c-.7-4.9-1.9-10.3-4-18.9-.8-3.4-1.5-6.2-1.9-8.1-3.3-11-.2-21.6,7-26.1a17,17,0,0,1,11-2.3,27.6,27.6,0,0,1,16.2,9.5c7.9,9.8,5.7,21.5,5.4,23.1a92.3,92.3,0,0,1-4.9,16.5,108.5,108.5,0,0,1-5.9,12.2c-3,5.6-7.1,13.7-11.6,24.1a65.7,65.7,0,0,0-5.8,40.6,36.8,36.8,0,0,0,19.5,22.3,44.5,44.5,0,0,0,33.1-1.6,70.7,70.7,0,0,0,13.7-10.3,62.1,62.1,0,0,0,8.3-9.6"/></svg>