<svg id="Capa_1" data-name="Capa 1" xmlns="http://www.w3.org/2000/svg" xmlns:xlink="http://www.w3.org/1999/xlink" viewBox="0 0 1728 134.53"><defs><clipPath id="clip-path"><rect width="1728" height="134.53" fill="none"/></clipPath></defs><g id="Layer_2" data-name="Layer 2"><g id="Layer_31" data-name="Layer 31"><g clip-path="url(#clip-path)"><path d="M-7,78.12c15.19,7.45,29.64,16,45.66,21.67,18.66,6.58,38.38,7.5,58,9.38,27.31,2.62,54.64,5.42,82,7.54,53.57,4.13,107.15,8.15,160.79,11.3,107.2,6.3,214.48,11,321.8,14.75s214.68,5.78,322,9.58,214.7,8,322.06,8.12c60.26,0,120.48-.72,180.73.85,30.68.79,61.32,1.83,92,1.11s61.33-1.52,92-2.4c25.38-.73,50.63-10.35,68.78-28.49,16.87-16.87,29.57-44.55,28.48-68.78-1.12-25.15-9.39-51.24-28.48-68.78C1720-23.21,1696-35.26,1670-34.51c-54.27,1.56-108.45,2.55-162.63,6s-108.37,5.12-162.7,6.07c-107.37,1.87-214.68,5.26-322.06,6.79-214.66,3.06-429.35-5-643.83-13.26l-180.5-7c-29.52-1.19-59-2.05-88.57-3-21-.67-41-2.06-61.91,2C33.46-34.19,20.19-28.57,6.33-24c-21.41,7.09-37,23.7-40,46.44C-36.46,43.13-26.91,68.36-7,78.12Z" fill="#07070f"/><path d="M12.1,290.07c-6.23-1.64-3.57-11.28,2.66-9.64,13.25,3.48,25.85,8.95,38,15.14,13.71,7,27,14.76,40.17,22.63,1-3.74,2-7.47,3-11.2,6.34-23.93,11.29-48.11,16-72.41q3.85-20,7.58-40.09,1.92-10.29,3.82-20.58.94-5.14,1.9-10.29c3.13-16.93,6.74-38.83.12-55.77l-8.94-21.18-13.87-18-18-13.83a66,66,0,0,0-33-10.53,44.67,44.67,0,0,0-23.57,0A44.22,44.22,0,0,0,5.7,50.38a44.29,44.29,0,0,0-19.57,11.4A67.16,67.16,0,0,0-36.71,86.66a123.33,123.33,0,0,0-9.43,22.13q-1.68,12.38-3.33,24.75c-.14,1.06-.35,2.13-.42,3.19a57.93,57.93,0,0,0,.4,7.45q.42,6.91.83,13.82.85,14.08,1.69,28.18c1.2,20.12,2,40.44,4.24,60.53l-.63-4.71c1.36,14.73,2.63,29.45,4.53,44.12,2,15.37,3.63,30.85,5.74,46.23,1.3,15.49,2.38,31.06,4.3,46.49l-.82-6.08c1.12,14.53,2,29.09,3.52,43.58l4.44,43.58,4.29,42.51c.35,3.52.93,7.1,1,10.63.09,3.88-.28,7.82-.43,11.69q-.39,10.63-.8,21.26-.45,12.21-.93,24.44c-.23,6,1.37,12,2.55,17.81l2.4,11.84,0-.27a23.23,23.23,0,0,0,4.28,9.26,26.24,26.24,0,0,0,5.94,5.61v5.69a111.22,111.22,0,0,0,.78,13.28,104.67,104.67,0,0,1,1.15,12.75v5.24a17.42,17.42,0,0,0,.24,9.6,6,6,0,0,0,5.65,4.31c2.35,0,5.29-1.8,5.65-4.31l1.89-13a107.06,107.06,0,0,1,3-12.73,103.28,103.28,0,0,0,2.51-12.31l.9-6.26.07-.48a17.76,17.76,0,0,0,4.87-3.17c3.85-3,7.31-7.28,8.4-12.17a82.53,82.53,0,0,1,3.39-9.9c1.11-3.13,2.24-6.25,3.34-9.37,1.77-5,1.77-11.28,2.33-16.72q.54-5.31,1.1-10.62c1.24-12,2.39-24.09,3.69-36.12,2.3-11.1,5.47-22.09,8.15-33,2.92-11.92,5.77-23.68,8.64-35.52,2.92-12,5.92-24,8.51-36.09,2.55-11.93,5-23.87,7.7-35.77s5.06-23.86,8-35.68c1.16-4.65,2.38-9.28,3.62-13.91C65.47,313.49,40.25,297.47,12.1,290.07Zm-15.75,322c-.95-1.87-.43-.92,0,0Z" fill="#07070f"/><path d="M87.88,200.22c12.19,3.21,25.18,5.89,36.84,10.66l-16.19-6.83c3.11,1.51,6.24,3,9.34,4.53a81,81,0,0,0,20.32,9q11.63,1.71,23.27,3.09l-20.3-2.73c9.8,1.49,19.6,2.94,29.39,4.48,11.71,1.84,22.87,3.55,34.6,3.51l18.73-.06c21.88-.07,43.73,0,65.59-.87,43.76-1.84,87.52-3.76,131.3-5q64.91-1.77,129.83-2.91c43.27-.73,86.6-.34,129.85-1.71,173.7-5.52,347.7-5.62,521.23,4.55,97.36,5.7,194.53,14.69,291.2,27.66l-26.14-3.51q95.77,12.93,190.69,31.32l-72.1-94.7c-12,102.06-5.95,204.67,12.67,305.6,4.23,23,25.57,47.2,45,58.6,21,12.3,52,17.51,75.55,9.88,23.73-7.68,46.62-22.38,58.6-45.06L1787,486.3a98.74,98.74,0,0,0,0-52.13q-4.21-23-7.34-46.21L1783.2,414a940.54,940.54,0,0,1-1.49-233.33l-3.51-26.11a73.89,73.89,0,0,0-17.58-33.4c-12.24-15.85-30.71-31.22-51-35.2-189.92-37.25-383.14-58-576.41-66.65-185-8.26-371.29-8.31-556,4.74Q499,29.6,420.78,36.22C362,41.13,302.49,43.54,244.1,52.05l23.5-3.16q-30.45,3.84-60.89,7.74C195.78,58,184,58.21,173.46,61c-4.91,1.3-9.79,3-14.67,4.45s-9.79,2.9-14.69,4.32c-2,.56-4,1-5.91,1.63-14.86,4.53-23.65,11.81-35.3,21l15-11.58c-12.71,8.44-26.25,13.9-40.25,19.86l13.11-5.54L87.9,96.31c-11.27,4.63-20.31,9.37-28,19.32-7,9.09-12.1,20.85-11.57,32.66,1,23.59,15.94,45.77,39.57,52Z" fill="#07070f"/><path d="M260.37,500.4q42.79-17.44,87-30.91c-55.76-31.25-112-61.64-168.27-92-28.83-15.57-58-30.59-86.12-47.44-25.62-15.36-51.67-32.3-80.85-40-6.23-1.64-3.57-11.28,2.66-9.64,13.25,3.48,25.85,8.95,38,15.14,27,13.72,52.27,30.69,79,45.05q46.31,24.94,92.58,50,68.37,37.06,136.28,74.94a1007.31,1007.31,0,0,1,131.64-28.78c97.24-11.73,195.69-11.71,293.48-11.23,98.85.47,197.72,3.51,296.3,11q78.53,6,156.64,16c107.27,15.12,213.67,36.93,317.52,67.95,25,7.48,50.09,15.15,74.46,24.57a267.5,267.5,0,0,1,35.48,19.78q5.37,4.8,10.37,10c17.33,18,45.06,28.94,69.88,28.94,24.24,0,53.19-10.76,69.88-28.94,17.29-18.84,30.13-43.56,29-69.88-1.19-26.52-10.29-50.46-29-69.89-32.93-34.28-74.14-57.17-117.65-74.77a126,126,0,0,0,7.32-29.94c2.28-17,1.25-32-2.59-49.06a101.12,101.12,0,0,0-3.17-10.66c.34-22.31-7.76-44.29-21.49-62-19.74-25.56-45.65-36.86-77.6-39Q1347.54,153,1095.29,121.78C928.91,101.3,760.69,77.7,592.93,95.06,499.84,104.7,408.5,125,316,138.32c-12.59,1.55-25.21,2.9-37.85,3.94-21.91,1.84-45.4.69-67,5.23q-7.06.64-14.13,1.12c-15.16,1-29.92,3.37-44.84,5.58a147.86,147.86,0,0,1-16.77,1.11l1.88.25a78,78,0,0,0-35.49,6,92.34,92.34,0,0,0-17.74,9.9c-3.44,1.28-6.88,2.54-10.35,3.73-14.87,5.1-25.74,13.91-31.9,28.5-4.61,10.93-6.17,25.66-1.24,37.3-29,9.21-56.73,24.4-71.66,52.44-12.06,22.67-14.53,36.22-17.23,61.24a210.24,210.24,0,0,0-1.32,21.87c-.11,22.75,3.13,46,7.77,68.2q.69,3.27,1.49,6.51c-7.59,9.59-13.43,20.46-16.17,32.5-5,22.1-3.87,43.37,5,64.35,8,19,21.69,37.36,40.43,47.26,23.31,12.32,50.25,17.56,76.15,10a129.21,129.21,0,0,0,49-26.67A1079,1079,0,0,1,260.37,500.4Z" fill="#07070f"/><path d="M753.06,85.92a1.2,1.2,0,1,0-1.2-1.2A1.2,1.2,0,0,0,753.06,85.92Z" fill="#ededed"/><path d="M447.08,96.12a1.2,1.2,0,1,0-1.2-1.2,1.2,1.2,0,0,0,1.2,1.2Z" fill="#ededed"/><path d="M1008.62,26.89a1.2,1.2,0,1,0-1.2-1.2A1.2,1.2,0,0,0,1008.62,26.89Z" fill="#ededed"/><path d="M588.62,33.35a1.5,1.5,0,1,0-1.5-1.5A1.5,1.5,0,0,0,588.62,33.35Z" fill="#ededed"/><path d="M1220.92,67.19a1.5,1.5,0,1,0-1.5-1.5A1.5,1.5,0,0,0,1220.92,67.19Z" fill="#ededed"/></g></g></g></svg>