<svg xmlns="http://www.w3.org/2000/svg" viewBox="0 0 502.41 327.55"><defs><style>.cls-1{fill:none;stroke:#fff;stroke-linecap:round;stroke-miterlimit:10;stroke-width:8px;}.cls-2{fill:#fff;}</style></defs><g id="Layer_2" data-name="Layer 2"><g id="Layer_3" data-name="Layer 3"><ellipse class="cls-1" cx="154.83" cy="38.87" rx="134.5" ry="34.87"/><path class="cls-2" d="M15.76,286.75q-1.34-5.83-2.4-11.73c-.36-2-.7-4.08-1-6.12-.15-.94-.29-1.89-.42-2.83-.07-.48-.14-.95-.2-1.42,0,0-.11-.77-.05-.35s-.07-.5-.08-.58c-1-7.89-1.71-15.81-2.12-23.75a441.5,441.5,0,0,1,.45-48.4c.94-16.13,2.5-32.22,4.18-48.28,1.71-16.38,3.48-32.75,5.1-49.14q2.48-25,4.69-50.08c.19-2.07.37-4.13.55-6.2a4.53,4.53,0,0,0-4.5-4.5,4.61,4.61,0,0,0-4.5,4.5Q13.25,62.92,10.81,88q-2.43,24.81-5.1,49.59C4,153.68,2.35,169.84,1.26,186a476.3,476.3,0,0,0-1,48.68,295.81,295.81,0,0,0,5.57,48.57q.6,2.93,1.28,5.85a4.52,4.52,0,0,0,5.53,3.14,4.59,4.59,0,0,0,3.14-5.53Z"/><path class="cls-2" d="M285.1,42.36c0,16.57-1.27,33.1-3,49.57s-3.8,32.7-5.55,49.07-3,33-3.68,49.56c-.68,15.77-.86,31.57-.2,47.34a433.39,433.39,0,0,0,4.77,48.23q.5,3.14,1,6.27c.4,2.33,3.38,3.84,5.54,3.14a4.62,4.62,0,0,0,3.14-5.53q-1.05-6.11-1.91-12.24c-.07-.48-.14-.95-.2-1.43,0-.23-.07-.47-.1-.71,0,.11.07.55,0,0l-.42-3.3c-.24-2-.47-3.91-.69-5.86q-1.29-11.74-1.92-23.55c-.84-15.64-.81-31.32-.25-47,.59-16.42,1.65-32.83,3.29-49.18s3.75-32.58,5.52-48.88,3.2-32.74,3.52-49.18q.06-3.18.07-6.37a4.5,4.5,0,0,0-9,0Z"/><path class="cls-2" d="M9.31,293.75A257.22,257.22,0,0,0,60.92,316a262.88,262.88,0,0,0,55.24,10.64,257,257,0,0,0,56-1.49c20.53-2.78,40.78-7.9,60.76-13.27q15-4.05,29.92-8.66,7.44-2.29,14.83-4.75c2.43-.8,5.44-1.37,7.48-2.95,3.44-2.65,2.58-8.52-2.07-9.14-3.89-.53-7.32,3.48-5.08,7.18a4.5,4.5,0,0,0,7.77-4.55l-.09-.15.45,3.47,0-.13-1.16,2-3.52,1-2-1.16.13.13-1.16-2,.06.19V290l.67-.84a1.33,1.33,0,0,1,.88-.93l.22-.09-.76.25-1.5.51-3.75,1.24q-3.39,1.13-6.78,2.2-6.92,2.22-13.87,4.3-14,4.22-28.2,7.94c-9.39,2.46-18.81,4.77-28.29,6.87-4.85,1.08-9.72,2.1-14.61,3-2.36.44-4.72.84-7.09,1.22q-1.78.29-3.57.54l-1.4.19-.34.05-.8.1a251.61,251.61,0,0,1-52,1.21c-4.31-.34-8.61-.8-12.89-1.35l-.34-.05-.57-.08-1.4-.2c-1.17-.16-2.33-.34-3.5-.53q-3.14-.49-6.27-1.07a257.79,257.79,0,0,1-25.45-6,252.18,252.18,0,0,1-24.48-8.52c-3.53-1.43-7.29-3.08-11.23-4.93s-7.77-3.77-11.58-5.81c-1.94-1-3.86-2.11-5.78-3.2a4.5,4.5,0,0,0-4.54,7.77Z"/><path class="cls-2" d="M285.71,44.64c5.66,11.07,16.82,18.3,28.58,21.5,14,3.8,28.69,1.77,42.5-1.72,7.37-1.86,14.63-4.1,21.92-6.25l22.54-6.64c14.7-4.34,28.46-8.4,43.56-7.51,2,.12,4,.32,6,.55a3.62,3.62,0,0,1,.66.09l1.84.28c.92.14,1.85.3,2.76.47,4.16.75,8.28,1.7,12.37,2.75,8.07,2.07,16.05,4.5,24.11,6.59A4.5,4.5,0,1,0,495,46.07c-14.5-3.76-28.74-8.54-43.66-10.44a85.33,85.33,0,0,0-21.6-.07A155,155,0,0,0,407,40.48c-14.63,4.16-29.15,8.66-43.77,12.86a168.25,168.25,0,0,1-21.92,5.09l-.94.14c.85-.12-.7.08-.69.08-.95.11-1.89.2-2.84.28-1.89.16-3.79.26-5.69.28-1.71,0-3.42,0-5.13-.15-.73-.05-1.46-.11-2.18-.19l-.73-.09c-.52-.06-.49-.06.1,0l-.72-.11a53.19,53.19,0,0,1-9.3-2.33c-.81-.28-1.61-.59-2.4-.91,1,.41-.13-.05-.28-.12l-1-.46a45.32,45.32,0,0,1-4.17-2.25c-.72-.44-1.42-.9-2.12-1.38l-.88-.63c-1-.7.71.58-.23-.17a39.31,39.31,0,0,1-3.45-3.12c-.59-.6-1.15-1.21-1.69-1.85-.23-.27-.45-.55-.67-.83.65.81,0,0-.16-.23a33.42,33.42,0,0,1-2.63-4.32,4.52,4.52,0,0,0-6.15-1.61,4.61,4.61,0,0,0-1.62,6.16Z"/><path class="cls-2" d="M280.74,294.46c23.48,14.69,52,20.07,79.28,16.1a109.87,109.87,0,0,0,19.76-4.77,160.82,160.82,0,0,0,20.77-9.18c6.77-3.45,13.45-7.08,20.42-10.12.41-.18.83-.37,1.25-.54l.61-.25,2.54-1c1.84-.71,3.7-1.37,5.58-2,3.45-1.15,7-2.17,10.5-3q6.19-1.51,12.52-2.45l1.35-.2,1.06-.13c1.06-.13,2.12-.24,3.17-.34q3-.28,5.91-.44a153.89,153.89,0,0,1,25.75,1.08c2.35.27,4.6-2.26,4.5-4.5-.12-2.67-2-4.21-4.5-4.5A157.5,157.5,0,0,0,468.65,267a143.44,143.44,0,0,0-22.92,2.55,134.44,134.44,0,0,0-21.47,6A194.93,194.93,0,0,0,403,285.21c-3.31,1.71-6.6,3.44-9.93,5.1q-2.5,1.24-5,2.43l-2.54,1.16-1.27.56-.86.37c.36-.16.29-.13-.21.08a111.82,111.82,0,0,1-18.77,5.76c-1.59.34-3.19.63-4.8.9l-2.41.37c-1.34.2.92-.11-.42.05l-1.62.2c-3.23.36-6.49.58-9.74.67s-6.8,0-10.18-.19c-1.5-.1-3-.22-4.47-.37l-2.43-.28c-.13,0-1.47-.19-.42,0l-1.61-.23a113.15,113.15,0,0,1-21.67-5.53c-1.66-.6-3.31-1.24-4.93-1.92.91.38-.33-.15-.42-.19l-1.49-.66c-.86-.4-1.72-.8-2.58-1.22a105.12,105.12,0,0,1-10-5.53,4.5,4.5,0,0,0-4.55,7.77Z"/><path class="cls-2" d="M458.16,71.57c.8-.64-.31.19.45-.35l1.05-.74q1.06-.72,2.16-1.38c1.47-.88,3-1.68,4.53-2.42.78-.37,1.56-.72,2.35-1.07s-.45.17.52-.21l1-.4q2.41-.94,4.86-1.8c7.16-2.5,14.38-4.86,21.57-7.28,2.22-.75,3.92-3.13,3.14-5.53-.72-2.22-3.15-4-5.54-3.15-7.46,2.52-15,4.94-22.37,7.57-7.2,2.56-14.07,5.61-20.08,10.39-1.85,1.47-1.65,4.85,0,6.37,2,1.8,4.39,1.57,6.36,0Z"/><path class="cls-2" d="M454.84,72.57a165.45,165.45,0,0,0,28.24.47c2.35-.16,4.62-2,4.5-4.5-.1-2.3-2-4.67-4.5-4.5a165.45,165.45,0,0,1-28.24-.47c-2.35-.23-4.6,2.25-4.5,4.5a4.62,4.62,0,0,0,4.5,4.5Z"/><path class="cls-2" d="M481.46,65.68A45.31,45.31,0,0,0,465,79.49c-1.63,2.18,0,6.18,2.69,6.61a39.81,39.81,0,0,1,9,2.55l-2-7.52a46.05,46.05,0,0,0-8.09,8.53l8.23,1.08-.27-1.58c-.39-2.32-3.38-3.83-5.53-3.14a4.63,4.63,0,0,0-3.15,5.54l.27,1.57a4.43,4.43,0,0,0,3.74,3.22,4.65,4.65,0,0,0,4.49-2.14c.31-.42.31-.43,0,0l.37-.47.75-.9q.84-1,1.74-1.89a41,41,0,0,1,3.8-3.42,4.41,4.41,0,0,0,1.16-4.38A4.74,4.74,0,0,0,479.1,80a39.61,39.61,0,0,0-9-2.56L472.81,84q.46-.62,0,0l.34-.42c.23-.29.46-.57.7-.85.51-.6,1.05-1.18,1.6-1.75a40.85,40.85,0,0,1,3.35-3.1c.1-.08,1-.81.55-.45s.61-.45.71-.52c.6-.43,1.2-.84,1.82-1.23a40.91,40.91,0,0,1,4.15-2.3,4.53,4.53,0,0,0,1.62-6.16,4.62,4.62,0,0,0-6.16-1.61Z"/><path class="cls-2" d="M469.71,95.66A69.15,69.15,0,0,0,486.93,97a4.5,4.5,0,0,0,0-9,64.15,64.15,0,0,1-11.75-.49l1.2.16c-1.43-.2-2.86-.44-4.27-.73-2.3-.47-5,.66-5.54,3.14-.51,2.25.68,5,3.14,5.54Z"/><path class="cls-2" d="M485.05,89.54a201.8,201.8,0,0,0-24.56,20.15l7.07,5.45,1.07-1.52a4.53,4.53,0,0,0-1.62-6.16,4.62,4.62,0,0,0-6.16,1.61l-1.06,1.53c-1.29,1.84-.49,4.54,1.16,5.81a4.51,4.51,0,0,0,5.9-.35q5.44-5.25,11.27-10.06c1-.79,1.92-1.57,2.9-2.34l1.37-1.08.13-.1.87-.66c2-1.55,4.11-3,6.2-4.5,1.93-1.35,3-4,1.62-6.16-1.24-1.92-4.09-3.06-6.16-1.62Z"/><path class="cls-2" d="M462.44,117l31.47,11.13,2.4-8.68-.94-.31a4.53,4.53,0,0,0-5.54,3.14,4.6,4.6,0,0,0,3.14,5.54l.94.31a4.53,4.53,0,0,0,5.54-3.14,4.62,4.62,0,0,0-3.14-5.54l-31.48-11.13a4.54,4.54,0,0,0-5.54,3.15,4.61,4.61,0,0,0,3.15,5.53Z"/><path class="cls-2" d="M492.37,120.17q-15.86,10.49-30.69,22.43c-1.85,1.47-1.66,4.84,0,6.36,1.95,1.8,4.39,1.58,6.36,0,4.74-3.81,8.86-7,13.92-10.65s9.9-7,15-10.37c2-1.3,3-4,1.61-6.16-1.26-2-4.06-3-6.16-1.61Z"/><path class="cls-2" d="M463.5,150.34l18.24,11.46,3.46-8.23c.63.32.74.36.32.12a2.26,2.26,0,0,1,.87.81,4.5,4.5,0,1,0-7.78,4.54,7.45,7.45,0,0,0,4.2,3.21,4.5,4.5,0,0,0,3.47-8.22L468,142.57a4.55,4.55,0,0,0-6.16,1.61,4.6,4.6,0,0,0,1.62,6.16Z"/><path class="cls-2" d="M480.84,154.61A131.77,131.77,0,0,1,463,165a4.52,4.52,0,0,0-1.61,6.15,4.62,4.62,0,0,0,6.16,1.62,132.28,132.28,0,0,0,17.81-10.34c1.93-1.33,3-4,1.61-6.15-1.24-1.93-4.08-3-6.15-1.62Z"/><path class="cls-2" d="M462.63,173.42a286.82,286.82,0,0,0,34.12,9c2.31.46,5-.65,5.54-3.14.51-2.24-.67-5-3.14-5.54a286.93,286.93,0,0,1-34.13-9,4.53,4.53,0,0,0-5.54,3.14,4.6,4.6,0,0,0,3.15,5.53Z"/><path class="cls-2" d="M495.35,175.28a219.9,219.9,0,0,0-24.87,19.27,4.53,4.53,0,0,0,0,6.37,4.6,4.6,0,0,0,6.36,0q5.57-5,11.47-9.59c.59-.46-.45.34.15-.11l.71-.54,1.42-1.08,3.06-2.24c2.06-1.47,4.14-2.9,6.25-4.31,2-1.3,3-4,1.61-6.15-1.26-2-4.06-3-6.16-1.62Z"/><path class="cls-2" d="M470.91,202.59a247.06,247.06,0,0,0,21.51,12.84,4.5,4.5,0,1,0,4.54-7.77,243.07,243.07,0,0,1-21.5-12.85,4.54,4.54,0,0,0-6.16,1.62,4.61,4.61,0,0,0,1.61,6.16Z"/><path class="cls-2" d="M490.83,209.34l-17,13.47A4.52,4.52,0,0,0,472.5,226a4.51,4.51,0,0,0,4.5,4.5,5.24,5.24,0,0,0,3.18-1.32l17-13.48a4.45,4.45,0,0,0,1.32-3.18,4.57,4.57,0,0,0-1.32-3.18A4.51,4.51,0,0,0,494,208a5.26,5.26,0,0,0-3.18,1.32Z"/><path class="cls-2" d="M475.79,231.92l9.42,3.85a4.51,4.51,0,0,0,3.46-.45,4.51,4.51,0,0,0,1.62-6.16l-.71-.91a4.52,4.52,0,0,0-2-1.16l-9.42-3.85a4.49,4.49,0,0,0-3.47.46,4.48,4.48,0,0,0-1.61,6.15l.7.91a4.41,4.41,0,0,0,2,1.16Z"/><path class="cls-2" d="M482.69,229.47l-15.25,14.1a4.55,4.55,0,0,0,0,6.37,4.62,4.62,0,0,0,6.37,0l15.25-14.11a4.54,4.54,0,0,0,0-6.36,4.6,4.6,0,0,0-6.37,0Z"/><path class="cls-2" d="M467.48,250.92l9.76,6.07v-7.77l-6.44,4.3a4.76,4.76,0,0,0-2.07,2.69,4.62,4.62,0,0,0,.45,3.47,4.49,4.49,0,0,0,6.16,1.61l6.44-4.3a4.5,4.5,0,0,0,0-7.77L472,243.15a4.5,4.5,0,1,0-4.54,7.77Z"/><path class="cls-2" d="M470.52,261.5c3.58,2,7.07,4.18,10.46,6.51q2.46,1.69,4.85,3.49l.6.45c.35.27.29.22,0,0,.45.34.89.69,1.32,1s.78.62,1.17.93a3.22,3.22,0,0,0,.54.45c.17.17.15.12-.06-.13s-.23-.31-.06,0l-.62-2.28.12-.69,1.16-2-.11.12,2-1.16-.14,0h2.39l2.62,2.71-.46,3.46.05-.09-2.69,2.07.13-.05c2.18-.86,3.95-3.05,3.14-5.54-.68-2.12-3.19-4.06-5.53-3.14a4.71,4.71,0,0,0-1.93,8,4.9,4.9,0,0,0,8.06-2c.78-2.58-.59-4.8-2.53-6.36-1.41-1.14-2.84-2.25-4.29-3.35a137.79,137.79,0,0,0-15.61-10.22,4.5,4.5,0,0,0-4.54,7.77Z"/><ellipse class="cls-2" cx="149.19" cy="38.29" rx="42.14" ry="13.25"/><path class="cls-2" d="M91.72,125.39,85.47,134c-2.08,2.88-4,6.12-4.09,9.78-.13,4.53,2.83,8,6.94,9.48a25.3,25.3,0,0,0,3.54.84c.4.09,1.41.15,1.7.47l-.56-.23.63.35c.91.47-.78-.64.16.2l.12.12a2,2,0,0,1-.67-1.16c.26.85,0-.92.07-1.15.28-1,.33-.67.1-.32l.39-.53c-.4.36-.32.32.26-.14-.22.38-1.1.71-1.48.95A21.52,21.52,0,0,0,90,154.56c-3.27,2.83-5.92,7.77-3.65,12a8.9,8.9,0,0,0,4.95,4A9.23,9.23,0,0,0,93,171c.56.1,1.17.17,1.74.23l.78.08c.58.07.51,0-.2-.05a5.93,5.93,0,0,1,.93.2c.58.05-.85-.64,0,0-1.17-.89.25.67-.7-.69.46.65-.1-.28-.15-.41.34,1,.1-1.19,0-.15-.11,1.21,0-.07.05-.08s-.18.7-.16.65c-.19.52-.14.43.15-.26-.09.21-.19.41-.3.62s-.24.39-.35.59c-.32.45-.25.39.19-.2-.14.17-.28.34-.44.5-.55.59-1.17,1.13-1.77,1.68A22.31,22.31,0,0,0,88.86,178a10.36,10.36,0,0,0,.68,12.57,5.12,5.12,0,0,0,7.21,0,5.22,5.22,0,0,0,0-7.21c.91,1.05,0-.56.48.82-.33-.93.12.35,0,.37l0-.34c0-.57,0-.46-.09.32a3.33,3.33,0,0,0,.16-.69c.19-1.09-.54.86,0-.09.11-.2.24-.4.35-.6.65-1.09-.68.66.22-.23.28-.29.56-.59.85-.87,2.14-2.06,4.37-3.88,5.6-6.67,1.61-3.66,1.76-7.83-1-11a9.14,9.14,0,0,0-4.61-2.76,21.26,21.26,0,0,0-2.88-.42l-.77-.08c-.6-.06-.52-.05.26,0a5,5,0,0,1-.67-.16c-.83-.15.41,0,.26.15s-1.34-1.21,0,0a2.91,2.91,0,0,1,.69,1.17v1.51c.17-.57.17-.58,0-.05.13-.23.27-.45.4-.67.61-1.07-.73.66.14-.22.19-.18.36-.38.54-.57l.58-.52c-.47.35-.55.41-.25.2,3.15-1.89,6.23-4.21,6.41-8.22.2-4.29-3.08-7.39-6.78-8.86a20.9,20.9,0,0,0-3.48-.89c-.6-.12-1.17-.29-1.76-.44-1.08-.28.63.42.09,0-1-.73.4.66-.21-.12.72.92.25.38.15.15.25.68.29.75.13.22.07.78.08.88,0,.31s-.27-.51-.1.26a3.39,3.39,0,0,1,.34-1.3c.13-.38.11-1,0-.07A3.74,3.74,0,0,1,92.4,142a24,24,0,0,1,1.31-2c2.25-3.15,4.54-6.28,6.82-9.42,1.57-2.17.44-5.78-1.83-7a5.25,5.25,0,0,0-7,1.83Z"/><path class="cls-2" d="M159.9,121.65a28.57,28.57,0,0,0-7.28,4.88A23.89,23.89,0,0,0,147.4,133a7.46,7.46,0,0,0-.16,6.89,11.6,11.6,0,0,0,3.91,4.12,31.3,31.3,0,0,0,3.56,2.17l1.47.8a8.41,8.41,0,0,1,2.13,1.33c-.08-.09-.84-.75-.15-.09l.55.52c.18.19,1.13,1,.19.13a3.08,3.08,0,0,1,.42.62,3.16,3.16,0,0,1,.37.66l-.22-.55c.08.22.16.45.22.68.24.61-.28.22,0-.3a3,3,0,0,1,0,.52c0,.4,0,.24.08-.47-.22,1.08.44-.59.07,0-.17.26-.52,1.07.08.06a6.75,6.75,0,0,1-1,1.1,29.34,29.34,0,0,0-3.22,3.28c-2.41,3.12-3.16,7.51-.7,10.86a15.24,15.24,0,0,0,2.84,2.89c.12.11,1.33,1,1.28,1.19s-.66-1.09-.17-.19a4,4,0,0,1,.26.45c.17.34.11.2-.17-.43.1,0,.19.72.23.83.15.41,0-1.15,0,0,0,.29,0,.59,0,.88,0,1.15.27-1.05,0,.07-.06.23-.11.47-.18.7s-.14.46-.22.69L159,172a17.62,17.62,0,0,1-1.06,1.77c.11-.15.67-.75,0-.07-.27.3-.54.61-.83.89a23.8,23.8,0,0,1-1.84,1.63c.15-.11.82-.6,0,0-.33.24-.67.49-1,.72-.68.47-1.37.92-2.06,1.37-2.23,1.46-3.37,4.59-1.83,7,1.44,2.23,4.59,3.39,7,1.83,5-3.25,10.32-7.18,11.62-13.37a13.54,13.54,0,0,0-1.15-9.4A12.1,12.1,0,0,0,165,161c-.36-.3-.74-.58-1.09-.9s-.4-.41-.62-.59-.17-.15.26.39c-.27-.47-.25-.35.06.35-.12-.39,0-.61,0,.24,0,1-.15.55,0,.21-.52,1.16.09,0,.21-.23-.11.17-.67.72,0,.05.9-.93,1.93-1.73,2.82-2.67a10.74,10.74,0,0,0,2.93-10.09,14.4,14.4,0,0,0-5.8-8c-2.13-1.57-4.6-2.58-6.79-4.05,0,0-1-.84-.48-.34s-.43-.45-.53-.54l-.13-.14a2.4,2.4,0,0,1,.79,1.94c0,1.6-.71,2-.05.92.14-.22.29-.44.44-.65s.3-.43.45-.65c-.36.46-.42.54-.19.26.47-.56.93-1.11,1.43-1.63s.94-.93,1.43-1.36l.75-.63c.29-.23.21-.17-.25.19l.64-.46a25.47,25.47,0,0,1,3.78-2.13c2.43-1.11,3.22-4.82,1.83-7a5.23,5.23,0,0,0-7-1.83Z"/><path class="cls-2" d="M51.39,203.32c-5.57,7.06-14.46,24.31-1.5,28.82,4.23,1.46,8.49.09,12.46-1.37a23.91,23.91,0,0,1,3.09-.94,3.89,3.89,0,0,1,.77-.15c-1.18,0-.5.07-.22.07h.75c.47,0,.48,0,0,0s-.42,0,0,.05l.17.06c.36.12.23.07-.37-.16.12,0,.55.41.64.4s-1.07-.7-.29-.17c.57.39-.4.24-.21-.31,0,0,.34.55.32.52.38.59-.35,0-.15-.38.06-.1.18,2,.28.86.07-.87,0,.59,0,.81q0,.69,0,1.38c0,1-.17,2-.3,3a37.59,37.59,0,0,0-.45,7,58.31,58.31,0,0,0,1.38,9.1,59.18,59.18,0,0,0,1.65,6.45c1.62,4.83,4.5,9.42,9.35,11.51s10,1.81,15,.44c4.3-1.19,8.26-3.29,12.54-4.55a30.59,30.59,0,0,1,3.14-.77c.17,0,1-.19.3-.06s.11,0,.29,0c.58,0,1.16-.08,1.74-.08a4.21,4.21,0,0,1,1.51.09c-.67-.34-.73-.13-.24,0,.24.06.48.1.72.17s.48.15.72.21c1,.28-.21,0-.17-.1a15.89,15.89,0,0,1,1.67.94c.24.15.79.37-.07-.07a3.83,3.83,0,0,1,.61.51c.41.35.82.7,1.23,1a16.28,16.28,0,0,0,4.41,2.62,14.15,14.15,0,0,0,8,.38c5-1.05,9.13-4.55,12.26-8.47.9-1.11,1.76-2.25,2.62-3.39l.52-.68c.09-.12.64-.83.25-.33s.16-.2.26-.32.44-.55.67-.82a28.38,28.38,0,0,1,2.25-2.4c.24-.22,1.41-1.18.53-.51a16,16,0,0,1,1.69-1.13,4.46,4.46,0,0,1,1.42-.73c-.11,0-1.07.34-.11.08.25-.07.49-.16.75-.22.09,0,.76-.18.76-.17s-1.3,0-.2,0h.78c1,0-.58-.18,0,0s1,.23,1.53.4c.16.06,1,.36.32.1s.15.08.3.15c1,.49,2,1.05,3.06,1.55,4.32,2.08,9,2.91,13.57,1.16,4-1.52,7.27-4.09,10.62-6.71a9.36,9.36,0,0,1,1.06-.82c-1.17.67,0,0,.3-.22.79-.6,1.6-1.19,2.44-1.73s1.47-.93,2.24-1.34c.15-.08,1.11-.43,1.15-.57,0,.06-1.2.45-.33.15.25-.09.49-.19.74-.27a19.63,19.63,0,0,1,2.62-.64c.46-.08.92-.14,1.39-.21.71-.11-1,.13-.3,0l1.88-.25a22.3,22.3,0,0,0,6.52-1.73,11.69,11.69,0,0,0,5.41-5.13,27.12,27.12,0,0,0,2.11-7.64l2.88-16.21,1.42-8L212,207.21c-1.55.24,0,.08.31.07,1-.05-1.11-.32.12,0,.54.14,2.08.3,2.42.76l-.58-.25.64.29,1.27.61c.75.37,1.49.74,2.24,1.09,3.83,1.76,8,3,12.17,1.65,7.54-2.41,11.13-10.22,13.35-17.2a5.14,5.14,0,0,0-3.56-6.27,5.2,5.2,0,0,0-6.27,3.56c-.24.74-.48,1.47-.75,2.2l-.36,1c-.08.21-.17.42-.25.64.29-.7.33-.79.11-.28a29.48,29.48,0,0,1-2.08,3.88s-.56.82-.57.81c.48-.6.54-.69.2-.27-.1.13-.2.25-.31.37-.31.35-1.3,1-1.45,1.4.63-.47.74-.56.3-.25-.12.09-.25.17-.38.25s-.76.29-.92.5c.71-.29.89-.37.52-.23l-.43.14c-.23.07-1.42.19-.53.17s-.45,0-.61,0h-.34c-.57,0-.46,0,.34.08,0,0-2.19-.57-2.31-.62-.37-.13-1.32-.23-.08,0a4.38,4.38,0,0,1-1-.44c-.75-.35-1.49-.73-2.24-1.09-3.85-1.88-7.4-3-11.73-2.36a4.92,4.92,0,0,0-3.56,3.56L203,216.41l-1.37,7.74c-.22,1.23-.43,2.47-.66,3.7-.09.47-.19.94-.3,1.4-.07.27-.14.53-.22.79s-.12.38-.2.57l.21-.47c0,.12-.31.57-.38.71-.54,1,.11-.18.12-.12s-.46.48-.46.48c-.51.57.08-.38.28-.19,0,0-.87.48-1,.57-.48.4.94-.3.32-.13-.26.07-.52.18-.78.26a20.12,20.12,0,0,1-2.67.57c-.24,0-1.49.22-.71.11l-.2,0-1.89.25a25.23,25.23,0,0,0-10.7,4.11c-1.74,1.17-3.4,2.48-5,3.78l-1.06.82a4.07,4.07,0,0,1-.52.41c.09-.05,1-.72.25-.19s-1.39,1-2.11,1.53-1.39.93-2.12,1.34l-.95.5c-.18.09-.36.16-.54.26-.55.29,1.1-.4.26-.12a13.4,13.4,0,0,0-2.26.62c.08-.05,1.33-.11.49-.08-.15,0-.29,0-.44,0a6.06,6.06,0,0,0-1.34,0c.51-.19,1.07.19.44.06l-.7-.15c-.36-.1-1.25-.22-1.51-.5.05.06,1.05.49.11,0l-.54-.26-1.62-.83a21.82,21.82,0,0,0-7.8-2.58c-5.21-.53-10.28,2.38-13.91,5.87a50.13,50.13,0,0,0-4.86,5.82c-.34.46-.69.91-1,1.36-.12.16-.6.75,0,0l-.53.66a33.76,33.76,0,0,1-2.24,2.55c-.39.4-.83.76-1.23,1.16-.16.16-.69.69.15-.08a5.47,5.47,0,0,1-.63.44c-.37.26-.76.49-1.15.71-.23.12-.47.22-.69.35-.52.32.89-.29,0,0a15.16,15.16,0,0,1-1.45.45,7.36,7.36,0,0,0-.74.15c.07-.1,1.25-.06.25-.05H126c-.7,0,.94.24.27,0-.28-.09-.59-.15-.88-.23-1-.27.23,0,.2.09s-.6-.33-.68-.38a3.19,3.19,0,0,1-.66-.45c.07.09.84.7.1,0a34.43,34.43,0,0,0-3.22-2.56,16.61,16.61,0,0,0-7.48-2.55c-4.5-.55-9.17.71-13.36,2.29-3.94,1.49-7.73,3.3-11.91,4a6.66,6.66,0,0,1-.76.12c1.22-.06.48-.06.22-.05-.5,0-1,.08-1.5.08s-.86,0-1.29,0c-.21,0-1-.19-.22,0l-.39-.1c-.22-.05-1.28-.21-1.37-.4,0,0,1.13.57.22.09l-.64-.34c-.23-.13-1.2-.84-.71-.44s-.08-.09-.2-.2-.43-.45-.65-.66c-.73-.72.15.08.09.17s-.37-.53-.42-.61a14.78,14.78,0,0,1-.75-1.28c-.12-.23-.63-1.37-.38-.76s0-.12-.09-.28-.22-.6-.32-.9a61.83,61.83,0,0,1-1.58-6.27c-.28-1.28-.54-2.57-.75-3.86-.06-.32-.11-.65-.15-1,0,.1.06.74,0,.14s-.14-1.46-.17-2.19a38.68,38.68,0,0,1,.48-6.54c.58-4.51.53-9.32-2.71-12.89-3.88-4.26-9.82-3.83-14.76-2-.94.34-1.86.74-2.81,1.06-.76.26-1.72.28-2.44.59.85-.37.91-.09.41-.08l-.62,0a6.4,6.4,0,0,0-1.23,0c.13,0,1.26.28.48,0a2.86,2.86,0,0,0-.42-.1c-.21,0-.81-.32,0,0s.06,0-.13-.11c-.7-.34.37.19.39.31s-.32-.36-.37-.39.71,1.05.34.35l.14.34c.18.49.18.46,0-.08.11,0,0,1.23,0,0,0-.22,0-.45,0-.67,0-.77-.2.74,0,0,.1-.34.15-.7.23-1.05a33.12,33.12,0,0,1,1-3.27c.16-.47.35-.93.52-1.4.27-.71-.35.73,0,0,.15-.31.29-.64.45-1a30.8,30.8,0,0,1,1.64-3c.27-.42.54-.84.82-1.25.13-.19,1.31-1.75.6-.85a5.56,5.56,0,0,0,1.49-3.61,5.16,5.16,0,0,0-1.49-3.6c-1.84-1.69-5.45-2.24-7.22,0Z"/></g></g></svg>