<svg xmlns="http://www.w3.org/2000/svg" xmlns:xlink="http://www.w3.org/1999/xlink" viewBox="0 0 412.32 532.22" xmlns:v="https://vecta.io/nano"><defs><linearGradient id="A" x1="409.97" y1="358.72" x2="77.78" y2="166.93" gradientUnits="userSpaceOnUse"><stop offset="0" stop-color="#fff"/><stop offset=".05" stop-color="#e8e9ea"/><stop offset=".18" stop-color="#b6b9bd"/><stop offset=".24" stop-color="#a2a6ab"/><stop offset=".28" stop-color="#a9acb1"/><stop offset=".34" stop-color="#bbbec1"/><stop offset=".41" stop-color="#d9dbdd"/><stop offset=".49" stop-color="#fff"/><stop offset=".55" stop-color="#e0e1e3"/><stop offset=".64" stop-color="#bec1c5"/><stop offset=".71" stop-color="#aaadb2"/><stop offset=".76" stop-color="#a2a6ab"/><stop offset="1" stop-color="#fff"/></linearGradient><linearGradient id="B" x1="198.6" y1="521.07" x2="289.39" y2="6.18" gradientUnits="userSpaceOnUse"><stop offset=".7" stop-color="#a2a6ab"/><stop offset="1" stop-color="#efefef"/></linearGradient><linearGradient id="C" x1="364.94" y1="331.24" x2="123.75" y2="191.99" xlink:href="#A"/><linearGradient id="D" x1="210.83" y1="451.68" x2="277.86" y2="71.55" xlink:href="#B"/><linearGradient id="E" x1="340.64" y1="357.37" x2="4.45" y2="163.27" xlink:href="#A"/><linearGradient id="F" x1="109.74" y1="517.05" x2="201.14" y2="-1.3" xlink:href="#B"/><linearGradient id="G" x1="312.05" y1="323.93" x2="195.36" y2="256.56" xlink:href="#A"/><linearGradient id="H" x1="248.35" y1="369.91" x2="281.75" y2="180.49" xlink:href="#B"/><linearGradient id="I" x1="279.01" y1="287.02" x2="223.1" y2="254.75" gradientUnits="userSpaceOnUse"><stop offset="0" stop-color="#fff"/><stop offset=".13" stop-color="#e0e1e3"/><stop offset=".29" stop-color="#bec1c5"/><stop offset=".43" stop-color="#aaadb2"/><stop offset=".52" stop-color="#a2a6ab"/><stop offset="1" stop-color="#fff"/></linearGradient><linearGradient id="J" x1="244.83" y1="298.36" x2="254.44" y2="243.84" xlink:href="#B"/><path id="K" d="M408.32,259.46c0,141.09-73.27,264.14-163.65,264.14S81,400.55,81,259.46,154.28,4,244.67,4,408.32,118.37,408.32,259.46Z"/></defs><use xlink:href="#K" stroke-miterlimit="10" stroke-width="8" fill="url(#A)" stroke="url(#B)"/><g stroke-width="7"><ellipse cx="244.35" cy="261.62" rx="116.85" ry="191.3" fill="url(#C)" stroke="url(#D)"/><g stroke-miterlimit="10"><path d="M 207.13 5.42 L 143.11 6.53 L 98.23 31.24 L 72.24 55.18 L 61.55 70.31 L 34.32 111.54 L 23.86 136.29 L 10.76 183.79 L 5.64 219.18 L 3.75 255.76 L 3.75 287.4 L 9.09 320.98 L 18.89 363.6 L 34.32 405.73 L 48.31 437.61 L 74.19 469.47 L 108.2 498.05 L 133.75 510.82 L 167.08 523.6 L 201.23 528.38 L 244.67 523.6 L 211.16 517.85 L 189.14 507.48 L 162.29 488.74 L 141.14 462.5 L 124.21 432.74 L 107.64 401.82 L 95.17 365 L 88.68 325.39 L 81.01 286.83 L 81.01 220.15 L 93.75 160.49 L 114.76 104.09 L 135.24 62.88 L 167.49 33.69 L 207.13 5.42 Z" fill="url(#E)" stroke="url(#F)"/><path d="M 184.86 351.98 L 239.3 180.45 L 326.03 299.71 L 184.86 351.98 Z" fill="url(#G)" stroke="url(#H)"/><path d="M 209.43 278.43 L 222.7 266.83 L 241.38 255.76 L 266.02 252.21 L 279.56 252.49 L 289.63 253.74 L 290.02 263.8 L 287.7 271.98 L 277.67 284.82 L 263.19 291.77 L 244.35 291.77 L 227.81 291.77 L 209.43 286.26 L 209.43 278.43 Z" fill="url(#I)" stroke="url(#J)"/></g></g><use xlink:href="#K" stroke-miterlimit="10" stroke-width="8" fill="none" stroke="#000"/><path d="M144.38 10.28l86.77-1.53 24.43-.44a3.8 3.8 0 0 0 3.75-3.75 3.82 3.82 0 0 0-3.75-3.75l-86.76 1.54-24.44.43a3.8 3.8 0 0 0-3.75 3.75 3.8 3.8 0 0 0 3.75 3.75z"/><path d="M142.49 3.3c-6.19 2.7-12.57 4.85-18.74 7.58a112.71 112.71 0 0 0-16.81 9.51 201.17 201.17 0 0 0-27.63 22.19A231.42 231.42 0 0 0 36.54 99C11 145.87.58 200.29 0 253.29-.5 303.65 8.67 354.55 28.23 401c9.26 22 20.66 43.71 35.72 62.34A183.86 183.86 0 0 0 112.22 505c35.39 21.3 78.35 31.92 119.45 25.26a139.44 139.44 0 0 0 14-3c4.66-1.26 2.68-8.5-2-7.23-38.44 10.42-80.31 3.09-115.44-14.7a183 183 0 0 1-49.47-36.42C63.15 452.57 51.47 433 41.7 412.76c-21.32-44.13-32.25-93.27-34-142.14-1.78-51.72 5.99-105.49 27.75-152.76a234.08 234.08 0 0 1 37.73-58.14A206.7 206.7 0 0 1 98.22 36c9.22-7.36 19.27-14.3 30.14-19 5.92-2.54 12-4.67 17.92-7.22 1.87-.8 2.25-3.52 1.34-5.13-1.1-1.93-3.28-2.14-5.13-1.34z"/><ellipse cx="244.35" cy="261.62" rx="116.85" ry="191.3" stroke-width="7" fill="none" stroke="#000"/><path d="M186.72,356q11.29-34.83,22.11-69.81T230,216q5.79-19.69,11.42-39.44c1.06-3.72-4.72-5.31-5.78-1.6q-10.05,35.2-20.58,70.27t-21.56,70q-6.18,19.59-12.51,39.11a3,3,0,0,0,5.78,1.6Z"/><path d="M236.41,177.78q15.72,24.54,32.54,48.36t34.91,47q10,12.9,20.41,25.55a3,3,0,0,0,4.24,0,3.07,3.07,0,0,0,0-4.24q-18.24-22.25-35.44-45.31t-33.5-47.12q-9.16-13.53-18-27.31a3,3,0,0,0-5.18,3Z"/><path d="M186.21 357.07c18.59-7 36.94-14.58 55.23-22.31l54.64-23 31.11-12.25a3.08 3.08 0 0 0 2.09-3.69 3 3 0 0 0-3.69-2.09c-18.59 7-36.94 14.57-55.23 22.31L215.72 339l-31.11 12.25a3.08 3.08 0 0 0-2.09 3.69 3 3 0 0 0 3.69 2.09zM209.72 283a31.37 31.37 0 0 1 4.29-5.05 73.49 73.49 0 0 1 5.75-5.12 89.53 89.53 0 0 1 12-8.26c10.67-6.06 23.49-8.65 35.65-9.22a97.4 97.4 0 0 1 21.43 1.32 3.09 3.09 0 0 0 3.69-2.1 3 3 0 0 0-2.09-3.69 105 105 0 0 0-41.23.93 77.48 77.48 0 0 0-18.51 6.52 88.83 88.83 0 0 0-13.48 8.91c-4.71 3.66-9.37 7.71-12.67 12.73a3 3 0 1 0 5.18 3z"/><path d="M209.64 288.85a70.49 70.49 0 0 0 18.9 6.48c7.1 1.19 14 .67 21.16.06 6.94-.6 14.37-.64 21-2.94s11.17-7 14.6-12.92c1.92-3.32 3.56-6.8 5.29-10.23l6.06-12a3.09 3.09 0 0 0-1.08-4.11 3 3 0 0 0-4.1 1.08l-9.81 19.42c-2.67 5.12-5.83 10.17-11.35 12.54-5.76 2.47-12.49 2.48-18.63 3-6.59.57-13.19 1.36-19.79.58s-13.16-3.21-19.23-6.13a3.09 3.09 0 0 0-4.11 1.08 3 3 0 0 0 1.08 4.1zM185.38 52a6.7 6.7 0 0 0-.1-.9l-.1.37c.86-1 1.44-3.28 3.22-2.54l-.84-.83a17.94 17.94 0 0 1 1.09 3.57 14.82 14.82 0 0 1 .14 3.52 15.23 15.23 0 0 1-1.79 6.62c-1 1.92 1.49 4 3.08 2.38a15.06 15.06 0 0 1 4.85-3.6 14.73 14.73 0 0 1 2.77-.85 8.42 8.42 0 0 1 1.15-.17 10.18 10.18 0 0 0 2-.21 2 2 0 0 0 0-3.81 9.21 9.21 0 0 0-4.23.23A17.73 17.73 0 0 0 193 57a15.48 15.48 0 0 0-6 4.78l3.59 1.52a20.75 20.75 0 0 0-.34-15.17c-.28-.66-.46-1.29-1.17-1.57a3.09 3.09 0 0 0-1.34-.2 4.12 4.12 0 0 0-2.51 1.15A3.85 3.85 0 0 0 184 50a1.62 1.62 0 0 0 .35 1.21c.31.34.44.7.86.9a.14.14 0 0 0 .2-.12zm26.39-12.32a10.38 10.38 0 0 0-1.89 1.67 7.37 7.37 0 0 0-1.28 2.33 12.55 12.55 0 0 0-.55 5.13c.37 3.47 2.28 7.27 5.89 8.28a5.13 5.13 0 0 0 4.83-1.09 6.11 6.11 0 0 0 1.77-4 16.46 16.46 0 0 0-2.18-9 12.31 12.31 0 0 0-3.5-4.34 3.62 3.62 0 0 0-2.58-.81 2.67 2.67 0 0 0-1.31.32c-.05 0-.41.24-.1.09-.25.12-.5.2-.75.33-.64.34-.28 1.22.35 1.28a2.91 2.91 0 0 1 .4.05c-.15 0-.15-.08 0 0l.74.41c.22.13.44.38.69.53a8.73 8.73 0 0 1 .78.45 8.4 8.4 0 0 1 2.13 2.6 15.31 15.31 0 0 1 2.15 6.48 7 7 0 0 1 0 1.58 5.44 5.44 0 0 1-.34 1.08 1.87 1.87 0 0 1-.58.68 2.06 2.06 0 0 1-1.4.33c-2.41-.31-3.69-3.22-4-5.31a9.7 9.7 0 0 1 .29-4.25c.2-.72.4-1.46.65-2.16.05-.14.11-.27.16-.4s.06-.48.13-.74a3.89 3.89 0 0 1 .48-.84c.38-.6-.43-1.1-.92-.71zm23.67.57c1.74-1.11 4.12.33 4.95 1.83a1.81 1.81 0 0 1 .24.58 4 4 0 0 1 .14.92 6.64 6.64 0 0 1-.42 2.57 22.2 22.2 0 0 1-2.73 4.62c-1.14 1.72 1.09 3.79 2.78 2.78l.5-.28c.33-.18-.09 0 .12-.06a8.67 8.67 0 0 1 1-.3c.05 0 .66-.1.2 0h.47 1c.3 0-.15-.05.09 0l.47.1.55.15c.09 0 .61.23.19 0a8.37 8.37 0 0 1 .84.44l.47.32c-.3-.22 0 .05.14.14a2.19 2.19 0 0 0 3.1-3.09 9.55 9.55 0 0 0-11.19-.97l2.78 2.78c1.92-3.58 4.09-9 1.18-12.6-1.81-2.25-5.74-3.5-7.76-.86-.4.53.37 1.21.89.89zm36.32 3.45l.16-.3c-.07.13 0 0 .07 0-.11.12 0 0 .07 0-.17.06 0 0 .06 0h0 .34a2 2 0 0 1 .34 0c-.19 0 0 0 .05 0 .42.13.41.09.68.44-.16-.21.1.26.13.36a2.18 2.18 0 0 1 .09.82 6.48 6.48 0 0 1-1.36 3.31l-2.48 3.76c-.62 1.15-.16 3 1.32 3.26a6.17 6.17 0 0 1 1.34.36c-.4-.16.26.15.27.16l.61.32.59.38c-.28-.2 0 0 .13.13a5.66 5.66 0 0 1 .49.49 2.85 2.85 0 0 1 .23.26c-.13-.17-.14-.18 0 0a16.4 16.4 0 0 0 1.53 2.55 3.06 3.06 0 0 0 4.29.26 2.3 2.3 0 0 0-.46-3.58 1.36 1.36 0 0 0-1.66.18l1.29-.34c-.77-.3.42.11.6.59-.06-.15-.24-.37-.32-.52l-.51-1a9.17 9.17 0 0 0-7.79-4.59l2.14 2.77c.6-1.74 2-3.24 2.73-5a7.53 7.53 0 0 0 .22-6.39c-1.54-3.11-6.87-3.65-8 .11-.47 1.62 2 2.77 2.78 1.18zM165.77 434.63c-.42-2.33-2.61-3.87-4.8-4.4a16.46 16.46 0 0 0-7.45.29 2.07 2.07 0 0 0-1.46 1.46 5.47 5.47 0 0 0 1.36 4.93l1.42 1.72c-.19-.25 0 0 .06.11s.18.27.26.42.21.6.08.14c0 .06.14.57.09.27s0 .32 0 .35c.05-.41-.15.14 0-.05s-.17.27-.2.31c.29-.41-.32.28.06 0a3.66 3.66 0 0 1-.52.28c-.15.09-.49.21-.15.1a4.26 4.26 0 0 1-.7.19c.39-.05.09-.06-.13-.07s-.16 0 0 0l-.29-.06-.85-.26-.57-.16-.41-.13c-1.18-.49-2.2-1.27-3.41-1.69l2.15 2.83a3.37 3.37 0 0 0-1.65-3l.61.61a3.24 3.24 0 0 0-.56-.72.93.93 0 0 0-.91-.24 3.86 3.86 0 0 0-.87.35l.87-.23a3.38 3.38 0 0 0-2.95 1.77 3 3 0 0 0 .46 3.55 13.89 13.89 0 0 0 4.1 2.29 8.09 8.09 0 0 0 4.12.6 7.53 7.53 0 0 0 6-4.24c1-2.33.17-4.53-1.37-6.36l-1.64-1.8c-.34-.37.13.23-.12-.15l-.29-.46c-.11-.22-.1-.21 0 0a2.27 2.27 0 0 1-.06-.25c0-.16 0-.11 0 .14 0-.25 0-.24 0 0l-1.46 1.46a13.6 13.6 0 0 1 5.26-.88c1.34.07 2.61.28 3.2 1.7a1.39 1.39 0 0 0 2.68-.74zm6.04 8.44a24.72 24.72 0 0 0-4.09 3.43l-3.93 3.76-3.7 3.78-3.78 3.92a2.121 2.121 0 0 0 3 3 3.24 3.24 0 0 0 1.07-2.44 4.93 4.93 0 0 0-.37-1.94c-.15-.37-.75-.58-1-.12a1.36 1.36 0 0 1-.38.45c-.39.41.2-.05-.21.23h-.18c.29 0 .16 0-.39.07-.2 0-.4.15-.61.2l2 3.5 3.65-3.83 3.74-4 3.51-4a25.65 25.65 0 0 0 3.38-4.35 1.28 1.28 0 0 0-1.74-1.74z"/><path d="M162 447.91a2.78 2.78 0 0 0 .73 1.71l-.2-.47a5.83 5.83 0 0 0 2.07 2.47 10 10 0 0 0 1.24 1 3.38 3.38 0 0 0 1.84.68l-.47-.06c-.25-.11-.29-.12-.11 0l.4.17c.52.08.59.08.21 0l.15.06a1.72 1.72 0 0 0 1.35-.1l-.87.11a1.15 1.15 0 0 0 1.28-.28 1.28 1.28 0 0 0 0-1.37l.12.87a1.69 1.69 0 0 0-.21-1.4c-.1-.21-.06-.05.11.47a1.22 1.22 0 0 0-.15-.65c-.07-.17-.18-.32-.25-.49l.24.9a3 3 0 0 0-.72-1.72 7.55 7.55 0 0 0-1.13-1.2l-.85-.81a4.3 4.3 0 0 0-1.78-1.1l.47.2-.61-.32a3.11 3.11 0 0 0-.62-.28 2.25 2.25 0 0 0-1 0 1.69 1.69 0 0 0-1.23 1.61zm6.38 17.55l.22.25a2 2 0 0 0 2.4.29 22.29 22.29 0 0 0 6.28-6.15 2 2 0 0 0-.53-2.62 2 2 0 0 0-2.67.16l-4.4 5.52a2.14 2.14 0 0 0-.16 2.74 2.08 2.08 0 0 0 2.69.53 23.44 23.44 0 0 1 2.1-1.12c-.42.19.07 0 .17-.05s.4-.13.6-.18.75-.12.23-.07h.5.43c-.52 0-.21 0 0 0l.28.08c.17.06.18.06 0 0s-.16-.07 0 0l.24.14.12.07q.28.19-.09-.09a2 2 0 0 1 .3.28c.23.21.83.58.32.26.24.15.45.38.71.53a1.94 1.94 0 0 0 2.88-1.63c.13-2.47-2.86-3.78-4.91-3.89s-4.21 1-6 2.09l2.85 2.86 2.09-2.71.26-.33.15-.2.16-.21.25-.33 1.09-1.39-3.2-2.47-.55.78v.07l-.32.41q-.59.71-1.23 1.35c-.43.43-.88.83-1.35 1.22l-.34.27c-.18.15.22-.16-.08.06l-.85.6a2 2 0 0 0-.92 2.25 2.12 2.12 0 0 0 .29.63zm15.98 2.93l.08.12-.07-.53a1.64 1.64 0 0 0 .14 1.67 4.91 4.91 0 0 1 .29.6c.08.23.14.47.2.71 0 0 .09.49 0 .19a5.67 5.67 0 0 1 .05.58 6.27 6.27 0 0 1 0 .75c0-.35 0 .13 0 .16s-.07.29-.11.43l-.22.71c0 .06-.21.5 0 .14l-.27.53-.24.37c-.23.4.15-.16 0 .05a5.12 5.12 0 0 1-.55.59c-.06.05-.44.32-.08.08l-.38.24c-.28.17-.58.31-.87.46-1.51.78-3.09 2.29-2.53 4.17s3.38 3.1 4.58 1.12a1.59 1.59 0 0 0-.16-1.95 1.31 1.31 0 0 0-.85-.36 1.2 1.2 0 0 1 .52.15c.37.22.27.22.14.09a2 2 0 0 0-.43-.34c.24.2.29.23.14.1a1.2 1.2 0 0 0-.23-.22c-.3-.22.19.31.07.11s.16.5.07.13v.76q.1-.33 0 0c.35-.35-.23.31.08-.09s-.27.15.12-.11l.86-.54a7.42 7.42 0 0 0 2.75-2.92 8.05 8.05 0 0 0-.86-8.58 1.33 1.33 0 0 0-1.31-.35l-.31.07.54.07-.12-.08a.67.67 0 0 0-.91.91z"/><path d="M183.62 474.28a4.79 4.79 0 0 0-1.73-.94 9.08 9.08 0 0 0-1.79-.32 5.43 5.43 0 0 0-1.83.28 7.28 7.28 0 0 0-1 .39 2.74 2.74 0 0 0-1.15.94 3.42 3.42 0 0 0 .64 3.63 4.05 4.05 0 0 0 3.54 1.47 2 2 0 0 0 .65-.2c.2-.07-.41.16-.18.08a5.25 5.25 0 0 0 .55-.22 1.69 1.69 0 0 0 1.14-1.83v.59c0 .23-.09.21 0 .09a1.11 1.11 0 0 0-.08-1.34.94.94 0 0 0-.8-.24.77.77 0 0 0-.36.12h0c.18-.07 0 0-.07 0h.53l.49.29a1.61 1.61 0 0 0-1.11-.37h-.39c-.13 0 .4.08.2 0h-.1c-.2 0 .35.17.18.09a2.45 2.45 0 0 0-.57-.21 3.13 3.13 0 0 1-.57-.18l.4.17-.71-.31.4.17a3.84 3.84 0 0 1-.53-.28c-.33-.22.29.26.07.06l-.22-.22-.09-.1c-.12-.13.27.38.15.19l-.14-.23c-.04-.08-.06-.28.08.2l-.05-.12a1.5 1.5 0 0 1-.06-.29l.06.44a1.62 1.62 0 0 1 0-.44l-.06.44a.57.57 0 0 1 0-.18l-.43.73c-.42.34-.1.08 0 0l.28-.19c.18-.11.39-.19.58-.31l-.15.06.16-.05.32-.1.6-.13.28-.07h.15c.15 0 .11 0-.12 0h.34.16-.1a9.92 9.92 0 0 1 1.28.31 1.14 1.14 0 0 0 1.1-1.9zm8.6 8.96a7.74 7.74 0 0 0 3.49-5.13 1.55 1.55 0 0 0-.69-1.7 1.51 1.51 0 0 0-1.83.23 12 12 0 0 0-2.57 6.54 1.59 1.59 0 0 0 1.16 1.52 1.58 1.58 0 0 0 1.77-.72l.29-.6s.18-.27.08-.14.09-.09.11-.11l.84-.91a3.2 3.2 0 0 1 .27-.25l.11-.1c-.15.12.08-.06.11-.08l.25-.16a13.1 13.1 0 0 1 1.16-.64c.22-.12-.26.08 0 0l.28-.1a6.55 6.55 0 0 1 .63-.19c.19 0 .38-.08.58-.12s.1 0-.05 0h.37a8.61 8.61 0 0 1 1.24 0c-.41 0 .09 0 .23.06s.48.13.71.21l-1.29-2.27q-1 2.53-2 5l-1 2.48a9.84 9.84 0 0 0-.45 1.25 4 4 0 0 0 .09 1.83 1.48 1.48 0 0 0 2.15.88 4.3 4.3 0 0 0 1.29-1.22 9.75 9.75 0 0 0 .62-1.49l1-2.59q.91-2.61 1.88-5.2a1.86 1.86 0 0 0-1.28-2.26 9.18 9.18 0 0 0-6.69.56 8.59 8.59 0 0 0-2.55 1.85 9.13 9.13 0 0 0-1.8 3l3.09.42a8.77 8.77 0 0 1 1.79-4.71l-2.76-1.16a7.52 7.52 0 0 1-2.14 3.91 1.29 1.29 0 0 0 1.56 2zm22.02-.88c-1.57-1.11-4-.53-5.29.8a5.12 5.12 0 0 0-.8 6.12 6.42 6.42 0 0 0 5.24 3 5.35 5.35 0 0 0 4.83-3.2 6.48 6.48 0 0 0-.32-6.31 1.38 1.38 0 0 0-2.54.69c0 .41-.12.82-.12 1.25v1.26l.28 2.66.55 5.16a17.69 17.69 0 0 1 .16 2.05 3.09 3.09 0 0 1-.19 1.27l-.09.15c-.14.22-.22.08 0 0l.15-.07h.1-.16c.27 0-.12 0-.16-.06a4.31 4.31 0 0 0-.49-.11c-.78-.12.14.06-.14 0l-.33-.1.69.41a4.22 4.22 0 0 0-.6-.52c-.21-.12-.13-.1 0 .05a.71.71 0 0 0-.61-.35 1.59 1.59 0 0 0-1.52 1.68 3 3 0 0 0 1.47 2.44c2.32 1.24 4.74-.28 5.47-2.59s0-4.74-.28-6.94l-.5-3.91-.28-2-.23-.91c-.07-.3-.29-.78-.41-1.18l-2.49 1.05a3.12 3.12 0 0 1 0 3.7 2.62 2.62 0 0 1-3.13.65 2.34 2.34 0 0 1-1.54-2.39 3.8 3.8 0 0 1 1.06-1.89 3.35 3.35 0 0 1 .86-.74 4.37 4.37 0 0 1 1.24-.33.41.41 0 0 0 .2-.76zm18.76 6.32a3.79 3.79 0 0 0 6.32-3.82 3.69 3.69 0 0 0-1.53-2.06c-.78-.46-1.9-.14-2.76 0a18.67 18.67 0 0 0-3.35 1c-2.38 1-4.65 2.48-5.49 5-1 3 .64 5.95 3.14 7.55a8.69 8.69 0 0 0 5.22 1.3 8.4 8.4 0 0 0 3.16-.92 8 8 0 0 0 1.11-.61c.38-.25.64-.57 1-.84s.29-.68-.1-.75-.93-.28-1.42-.34l-1.65-.18-1.55-.17h-.78-.44-.13a9.39 9.39 0 0 1-1.3-.28c-.09 0-.72-.26-.32-.09-.21-.09-.41-.19-.61-.3s-.33-.2-.5-.31l-.2-.14c.06 0 .27.23 0 0s-.28-.26-.41-.4l-.16-.19c-.24-.26.05.13-.05-.06l-.28-.48c-.09-.16-.13-.28 0-.07s0-.09 0-.14a5.73 5.73 0 0 1-.14-.56c.08.37 0-.09 0-.24v-.28c0-.09.07-.23 0 0s.06-.19.08-.27.2-.49.08-.26.12-.22.17-.29l.25-.38c-.26.39 0 0 .08-.08l.34-.33c.12-.1.48-.4.15-.15a12.08 12.08 0 0 1 1.9-1.11s.27-.12.06 0 .16-.06.2-.08l.59-.21 1.2-.37a24.14 24.14 0 0 1 2.53-.52l-1.8-.47.22.19c-.13-.18-.13-.19 0 0s.1.18 0 0a2.46 2.46 0 0 1 .07.29v-.05c0 .21 0 .2 0 0-.07.2-.05.19 0 0-.1.17-.09.17 0 0-.15.14-.14.15 0 0a1.35 1.35 0 0 1-.26.15c.21-.09.22-.1 0 0h-.25 0c-.24 0-.19 0 0 0-.17-.1-.17-.1 0 0a1.76 1.76 0 0 0-2.48 2.49zm21.87-4.89a5.62 5.62 0 0 0-.58-.19l.52.4-.09-.22a1.56 1.56 0 0 0-1.42-.81 6.86 6.86 0 0 0-3.33 1.18 10.49 10.49 0 0 0-2.57 2.66 9 9 0 0 0-1.3 6.91l4.23-1.78-1.9-4.2a11.78 11.78 0 0 0-1-2c-.7-1-2.11-2.21-3.38-1.39-2 1.3-.56 4.13.23 5.72l2.09 4.2a2.32 2.32 0 0 0 4.24-1.79 4.91 4.91 0 0 1-.17-.63c0-.09-.07-.49 0-.08s0 0 0-.09a5.62 5.62 0 0 1 0-.58v-.32c0-.1.05-.48 0-.1s0 0 0-.09v-.26a6.32 6.32 0 0 1 .18-.62c0-.11.07-.21.1-.31.13-.37.06 0 0 .08.11-.07.23-.47.29-.59s.2-.34.31-.51l.18-.27c.2-.3-.21.22 0 0l.86-.9a2.41 2.41 0 0 0 .24-.21c.16-.16-.32.22 0 0a9.19 9.19 0 0 0 .81-.58c.2-.16 0 0-.07.06s.2-.15.26-.19.41-.23.62-.34a1.6 1.6 0 0 0 .81-1.41v-.17l-.43.75.52-.29c.51-.26.3-.93-.15-1.11zm22.56-9.17l2.64 4.49 1.4 2.21c.84 1.16 2.21 2.48 3.74 1.58 2.39-1.4.07-4.67-.92-6.25l-2.78-4.42a2.364 2.364 0 1 0-4.08 2.39z"/><path d="M279.61 472.71a2.28 2.28 0 0 0-.19-1.26A11.34 11.34 0 0 0 279 470l-1.69 2.19a6.52 6.52 0 0 0 3.8-.47l3.16-1.47a4.45 4.45 0 0 1 2.34-.3 1.12 1.12 0 0 1 1 .78c.27 1-.43 2.43-.71 3.37l-1.18 3.9-1.15 3.92-.54 2a3.94 3.94 0 0 0-.17 1.36c.06.38.27.68.34 1.05a1.14 1.14 0 0 0 1.89.5 5.66 5.66 0 0 1 .43-.42l-.65.38a2.56 2.56 0 0 0 1.63-1.92l.7-2.28 1.3-4.59 1.28-4.54a6.14 6.14 0 0 0-.15-4.58c-1.18-2.23-3.88-2.71-6.16-2.28-2.55.49-4.6 2.31-7.2 2.72a1.5 1.5 0 0 0-.65 2.49 11 11 0 0 0 1.31.81 2.55 2.55 0 0 0 1.18.48.4.4 0 0 0 .5-.37zm15.39-8.94a6.38 6.38 0 0 0-.53 2.35 4.53 4.53 0 0 0 .78 2.51 6.91 6.91 0 0 0 3.89 3 5.88 5.88 0 0 0 4.69-.57 7 7 0 0 0 2.85-3.51 5.93 5.93 0 0 0 .15-4.17c-.34-.93-1.38-2.21-2.51-1.88a1.42 1.42 0 0 0-1 1.48v.82a5.54 5.54 0 0 0 .07.57c0 .08.05.31 0 0s0 .18 0 .25a6.63 6.63 0 0 1 0 .89v.2c0 .07.09-.5 0-.21 0 .13-.05.27-.08.39l-.12.39c0 .06 0 .12-.07.19-.11.34.19-.38 0-.08a7.78 7.78 0 0 1-.42.74l-.12.16c-.12.19.27-.31.11-.14l-.33.36-.29.27c-.17.16.4-.28.1-.09a.91.91 0 0 1-.16.11 3.79 3.79 0 0 1-.34.2l-.18.08c.34-.23.28-.11.08 0a3.6 3.6 0 0 1-.44.12c-.28.06-.14-.08.09 0a1.32 1.32 0 0 0-.28 0 5.15 5.15 0 0 1-.56 0c-.25 0 .39.07.15 0a2.61 2.61 0 0 0-.27-.06c-.12 0-.44-.21-.54-.17.11 0 .35.16.13.05l-.31-.16q-.24-.13-.48-.3c-.22-.14.09 0 .1.08s-.19-.16-.22-.19a3.87 3.87 0 0 1-.41-.4l-.16-.17a.69.69 0 0 1-.11-.13c-.1-.11-.1-.11 0 0l.07.09a1.71 1.71 0 0 1-.11-.14l-.15-.24a4.67 4.67 0 0 1-.27-.49 4.67 4.67 0 0 0-.27-.49l-.1-.19c-.18-.29.08.31 0 0l-.14-.48c-.04-.16 0-.32 0 0v-.34a1.26 1.26 0 0 0-.89-1.17 1.22 1.22 0 0 0-1.37.56zm24.86-12.98a8.78 8.78 0 0 0-6.53-.31 7.12 7.12 0 0 0-4.76 4.32 5.37 5.37 0 0 0 2 6.16 6.47 6.47 0 0 0 5.9.67 7.35 7.35 0 0 0 4.32-5.23 2.11 2.11 0 0 0 .06-.58c0 .4 0 0 0-.11a2.9 2.9 0 0 0 .05-1.21 1.81 1.81 0 0 0-1-1.17 1.37 1.37 0 0 0-1.1.14l-.28.21-.18.14a2.08 2.08 0 0 0-.39.68 1.88 1.88 0 0 1-.15.38l.1-.15-.51.83-.34.58a1.5 1.5 0 0 1-.23.33c.25-.19.14-.17.05-.06s-.35.39-.55.57c0 0-.24.27-.3.26s.33-.22.09-.07l-.61.4-.26.15c-.06 0-.4.16-.07 0s0 0-.08 0l-.39.11a2.8 2.8 0 0 1-.28.06c-.4.09.41 0 .13 0h-.64-.23c-.42 0 .5.11.09 0-.23 0-.45-.11-.67-.18s-.11-.15.18.08c-.09-.06-.22-.1-.31-.15l-.19-.12-.09-.06.15.11a2.16 2.16 0 0 0-.4-.4c.26.16.22.33.12.14s-.16-.37-.24-.41c.17.09.14.4.07.15l-.12-.46c0-.23.11-.05 0 .19a2.48 2.48 0 0 0 0-.47v-.24-.23c0 .31-.05.39 0 .23l.19-.7.11-.29c.16-.42 0 0 0 0l.35-.66a1.13 1.13 0 0 1 .21-.31l-.08.1.12-.14c.17-.19.35-.36.53-.53s-.31.2.09-.07l.38-.26a5.85 5.85 0 0 1 .79-.4l.16-.06.5-.17.88-.23a16.43 16.43 0 0 0 3.34-1.13.29.29 0 0 0 0-.5z"/><path d="M310.62 444.82l.12.18-.08-.59a2.38 2.38 0 0 0-.11 1.62 3.91 3.91 0 0 0 .61 1.09c.44.6.94 1.15 1.44 1.71.86.94 1.87 1.75 2.81 2.6l2.75 2.51 1.49 1.22a5.62 5.62 0 0 0 2.29 1.29 2 2 0 0 0 2.39-2.38A5.59 5.59 0 0 0 323 452a19.24 19.24 0 0 0-1.35-1.36l-2.96-2.64-3.18-2.75a13.76 13.76 0 0 0-1.55-1.07 5.23 5.23 0 0 0-1-.5 2.47 2.47 0 0 0-1.96.32h.77l-.19-.1c-.59-.31-1.38.34-1 1zm21.9-8.56a1.72 1.72 0 0 1-.43.42l.46.12a1.57 1.57 0 0 0-1-.75h0c-.15-.06-.28-.16-.44-.22s-.53-.15-.8-.23c-.45-.14.13.08-.1 0l-.33-.2c-.27-.16.05.07-.08-.06l-.21-.21c-.14-.15.13.2 0-.07s.09.11 0 0 0-.09 0-.14 0-.09 0 .11c-.08-.1 0-.21 0 0 0 0 .13-.45 0-.23s.12-.18.12-.17-.17.15 0 .05c-.37.23 0 0 0 0 .24-.06-.41.07 0 0l.27-.08c.38-.12-.19 0 0 0h.36 0l.36.08c.17 0 .29.1.06 0l.32.17c.09 0 .32.25 0 0 .06.05.13.16.2.19.24.11 0-.09 0 0s.19.38 0 0c0 .05.09.23.07.27v-.13a1.77 1.77 0 0 1 0 .23l3.09-1.28a5.22 5.22 0 0 0-6.18-1 5.46 5.46 0 0 0-3.11 5.6 7.31 7.31 0 0 0 4.28 5.76 9.29 9.29 0 0 0 8.28-.72 12.84 12.84 0 0 0 3.43-3.1 20.39 20.39 0 0 0 2.09-3.91c.13-.29-.15-.7-.48-.48l-3.2 2.09a23.86 23.86 0 0 1-3.13 1.92 10.06 10.06 0 0 1-3 .91 4.74 4.74 0 0 1-2.9-.58 3.68 3.68 0 0 1-1.46-1.77 2 2 0 0 1-.14-1.18c0 .26.08-.29.09-.34.08-.21.08-.23 0-.05l.18-.31c-.18.27.18-.17.24-.23s.08-.08 0 0a2.28 2.28 0 0 1 .3-.21l.31-.17h.06a5.18 5.18 0 0 1 .53-.14c-.35.08.3 0 .39 0 .38 0-.14-.09.2 0s.31.05.65.42c1.12 1.24 3 .19 3.1-1.28.24-3.91-5.27-5.68-7.85-3.15a3.81 3.81 0 0 0 0 5.23 5.22 5.22 0 0 0 2.2 1.43 3 3 0 0 0 2.77-.32 1.36 1.36 0 0 0 .61-1.5l-.05-.13-.09.32a2.45 2.45 0 0 0 .5-.66.274.274 0 0 0-.47-.28zm11.41-20.69c-1.86-2.12-5.27-1.24-6.83.81-2 2.71-.29 6.45 2.63 7.59a5.64 5.64 0 0 0 4.66-.61l1-.49c-.34.15.2-.06.33-.1a2.59 2.59 0 0 0 .4-.09c.26-.13-.47 0 0 0h.84s.56.08.22 0 .19 0 .21.05c.24 0 .48.18.72.21s-.41-.22 0 0l.3.15.28.16a2.48 2.48 0 0 1 .26.19l-.11-.09a4 4 0 0 0 .5.51c-.29-.28-.12-.19-.05-.06l.2.34c.09.14.15.45 0 0 0 .11.07.21.1.31s0 .53.05.19 0 .16 0 .24c.07.24.15-.49 0-.07l-.13.43c.12-.46.11-.24 0-.12s-.16.26-.23.38c.24-.42.12-.14 0 0l-.36.39-.23.2c.34-.35.08-.07-.06 0l-1.36.81c.07 0 .36-.1.05 0l-.32.1a2.4 2.4 0 0 0-1.05.54l.67-.28a1 1 0 0 1-.38-.11.61.61 0 0 0-.83.83 5.07 5.07 0 0 0 .32.61l-.05-.22v.36a1.53 1.53 0 0 0 .42.67 3.27 3.27 0 0 0 1.62.83 4.56 4.56 0 0 0 3.72-.85 5.64 5.64 0 0 0 1.67-7.53 7.59 7.59 0 0 0-6.79-3.41 9.9 9.9 0 0 0-4.09 1.32l-.49.25c-.36.16.43-.14-.21.06-.37.12-.18.07-.05.05s-.6 0-.27 0-.72-.23-.29 0a3.11 3.11 0 0 1-.4-.22c-.12-.08-.11-.07 0 0l-.27-.26s-.23-.28-.05 0a3.07 3.07 0 0 1-.28-.47c.14.3 0-.05 0-.14s0-.11 0 .06a1.51 1.51 0 0 1 0-.37c0 .09-.09.29 0 0 0-.09.22-.45 0-.15 0 0 .26-.42.11-.22s.19-.19.23-.23.33-.24.08-.07c.13-.09.27-.17.41-.25-.26.14 0 0 .12 0s.49-.12.32-.1.27 0 .26 0h.47c.16 0 .38-.06.57-.05-.35 0-.06.06.1.11 1.3.42 2.05-1.24 1.25-2.15zM145.4 18.53a.05.05 0 0 0 0-.1.05.05 0 1 0 0 .1z"/><path d="M144.26 17.48a1.63 1.63 0 0 0-1.62 1.65c0 1.21 1 1.84 2 2.25l-1.09-.84c.86 1.34 1.87 1.57 3.36 1.6l3.42-.1 6.84-.29a56.75 56.75 0 0 0 7-.67c1.64-.29 4.36-.78 5.38-2.24a.77.77 0 0 0-.12-.92 4.89 4.89 0 0 0-2.43-1.11 18 18 0 0 0-3.42-.53 50.13 50.13 0 0 0-6.6.06l-6.6.38-3.42.24c-1.46.17-2.59.33-3.36 1.75l1.09-.83c.5 1 .75 1.24.73.72a1.14 1.14 0 0 0-1.12-1.12zM121 35.63a30.6 30.6 0 0 0 13.21 2 26.87 26.87 0 0 0 12.48-3.25.53.53 0 0 0-.27-1c-4-.49-8.14-.46-12.21-.66s-8.13-.83-12.2-.87c-1.86 0-2.92 2.93-1 3.74zM91.11 58.49a.76.76 0 0 1-1.11.22l.57 1v-.15h-2.78v.06a1.85 1.85 0 0 0 .93 1.63 24.12 24.12 0 0 0 6.82 1.54l7.08.91 6.84.75a20.33 20.33 0 0 0 6.75-1 .57.57 0 0 0 .13-1 20.81 20.81 0 0 0-6-2.58c-2.37-.52-4.81-.73-7.22-1L96.27 58a24.15 24.15 0 0 0-7.1-.18 1.81 1.81 0 0 0-1.31 1.32v.06a1.41 1.41 0 0 0 2 1.58l.11-.06-.88.11a2.63 2.63 0 0 0 3.1-1.66c.24-.6-.7-1.15-1.11-.65zM65 91.31c.56 1.6 2 2.25 3.52 2.74a42.76 42.76 0 0 0 4.71 1.2 72.32 72.32 0 0 0 9.62 1.24c6.33.35 12.8-.09 18.45-3.18.34-.19.32-.83-.11-.89-5.94-.85-11.91-.59-17.88-1a80.59 80.59 0 0 1-8.75-1l-4.55-.86c-1.55-.3-3.13-.66-4.41.31a1.34 1.34 0 0 0-.6 1.46zM51.41 124a14.13 14.13 0 0 0 1.46 1.33 11.7 11.7 0 0 0 2.19 1 26.83 26.83 0 0 0 3.85 1.09 61.23 61.23 0 0 0 8.3 1.3 48.93 48.93 0 0 0 7.75-.12 20.67 20.67 0 0 0 4-.93 17.18 17.18 0 0 0 3.62-1.3.64.64 0 0 0-.15-1.15 28 28 0 0 0-3.47-.87c-1.28-.29-2.44-.71-3.76-.88l-7.12-1.09-7.42-1.28-3.7-.75a14.87 14.87 0 0 0-2.2-.28 13 13 0 0 0-1.8.23c-1.67.18-3.12 2.36-1.54 3.7zm-13.32 37.17a11.41 11.41 0 0 0 4.39 2.39 44.85 44.85 0 0 0 5 1.14q5.28.95 10.58 1.65c3.38.45 6.8.76 10.21.9a40 40 0 0 0 5.36-.06 30 30 0 0 0 5-1.18.61.61 0 0 0 0-1.17 37.34 37.34 0 0 0-4.75-1.6c-1.71-.35-3.44-.55-5.17-.76l-10.21-1.21c-3.25-.4-6.5-.84-9.73-1.36-3.39-.56-6.94-1.34-10.28-.34a1 1 0 0 0-.42 1.6zm-13.15 46.56c.75 1.42 2.83 2.14 4.27 2.61a36.28 36.28 0 0 0 4.6 1.12 95.52 95.52 0 0 0 10.39 1.34 73.57 73.57 0 0 0 10 .06 38.41 38.41 0 0 0 5.11-.66c1.71-.36 2.9-1.39 4.43-2.11a.64.64 0 0 0-.15-1.15c-1.53-.33-2.83-1.06-4.42-1.22s-3.32-.17-5-.21l-9.72-.41-9.15-1-5-.71c-1.46-.2-3.57-.49-4.87.37a1.49 1.49 0 0 0-.52 2zM19.05 249c1.37 3 6 2.56 8.73 2.7 3.54.17 7.09.24 10.63.35l10.39.3a49.27 49.27 0 0 0 5.43-.19 15.51 15.51 0 0 0 2.46-.48 9 9 0 0 0 1.38-.33c.39-.16.67-.43 1-.62a.85.85 0 0 0 0-1.45 8.84 8.84 0 0 0-1-.68 12.24 12.24 0 0 0-1.38-.41 15 15 0 0 0-2.57-.6 51.86 51.86 0 0 0-5.57-.47l-11.13-.27-10.87-.2c-1.76 0-3.8-.17-5.47.46-.33.13-2.31 1.27-2 1.89zm2.35 40.49c3.37.46 6.82 0 10.21-.12l10.14-.41c3.38-.15 6.61-.33 9.9-.62a75 75 0 0 0 10-1.25.53.53 0 0 0 0-1 51.48 51.48 0 0 0-9.79-1.8 90.61 90.61 0 0 0-10.15-.58c-3.3 0-6.61.13-9.9.35s-7.15.21-10.45 1.27c-1.83.58-2.28 3.87 0 4.18zm4.36 33.9c.4 2.14 3.06 2.31 4.78 2.45s3.29.06 4.91.06c3.52 0 7-.11 10.54-.3a88.21 88.21 0 0 0 10.51-1 43.2 43.2 0 0 0 4.93-1.2c1.47-.42 3.21-.82 4.35-1.89a.7.7 0 0 0-.14-1.08c-1.37-.79-3.19-.78-4.73-.9-1.73-.13-3.39-.27-5.13-.28-3.51 0-7 .23-10.52.38l-10.3.32c-2.46.06-10-.77-9.2 3.48zm10.3 40.85h-.58q.48.21.06 0a10 10 0 0 0-1.22-.2c-2.65-.14-3.26 4.11-.63 4.67a19.19 19.19 0 0 0 6-.13q2.81-.33 5.63-.6c3.83-.37 7.68-.64 11.53-.94l11.31-.78c2-.13 4-.24 6-.56 1.6-.25 3.7-.32 5-1.43a.89.89 0 0 0 0-1.25c-1.23-1.16-3.37-1.25-5-1.5a42.77 42.77 0 0 0-6-.43c-3.86-.09-7.7 0-11.56.15s-7.7.54-11.53 1q-2.94.31-5.87.69a18.08 18.08 0 0 0-6.08 1.48l3.49 1.41c-.1-.48-.29-.93-.4-1.41a.16.16 0 0 0-.15-.12zm13.24 39.5a41.07 41.07 0 0 0 9.32-.52l9.65-1.21 9.34-1.48a41.55 41.55 0 0 0 4.53-1.11c1.28-.38 2.82-.92 3.55-2.11a.77.77 0 0 0-.12-.94 5.73 5.73 0 0 0-3.72-.91c-1.53 0-3.11.14-4.63.32l-9.72 1.26q-4.56.63-9.12 1.17c-3.19.38-6.56.57-9.62 1.56a2.018 2.018 0 0 0 .54 4zm25.55 40.92a5.35 5.35 0 0 0 .17 1v-1.26l-.11.29a3.11 3.11 0 0 0 1.42 3.49 8.79 8.79 0 0 0 5.24.95l6.57-.39a65.86 65.86 0 0 0 6.56-.9 25.06 25.06 0 0 0 5.75-2.19c.53-.25.31-1-.14-1.14a25.89 25.89 0 0 0-6.06-1.63 65.38 65.38 0 0 0-6.57-.31l-6.34.23-1.39.06a3.27 3.27 0 0 1-.54 0c.33.06.38.06.15 0a2.79 2.79 0 0 1-.39-.1c.53.21.37.14-.46-.2a3.43 3.43 0 0 0-2.56.4l3 .38.16.15c-1-2-4.71-1.16-4.44 1.2zM105 476.45h.75l-1.25-.45.24.29a2.45 2.45 0 0 0 2.39.63 79.09 79.09 0 0 0 9.47-2.4c3.14-1 6.07-2.16 8.37-4.59a.6.6 0 0 0-.26-1c-3.22-.88-6.33-.37-9.53.39a84.84 84.84 0 0 0-9.36 2.85 2.49 2.49 0 0 0-1.71 1.72l-.06.4.8-1-.65.39a1.54 1.54 0 0 0 .77 2.84zm30.14 21.65l.25.46a1.92 1.92 0 0 0 1.67 1 35.53 35.53 0 0 0 7.54-1.59 19.15 19.15 0 0 0 3.65-1.38 25.31 25.31 0 0 0 3-2.07c.26-.2.32-.76-.11-.82a30.71 30.71 0 0 0-3.45-.45 17.36 17.36 0 0 0-4.06.5 36.38 36.38 0 0 0-7.51 2.21 1.9 1.9 0 0 0-1 1.67c0-.21 0 .4 0 .51zm27.61 16.19l.08-.37-.24.31a2.93 2.93 0 0 0 1.08-.84 3 3 0 0 0 .47-1.47l-1.2 1.2a45.48 45.48 0 0 0 4.38-1.54l2.34-1a4.46 4.46 0 0 0 2.18-1.54l-.52.53c.58-.36 1.26-.73 1.43-1.45l-.49.64a2.49 2.49 0 0 0 .92-1 .58.58 0 0 0-.34-.83 2 2 0 0 0-1.11-.14l.53.15a2.63 2.63 0 0 0-2.08-.06h.82a4.6 4.6 0 0 0-2.6.35 23.63 23.63 0 0 0-2.23.81 48.59 48.59 0 0 0-4.51 1.94 1.69 1.69 0 0 0-.85 1.48 3.77 3.77 0 0 0 .27 1.77 3 3 0 0 0 1 1l-.26-.45v.38c0 .5.81.68.93.13z"/></svg>