<svg xmlns="http://www.w3.org/2000/svg" viewBox="0 0 629.14 485.79"><defs><style>.cls-1{fill:#c1c1c6;}.cls-2{fill:#422f26;}.cls-3{fill:#3aaa3d;}.cls-4{fill:#38a038;}.cls-5{fill:#d8d839;}.cls-6{fill:#358e35;}.cls-7{fill:#848484;}</style></defs><g id="Layer_2" data-name="Layer 2"><g id="Layer_5" data-name="Layer 5"><path class="cls-1" d="M4.35,464.68a85.8,85.8,0,0,0,15.11.92c5.07-.17,10.16-.47,15.23-.52,2.45,0,4.87.42,7.31.52,2.83.12,5.69,0,8.52.06,5.08,0,10.16.13,15.24.14,10.37,0,20.73-.45,31.1-.35s20.74.39,31.12.63c40.46.94,80.81,2.48,121.19,5.42s80.61,6.83,121,9.91c20.08,1.53,40.17,2.86,60.29,3.76s40,.73,60.06.12,39.87-2.1,59.74-4.41a127.35,127.35,0,0,0,15.69-2.32,141.41,141.41,0,0,1,14.22-3c9.86-1.41,19.79-2.81,29.37-5.6a25.28,25.28,0,0,0,6.44-3.24,49.74,49.74,0,0,1,6.61-3.1c.52-.23.23-1-.27-1a42.7,42.7,0,0,1-7.42-.25,25,25,0,0,0-7.06-.55c-5.09.53-10.17,1.09-15.23,1.84q-7.18,1.08-14.38,2A107.7,107.7,0,0,1,563,466c-9.68-.18-19.5,1.08-29.19,1.36-10,.28-19.92.41-29.88.45-20,.07-40-1.07-60-1.79s-40.19-1.92-60.25-3.37c-40.14-2.91-80.2-6.83-120.33-10s-80.16-5.71-120.3-4.57c-20.76.59-41.4,2.77-62.1,4.41-10.39.82-20.73,1.87-31.08,3-2.44.27-4.88.56-7.31.81-2.64.28-5.19,1-7.82,1.31-5.29.55-10.64.74-15.94,1.09a83.71,83.71,0,0,0-14.5,2.38c-1.69.41-1.89,3.35,0,3.61Z"/><path class="cls-1" d="M68.87,455.47a9,9,0,0,0,6,.81c1.3-.24,2.6-.54,3.9-.81,2.6-.54,5.16-1.16,7.72-1.87l-4.4-10.45-.63.42a5.78,5.78,0,0,0-2.73,4.17,5.55,5.55,0,0,0,2.73,5.68,5.71,5.71,0,0,0,5.75,0c.22-.13.44-.26.65-.4a5.73,5.73,0,0,0-4.4-10.45c-2.27.55-4.49,1.13-6.72,1.83l-3.25,1c-.72.23-1.43.44-2.13.74s-1.16.62-1.76.9l1.2-.51a3.52,3.52,0,0,1-.61.18l1.28-.17-.16,0a5.32,5.32,0,0,0-2.89,1,4.56,4.56,0,0,0-1.71,2.48,4.88,4.88,0,0,0,2.2,5.4Z"/><path class="cls-1" d="M64.22,454.91A13.69,13.69,0,0,0,68,456.79c1.83.44,4-.07,5.89-.23q4.83-.4,9.66-.9a72.4,72.4,0,0,0,11.23-2c3.19-.84,6.38-1.73,9.54-2.7a191.6,191.6,0,0,0,20.1-7.47c.73-.31,1.45-.63,2.18-1,1.37-.62.28-.13,0,0l1.25-.49c1.56-.62,3.12-1.26,4.67-1.9,3.51-1.46,7-3,10.51-4.45a10.28,10.28,0,0,0,2.52-1.07s-1.61.68-.64.27l1.24-.51q2.32-1,4.67-1.91c3.13-1.23,6.28-2.41,9.45-3.51q9.22-3.19,18.67-5.71c13-3.5,25.77-7.61,39.06-10,15.08-2.74,30.32-4.92,45.51-7l-4.57.62c7.78-1,15.51-2.37,23.29-3.43l-4.81.65,13.11-1.78-4.86.65c17.78-2.35,35.72-3.11,53.54-.72l-5.17-.7a179.44,179.44,0,0,1,44.86,12.58l-4.74-2c14.66,6.22,28.62,13.9,42.51,21.64l20-34.27-.6-.33a20.74,20.74,0,0,0-15.29-2c-4.6,1.27-9.59,4.82-11.86,9.12-2.43,4.6-3.65,10.18-2,15.29,1.58,4.85,4.55,9.33,9.12,11.86l.6.33a20.79,20.79,0,0,0,15.29,2c4.6-1.27,9.59-4.83,11.86-9.12,2.43-4.61,3.65-10.19,2-15.29-1.58-4.87-4.55-9.32-9.12-11.86-22.48-12.53-45.56-25.06-70.56-31.79-27.29-7.34-56.05-5.46-83.62-.94a260.48,260.48,0,0,0-37.13,9.19c-12.09,3.85-24,8.25-36.11,12-12.61,4-25.52,7.48-37.69,12.66a274.93,274.93,0,0,0-33,16.75c-5.35,3.19-10.64,6.47-16,9.59a92.1,92.1,0,0,1-8.49,4.25l-1.87.82c-1.09.49,1.06-.43,0,0l-1,.4q-2.22.9-4.46,1.74c-5.87,2.22-11.85,4.13-17.88,5.86s-11.82,4.43-17.69,6.7c-1.71.66-3.87,1.16-5.23,2.4a16,16,0,0,0-2.39,3.2,1.89,1.89,0,0,0,.67,2.56Z"/><path class="cls-1" d="M361,384.09c-1.36-1-.37-.18-.1.08l.82.82c.5.5,1,1,1.48,1.54,1.55,1.57,3.76,2.73,5.59,4,2.75,1.89,5.93,3.23,8.85,4.86s5.81,3.49,8.62,5.43,5.7,3.8,8.54,5.71l-3.37-2.61a41.27,41.27,0,0,0,4.91,3.54l2.13,1.24q2,1.2,4,2.43,3.93,2.43,7.75,5c5.12,3.46,10.51,6.53,15.43,10.3l-3.89-3a68.38,68.38,0,0,1,10.09,10.25,70.12,70.12,0,0,0,13.8,12c7.75,5.41,16.57,9.35,25.08,13.38,10.64,5,21.46,9.69,32.36,14.11A147.48,147.48,0,0,0,517,478.38a36.84,36.84,0,0,0,3.59.88,40.87,40.87,0,0,0,6.64.95A23,23,0,0,0,538,477.33a19.33,19.33,0,0,0,9.4-21.65c-.51-1.91,4.9,5.93-1.94-4.69a34.44,34.44,0,0,0-3.11-3.95c-.17-.16-.36-.32-.54-.47a37,37,0,0,0-4.14-3.22l-4.72-2c-1.33-.36-2.72-.5-4.06-.83s-2.69-.74-4-1.17c-2.68-.89-5.31-1.91-8-2.92q-8.05-3.09-16-6.45l4.7,2q-11.72-5-23.19-10.44c-6.89-3.32-13.84-6.68-19.94-11.35l3.93,3c-4.09-3.19-7.22-7.09-10.66-10.93a60.27,60.27,0,0,0-9.15-7.85,70.72,70.72,0,0,0-6.46-4.2c-2.19-1.29-4.4-2.53-6.64-3.74-3.49-1.89-7.27-3.33-10.93-4.86-4.63-1.95-9.32-3.83-14.1-5.39-6.48-2.11-13.6-2.76-20.32-3.56l3.55.48c-1.44-.27-2.93-.44-4.39-.61l3.5.48c-5-.81-10-1.61-15.05-2a37.37,37.37,0,0,0-6.07.19c-2.59.2-4.77,1.34-7.29,1.76-2.33.39-4.07,2.91-4.36,5.07-.35,2.58.88,4.57,2.91,6.07Z"/><path class="cls-1" d="M542.3,451.48c-.28,2.63,2.4,5.23,4.25,6.89a35.5,35.5,0,0,0,3.06,2.4,17.49,17.49,0,0,0,3.81,1.8c2.23.88,5.07-.45,6.41-2.19a6.07,6.07,0,0,0,.48-6.77c-3.69-5.65-9.62-7.87-15.95-9.15a6.46,6.46,0,0,0-7.52,3.69c-1.1,2.62-.32,6.73,2.61,8,5.52,2.33,11.06,4.61,16.72,6.58,2.57.9,5.16,1.74,7.77,2.5,1.9.55,3.86,1.23,5.84,1a8.51,8.51,0,0,0,5.46-3.29l-3.58,2.05c.9.06,1.81,0,2.71,0,.6,0,1.38.19,2,.29,1.89.29,3.78.55,5.68.73l-2.27-.94c-.2-.21-.18-.2,0,.05a5,5,0,0,0,1.53,1.52,5.33,5.33,0,0,0,2.31.84c1.55.25,3.1.45,4.65.63a74.58,74.58,0,0,0,7.62.49,5.19,5.19,0,0,0,1.38-10.17,60.8,60.8,0,0,0-7.35-1.31c-.25,0-1.05-.35-.45-.05s0,0-.19-.06l-1.38-.24a29.11,29.11,0,0,0-4.73-.58c-4.36,0-8.71.34-13.05.63L567,457a5.84,5.84,0,0,0-.73.05c-.89.16,1.22.38.42.05-.48-.21-1-.33-1.52-.53-2.72-1-5.56-.95-8.43-1.06-4.4-.16-8.8,0-13.21-.14-2.44-.07-4.89-.31-7.33-.26-1.3,0-2.61,0-3.9.09-2.29.2-5.31.75-7.21,2.15-2.23,1.65-3.68,3.4-4.06,6.21a8.33,8.33,0,0,0,2.34,7.13c4.5,4.6,12,4.51,18,4.29a128.68,128.68,0,0,0,15.2-1.22c2.14-.34,4.3-.66,6.42-1.11a14.29,14.29,0,0,0,4.27-1.92c.35-.2,1.06-.35.14-.17-1.18.23-.06,0,0,0s-1.39.16-.62,0c.4-.07.82-.09,1.22-.14,4.36-.5,8.71-1.08,13.08-1.41,1.61-.12,3.21-.19,4.81-.44l1.85-.3c.68-.11-.34,0-.38,0a7.63,7.63,0,0,1,1-.12,37.68,37.68,0,0,1,7.65.38V458.19q-3.69.38-7.39.41c-1.23,0-2.45,0-3.68-.06a6.62,6.62,0,0,0-2.5.28,4.17,4.17,0,0,0-1.87,1.09c-.26.26-.26.28,0,.07l2.47-.32c-1.66-.29-3.32-.6-5-1-.58-.12-1.34-.21-1.83-.35a19.5,19.5,0,0,1-2.4-1.15l1.9,2.48a8.75,8.75,0,0,0-2.95-4.44c-1.5-1.16-3.41-1.53-5.21-2.07-2.6-.78-5.19-1.64-7.75-2.55s-5-1.84-7.43-2.83c-1.22-.49-2.45-1-3.67-1.5-.73-.31-.15-.1.23.1A9.1,9.1,0,0,0,548,446l-2.14-.91L541,456.76a42.66,42.66,0,0,1,6.57,1.83c.23.08.45.18.68.25.7.24-1.48-.72-.36-.13a15.76,15.76,0,0,1,1.39.77c.19.12.84.64.09,0s0,0,.19.18a11.53,11.53,0,0,1,1.2,1.32l5.93-10.19c-.78-.24-1.54-.52-2.31-.77l-1.14-.38c-1.06-.33,1,.49-.34-.14-1.92-.91-3.8-2.78-6-2.59a4.71,4.71,0,0,0-4.54,4.55Z"/><path class="cls-1" d="M104.88,456.45l1.3.3c.38.09,1.29.51.26-.06-1.19-.67,0,.06.27.22a13.47,13.47,0,0,0,2,1c1.86.79,3.86,1.29,5.79,1.89l-2.89-1.22a49.12,49.12,0,0,0,5.2,1.91l2.82.83-3.45-1.45a19.62,19.62,0,0,0,7.87,2.21c.58,0,1.14.06,1.72.11l3.16.28c2.21.19,4.41.4,6.62.61l-4.55-.61c2,.27,3.89.76,5.85,1.07a52.08,52.08,0,0,0,11.37.74c4.42-.28,8.84-.72,13.27-1q12.78-.78,25.6-.79c17.18-.05,34.36.75,51.49,2,34.18,2.51,68.2,6.83,102.38,9.4,19.23,1.45,38.51,2.33,57.79,2a20.6,20.6,0,0,0,14-5.81c3.44-3.44,6-9.09,5.82-14-.23-5.14-1.92-10.46-5.82-14a20.38,20.38,0,0,0-14-5.81c-34.46.54-68.81-2.72-103-6.15-34-3.42-68.15-7.13-102.38-7.18-9.66,0-19.31.24-28.94.84q-7.23.47-14.43,1.14a93.17,93.17,0,0,0-12,1.89c-3.67.82-7.08,2.72-10.55,4.21l4.13-1.74c-2.15.79-4.35,1.46-6.52,2.19l-3.26,1.11-1.36.44a19.07,19.07,0,0,0-7.15,4.16l2.93-2.26c-2.22,1.32-4.42,2.64-6.61,4a20.85,20.85,0,0,0-4.54,3.32l-.48.49c-.6.58-.42.45.53-.39a21,21,0,0,0-1.89,1c-5.38,2.83-4.24,11.78,1.72,13.13Z"/><path class="cls-1" d="M396,471.44c2.46.6,4.95,1.17,7.38,1.87s5.77.76,8.49,1.05l4.13.44,15.66,1.67c10.2,1.08,20.45,2.52,30.71,2.85a101.79,101.79,0,0,0,21.68-1.76l4.7-2a14.92,14.92,0,0,0,5.53-5.07,9.84,9.84,0,0,0,2.53-4.34,14.9,14.9,0,0,0,1.69-7.59,23.16,23.16,0,0,0-2.69-9.93c-2.31-4.38-7.15-7.64-11.76-9.05a255.66,255.66,0,0,1-24.32-8.82l4.7,2a251.66,251.66,0,0,1-23.77-11.55c-7.74-4.27-15.23-9-23-13.23a165.75,165.75,0,0,0-53.48-18.05c-19.2-3.08-38.62-4.36-58-5.58-17.25-1.08-34.59-2.29-51.88-1.71a200.52,200.52,0,0,0-32.78,3.71A128.35,128.35,0,0,0,190.82,397l-4,3.07-3.08,4-2,4.7a14.88,14.88,0,0,0-.35,7.85,19.29,19.29,0,0,0,3.87,9.31,10,10,0,0,0,3.53,3.54,14.85,14.85,0,0,0,6.7,3.52c4.66,1.86,9.5,2.44,14.45,3.07a83.89,83.89,0,0,0,9.89.61c7.11.08,14.23,0,21.35,0,14.48.09,29,.44,43.41,1.48,8.07.58,16.12,1.38,24.14,2.46l-5.23-.71c12.75,1.73,25.21,4.6,37.79,7.19a182.72,182.72,0,0,0,23.49,3.46,154.87,154.87,0,0,0,16.69,0,105.38,105.38,0,0,1,18,.39l-5.23-.71a39,39,0,0,1,9.62,2.57l-4.7-2a31.22,31.22,0,0,1,5.57,3.16l9.93-36.68c-22.7-.68-45.42-1.35-68-3.46q-9.65-.9-19.24-2.18l5.23.71c-20.89-2.84-41.46-7.49-62.15-11.45q-17.77-3.42-35.71-5.69c-5.2-.65-10.42-1.18-15.64-1.53a80.41,80.41,0,0,0-15.2-.07,67.23,67.23,0,0,0-8.68,1.36,54.71,54.71,0,0,0-8.13,3.15,38.67,38.67,0,0,0-7.83,5A81.61,81.61,0,0,0,167,415.23a22,22,0,0,0-5.77,13.92c0,4.83,2.15,10.6,5.77,13.92s8.68,6,13.92,5.77c5-.22,10.58-1.82,13.92-5.77a72.26,72.26,0,0,1,10.35-10.56l-4,3.08a29.3,29.3,0,0,1,6.05-3.58l-4.7,2a27.28,27.28,0,0,1,6.65-1.74L204,433c5.5-.68,11.12-.23,16.62.17,5.7.42,11.39,1.05,17,1.8l-5.23-.7c22.82,3.07,45.25,8.38,67.88,12.53a577.06,577.06,0,0,0,74.51,8.4c13.3.68,26.61,1.08,39.92,1.47l5.24-.7a14.83,14.83,0,0,0,6.69-3.53,18.74,18.74,0,0,0,7.06-10.22,23.42,23.42,0,0,0,0-10.47,22.08,22.08,0,0,0-9-11.77,49.08,49.08,0,0,0-10.27-5.14,36.88,36.88,0,0,0-6.46-2A88.73,88.73,0,0,0,389,411c-4.82,0-9.63.32-14.45.42a104.5,104.5,0,0,1-16.2-.89l5.23.71c-9.6-1.33-19-3.73-28.48-5.68-11.15-2.31-22.45-3.92-33.76-5.2-19.66-2.23-39.46-2.87-59.23-3q-8.27-.06-16.51,0a116.09,116.09,0,0,1-15.6-.61l5.24.7A39.55,39.55,0,0,1,206,395l4.7,36c1.56-.77,3.15-1.49,4.75-2.17l-4.71,2a120.32,120.32,0,0,1,30.53-8l-5.24.7c14.48-1.91,29.12-1.83,43.68-1.22,15.8.67,31.58,1.71,47.34,2.88,8.52.64,17,1.39,25.49,2.51l-5.23-.7c14.48,2,28.85,5.08,42.38,10.73l-4.71-2c11.21,4.75,21.47,11.31,32,17.34a289.18,289.18,0,0,0,37.16,17.68q9.6,3.82,19.48,6.84v-38c-1.12.2-2.24.38-3.37.53l5.23-.7c-11.14,1.4-22.35-.05-33.44-1.23l-17.14-1.82-8.56-.91L412.2,435l-2.36-.25c-2.35-.26-4.62.3-7,.66l5.2-.7-7.09.19c-4.63.12-9.93,1.93-13.15,5.44l-2.91,3.76a13.82,13.82,0,0,0-2.2,6.92,9.21,9.21,0,0,0,0,4.94,13.76,13.76,0,0,0,2.2,6.91c2.59,4,6.36,7.39,11.12,8.55Z"/></g><g id="Layer_3" data-name="Layer 3"><path d="M1.66,461.25c42.9,2.66,84.43-12.27,122.61-30.36,39.36-18.66,77.42-40.17,119.66-51.82a325.35,325.35,0,0,1,64.32-11c21.76-1.48,44.25-1.43,65.71,2.84,20.79,4.13,39.63,13.34,58,23.56,19,10.54,37.86,21.15,57.42,30.61,19.82,9.59,40.43,17.49,61,25.25,20,7.53,41.46,14.94,63.1,13.55a69.79,69.79,0,0,0,15.28-2.31.47.47,0,0,0-.13-.92,165,165,0,0,1-32.84-4,259.62,259.62,0,0,1-31.7-9.52A651.2,651.2,0,0,1,504,421.18c-19.5-9.48-38.72-19.33-57.61-30-18.3-10.32-36.86-20.75-57.13-26.7-21-6.18-43.4-7.4-65.2-7a333.71,333.71,0,0,0-126.87,27.75c-19.93,8.56-39.15,18.66-58.39,28.64-38,19.76-77.7,39.7-121.08,43.35-5.33.45-10.68.62-16,.55-2.23,0-2.19,3.3,0,3.44Z"/></g><g id="Layer_6" data-name="Layer 6"><path class="cls-2" d="M316,74.37a11.87,11.87,0,0,0-.66,2.42c-.13.83-.24,1.67-.31,2.51s-.12,1.67-.14,2.51a2.72,2.72,0,0,0,.64,2.16.26.26,0,0,0,.36,0,3,3,0,0,0,.56-2.16c0-.81,0-1.61.08-2.42s.14-1.6.25-2.39.2-1.65.25-2.49c.05-.64-.83-.66-1-.14Z"/><path class="cls-2" d="M315.1,74.9c-.78.94-.81,2.32-1,3.49s-.29,2.57-.42,3.85c-.26,2.52-.4,5-.53,7.57a1.51,1.51,0,0,0,2.95.4,24.53,24.53,0,0,0,.58-4c0-.64.08-1.27.12-1.9a5.17,5.17,0,0,0-.06-2,.88.88,0,0,0-1.58-.21,6.15,6.15,0,0,0-.47,1.79c-.11.62-.27,1.24-.43,1.85-.32,1.24-.75,2.45-1.06,3.68l2.95.4c.12-2.48.29-5,.4-7.43,0-1.23.11-2.47.18-3.71s.31-2.55-.27-3.58a.91.91,0,0,0-1.41-.19Z"/><path class="cls-2" d="M315.21,82.19a91.75,91.75,0,0,0-1.82,9.14l-.63,4.52a23.34,23.34,0,0,0-.49,4.63l2.11-.57c-1.26-1.81-.69-4.82-.65-7,0-1.1,0-2.2.06-3.3q0-.7.12-1.41c0-.41,0-1.85.39-2.12l-1-1.28c-1.05,1-.78,3.25-.92,4.65-.17,1.83-.24,3.67-.38,5.5-.28,3.68-.68,7.36-1.21,11l2.35-1L313,105a1.28,1.28,0,0,0-1.32,0l-.14.09a1.6,1.6,0,1,0,2.41,1.38c.49-3.71.86-7.45,1.09-11.19.11-1.83.24-3.67.19-5.5,0-1.48.34-3.76-.75-4.89-.75-.77-2,.51-1.16,1.15s.42,2.81.4,3.66c0,1-.09,2-.13,3.06l-.14,3.06c-.06,1.32,0,2.82-.83,3.91-1.21,1.51,1.4,2.79,1.89,1.1a23.78,23.78,0,0,0,.52-4.62l.34-4.56c.24-3.15.23-6.21.16-9.36,0-.18-.27-.22-.31,0Z"/><path class="cls-2" d="M313.74,85a66.76,66.76,0,0,0-1.86,6.6c-.43,2.13-.64,4.31-.88,6.46a110.28,110.28,0,0,0-1.07,13.58c0,2.19,3.24,2.15,3.37,0,.27-4.43.17-8.89.43-13.33.12-2.14.35-4.27.41-6.4.07-2.29-.05-4.58-.09-6.87a.16.16,0,0,0-.31,0Z"/><path class="cls-2" d="M311.84,101.34c-.11,2-.53,3.93-.67,5.91s-.05,4-.05,5.92.08,4,.14,5.92-.2,4.16.65,5.83c.69,1.38,2.46.77,2.94-.39a8,8,0,0,0,.22-3.16c0-.91-.1-1.82-.16-2.74-.11-2-.24-3.94-.45-5.92s-.35-3.89-.72-5.81-1-3.73-1.4-5.63c-.06-.29-.49-.21-.5.07Z"/><path class="cls-2" d="M312.11,102.36c0,1.68-.27,3.36-.3,5s0,3.14.05,4.71.05,3.15,0,4.73-.33,3.57.81,4.81a1.16,1.16,0,0,0,1.63,0c1.23-1.11,1-3.29,1-4.81s-.12-3.28-.24-4.91a33.41,33.41,0,0,0-.73-4.88c-.39-1.66-1.11-3.18-1.65-4.78a.3.3,0,0,0-.58.08Z"/><path class="cls-2" d="M311.32,106.05c-.8,5.23-1.66,10.4-2.18,15.67-.25,2.62-.29,5.26-.35,7.89s-.27,5.57.36,8.14c.43,1.73,3.32,1.87,3.65,0a40.09,40.09,0,0,0,.09-7.9c-.07-2.62,0-5.25-.11-7.88-.17-5.22-.35-10.52-.12-15.74,0-.75-1.22-1-1.34-.18Z"/><path class="cls-2" d="M313.07,121.17a58.6,58.6,0,0,0-1.33,12.59q0,3.19.17,6.39c.08,2.08,0,4.61.71,6.59a1.75,1.75,0,0,0,3.41-.47,17.9,17.9,0,0,0-.2-3.42c-.09-1-.18-2-.29-2.95-.23-2.12-.41-4.25-.58-6.39-.33-4.14-.89-8.24-1.59-12.34a.16.16,0,0,0-.3,0Z"/><path class="cls-2" d="M312.45,129.47c-.09,1.15-.55,2.27-.69,3.43s-.23,2.62-.33,3.92c-.2,2.7-.29,5.38-.31,8.09s.06,5.22.21,7.83c.08,1.31.17,2.61.26,3.92s0,2.94.75,4.06,2.46,1.31,3.05,0,.35-2.45.26-3.82-.18-2.61-.26-3.91c-.14-2.61-.26-5.23-.42-7.84s-.28-5.23-.44-7.84c-.08-1.31-.12-2.62-.21-3.92s-.5-2.63-.5-3.92a.69.69,0,0,0-1.37,0Z"/><path class="cls-2" d="M309.76,134.81a19.89,19.89,0,0,0-.95,4.05c-.08,1.4-.1,2.83-.06,4.22.1,3,.25,6,.47,8.95l.64,8.7c.1,1.41.25,2.81.39,4.22.08.79.1,1.63.26,2.41a3.31,3.31,0,0,0,1.47,2.13,2.09,2.09,0,0,0,2.53-.33c1.22-1.33.93-2.8.79-4.46-.12-1.41-.24-2.82-.39-4.22l-1-8.95c-.32-2.92-.73-5.83-1.16-8.74-.2-1.38-.47-2.76-.79-4.11a10.49,10.49,0,0,0-.59-2c-.31-.68-.79-1.28-1.11-2a.3.3,0,0,0-.54.07Z"/><path class="cls-2" d="M314,155.39a14.38,14.38,0,0,0-1.56,7c-.07,2.62.14,5.26.17,7.88s.1,5.26.14,7.9c0,1.31,0,2.63.05,3.94a17.64,17.64,0,0,0,.21,4c.49,2.07,3.93,2.77,4.86.63a9.37,9.37,0,0,0,.5-4.11c0-1.4-.05-2.8-.09-4.2-.08-2.72-.19-5.43-.41-8.14s-.37-5.37-.76-8a13.28,13.28,0,0,0-2.68-6.94.27.27,0,0,0-.43,0Z"/><path class="cls-2" d="M312.31,169.61a9.54,9.54,0,0,0-.72,1.87,16.16,16.16,0,0,0-.1,2.09c0,1.57.11,3.14.18,4.71s.08,3,.17,4.53c.05.76.09,1.52.13,2.28a9.15,9.15,0,0,0,.28,2.56,1.79,1.79,0,0,0,3.41,0,8.14,8.14,0,0,0,.1-2.56c0-.82-.07-1.64-.11-2.45-.08-1.52-.24-3-.39-4.54s-.28-3.09-.53-4.62a11.84,11.84,0,0,0-.52-2.36,13.61,13.61,0,0,0-1-1.62.47.47,0,0,0-.85.11Z"/><path class="cls-2" d="M311.15,165.82c-.87.79-.95,2.33-.93,3.42,0,1.54.15,3.08.2,4.62q.16,4.75.47,9.5c.19,3.1.32,6.19.38,9.29,0,1.55,0,3.1,0,4.65,0,1.73-.06,3.33,1.05,4.74a1.86,1.86,0,0,0,2.64,0c1.14-1.36,1.11-3,1.11-4.74q0-2.33-.06-4.65c-.08-3.18-.22-6.36-.45-9.53a83.53,83.53,0,0,0-1.16-9.32c-.29-1.58-.57-3.18-.93-4.76-.26-1.13-.74-2.74-1.88-3.28a.41.41,0,0,0-.48.06Z"/><path class="cls-2" d="M313.49,187.26c0,2.1-.5,4.24-.57,6.35s-.16,4.08-.13,6.13,0,4.09.06,6.13c0,1.06,0,2.13,0,3.19a3.47,3.47,0,0,0,1.47,3.15,2,2,0,0,0,2.09,0,3.43,3.43,0,0,0,1.44-3.15c0-1.06-.06-2.13-.1-3.19-.08-2.13-.29-4.24-.51-6.36s-.63-4.25-1.06-6.35-1.34-4-1.78-6a.49.49,0,0,0-1,.13Z"/><path class="cls-2" d="M316.92,184.39c-.18.58-.64,1.16-.86,1.74a11.71,11.71,0,0,0-.5,2.35c-.27,1.69-.36,3.43-.49,5.14-.27,3.38-.41,6.78-.5,10.17s-.19,6.61-.19,9.92v5.21c0,1.8-.13,3.71.8,5.32a2.21,2.21,0,0,0,3.79,0c.89-1.54.8-3.35.81-5.08V214c0-3.39-.08-6.77-.17-10.16s-.23-6.63-.47-9.93c-.12-1.71-.22-3.45-.47-5.14a14.26,14.26,0,0,0-.45-2.36c-.23-.68-.74-1.3-.94-2a.2.2,0,0,0-.38,0Z"/><path class="cls-2" d="M315.58,199.49c-.54,1.56-1.16,3-1.59,4.62s-.63,3-.89,4.55a93.57,93.57,0,0,0-1.14,9.75c-.22,3.13-.32,6.26-.4,9.4,0,1.65-.08,3.3-.05,4.95s-.08,3.44,1.29,4.68c1.87,1.69,5.6.08,4.59-2.68.15.41,0,0,0-.27v-1c0-.74,0-1.48,0-2.23,0-1.48,0-3,0-4.45,0-3,.08-6.1.15-9.15s.09-5.92,0-8.9c0-1.48,0-3-.12-4.43s-.43-3.11-.6-4.68a.64.64,0,0,0-1.26-.17Z"/><path class="cls-2" d="M317.57,218.17c-1.27,2.13-1.51,4.84-1.8,7.26-.15,1.31-.22,2.64-.34,4s-.37,2.8-.36,4.21c0,2.64,0,5.28.11,7.92l.14,4.21a10.25,10.25,0,0,0,.81,4.69c1,1.81,4.12,2,5,0,1.18-2.59.59-5.86.51-8.65s-.22-5.45-.38-8.17-.76-5.38-1.16-8c-.38-2.47-.84-5.3-2.28-7.4a.16.16,0,0,0-.27,0Z"/><path class="cls-2" d="M317.72,238.42a6,6,0,0,0,.42-1.44,1.66,1.66,0,0,0-2.76-1.6c-1,1.11-1.25,3-1.55,4.45s-.51,3-.72,4.49-.43,3.19-.6,4.79a17.3,17.3,0,0,0-.23,4.81,2.23,2.23,0,0,0,2.13,1.61,2.26,2.26,0,0,0,2.12-1.61,10.25,10.25,0,0,0,.28-2.54c.05-.76.11-1.51.17-2.27.12-1.4.26-2.81.42-4.21s.38-2.79.55-4.19c.09-.74.15-1.49.24-2.24a5,5,0,0,0-.05-2.36l-.75,1.86.18-.07h-1.12c.23.11.12-.11.11.2a.63.63,0,0,0,1.16.32Z"/><path class="cls-2" d="M315.11,243.31a54.33,54.33,0,0,0-1.29,12.59c0,2,0,4.12.23,6.16s.19,4.7,1.4,6.51v-1.68l-.08.15a1.51,1.51,0,0,0,.54,2.06l.14.07a1.69,1.69,0,0,0,2.45-1c.61-1.92.07-4.15-.12-6.11s-.44-4.1-.6-6.16c-.32-4.13-.58-8.25-1-12.36-.09-.88-1.42-1.22-1.65-.23Z"/><path class="cls-2" d="M317.47,248.21a7.18,7.18,0,0,0-1.26,3.23c-.19,1.29-.36,2.56-.47,3.85-.22,2.44-.46,4.88-.65,7.33s-.26,4.84-.4,7.26c-.07,1.21-.13,2.44-.25,3.65s-.43,2.42.23,3.42a2,2,0,0,0,2.14.87c2.41-.57,2.44-4.63,2.55-6.57.14-2.63.18-5.27.22-7.9s0-5.21-.06-7.82c0-1.3-.08-2.6-.17-3.9a8.1,8.1,0,0,0-.21-1.78,10,10,0,0,0-.82-1.64.5.5,0,0,0-.85,0Z"/><path class="cls-2" d="M315.47,265.19c-.27,1.52-.74,3-1,4.51s-.54,3.07-.72,4.62c-.36,3.18-.66,6.39-.81,9.59s-.26,6.24-.31,9.36c0,1.56,0,3.12,0,4.68a10.78,10.78,0,0,0,.84,4.91,1.93,1.93,0,0,0,3.31,0,10.66,10.66,0,0,0,.66-4.66q0-2.34,0-4.68-.06-4.68,0-9.36c.07-3,.09-6.07.2-9.11.06-1.55,0-3.11,0-4.66s-.17-3.27-.11-4.91c0-1.21-1.94-1.52-2.15-.29Z"/><path class="cls-2" d="M318.45,274.06a7.42,7.42,0,0,0-.85,2.11c-.16.84-.23,1.71-.34,2.55-.23,1.74-.35,3.48-.49,5.22s-.14,3.48-.19,5.22-.53,4,.76,5.27a1.69,1.69,0,0,0,2.35,0c1.31-1.18.88-3.67.87-5.27s0-3.48-.05-5.22-.17-3.48-.35-5.22c-.08-.85-.14-1.71-.28-2.55a7.46,7.46,0,0,0-.79-2.11.38.38,0,0,0-.64,0Z"/><path class="cls-2" d="M313.87,263.73a17.84,17.84,0,0,1,0,3.35c0,1,0,2.06.05,3.09,0,2.23-.09,4.46-.07,6.69,0,4.29-.32,9.07,1.51,13a.33.33,0,0,0,.57,0c1.82-4.22,1.26-9.26,1.18-13.77a60.46,60.46,0,0,0-.46-6.85,14.16,14.16,0,0,0-.68-2.93,24.08,24.08,0,0,0-1.59-2.85c-.15-.31-.6-.08-.53.23Z"/><path class="cls-2" d="M317.51,287.92c-.13,1-.57,1.94-.68,3s-.25,2.32-.28,3.48c-.06,2.23-.08,4.47-.14,6.71s0,4.47,0,6.7-.55,4.79.37,6.75a1.57,1.57,0,0,0,2.69,0c1-1.89.55-4.66.56-6.75s0-4.47-.07-6.7-.2-4.48-.39-6.71c-.09-1.11-.28-2.19-.47-3.29s-.73-2.13-1-3.24c-.08-.36-.54-.23-.58.07Z"/><path class="cls-2" d="M316.28,295a10.69,10.69,0,0,0-1.31,3.42,31.88,31.88,0,0,0-.39,4.13c-.13,2.87-.32,5.75-.34,8.62l-.06,8.38c0,2.67-.55,6.14.7,8.59a1.9,1.9,0,0,0,3.25,0c1.23-2.39.74-5.73.73-8.34l0-8.63c0-2.79-.19-5.58-.31-8.37a38.11,38.11,0,0,0-.36-4.14,10.73,10.73,0,0,0-1.33-3.66.32.32,0,0,0-.54,0Z"/><path class="cls-2" d="M317.26,312.13a9.14,9.14,0,0,0-1.2,3.47c-.2,1.33-.37,2.68-.5,4-.27,2.9-.47,5.8-.74,8.7s-.54,5.64-.78,8.47-.69,5.95-.21,8.79c.35,2,3.68,2,4.06,0,.55-2.84.37-5.9.59-8.79s.53-5.8.74-8.71a66.39,66.39,0,0,0,.28-8.46,26.49,26.49,0,0,0-.58-4.25,6.65,6.65,0,0,0-1.62-3.24Z"/><path class="cls-2" d="M316.89,336.56a7.27,7.27,0,0,1-.43,2.12c-.12.7-.31,1.38-.46,2.08a52.85,52.85,0,0,0-.83,5.62c-.21,1.79-.27,3.59-.36,5.39a38.86,38.86,0,0,0-.22,5.6,2.4,2.4,0,0,0,2.06,2.34,2.37,2.37,0,0,0,2.62-1.71,41.65,41.65,0,0,0,.28-6c.05-1.94.12-3.87,0-5.81a44.45,44.45,0,0,0-.48-5.76,10.38,10.38,0,0,0-.6-2.41c-.29-.64-.88-1-1.19-1.62-.13-.24-.48-.07-.43.18Z"/><path class="cls-2" d="M314.92,344c-1.66,1-1.46,3.13-1.49,4.85,0,2,.13,4,.23,6s.17,4,.24,6-.21,4.49.5,6.43a2.36,2.36,0,0,0,4.51,0c.8-2,.47-4.72.42-6.87s-.23-4.32-.44-6.47a40.69,40.69,0,0,0-1.12-6.59,6.14,6.14,0,0,0-1.26-2.78c-.31-.3-1.11-.9-1.59-.6Z"/><path class="cls-2" d="M316.49,358.28c-.44,3.21-.55,6.44-1,9.65-.23,1.74-.26,3.51-.46,5.26s-1,4.11.41,5.39a2.09,2.09,0,0,0,2.45.32c1.25-.64,1.32-1.78,1.47-3,.11-.9.2-1.79.24-2.7a34.19,34.19,0,0,0,0-5.06,32.42,32.42,0,0,0-2.4-9.95.42.42,0,0,0-.75.1Z"/><path class="cls-2" d="M315.71,366.29c-.09.12-.33.21-.45.33a2.46,2.46,0,0,0-.33.62c.05-.1-.11.17-.12.2a2.41,2.41,0,0,0-.24.82,5.81,5.81,0,0,0-.15,1.37l.06,1.08a25.31,25.31,0,0,0,.24,2.61c.16,1.08,1.08,2.43,2.34,2.09s1.5-1.64,1.5-2.69a17.56,17.56,0,0,0-.29-2.69c0-.32-.08-.66-.15-1a7.19,7.19,0,0,0-.52-1.33,3.86,3.86,0,0,0-.73-1,1.38,1.38,0,0,0-.4-.32c-.14-.08-.4-.12-.49-.19a.2.2,0,0,0-.27.07Z"/><path class="cls-2" d="M315.12,370a3,3,0,0,0-.62.88,5.47,5.47,0,0,0-.23.64A6.37,6.37,0,0,0,314,373c0,.31-.05.61-.06.91a2.68,2.68,0,0,0,.85,2.21l.44.35a1.69,1.69,0,0,0,.82.26,2.14,2.14,0,0,0,1.4-.26,2.61,2.61,0,0,0,1.2-1.51,7.8,7.8,0,0,0,.13-1c0-.31,0-.63,0-.94a6.34,6.34,0,0,0-.14-1.44c0-.14-.06-.28-.1-.42a3.51,3.51,0,0,0-.7-1.14,1.94,1.94,0,0,0-1.39-.57,2,2,0,0,0-1.38.57Z"/><path class="cls-2" d="M318.06,374.6l-.15.58a2.51,2.51,0,0,0,0,.67,3.11,3.11,0,0,0,.07.69,1.09,1.09,0,0,0,.12.36,1.61,1.61,0,0,0,.22.23.24.24,0,0,0,.37,0,1.69,1.69,0,0,0,.17-.29,1.58,1.58,0,0,0,0-.38,3.26,3.26,0,0,0-.09-.69l0-.29a1.14,1.14,0,0,0-.13-.35l-.26-.52a.15.15,0,0,0-.28,0Z"/><path class="cls-3" d="M312.64,67.18a1.2,1.2,0,0,0-.59,1.12,2.43,2.43,0,0,0,.26,1.09,1.25,1.25,0,0,0,1.4.58,1.33,1.33,0,0,0,.92-1.2,7,7,0,0,0-.11-1.29,1.52,1.52,0,0,0-.41-1,1.39,1.39,0,0,0-2.37,1c0,.76.08,1.53.17,2.28a3,3,0,0,0,.71,1.7,5.87,5.87,0,0,0,1,.82c.63.44,1.24.89,1.88,1.3a3.15,3.15,0,0,0,1.55.6A2.07,2.07,0,0,0,318,74a1.87,1.87,0,0,0,1.06-1.17l.05-.43a1.13,1.13,0,0,0-.14-.63,1.51,1.51,0,0,0-.67-.78,1.65,1.65,0,0,0-2,.25l-.05.06.33-.26-.06,0,.39-.16-.12,0,.43-.06h-.14l.44.06a.73.73,0,0,1-.21-.06l.39.17c-.54-.25-1-.65-1.54-1s-1.05-.59-1.54-.93l.31.24a2.37,2.37,0,0,1-.28-.27l.24.31a1.51,1.51,0,0,1-.11-.22l.15.36a6.89,6.89,0,0,1-.24-1.2c-.07-.43-.14-.86-.23-1.29l-2.68.74a8,8,0,0,0,.52,1.54l1.7-1.7-.11-.07.13.1,0,0-.05,0,.09.11a1.39,1.39,0,0,0-.15-.22,1.15,1.15,0,0,0-.21-.23.48.48,0,0,0-.22-.12c-.14-.06-.15-.07,0,0s.1,0,0,0a.42.42,0,0,0-.21-.06.85.85,0,0,0-.54.1Z"/><path class="cls-3" d="M288.62,38a4.63,4.63,0,0,0,1.5,3.36c.62.55,1.22,1.12,1.81,1.69,1.25,1.2,2.51,2.37,3.72,3.6a85.53,85.53,0,0,1,6.3,7.24,79.26,79.26,0,0,1,5.57,8.47c.81,1.44,1.62,2.9,2.33,4.39.18.38.34.76.51,1.15a4,4,0,0,1,.21.51A29.37,29.37,0,0,0,312,71.68a4.34,4.34,0,0,0,7.93-3.34,31,31,0,0,0-2.77-5.41c-.87-1.49-1.71-3-2.63-4.46a102.75,102.75,0,0,0-6.48-9,83.89,83.89,0,0,0-6.9-7.7c-1.27-1.26-2.57-2.51-3.95-3.66-.77-.63-1.56-1.24-2.34-1.84a10.29,10.29,0,0,0-1-.75,3.44,3.44,0,0,0-1.74-.47l-.61.08c-1.42.14-3.05,1.21-2.88,2.88Z"/><path class="cls-3" d="M291,35.92a2.9,2.9,0,0,0-.19.29,1.74,1.74,0,0,0,1.5,2.6c1.44-.07,2.34-1.16,3.43-2s2.39-1.88,3.53-2.89c2.19-1.95,4.26-4,6.29-6.11s3.88-4.17,6-6.08c.46-.42.93-.83,1.41-1.22l.64-.53s1.05-.84.48-.39.51-.38.49-.37l.68-.48c.62-.45,1.25-.87,1.89-1.28,1.1-.71,2.24-1.38,3.4-2,.49-.25,1-.5,1.48-.74l.94-.43c.32-.14.25-.11-.24.09l.58-.23A34.29,34.29,0,0,1,327,13c.53-.15,1.06-.28,1.59-.4l1-.21c.32-.06,1.77-.47.44-.1a10.74,10.74,0,0,1,3.35-.11,3.3,3.3,0,0,0,.74.06c-.6.24-.77-.12,0,0,.3.07.58.17.88.24.93.2-.75-.49.14,0l.62.35c.84.46-.09-.13-.14-.14.24.06.48.48.67.65.53.45-.5-.9.11.16.31.55.62,1.09.9,1.66.15.32.28.64.43,1a2.63,2.63,0,0,1,.23.54A90.52,90.52,0,0,1,343.37,36l7.29-5.6a4.14,4.14,0,0,0-.88-.41c-.79-.32-.78-.33,0,0-2.81-1.67-7.23.43-6.92,4a6.59,6.59,0,0,0,1.74,4.25,5,5,0,0,0,6,.78,5.25,5.25,0,0,0,2.28-5.6,88.76,88.76,0,0,0-5.28-18.87c-1.28-3.14-2.52-6.63-5.21-8.88A15.21,15.21,0,0,0,333,2.22C326.91,2,320.52,4.3,315.2,7.17a58.69,58.69,0,0,0-14.31,11.21,43.54,43.54,0,0,0-6.61,8.91,36.47,36.47,0,0,0-2.46,5.26c-.52,1.42-1.63,3.51-1.19,5l1.67-2.18.45.1a1.3,1.3,0,0,0-1.76.46Z"/><path class="cls-3" d="M315.56,67.14c3.41,2,7.36-1.34,9.76-3.59,2.79-2.62,5.76-5.14,8.34-8q7.88-8.6,15.61-17.33c1.72-1.94,2.05-5.13,0-7-1.88-1.72-5.19-2.08-7,0q-7.29,8.31-14.7,16.5c-1.21,1.35-2.37,2.72-3.49,4.14-.7.89-1.37,1.79-2.06,2.68s-.72.92-1.29,1.61a29.12,29.12,0,0,0-3.57,4.72c-.49.94-.85,1.94-1.29,2.9a4.35,4.35,0,0,1-.57,1.16,1.41,1.41,0,0,0,.28,2.19Z"/><path class="cls-3" d="M319.26,60.46c.91-.81,1.82-1.61,2.74-2.4,0,0,1.05-.78.61-.46a9.66,9.66,0,0,0,1.7-1.73c1.49-1.74,3-3.49,4.46-5.22,2.9-3.38,5.76-6.8,8.74-10.1q2.33-2.56,4.74-5c2-2,3.32-4.29,3-7.24-.59-5.16-1.43-10.31-2.14-15.45-.26-1.9-2.42-3.33-4.12-3.56a5,5,0,0,0-5,2.37,27.48,27.48,0,0,0-2.37,23.68,5,5,0,0,0,5.45,3.55A4.94,4.94,0,0,0,341.4,34l-1-22a5,5,0,0,0-9.74-1.32q-3.06,9.44-6.13,18.86c-2,6.24-4.54,12.57-4.61,19.22a5,5,0,0,0,3.05,4.53c1.65.69,4.2.51,5.41-1a16.6,16.6,0,0,0,3.44-8.9c.31-2.74.33-5.51.62-8.25.07-.71.16-1.42.25-2.13,0-.38.09-.62,0-.09.06-.39.11-.79.17-1.18.23-1.48.5-3,.8-4.44.59-3,1.33-5.87,2.2-8.76.71-2.39-.86-5.63-3.46-6.1-9.55-1.69-13.71,8.54-16.77,15.66a122.62,122.62,0,0,0-7.54,23.82,5,5,0,0,0,1.78,5.21,4.91,4.91,0,0,0,5.5.38c3.41-2.25,4.37-6.13,5.73-9.75l3.76-10,7.59-20.16c.87-2.3-.78-5-2.87-5.84a5,5,0,0,0-6.18,2A88.78,88.78,0,0,0,309,55.63c-.25,3,3.4,5.87,6.27,4.78a15.34,15.34,0,0,0,6.49-4.33,5.14,5.14,0,0,0,.78-6c-.4-.69-.78-1.38-1.12-2.09-.18-.38-.38-.86-.11-.2-.17-.4-.32-.8-.46-1.21A26.81,26.81,0,0,1,319.68,42a5,5,0,0,0-4.77-3.64A5.11,5.11,0,0,0,310.13,42,38.26,38.26,0,0,0,310,63.5a5,5,0,0,0,5.43,3.55c2.18-.29,4.61-2.42,4.29-4.86a46.56,46.56,0,0,0-12.31-26.38,4.93,4.93,0,0,0-6.49-.39c-1.77,1.37-2.76,4.41-1.28,6.39a49.43,49.43,0,0,1,5.36,9l7.78-6Q307,37.41,300.67,30.47l-7,7a70,70,0,0,1,7.5,7.41c3.26,3.74,9.72-.22,8.27-4.82-.77-2.44-1.47-4.89-2.09-7.37a21.7,21.7,0,0,0-.82-3.54c.1.22,0,1.11.1.45a2.38,2.38,0,0,0,0-.59c.07.14-.24,1.14,0,.48A2.89,2.89,0,0,1,305.49,31a1.85,1.85,0,0,1-1.73.44,1.72,1.72,0,0,1-2.09-.19c-.69-.48-.89-.57-.58-.27s.15.15-.08-.12c-.3-.63,0,.13.12.26l.51.82,2,3.29,4.2,6.78a5,5,0,0,0,9.05-3.81l-4.57-14.1-9,3.81,7.16,10.52a5,5,0,0,0,7.77,1c2.81-2.7,3.84-6.51,4-10.31.06-1.57-.08-3.13-.13-4.69,0-.91,0-1.8,0-2.71,0,.88,0-.08.1-.44s.25-.85.4-1.27l-9.71-1.32a11,11,0,0,0,1.31,5.3,4.93,4.93,0,0,0,4.27,2.45A5.21,5.21,0,0,0,322.79,24a37.72,37.72,0,0,0,5.63-10.8c1.36-4-3.74-8-7.26-5.59a89,89,0,0,0-10.77,8.47c-3.27,3-7.16,6.53-7.89,11.13-.33,2.12.2,4.49,2.27,5.58a5,5,0,0,0,6-.77c1.58-1.64,3.22-3.21,4.95-4.69.75-.65,1.52-1.28,2.3-1.89-.87.68.55-.41.7-.52.46-.33.92-.67,1.39-1a69,69,0,0,1,11.5-6.46l-6-7.76c-4.63,4.37-9.87,8-14.47,12.44a45,45,0,0,0-6.51,7.73c-2.26,3.46-4.72,8.86-.79,12.19a5.09,5.09,0,0,0,7,0,84.66,84.66,0,0,0,8.71-8.22c.61-.7,1.2-1.41,1.79-2.13.42-.51.83-1,1.23-1.54s.48-.62.22-.26a3.86,3.86,0,0,0,.91-1.32c.46-1,.82-2,1.2-3a7.15,7.15,0,0,0,.79-3L325,24.33l.3-.35a2.51,2.51,0,0,0,0-3.45,2.45,2.45,0,0,0-3.45,0l-.3.35,1.72-.71c-1.89.14-3.92,1.5-5.57,2.44-1.86,1.05-3.45,2.93-5.05,4.35-3,2.66-5.75,5.54-8.78,8.16h7a2.53,2.53,0,0,1,.59,1.37,1.73,1.73,0,0,1,.12,1.47s.31-1.28.06-.38.13-.22.22-.4c.18-.34.36-.67.55-1,.35-.59.72-1.18,1.11-1.75l.54-.77c.14-.19.72-1.21.14-.19a17.16,17.16,0,0,1,2.62-3c1-1,2-2,3-2.89,4.17-3.74,8.71-7,12.79-10.88a4.94,4.94,0,0,0,.38-6.49C331.37,8.15,328.9,8,326.61,9a72.63,72.63,0,0,0-22.84,16.1L312,29.87a12.43,12.43,0,0,1,.33-1.37c.12-.34.08-.25-.11.26.12-.24.26-.48.4-.71s.86-1.17.18-.33c.26-.33.53-.64.81-.94,1.27-1.4,2.66-2.71,4.06-4s2.9-2.53,4.4-3.73c.83-.66-.51.37.41-.32L323.6,18c.84-.61,1.69-1.2,2.55-1.78l-7.26-5.58c-.15.41-.29.83-.45,1.24,0,.1-.61,1.4-.16.44-.37.79-.74,1.58-1.16,2.36A33.45,33.45,0,0,1,314.25,19h8.54c.31.61.15.28,0-.17s0,1,.06-.13a4.95,4.95,0,0,0-9.71-1.31c-1.21,3.3-.87,6.79-.78,10.22,0,.63,0,1.27,0,1.9,0,.16-.09,1.26,0,.49s-.06.31-.09.47c-.09.37-.2.72-.3,1.08-.25.87.31-.45,0,0a4.87,4.87,0,0,1-.46.78l.32-.42a5.19,5.19,0,0,1-.52.53l7.77,1L311.86,23a5,5,0,0,0-6.18-2,4.91,4.91,0,0,0-2.86,5.83l4.57,14.1,9-3.81-5.61-9a20.77,20.77,0,0,0-3-4.21,6.48,6.48,0,0,0-7.57-1.11c-3.53,2-3.94,6.22-3.14,9.83.76,3.43,1.7,6.82,2.76,10.17l8.27-4.81a70.9,70.9,0,0,0-7.5-7.41c-2-1.68-5.09-2.08-7,0a5.06,5.06,0,0,0,0,7Q300,44.39,305.79,51.8c1.51,1.93,4.75,1.73,6.5.39,2.06-1.6,2.32-4.11,1.27-6.39a50.12,50.12,0,0,0-5.36-9l-7.78,6c.76.79,1.46,1.62,2.16,2.46.35.43.34.42,0,0l.36.49c.28.38.56.77.83,1.17a41.08,41.08,0,0,1,3.06,5.31c.24.49.46,1,.68,1.48-.48-1.07.06.19.12.33.39,1,.74,2.05,1.05,3.1s.51,1.84.72,2.77c.11.53.22,1.07.31,1.6.05.24.3,2,.13.71l9.73-1.32a33.62,33.62,0,0,1-1-4.45c.11.73,0,.13,0-.26L318.47,55q-.08-1.14-.06-2.28c0-.76,0-1.52.09-2.28,0-.3.06-.6.08-.9.13-1.44-.12.54,0-.27a43.67,43.67,0,0,1,1.07-4.66h-9.55A31.65,31.65,0,0,0,314,55.08l.77-6c-.25.29-.5.57-.77.84s-.28.27-.42.39-.19.17.25-.19a3.18,3.18,0,0,1-1,.61c-.26.14-1.33.55-.21.13l6.27,4.77c.07-.86.15-1.73.25-2.59,0-.43.1-.86.15-1.29-.14,1.17,0-.27.06-.41q.39-2.56.94-5.12a81.59,81.59,0,0,1,2.75-9.81c.55-1.57,1.15-3.12,1.78-4.66-.42,1,.14-.32.18-.42l.54-1.18c.36-.79.73-1.57,1.12-2.35a85,85,0,0,1,5.22-9L322.87,15,315.8,33.75,312.3,43l-1.74,4.63c-.15.39-.31.77-.44,1.16-.28.87.33-.58,0-.05-.05.07-.32.77-.42.76l.37-.45c-.38.37-.3.33.23-.13l7.28,5.59A116.52,116.52,0,0,1,323.77,34l.44-1.07c-.37.9.15-.33.23-.51.36-.84.74-1.69,1.13-2.52.74-1.59,1.5-3.17,2.32-4.71.32-.59.66-1.16,1-1.72l.42-.6-.32.42a7.62,7.62,0,0,1,.73-.81l.39-.36c.28-.24.17-.17-.33.23a4.1,4.1,0,0,1,.86-.52s-1.16.37-.11.13c.38-.09.21-.06-.52.07.55,0,.44,0-.31-.08l-3.46-6.09a105.46,105.46,0,0,0-3.57,17.34c-.33,2.67-.51,5.34-.67,8,0,.58-.1,1.16-.13,1.74s.17-.87,0-.17c0,.25-.08.5-.13.75a9.44,9.44,0,0,1-.46,1.63s.49-.95,0,0c-.12.23-.65,1,0,.08l8.46,3.51c0-.78.06-1.55.13-2.32.08-.94-.09.27,0-.29.09-.37.14-.76.22-1.14.29-1.44.69-2.87,1.12-4.28.92-3,1.93-6,2.91-9l6-18.39L330.44,12l1,22,9.74-1.32A13.82,13.82,0,0,1,340,28c0,1.2,0,0,0-.29,0-.41,0-.81-.05-1.22,0-.81,0-1.62.07-2.43,0-.3,0-1.47,0-.29a6.08,6.08,0,0,1,.22-1.19,24,24,0,0,1,.63-2.35c.13-.38.28-.76.41-1.14-.23.64-.15.33.06-.12a22.44,22.44,0,0,1,1.26-2.31l-9.07-1.19c.63,4.55,1.4,9.09,1.9,13.66-.07-.57-.08-.57,0,0a2.87,2.87,0,0,1,.32-1l.35-.42-.5.54c-.74.79-1.48,1.57-2.21,2.36-1.47,1.58-2.9,3.19-4.31,4.81a134.3,134.3,0,0,0-8.39,10.79c-1.22,1.74-2.4,3.57-3.47,5.41a37.42,37.42,0,0,0-2.39,6.32c-.94,2.7,2.62,4.25,4.47,2.61Z"/><path class="cls-3" d="M326.3,19a13.76,13.76,0,0,0-4.25,5.56,52.84,52.84,0,0,0-3.32,8.23c-.82,2.67-1.57,5.36-2.33,8A68.8,68.8,0,0,0,314.06,50c-.27,2.07,1.83,3.91,3.67,4.15a4.29,4.29,0,0,0,4.65-3,58.86,58.86,0,0,0,1.83-7.93c.58-2.65,1.17-5.3,1.7-8a60.9,60.9,0,0,0,1-8.19A30.57,30.57,0,0,0,327,23c-.09-1.2-.54-2.54-.29-3.72,0-.21-.19-.46-.4-.31Z"/><path class="cls-4" d="M320.62,68.84a5.73,5.73,0,0,0,3.36,0c.25-.05,1.64-.48.15-.25.64-.1,1.19.13,1.9,0a7.13,7.13,0,0,0,1-.24,28.35,28.35,0,0,0,2.64-1,44.89,44.89,0,0,0,7.06-3.81,96.23,96.23,0,0,0,13.29-11c3.93-3.81,7.68-7.8,11.75-11.47,1.05-.94,2.11-1.86,3.19-2.75.43-.36.87-.7,1.31-1.05,1.08-.87-.8.57.32-.25l1-.74a52.12,52.12,0,0,1,6.92-4.24c.68-.35,1.38-.66,2.07-1-.87.41-.22.09,0,0,.51-.2,1-.4,1.53-.58A49.87,49.87,0,0,1,383,29c3.41-.86,6.89-1.45,10.36-2,2.56-.43,4.22-3.72,3.45-6.08-.89-2.77-3.33-3.91-6.07-3.45-6.22,1-12.36,2.19-18.2,4.65a60,60,0,0,0-14.94,9.48c-8.46,7-15.5,15.57-23.78,22.8l-1.73,1.47-.64.51c-.22.18-.43.35-.65.51l-.21.16-1.08.85c.63-.49-.42.31-.44.33-.61.45-1.23.88-1.86,1.3-1.31.89-2.74,1.63-4,2.58-.52.4-.74.83-1.22,1.26.95-.85-.14-.15-.35,0a7,7,0,0,0-2,1.68,2.31,2.31,0,0,0,1,3.82Z"/><path class="cls-4" d="M392,22.75c.84-.27,1.72-.45,2.54-.79s1.54-.72,2.32-1.05c1.63-.69,3.28-1.33,4.94-1.9,1.89-.65,1.75-3.88-.5-3.7-.76.06-1.55.19-2.32.2s-1.53-.09-2.31,0a34.77,34.77,0,0,0-4.74.91l1.82,4.32a13.55,13.55,0,0,1,6.74-1.33l-1.72-4.15a27.61,27.61,0,0,1-3,2.63c-1.18.86-2.48,1.47-3.69,2.27s-2.14,1.47-3.21,2.21a17.25,17.25,0,0,1-1.9,1.3c.18-.09.35-.16-.29.07a9.85,9.85,0,0,0-1.8.92c-4.95,3.07-9.57,6.5-14.22,10-8.56,6.43-17.08,13-26.49,18.17q-2,1.09-4,2.08l-1.95.91-.79.35c-1.3.58.92-.37-.4.17a86.28,86.28,0,0,1-8.57,2.89l5.59,7.27.36-.82a4.61,4.61,0,0,0,0-4.44,4.47,4.47,0,0,0-3.8-2.18h-.84a4.94,4.94,0,1,0,1.32,9.72,70.52,70.52,0,0,0,15.81-6.18,123.46,123.46,0,0,0,13.87-8.46c4.47-3.09,8.79-6.37,13.13-9.63,5-3.81,10.29-7.45,14.91-11.77.56-.52,1.14-1,1.68-1.58s1-1.34,1.48-1.77c1.18-1.11,2.4-2.17,3.53-3.32s2.07-2.49,3.16-3.71,2.34-2.45,3.55-3.65a2.46,2.46,0,0,0-1.72-4.15,17.77,17.77,0,0,0-9.12,2.11c-2.4,1.27-.74,5,1.82,4.32,1.36-.36,2.73-.61,4.1-.94a28.86,28.86,0,0,1,4-1l-.5-3.71a49.68,49.68,0,0,0-5.3,2.31c-.81.42-1.65.84-2.42,1.33a16.81,16.81,0,0,0-2.17,1.88A1.12,1.12,0,0,0,392,22.75Z"/><path class="cls-4" d="M360,49.21c0,.27-.07.14.08,0s-.4.12-.19.19,1-.46,1.24-.56a21.92,21.92,0,0,0,2.78-1.69c1.79-1.15,3.49-2.45,5.25-3.64s3.44-2.28,5.19-3.36c.46-.28.92-.55,1.39-.81l.58-.29c.59-.32-.22,0,.16-.09,1.53-.55,3.27-1.38,3.53-3.2.2-1.37-.1-3.15-1.54-3.81a4.2,4.2,0,0,0-3.56-.23,14.14,14.14,0,0,0-1.65.83,25.26,25.26,0,0,0-3.3,2.43c-1.9,1.57-3.77,3.2-5.6,4.85a54.62,54.62,0,0,0-5.28,5.26,4.18,4.18,0,0,0-1.22,3.39c.12.78.58,1.52,1.48,1.42a.69.69,0,0,0,.66-.67Z"/><path class="cls-4" d="M359.68,44.34A6.36,6.36,0,0,1,358,45l.68.18-.16-.14L357,47.77c1.89.66,4.11-1.36,5.58-2.35.38-.26.73-.55,1.09-.83-.39.3-.26.19.05,0s.78-.56,1.18-.83c.84-.57,1.7-1.1,2.58-1.62s1.69-1,2.57-1.38c.44-.22.89-.42,1.33-.62.93-.42-.7.38-.2.08s1.05-.42,1.57-.66a29.25,29.25,0,0,0,2.78-1.44A17.8,17.8,0,0,0,377.1,37a6.68,6.68,0,0,0,2.32-3.18,4.75,4.75,0,0,0-1.24-4.69,4.82,4.82,0,0,0-4.69-1.24,6.44,6.44,0,0,0-2.87,1.74c.57-.43.71-.54.41-.32l-.37.25-.63.39c-.9.53-1.86.95-2.73,1.52a43.21,43.21,0,0,0-5.4,4.21,26.44,26.44,0,0,0-4.36,5,17,17,0,0,0-1.5,3c-.42,1.07-.78,2.4-.05,3.43,1,1.44,3.51.63,3-1.25l-.08-.28-.07.54a6.37,6.37,0,0,1,1.28-1.14c.33-.27-.09-.71-.42-.55Z"/><path class="cls-4" d="M267.15,28A4.19,4.19,0,0,0,268.42,30L270,31.59c1,1.06,2,2.11,3,3.17s2,2.12,3,3.19,2,2.28,3.06,3.3l2.67-3.45a15,15,0,0,0-2.62-1.26,13,13,0,0,1-2.23-1.06c-1.53-.9-3.08-1.79-4.57-2.75a8.47,8.47,0,0,1-1.65-1.32,12.07,12.07,0,0,0-1.4-1.37,2.75,2.75,0,0,0-2.9-.57.16.16,0,0,0,0,.27c.95.43,1.24,1.83,1.71,2.67a9.54,9.54,0,0,0,3.2,3c1.39.93,2.8,1.85,4.16,2.81a13.21,13.21,0,0,1,1.79,1.54,14.88,14.88,0,0,0,2.29,1.82,2.2,2.2,0,0,0,2.66-3.45c-1-1.08-2.25-2-3.37-3l-3.38-3c-1.13-1-2.24-2-3.36-3s-2.26-2.43-3.75-2.59c-.83-.08-1.21.81-1.12,1.47Z"/><path class="cls-4" d="M265,29.22c.91,1.49,2.6,2.37,4,3.3s3,2.07,4.52,3.17c2.62,1.93,5.6,3.76,7.62,6.37a2.23,2.23,0,0,0,3.5-2.7c-2.27-3-5.45-5.07-8.61-7-1.57-1-3.2-1.82-4.83-2.65s-3.55-2-5.44-1.86a.92.92,0,0,0-.79,1.37Z"/><path class="cls-4" d="M278.21,37.11A18.35,18.35,0,0,0,279.9,40l2.2,2.78q2,2.56,4,5.18c2.71,3.54,5.6,6.95,8.28,10.52a125.41,125.41,0,0,1,14,22.95c1.2,2.62,5.13.72,4.5-1.89-3.34-13.82-10.72-27.12-21.33-36.64a26.64,26.64,0,0,0-5-3.68,10.25,10.25,0,0,0-6-1.13c-.4,0-.83.41-.66.86a13.77,13.77,0,0,0,2.25,4.1A30.62,30.62,0,0,0,286,46.62a80.46,80.46,0,0,1,7.37,7.05,66.74,66.74,0,0,1,11.23,16.51,58.16,58.16,0,0,1,3.59,10.69L312.65,79A117,117,0,0,0,298,55.74a132.52,132.52,0,0,0-8.83-10.38c-1.58-1.64-3.18-3.26-4.78-4.87L281.94,38a17.85,17.85,0,0,0-2.69-1.94c-.66-.45-1.37.42-1,1Z"/><path class="cls-4" d="M319.69,125.48l1.06-.93-1.61-1.24c-.46.76-1.21,1.25-1.6,2.06-.78,1.66,1.25,3.54,2.67,2.06,3-3.12,6.06-6.11,9.17-9.1a80.82,80.82,0,0,1,9.44-8,43.92,43.92,0,0,1,10.71-5.75A94.38,94.38,0,0,1,363.07,101a104.39,104.39,0,0,1,25.53-1.59c2.12.13,4.27.26,6.37.55-.18,0-.59-.09.21.05l.84.13,1.45.26c1.11.2,2.22.42,3.33.65,4.23.89,8.48,1.66,12.66,2.78q3.5.93,6.93,2.09c1.14.38,2.28.78,3.41,1.2.59.22,1.18.51,1.79.68a16.79,16.79,0,0,0,2.35.31c-.62-.08.09,0,.18,0l1.05.15a16.81,16.81,0,0,1,1.88.34c1.14.33,2.2.94,3.34,1.27a17.48,17.48,0,0,1,3.17,1.16c1.14.58,2.26,1.18,3.38,1.8l1.75-4.15-4.26-1.79c-1.41-.58-2.66-1.41-4-2.07-2.05-1-4.76,1.12-3.34,3.35a12.83,12.83,0,0,0,5,4.64l2.64-4.51-3.19-1.4-2.09,5a79.14,79.14,0,0,1,19.33,8.43c2.35,1.36,5.16-2,3-3.87a45.21,45.21,0,0,0-20.87-9.8,2.72,2.72,0,0,0-1.44,5.24l3.27,1.21c2.75,1,4.73-3.6,2-4.78a8.14,8.14,0,0,1-3.45-2.6l-2.76,3.59c1.41.57,2.85,1,4.23,1.59l4.2,2c2.61,1.2,4.84-2.39,2.29-3.92-1.82-1.09-4-2-5.65-3.33a16.44,16.44,0,0,0-2.87-1.87,22.29,22.29,0,0,1-3-2c-.79-.59-1.55-1.24-2.38-1.78a19.34,19.34,0,0,0-4-1.66c-2.07-.75-4.16-1.45-6.26-2.08a90,90,0,0,0-27.3-4.29,127.84,127.84,0,0,0-27.21,1.78,90.48,90.48,0,0,0-13.69,3.33,48.08,48.08,0,0,0-12.38,6.66,79.31,79.31,0,0,0-11,9.78c-3.46,3.64-6.53,7.63-9.68,11.54l2.84,1.65a24.63,24.63,0,0,0,.36-2.58,1,1,0,0,0-1.87-.79l-.77,1.15c-.55.83.64,1.62,1.32,1Z"/><path class="cls-4" d="M320.51,122.69a1.37,1.37,0,0,0-2.43-.41c-1.11,1.27-.18,2.77,1.22,3.2a2.11,2.11,0,0,0,2.07-.55,11.15,11.15,0,0,0,2-4.89c.4-1.91.61-3.86,1-5.77.13-.69.16-1.13.56-1.32s1.46-.83,2.07-1.19l5.23-3.07c3.36-2,6.7-4,10.11-5.87,1.66-.91,3.39-1.69,5.09-2.51l1.23-.58c.46-.2.1,0,0,0l.63-.24c.65-.23,1.28-.49,1.91-.76s.05,0,0,0l.84-.34a52.7,52.7,0,0,1,11.17-3l.69-.1c.79-.14-.64.07.15,0l1.4-.16q1.52-.16,3-.27c1.94-.14,3.88-.22,5.82-.26,3.85-.06,7.7.08,11.54.34,1.92.12,3.84.3,5.75.52l1.38.17c.05,0,.81.11.26,0l.25,0,3,.46a119.29,119.29,0,0,1,25.05,7.16l2.62-9.51a41.1,41.1,0,0,1-6.92-1.69c-.57-.19-1.13-.4-1.68-.61-.17-.06-1.84-.72-.91-.33-1.08-.46-2.14-1-3.18-1.54a38.28,38.28,0,0,0-6.83-3.2,11.93,11.93,0,0,0-8.65.72c-2.32,1.07-3.07,4.59-1.75,6.64a5,5,0,0,0,6.65,1.75c-.62.28-.2.08.2,0s.67-.16,1-.23c-.43.08-.61,0-.07,0,.35,0,.7,0,1,0s.87.07.16,0c.36,0,.71.11,1.06.19.64.13,1.27.29,1.9.47a79.37,79.37,0,0,1,7.71,2.87l.37.15c-.63-.27.43.19.54.24.63.27,1.25.56,1.87.86,1.17.56,2.32,1.16,3.44,1.82.52.31,1,.63,1.54,1,.29.19.56.38.84.58s.66.5.13.07c.53.43,1,.86,1.54,1.32.2.19.39.37.58.57s.29.28.43.43c.28.3.19.2-.25-.3l-.68-2.5v.31l1.44-3.48-.11.14,2.17-1.27-.18,0h2.61l.87.37,2.43,4.23v-.15a5,5,0,0,0-4.91-4.91,5,5,0,0,0-4.9,4.91c-.18,4.7,5.88,6.82,9,3.6a5.51,5.51,0,0,0,.65-6.59,11.2,11.2,0,0,0-2.14-2.42A38.63,38.63,0,0,0,421,91.27a102.09,102.09,0,0,0-11.27-4.49c-4.65-1.52-9.37-1.81-13.85.35l4.9,8.39c-.56.2-.58.22-.07,0s.5-.12-.15,0c.16-.09,1.57.1.89,0s.78.23.92.27,1.74.72.8.27c1.82.86,3.51,1.93,5.28,2.87a41.46,41.46,0,0,0,13,4.36c2.53.4,5.42-.65,6.06-3.45s-.88-5-3.44-6.06a118.39,118.39,0,0,0-48.21-8.94c-8.36.26-17,1.18-24.81,4.24-7.68,3-14.42,8-21.28,12.52l-5.89,3.86c-1.95,1.28-4.17,2.45-5.19,4.65s-.92,5-1,7.46a22.29,22.29,0,0,0,.07,3.37c.06.57.11,1.15.17,1.72,0,0,.21-.78,0-.06a2.7,2.7,0,0,0-.17,1l.57-1.36.1,0,1.29-.17.77.89-.35.85.05-.06-.8.33h.11a1.06,1.06,0,0,0,1-1.33Z"/><path class="cls-4" d="M430.05,100.41a6.1,6.1,0,0,0,1.51,2.45,26.86,26.86,0,0,0,2.19,1.94,19.48,19.48,0,0,0,4.69,3.1,19.93,19.93,0,0,1,2.16,1.1c.33.21.65.42,1,.65.06,0,.5.4.18.14l.4.33a21.85,21.85,0,0,1,1.74,1.73l.34.39c.11.13.38.45.14.15.36.46.69.93,1,1.39A2.71,2.71,0,0,0,449,114a2.74,2.74,0,0,0,.71-3.52,16.35,16.35,0,0,0-8.57-6.79,21.8,21.8,0,0,1-4.51-2.13c-.81-.52-1.58-1.12-2.4-1.63a6.09,6.09,0,0,0-3-1,1.21,1.21,0,0,0-1.15,1.51Z"/><path class="cls-4" d="M428.71,106.78c-.45,1.57.77,3.07,2.07,3.8a10.82,10.82,0,0,0,3.54,1c.56.11,1.12.26,1.68.37l.62.08c-.26,0-.25,0,0,0,.47.08,1,.18,1.43.22a6,6,0,0,0,.85,0,2.56,2.56,0,0,0,.91-.15c-.51.06-.38,0,.37,0,.16,0,1.3-.53.68-.27a4.78,4.78,0,0,0,.81-.43,1.43,1.43,0,0,0,.65-1.58,4.5,4.5,0,0,0-.93-1.7,2.11,2.11,0,0,0-.62-.53c.24.19.27.19.08,0a3.23,3.23,0,0,0-1.11-.74,10.83,10.83,0,0,0-4.36-.93c-.54,0-1.08,0-1.62,0-.28,0-.57,0-.86,0a3,3,0,0,0-.42,0c-.31,0-.28,0,.1,0,0,0-1.4-.26-1.17-.23.73.1,0,0-.18-.07a2.1,2.1,0,0,0-2.55,1.31Z"/><path class="cls-4" d="M334.82,105.33a2.86,2.86,0,0,0-1.27,0c-.44.09.31-.13.13,0h-.14a1.82,1.82,0,0,0-.86.1,7.55,7.55,0,0,0-1,.43l-.44.21c-.26.12-.25.11,0,0l-.59.25c-.3.16-.59.33-.89.48-1.27.65-2.47,1.51-3.7,2.23a29.92,29.92,0,0,0-7.64,5.6,4.6,4.6,0,0,0,5.56,7.21,34.67,34.67,0,0,0,7.27-6.18,4.8,4.8,0,0,0,1.32-4,5,5,0,0,0-2.29-3.5,6.18,6.18,0,0,0-5.27-.65,21.51,21.51,0,0,1-2.29.81l1.22-.17a2.33,2.33,0,0,1-.59,0l1.21.16a2,2,0,0,1-.42-.12l1.08.46a2.64,2.64,0,0,1-.35-.23l.91.71a10.89,10.89,0,0,0-1.71-1.4,5.93,5.93,0,0,0-2.28-.77,5,5,0,0,0-2.29,9.62,4.3,4.3,0,0,0,4.2-1.09,4.45,4.45,0,0,0,1-4.15,7.71,7.71,0,0,0-.53-1.35l.44,1,0-.16.16,1.16v-.16l-.15,1.16,0-.16-.45,1.05.09-.15-.69.89.11-.11-.88.69.13-.08-1,.45.15,0-1.17.16a.87.87,0,0,1,.32,0l-1.18-.16a1.28,1.28,0,0,1,.33.11l-1.06-.45a1.73,1.73,0,0,1,.28.19l-.9-.69a12.45,12.45,0,0,0,2,1.79,6.1,6.1,0,0,0,3.32.8c1.35-.08,2.49-.6,3.79-.8l-1.25.16a2.62,2.62,0,0,1,.56,0l-1.26-.17a1.94,1.94,0,0,1,.39.12l-1.14-.48.23.14-1-.74.11.1v-6.77a70,70,0,0,1-6.07,5.74l7.21,5.56c.22-.34.45-.67.69-1l-.7.91a21.11,21.11,0,0,1,2.9-3c.26-.22.52-.44.79-.65l.4-.32c.6-.48-.61.46-.24.18.79-.6,1.58-1.2,2.36-1.81.54-.42,1.08-.85,1.6-1.29a10.94,10.94,0,0,0,1.77-2.06,5,5,0,0,0,1.1-3.25c-.06-.48-.07-.53,0-.15s0,.32,0,.09a2.5,2.5,0,0,0,0-.61,2.14,2.14,0,0,0-1.53-1.85Z"/><path class="cls-4" d="M322,122.22a2,2,0,0,0-2.08.11,7.69,7.69,0,0,0-1.33,1.15,7,7,0,0,0-1.61,3.18,1.75,1.75,0,0,0,2.93,1.71c.77-.73,1.57-1.44,2.3-2.21.35-.37.71-.73,1.06-1.11a5,5,0,0,0,1.13-1.91,2.42,2.42,0,0,0,.14-1.61c-.25-.71-1.15-.68-1.73-.46l-.62.23a3.72,3.72,0,0,0-1,.56,11.47,11.47,0,0,0-1.39,1.31c-.83.87-1.61,1.8-2.4,2.72l3,1.24,0-.24-.06.46a5.89,5.89,0,0,1,.38-1.41l-.17.4c.09-.2.18-.41.26-.62l-.16.4a6,6,0,0,1,.45-.87c.08-.13.16-.24.25-.37s-.24.31,0,.05l.16-.18a4,4,0,0,0,.68-1,1.18,1.18,0,0,0-.21-1.58Z"/><path class="cls-4" d="M160.37,154.89c1.16-.42,2.36-.7,3.51-1.14a33.54,33.54,0,0,0,3.67-1.78c1.13-.59,2.31-1.06,3.42-1.71s2.2-1.29,3.32-1.9c4.35-2.39,8.73-4.63,13.27-6.65-.84.37-.15.06,0,0l.81-.33c.6-.24,1.21-.47,1.81-.69,1.16-.42,2.32-.82,3.49-1.19q3.51-1.09,7.13-1.88c1.2-.26,2.41-.49,3.62-.7l1.72-.28.86-.13c.6-.09-.78.09.2,0,2.44-.29,4.89-.51,7.35-.62a110,110,0,0,1,15.93.47c.71.07,1.41.15,2.12.24l.94.11.52.07c-.59-.08.39.06.52.08l.94.14,2.12.34q4,.68,7.93,1.57,7.88,1.79,15.55,4.28c1.25.4,2.5.83,3.73,1.28l1.73.67.49.19c-.53-.22.58.26.68.3a62.93,62.93,0,0,1,6.88,3.67q2,1.2,3.87,2.48a11.8,11.8,0,0,0,4.91,2.3c-.33,0,1.46.28.84.1-.45-.12.58.25.68.28a5.2,5.2,0,0,0,1.35.26s1,0,.62-.07a7.16,7.16,0,0,1,1.7,1.17l1.65,1.13c3.93,2.75,7.73,6.1,9.64,10.6,1.11,2.62,5.66.74,4.64-1.95-2.77-7.24-9.41-11.3-15.47-15.56l.91.91c-.28-.42-.36-1.14-.62-1.57s-.91-1.12-1.08-1.38a11.34,11.34,0,0,0-.53-1.06,8.82,8.82,0,0,0-1.76-1.85,54.6,54.6,0,0,0-6.37-4.29,70.19,70.19,0,0,0-13.45-6.31,156.29,156.29,0,0,0-27.54-7c-18.78-3-38-2-55.64,5.56a51.41,51.41,0,0,0-6.51,3.37c-1.06.64-2.07,1.31-3.06,2.05l-1.09.84-.85.66c-.53.41-1.06.82-1.57,1.25a53.33,53.33,0,0,0-5.37,5c-.84.95-1.89,1.67-2.81,2.53a36.07,36.07,0,0,1-2.79,2.74,1.87,1.87,0,0,0-.75,2.29,1.82,1.82,0,0,0,2.17,1.06Z"/><path class="cls-4" d="M282.2,153.21c.1.19.14.21.1.06a2.66,2.66,0,0,0,.07.39,3,3,0,0,0,.35.75,5.59,5.59,0,0,0,1.47,1.44,23.78,23.78,0,0,0,3,1.74c1,.52,2,1,3.08,1.49.65.29,1.3.54,2,.78a3.53,3.53,0,0,0,2.45.24,2.22,2.22,0,0,0,1.31-3.23,3.83,3.83,0,0,0-2.29-1.52c-.55-.18-1.09-.38-1.64-.55-1.06-.32-2.11-.66-3.15-1s-2.05-.82-3.1-1.16a5.66,5.66,0,0,0-1.83-.35,3,3,0,0,0-.85.1,2.67,2.67,0,0,0-.36.14c.14,0,.1-.05-.11-.05a.52.52,0,0,0-.44.77Z"/><path class="cls-4" d="M282.71,151.28a19.25,19.25,0,0,0-4.57-2.13c-1.44-.6-2.83-1.37-4.23-2.08-3.12-1.57-6.16-3.27-9.32-4.79a4.33,4.33,0,1,0-3.34,7.93A92.41,92.41,0,0,0,272,152.57q2.67.47,5.35.84c1.68.23,3.66.42,5.15-.57a1,1,0,0,0,.2-1.56Z"/><path class="cls-4" d="M259.75,147.6a1.67,1.67,0,0,1,.12.23l-.32-.77s0,.05,0,.07l-.12-.85v0l.12-.85h0l.32-.76h0l.5-.64h0l.65-.5h0l.77-.32h0l.84-.12h0l.85.11h0l.77.32a1.33,1.33,0,0,1-.34-.22l.64.5-.62-.51-.07-.07,0,0h0c-.1-.08-.54-.43-.65-.5l-.76-.32-.84-.11-.85.11h0l-.05,0c-.78.31-.54.16-1,.54l-.31.24a2.28,2.28,0,0,0-.62,1,1.55,1.55,0,0,0-.16.38v0a2.34,2.34,0,0,0-.06,1.27l.06.42a2.45,2.45,0,0,0,.57,1.08,3.59,3.59,0,0,0,.25.33l.08.06c.19.19.39.37.59.54l.14.11c.25.2.5.4.76.59l.09.06a3.29,3.29,0,0,0,.42.18,3.79,3.79,0,0,0,.42.18l.86.11h0l.85-.11a3.23,3.23,0,0,0,2.25-2.26c0-.08.11-.78.12-.86v0c0,.36-.05-.63-.13-.89v0c-.09-.25-.23-.55-.34-.79a1.11,1.11,0,0,0-.09-.19,2.47,2.47,0,0,0-.83-.9,2.44,2.44,0,0,0-1.09-.57,2.29,2.29,0,0,0-1.27-.06,2.46,2.46,0,0,0-1.2.38l-.64.5a3.17,3.17,0,0,0-.83,1.41l-.11.86a3.17,3.17,0,0,0,.44,1.61Z"/><path class="cls-4" d="M171,151.28a5.7,5.7,0,0,1,.92-.07l-1.44-.6a4.88,4.88,0,0,0,4.23,1.07,41.64,41.64,0,0,0,5.21-.75c2.81-.69,5.64-1.37,8.47-2s6-1.28,9-1.84c1.34-.25,2.69-.48,4-.7l2.14-.34.95-.14.74-.1a100.39,100.39,0,0,1,17.67-.86c3,.13,5.91.41,8.85.78l1.2.16.21,0,2.14.3c1.51.23,3,.48,4.51.72,3.58.56,7.17,1.1,10.78,1.49,1.59.17,3.18.31,4.78.37.8,0,1.6.06,2.4,0a6.12,6.12,0,0,0,4.44-1.85,4.28,4.28,0,0,0,0-6,6.17,6.17,0,0,0-4-1.84c-.64,0-1.28,0-1.92,0-1.6-.05-3.19-.14-4.79-.25-2.95-.2-5.89-.53-8.82-.9-6-.74-11.42-1.68-17.9-2-12.2-.64-24.52,1.41-36.27,4.51-3.2.85-6.37,1.76-9.53,2.7a39,39,0,0,0-5.14,2c-1.7.78-3.38,1.51-3.94,3.48l.94-1.23a3.85,3.85,0,0,1-.83.43c-1.62.75-.87,3.69.94,3.46Z"/><path class="cls-4" d="M256.23,142.27a16.66,16.66,0,0,1-3.26-1.44,18.19,18.19,0,0,0-3.2-1.14c-2.22-.63-4.45-1.2-6.68-1.81-4.52-1.23-9.13-2.2-13.61-3.59a47.54,47.54,0,0,0-6.84-1.22c-2.45-.38-4.92-.71-7.38-1a54.76,54.76,0,0,0-14.07,0,32,32,0,0,0-6.94,1.77c-1.41.54-2.8,1.14-4.18,1.77-1.71.78-3.3,1.46-4.28,3.2-1.35,2.38-.29,6.43,2.8,6.9a6.16,6.16,0,0,0,3.58-.19c.56-.24,1.1-.5,1.64-.76l1.48-.68.64-.28c.76-.36-1.06.4.31-.14a33,33,0,0,1,6-1.77c.25,0,1.72-.23.73-.13.46,0,.92-.1,1.38-.13,1.08-.09,2.16-.12,3.24-.12a61.63,61.63,0,0,1,6.51.39c1,.1,2,.23,3,.36l-.16,0,.92.13,2.05.28c2.41.33,4.88.82,7.31.94,2.2.11,4.46.12,6.66.11s4.59.24,6.9.24,4.93.11,7.39.14a28.92,28.92,0,0,0,3.95-.14,23.75,23.75,0,0,1,3.94-.52.57.57,0,0,0,.15-1.11Z"/><path class="cls-4" d="M195.62,147.68a23.54,23.54,0,0,0,6.81.18c2.27-.09,4.54-.26,6.81-.34,4.62-.18,9.29-.38,13.91-.23s9.14.49,13.71.67q1.71.06,3.42.15c.57,0,1.14.09,1.72.08.32,0,.65,0,1-.05,1.34-.13,1.72-.19,1.13-.18s-.2,0,1.08-.16a3.22,3.22,0,0,0,1.54-.52,6,6,0,0,0,1.62-1.13,6.76,6.76,0,0,0,.67-.85c-.48.56-.48.66,0,.31a2.33,2.33,0,0,0,.82-.83c.21-.63.28-.74.2-.32a1,1,0,0,0,.16-1.23,8.12,8.12,0,0,0-.72-1.23c-.26-.22-.53-.43-.81-.64.35.36.44.42.26.19.3-.21-1.83-1.83-1.84-1.84a8.09,8.09,0,0,0-2.38-.91,31.75,31.75,0,0,0-7.61-.65,114.24,114.24,0,0,0-13.95.8c-4.8.51-9.58,1-14.34,1.74-2.24.37-4.48.73-6.7,1.21-2.37.51-4.87.94-7,2.25a2,2,0,0,0,.46,3.53Z"/><path class="cls-4" d="M324,210.13c2.87-2.07,5.87-3.87,8.92-5.68s6.13-3.55,9.23-5.25,6.28-3.28,9.52-4.72c1.4-.61,2.8-1.26,4.25-1.75a4.35,4.35,0,0,1,1.77-.35c.18,0,.39.11.81.15a3.19,3.19,0,0,0,2-.44,2.72,2.72,0,0,0,1.21-3c-.41-2.64-3.68-2.86-5.76-2.52a24.21,24.21,0,0,0-5.29,1.89c-3.53,1.5-7,3.15-10.37,5a78.61,78.61,0,0,0-9.74,6.14c-3.12,2.32-6.08,4.86-9,7.41-1.68,1.47.57,4.47,2.42,3.13Z"/><path class="cls-4" d="M323.67,208.38c-.25.08-.15.07.29,0l.45-.19a2.09,2.09,0,0,0,.29-.23c.21-.15.45-.32.65-.49a4.8,4.8,0,0,0,.55-.71c.38-.51.75-1,1.11-1.55l-.45.57a5.39,5.39,0,0,1,.43-.39,3.77,3.77,0,0,0,.82-1.08,6.31,6.31,0,0,0,.73-2.8,3.48,3.48,0,0,0-.47-1.73l-.54-.7a3.31,3.31,0,0,0-2.88-.94,3.43,3.43,0,0,0-2.86,4.29l.06.17a3.49,3.49,0,0,0,1.5,1.95,3.27,3.27,0,0,0,2.52.33l.15-.06-3.88-5a4.14,4.14,0,0,0-.49,1.35,12.41,12.41,0,0,0-.22,1.45,4.25,4.25,0,0,0,.17,1.34,4.35,4.35,0,0,1,.2.61l-.1-.76c0,.62.06,1.25.07,1.87a3.09,3.09,0,0,0,1.07,2.62l-.41-.41,0,.06a1.12,1.12,0,0,0,1.2.49Z"/><path class="cls-4" d="M323.2,204c1.07.64,2.3.26,3.46,0a25.52,25.52,0,0,0,3.41-.89c2.26-.75,4.46-1.66,6.73-2.4s4.62-1.26,6.94-1.88c2.72-.73,5.73-1,7.92-2.89,2.42-2.11,1.1-6.38-1.88-7.13s-5.91.67-8.59,1.63c-2.51.89-4.95,2.08-7.36,3.21a49.67,49.67,0,0,0-6.33,3.35,20.64,20.64,0,0,0-3.2,2.54c-.87.87-1.87,1.76-1.89,3.06a1.58,1.58,0,0,0,.79,1.37Z"/><path class="cls-4" d="M384,189.22l-.85-1.08c-1.7-2.16-5.14,1.51-2.45,3.18a15.79,15.79,0,0,0,2.74,1.49c.87.33,1.73.7,2.58,1.09,1.81.84,3.61,1.69,5.35,2.67a57.55,57.55,0,0,1,9.69,6.93,71.53,71.53,0,0,1,8.35,8.79c1.21,1.5,2.34,3.05,3.42,4.64a23.42,23.42,0,0,1,3.08,5.38c.87,2.57,1.09,5.34,1.84,8a70.12,70.12,0,0,0,2.92,7.91,2.32,2.32,0,0,0,2.76,1.57A2.29,2.29,0,0,0,425,237c-.63-2.48-1.28-5-1.89-7.47s-1-5-1.67-7.52c-1.1-4.36-4.11-8.23-6.81-11.75a70.47,70.47,0,0,0-19.18-17.57,47.56,47.56,0,0,0-6.47-3.32c-1.13-.47-2.27-.89-3.43-1.27a12.1,12.1,0,0,0-3.83-.53l1.74,3,.58-1.06a.29.29,0,0,0,0-.31Z"/><path class="cls-4" d="M388.87,191.16c1.61,1.1,3.86,1.51,5.67,2.23l5.71,2.24A53.86,53.86,0,0,1,410.59,201c6.09,4.13,9.05,10,9.79,17.32a59.15,59.15,0,0,1,.23,7.53c0,1.22-.08,2.43-.14,3.65-.09,1.78-.14,3.19,1.13,4.62a3.13,3.13,0,0,0,4.36,0c1.28-1.12,1.28-2.57,1.39-4.13.08-1.22.16-2.44.21-3.65a66.31,66.31,0,0,0,0-7,36,36,0,0,0-3.2-13.11,23.67,23.67,0,0,0-8.42-9.65,57.87,57.87,0,0,0-12-5.87,38.14,38.14,0,0,0-6.93-2c-1.32-.22-2.66-.37-4-.51a10.33,10.33,0,0,0-3.76,0,1.65,1.65,0,0,0-.39,3Z"/><path class="cls-4" d="M398.06,194.15c.19,2.64,2.88,4.71,4.57,6.54,1.9,2.06,3.84,4,5.9,5.93.19.18.38.39.11,0a6.56,6.56,0,0,1,.5.79c.16.28.29.57.43.85-.25-.55,0-.07.07.23.53,1.4,1.07,2.81,1.73,4.16a27.82,27.82,0,0,0,2.08,3.48c.24.34.61,1.14.95,1.32s.13.16-.17-.5l.07.27c-.12-1,0-3.26-.15-.39-.25,3.73,4.13,5.64,7.07,4.06s3.18-5,1.86-7.67a22.68,22.68,0,0,0-3-3.75c.62.77-.19-.28-.25-.36l-.68-1c-.37-.57-.72-1.14-1.06-1.73a29.3,29.3,0,0,0-2.69-4.25c-2-2.49-5.27-4-8.06-5.46l-4.3-2.25a6.7,6.7,0,0,0-4.39-1.09.82.82,0,0,0-.6.79Z"/><path class="cls-4" d="M405.44,192.55c1,.66,2,1.11,3,1.72a17.8,17.8,0,0,1,2.58,2,47.41,47.41,0,0,1,5,5.15,12.47,12.47,0,0,1,2.85,5.29,11.31,11.31,0,0,1,.25,3.17c-.08,1.7-.35,3.18.54,4.75a2.94,2.94,0,0,0,4.56.59c1.47-1.39,1.63-3.42,1.64-5.34a15.35,15.35,0,0,0-.69-4.91,16.67,16.67,0,0,0-5-7.12,73.83,73.83,0,0,0-6.64-5c-2.23-1.51-4.94-3.1-7.71-2.62-1.19.2-1.14,1.8-.31,2.36Z"/><path class="cls-5" d="M473.94,334a10.12,10.12,0,0,0,2.27,5.95,8,8,0,0,0,6,2.65c5.72,0,8.6-6.66,5.43-11.13-2.5-3.54-7.73-5.46-11.71-3.26a7,7,0,0,0-3.51,6.06,9.82,9.82,0,0,0,2.94,6.39c3.15,3.49,8.32,5,12.15,1.58,4-3.59,1.74-9.1-1.18-12.44a20.55,20.55,0,0,0-9.11-5.92,10.18,10.18,0,0,0-11.6,3.93,9.75,9.75,0,0,0,0,11,10.4,10.4,0,0,0,10.92,4.29,10.75,10.75,0,0,0,7.74-7.73,8.77,8.77,0,0,0-1.07-6.87,17.54,17.54,0,0,0-4.65-4.48c-3.45-2.43-8.27-3.17-12-.88A7.43,7.43,0,0,0,463,329.4a10.72,10.72,0,0,0,2.28,5.87c2.08,3,5.1,6.16,8.74,7.14,5.43,1.46,10.55-3.13,9-8.71-.62-2.25-2.35-4-4.08-5.5a41,41,0,0,0-5.17-3.81c-4-2.48-8.43-3.49-12.86-1.44-4.18,1.92-6.52,6.35-6.84,10.78a11.88,11.88,0,0,0,1.33,6.76c2.3,3.69,8.13,3.27,9.38-1.13a4.57,4.57,0,0,0-3.15-5.54,9.35,9.35,0,0,0-1.67-.25l2.4.65-.19-.14,1.72,1.72-.1-.22.67,2.45c-.09-.64-.15-1.3-.28-1.94a5,5,0,0,1-.27-1.21c0,.05,0,.87.07.29,0-.27,0-.55,0-.82,0-.1,0-.56,0-.62-.14.14-.19.82,0,.1.11-.4.22-.79.35-1.17-.26.73,0,.18.18-.19.44-.76-.54.49.1-.11A4.4,4.4,0,0,0,465,332c.36-.43-.92.54,0,0a4,4,0,0,0,.45-.26c.42-.31-.3.17-.39.13a6.1,6.1,0,0,0,1-.29c-.06.09-1,0-.45.08.09,0,.56-.06.6,0s-.91-.24-.29,0c.26.09.54.13.8.22l.6.21c-.1,0-.67-.36-.22-.06s.87.46,1.29.71c.81.48,1.59,1,2.34,1.54.18.12.35.25.52.38-.06,0-.58-.48-.15-.12s.67.55,1,.83.65.57,1,.86.36.39.55.56c.46.39-.34-.63-.06-.09s-.08-.32-.09-.35a2.59,2.59,0,0,1,.18-1.39,2.85,2.85,0,0,1,2.23-2.12,2.73,2.73,0,0,1,.94.06c-.11,0-.73-.21-.12,0s0,0-.1-.08l-.64-.42c-.2-.13-.68-.58.05.06l-.45-.39c-.3-.26-.59-.53-.87-.82s-.52-.6-.79-.88.12.16.16.22l-.46-.65c-.22-.34-.42-.68-.62-1a4.44,4.44,0,0,0-.28-.53c-.3-.49.13.3.14.36a3.16,3.16,0,0,1-1,2.87c-.41.41-.16.08,0,0-.43.17-.58.12-.08.08-1.25.11.2-.07.26.05s-.94-.26-.33,0a5.47,5.47,0,0,0,.58.15c.13,0,.64.33.14.05s.05.05.12.1c.32.22,1.39,1,.63.36.6.52,1.19,1,1.74,1.61.12.13.36.58.1.11a2.07,2.07,0,0,1-.34-.68c0-.07,0-.88,0-.31s.26-.66,0-.13c-.47,1,.44-.45-.09.24s.51-.66-.07.08.66-.32-.06.09c-.15.08-.31.16-.45.25-.46.31.79-.18.23-.12a2,2,0,0,0-.49.13c.07-.09,1,0,.47-.09a2.28,2.28,0,0,0-.52,0c.1-.06.93.24.48,0a1.84,1.84,0,0,0-.49-.15l.55.22-.29-.17c-.16,0-.53-.5-.06,0s0-.1-.14-.19c-.41-.33.28.25.24.33a2.9,2.9,0,0,0-.26-.43c-.32-.43.2.33.15.4a3.24,3.24,0,0,0-.13-.49c-.19-.51.06.44.06.47,0-.19.1-.68,0,0s0,.1,0,0c.34-.85-.41.57-.06.07a3.75,3.75,0,0,0,.27-.44c0,.06-.66.67-.25.32a3.05,3.05,0,0,0,.36-.36c0,.08-.81.48-.32.26a2.3,2.3,0,0,0,.44-.25s-.91.34-.39.2-.41.05-.4,0a3.29,3.29,0,0,1,.83,0s-.88-.25-.29,0c.19.07.42.1.61.16s.53.19.8.29c-.08,0-.72-.37-.26-.09.75.44,1.51.82,2.24,1.3s-.44-.43.25.19c.3.27.6.53.88.81s.62.7.95,1-.1-.16-.15-.23l.41.61c.06.08.42.65.09.08s-.08.4,0-.22,0-.06,0,0a3.65,3.65,0,0,1,1.47-2.59,2.32,2.32,0,0,1,2-.15c.54.13.08,0-.09-.06-.75-.5.25.36-.08-.08-.14-.19-1-.76-.94-1,0-.06.47.8.21.24-.09-.21-.27-.8-.17-.23a3.15,3.15,0,0,1-.68,2.94c.09-.08-2,1-1.34.81s-1.07.08-.44.07-.53-.05-.54-.09l.31.07c.41.14.41.13,0,0-.62-.6.37.49.57.39,0,0-.75-.56-.33-.19s-.29-.39-.36-.56a3.55,3.55,0,0,1-.1-1.83,3.65,3.65,0,0,1,2.23-2.1c-.19.08-.64.06.06,0a3.66,3.66,0,0,1,1.32.16c.56.14.23.13,0,0,.85.59.27.13.05-.1-.59-.63-1.18-1.27-1.72-1.95-1-1.33-3.27-1.48-4.68-.89a4.19,4.19,0,0,0-2.63,3.92Z"/><path class="cls-5" d="M446.14,341.23a7.17,7.17,0,0,0,2.7-3,43.05,43.05,0,0,0,1.75-4c.85-2.26,1.54-4.61,2.17-6.93s1-4.75,1.47-7.12c.48-2.62,1.38-5.59,1.09-8.24A5.07,5.07,0,0,0,450.4,307l-.95-.07,2.11,1.2a4.67,4.67,0,0,1-.63-1.53c-.55-2.5-4.09-1.75-4.25.58a8.28,8.28,0,0,0,.43,2.83l.62-2.37c-1.26,1.24-2.21,2.42-2.25,4.28,0,.21-.06,2,.09.89-.17,1.26-.45,2.52-.68,3.77-.47,2.54-1.06,5.07-1.48,7.61-.25,1.54-.46,3.09-.65,4.63-.08.63-.16,1.26-.25,1.89.06-.39.05-.3,0,.26-.05.32-.09.64-.14,1a38.82,38.82,0,0,0-.32,4.44,7.6,7.6,0,0,0,1,4,2.34,2.34,0,0,0,3.17.83Z"/><path class="cls-5" d="M443.23,338.14c-.93,3.59,2.23,7.42,5.2,9a22.6,22.6,0,0,0,11,2.59c3.38,0,6.74-.61,10.12-.64.74,0,1.49,0,2.23.06.29,0,1.49,0,.28,0a4.82,4.82,0,0,1,1,.18c.71.15,1.38.39,2.08.61-1.06-.33,0,0,.25.15s.68.4,1,.62l-1-7.79-.15.14a4.76,4.76,0,0,0-.73,5.67l.1.2a5,5,0,1,0,6.79-6.79c-5.84-3.86-12.76-2.91-19.33-2.45a49.44,49.44,0,0,1-5,0c-.36,0-.31,0,.14,0l-.47-.08c-.39-.08-.78-.16-1.16-.26-.64-.17-1.27-.37-1.89-.59-1.22-.42.87.45-.29-.12-.42-.22-.85-.41-1.29-.59s-.86-.34-1.31-.5c-1.17-.41.83.39-.34-.15a10,10,0,0,0-4.78-1.2,2.6,2.6,0,0,0-2.42,1.85Z"/><path class="cls-5" d="M465.58,347a4.46,4.46,0,0,0,1.51,1.69,7.12,7.12,0,0,0,1.56.94,21.22,21.22,0,0,0,4,1.41,3.57,3.57,0,0,0,2.53-.33,3.13,3.13,0,0,0,1.56-2.39,3.26,3.26,0,0,0-3.21-3.71c-1.2,0-2.4.21-3.6.25l-1.71.06a8.09,8.09,0,0,0-1.2.1l-.3,0h.06a2.11,2.11,0,0,0-.45.08,1.28,1.28,0,0,0-.76,1.86Z"/><path class="cls-5" d="M475.86,350.14l.42-.07.33,0c.41,0,.84-.09,1.26-.1.82,0,1.64.06,2.46.06s1.63,0,2.45,0c1.16,0,2.45.29,3.48-.41a2.75,2.75,0,0,0,1.28-2,2.8,2.8,0,0,0-.74-2.27c-.94-1.16-2.66-1.1-4-1.1-.85,0-1.7,0-2.55,0a13.61,13.61,0,0,0-1.56.1l-.94.14c-.17,0-.74.22-.05,0a14.87,14.87,0,0,1-1.88.24c-.45.07-.9.16-1.34.25a2.67,2.67,0,0,0-1.85,3.25,2.72,2.72,0,0,0,3.25,1.84Z"/><path class="cls-5" d="M478.71,352.11l.13.26-.34-1.28c.06,2,1.85,4.12,3,5.74s2.31,3.46,3.37,5.24,2,3.58,2.93,5.42a19.4,19.4,0,0,0,4.12,6.09c1.91,1.74,5.13,2,7,0s2-5.13,0-7c-.21-.19-.41-.38-.6-.58l-.33-.37.36.47c-.36-.2-.69-1-.92-1.39-.57-.87-1.17-1.72-1.74-2.59-1.17-1.75-2.29-3.54-3.54-5.24a31.87,31.87,0,0,0-4.52-5.18,16.45,16.45,0,0,0-3.11-2.19c-.35-.18-.73-.3-1.09-.46l-.44-.2a4.11,4.11,0,0,0-2.61-.23h1.35l-.3-.05a2.44,2.44,0,0,0-2.71,3.53Z"/><path class="cls-5" d="M496.91,372.17c.49-.24.79-.67,1.25-.92l-1.92.25c2.95,1.07,5.27-2.31,6.92-4.21a35.72,35.72,0,0,0,4.33-6.66c1-1.92,1.95-3.93,3.11-5.78.06-.09.33-.63.42-.64-.12,0-.58.66-.07.1.21-.23.41-.46.64-.67s.73-.49.19-.19c-.76.43,1.26-.7.47-.24-.55.32.08,0,.26,0,.56-.19-1.17.06-.08.07a4.94,4.94,0,1,0,0-9.88,11.35,11.35,0,0,0-8.35,3.78,33.14,33.14,0,0,0-4.33,6.93,60.3,60.3,0,0,0-3.92,7.73c-.92,2.57-3.19,6.78-.68,9l-.73-1.76c0,.48-.27,1-.27,1.49a1.85,1.85,0,0,0,2.76,1.58Z"/><path class="cls-5" d="M512.63,348a3.82,3.82,0,0,0,1.62-1.82,4.85,4.85,0,0,0,.32-1.3,1.92,1.92,0,0,0,0-1c-.14-.54-.13-.65,0-.34l-1.18,2.85a5.54,5.54,0,0,0,1.29-5.62c-.34-1.14-.79-2.26-1.23-3.37a67.46,67.46,0,0,0-3.3-7.05A30.48,30.48,0,0,0,506,324a13.46,13.46,0,0,0-6.5-3.64c-1.88-.49-3.83-.66-5.71-1.16-2.29-.62-4.39-1.77-6.67-2.41a55.71,55.71,0,0,0-7.28-1.28,77.05,77.05,0,0,0-8.15-.83c-1.37,0-2.73,0-4.1.06-.72,0-1.45,0-2.18,0a3.69,3.69,0,0,1-.89-.08c.36.14.68.13.1,0s-1.2-.27-1.79-.46c-.26-.09-.52-.19-.78-.27-.68-.21,1,.52-.13-.07-.49-.26-1-.5-1.44-.79l-.68-.46c-.88-.56.57.5-.29-.23l-4.83,8.29a53.45,53.45,0,0,1,5.63,1.81l1.38.54c.29.12,1.45.61.58.24,1,.41,1.95.84,2.92,1.27a110.26,110.26,0,0,0,12,4.8c2.61.79,6.57.69,8.14-2s-.85-5.5-3.14-6.65c-2.05-1-4.39-1.54-6.52-2.38l-1.37-.55-.19-.08-.38-.16L471,316.26a89,89,0,0,0-13.65-5.21,5,5,0,0,0-5.6,2.28c-1,1.84-.94,4.56.77,6a21.45,21.45,0,0,0,13.89,5.3c2.49,0,4.95-.15,7.43,0,1.11.09,2.2.23,3.3.35.82.09-.72-.1.09,0l.71.1,2.12.3a30.58,30.58,0,0,1,6.87,1.71,32.72,32.72,0,0,0,6.08,2c.93.17,1.87.32,2.79.51.43.09.85.18,1.27.3l.53.15c.07,0,1.11.45.42.13s.51.31.68.41c.85.51-.1-.1-.14-.11.12,0,.56.58.59.61s-.42-.64-.13-.17c.15.24.32.47.47.7.35.56.69,1.13,1,1.7a73.12,73.12,0,0,1,3.37,6.6c.27.61.56,1.22.83,1.83l.27.62c.22.5-.23-.56.11.28.86,2.14,1.84,4.27,4.39,4.71l-1.78-1c-.41-.47.38.59.61.81a4.19,4.19,0,0,0,1.72,1.05,3.52,3.52,0,0,0,2.59-.24Z"/><path class="cls-5" d="M487.35,323.26c.17.12,1,.53.13,0l.5.38c.47.37.46.36,0,0,.05.15.4.37.52.49a12.21,12.21,0,0,0,1.28,1.06,8.56,8.56,0,0,0,1.4.9,6.53,6.53,0,0,0,2.69.72c.32,0,.63,0,.95,0l-1.3-.18.22.08-2.16-1.26.15.13-.77-1a16.18,16.18,0,0,0,2.62,3.32l6-7.79a46.27,46.27,0,0,0-10.69-5.34l-2.63,9.55a11,11,0,0,1,2.71.75l-1.18-.5a16.93,16.93,0,0,1,3.55,2.16l-1-.78c.85.67,1.67,1.39,2.46,2.13a21.64,21.64,0,0,0,3.43,3,6.38,6.38,0,0,0,3.42.95A4.25,4.25,0,0,0,503.7,329c.66-2.51-.77-4.79-2.51-6.46-3.45-3.32-7.38-7-12.33-7.68a5.48,5.48,0,0,0-3.81.5,5,5,0,0,0-1.78,6.78,5.5,5.5,0,0,0,3,2.27c.76.28,1.52.57,2.27.88l-1.19-.5a42,42,0,0,1,7.23,4,5,5,0,0,0,3.82.5,5.14,5.14,0,0,0,2.58-1.78c1.39-1.8,1.52-4.93-.39-6.51a8.65,8.65,0,0,1-1.21-1.21l.77,1c-.2-.26-.37-.53-.55-.8a5.89,5.89,0,0,0-2.68-2.38,8.52,8.52,0,0,0-4.8-.25l1.26-.17c-2.19.25-4.94,0-6.53,1.93a2.72,2.72,0,0,0,.54,4.2Z"/><path class="cls-5" d="M450.52,320.42c-.16.59-.33,1.17-.53,1.74.27-.7.15-.42-.37.85-.19,1.42-.23,1.73-.13.92-.22,1.22-.46,2.44-.75,3.65-.63,2.71-1.7,5.41-1.39,8.24.27,2.48,1.68,4.52,4.3,4.87a5,5,0,0,0,5.44-3.55,56.09,56.09,0,0,1,2-6.09c.1-.25.52-1.26.2-.51.2-.49.42-1,.65-1.46.45-1,.92-1.93,1.43-2.87l.11-.2c.25-.38.25-.42,0-.11l-.17.21-3.1.79c-.12,0-.66-.41-.21-.08.22.17.48.3.72.45.83.55,1.66,1.1,2.52,1.62a32.32,32.32,0,0,0,6.12,3c4.23,1.49,8.83,1,13.24,1.23-.85,0,.16,0,.49.1a13.55,13.55,0,0,1,1.51.42c.27.09,1.5.63.65.23l1.6.77a57,57,0,0,0,6.26,2.74c1.11.39,2.25.74,3.36,1.15.27.09,1.48.61.67.23.47.22.93.44,1.38.69a4,4,0,0,1,1.24.79s-.69-.61-.28-.21c.21.21.45.4.66.62s.24.27.37.4c.45.42-.4-.7-.12-.15a4.72,4.72,0,0,0,.37.61c.36.5-.37-1.07,0,0l7.28-5.59c-.86-.6-1.7-1.21-2.54-1.84.68.51-.22-.18-.41-.33l-1-.85q-2.24-1.86-4.31-3.91c-1.61-1.58-3.16-3.3-5.46-3.83a6.78,6.78,0,0,0-7.53,3.14,5.06,5.06,0,0,0,1.78,6.78c1.6,1,3.35,1.7,4.94,2.72.43.28.84.57,1.25.87.84.59-.63-.59.2.16.66.6,1.33,1.17,1.95,1.81a18.67,18.67,0,0,1,1.75,2c-.72-1,0,.07.13.22.29.41.57.84.83,1.27a26.53,26.53,0,0,1,1.26,2.35c.14.29.74,1.18.11.21a6.83,6.83,0,0,1,.51,1.44l7.28-5.6c-2.37-1.55-4.71-3.16-7-4.83-1.08-.79-2.15-1.6-3.22-2.4-.27-.21-.25-.2.07.05l-.37-.29-.75-.59L493.58,333l-7,7q5.94,4.6,11.53,9.64l6-7.77-9.21-6c-3.29-2.15-6.61-4.72-10.74-4.65a5,5,0,0,0-4.52,3,5,5,0,0,0,1,5.41c1.11,1.25,2.18,2.52,3.22,3.83,0,.05.95,1.21.35.43l.69.91c.5.67,1,1.34,1.47,2a95.5,95.5,0,0,1,5.36,8.45l7.78-6a110.07,110.07,0,0,0-12.15-11c-2-1.53-4.38-2-6.5-.39a5,5,0,0,0-1.27,6.39,75.86,75.86,0,0,0,11.54,16.29,5,5,0,0,0,7.76-6l-5.9-9.21a5,5,0,0,0-9,3.81c.91,3.1,3,5.76,4.69,8.45s3.59,7,7.12,7.84a5.56,5.56,0,0,0,6.81-4.58c.2-1.45-.07-2.9,0-4.36,0-.35.07-.71.08-1.06,0-.6-.18.77,0-.17.16-.69.29-1.38.5-2.07.08-.27.17-.54.26-.81,0,0,.47-1.18.22-.6s.23-.46.28-.57c.2-.38.41-.75.62-1.12a5,5,0,0,0-1.77-6.76,5.06,5.06,0,0,0-6.77,1.77,39.27,39.27,0,0,0-6,17.31c-.23,2,1.69,4.32,3.63,4.76a5.16,5.16,0,0,0,5.58-2.27,51.13,51.13,0,0,0,7-15,5,5,0,0,0-6.08-6.08,8.66,8.66,0,0,0-4.72,3.67c-.14.18-.27.38-.4.57-.62,1,.47-.57.07-.07s-.32.24.13,0,3,0,2-.29l2.06,1.2-.21-.2a4.67,4.67,0,1,0-6.6,6.6,6.58,6.58,0,0,0,8.05.85,8.58,8.58,0,0,0,2.81-2.78c.16-.23.35-.71.59-.87-.43.54-.47.61-.12.23a2.69,2.69,0,0,1-1.06.65l-6.08-6.08c-.34,1.19-.72,2.37-1.15,3.54-.1.27-.2.54-.31.81,0,.09-.37.93-.16.43s-.15.32-.19.41c-.15.33-.3.66-.46,1a46.66,46.66,0,0,1-3.73,6.42l9.21,2.5c.06-.52.06-.42,0,0,.06-.35.11-.7.17-1.06.11-.56.22-1.12.35-1.68a34.31,34.31,0,0,1,1.1-3.71c.1-.26.2-.53.31-.8,0-.09.39-.92.16-.4s.28-.6.27-.59l.38-.77a35.92,35.92,0,0,1,1.95-3.34l-8.54-5a23.54,23.54,0,0,0-2.83,7.33,27.81,27.81,0,0,0-.51,4.27c0,1.16.22,2.35.1,3.49l.68-2.5-.17.3,1.78-1.77-.23.14,2.5-.67a3.19,3.19,0,0,1,2.85,1.57l-.52-.81-1-1.62-2-3c-.65-1-1.31-2-2-3-.3-.48-.62-1-.89-1.46-.14-.25-.27-.51-.39-.76.23.52.25.52.07,0l-9,3.81,5.9,9.22,7.77-6q-1.51-1.63-2.93-3.37l-.84-1c.31.39.19.25,0-.06-.49-.66-1-1.32-1.44-2a71.48,71.48,0,0,1-4.74-7.83l-7.77,6a109.17,109.17,0,0,1,12.15,11,5,5,0,0,0,7.77-6,104.16,104.16,0,0,0-12.64-17.65l-3.5,8.45c1.17,0-.41-.26.17,0,.38.15.86.3.23,0a18.07,18.07,0,0,1,1.91,1.09c1.42.91,2.83,1.85,4.25,2.77l8.39,5.47a5,5,0,0,0,6-7.78q-5.58-5-11.53-9.64a5.39,5.39,0,0,0-3.5-1.46,5,5,0,0,0-3.5,1.46c-1.66,1.8-2.15,5.25,0,7A184.24,184.24,0,0,0,501.69,351c3.54,2.32,8.62-1.55,7.27-5.6a31.18,31.18,0,0,0-6.87-11.59,30.53,30.53,0,0,0-5-4.24c-1.77-1.22-3.76-2-5.57-3.14l1.78,6.78a3.17,3.17,0,0,1-3.91,1.29c-.52-.29-.45-.38,0,0l.71.72q1.57,1.59,3.25,3.08a82.93,82.93,0,0,0,7.69,6c3.49,2.43,8.65-1.62,7.28-5.6-1.82-5.25-6.2-8.08-11.2-9.88-1.05-.38-2.11-.71-3.16-1.08-.56-.19-1.12-.39-1.67-.61.19.07.83.38,0,0l-1-.48a36.74,36.74,0,0,0-7.08-3,33.09,33.09,0,0,0-8.19-.66c-1.16,0-2.3-.07-3.46-.11-.78,0,.71.18-.05,0-.21-.06-.43-.08-.64-.13a16.63,16.63,0,0,1-1.83-.53c-.14-.05-1-.37-.39-.14s-.25-.12-.38-.18c-.45-.21-.89-.44-1.33-.68-1.06-.58-2.09-1.23-3.11-1.89-2.81-1.83-6-3.34-9.23-1.33-2.61,1.63-3.87,5.16-5,7.87a63.16,63.16,0,0,0-3,8.55l9.75,1.32c0-.22,0-2.05-.12-1a11.82,11.82,0,0,1,.43-1.85c.32-1.21.69-2.41.93-3.64a30.2,30.2,0,0,0,.61-4.54,18.1,18.1,0,0,0-.65-4.35c-.85-4.11-6.87-3.73-8,0Z"/><path class="cls-2" d="M311,101.45q.88,4.58,1.34,9.22l2.94-.4a19.65,19.65,0,0,1-.88-5.27,23.14,23.14,0,0,1,.11-2.63,2.5,2.5,0,0,0-.64-2.12,1.5,1.5,0,0,0-2.35.31c-1.22,2.78-.13,5.76.22,8.64a58.87,58.87,0,0,1,.35,9.39c-.08,1.93,2.92,1.93,3,0a57.87,57.87,0,0,0-.28-8.73c-.16-1.47-.37-2.93-.63-4.39a6.06,6.06,0,0,1-.07-3.4l-2.36.3c-.16-.44-.23-.49-.22-.16s-.05.44-.07.65,0,.66-.05,1a20.37,20.37,0,0,0,.06,2.47,23.33,23.33,0,0,0,.92,4.75c.47,1.54,3.11,1.35,2.95-.4-.32-3.36-.8-6.71-1.45-10-.37-1.89-3.26-1.09-2.89.8Z"/><path class="cls-2" d="M311.49,224.9c1.37,3.56,1.37,7.58,1.5,11.35a67.28,67.28,0,0,1-1.06,12.1,24,24,0,0,0-.25,5.86c.2,2,.71,4,1.1,5.92a78.91,78.91,0,0,1,1.43,12.06,83,83,0,0,1-.59,13.74c-.23,1.91,2.77,1.9,3,0a83.57,83.57,0,0,0-.56-24.46c-.33-2-.79-3.87-1.16-5.82a20.08,20.08,0,0,1-.12-6.19c.51-4.11,1.34-8.06,1.24-12.24s-.08-9.06-1.64-13.12c-.69-1.78-3.59-1-2.89.8Z"/><path class="cls-2" d="M318,373.53c0-7.71,0-15.43.1-23.14s.77-15.24,1-22.87a49.54,49.54,0,0,0-.95-10.73,13.16,13.16,0,0,1,0-5.08c.38-1.81.88-3.58,1.17-5.41,1.14-7.29.74-14.79.74-22.15a244.11,244.11,0,0,0-.87-25.37c-.2-1.9-3.2-1.92-3,0a220,220,0,0,1,.87,22.68c0,7.47.43,15.11-.43,22.54-.41,3.47-1.86,6.93-1.73,10.43a33.59,33.59,0,0,0,.76,5,33.25,33.25,0,0,1,.52,5.72c0,3.7-.34,7.39-.55,11.07s-.35,7.63-.45,11.44c-.21,8.63-.19,17.26-.16,25.88a1.5,1.5,0,0,0,3,0Z"/><path class="cls-2" d="M312.39,93.74a48.26,48.26,0,0,1-2.9,13.89c-.43,1.16-.9,2.31-1.43,3.44a9.11,9.11,0,0,0-1,2.85c-.23,2.19,1.11,4,2.44,5.57a1.51,1.51,0,0,0,2.56-1.06c-.2-2.77-.44-5.53-.6-8.29a24,24,0,0,1,.49-7.74L309,102c.53,7.4.11,14.73-.1,22.13a196.18,196.18,0,0,0,.62,22.22l2.95-.4-.6-2a1.5,1.5,0,0,0-2.89.8l.6,2c.45,1.56,3.09,1.34,2.94-.4a198.54,198.54,0,0,1-.62-22.22c.21-7.4.63-14.73.1-22.13-.11-1.62-2.49-2.11-2.94-.4-1.45,5.42-.41,11.32,0,16.83l2.57-1.07a6.83,6.83,0,0,1-1.51-2.33c-.3-1,.34-2,.75-2.86a52.29,52.29,0,0,0,2.29-5.91,51.71,51.71,0,0,0,2.26-12.52c.11-1.93-2.89-1.92-3,0Z"/><path class="cls-2" d="M312.77,118.77c.39,7.64-3.19,15.44-.32,22.91.68,1.77,3.52,1.06,2.89-.8a17.08,17.08,0,0,1,.39-12.23l-2.74-.36c1.43,6.51-.12,13.16,0,19.73.07,3.24.68,6.43.81,9.67a102.92,102.92,0,0,1-.3,10.39c-.12,1.92,2.88,1.92,3,0a102.92,102.92,0,0,0,.3-10.39c-.13-3.39-.78-6.74-.82-10.14-.07-6.72,1.35-13.4-.11-20.06-.26-1.18-2.23-1.55-2.75-.36a20.14,20.14,0,0,0-.69,14.55l2.89-.8c-2.73-7.12.81-14.79.43-22.11-.1-1.92-3.1-1.93-3,0Z"/></g><g id="Layer_7" data-name="Layer 7"><path class="cls-6" d="M322.18,69.91c.42,0,.83.11,1.26.13,1.93.12,2.2-2.75.45-3.28a12.77,12.77,0,0,0-3.07-.43c-2.48-.12-2.41,3.58,0,3.81,1.62.15,3.22,0,4.84,0a47.23,47.23,0,0,0,4.76,0,36.71,36.71,0,0,0,9.91-2.6A81.51,81.51,0,0,0,358,57.9,170.6,170.6,0,0,0,374.43,45c2.52-2.27,4.87-4.67,7.41-6.92s5.09-4.65,7.42-7.18c1.35-1.45,2.52-3,3.73-4.51a24.23,24.23,0,0,1,3.73-3.42,46.48,46.48,0,0,1,4.14-3.1,28.13,28.13,0,0,0,4.87-3.37,2.15,2.15,0,0,0-2.07-3.56c-3.14.73-5.92,3.26-8.58,5-1.3.86-2.54,1.81-3.77,2.77s-2.8,1.83-4.13,2.86c-2.65,2.05-4.95,4.5-7.44,6.73a68.06,68.06,0,0,1-7.56,6c-1.46,1-2.87,2.06-4.26,3.14l-3.55,2.75-2.52,2-.92.72-.59.46c-1.36,1-2.72,2.07-4.1,3.07a120.49,120.49,0,0,1-16.52,10.23c-1.58.8-3.18,1.59-4.81,2.29-1.14.5-2.89,1.17-4.41,1.76-1.69.64-3.26,1.51-4.89,2.25a30.28,30.28,0,0,1-5.3,1.43l1,3.68A3,3,0,0,1,323,70V66.76c-.41.07-.81.17-1.21.27-1.75.43-1.13,2.67.39,2.88Z"/><path class="cls-6" d="M264.85,28.71a51.94,51.94,0,0,1,5,3.66c1.72,1.63,3.35,3.36,5,5,3.4,3.39,6.89,6.73,10,10.36a167.85,167.85,0,0,1,16.35,22.85c1.4,2.29,2.71,4.63,4,7,.69,1.21,1.37,2.43,2.08,3.62s1.36,2.59,2.8,2.83a1.33,1.33,0,0,0,1.58-.9c.43-1.28-.27-2.31-.92-3.38s-1.42-2.21-2.13-3.31c-1.34-2.07-2.71-4.12-4-6.21-2.59-4.09-5.16-8.19-7.94-12.16a92.8,92.8,0,0,0-9.19-11.25c-3.45-3.57-7-7.08-10.49-10.56-1.95-1.93-3.86-3.92-5.92-5.74-1.63-1.44-3.63-3.13-5.94-2.95a.63.63,0,0,0-.31,1.16Z"/><path class="cls-6" d="M299.19,35.2a13,13,0,0,1,5.19,4A34.51,34.51,0,0,0,308.55,44a55.35,55.35,0,0,0,4.74,4c.88.66,1.78,1.31,2.69,1.92a6.08,6.08,0,0,0,2.94,1.37A1.24,1.24,0,0,0,320,49.48a7.36,7.36,0,0,0-2.58-1.93c-.9-.54-1.77-1.11-2.62-1.71a48,48,0,0,1-5.13-4.18c-3-2.84-5.94-6.21-10.22-7-.32-.06-.58.41-.24.57Z"/><path class="cls-6" d="M313,22.8c-.44.32-.13.94,0,1.36a10,10,0,0,0,.92,1.63,14.08,14.08,0,0,0,2.56,2.89c1,.85,2,1.69,3.05,2.48.63.49,1.29.95,1.94,1.41a7.72,7.72,0,0,0,1,.62,1.28,1.28,0,0,0,1.31.05.9.9,0,0,0,.41-1c-.13-.76-1.09-1.1-1.73-1.36s-1.28-.5-1.92-.74a9.85,9.85,0,0,1-3.3-1.81,17.07,17.07,0,0,1-2.27-2.61,14.18,14.18,0,0,1-.95-1.47q-.19-.37-.42-.72a6.46,6.46,0,0,0-.44-.71.18.18,0,0,0-.23,0Z"/><path class="cls-6" d="M318.76,29.59a2.27,2.27,0,0,0,.51.56,3.23,3.23,0,0,0,.41.22l.8.41.21.11a1.77,1.77,0,0,0,.59.15l.43.05a2.14,2.14,0,0,0,.89-.2c.16-.06.32-.25.24-.43a2.4,2.4,0,0,0-.45-.85l-.33-.3a1.83,1.83,0,0,0-.31-.24,2.4,2.4,0,0,0-.4-.17l-.84-.33-.43-.17a1.66,1.66,0,0,0-.63,0,.82.82,0,0,0-.69.4.79.79,0,0,0,0,.81Z"/><path class="cls-6" d="M321.82,54.7a8.66,8.66,0,0,0,3.79-1.9,27.58,27.58,0,0,0,3-2.95c1-1.05,1.95-2.1,3-3.08s2.31-2,3.46-3c.49-.43,1-.85,1.53-1.23s1.5-.92,1.51-1.68a1,1,0,0,0-1.19-.91,5.21,5.21,0,0,0-2,1.3c-.54.45-1.06.94-1.56,1.44a22.26,22.26,0,0,0-1.39,1.81c-.9,1.13-1.76,2.28-2.73,3.36a26.52,26.52,0,0,1-3.64,3.3c-.64.5-1.33,1-2,1.4s-1.43.75-2.09,1.2a.49.49,0,0,0,.38.89Z"/><path class="cls-6" d="M324.72,37.5a3.06,3.06,0,0,0,1.49-.21,19.39,19.39,0,0,0,2-.52c1.48-.52,3-1,4.44-1.63s2.58-1.12,3.85-1.72c.86-.42,2.47-1.08,2.51-2.23a.16.16,0,0,0-.11-.15c-1.05-.2-2.32.84-3.25,1.23-1.38.59-2.83.89-4.23,1.39s-2.88,1.07-4.27,1.68c-.84.37-2.41,1-2.5,2a.11.11,0,0,0,.08.11Z"/><path class="cls-6" d="M319.59,126.54c1.05-1.14,2.11-2.28,3.21-3.38.71-.7-.37-1.78-1.09-1.09-1.35,1.32-2.69,2.64-4,4a1.16,1.16,0,0,0,1.64,1.64,112.89,112.89,0,0,1,20.27-16.39,72.37,72.37,0,0,1,24.74-9.67,92.15,92.15,0,0,1,28.9-.45A118.63,118.63,0,0,1,407.7,104c4.8,1.23,9.59,2.41,14.28,4,5.28,1.81,10.47,3.92,15.62,6.09,2.6,1.09,5.19,2.22,7.78,3.35l3.67,1.63c.65.29,1.31.64,2,.87a6.28,6.28,0,0,0,2.25.15,1.31,1.31,0,0,0,.91-2.2,7.46,7.46,0,0,0-2.94-2.14l-3.67-1.62q-3.57-1.58-7.16-3.11c-4.65-2-9.33-3.9-14.06-5.66-2.43-.91-4.88-1.79-7.33-2.64s-4.86-1.85-7.36-2.55a131.38,131.38,0,0,0-14.81-3.3,110.55,110.55,0,0,0-15.2-1.41,85.85,85.85,0,0,0-15.1,1.21,74.47,74.47,0,0,0-26.05,9.63,86,86,0,0,0-22.82,19.7l1.64,1.64c1.22-1.55,2.41-3.12,3.59-4.7l-1.34-.78c-.88,1.22-1.81,2.39-2.75,3.56-.41.52.28,1.26.75.75Z"/><path class="cls-6" d="M160.64,154.3c7.26-5,16.86-5.34,25.3-6.36a283.8,283.8,0,0,1,28.55-2,280,280,0,0,1,28.38.89c9.38.76,18.93,1.69,28.07,4A57.38,57.38,0,0,1,285,156.5c2.17,1.22,4.28,2.55,6.36,3.92,1,.67,2,1.35,3,2a8,8,0,0,0,1.7,1.08,5.53,5.53,0,0,0,1.72.16.83.83,0,0,0,.8-1,4.5,4.5,0,0,0-1.67-2.32c-.92-.65-1.88-1.27-2.82-1.9-1.95-1.29-3.93-2.55-5.95-3.73a60.73,60.73,0,0,0-12.6-5.68,86.74,86.74,0,0,0-13.82-2.87c-4.83-.67-9.68-1.26-14.54-1.71a267.39,267.39,0,0,0-58.64.78c-2.68.35-5.3.82-8,1.34s-5.14.82-7.69,1.33c-4.66.92-9.19,2.3-13,5.23-.68.52,0,1.69.69,1.18Z"/><path class="cls-6" d="M325.67,206.87a3.06,3.06,0,0,0-1.11-.84,1.89,1.89,0,0,0-1.38-.14.83.83,0,0,0-.57.84.59.59,0,0,0,.74.48c.06,0,0-.12,0-.1-.37.14-.7-.26-.61-.61a.9.9,0,0,1,.92-.59,2.73,2.73,0,0,1,2,1c0,.05.11,0,.07-.07Z"/><path class="cls-6" d="M322.67,211.07c1.55-.49,2.7-2.17,3.89-3.25s2.47-2.18,3.73-3.25a48.78,48.78,0,0,1,8.13-5.61,61.06,61.06,0,0,1,8.79-3.9,75.75,75.75,0,0,1,9.94-2.52c2.77-.58,2.2-5.37-.68-5A50.58,50.58,0,0,0,336.09,195a65.79,65.79,0,0,0-8.73,6.39,36.49,36.49,0,0,0-3.58,3.67c-1.14,1.34-2.73,2.84-2.94,4.63a1.46,1.46,0,0,0,1.83,1.4Z"/><path class="cls-6" d="M322.49,204.39c.93.36,1.7-.3,2.44-.76s1.57-.9,2.33-1.38a40.34,40.34,0,0,1,4.83-2.53c1.52-.67,3.1-1.22,4.67-1.76.86-.29,1.73-.56,2.61-.79,1.27-.34,2.54-.47,3.25-1.75a2.39,2.39,0,0,0-.84-3.19c-1.19-.84-2.64-.29-3.91.08-1,.28-1.93.6-2.87.95a32.76,32.76,0,0,0-5.71,2.86,34.17,34.17,0,0,0-4.92,3.61c-.84.78-4.22,3.76-1.88,4.66Z"/><path class="cls-6" d="M329.73,199.81a1.42,1.42,0,0,0-1.34-.23A3.91,3.91,0,0,0,327,200c-.72.37-1.43.76-2.12,1.19s-1.37.86-2,1.33a3.53,3.53,0,0,0-1.21,1.19,3,3,0,0,0-.13,2.12v-1.12l0,.08.55-1-.06.06,1.51-.63h-.08l1.09.3.78,1,0-.16a2.83,2.83,0,0,0-.07-.42q0-.37-.12-.75a2.31,2.31,0,0,0-2.83-1.61,2.34,2.34,0,0,0-1.61,2.83c.11.47.22.93.3,1.4l.09.52c0,.26,0,.24,0-.08,0,.12,0,.24,0,.36a4.08,4.08,0,0,0,1.71,3.13,1.34,1.34,0,0,0,1.38,0c2.19-1.36,1.41-4.49.93-6.55l-4.44,1.22c.36,1.26.76,2.72,2.2,3.09a2.33,2.33,0,0,0,2.78-1.6,2.4,2.4,0,0,0-.22-1.72,1,1,0,0,0-.1-.18c-.11-.19-.08-.13.08.18v1.09c0,.13-.45.6-.15.3l.36-.38.74-.74c.47-.47.95-.93,1.43-1.39a9.94,9.94,0,0,0,1.53-1.51c.26-.4.95-1.36.42-1.8Z"/><path class="cls-6" d="M378.09,189.69c1.16,1.6,3.39,2,5.14,2.7a56.12,56.12,0,0,1,5.79,2.67,71.65,71.65,0,0,1,10.86,6.85,67.91,67.91,0,0,1,9.3,8.88c3.09,3.62,5.15,8,7.05,12.33a82.63,82.63,0,0,1,3,8.09c.41,1.29.72,2.6,1,3.92a13,13,0,0,0,1.17,4.13,1,1,0,0,0,1.89-.51,9.73,9.73,0,0,0-.63-3.6c-.37-1.37-.8-2.73-1.16-4.1-.65-2.46-1.36-4.89-2.24-7.28a57.6,57.6,0,0,0-7-13.22,52,52,0,0,0-8.81-10.1,50.91,50.91,0,0,0-11.24-7.53,63.81,63.81,0,0,0-7.2-2.86c-2-.67-4.77-1.89-6.84-.9a.38.38,0,0,0-.14.53Z"/></g><g id="Layer_4" data-name="Layer 4"><path d="M314.55,376.9q.56-30.15.52-60.31t-.65-60.3q-.62-30.3-1.83-60.58c-.78-19.51-2.1-39-2.6-58.52-.48-18.64.15-37.52,5-55.62q.92-3.37,2-6.7c.84-2.57-3.21-3.67-4-1.11-5.9,17.87-7.42,36.8-7.32,55.52.11,19.44,1.57,38.88,2.4,58.29q1.28,30.28,2,60.58t.81,60.6q.12,30.31-.37,60.61-.06,3.78-.13,7.54c-.05,2.7,4.15,2.7,4.2,0Z"/><path d="M321.19,375.77l1.12-120.26c.18-19.92.29-39.8-.66-59.7-.92-19.6-2.4-39.18-3.11-58.8-.8-22.1-.65-44.34,2.41-66.28a2.18,2.18,0,0,0-1.47-2.59,2.11,2.11,0,0,0-2.58,1.47c-5.49,39.32-1.95,79,.16,118.4,2.14,40,.93,80,.56,120L317,375.77c0,2.71,4.17,2.71,4.2,0Z"/><path d="M316,72.33,349.8,41c5.09-4.71,10.05-9.72,15.68-13.79a43.9,43.9,0,0,1,8.68-5,61.92,61.92,0,0,1,9.93-3.06c8.1-1.91,16.27-3.5,24.4-5.23,2.27-.48,1.31-3.95-1-3.47-7.39,1.57-14.8,3.1-22.18,4.73-6.89,1.52-13.59,3.55-19.54,7.45s-10.9,8.74-16,13.48L332.71,51.91,313.43,69.79c-1.7,1.57.85,4.12,2.55,2.54Z"/><path d="M315.25,71.62c30.5,3.09,54.74-19.44,74.86-39.13L410,13.07c1.66-1.62-.89-4.17-2.54-2.54-11,10.75-21.76,21.8-33.18,32.11-10.52,9.49-22.18,18.14-35.78,22.61A55.94,55.94,0,0,1,315.25,68c-2.3-.23-2.29,3.37,0,3.6Z"/><path d="M312.66,87a178.24,178.24,0,0,0-41.23-54.54A181.61,181.61,0,0,0,256.3,20.29l-.43,3.29a.27.27,0,0,1,.29.13c1.7,1.57,4.25-1,2.55-2.54a4.12,4.12,0,0,0-3.8-1.06c-1.67.3-1.56,2.48-.43,3.29a174.47,174.47,0,0,1,55.07,65.37c1,2.08,4.12.25,3.11-1.82Z"/><path d="M255.92,23.2c21.73,8.67,43.4,24.31,52.77,46.47a51.09,51.09,0,0,1,4.1,18.22l2.71-1.56c.07,0-.21.81.08.06.83-2.16-2.65-3.1-3.47-1a3.27,3.27,0,0,0,1.57,4,1.82,1.82,0,0,0,2.71-1.55c-.82-24.7-18.81-44.85-38.68-57.53a123.14,123.14,0,0,0-20.84-10.63A1.8,1.8,0,0,0,254.66,21a1.85,1.85,0,0,0,1.26,2.22Z"/><path d="M290.37,37.14A53,53,0,0,1,314,9.61c5.37-3.06,11.81-5.72,18.06-6a11.29,11.29,0,0,1,9.12,3.59,25.71,25.71,0,0,1,5.2,8.51,52,52,0,0,1,2.74,10.92c.29,1.93.51,3.87.7,5.8.18,1.76-.15,4.51,2,5.06s3.2-2.91,1-3.48l-.26-.06,1.08.83c.09.14,0,.49.06.07a4.2,4.2,0,0,0-.06-.6c-.05-.47-.09-.94-.14-1.41-.09-1-.19-1.89-.3-2.84-.21-1.85-.46-3.69-.77-5.53a48.55,48.55,0,0,0-2.76-10.27C346.87,7.5,342.1.79,334.34.07a29.31,29.31,0,0,0-10.78,1.54,55.68,55.68,0,0,0-9.32,3.75,57,57,0,0,0-15.61,11.79,56,56,0,0,0-11.73,19c-.8,2.18,2.68,3.12,3.47,1Z"/><path d="M314.12,72c4.24-7,7.57-14.87,8.5-23a70.28,70.28,0,0,1,2.72-13.7c1.37-4.3,3.06-8.5,4.44-12.79a46.78,46.78,0,0,0,2.64-15c0-2.31-3.63-2.32-3.6,0,.12,8.83-3.65,17-6.42,25.19a64.29,64.29,0,0,0-3,13.21,52,52,0,0,1-2.52,12.08A67.65,67.65,0,0,1,311,70.15c-1.2,2,1.91,3.8,3.11,1.82Z"/><path d="M317.83,110.6c8.33-6,16.74-12.06,25.88-16.83a71.35,71.35,0,0,1,30-8.52,130.62,130.62,0,0,1,17.24.61,126.2,126.2,0,0,1,16.3,2.34,71.17,71.17,0,0,1,27.37,12.74c8.91,6.64,16.6,14.79,24.21,22.85,1.6,1.69,4.14-.86,2.55-2.54-14-14.83-28.87-29.93-49.13-35.52a106,106,0,0,0-16.67-3,165,165,0,0,0-17.49-1.15,74.29,74.29,0,0,0-17.15,1.78,77.37,77.37,0,0,0-14.77,5.21c-10.8,5-20.52,12-30.13,18.93-1.86,1.34-.07,4.47,1.82,3.11Z"/><path d="M318.76,132.07a103.79,103.79,0,0,1,18.47-17.56,64.66,64.66,0,0,1,25.46-10.89c20.41-4.24,41.38-.31,60.78,6.43,11.65,4,22.92,9.08,34.17,14.12a1.86,1.86,0,0,0,2.46-.64,1.82,1.82,0,0,0-.65-2.47c-20.36-9.12-41.14-18.51-63.43-21.65a102.64,102.64,0,0,0-30.56,0c-9.64,1.55-19.4,4.77-27.58,10.21a93.2,93.2,0,0,0-11.65,9.4,103.13,103.13,0,0,0-10,10.46c-1.45,1.78,1.08,4.34,2.55,2.54Z"/><path d="M310,174.12c-8.21-20.86-26.71-35.88-47.5-43.24a119.94,119.94,0,0,0-37.85-6.39,165.49,165.49,0,0,0-19.28.79,75.6,75.6,0,0,0-18.7,3.86c-6.79,2.5-12.63,6.59-18.14,11.21-5.82,4.88-11.47,10-17.19,15-1.75,1.52.8,4.06,2.54,2.54,4.94-4.32,9.86-8.66,14.82-13,4.6-4,9.36-7.83,14.84-10.55a57.7,57.7,0,0,1,17.82-5,150.8,150.8,0,0,1,18.51-1.27c23.19-.29,47.27,4.73,65.74,19.49,9.09,7.27,16.63,16.61,20.92,27.5.84,2.13,4.32,1.21,3.47-.95Z"/><path d="M155,159.14a48.49,48.49,0,0,1,15.68-5.26c5.93-1.09,11.93-1.83,17.92-2.5C201,150,213.49,149.18,226,149c22.43-.33,46.5.58,65.84,13.32a54.53,54.53,0,0,1,12.64,11.46,6.51,6.51,0,0,0,3.08,2.53,3,3,0,0,0,3.4-1.06c1.29-2,0-5.2-2.65-4.45-2.22.63-1.28,4.1,1,3.47l-1.28-.59c-.07-.38-.1-.46-.1-.23v.1a.44.44,0,0,1,.43-.48c.47-.6.31.11-.05-.41a6.75,6.75,0,0,0-.53-.54c-.78-.88-1.48-1.84-2.26-2.73a53,53,0,0,0-5.09-5.07,63.55,63.55,0,0,0-11.91-8.18A88.74,88.74,0,0,0,258.85,147c-11.36-1.59-22.87-1.74-34.33-1.53-11.85.22-23.7,1-35.48,2.3-6.32.71-12.67,1.48-18.93,2.61a51.7,51.7,0,0,0-17,5.7,1.8,1.8,0,0,0,1.82,3.11Z"/><path d="M322.74,215.16a94,94,0,0,1,50.78-24.9,89.92,89.92,0,0,1,28.5.11c5.15.86,10.35,2.21,14.55,5.47a27.29,27.29,0,0,1,8,10.67c4.87,11.17,2.38,23.83-2,34.73a1.8,1.8,0,1,0,3.47,1c4.19-10.51,6.55-22.47,3.1-33.54A33,33,0,0,0,422.07,196a28.11,28.11,0,0,0-13.29-7.89c-9.92-2.78-20.84-3.1-31-2a99.77,99.77,0,0,0-29.24,7.67,95.12,95.12,0,0,0-28.31,18.82c-1.67,1.62.88,4.16,2.55,2.55Z"/><path d="M321.73,202.49c12.92-10.33,31-14.51,47.28-12,16.64,2.55,31,13.07,40.47,26.72a76.16,76.16,0,0,1,11.58,26c.44,1.84,2.91,1.58,3.47,0l1-2.86c.78-2.19-2.7-3.13-3.47-1l-1,2.87h3.47a77.35,77.35,0,0,0-28.4-44,58.94,58.94,0,0,0-23.62-10.8,67.43,67.43,0,0,0-26.59.22,62.94,62.94,0,0,0-26.74,12.27,1.83,1.83,0,0,0,0,2.55,1.85,1.85,0,0,0,2.55,0Z"/><path d="M325.25,30.64l-.53-.18.31.41v0a.65.65,0,0,0-.44-.58c-1.1-.46-2.24-.74-3.32-1.27a20.33,20.33,0,0,1-3-1.86,55.48,55.48,0,0,1-5.07-4.87.25.25,0,0,0-.42.25,11.92,11.92,0,0,0,4.71,5.78,18.36,18.36,0,0,0,3.29,1.92,12.65,12.65,0,0,0,3.66,1.23.62.62,0,0,0,.52-.3l0-.05-.48.2.66.09c.43.05.48-.61.1-.73Z"/><path d="M322.63,40A35.64,35.64,0,0,0,334,36.17a26.85,26.85,0,0,0,4.87-3.32,20.85,20.85,0,0,0,3.64-4.61c.15-.22-.16-.4-.33-.26-1.52,1.19-3.19,2.13-4.74,3.27a46.94,46.94,0,0,1-4.73,3A33.64,33.64,0,0,1,322.07,38c-1.34.23-.77,2.25.56,2Z"/><path d="M321.11,51.5c-1.06-.53-2.22-.8-3.31-1.27A16.89,16.89,0,0,1,315,48.58a37.77,37.77,0,0,1-5.37-4.9c-1.71-1.78-3.38-3.59-5.21-5.25a29.68,29.68,0,0,0-2.61-2.14c-.86-.63-1.9-1.49-3-1.47a.4.4,0,0,0-.34.59,10,10,0,0,0,2.67,2.06A31.32,31.32,0,0,1,304,40c1.82,1.74,3.49,3.62,5.27,5.4A33.27,33.27,0,0,0,314.75,50c1.77,1.15,4.11,2.41,6.28,2a.31.31,0,0,0,.08-.57Z"/><path d="M319.13,57.43a11.59,11.59,0,0,0,3-1.29c.95-.57,1.88-1.18,2.79-1.81a51.38,51.38,0,0,0,5.26-4.16c3.23-2.9,6.59-6.14,8.27-10.21.09-.21-.22-.34-.36-.21-3.23,2.88-5.81,6.39-9,9.29-1.6,1.44-3.29,2.8-5,4.08A59.34,59.34,0,0,0,318.85,57a.29.29,0,0,0,.28.48Z"/><path d="M434.65,402.86q5.34-39,10.69-78l3-21.79a1.55,1.55,0,0,0-1.05-1.84,1.51,1.51,0,0,0-1.84,1.05q-5.34,39-10.69,78l-3,21.79a1.54,1.54,0,0,0,1.05,1.84,1.5,1.5,0,0,0,1.84-1.05Z"/><path d="M446.68,303.44c6.92,11,20.9,12.15,32.62,12.87,6.41.4,13,.9,18.91,3.63,5.26,2.43,9.24,6.29,11.09,11.85,1.11,3.3,1.67,6.76,2.75,10.07a24.05,24.05,0,0,0,5.36,9.15c1.33,1.41,3.45-.72,2.13-2.12a20.76,20.76,0,0,1-4.72-8.23c-.92-2.92-1.47-6-2.37-8.88a22.39,22.39,0,0,0-10.07-13c-11.51-6.9-25.23-4.11-37.74-7.11-6-1.43-12-4.33-15.37-9.71-1-1.63-3.62-.13-2.59,1.51Z"/><path d="M441.36,341.84A27.78,27.78,0,0,0,452.5,350c4.48,1.82,9.08,2,13.85,2s9.59.15,13,3.83c3,3.18,4.36,7.5,6.26,11.33,2.14,4.32,5.15,8.5,9.95,10v-2.89l.06.12c-1.14-1.53-3.74,0-2.59,1.51a2.94,2.94,0,0,0,3.32,1.26,1.51,1.51,0,0,0,0-2.89c-4.06-1.27-6.45-5.16-8.23-8.78-1.88-3.85-3.34-7.92-6.16-11.23-3.06-3.57-7.33-5-11.91-5.2s-9.4.35-14-1a25.05,25.05,0,0,1-12.6-8.31c-1.22-1.5-3.33.64-2.12,2.12Z"/><path d="M495.61,377.08c2.54.57,3.93-2.06,5-3.91,1.78-3.14,3.61-6.27,5.41-9.4,1.6-2.78,3-6.08,5.34-8.34s5.35-2.74,8.23-3.35c1.89-.4,1.09-3.3-.8-2.9-2.69.58-5.51,1.2-7.84,2.76-2.55,1.7-4.06,4.3-5.55,6.9l-5.17,9c-.78,1.36-1.57,2.72-2.35,4.09-.26.46-.52.93-.82,1.37-.17.26-.36.46-.55.7s-.46.13-.09.22c-1.88-.43-2.68,2.46-.79,2.89Z"/><path d="M482.8,327.7a7.44,7.44,0,0,0-5.46-7.53,7.14,7.14,0,0,0-8.09,4.14,6.59,6.59,0,0,0-.34,4.82,4.21,4.21,0,0,0,1.38,2,14.59,14.59,0,0,0,2.43,1.15,5.18,5.18,0,0,1,1.69,7.67,5.29,5.29,0,0,1-4.56,2,3.32,3.32,0,0,1-3.06-3.7,1.56,1.56,0,0,0-1.05-1.85,1.52,1.52,0,0,0-1.85,1.05,6.38,6.38,0,0,0,6,7.5,8.37,8.37,0,0,0,8.06-5.12,8.22,8.22,0,0,0-2.16-9.06,8,8,0,0,0-2.05-1.36c-.79-.35-1.63-.39-1.95-1.28a4,4,0,0,1,1.2-4c2.79-2.77,7.14-.14,6.85,3.53-.15,1.92,2.85,1.92,3,0Z"/><path d="M488,327c-2.4,6.2-4.78,12.42-7.53,18.48a1.56,1.56,0,0,0,.54,2.06,1.52,1.52,0,0,0,2.05-.54c2.86-6.3,5.34-12.76,7.83-19.2a1.52,1.52,0,0,0-1-1.85,1.54,1.54,0,0,0-1.85,1Z"/><path d="M489.06,328.53c4,3.3,6.31,8.86,4.94,14a8.79,8.79,0,0,1-4.88,6c-2.32.91-5.32-.06-5.9-2.68-.42-1.88-3.32-1.09-2.9.8.79,3.53,4.51,5.63,8,5.16,3.66-.5,6.54-3.39,7.95-6.67,2.77-6.46.22-14.35-5.06-18.74-1.48-1.22-3.61.89-2.12,2.12Z"/><path class="cls-7" d="M292.68,379.44c.82.22,1.55.61,2.38.8a12.67,12.67,0,0,0,2.38.27,42.14,42.14,0,0,0,5.15,0c3.31-.25,6.5-1.31,9.83-1.39a28.67,28.67,0,0,1,9.36,1.46,27.11,27.11,0,0,0,4.75,1.28c1.56.19,3.13,0,4.71.18.59.08.84-.76.47-1.13a30.87,30.87,0,0,0-3.54-3.51,13.43,13.43,0,0,0-5-1.92,33,33,0,0,0-10.11-.71c-3.5.34-6.61,1.62-10,2.49a33.31,33.31,0,0,1-5.17.81,25.73,25.73,0,0,0-2.63.26c-.9.18-1.71.58-2.6.77a.19.19,0,0,0,0,.37Z"/></g></g></svg>