<svg xmlns="http://www.w3.org/2000/svg" viewBox="0 0 694.86 386.91"><defs><style>.cls-1{fill:#444;}.cls-2{fill:#e5e5e5;}</style></defs><g id="Layer_2" data-name="Layer 2"><g id="Layer_2-2" data-name="Layer 2"><path class="cls-1" d="M3.15,4.75H276c3.68,0,7.37.07,11.06,0h.48a1.5,1.5,0,0,0,0-3H14.69c-3.68,0-7.37-.07-11.06,0-.16,0-.32,0-.48,0a1.5,1.5,0,0,0,0,3Z"/><path class="cls-1" d="M4.65,12.75V3.25a1.52,1.52,0,0,0-1.5-1.5,1.53,1.53,0,0,0-1.5,1.5v9.5a1.5,1.5,0,0,0,3,0Z"/><path class="cls-1" d="M153.05,199.17l-4-5L138.2,180.47l-16-20.15-19.5-24.56-21.44-27L59.63,81.5,39.53,56.18l-17-21.41L10.26,19.32c-1.93-2.44-3.78-5-5.8-7.32a3.76,3.76,0,0,1-.25-.31C3,10.18.9,12.32,2.09,13.81l4,5L16.94,32.52l16,20.14,19.5,24.56,21.44,27,21.64,27.25,20.1,25.33,17,21.4,12.27,15.46c1.93,2.43,3.78,5,5.8,7.31.09.1.17.21.25.31,1.2,1.51,3.31-.62,2.12-2.12Z"/><path class="cls-1" d="M4.21,372.3l4-4.58L19,355.26l16.05-18.44,19.49-22.39L76,289.81l21.54-24.76,20.18-23.17,17-19.58L147,208.22c1.93-2.21,3.87-4.41,5.78-6.64l.25-.29c1.26-1.45-.85-3.58-2.12-2.12l-4,4.58L136.1,216.21l-16,18.43L100.56,257,79.13,281.66,57.59,306.42,37.41,329.59l-17,19.58L8.12,363.25c-1.93,2.21-3.87,4.41-5.78,6.64l-.25.29c-1.26,1.45.85,3.58,2.12,2.12Z"/><path class="cls-1" d="M4.65,383.91V371.24a1.5,1.5,0,0,0-3,0v12.67a1.5,1.5,0,0,0,3,0Z"/><path class="cls-1" d="M299.56,379.87l-8,.07-21.5.18-32,.28-38.78.33-42.76.36-42.87.37-40.26.35-33.78.28-24.46.21c-3.84,0-7.68,0-11.52.1h-.5a1.5,1.5,0,0,0,0,3l8-.07,21.5-.19,32-.27,38.78-.33,42.76-.37,42.88-.36,40.25-.35,33.78-.29,24.47-.21c3.83,0,7.68,0,11.51-.09h.5a1.5,1.5,0,0,0,0-3Z"/><path class="cls-1" d="M312,267.37l-1.39,11.38L307.28,306l-4,32.89-3.49,28.53-1.14,9.33c-.18,1.48-.48,3-.54,4.47l0,.19c-.23,1.91,2.77,1.9,3,0l1.4-11.38,3.32-27.21,4-32.89,3.49-28.53,1.14-9.34c.18-1.47.48-3,.54-4.46l0-.19c.23-1.92-2.77-1.9-3,0Z"/><path class="cls-1" d="M303,266.91l8.85,1.66,1.28.24a1.53,1.53,0,0,0,1.84-1,1.5,1.5,0,0,0-1-1.85L305,264.26l-1.28-.24a1.54,1.54,0,0,0-1.84,1.05,1.51,1.51,0,0,0,1.05,1.84Z"/><path class="cls-1" d="M68.81,330.5l3.52-4.15,9.53-11.24L96,298.52l17.25-20.34L132,256l19-22.4,17.79-21,15-17.65,10.81-12.74c1.7-2,3.42-4,5.1-6l.22-.26c1.24-1.47-.87-3.6-2.12-2.13L194.28,178l-9.53,11.23-14.08,16.6-17.26,20.34-18.82,22.18-19,22.4-17.79,21-15,17.65L72,322.11c-1.7,2-3.42,4-5.1,6l-.22.26c-1.24,1.46.87,3.59,2.12,2.12Z"/><path class="cls-1" d="M81.89,26.48l3.11,4,8.41,10.85,12.5,16.11L121.08,77l16.7,21.53,16.85,21.74,15.65,20.18,13.28,17.13,9.51,12.26c1.51,1.94,2.93,4,4.53,5.85l.2.25c1.18,1.52,3.29-.62,2.12-2.13l-3.11-4L188.4,159l-12.49-16.11L160.73,123.3,144,101.76,127.18,80,111.53,59.85,98.25,42.72,88.74,30.45c-1.5-1.94-2.93-4-4.53-5.84l-.2-.25c-1.18-1.52-3.29.61-2.12,2.12Z"/><path class="cls-1" d="M297.9,97.62,297,88.25,294.9,65.74l-2.56-27.25-2.21-23.57c-.36-3.83-.67-7.67-1.08-11.5,0,0,0-.11,0-.17-.18-1.9-3.18-1.92-3,0l.88,9.38L289,35.14l2.56,27.25L293.8,86c.36,3.83.67,7.67,1.08,11.5,0,.05,0,.11,0,.16.18,1.91,3.18,1.93,3,0Z"/><path class="cls-1" d="M286.53,98.49l7.75.56,1.12.07a1.5,1.5,0,0,0,1.5-1.5,1.54,1.54,0,0,0-1.5-1.5l-7.75-.55-1.12-.08A1.52,1.52,0,0,0,285,97a1.54,1.54,0,0,0,1.5,1.5Z"/><path class="cls-1" d="M356,384.66l4.47-10.17,12.16-27.69,18-41,22-50,24-54.74,24.28-55.26,22.63-51.53L502.62,50.8l13.75-31.32q3.27-7.41,6.52-14.83c.09-.22.19-.43.28-.64.77-1.75-1.81-3.28-2.59-1.51l-4.47,10.17L504,40.36l-18,41-22,50L440,186l-24.27,55.26-22.64,51.53-19.13,43.54-13.75,31.32c-2.17,4.94-4.36,9.88-6.52,14.83l-.28.64c-.77,1.75,1.82,3.28,2.59,1.51Z"/><path class="cls-1" d="M693.7,383.51l-4.24-10.24L678,345.66l-17-41.09-20.63-49.81-22.75-54.9-22.82-55.07L573.38,93.11l-18-43.52-13-31.29q-3.07-7.41-6.14-14.81c-.09-.21-.17-.42-.26-.64-.73-1.75-3.63-1-2.89.8l4.24,10.23L548.78,41.5l17,41.09,20.64,49.81,22.74,54.9L632,242.37l21.41,51.68,18,43.52,13,31.29q3.08,7.41,6.14,14.81c.09.21.18.42.26.63.73,1.76,3.64,1,2.9-.79Z"/><path class="cls-1" d="M521.88,4.75h12.66a1.5,1.5,0,0,0,0-3H521.88a1.5,1.5,0,0,0,0,3Z"/><path class="cls-1" d="M354.67,385.41H678.55c4.37,0,8.75.08,13.13,0,.19,0,.38,0,.57,0a1.5,1.5,0,0,0,0-3H368.37c-4.37,0-8.76-.09-13.13,0h-.57a1.5,1.5,0,0,0,0,3Z"/><path class="cls-1" d="M392.67,361.34H616.26c3,0,6.07.06,9.1,0h.39a1.5,1.5,0,0,0,0-3H402.16c-3,0-6.08-.07-9.11,0h-.38a1.5,1.5,0,0,0,0,3Z"/><path class="cls-1" d="M513,86.1l-3.27,7.35-8.84,19.84-13.1,29.4-16,35.88-17.45,39.16-17.66,39.66-16.47,37-13.88,31.15-10,22.53c-1.57,3.53-3.15,7-4.71,10.59l-.21.45c-.78,1.75,1.81,3.28,2.59,1.51l3.28-7.35,8.84-19.83L419.17,304l16-35.87L452.6,229l17.67-39.65,16.47-37,13.87-31.15,10-22.53,4.72-10.59c.06-.15.13-.3.2-.46.78-1.74-1.81-3.27-2.59-1.51Z"/><path class="cls-1" d="M627.19,359.44l-3-7.32-8.13-19.92-12-29.34-14.62-35.79-16.05-39.32-16.21-39.69-15.06-36.89L529.42,120l-9.16-22.43-4.35-10.66c-.07-.15-.13-.3-.19-.45-.72-1.76-3.62-1-2.89.8l3,7.32L524,114.49l12,29.35,14.62,35.79L566.6,219l16.21,39.69,15.06,36.88,12.73,31.17,9.16,22.43,4.35,10.66c.07.15.13.3.19.46.72,1.76,3.62,1,2.89-.8Z"/><path class="cls-1" d="M83.54,26.14l50.83,1.21,51.07,1.21c16.63.39,33.39.47,49.87,3.06,12.6,2,26.24,5.63,35.11,15.43,4.86,5.37,7.37,12.26,9.18,19.16a182.17,182.17,0,0,1,4.54,24q.38,3.11.65,6.24c.17,1.91,3.18,1.92,3,0a194.52,194.52,0,0,0-3.85-25c-1.63-7.34-3.53-14.88-7.51-21.35-7.12-11.55-20.19-17.18-32.94-20-16.15-3.58-32.91-3.94-49.37-4.34l-52-1.23L90,23.3l-6.48-.16c-1.93,0-1.93,3,0,3Z"/><path class="cls-1" d="M67.88,330.75l56.84.42,56.59.42c18.52.13,37.3,1,55.68-1.68,15.52-2.28,31-7.68,43-18.1,11.77-10.23,18.46-24.58,22.53-39.36q.78-2.81,1.45-5.63c.45-1.88-2.44-2.68-2.89-.8-3.55,14.72-8.94,29.24-19.66,40.31S255.88,323.41,241,326.22c-18,3.38-36.5,2.54-54.69,2.4l-55.59-.41-55.84-.41-7-.05a1.5,1.5,0,0,0,0,3Z"/><path class="cls-2" d="M6.92,12.65Q8.16,13,5.47,11.1V9.6a5,5,0,0,0,1.49,5,3,3,0,0,0,2,.84,2.93,2.93,0,0,0,1.73-.61,2.83,2.83,0,0,0,.74-3.69L10.19,9.4A3.11,3.11,0,0,0,8.46,8.07a3,3,0,0,0-1.89.15A2.93,2.93,0,0,0,4.9,11.63a7.54,7.54,0,0,0,3.32,4.8A3,3,0,0,0,11.79,16a3,3,0,0,0,.46-3.56c-.4-.73-.76-1.48-1.09-2.25l.3.71A17,17,0,0,1,10.2,6.8l.1.81c0-.23-.05-.47-.07-.7L5,9.1a20.15,20.15,0,0,0,3.48,3.1,17.85,17.85,0,0,0,4.21,2.11,7.79,7.79,0,0,0,2.62.67A3.58,3.58,0,0,0,19,11.79,3.6,3.6,0,0,0,18.41,10,4,4,0,0,0,16,8.18c-.68-.22-1.34-.45-2-.72l.82.35A29.71,29.71,0,0,1,8.7,4.24a2.9,2.9,0,0,0-1.57-.43,3.05,3.05,0,0,0-1.87.67A3.09,3.09,0,0,0,4.15,7.74c.37,1.21.69,2.45,1.15,3.64a26.94,26.94,0,0,0,1.87,4l4-4L11,11.22q-.28-.2.3.24c-.08-.1-.2-.17-.28-.26s-.17-.18-.26-.27c-.37-.38.36.58.1.12-.12-.21-.23-.46-.36-.66.36.53.18.47.08.14a3.15,3.15,0,0,1-.11-.44L5.64,12.91,7,14.57l3.47-4.49.37.27c-.15-.15-.14-.12,0,.09.38.51,0-.06,0-.06s.22.69.13.3a1.89,1.89,0,0,1-.08-.4L11,11c0-.14,0-.27,0-.41l-.1.75a3.66,3.66,0,0,0,.05-1.77,4.66,4.66,0,0,0-.4-.88,3.38,3.38,0,0,0-2.1-1.5,3,3,0,0,0-2.17.29,2.81,2.81,0,0,0,.67,5.14Z"/><path class="cls-2" d="M5.13,9.79a5.25,5.25,0,0,0,.42,1.69,2.33,2.33,0,0,0,1,1.32,2.19,2.19,0,0,0,3-.79,2.3,2.3,0,0,0,.23-1.7,4.34,4.34,0,0,0-.64-1.42,6.4,6.4,0,0,0-.65-.81,7.48,7.48,0,0,0-.87-.71l1.15,1.5c0-.06,0-.12-.05-.18a2.71,2.71,0,0,0-.7-1.2,2.14,2.14,0,0,0-.87-.56A2,2,0,0,0,6.14,6.7a2.7,2.7,0,0,0-1.38.37,2.9,2.9,0,0,0-1,1,3,3,0,0,0-.39,1.46,2.28,2.28,0,0,0,0,.37,6.15,6.15,0,0,0,.2,1.41,6.2,6.2,0,0,0,1.37,2.45l.59.45.7.3.77.1a2.09,2.09,0,0,0,1.13-.25A1.51,1.51,0,0,0,8.76,14a1.47,1.47,0,0,0,.52-.53,1.5,1.5,0,0,0,.38-.64,2.31,2.31,0,0,0,.25-1.13l.17-2.54A2.31,2.31,0,0,0,9.82,8a2.39,2.39,0,0,0-.64-1l-.63-.49a2.32,2.32,0,0,0-1.14-.36,1.43,1.43,0,0,0-.82,0,2.39,2.39,0,0,0-1.15.36A3.12,3.12,0,0,0,4,8.34,24.77,24.77,0,0,0,3.6,10.8a7.6,7.6,0,0,0-.05,1.72,2.5,2.5,0,0,0,.29,1.29,2.5,2.5,0,0,0,.7,1.08l.68.53a2.53,2.53,0,0,0,1.24.4,1.72,1.72,0,0,0,.9,0,2.6,2.6,0,0,0,1.25-.4l.68-.53a3.4,3.4,0,0,0,.86-1.48,1.49,1.49,0,0,0,.09-.3,8.46,8.46,0,0,0,.14-1V12a7.24,7.24,0,0,0-.13-1.14c0-.12,0-.23-.07-.35-.1-.42-.29-.82-.35-1.25l.12.89a1.55,1.55,0,0,1,0-.43l-.12.9a1.49,1.49,0,0,1,.13-.47l-.34.8a2,2,0,0,1,.11-.2,3.68,3.68,0,0,0,.46-1.8,2.69,2.69,0,0,0-.28-1.29c-.06-.14-.11-.27-.17-.4l-.51-.65-.65-.51a5.69,5.69,0,0,0-.77-.32,3.79,3.79,0,0,0-1.74,0L6,5.77a5.29,5.29,0,0,0-.85.36l-.68.53a4.65,4.65,0,0,0-.54.7.93.93,0,0,0-.05.1c-.16.31-.29.65-.42,1a2.17,2.17,0,0,0-.07.24c-.07.35-.11.72-.15,1.08,0,.08,0,.16,0,.24a9.66,9.66,0,0,0,.14,1.08,2.5,2.5,0,0,0,.07.26,9.85,9.85,0,0,1,.35,1.29l-.12-.89a2.06,2.06,0,0,1,0,.43l.12-.89a1.4,1.4,0,0,1-.1.35l6.6.9c-.06-.6-.14-1.19-.22-1.78l.12.88a11.26,11.26,0,0,1-.09-2.46H3.92l.14,2.54,5-2.07a3.51,3.51,0,0,1-.37-.4l.45.58a2.79,2.79,0,0,1-.36-.63l.28.68a3.29,3.29,0,0,1-.21-.76l.1.74a1.84,1.84,0,0,1,0-.33,3,3,0,0,0-.38-1.43l-.44-.56a6.41,6.41,0,0,0-.58-.45v4.7l.12-.07L7,12H5.74L6,12l-.59-.25a2.7,2.7,0,0,1,.59.35l-.48-.37a2.48,2.48,0,0,1,.49.48l-.35-.46.16.24L9.59,9.78l-.4-.57L9,9l-.25-.33a.94.94,0,0,0-.37-.37l-.26-.2a2,2,0,0,0-2,0,2,2,0,0,0-1,1.73Z"/><path class="cls-2" d="M9.53,8.85a9.1,9.1,0,0,0,2.62,1.77,25.07,25.07,0,0,0,2.95.77,28.74,28.74,0,0,0,6.33.81,3.89,3.89,0,0,0,1-7.63A24.49,24.49,0,0,0,8.63,4C4.2,5.05,5.21,11.82,9.69,11.84c21.82.11,43.63.05,65.45.17s43.62.48,65.41,1.33q9.19.36,18.39.85l2,.1c-.55,0,.15,0,.23,0a6.77,6.77,0,0,0,2.69,0,4.84,4.84,0,0,0,3.69-5.73,4.42,4.42,0,0,0-5.34-3.32,4.25,4.25,0,0,0-3.14,5.23c.85,3.75,6.42,3.54,7.38,0l.05-.17-1.78,2.32.14-.09-2,.53L162.2,13l-1.77-1,.14.12-1-1.79.05.18V8.32l-.1.28,1.07-1.84c1.67-1.4,3.38-.57,2-.81a15,15,0,0,0-1.63-.17c-.58,0-1.16-.07-1.74-.1l-3.73-.19c-2.48-.13-5-.25-7.45-.36-5-.23-9.94-.42-14.92-.6Q118.18,4,103.25,3.76c-19.9-.35-39.81-.41-59.72-.37-11.28,0-22.56.27-33.84.45l1.07,7.86a16.21,16.21,0,0,1,9.63.36l1-7.63c-1.81.05-3.61.21-5.42.21-.86,0-1.71-.06-2.57-.08a10.27,10.27,0,0,0-2.91.5,2.29,2.29,0,0,0-1,3.79Z"/><path class="cls-2" d="M135.82,7.51A7.64,7.64,0,0,0,138,9.66a10.15,10.15,0,0,0,4.18,1c2.47.33,5,.4,7.51.48q7.24.22,14.47.36,14.48.29,28.94.5c19,.29,38,.3,56.94.37,5.4,0,10.8.27,16.2.24s11-.1,16.45-.24a5,5,0,0,0,5-5,5,5,0,0,0-5-5c-19.16.4-38.32.39-57.48.39s-38,.1-57,0l-16-.1c-2.75,0-5.49,0-8.23.09a26,26,0,0,0-4.23.37,6.08,6.08,0,0,0-3.67,2.36,1.7,1.7,0,0,0-.26,2Z"/><path class="cls-2" d="M281.69,10.45c.8,10.88,2,21.72,3.05,32.57.53,5.38.71,10.77,1.08,16.16s1,10.94,1.51,16.41l.89,9c.16,1.57.3,3.15.47,4.72a24.87,24.87,0,0,0,.72,5.26,3.9,3.9,0,0,0,4.25,2.77c2.06-.27,3.12-1.86,3.36-3.8a19,19,0,0,0-.26-4c-.14-1.41-.3-2.82-.44-4.23l-.85-8c-.58-5.57-1.08-11.15-1.84-16.7C292.91,55.42,292,50.24,291.4,45l-1.72-16.16c-.66-6.14-1.33-12.27-2.13-18.4a3,3,0,0,0-2.93-2.93,3,3,0,0,0-2.93,2.93Z"/><path class="cls-2" d="M287.66,93.22a6,6,0,0,0-.26.92l4.33.58c.06-1.62.1-3.24.13-4.86s.21-3.22.16-4.86c-.09-3.07-.25-6.14-.5-9.2a100.78,100.78,0,0,0-3.08-18.43c-3.06-11.25-8.3-22.47-18.16-29.29a44.78,44.78,0,0,0-8.82-4.59c-1.4-.57-2.83-1-4.27-1.52l-1.06-.35c-.45-.16-1.67-.79,0,.06-.79-.4-1.6-.74-2.37-1.17a7.17,7.17,0,0,0-10.15,3.42,6.84,6.84,0,0,0,0,5.5,7.43,7.43,0,0,0,4.64,4.14c2.62,1,5.4,1.61,8.09,2.42,1.14.35,2.24.8,3.37,1.19-1.89-.66-.29-.11.2.11.65.31,1.29.63,1.92,1a56.85,56.85,0,0,1,6.13,3.8c.26.18.52.38.78.57.69.5-1.15-1-.14-.1.4.34.81.67,1.2,1a35.9,35.9,0,0,1,2.8,2.72c.4.42.78.86,1.16,1.31l.61.74c.26.32.56.37-.09-.12a7.12,7.12,0,0,1,1.12,1.59c.46.67.89,1.35,1.3,2,.3.51.58,1,.86,1.53.43.75.18.3.1.11.15.33.27.68.4,1q.76,2,1.38,4c1.72,5.54,2.76,11.3,4,17,.74,3.22,1.4,6.47,2,9.72.31,1.68.78,3.27,1.08,4.94s.58,3.48.85,5.22a2.21,2.21,0,0,0,2.71,1.54,2.26,2.26,0,0,0,1.54-2.71,7.12,7.12,0,0,0-.18-.92c-.46-2-3.25-1.77-3.81,0Z"/><path class="cls-2" d="M144.19,15.65l-4,2.5a.16.16,0,0,0,.16.27l4.11-2.36a.24.24,0,0,0-.24-.41Z"/><path class="cls-2" d="M80.09,21.89c2.23,2.48,5.33,2.7,8.47,2.87,2.8.15,5.62.08,8.43.13,5.47.08,10.9.08,16.37-.06,11.07-.28,22.16.15,33.22.52s22.32.79,33.45,1.53,22.1,1.62,33.15,2.42c6.19.44,12.37.88,18.53,1.51,3.13.32,6.26.68,9.38,1.06l4.44.54c.82.1,1.65.27,2.47.31a10.26,10.26,0,0,0,3-.51c3.1-.78,3.92-5.56.92-7.06a17.84,17.84,0,0,0-2.26-1.06,12.35,12.35,0,0,0-2.65-.36l-4.44-.39c-2.71-.23-5.43-.44-8.14-.69-5.52-.49-11-1.06-16.55-1.59-11-1.07-22.07-1.87-33.14-2.46s-22.13-1.22-33.2-1.6c-5.45-.19-10.91-.37-16.36-.5s-11.09-.1-16.61-.34c-6.21-.27-12.39-.58-18.61-.47q-4.71.09-9.42.22c-1.45,0-2.87.16-4.32.26a21.43,21.43,0,0,0-4.83.83,3,3,0,0,0-1.3,4.89Z"/><path class="cls-2" d="M81.79,18a15.87,15.87,0,0,1,2.26.56,12.64,12.64,0,0,0,2,.62,34.23,34.23,0,0,0,5.33.68q4.69,0,9.4.16c3.13.08,6.27.13,9.4.37s6.27.61,9.41.75c12.55.56,25.11.66,37.67,1S182.43,23,195,23.5c6.3.27,12.59.77,18.89,1s12.58.5,18.88.8q10.66.53,21.35,1.15c3.47.2,6.94.41,10.42.65s7.27.69,10.91.59A9.76,9.76,0,0,0,285,19.26a9.28,9.28,0,0,0-1.16-6.2c-1.29-2-3.35-4-5.81-4.47-6.87-1.21-14-1.3-20.94-1.66q-9.54-.5-19.11-.8t-18.88-.5c-6.38-.14-12.74-.06-19.13,0-12.58.07-25.17,0-37.76,0S137.1,5.3,124.55,6c-3.57.19-7.09.5-10.65,1-2.13.27-4.27.56-6.4.85-.08,0-1.63.11-.62.08s-.7,0-.9.06l-2.72.28c-3.47.38-6.93.82-10.39,1.28a33.54,33.54,0,0,0-6.12,1.24c-1.76.58-3.26,1.5-5,2.16a2.76,2.76,0,0,0-2,2.56,2.68,2.68,0,0,0,2,2.56Z"/><path class="cls-2" d="M264,21l-.06.05a3.77,3.77,0,0,0-1,3.7,8.29,8.29,0,0,0,2.35,3.84c.52.52.38.4,0-.11.44.61-.16-.27-.21-.53a8.48,8.48,0,0,0,1.05,2.56,15.25,15.25,0,0,0,1.92,2.33l.49.57c.63.75-.29-.46-.41-.53.38.21.73,1,1,1.37s.61,1,.9,1.44c1.17,2,2,4.2,3.06,6.29.58,1.16,1.14,2.32,1.74,3.46a13.38,13.38,0,0,0,1.8,2.68c1.23,1.4,2.84,1.91,4.48,2.6l-3-1.74.28.32a6.65,6.65,0,0,0,4.73,2,7.82,7.82,0,0,0,4.73-2c2.68-2.1,2.7-6.33,2.63-9.41-.05-2.5,0-5,.07-7.48.06-2.9.48-5.78,0-8.66a18.48,18.48,0,0,0-1-3.41,15.48,15.48,0,0,0-1.43-3.19,10.3,10.3,0,0,0-5.63-4.28,8.1,8.1,0,0,0-7.37,1.51A8.51,8.51,0,0,0,271.79,21c-.21,3.68,2,5.85,4.1,8.45l-1.31-1.7a20.43,20.43,0,0,1,1.79,3.28l-.78-1.85c1,2.52,1.29,5.3,1.76,8,.12.67.23,1.34.35,2,.17.87.11,0,0-.35a4.15,4.15,0,0,1,.12,1.06,10.72,10.72,0,0,0,.11,1.8c-.24-.15.29-1.54.45-1.7a4.16,4.16,0,0,1-.28.51c-.31.49-.12.23.55-.77L281.57,38l-.24.09,8.24,4.67-.16-.38.24,1.8.08-.74-.26,1.93a9.41,9.41,0,0,0-.83-6.54c-.29-.58-.61-1.14-.91-1.71-.62-1.21-1.18-2.45-1.82-3.65A43.93,43.93,0,0,0,280.74,26c-2.28-2.75-5.4-5.46-9.11-5.63-1.05,0-2.08,0-3.13,0,1.35.08-1.31-.38-.53-.06.44.17,1.45.21-.36-.21A4.09,4.09,0,0,0,264,21Z"/><path class="cls-2" d="M7.12,17.6c2,2,3.93,3.88,6.05,5.68l6.36,5.38,5.84-7.57a39.08,39.08,0,0,0-6.68-2.62,3.91,3.91,0,0,0-4.4,1.79A4.08,4.08,0,0,0,14.9,25c-.27-.32.11.45.14.5.16.32.32.64.5.95a21.26,21.26,0,0,0,1.66,2.24,33.52,33.52,0,0,0,2.91,3.16,4.44,4.44,0,0,0,7-5.37,25.05,25.05,0,0,0-8.88-9.12,4.91,4.91,0,0,0-5.95,7.71C17.94,30.89,24,36.38,29.94,41.93a5.31,5.31,0,0,0,6.92.42c1.94-1.51,2.84-4.62,1.35-6.8a17,17,0,0,0-10.34-7.24,5.24,5.24,0,0,0-5.78,2.36,5.35,5.35,0,0,0,.8,6.2c.21.25.44.49.64.75-.47-.61,0,.05.06.17.32.56.66,1.13,1,1.66.85,1.2,1.81,2.35,2.71,3.51l4.81,6.25c3.57,4.65,7,9.39,10.74,13.94,6.93,8.57,14,17,21,25.55l10.43,12.69,5.17,6.3,2.42,3,1.2,1.5.59.76c.16.19.87,1.1.13.15,3.21,4.08,6,8.46,8.82,12.78a102.86,102.86,0,0,0,9.34,12c1.76,2,3.57,3.85,5.39,5.74s4,3.25,5.68,5.14c.83.92,1.65,1.84,2.46,2.78.4.46.79.94,1.18,1.41.18.21.35.43.52.64,0,.06.89,1.12.29.35a55.37,55.37,0,0,1,4.33,6.48L129,155c-.34-.43-.4-.49-.16-.18l-.42-.56-1-1.31-1.62-2.28c-1.16-1.65-2.31-3.3-3.36-5s-2-3.52-3.08-5.21a6,6,0,0,0-5.23-2.8,4.11,4.11,0,0,0-3.06.95,5.59,5.59,0,0,0-1,1.56,5.78,5.78,0,0,0-.48,4.16,3.06,3.06,0,0,0,.56,1.49l.58.75c1.39,1.82,2.77,3.66,4.23,5.43a5.55,5.55,0,0,1,.39.49l1.32,1.71q1,1.29,2,2.55c1.26,1.58,2.58,3.1,3.82,4.69,1.38,1.78,4.37,1.6,6,.36a4.58,4.58,0,0,0,1.17-5.86A72.6,72.6,0,0,0,121.35,144l-1.07-1.26c-.17-.21-.35-.42-.54-.62s-.67-.75-.29-.31-.15-.22-.23-.33l-.47-.67-1.06-1.49a65.94,65.94,0,0,0-5-5.93c-1.53-1.68-3-3.39-4.5-5.14-.35-.42-.7-.85-1-1.28l-.52-.65c-.69-.86,0,.12.11.15-.31-.12-.78-1.05-1-1.32-.45-.61-.88-1.23-1.31-1.86-2.89-4.23-5.41-8.71-8.35-12.92-6.41-9.15-13.79-17.68-20.78-26.4L54.55,58.1c-3.81-4.76-7.8-9.36-11.76-14L36.69,37,33.8,33.61a22,22,0,0,0-1.71-1.77c-.24-.22-.47-.45-.72-.67.58.52-.31-.34-.44-.5l-5.78,7.52c.3.08.62.21.92.28.59.14-.81-.46,0,0a10.09,10.09,0,0,1,1.67,1s-.79-.69-.15-.11l.72.66c.23.22.44.47.67.7.75.75-.54-.79.12.16l8.27-6.38c-6-5.54-11.94-11.15-18.2-16.39l-6,7.71A20.84,20.84,0,0,1,15.37,27c.34.21.67.44,1,.67,1,.73-.63-.61.32.26a23,23,0,0,1,1.72,1.7c.07.08.76.9.42.47a9.6,9.6,0,0,0,.59.86l7-5.37a34,34,0,0,1-3-2.77c-.44-.47-.85-1-1.3-1.41l-.61-.6L21,20.33c-.19-.18-.2-.2,0-.07L14.9,25a39.79,39.79,0,0,0,5.6,4.43,4.83,4.83,0,0,0,6.22-1.24,4.78,4.78,0,0,0-.38-6.33L20,16.15c-2.32-2.06-4.77-3.91-7.25-5.79C10.87,9,8,9.92,6.76,11.55a4.6,4.6,0,0,0,.36,6.05Z"/><path class="cls-2" d="M13.84,23.23c3.29,2.11,7.38,1.61,11.1,1.55,2.48,0,4.95-.12,7.42-.19q7.55-.22,15.1-.23,15,0,29.93.73c5.19.27,10.15-4.75,9.92-9.92a10.14,10.14,0,0,0-9.92-9.92q-15.07-.76-30.18-.74-7.43,0-14.85.23c-2.48.08-4.95.17-7.42.33l-4,.28a21.92,21.92,0,0,0-4,.54,12.65,12.65,0,0,0-5,2.8c-2.24,1.77-2.91,5.14-2.55,7.77a9.21,9.21,0,0,0,4.42,6.77Z"/><path class="cls-2" d="M72.93,26.94a13.18,13.18,0,0,0,1,3.76c.24.57.48,1.14.77,1.69.66,1.21,1.47,2.36,2.23,3.51S78.48,38,79.1,39.19c.7,1.3,1.23,2.66,2,3.92,2.94,4.7,5.8,9.48,9,14,6.29,9.09,12.66,18.11,19.19,27,3.94,5.39,7.74,11,12.18,15.94,2.08,2.33,5.89,2.29,8.23.49a6.27,6.27,0,0,0,1.61-8.08c-2.75-4.72-6-9.11-9.17-13.6s-6.2-9-9.33-13.51-6.24-9-9.34-13.53S97.06,43,93.83,38.52c-1.14-1.57-2.23-3.2-3.52-4.65-.29-.33-1.38-1.18-1.46-1.61.11.64.39.57,0,.07l-.82-1.22c-.8-1.18-1.6-2.34-2.36-3.54A30.62,30.62,0,0,0,82.54,23a5.63,5.63,0,0,0-6.15-1.16c-1.84.77-3.75,3-3.46,5.14Z"/><path class="cls-2" d="M111.46,78.75c.41.89.84,1.75,1.31,2.61.24.43.48.85.71,1.28s.69.94.71,1.27l-.2-.51a9,9,0,0,0,.28.88c.28.79.67,1.59,1,2.37a22.15,22.15,0,0,0,1.59,3c2.09,3.48,4.25,6.89,6.53,10.24,4.49,6.57,9.22,13,14,19.31q7.33,9.77,14.81,19.44c5.12,6.65,10.58,13,15.8,19.59,2.83,3.56,5.6,7.17,8.45,10.72q2.13,2.65,4.29,5.3c1.78,2.17,3.69,5.39,6.66,5.85a6.36,6.36,0,0,0,5.33-1.1,6.1,6.1,0,0,0,2.42-4.8c.12-3.29-2.42-5.59-4.35-8-1.33-1.64-2.66-3.29-4-4.94s-2.43-3.06-3.63-4.6l-1.8-2.3-.9-1.16c-.2-.25-1.54-2-.47-.61-4.89-6.25-9.17-13-13.87-19.36-9.51-13-19-26-28.62-38.85-3-4-6-8-9.13-11.86A29.73,29.73,0,0,0,123,77c1.1.82,0-.16-.16-.39l-1.23-1.48c-.72-.86-1.46-1.69-2.23-2.51a5,5,0,0,0-6.62-.4,5.11,5.11,0,0,0-1.29,6.5Z"/><path class="cls-2" d="M123.6,162.64c-.13-.28-.09-.19.11.27.11.28.23.56.34.83a20.42,20.42,0,0,0,.76,2,20.91,20.91,0,0,0,1.62,2.57c1.35,2,2.75,3.9,4.23,5.78q3.75,4.75,7.84,9.24c2.63,2.89,5.31,5.74,7.88,8.69,1.28,1.47,2.52,3,3.74,4.5.34.43.37.47.1.11l.54.72.8,1.08c.62.86,1.21,1.72,1.79,2.6a4.68,4.68,0,1,0,7.36-5.68l-.23-.26c-1.91-2.15-5.58-1.45-6.95.9l-.18.31h8.09c-4.52-7-10.25-13-15.65-19.31q-2-2.37-4-4.79c-.6-.73-1.18-1.47-1.77-2.21-.35-.46-.38-.5-.08-.11l-.57-.75c-.29-.37-.57-.74-.85-1.12-.82-1.1-1.64-2.19-2.48-3.27-.64-.83.33.44-.37-.48l-.85-1.13a23.78,23.78,0,0,0-2.5-3.21c-1-.75-1.31-1-.84-.67q.36.27-.21-.24c-.42-.44-.88-.86-1.31-1.3a4.07,4.07,0,0,0-5.33-.32c-1.74,1.34-1.85,3.34-1.05,5.25Z"/><path class="cls-2" d="M21.24,28.35c.78,5,6.52,6.62,10.53,7.95,1.48.49,2.93,1,4.39,1.55A28.83,28.83,0,0,0,41,38.91a45.13,45.13,0,0,0,11.31.61c3.88-.3,7.74-.94,11.59-1.46l-2.63.35a29.26,29.26,0,0,1,6.11-.5l-2.62-.35a5.53,5.53,0,0,1,1.05.25l-2.36-1a3.25,3.25,0,0,1,.63.35c4.36,2.79,11.09,1.05,13.52-3.54A10.11,10.11,0,0,0,74,20.09c-3-1.91-6.52-2.16-9.94-1.81-3.09.32-6.17.79-9.24,1.2l2.63-.35a65.43,65.43,0,0,1-8.27.7,86.36,86.36,0,0,1-8.79-.63c-2.78-.27-5.72.19-8.52.25a26.94,26.94,0,0,0-3.79.41,12.43,12.43,0,0,0-3,1.12,6.76,6.76,0,0,0-3.81,7.37Z"/><path class="cls-2" d="M32.92,42.31l.27.33-1.76-3c.94,4.56,4.44,7.6,8.19,10,2.45,1.57,4.84,3.26,7.14,5l-2-1.55A116.56,116.56,0,0,1,60.36,68.29C65,73.53,69.45,78.94,73.73,84.48l-1.55-2c10.67,13.82,20.35,28.36,29.82,43s18.74,29.36,28.68,43.66c2.8,4,5.64,8,8.56,11.93q2.22,3,4.49,5.94,1.71,2.22,3.44,4.43a20.85,20.85,0,0,0,2.56,3l11.84-15.35-.71-.49-2.3-1a7.24,7.24,0,0,0-3.83-.17,9.17,9.17,0,0,0-5.53,2.64,11.68,11.68,0,0,0-2.47,4.24,9.6,9.6,0,0,0,1,7.41l.5.71a10.49,10.49,0,0,0,5.84,4.5,9.78,9.78,0,0,0,11-14.36c-1.47-2.71-3.87-5.14-5.76-7.59l1.55,2c-14.66-19-27.42-39.35-40.42-59.5-13.28-20.57-26.94-41-42.89-59.6a157.82,157.82,0,0,0-14.23-15,88.86,88.86,0,0,0-9.81-7.7,48.47,48.47,0,0,0-4.25-2.47,19.72,19.72,0,0,0-4.34-1.84l-.85-.2a11.74,11.74,0,0,0-5.62-.06l2.36-.31a12.31,12.31,0,0,0-4.37.77,17.2,17.2,0,0,0-1.89.89L38,31l-.41,0a6.69,6.69,0,0,0-6,4.06c-1.11,2.63-.34,5.06,1.36,7.21Z"/><path class="cls-2" d="M55,28.87a7.59,7.59,0,0,0-.83,5.9,21.85,21.85,0,0,0,1.36,3.12L54.71,36l.11.43V32.11a11.21,11.21,0,0,0-.21,6.21c.52,2.3,2.3,4,3.75,5.81,1.26,1.52,2.5,3.07,3.79,4.56,2.52,2.93,5.1,5.81,7.65,8.71,5,5.7,10.08,11.34,14.74,17.33l-1.55-2c6.78,8.8,12.55,18.33,19.11,27.29,6.94,9.47,14.28,18.64,21.61,27.81,3.92,4.9,7.83,9.8,11.66,14.76l-1.55-2c11.38,14.74,21.54,30.27,31.54,46l11.2-14.58-.29,0a10.94,10.94,0,0,0-6.4.49,9.43,9.43,0,0,0-4.7,4,10.19,10.19,0,0,0,1.54,11.9l.2.22c3.36,3.63,9.28,3.67,13,.77s5.23-8.6,2.55-12.8c-6.81-10.68-13.62-21.37-21-31.7-7.54-10.64-15.66-20.84-23.8-31-4.3-5.39-8.61-10.78-12.84-16.24l1.56,2c-3.6-4.65-7.12-9.35-10.52-14.15s-6.63-9.78-10-14.65C98.77,60.3,90.4,50.85,82,41.33c-2.22-2.53-4.39-5.12-6.69-7.58C74.17,32.5,73,31.23,71.82,30a12.47,12.47,0,0,0-5.29-3.57,11.43,11.43,0,0,0-6,0h4.31l-.38-.16,1.89.8a8.64,8.64,0,0,0-5-1.77A7.6,7.6,0,0,0,55,28.87Z"/><path class="cls-2" d="M191.49,171.72a34.87,34.87,0,0,0-2.78,2.2c-.66.57-1.33,1.12-2,1.66l.91-.71q-.78.6-1.59,1.17a7.1,7.1,0,0,0-1.51,1.21,7.6,7.6,0,0,0-1.34,1.9,4.09,4.09,0,0,0,1.67,5.33,4.69,4.69,0,0,0,3.65.34,7.33,7.33,0,0,0,1.78-.73,42.9,42.9,0,0,0,3.76-3q.72-.62,1.41-1.26a15.58,15.58,0,0,0,1.89-2.32l.43-1a3.27,3.27,0,0,0,.08-1.7,4.07,4.07,0,0,0-1.17-2.44,5.18,5.18,0,0,0-1.88-1.1,4.3,4.3,0,0,0-3.29.43Z"/><path class="cls-2" d="M9.49,375.09a12.44,12.44,0,0,0,1.85-2.3c2-3.65-2.62-7-5.66-4.36l-1.2,1.06c-3.05,2.7,1,8,4.38,5.68,5.51-3.72,9.75-8.75,14.27-13.56,4.82-5.13,9.58-10.37,14.61-15.3a4,4,0,0,0,.31-5.28c-1.13-1.46-3.55-2.21-5.19-1a54.35,54.35,0,0,0-5.54,4.63c-1.53,1.43-3.13,2.69-4.8,4-1.47,1.13-2.33,2.81-1.52,4.64a3.75,3.75,0,0,0,4.39,2.16,13.49,13.49,0,0,0,4.75-2.84c1.66-1.27,3.22-2.66,4.79-4,2.75-2.39,5.41-4.85,8-7.43,5.25-5.26,10.33-10.66,15.4-16.08S68,313.94,72.77,308.34s9.71-11.41,14.59-17.1l4.16-4.86A47.14,47.14,0,0,0,96.09,281c2.27-3.64-.73-8.47-5-7.49a4.55,4.55,0,0,0-3.26,4.35A4.29,4.29,0,0,0,91,281.88a4.05,4.05,0,0,0,5-2.81,4.12,4.12,0,0,0-2.81-4.95l-.13-.05,1,7.36.22-.13-2.12.57h.15l-3-1.25.11.12L88,277.66l0,.31,1.31-3.15c-4.5,4.84-8.79,9.89-13.21,14.82s-8.7,9.74-13.07,14.6-8.69,9.6-13,14.48-8.58,9.72-13,14.47c-2.48,2.67-4.94,5.33-7.37,8-1.16,1.3-2.33,2.58-3.51,3.86-.64.7-1.26,1.42-1.88,2.15-.17.21-.4.43-.56.66-.34.3-.38.38-.12.22-.39.24-.45.28-.18.1L27,354.43c1.62-1.33,3.2-2.62,4.94-3.79a55.3,55.3,0,0,0,5.77-4.33l-5.69-5.69c-4.42,5.29-9.17,10.31-13.79,15.43-4,4.46-8.24,9.49-13,12.88l4.38,5.68,1.18-1.09-5.65-4.36a12.27,12.27,0,0,0-1,2.82c-.76,3,3.12,5.54,5.36,3.11Z"/><path class="cls-2" d="M86.44,275.85a8,8,0,0,0-1.94,3.47,3.83,3.83,0,0,0,6.36,3.7c2.31-2.27,4.41-4.79,6.86-6.92s5-4.2,7.24-6.54c4.52-4.67,8.93-9.42,13.29-14.25s8.94-9.41,13.35-14.18,8.65-9.68,13.05-14.45c5-5.37,9.88-10.75,14.58-16.35a7.58,7.58,0,0,0,2.07-5,7.18,7.18,0,0,0-2.07-5c-2.62-2.41-7.46-3-10,0l-3.14,3.73c-.52.62-1.06,1.23-1.57,1.87-.17.21-1.84,2.64-.6.77-.27.4-.6.77-.9,1.16q-3,3.85-6.06,7.69-6.06,7.66-12.39,15.11c-4.22,5-8.13,10.2-12.42,15.11s-8.6,9.76-12.82,14.72c-2.49,2.92-4.77,5.92-7,9-2.07,2.85-4.49,5.35-6.83,8.13l6.36,3.7c0-.1.26-.94.09-.55s.33-.43.34-.44c1.11-1.46.38-3.8-1-4.79a3.71,3.71,0,0,0-4.88.29Z"/><path class="cls-2" d="M156.63,209a6.78,6.78,0,0,0,3.09-.92,25.7,25.7,0,0,0,3.66-1.67,26.79,26.79,0,0,0,2.54-1.83c.7-.52,1.38-1.05,2.07-1.58s.5-.39-.28.21l.72-.54A110.3,110.3,0,0,0,180,193a8.71,8.71,0,0,0,.68-11.41c-2.43-3.15-7.68-4.77-11.2-2.24-5,3.61-9,8.06-11.12,13.92a8.75,8.75,0,0,0,.87,6.69,8.87,8.87,0,0,0,5.19,4c4.47,1,9.54-1.34,10.68-6.06a38.36,38.36,0,0,0,.58-4.15l-1,3.82c.11-.26.92-2.51,1.22-2.44-.63.81-.71.92-.25.33l.28-.37.87-1.07c1.21-1.49,2.45-3,3.78-4.33s2.54-2.59,3.87-3.83c.3-.28.61-.57.92-.84,1.17-1-.64.4-.1,0a15.65,15.65,0,0,1,2.32-1.33l-10.15-7.8c-.2.59-.43,1.17-.63,1.76-.29.83.61-1.26.2-.49-.17.31-.31.63-.47.94a21.58,21.58,0,0,1-2,3.14,6.7,6.7,0,0,0-.68,5.21,7,7,0,0,0,2.42,3.52c2.46,1.9,6.71,2.06,8.88-.53a29.46,29.46,0,0,0,5.64-9.88,6.91,6.91,0,0,0-2.48-7.26c-2.35-1.81-5.06-1.72-7.67-.54-3.75,1.7-6.78,5.09-9.56,8-1.37,1.45-2.74,2.89-4.07,4.37-.61.68-1.22,1.37-1.81,2.07l-.6.69.76-.54-.69.52c-1.75,1.43-2,1.58-.73.43l1.86-.79a27.19,27.19,0,0,0-3.4,1.5L174.2,200a41.36,41.36,0,0,1,2.79-4.48l-1.36,1.77a23.47,23.47,0,0,1,4-4l-1.76,1.36.32-.25-10.52-13.64a65,65,0,0,0-9.12,12.44,41,41,0,0,0-3.5,6.9,16.45,16.45,0,0,0-.74,2.92c-.24,1.33-.71,2.72-.33,4.06a2.81,2.81,0,0,0,2.63,2Z"/><path class="cls-2" d="M64.34,324.84a11.94,11.94,0,0,0-2.45,4.64c0,.13.16.18.19.06a11.65,11.65,0,0,1,2.4-4.56c.08-.1-.06-.24-.14-.14Z"/><path class="cls-2" d="M59.75,333.13c2-.24,3.51-.52,5-2l3.21-3.38c2.19-2.31,4.35-4.65,6.51-7,4.27-4.65,8.38-9.4,12.47-14.21,2-2.36,3.93-4.83,6.08-7.07l6.47-6.69c4.32-4.48,8.48-9.05,12.46-13.84,4.22-5.08,8.38-10.19,12.41-15.43l1.49-1.94c.2-.26.39-.52.6-.78,1-1.24-.56.62.1-.11,1.1-1.2,2.09-2.53,3.13-3.79q3-3.6,5.93-7.22,11.91-14.53,23.71-29.16,6.71-8.31,13.36-16.63c4.44-5.54,9.07-10.91,13.57-16.4L176,179.56c-1.26,2-2.57,4.05-4,6-.33.46-.67.91-1,1.36-.51.69,0-.06.25-.31-.23.26-.44.55-.66.83q-1.12,1.4-2.31,2.76c-1.53,1.75-3.14,3.44-4.81,5.06-.86.84-1.77,1.62-2.64,2.45a9.45,9.45,0,0,0-2.67,6.3l.74-2.72a8.61,8.61,0,0,0-.85,3.93,9.32,9.32,0,0,0,.25,2c.31,1.21,1.74,1.67,2.83,1.95l.72.16a5.38,5.38,0,0,0,2.76,0l-.73.14c2.06-.58,3.37-.2,5.25-1.65a47.3,47.3,0,0,0,4.37-4,89.33,89.33,0,0,0,13.74-17.65,6.52,6.52,0,0,0-1.67-8.4c-2.31-1.78-6.55-2-8.55.51-2.17,2.78-4.33,5.55-6.42,8.39l-1.46,2c-.67.92-.05.1.07-.07-.23.33-.52.64-.78,1l-3.09,3.88q-6,7.49-12,15-11.69,14.57-23.48,29-5.89,7.23-11.83,14.45c-4,4.86-8.31,9.46-12.33,14.31-4.27,5.14-8.55,10.25-12.51,15.65-1.82,2.49-3.62,5-5.43,7.48l-2.58,3.54c-.19.26-.38.54-.58.79.53-.66-.15.15-.28.3L82.6,296c-4.52,5.41-9.11,10.76-13.48,16.3-2.27,2.88-4.56,5.74-6.79,8.65l-3.28,4.25a8.9,8.9,0,0,0-1.59,2.51,7.43,7.43,0,0,0-.21,2.93c0,1.23,1.11,2.67,2.5,2.5Z"/><path class="cls-2" d="M59.15,320.06a5.52,5.52,0,0,0-3.72,1.58,11.34,11.34,0,0,0-1.43,2,16.92,16.92,0,0,0-1.62,3.54l-1.94,5.11a6,6,0,0,0,.61,4.6,6.18,6.18,0,0,0,2.85,2.45,6,6,0,0,0,7.46-2.45,28.63,28.63,0,0,0,1.88-4.37c.36-1.08.71-2.18,1.1-3.25l-.55,1.3,1.68-3.78a6,6,0,0,0,.64-3.42,5.2,5.2,0,0,0-1.48-3.09,5.48,5.48,0,0,0-6.51-.83c-2.19,1.41-3.43,3.73-5,5.75l.94-1.21c-.66.85-1.37,1.66-1.95,2.56-.3.47-.6.94-.91,1.41-.66,1-1.36,2-2.09,2.91l1-1.28a25,25,0,0,0-1.93,2.66,6.65,6.65,0,0,0-.15,6.81L58,333.21l-.28-.38.65,2.41c.19-2.12.61-4.43-.07-6.48a.71.71,0,0,0-.68-.52,6,6,0,0,0-1.77.4c-.53.24-1,.5-1.56.74-1.07.51-2.09,1.15-3.12,1.74l3.69-.49-.3-.06a6.1,6.1,0,0,0-4.43.58,5.84,5.84,0,0,0-2.64,3.44,5.77,5.77,0,0,0,.58,4.43,6.32,6.32,0,0,0,3.43,2.64A6.57,6.57,0,0,0,58,339.79a17.48,17.48,0,0,0,2.07-2.55c.7-1,1.37-2.05,2-3.11a25.08,25.08,0,0,0,2.09-4.56c.38-1.1.64-2.25,1.08-3.32l-.54,1.29a1.29,1.29,0,0,1,.17-.33l-.84,1.09a2.13,2.13,0,0,1,.26-.26l-1.08.84a1.21,1.21,0,0,1,.3-.2l-7.35-7.35c-.82,1.65-1.61,3.32-2.59,4.89l-1.43,2.29a25.37,25.37,0,0,0-1.73,3.74L62,335.43l1.48-5.51a17.21,17.21,0,0,0,.56-4,6.84,6.84,0,0,0-.22-2.29,4.94,4.94,0,0,0-4.63-3.59Z"/><path class="cls-2" d="M62.63,318.47c-2.29-.81-5.05,1.33-6.64,2.74a41.74,41.74,0,0,0-4.5,4.81,30.88,30.88,0,0,0-4.56,6.41c-1.35,3-3.34,7.75-.33,10.48l-1.2-4.53c-.28,1.88-.19,3.84,1.47,5.12s3.6.9,5.36.13H47.54c3.35,2.16,7.67-.88,10-3.26a24.31,24.31,0,0,0,4.47-7,31,31,0,0,0,1.74-4.12,27.51,27.51,0,0,0,.77-3.8c.27-2,.54-6.13-1.9-7Z"/><path class="cls-2" d="M4.13,378.29l-.55.85,5.55,1.5.12-1-.1.8a45.24,45.24,0,0,1,.87-4.59l-.83,1.43a4.4,4.4,0,0,0,.89-1.24,3.81,3.81,0,0,0,.35-2.71,3.37,3.37,0,0,0-2-2.27,3.36,3.36,0,0,0-2.71,0,2.67,2.67,0,0,0-1.13.72,3.62,3.62,0,0,0-.9,1.55,13.32,13.32,0,0,0-1,5.88,4,4,0,0,0,1.09,2.63,3.8,3.8,0,0,0,2.63,1.08A3.76,3.76,0,0,0,9,381.86a3.92,3.92,0,0,0,1.09-2.63c0-.66.1-1.31.15-2s.05-1.3.14-1.94l-.13,1c.05-.36.11-.71.17-1.07l-6.9-.93c0,.16,0,.32,0,.48a4.32,4.32,0,0,0,.53,1.88l-.33-2.5a50.33,50.33,0,0,0-.59,6.49,3,3,0,0,0,2.18,2.87,3.56,3.56,0,0,0,1.59,0,3,3,0,0,0,1.78-1.37l.47-.89A3.11,3.11,0,0,0,9.49,379a3,3,0,0,0-1.34-1.75,3,3,0,0,0-4,1.05Z"/><path class="cls-2" d="M57.92,338.56c.25.23.42.33.78.61a3.53,3.53,0,0,0,1.54.9,5.2,5.2,0,0,0,2.7.6h.47l-1.88-.26a2,2,0,0,1,.44.12l-1.69-.71a1.92,1.92,0,0,1,.31.18l-1.44-1.11.18.19-1.12-1.45a1.27,1.27,0,0,1,.12.23l-.72-1.71c.12.37.21.55.41,1a3.67,3.67,0,0,0,.92,1.58,3.29,3.29,0,0,0,.61.77L60,340a16.67,16.67,0,0,0,2.3,1.79c.33.22.67.44,1,.64a3.38,3.38,0,0,0,1,.43,3.46,3.46,0,0,0,1.8.49,3.6,3.6,0,0,0,1.9,0l1-.14a13.23,13.23,0,0,0,1.73-.74l.13-.07a3.13,3.13,0,0,0,.69-.52,3.36,3.36,0,0,0,1.18-1.19,3.28,3.28,0,0,0,.85-1.45,4.9,4.9,0,0,0,.56-2.53,4,4,0,0,0-.09-1.24,4.17,4.17,0,0,0-.5-1.9A5.53,5.53,0,0,0,72,331.14l-.46-.38c-1.07-.89-2.17-1.73-3.31-2.53l3.29,4.29a8.33,8.33,0,0,0-.89-2l-1.12-1.45,0-.06c-.27-.24-.59-.47-.86-.67a7.28,7.28,0,0,0-.87-.65,14,14,0,0,0-1.78-.76,10,10,0,0,0-2.24-.35h-.41l-1,.14a7.09,7.09,0,0,0-1,.14l-.09,0-1.68.71-.79.61a3.46,3.46,0,0,0-1.26,1.26,3.53,3.53,0,0,0-.9,1.54,2.19,2.19,0,0,0-.36.9c-.07.26-.24,1.61-.25,1.87a5.12,5.12,0,0,0,.58,2.62,5.24,5.24,0,0,0,1.41,2.19Z"/><path class="cls-2" d="M66.41,336.17a9.93,9.93,0,0,0,2.31,1.77,10.22,10.22,0,0,0,3.27.45c1.92.14,3.81.19,5.73.18l10.47,0c7,0,14-.08,20.92-.12q21.18-.12,42.36-.07c14.12,0,28.23,0,42.35.25q10.71.15,21.42.43c6.91.18,13.83.41,20.74,0a121.11,121.11,0,0,0,12.16-1.45c1.53-.26-.89.06.64-.09l1.4-.17c1.23-.15,2.45-.31,3.68-.48l1.18-.17c.23,0,1.92-.3.74-.12,1.27-.2,2.49-.42,3.74-.7C263.26,335,267,334,270.67,333c1.84-.49,3.73-.92,5.53-1.54a10,10,0,0,0,3.93-2.06A7.53,7.53,0,0,0,282,326a3.61,3.61,0,0,0-1-3.61,18.35,18.35,0,0,0-1.78-1.41c-1.59-1-3.56-.8-5.29-.43s-3.38,1-5.05,1.48c-3.28,1-6.57,2-9.88,2.9s-6.43,1.8-9.65,2.67a46.41,46.41,0,0,1-4.64,1c-2,.32-3,.46-4.42.63a174.68,174.68,0,0,1-20.59.8q-10.57,0-21.15-.11c-28.15-.22-56.3-.5-84.45-.43-7.81,0-15.62,0-23.42.12l-12,.18c-2,0-4,.06-6,.24a18.19,18.19,0,0,0-3.55.37,4.36,4.36,0,0,0-1.76,1c-.62.92-.79,1.1-.48.52l-.54.47a2.62,2.62,0,0,0,0,3.7Z"/><path class="cls-2" d="M239.45,334.35a41.83,41.83,0,0,0,12.68-.53,63.27,63.27,0,0,0,11.57-3.59,76.21,76.21,0,0,0,21.66-13.15,81.44,81.44,0,0,0,9.56-9.83,3.81,3.81,0,0,0,0-5.24,3.75,3.75,0,0,0-5.24,0L287.86,304a11.63,11.63,0,0,1-1.51,1.62l4.46,5.78c5.16-5.59,8.7-12.76,11.88-19.62A170.34,170.34,0,0,0,311,270.15a4.12,4.12,0,0,0-2.86-5,4.21,4.21,0,0,0-5.05,2.86q-1.79,5.16-3.88,10.2c-.17.42-.34.84-.52,1.26-.35.84.06-.12-.27.65s-.72,1.66-1.1,2.49q-1.16,2.58-2.4,5.13c-3.3,6.75-7.34,13.16-10.23,20.08-.7,1.67.61,3.74,2.13,4.35a3.75,3.75,0,0,0,4.6-1.51,11.61,11.61,0,0,1,1.6-1.53l1.93-1.84L289.68,302a78.21,78.21,0,0,1-8.48,8.1l-.47.37c.46-.37-.06,0-.13.09-.37.28-.74.56-1.12.83-.8.58-1.61,1.15-2.43,1.7-1.65,1.11-3.3,2.23-5,3.27a80.68,80.68,0,0,1-10.22,5.34l-.07,0-.74.3c-.36.15-.73.3-1.11.44-1,.38-2,.75-3,1.09-1.82.62-3.65,1.23-5.49,1.78-2.09.63-4.2,1.16-6.29,1.83s-4.26,1.32-6.41,1.92c-3.06.86-2.17,5,.71,5.25Z"/><path class="cls-2" d="M8.86,382.83c13.7,1.53,27.63,1.09,41.4,1.12,7,0,14,.1,20.95-.28,6.82-.38,13.63.21,20.46.23,13.8,0,27.61.05,41.42-.11s27.62-.17,41.42-.44q11.48-.21,23-.46c7.81-.16,15.64-.2,23.45-.54a4.77,4.77,0,0,0,0-9.53c-13.8.09-27.62.76-41.42,1.14s-27.61,1-41.42,1.27-27.61.66-41.42.89c-6.83.12-13.64.47-20.46.61-3.5.07-7-.37-10.48-.44s-7-.05-10.47-.08q-11.47-.1-23-.32c-7.81-.16-15.65-.26-23.44.3a3.32,3.32,0,1,0,0,6.64Z"/><path class="cls-2" d="M221.4,376.83c0,2.12,2.3,3.26,4,3.83a25.33,25.33,0,0,0,6,.92,42.67,42.67,0,0,0,5.54,0c.89-.05,1.77-.11,2.66-.18a25.9,25.9,0,0,0,3.4-.55,39.47,39.47,0,0,1,4.82-.41c1.93-.14,3.87-.21,5.81-.27,1.77-.05,3.54-.08,5.31-.06,1.93,0,3.87.24,5.79.23a3.51,3.51,0,0,0,3.45-3.05c.19-1.56-.77-3.58-2.51-3.85a62,62,0,0,0-11.56-.27c-1.94.06-3.87.19-5.81.27a43,43,0,0,1-5.56.16c-.67-.05-1.76-.27-2.66-.26h-2.9c-1.85,0-3.69,0-5.54,0a50.19,50.19,0,0,0-6,.3c-1.63.24-4.29,1-4.27,3.14Z"/><path class="cls-2" d="M248.23,380.79c2.05,1.21,4.46,1.28,6.8,1.5,1.88.17,3.76.22,5.66.22a108.21,108.21,0,0,0,12.07-.78,106.43,106.43,0,0,1,11.84-.58c2,0,3.93,0,5.9.14a54.37,54.37,0,0,0,6.1.43,3.83,3.83,0,0,0,1-7.49,23.56,23.56,0,0,0-6.65-.77c-1.89-.07-3.78-.07-5.66,0-4,.1-8.05.59-12.08.67s-7.89.28-11.84.41c-2,.06-3.93.06-5.89.06-2.18,0-4.39-.35-6.5.28a3.28,3.28,0,0,0-.77,5.93Z"/><path class="cls-2" d="M298,375.08a6,6,0,0,0,1.16-2.83c.07-.74.14-1.48.25-2.23.27-1.72.58-3.44.88-5.15h-6.35a16.56,16.56,0,0,1,1,3.57,19.19,19.19,0,0,1,0,4.08l5.37-.73a24.57,24.57,0,0,1,0-3.93c0-1.31.07-2.62.13-3.93.12-2.78.31-5.55.55-8.33a158.89,158.89,0,0,1,2.16-16l-6.28-.85c.13,4.57.45,9.06-.15,13.61h5.5c.55-10.8,2.42-21.44,4.28-32.07a27,27,0,0,0,.41-4.3,28,28,0,0,1,.39-3.76c.41-2.82.73-5.64,1.05-8.47s.75-5.48,1.09-8.22,1.07-5.51,1.41-8.31c.76-6.2,1.42-12.38,1.76-18.62.15-2.81-4.54-3.53-5-.67-.89,5.6-1.51,11.22-2.18,16.85-.32,2.77-.53,5.53-.74,8.31s-.77,5.39-1.22,8.05-1.15,5.37-1.67,8.06l-.75,3.81c-.28,1.43-.9,2.76-1.2,4.19-.58,2.74-.85,5.59-1.18,8.38s-.82,5.44-1.08,8.17a175.06,175.06,0,0,0-.88,18.6c0,3.57,5.25,3.5,5.5,0,.31-4.53,1-9.06,1-13.61a3.23,3.23,0,0,0-3.19-3.19,3.27,3.27,0,0,0-3.2,3.19c-.68,5.59-1.26,11.19-1.57,16.81q-.22,4.17-.3,8.33c0,2.83.24,5.78-.09,8.59a2.71,2.71,0,0,0,2.37,2.69,2.76,2.76,0,0,0,3-2,17,17,0,0,0,0-10.13c-.92-3-5.58-3.29-6.35,0a36.17,36.17,0,0,0-.88,6.05c-.06.94-.11,1.9-.09,2.84a5.78,5.78,0,0,0,1,3.07,2.33,2.33,0,0,0,4,0Z"/><path class="cls-2" d="M18.35,378.61c-1.36.62-.27.22.08.12a14,14,0,0,0,2.54-1,15.63,15.63,0,0,0,3.3-2.56l4.32-3.85c2.8-2.5,5.54-5.07,8.31-7.62,2.52-2.32,5-4.69,7.62-6.93.6-.52,1.24-1,1.85-1.52-2,1.73.23-.13.81-.51a26.45,26.45,0,0,1,4.42-2.37l-2,.85A23,23,0,0,1,55,351.94l-2.31.31c7.62-1,15.35-.19,23-.36,8-.19,16-.17,24-.06,15.81.2,31.62.74,47.43.74,31.73,0,63.43-1.76,95.09-3.76,8.82-.56,17.64-1.08,26.45-1.73,4.37-.32,8.73-.69,13.08-1.14,2.08-.22,4.17-.46,6.24-.72a22.66,22.66,0,0,0,6.19-1.28,13.88,13.88,0,0,0,4.65-3.59c3.51-3.7,3-10-1.63-12.64a15,15,0,0,0-5.47-2.22,16.51,16.51,0,0,0-4.55.14c-2.35.29-4.71.55-7.06.78-4.72.47-9.45.84-14.18,1.17-9.57.66-19.14,1.24-28.72,1.84-19.35,1.19-38.71,2.27-58.1,2.88s-38.61.59-57.93.18c-9.68-.2-19.35-.43-29-.48-4.93,0-9.85,0-14.78.09s-9.68.6-14.5,1.11c-5,.52-10.14,1-14.91,2.68a43.43,43.43,0,0,0-13.72,7.9c-3.4,2.84-6.51,6.05-9.69,9.11-3.43,3.31-6.86,6.62-10.24,10-.78.77-1.6,1.52-2.34,2.32a11.16,11.16,0,0,0-2.34,4.11c-.15.42-.85,1.84-.11.43-1.3,2.47-1.15,5.87,1,7.86a6.83,6.83,0,0,0,7.85,1Z"/><path class="cls-2" d="M278,333.56c1.77,2,5,2.14,7.27,1.26a11.37,11.37,0,0,0,4.34-2.77c.65-.68,1.21-1.44,1.83-2.15l-1.63,1.26a16.94,16.94,0,0,0,3.83-3l-1.81,1.39a16.06,16.06,0,0,0,2.87-2.31,30.54,30.54,0,0,0,2-2.67c.6-.85,1.19-1.7,1.78-2.56a60.46,60.46,0,0,0,3.27-5.1,33,33,0,0,0,3.23-7,24.61,24.61,0,0,0,.47-2.59c.38-2.49.63-4.91-.84-7.19a9.81,9.81,0,0,0-3.21-3.23,8.79,8.79,0,0,0-11.24,2.34c-.76,1-1.38,2.05-2,3.09-1,1.6-1.81,3.36-2.81,5s-2,3.32-3,5l-1.73,2.86a22.25,22.25,0,0,0-2,4.78l.89-2.1c-.35.77-.69,1.55-1,2.33a11.92,11.92,0,0,0-.78,4.09l1.1-4.07c-1,2-2.28,4-2.58,6.24-.36,2.67,0,5.16,1.89,7.25l-1.42-2.42a7.26,7.26,0,0,0,1.33,2.36Z"/><path class="cls-2" d="M298.55,302.06a9.75,9.75,0,0,1,1.79-1.39c.55-.45,1.24-.94,1.74-1.44,1.07-1.08,1.7-2.91,2.41-4.25,1.48-2.82,2.75-5.7,4-8.63l-7.44-3.14a57.86,57.86,0,0,0-1.22,8.18,75.08,75.08,0,0,0,0,7.65,55.22,55.22,0,0,1-1.55,14.35c-1.11,5.09-2.31,10.2-3.69,15.22-.71,2.57-1.48,5.12-2.22,7.68-.63,2.17-1.85,4.66-1.78,6.94a4.73,4.73,0,0,0,5.92,4.5c5.14-1.24,5.53-7.67,6.37-11.91s1.79-8.3,2.79-12.44c2-8.19,3.75-16.34,3.54-24.81-.05-2.24-.12-4.48-.29-6.71-.1-1.18-.16-2.37-.17-3.56a23.56,23.56,0,0,1,.14-2.93c.33-2.09-.53-4.48-2.84-5a4.18,4.18,0,0,0-5,2.85c-1.06,3-2.06,6-2.87,9.11a21,21,0,0,0-1.13,4.82,20.15,20.15,0,0,0,.31,2.3,12.75,12.75,0,0,1,.39,2.29.47.47,0,0,0,.8.33Z"/><path class="cls-2" d="M288.53,326.75c-1.61,2.44-1.82,5.56-2.37,8.4a53,53,0,0,0-1.39,10.1c0,2.91,0,5.79.18,8.7.09,1.58.16,3.16.37,4.73a9,9,0,0,0,2.47,5.21c1.33,1.41,3.08,2,4.8,2.68l-3.31-3.31.07.4a4.51,4.51,0,0,0,3.79,3.26,4.69,4.69,0,0,0,4.53-2.17l.27-.36-1.7,1.7a8.48,8.48,0,0,0,4.45-4.33,11.2,11.2,0,0,0,.73-3.51l-.29,2.12a11.71,11.71,0,0,0,0-4.93l.29,2.16c-.27-2.53-.18-5.1-.47-7.63-.13-1.16-.26-2.32-.4-3.48a44.17,44.17,0,0,0-.66-5.53c-.59-2.35-1.44-4.66-2.17-7l-1.16-3.71a11.84,11.84,0,0,0-.9-2.48,14.77,14.77,0,0,0-1.42-1.78c-1.58-1.91-4.54-1.05-5.71.74Z"/><path class="cls-2" d="M289,363.32c-1.63.95-2.53,2.9-3.16,4.59l-.78,2.08c-.59,1.57.41-.15.35-.36l-.85,1.09a12.17,12.17,0,0,0-.7,1.76,5.54,5.54,0,0,0,3.84,6.75,5.62,5.62,0,0,0,6.74-3.84c.87-2.47.54-5.42.44-8s0-5.39-1.34-7.73c-2.12-3.62-7.24-4.76-10.39-1.7a7.44,7.44,0,0,0-2,3.5c-.65,2.41.25,4.51,1.74,6.35,1.68,2.06,4.71,1.85,6.84.88,3.33-1.51,3.74-5.58,4.25-8.73.44-2.72.93-5.42,1.46-8.12a14.54,14.54,0,0,0,.12-6.09,15.38,15.38,0,0,0-.6-1.89,8.34,8.34,0,0,0-.26-.85c-.29-.61,0,1.07,0,.45a4.51,4.51,0,0,0,0-1c.06.25-.19,1.38-.06.46s.32-1.95.38-2.92a7.46,7.46,0,0,0-2.59-6.47c-1.92-1.51-4-2.22-6.4-1.22s-3.29,3-3.61,5.36c.11-1,.11-1.22,0-.57a4.84,4.84,0,0,0-.19,2.1,4.44,4.44,0,0,0-.05,1.2c.14-1,.16-1.17.06-.47s-.19,1.41-.28,2.12a8.48,8.48,0,0,0-.09,1.23,12.79,12.79,0,0,0,.77,4.2c.06.19.67,1.56.53,1.69q-.18-1.41-.06-.33a5.3,5.3,0,0,1,0,.69,51.91,51.91,0,0,1-.57,6.7l-.42,3.4c-.06.57-.12,1.14-.17,1.71l-.08,1a3.85,3.85,0,0,1,2-3.33l6.84.88a4.39,4.39,0,0,1,.69,5.2q-4.26,4.17-7.4.13c.53.83-.23-1.13-.08-.19,0,.24.27,1.81.13.55.06.54.13,1.09.15,1.64a27.76,27.76,0,0,1-.2,3.28c-.05.41,0,.31,0-.29,0,.31-.09.61-.15.92a16.3,16.3,0,0,0-.34,2.87h11a7.29,7.29,0,0,0-.48-2.58c-.42-1.05-.39-.85.07.61l0-.5c0-.81-.14-1.65-.21-2.46-.16-1.82-.5-3.91-1.83-5.28a2.65,2.65,0,0,0-3.15-.41Z"/><path class="cls-2" d="M285.13,344.86c-.62-.21-1.22-.45-1.83-.69l2.22.94a13.6,13.6,0,0,0-5.21-1.5c-.51-.05-1-.06-1.53-.11a35.21,35.21,0,0,0-3.56,0l-6.36.18-13,.37-25.91.74c-17.37.5-34.74,1-52.11,1.41s-34.59.65-51.88.59-34.62-.5-51.93-1.29c-8.78-.39-17.8-.44-26.34,2A51.14,51.14,0,0,0,26.28,359.9a42.45,42.45,0,0,0-3.54,3.92c-1.7,2.14-2.9,4.17-2.9,7a10.1,10.1,0,0,0,2.9,7,10,10,0,0,0,7,2.91c2.45-.11,5.41-.89,7-2.91A41.47,41.47,0,0,1,43.69,371l-2,1.55a42.48,42.48,0,0,1,9.09-5.33l-2.37,1a44.15,44.15,0,0,1,11.07-2.94l-2.64.36c6.85-.88,13.75-.49,20.62-.17q10.92.5,21.85.75c14.49.35,29,.41,43.47.3,29.08-.24,58.15-1.18,87.21-2l24.39-.71,11.95-.35c4.81-.14,9.8.05,14.55-.77l-2.6.35a30.91,30.91,0,0,0,4.58-.6,40,40,0,0,0,3.9-1.75l-2.08.88.46-.19a9.54,9.54,0,0,0,4.44-3.06,8.17,8.17,0,0,0,1.84-5.19,8.9,8.9,0,0,0-6.28-8.24Z"/><path class="cls-2" d="M26.56,374.49l.66.79-1-1.79.06.23a4.87,4.87,0,0,0,3.49,3.49,22.26,22.26,0,0,1,2.6.91,20.3,20.3,0,0,0,4,.82c1.91.16,3.85.33,5.77.38,3.84.1,7.67-.53,11.5-.74,7.85-.44,15.67-1.36,23.54-1.75,15.86-.78,31.71-1.57,47.57-2.19q48-1.89,96-2.27,13.32-.11,26.65-.09,6.79,0,13.58,0a95.17,95.17,0,0,1,11.82.4l-2.64-.35a20.83,20.83,0,0,1,4.92,1.27l-2.37-1a14.38,14.38,0,0,1,3,1.76V357.26c-.39.19-.78.38-1.18.55l2.37-1a23,23,0,0,1-5.45,1.53l2.63-.36a22.81,22.81,0,0,1-5.66,0l2.64.35-.86-.13c-2.72-.44-5.19-.44-7.65,1A9.93,9.93,0,0,0,259,372.82c1.32,2,3.43,4.15,5.93,4.56a41.76,41.76,0,0,0,5.9.65,35.5,35.5,0,0,0,5.9-.56,31.12,31.12,0,0,0,9-3.08c3.07-1.52,4.91-5.26,4.91-8.56a9.88,9.88,0,0,0-1.35-5,10,10,0,0,0-3.56-3.56c-3.85-2.94-8.66-3.88-13.33-4.44a94.89,94.89,0,0,0-10.93-.35q-12.57-.06-25.14,0-25.14.07-50.28.56t-50.52,1.39q-25.13.89-50.24,2.2c-8.22.43-16.45,1-24.62,2.1a65.29,65.29,0,0,0-8.12,1.4l-5.84,1.52c-1.95.51-3.91,1-5.82,1.61s-3.76,1.42-5.69,2a6.45,6.45,0,0,0-2.53,1c-.44.42.39-.15.53-.17a4.16,4.16,0,0,0-.66.27,22.7,22.7,0,0,0-2.25,1l-.58.3c-.29.15-.74.16,0,0a4.92,4.92,0,0,0-3.49,3.49l-.06.28,1-1.8c-.22.27-.43.54-.66.8a3.06,3.06,0,0,0,0,4.15Z"/><path class="cls-2" d="M266.08,365.55c-1.15-.46.86.24.18.07-1.44-.36-1.58-1-3.17-.9l-.8.11c-1,.13-1.06.14-.06,0a7,7,0,0,0-.87.08c-1.17.13-2.29.38-3.45.58l-.89.15c-1.55.26,1.52-.16,0,0a61.84,61.84,0,0,1-8.5.32c-5.65-.17-11.3-.61-16.92-1.24-5.84-.64-11.66-1.36-17.53-1.7-6.12-.35-12.25-.42-18.39-.39-12.41.06-24.83.42-37.24.58s-24.9.36-37.35.55l-20.66.32-10.45.17a52,52,0,0,0-7,.51,15.4,15.4,0,0,0-7.19,3.56c-1.71,1.38-2.23,3.92-2,6a7.21,7.21,0,0,0,3.4,5.19c3.52,2.46,7.94,2.55,12,2.31l9.46-.55q9.33-.54,18.67-1.05,18.8-1,37.59-1.81c12.43-.5,24.86-.77,37.3-1,6.13-.09,12.27-.13,18.4.09,5.93.21,11.83.76,17.73,1.41,6.36.69,12.83,1.57,19.24,1.15a70.74,70.74,0,0,0,10.93-1.49,39.56,39.56,0,0,0,4.54-1.24,18.15,18.15,0,0,0,3.08-1.42,7.73,7.73,0,0,0,2.8-3.38c1.56-2.95.06-5.84-2.85-7Z"/><path class="cls-2" d="M523,9.58a67.49,67.49,0,0,0,7.62.95l-.84-.12a2.62,2.62,0,0,1,.48.13L528,8.25a3.88,3.88,0,0,0,1,1.67,3.78,3.78,0,0,0,1.67.95,3.84,3.84,0,0,0,3.7-1,3.55,3.55,0,0,0,0-5,3.77,3.77,0,0,0-3.7-1,3.82,3.82,0,0,0-1.67.95,4.89,4.89,0,0,0-1,1.66l2.29-2.29-.31.1.84-.12a25.86,25.86,0,0,1-3.52,0c-1.17,0-2.34-.14-3.5-.27a2.94,2.94,0,0,0-2,.85A3.07,3.07,0,0,0,521,6.4,2.87,2.87,0,0,0,523,9.58Z"/><path class="cls-2" d="M534.84,11.5c-.14-.8-.31-1.59-.48-2.38-.57-2.67-5-1.42-4.06,1.12a43.2,43.2,0,0,0,3,6.28,2.63,2.63,0,0,0,3.55.93,2.66,2.66,0,0,0,.94-3.56,17.75,17.75,0,0,1-1.49-5.58L531.06,9c1.14,4.15,2.24,8.33,3.33,12.5.56,2.15,1,4.36,1.71,6.47s1.41,4.08,2.14,6.11c3,8.33,6.27,16.56,9.8,24.67l5.52-4.26a4.33,4.33,0,0,0-3.09-1.29,3.09,3.09,0,0,0-2.9,2.2,4.32,4.32,0,0,0,.47,3.35A3.54,3.54,0,0,0,552.85,60c1.8-1,2-3.06,1.26-4.81q-5-11.55-9.26-23.44c-.72-2-1.38-4.09-2.12-6.11s-1.6-3.86-2.34-5.81c-1.54-4-2.94-8.15-4.16-12.27a2.68,2.68,0,0,0-2.94-1.92A2.64,2.64,0,0,0,531,8.31a25.37,25.37,0,0,0,2.36,8.21l4.49-2.63a42.59,42.59,0,0,0-4-5.7l-2.05,3.52c.75.21,1.49.43,2.25.61a.68.68,0,0,0,.82-.82Z"/><path class="cls-2" d="M539.33,29.49a3.4,3.4,0,0,0,.21,2.92c.59,1.05,1.2,2.09,1.76,3.16a39.7,39.7,0,0,1,3,5.81c1.37,4.29,3,8.52,4.38,12.81,2.94,9.09,5.21,18.36,9.24,27.06,2.26,4.88,4.82,9.61,7.14,14.47,2.23,4.66,4.34,9.45,6.26,14.1,4.09,9.92,7.76,20,11.34,30.13q6.25,17.69,12.44,35.4a3.94,3.94,0,0,0,4.71,2.68,3.86,3.86,0,0,0,2.67-4.71c-7.27-20.79-14.12-41.81-22.35-62.24-4.11-10.2-8.83-20-13.73-29.86-.6-1.21-1.19-2.41-1.76-3.63-.26-.57-.53-1.14-.78-1.72l-.39-.87c0-.12-.37-.89-.18-.42-.89-2.14-1.74-4.31-2.57-6.47-1.67-4.36-3.12-8.79-4.62-13.21-.85-2.51-1.74-5-2.7-7.5a39.56,39.56,0,0,0-3.43-7.34c-1.4-2.12-2.52-4.43-4-6.51a39.67,39.67,0,0,0-2.51-3.14,3.6,3.6,0,0,0-3.29-1.55.87.87,0,0,0-.82.63Z"/><path class="cls-2" d="M593.56,158.45a14.91,14.91,0,0,1,.09,2.41,5.88,5.88,0,0,0,.63,2.62,41,41,0,0,1,1.83,4.76c.46,1.67,1.17,3.25,1.78,4.87s1.2,3.38,1.74,5.09l6.19-2.61a6.44,6.44,0,0,0-2.11-2.14,5.06,5.06,0,0,0-2.31-.6,2.15,2.15,0,0,0-2,1.55A5.18,5.18,0,0,0,600,179a3.41,3.41,0,0,0,4.22,1.38c1.39-.58,2.61-2.43,2-4-.78-1.87-1.58-3.73-2.45-5.56a29.86,29.86,0,0,0-2.54-4.73c-1-1.46-1.93-3.05-2.93-4.54a6.07,6.07,0,0,0-2.09-2.15,19.09,19.09,0,0,1-2.06-1.28.36.36,0,0,0-.53.31Z"/><path class="cls-2" d="M595.24,160.65l0,.47.36-.87a3.49,3.49,0,0,0-.94,3.21,23.27,23.27,0,0,0,.62,4.07c.68,2.43,1.38,4.86,2.11,7.27,1.46,4.85,3.1,9.59,4.93,14.31q2.83,7.32,6,14.52,1.51,3.48,3.14,6.9c1.2,2.53,2.19,6,5.18,6.86a3.52,3.52,0,0,0,4.22-2.39c.72-1.77-.18-3.46-.93-5-.55-1.14-1.08-2.29-1.62-3.43-1.06-2.29-2.12-4.59-3.16-6.89-2-4.38-3.83-8.64-5.61-13-1.86-4.59-3.66-9.07-5.5-13.66q-1.41-3.54-2.76-7.09a24.22,24.22,0,0,0-1.83-3.72c-.63-1.11-1.28-2-2.62-2.24l.74.57-.24-.42c-.51-.93-2.23-.58-2.11.57Z"/><path class="cls-2" d="M616.35,214.39a4.38,4.38,0,0,0-.59,2.64,11.07,11.07,0,0,0,.72,2.22c.48,1.33.88,2.7,1.38,4,1,2.67,2.16,5.31,3.17,8,2.1,5.52,4.13,11.06,6.22,16.58L639.86,281l3.52,9.28,1.77,4.65c.29.77.58,1.55.88,2.32a6.48,6.48,0,0,0,2.52,3.16c1.78,1.34,4.8-.05,5.23-2.13a8.62,8.62,0,0,0-.79-5.26l-1.58-4.18-3.18-8.36-6.34-16.71q-6.28-16.56-12.64-33.09c-1.21-3.13-2.46-6.26-3.77-9.35a44.27,44.27,0,0,0-2.18-4.22c-1-1.71-1.8-3.57-3.95-4a2.73,2.73,0,0,0-3,1.22Z"/><path class="cls-2" d="M644.12,279.5c-1.48,1.81-.72,3.84-.19,5.87s1.31,4.26,1.94,6.39c1.22,4.16,2.74,8.26,4.15,12.36,2.9,8.4,6.11,16.83,11.13,24.23a3.63,3.63,0,0,0,4,1.63,3.16,3.16,0,0,0,1.57-.91,3.68,3.68,0,0,0,.56-4.31c-5-7.4-8-15.32-10.88-23.71-1.51-4.4-2.91-8.81-4.82-13.06a52.23,52.23,0,0,0-3-5.91,5.42,5.42,0,0,0-2.63-2.59c-.44-.15-1.43-.45-1.81,0Z"/><path class="cls-2" d="M652.69,308.44a31.3,31.3,0,0,0,2.79,5.88c.45.87.92,1.72,1.42,2.55.27.45.53.91.81,1.35a5.93,5.93,0,0,0,1.77,1.72,2.56,2.56,0,0,0,3.84-2.21,5.7,5.7,0,0,0-.6-2.43c-.24-.47-.5-.93-.75-1.39-.46-.86-1-1.69-1.46-2.53a30.86,30.86,0,0,0-3.63-5.37,2.52,2.52,0,0,0-4.19,2.43Z"/><path class="cls-2" d="M653,302.05c-.17,1.83.91,3.61,1.58,5.26s1.53,3.43,2.3,5.15,1.31,3,1.9,4.41c.83,2.05,1.41,4.64,3.79,5.35a2.62,2.62,0,0,0,2.91-1.19c1.27-2.13-.18-4.54-1-6.54q-1.07-2.49-2.22-4.94c-.77-1.63-1.55-3.25-2.48-4.8s-1.91-3.57-3.64-4.48a2.09,2.09,0,0,0-3.1,1.78Z"/><path class="cls-2" d="M661.11,324a7.08,7.08,0,0,0,.23,4c.38,1.25.94,2.47,1.41,3.69,1,2.45,1.94,4.89,2.91,7.34,2,5.06,4.24,10,6.48,15l6.52,14.49,3.26,7.25,1.63,3.62c.7,1.56,1.35,3.25,3.3,3.53a3.41,3.41,0,0,0,3.62-1.48c1.57-2.31-.37-5.11-1.36-7.31l-2.53-5.66-5.08-11.33c-3.41-7.63-6.77-15.26-10.52-22.73-1-2.06-2.08-4.13-3.14-6.18s-2.15-4.53-4.46-5.46a1.88,1.88,0,0,0-2.27,1.29Z"/><path class="cls-2" d="M358.52,383.19c.59.16,1.16.38,1.76.52a13.62,13.62,0,0,0,2.38.32,8.55,8.55,0,0,0,2.42-.24c.29-.07.57-.15.85-.24l.36-.13a3.17,3.17,0,0,0,1.4-.82c.19-.23.37-.47.55-.71a2.94,2.94,0,0,0,.15-2.76,3,3,0,0,0-2-1.79,4.26,4.26,0,0,0-2.27.1c-.29.07-.58.12-.87.17l.85-.12-1.85.24.85-.12a9.41,9.41,0,0,1-2.25,0l.81.11c-.52-.07-1-.19-1.56-.26a2.16,2.16,0,0,0-1.18,0,2.08,2.08,0,0,0-1.1.35,3,3,0,0,0-1.37,1.77,3,3,0,0,0,2.07,3.66Z"/><path class="cls-2" d="M357.53,381.7c.4.57,1,.55,1.65.66l-.9-.69a2.15,2.15,0,0,0,1.74,1c.28,0,.53-.11.8-.11-.48,0,0,0,.09,0,.59-.07,1.19-.12,1.78-.15a9.07,9.07,0,0,0,2.13-.32c.94-.27,2-1.16,1.87-2.25s-1.36-1.69-2.35-1.79a6.59,6.59,0,0,0-2.21.2c-.59.13-1.17.29-1.74.46-1,.28-2.1.63-2.27,1.79l.39-.66c-.5.41-1.52,1.1-1,1.86Z"/><path class="cls-2" d="M366.72,383.72a67.63,67.63,0,0,0,7.66.28q4.14-.24,8.3-.3c5.1-.08,10.21,0,15.31,0,10.44,0,20.84.31,31.27.5s20.84.18,31.27.17c5.12,0,10.2-.1,15.31-.38,5.32-.28,10.63-.63,16-.72,20.61-.36,41.28.14,61.9.54q15.63.3,31.26.43c10.42.1,20.84-.44,31.27-.53,23.4-.19,46.81-.09,70.2.65,5.27.17,5.28-8.36,0-8.2-20.83.61-41.71.84-62.54.56l-15.95-.19c-2.34,0-4.68,0-7-.12-2.77-.09-5.54-.44-8.3-.44-10.42,0-20.85.09-31.27.27s-20.84.33-31.27.42c-10.19.09-20.43.46-30.63.25-5.32-.12-10.63-.19-15.95-.49-5.09-.29-10.21-.75-15.31-.82-10.42-.13-20.86-.22-31.27-.05-11.7.18-23.4.58-35.1.54l-17.23,0c-3,0-6-.06-8.93-.25a74.12,74.12,0,0,0-8.94.19,3.87,3.87,0,0,0,0,7.73Z"/><path class="cls-2" d="M391.94,366.89c8.17.63,16.38.72,24.57.9s16.39.31,24.58.36c16.39.11,32.78.1,49.17.07,32.87-.05,65.73.35,98.6.68,9.22.09,18.46,0,27.68.29,4.53.16,9.07.24,13.58.73,2.34.26,4.7.45,7,.62l3.52.25a10,10,0,0,0,4.55-1.11c2.31-.91,4.37-2.85,4.25-5.57a6.11,6.11,0,0,0-4.25-5.58,10.24,10.24,0,0,0-4-1.14c-1,0-2,.14-3,.2-2.18.15-4.36.34-6.54.52-4,.34-8,.63-12.07.76-8.22.28-16.44.26-24.66.3q-24.64.12-49.31.4c-32.82.3-65.66.18-98.48-.14q-13.8-.14-27.59-.32c-9.19-.12-18.39-.49-27.58-.35a4.12,4.12,0,0,0-4.07,4.06,4.17,4.17,0,0,0,4.07,4.07Z"/><path class="cls-2" d="M361.05,380.65c2.06,0,3.79-2.15,5.14-3.54a41,41,0,0,0,3.64-4.25,53.15,53.15,0,0,0,5.14-8.41A3.4,3.4,0,0,0,369.1,361a6.06,6.06,0,0,0-1.07,2.9,7.78,7.78,0,0,0,.12,1.26c-.06-.42-.07-.45,0-.11a5.59,5.59,0,0,0,.12.82,2.3,2.3,0,0,0,2.78,1.58,5.28,5.28,0,0,0,2-.7,6,6,0,0,0,2-2.32L369.1,361a52.73,52.73,0,0,1-5,8.2l-1.41,1.9-.32.42c-.24.32.35-.44,0,0l-.75.93c-.51.61-1,1.21-1.55,1.8-.27.29-.55.57-.81.87a3.75,3.75,0,0,0-1.09,2.55,2.94,2.94,0,0,0,2.9,2.91Z"/><path class="cls-2" d="M362.43,375.52a5.21,5.21,0,0,0,3.63-.84,12.54,12.54,0,0,0,3.07-3.42c1.61-2.5,3.15-5,4.8-7.52a146.69,146.69,0,0,0,8.8-16.16L399,315c1.55-3.12,3.36-6.1,5-9.15s3.16-6.22,4.73-9.33c1.42-2.8.83-6.65-2.16-8.23-2.69-1.42-6.76-.86-8.23,2.16-2.61,5.4-5.15,10.81-7.54,16.32s-5.24,10.77-7.87,16.13c-5.28,10.73-10.82,21.37-15.57,32.35-1.41,3.26-2.48,6.63-3.75,9.95l-.94,2.47c-.09.24-.18.47-.28.71s-.1.23,0,0c-.08.17-.16.35-.25.52-.42.91-.51,1.18-.79,1.74a4.75,4.75,0,0,0-.46,1.31c0,.23-.06.45-.08.68,0-.16,0-.2-.05-.11a2,2,0,0,0,1.69,2.94Z"/><path class="cls-2" d="M384.48,322.53c2.83.16,4.62-2.81,6.14-4.8s3.33-4.25,5-6.45c3.27-4.42,6.52-8.85,9.56-13.42,6.08-9.1,11.71-18.5,17.64-27.69,1.69-2.61,3.39-5.2,5.1-7.8,2.28-3.48,5.29-8,3.85-12.32a6.94,6.94,0,0,0-3.05-4,7.76,7.76,0,0,0-5.11-.67c-4.06.61-6.55,5.12-8.5,8.34-1.48,2.44-2.82,5-4.21,7.46-2.76,4.91-5.57,9.79-8.31,14.72s-5.38,9.73-7.85,14.69c-2.61,5.23-4.95,10.56-7.2,15.95-1.17,2.8-2.23,5.62-3.32,8.45a15.66,15.66,0,0,0-1.31,4.78c0,.92.44,2.66,1.61,2.73Z"/><path class="cls-2" d="M412.33,264.14a19.19,19.19,0,0,0,1.85-1.64c.6-.6,1.4-.89,2-1.48s1-1.17,1.52-1.7,1.5-1,2.11-1.77l-6.2-4.79q-3.36,5.83-7,11.47a4.09,4.09,0,0,0,1.46,5.56,4.15,4.15,0,0,0,5.56-1.46l6.56-10a109.37,109.37,0,0,1,6.36-9.33c1.51-1.82,1.92-4.65,0-6.42a4.65,4.65,0,0,0-6.42,0c-2.1,1.85-3.93,4.07-5.84,6.11l7.58,5.85c3.75-6,7.87-11.82,11.6-17.86s7.26-12,10.81-18c7.1-12.09,13.4-24.6,20.08-36.92,1.78-3.29,3.51-6.6,5.11-10,1.09-2.31,2.18-4.65,3-7.05.31-.88.61-1.77.9-2.66a20.6,20.6,0,0,0,.8-5.3,9.52,9.52,0,0,0-6.94-9.11A9.74,9.74,0,0,0,456.58,152c-2.27,3.83-3.38,8.37-4.87,12.55-1.28,3.59-2.7,7.12-4.18,10.62l.92-2.16c-4.25,10.07-9.26,19.8-13.56,29.84s-8.72,20-13.36,29.95c-2.64,5.64-5,11.4-8,16.89a4.87,4.87,0,0,0,1.25,6.23c1.77,1.36,4.78,1.46,6.34-.38,2.07-2.44,4.31-4.81,6.14-7.44l-7.84-4.58A112.4,112.4,0,0,1,413.12,254l-6.52,10.28,7,4.1q3.6-5.68,6.85-11.58a4,4,0,0,0-1-5.1c-1.43-1.1-3.94-1.22-5.19.31a7.75,7.75,0,0,0-1.3,2.1l-.32.75c-.44.8-1,1.53-1.42,2.35s-.43,2-.78,2.74a11.32,11.32,0,0,0-.79,2.68,1.62,1.62,0,0,0,2.68,1.56Z"/><path class="cls-2" d="M462.78,145.53l-.4,0,2.9,10.7c2.31-1.51,3.86-3.81,5.52-6,1.24-1.62,2.45-3.26,3.62-4.94,2.33-3.34,4.6-6.73,6.83-10.14a130.57,130.57,0,0,0,11.86-23c1-2.5-.2-5.77-2-7.56a7.88,7.88,0,0,0-12.2,1.57c-1.53,2.61-1.16,5.22,0,7.85s4.22,3.72,6.71,3.84l-7.5-9.83c-.57,1.62-1.19,3.21-1.86,4.8L477,111c-2.79,6.58-6.38,12.74-9.56,19.13-1.57,3.16-3.14,6.32-4.84,9.4q-1.25,2.25-2.59,4.46a30.13,30.13,0,0,0-3.21,5.77,5.72,5.72,0,0,0,2.06,6c1.66,1.28,4.55,1.8,6.38.44l.34-.25c1.95-1.44,3.4-3.81,2.58-6.35-.73-2.26-2.9-4.29-5.42-4.13Z"/><path class="cls-2" d="M473.65,129.45l.45-.19c-.64,0-.42,0,.65-.13a2.8,2.8,0,0,0,1.24-.65q.52-.52.3-.18a7.76,7.76,0,0,0,2-2c.11-.14,1-1.22.59-.77.33-.33.72-.58,1-.9a18.44,18.44,0,0,0,1.66-2.23l1.95-2.74-2.09,2.1c.34-.24.7-.4,1.06-.61a8,8,0,0,0,2.62-2.78c.52-.8,1-1.62,1.52-2.43,1-1.63,2.05-3.24,3.11-4.84,2-3,4.12-6.09,6-9.22,3.89-6.41,7.32-13.07,10.69-19.77,6.67-13.28,12.9-26.73,18.79-40.37,3.61-8.38,7.06-16.8,10.28-25.34a9.13,9.13,0,0,0-.92-7,9.52,9.52,0,0,0-4.37-3.74,8.75,8.75,0,0,0-6-.46c-2.12.68-4.5,2.07-5.46,4.2q-5.08,11.34-10.11,22.71c-3.32,7.52-6.84,15-10.2,22.45-7,15.69-14.65,31.11-20.81,47.16l-1.19,3.08c-.22.58-.45,1.17-.68,1.75-.08.22-.17.44-.26.66-.32.86,0,0,.18-.37-.44,1-.89,2.07-1.34,3.1-.8,1.84-1.88,3.71-1.84,5.76a6.21,6.21,0,0,0,.25,1.89l-.13-2-.17.44c-.24.48-.38,1-.57,1.54s-.49,1.17-.66,1.76a5.15,5.15,0,0,0-.15.68c0,.19-.44,2-.11.94a13.05,13.05,0,0,0-.91,3.78c0,.25,0,.59,0,.85a8.85,8.85,0,0,0,.5,1.83c-.16-.59.05.66.07.8.24,1.4,1.88,1.65,2.93,1.19Z"/><path class="cls-2" d="M507.76,81.28a13.63,13.63,0,0,0-1.69,6.9c.05,2.94,3.87,4.76,6,2.48a31.11,31.11,0,0,0,3.21-4.58l-6.36-3.72A100.63,100.63,0,0,1,504,91.24c-1.71,2.73-3.07,5.64-4.51,8.52-3,5.9-5.9,11.81-8.75,17.76-5.67,11.83-11.24,23.71-16.58,35.7-5.43,12.19-10.64,24.48-15.51,36.9-1.15,2.93-2.26,5.88-3.4,8.82-.55,1.43-1.12,2.85-1.7,4.27a4.3,4.3,0,0,1-.27.62c-.12.28-.24.56-.37.84-.37.84-.75,1.67-1.15,2.5-2.7,5.56-6.7,10.4-9.17,16.06-1.35,3.09-2.4,6.28-3.57,9.44a76.83,76.83,0,0,1-3.38,7.9,30.52,30.52,0,0,1-2.31,4c-1,1.43-1.78,2.9-2.62,4.41-1.57,2.87-3.49,5.88-4,9.14-.27,1.62.06,4,1.67,4.95s4-.05,5.32-1.13c2.6-2.11,4.31-5.41,5.94-8.3a37.77,37.77,0,0,0,2.36-4.93c.25-.64.47-1.29.74-1.93s-.5.87.21-.38c.23-.4.41-.84.61-1.25,1.52-3.16,2.92-6.37,4.15-9.65.5-1.36,1-2.73,1.45-4.11.22-.64.45-1.29.68-1.93.16-.43.32-.86.49-1.29,0,0,.53-1.32.23-.6a58.8,58.8,0,0,1,4.58-8.15,100.61,100.61,0,0,0,8.49-17.27c4.81-12.27,9.5-24.11,14.59-35.78,5.22-11.95,10.67-23.79,16.26-35.57,2.84-6,5.73-11.9,8.56-17.86,2.9-6.13,6.22-12.19,8.55-18.55,1-2.79,2.32-5.56,3.67-8.35a3.68,3.68,0,1,0-6.36-3.72,32,32,0,0,0-2.71,4.89H513a5.53,5.53,0,0,1,.3-3.65c1.22-3.22-3.85-5.24-5.5-2.32Z"/><path class="cls-2" d="M428.85,251.56a21.31,21.31,0,0,0,2.63-.27c.29,0,1.35-.24.08,0s-.76.15,1.25-.15a5.15,5.15,0,0,0,2.32-1.22c2.14-1.65-.92.66.27-.21l1-.72c.33-.24.68-.43,1-.65a14.05,14.05,0,0,0,3.35-3.44l-1.35,1.75a35.13,35.13,0,0,0,5.53-7c1.2-2.06,2.2-4.22,3.2-6.38q3.48-7.54,6.39-15.34c3.45-9.25,6.08-18.76,9.15-28.13,1.77-5.39,3.73-10.71,5.93-15.93l-1,2.36c6.63-15.65,14.35-30.89,21.93-46.09q5.73-11.52,11.65-22.94c2-3.82,3.68-7.76,5.44-11.7s4-7.62,6-11.37q3.42-6.28,6.89-12.55a46.13,46.13,0,0,0,3.82-8,33.13,33.13,0,0,0,1-3.41,9.78,9.78,0,0,0-.78-6.59c-.14-.3-.29-.6-.44-.89a6.12,6.12,0,0,0-5.46-3.13,16.22,16.22,0,0,0-3.06.37,10.26,10.26,0,0,0-4.21,2.65,40.46,40.46,0,0,0-4.18,5,75.08,75.08,0,0,0-4.51,8q-4.32,8-8.55,16.08c-2.82,5.37-6.25,10.38-9,15.77s-5.64,10.93-8.41,16.42q-8.2,16.25-16.07,32.66c-5.49,11.46-10.91,23-15,35-4.34,12.72-7.76,25.72-13,38.13l1-2.37c-1.64,3.9-3.58,7.66-5.28,11.52a45.12,45.12,0,0,0-2.92,7.68,26.05,26.05,0,0,0-.83,4.84c-.05.93-.2,1.87-.3,2.8l.25-1.86a8.89,8.89,0,0,0-.1,4.07c.82,2,.92,2.18.28.59.05.15.1.3.14.45.31.83.67,1.64,1,2.45a3.36,3.36,0,0,0,3,1.72Z"/><path class="cls-2" d="M516.08,74.37l.37-.28a4.62,4.62,0,0,0-2.08,5.12c.57,2,1.12,4.06,1.67,6.09l8.61-3.63c-1.37-1.77-2.74-3.55-4.12-5.32s-4.67-1.7-6.38-.38c-2.06,1.6-2.22,4-1.25,6.27l.39.91s.3.75.14.32.14.46.17.56.14.47.2.7c.34,1.17.64,2.35,1,3.5.92,2.63,1.94,5.29,3.08,7.83q2.94,6.47,5.85,12.94.69,1.52,1.35,3.06c.13.29.25.58.38.88l-.16-.37c.27.57.49,1.18.72,1.77q1.34,3.31,2.4,6.73c1.36,4.37,2.54,8.77,4.21,13a134.58,134.58,0,0,0,6.44,13.3q3.28,6.26,6.23,12.66,1.45,3.18,2.83,6.39c.12.3.25.59.37.89,0,.06.34.8.11.24s.13.33.19.46.19.45.28.68c.5,1.19,1,2.38,1.49,3.58,1.81,4.4,3.59,8.81,5.39,13.21,4.25,10.4,8.13,20.95,12.51,31.29.86,2,3.75,2.59,5.56,1.82a4.42,4.42,0,0,0,2.58-5.25c-3.15-9.3-6.79-18.42-10.06-27.68-3.16-9-6.35-17.93-9.68-26.85q-2.67-7.15-5.73-14.16c-.91-2.09-1.85-4.16-2.79-6.23-.46-1-.91-2-1.36-3-.22-.5-.45-1-.67-1.51-.12-.28-.24-.57-.37-.86-.31-.71-.09-.18.09.22-.61-1.35-1.15-2.74-1.76-4.1l-.38-.86c-.06-.14-.35-.88,0-.1s0-.13-.13-.33c-.15-.36-.29-.73-.44-1.09-.83-2.14-1.5-4.34-2.16-6.53a125.74,125.74,0,0,0-5.35-14.2c-2.12-4.82-4.39-9.58-6.6-14.36-1.13-2.46-2.41-4.82-3.7-7.2s-3-4.67-4.21-7.2l-7.63,5.89,3.59,4.16c3.07,3.53,9.35-.21,7.87-4.58-.67-2-1.35-4-2-6a4.61,4.61,0,0,0-4.37-3.32l.41.08a3.16,3.16,0,0,0-3.07.81Z"/><path class="cls-2" d="M569.19,217a20.8,20.8,0,0,0,1.42,5.55c.58,1.7,1.18,3.4,1.74,5.11,1.18,3.6,2.51,7.14,3.84,10.7s2.73,7.11,4.11,10.65l2,5.1c.36.92.7,1.85,1.08,2.77a5.9,5.9,0,0,0,4.84,4l-1.84-1.42,1.4,3.16c.54,1.19.91,2.4,2.19,3a2.57,2.57,0,0,0,3.68-1.49c.53-1.32-.07-2.52-.5-3.76L592,257.09l-.31,2.37a5.76,5.76,0,0,0,1-5.63c-.33-.94-.75-1.85-1.12-2.77l-2-5.07c-1.46-3.62-2.92-7.23-4.43-10.83s-3.1-7.42-4.81-11.07c-1.59-3.39-3.19-7.51-6.24-9.83-2-1.49-4.9.53-4.82,2.76Z"/><path class="cls-2" d="M593.76,259.28l-.21-.2a3.6,3.6,0,0,0-6,3.5c1.54,5.25,3.54,10.34,5.45,15.46a4.09,4.09,0,0,0,3.84,2.92,4.15,4.15,0,0,0,3.84-2.92,5.58,5.58,0,0,0-.68-4.73c-.46-.72-1-1.38-1.48-2.09a12.11,12.11,0,0,1-.73-1.18c.14.29,0,0,0-.13s-.13-.4-.2-.59c-.28-.85-.54-1.71-.79-2.57-.48-1.66-1-3.29-1.53-4.94-.25-.79-.44-1.58-.73-2.35-.22-.58-.46-1.14-.71-1.71-.09-.18-.17-.37-.27-.55a2.44,2.44,0,0,0-.14-.28c-.19-.38-.13-.17.18.65.23-2.08-2.07-3.62-3.9-3.37a3.46,3.46,0,0,0-2.86,4.29c.36,1.91.79,3.75,1.32,5.62l7-2.94-1.33-2.93c-.21-.46-.41-.92-.63-1.37s-.77-1.77-.27-.46v2l0-.16a3.68,3.68,0,0,0-5.38-4.14,4.13,4.13,0,0,0-2.11,3.49,6.93,6.93,0,0,0,1,3.21c.66,1.43,1.41,2.82,2.11,4.22a3.82,3.82,0,0,0,7-2.94c-.69-2.13-1.49-4.18-2.38-6.24l-3.89,5-.3-.12-1.12-1.11a16.17,16.17,0,0,1,1.33,2.07c.2.36.38.72.55,1.09,0,0,.35.84.21.46A36.59,36.59,0,0,1,591,268c.33,1.53.84,3.05,1.1,4.59a21.94,21.94,0,0,0,.47,2.28c.12.41.24.82.38,1.22s.11.44,0-.05q0,.69,0-.12h7.68c-2.09-5.42-4.09-10.86-6.56-16.12l-1.29,4.92.25-.13a3.42,3.42,0,0,0,.69-5.32Z"/><path class="cls-2" d="M595.62,272.24c-1.31,2-.63,4.23-.23,6.4.14.73.16,1.84.44,2.87s.59,2.16.88,3.24l9-2.48a17.71,17.71,0,0,0-5-7.14,4.56,4.56,0,0,0-7.15,5.51c-.26-.56.09.39.14.52.1.31.21.62.31.92.23.7.47,1.39.7,2.09.47,1.39,1,2.77,1.45,4.15,1,2.85,2.08,5.67,3.25,8.46q3.4,8.18,6.75,16.36t6.7,16.65c1.2,3,2.46,6,3.76,9,.12.27.78,1.82.47,1,.27.68.51,1.38.77,2.06l1.62,4.38c2.37,6.39,3.75,13.2,6.65,19.38l-.79-2.91a.94.94,0,0,1,0,.44,5.23,5.23,0,0,0,2.16,4.31,5.73,5.73,0,0,0,4.78,1c2.92-.44,4.63-3.62,4.75-6.3.09-2.08-1.32-4.7-2.14-6.53-1.26-2.81-2.59-5.6-3.89-8.39-.14-.3-.28-.59-.41-.89.38.86,0-.12-.13-.33l-.83-2.06-1.84-4.56c-1.17-2.89-2.09-5.85-3.18-8.77-4.26-11.51-9.06-22.85-13.73-34.2-1.43-3.47-2.85-6.91-4.47-10.29-.78-1.62-1.54-3.24-2.36-4.83-.38-.72-.75-1.45-1.12-2.17-.19-.36-.38-.72-.56-1.09-.08-.14-.71-1.4-.51-.88l-7.61,4.42c.15.15,1.14,1.42.64.68.24.35.47.7.68,1.07.5.87,1,1.73,1.53,2.56,1.38,2,4.16,3.11,6.39,1.68a4.79,4.79,0,0,0,1.68-6.4l-1.42-2.75c-.49-1-1.28-1.86-1.7-2.6-1.06-1.88-2.2-3.82-4.44-4.41a1.88,1.88,0,0,0-2.07.85Z"/><path class="cls-2" d="M386.65,366.33c2.11-.53,3.05-2.13,4.05-3.91s1.93-3.45,2.89-5.17c1.94-3.47,3.55-7.05,5.19-10.68q4.88-10.85,9.74-21.72c6.4-14.33,12.71-28.71,19.16-43q2.74-6.1,5.48-12.2,1.32-2.94,2.63-5.88c1-2.27,2.31-4.58,2.83-7a4.2,4.2,0,0,0-7.64-3.22,28.87,28.87,0,0,0-2.53,5.36c-.86,2-1.71,4.05-2.56,6.07l-4.4,10.41q-4.65,11-9.43,21.88-9.42,21.6-19,43.14c-1.87,4.22-3.92,8.4-5.43,12.77l-2.1,6c-.77,2.23-1.64,4.25-.48,6.5a1.43,1.43,0,0,0,1.59.65Z"/><path class="cls-2" d="M425.69,261.61a14.29,14.29,0,0,1-2.18,1.75c-.71.62-1.4,1.21-2.05,1.89a53.57,53.57,0,0,0-4.37,5.25c-2.41,3.27-4.83,6.53-6.95,10-2,3.32-4.05,6.62-5.86,10.06s-3.74,7.17-5.59,10.77c-3.62,7.05-7.22,14.11-10.62,21.27s-6.58,14.24-10.15,21.22c-.93,1.82-1.93,3.57-3,5.3s-1.94,3.57-2.9,5.37-2,3.56-3.05,5.27c-.55.86-1.11,1.7-1.69,2.53a22.58,22.58,0,0,0-2.12,4.6l1-2.27a21.28,21.28,0,0,0-2,5.22,8.52,8.52,0,0,0,3,8.8,8.41,8.41,0,0,0,9.3.66c.56-.33,1.16-.59,1.72-.92a28.94,28.94,0,0,0,3.21-2.52l-1.94,1.5a16.38,16.38,0,0,0,3.7-3.34c.58-.74,1.11-1.48,1.62-2.27.72-1.09,1.4-2.2,2-3.33,1.27-2.2,2.42-4.47,3.51-6.77,1.38-2.91,2.19-5.88,3.28-8.87.93-2.57,1.88-5.14,2.87-7.69l-.87,2.07c4.59-10.76,9.29-21.47,14-32.18q3.48-7.92,7.05-15.8c1.4-3.08,2.73-6.17,4-9.32,1-2.67,2.22-5.32,3.11-8.05,1-3,2-6.05,2.92-9.08a37.23,37.23,0,0,0,1-4.66c.16-.84.2-1.68.3-2.53a14.1,14.1,0,0,1,.15-2.53c.39-1.3-1.49-2.57-2.41-1.4Z"/><path class="cls-2" d="M388.73,373.68a6.55,6.55,0,0,0-6.65-3.75l2.79,10.3c1.37-1,2.72-2,4.16-2.84s3-1.55,4.47-2.31a6.7,6.7,0,0,0,3.06-7.51,7,7,0,0,0-6.42-4.89c-1-.07-2-.13-3-.18a7.1,7.1,0,0,0-6.16,3.54c-1.4,2.39-1.07,4.8,0,7.21,2.31,5.21,8.68,6.28,13.72,6.31a69.27,69.27,0,0,1,7.06.18l1.76.18a5.52,5.52,0,0,1,1.18.11l-1-.14a9.07,9.07,0,0,0,2.79.28c.78,0,1.57,0,2.35,0,9.57-.18,19.11-1.66,28.66-2.32s19.1.32,28.66,1.17,19.22,1.36,28.87,1.48c19.16.24,38.34-.5,57.49-.95l58.24-1.38c10.9-.25,21.79-.36,32.69-.42l16-.09c2.77,0,5.54,0,8.32-.11a46.78,46.78,0,0,1,6.8.08l-2.37-.32a14.6,14.6,0,0,1,3.29.9l-2.12-.89c.31.15.6.35.92.49.76.34-1.73-1.5-.63-.46,3.32,3.16,9.12,3.55,12.37,0s3.2-8.66,0-12.37c-3.72-4.31-9.6-5.4-15-5.37-4.85,0-9.7.29-14.55.5l-29.71,1.31c-19.79.87-39.63,1.06-59.43,1.57-19.58.51-39.16,1.18-58.75,1.43-9.85.13-19.71.07-29.56-.44s-19.5-1.71-29.28-2.22a154.57,154.57,0,0,0-16.39-.4c-5.46.3-10.9.9-16.35,1.35-2.74.22-5.47.44-8.21.7-3.26.31-6.43.85-9.66,1.38-1.86.31,1.59.06-.33,0-.78,0-1.58,0-2.36.06-1.18,0-2.36.08-3.54,0-.4,0-.83-.1-1.22-.09,1.28.2,1.54.22.77.07a6.53,6.53,0,0,1-.76-.2l1,.45a4.13,4.13,0,0,1-.65-.36c1,.77,1.2.92.61.45a3.8,3.8,0,0,1-.52-.54L389,376.53c1-.25,1.95-.5,2.91-.78l-6.47-11.12c-1.13,1.22-2.22,2.52-3.41,3.68s-2.57,2.17-3.85,3.24a5.55,5.55,0,0,0-.87,6.7,5.86,5.86,0,0,0,6.24,2.54,6.12,6.12,0,0,0,5.19-4.24,3.43,3.43,0,0,0,0-2.87Z"/><path class="cls-2" d="M524.63,23.54c-.12,2.43-.24,4.86-.34,7.29l.34-2.59a17.36,17.36,0,0,0-.26,1.76,7.55,7.55,0,0,0,.18,3.94c.08.48.16,1,.25,1.46.15.89.3,1.78.46,2.66q.47,2.67,1,5.34,1,5.46,2,10.89,2.1,10.89,4.48,21.71l19.06-5.25-6.15-26.24-18.07,7.62.18.43-1-2.36c4.33,10.36,6.63,21.37,8.83,32.34l18.07-7.62a219.26,219.26,0,0,0-10.16-20.71c-1.8-3.21-3.59-6.52-5.69-9.54a21.36,21.36,0,0,0-6.21-6.28c-3-1.91-7.46-2.71-10.87-1.41-2.36.9-4.67,2.2-5.91,4.55a10.09,10.09,0,0,0-1,7.62c3.88,12.55,7.9,25.05,13.54,36.95a9.81,9.81,0,0,0,5.91,4.54,10.23,10.23,0,0,0,6.44-.49,9.51,9.51,0,0,0,4.73-4.05,11,11,0,0,0,1-7.62,164.56,164.56,0,0,0-4.59-17.92q-1.44-4.53-3.14-9c-1.65-4.3-3.45-8.56-7.78-10.82a12,12,0,0,0-17.21,7.57c-1.08,3.95-.11,8,.66,11.86a170.26,170.26,0,0,0,4.5,17.65A195.29,195.29,0,0,0,526,99L543.1,89a190.23,190.23,0,0,1-12.68-23.68l-17.1,10A60.94,60.94,0,0,1,521,88.81l-1-2.37c4.27,10.15,6.56,21,9.94,31.41a258.72,258.72,0,0,0,15.2,36c3.15,6.29,6.44,12.51,9.73,18.73,2.31,4.36,8,5.88,12.37,4.05a9.42,9.42,0,0,0,4.73-4.05c1.15-2.19,2-5.24,1-7.63-3.69-8.86-7.37-17.73-10.19-26.91a175.23,175.23,0,0,1-6.1-27.82l.35,2.63a177.35,177.35,0,0,1-1.55-25.12l-19.45,2.63c5.52,18.66,10.9,37.42,17.39,55.77,2.08,5.88,4.57,11.38,8.87,16a9.89,9.89,0,0,0,10.82,2,9.36,9.36,0,0,0,4-3,9.17,9.17,0,0,0,2.13-6,30.11,30.11,0,0,0-1.1-6.46,55,55,0,0,0-2.42-6c-1.23-2.75-2.56-5.45-3.74-8.23l1,2.37c-6.56-15.6-10.32-32.16-13.52-48.72-.88-4.55-1.85-9.1-2.51-13.68L557.3,77a21.58,21.58,0,0,1-.13-5.62L556.81,74a12.35,12.35,0,0,1,.7-2.62l-1,2.36a12.26,12.26,0,0,1,.73-1.39L539.12,70c1.77,8.17,5.62,15.89,9.08,23.44,3.28,7.15,6.72,14.22,10,21.36,1.86,4,3.67,8.06,5.39,12.14l-1-2.37a196,196,0,0,1,8.67,24.89c2.34,8.72,4.11,17.57,5.87,26.41l18.13-7.64a261.16,261.16,0,0,1-17.23-33.68l1,2.37q-3.67-8.73-6.72-17.7a10.56,10.56,0,0,0-4.56-5.93,9.93,9.93,0,0,0-13.58,3.56,10,10,0,0,0-1,7.65,272.74,272.74,0,0,0,25,53.74,10,10,0,0,0,12.39,4.06,9.47,9.47,0,0,0,4.74-4.06,10.94,10.94,0,0,0,1-7.64c-2.64-13.21-5.33-26.42-9.81-39.15S576.09,106.27,570.28,94c-3.13-6.6-6.25-13.21-9.11-19.93l1,2.37a67.25,67.25,0,0,1-3.93-11.72,10,10,0,0,0-18.12-2.37c-4,6.6-3,14-1.61,21.21,1,5.67,2.11,11.35,3.28,17a247.54,247.54,0,0,0,8.92,33.34c2.38,6.68,5.43,13,8.25,19.53L558,151a23.64,23.64,0,0,1,1.73,5.82l-.35-2.64c0,.29.06.58.08.87l16.92-7c-.47-.51-.92-1-1.35-1.57l1.55,2a31,31,0,0,1-3.63-6.51l1,2.37c-1.87-4.54-3.31-9.28-4.84-13.94q-2.46-7.52-4.79-15.07c-3.12-10.07-6.12-20.18-9.11-30.28a9.92,9.92,0,0,0-19.46,2.63A183.83,183.83,0,0,0,547,153c2.14,5.79,4.52,11.49,6.89,17.18l18.1-7.63c-6.36-12-12.72-24.05-18-36.57l1,2.36a219.68,219.68,0,0,1-8.8-25.44c-2.47-8.71-5-17.32-8.71-25.6a59.34,59.34,0,0,0-7.05-12c-1.65-2.14-3.2-3.8-5.92-4.55a10.09,10.09,0,0,0-7.62,1,9.94,9.94,0,0,0-4.55,5.91L512,70.32a10,10,0,0,0,1.35,5A191.63,191.63,0,0,0,526,99a10.39,10.39,0,0,0,5.92,4.54,10.08,10.08,0,0,0,7.62-1,10,10,0,0,0,4.55-5.92l.35-2.63a9.74,9.74,0,0,0-1.35-5c-.57-1.28-1.13-2.57-1.68-3.86l1,2.37A160.55,160.55,0,0,1,531.72,51l.36,2.63a8.37,8.37,0,0,1,0-2.18l-.35,2.63a4.82,4.82,0,0,1,.22-.85l-1,2.36a3.33,3.33,0,0,1,.42-.7l-1.55,2,.18-.19-2,1.55a2.21,2.21,0,0,1,.45-.3l-2.36,1a2.09,2.09,0,0,1,.59-.17L524,59.1a1.85,1.85,0,0,1,.62,0L522,58.77l.29.09-2.36-1a3.22,3.22,0,0,1,.55.29l-2-1.54a5.45,5.45,0,0,1,1,1l-1.54-2a9.33,9.33,0,0,1,.89,1.57l-1-2.37a149.9,149.9,0,0,1,8.56,29l18.08-7.63c-.88-1.84-1.71-3.71-2.51-5.59l1,2.36c-4-9.44-7-19.22-10-29L526,56.05a3.49,3.49,0,0,1,.67-.21L524,56.2a4.1,4.1,0,0,1,1,0l-2.63-.35a5.31,5.31,0,0,1,1,.29l-2.36-1a7.37,7.37,0,0,1,1.22.77l-2-1.55A12.17,12.17,0,0,1,521.81,56l-1.55-2a70.08,70.08,0,0,1,4.4,7.11Q526.91,65,529,69q4.13,7.82,7.59,15.94c.86,2,3.83,4.08,5.91,4.55a10.21,10.21,0,0,0,6.43-.5,9.42,9.42,0,0,0,4.73-4,10.9,10.9,0,0,0,1-7.61c-1.13-5.65-2.28-11.3-3.73-16.88a129.47,129.47,0,0,0-6.28-18.26c-.86-2-3.84-4.07-5.91-4.54a10.13,10.13,0,0,0-6.43.5,9.93,9.93,0,0,0-5.73,11.66L532.73,76c1.18,5,7.21,8.51,12.16,6.91a10.12,10.12,0,0,0,6.9-12.16Q549.45,60,547.35,49.28q-1-5.33-2-10.65c-.33-1.78-.64-3.56-1-5.33-.45-2.58-.68-5.06-2-7.38l1,2.32c-.91-2.29-1.8-4.58-2.69-6.87a8.63,8.63,0,0,0-3.76-4.88,8.34,8.34,0,0,0-5.2-1,8.21,8.21,0,0,0-7.08,8Z"/><path class="cls-2" d="M569.69,148.35a18.21,18.21,0,0,0-.71,3.57c-.06.48-.11,1-.19,1.43-.07.64-.08.64,0,0a8.71,8.71,0,0,0-.21,1.9,9.62,9.62,0,0,1-.14,1.43c.13-1.06.12-1,0,.09a3.8,3.8,0,0,0-.1,1.34c-.06,1.12-.06,2.23-.08,3.34a41.48,41.48,0,0,0,.51,6.2c.37,2.87.76,5.72,1.35,8.55.91,4.28,2.35,8.48,3.57,12.68l3.77,12.88,18.05-7.61c-.8-1.54-1.54-3.13-2.42-4.63s-1.92-2.92-2.89-4.36c-1.94-2.9-3.79-5.82-5.55-8.84s-3.3-5.93-4.88-9-3.41-6.28-4.92-9.5l.84,2c-.14-.47-.28-.93-.4-1.41l.3,2.29c0-.44,0-.88,0-1.32-.27-5.57-4.81-9.87-10.5-9.11a9.28,9.28,0,0,0-7.71,11.57c1.16,4.61,3.12,9,4.75,13.47s3.21,8.67,4.71,13,2.9,8.78,4.23,13.2c.69,2.29,1.34,4.59,2,6.89a14.15,14.15,0,0,0,3.2,6.18,11.44,11.44,0,0,0,8,3.39,8.83,8.83,0,0,0,7.15-3.59,9.11,9.11,0,0,0,1.63-7.93c-.06-.27-.13-.54-.18-.81l.34,2.55a15.5,15.5,0,0,0-1.61-5.86l1,2.36c-.75-2-1.17-4.12-1.76-6.14s-1.17-4-1.78-6q-1.9-6.16-4-12.26c-1.41-4.07-2.86-8.13-4.48-12.11-1.87-4.61-3.58-9.35-6.21-13.57L559.71,166c1,.74,1.91,1.5,2.91,2.19l-1.74-1.34c.31.36.6.73.9,1.11l-1.3-1.68c2.14,3.73,4,7.65,6,11.47s3.78,7.76,5.6,11.69l-.88-2.08c1,2.51,1.94,5,2.91,7.52a92.78,92.78,0,0,0,4.31,9.27,10,10,0,0,0,5.9,4.54,10.27,10.27,0,0,0,6.43-.5,9.85,9.85,0,0,0,5.72-11.65l-3.79-12.88c-1.24-4.19-2.3-8.51-3.85-12.6-1.73-4.56-3.61-9.36-6.32-13.45-.62-.94-1.24-1.88-1.89-2.8s-1.61-2-2.38-3.08c.92,1.24-.67-.85-1-1.19s-.66-.78-1-1.17a16.35,16.35,0,0,0-2.15-2.17,2.69,2.69,0,0,0-4.43,1.17Z"/><path class="cls-2" d="M583.67,208.15a7.17,7.17,0,0,0-1.78,3c-.2.71.26-.54,0,0s-.44,1-.59,1.47a11.52,11.52,0,0,0-.28,2.93,34.57,34.57,0,0,0,.57,5.36c.21,1.55.41,3.09.73,4.61.61,2.86,1.17,5.76,2,8.55,1.16,3.76,2.36,7.92,6.17,9.84,2.9,1.46,6.79,1.37,9.13-1.18a7.73,7.73,0,0,0,1.18-9.13c-2.57-4.22-5.34-8.33-8-12.49s-5.69-8.18-7.8-12.62l.8,1.9-.16-.93.3,2.22a3.86,3.86,0,0,1,0-.83h-17.9c-.15,3.7,2,6.38,4.13,9.08L570.76,218a49.89,49.89,0,0,1,6.36,10.83l-1-2.36a96.11,96.11,0,0,1,3.71,11.84c1.06,3.95,2.22,7.86,3.54,11.73,2.73,8,6,15.7,9.21,23.45,1,2.5,2.13,4.5,4.56,5.93a10.17,10.17,0,0,0,7.65,1,10.05,10.05,0,0,0,5.93-4.56c1.15-2.18,2-5.25,1-7.64-3.5-8.33-7-16.67-9.85-25.25-3-9.06-4.65-18.61-9.1-27.15a46.86,46.86,0,0,0-5-7.39c-2.73-3.44-5.94-6.4-10.63-6.51a9,9,0,0,0-2.38,17.58l.36.11-2.07-.87a7.34,7.34,0,0,1,1.15.67l-1.61-1.25.31.37-1.23-1.6c5.87,7.77,10.69,16.3,16.24,24.3l10.3-10.31c-.68-.32-.46-.11.66.64.74,1,.95,1.32.63.83s-.39-.74-.56-1.13l.75,1.78c-1-2.51-2-5-3-7.51-.13-.29-.26-.59-.38-.88.39.93.44,1,.14.32l-.57-1.36c-.59-1.43-1.13-2.88-1.76-4.3a66,66,0,0,0-2.8-6,9.25,9.25,0,0,0-3-3.63c-1-.56.83,1.3.38.39-.34-.68-.13-.37-.09.14a2.89,2.89,0,0,0-4.87-2Z"/><path class="cls-2" d="M594.44,277.57c2.4,4.73,4.61,9.55,6.67,14.43l-1-2.37c8.73,20.71,14.86,42.38,23,63.31,1.41,3.62,2.9,7.21,4.42,10.78,1.72,4,3.16,8.75,7.36,10.88a9.31,9.31,0,0,0,8.21.47,8.87,8.87,0,0,0,5.33-6,13.61,13.61,0,0,0,.51-3.27,11.51,11.51,0,0,0-1.47-5.38c-.34-.77-.69-1.52-1-2.28q-1.07-2.4-2.08-4.8l1,2.35c-9.29-22.12-15.6-45.33-24.58-67.57-2.81-7-5.81-13.88-9.21-20.59a9.92,9.92,0,1,0-17.13,10Z"/><path class="cls-2" d="M585.13,177.85l.16.26-.68-5.26c-.07.47-.27.89-.37,1.35a14.42,14.42,0,0,0-.32,3.83,18.63,18.63,0,0,0,2.6,7.94q2.13,4,4.13,8.05c2.65,5.41,5.23,10.85,7.59,16.41l-1-2.37a317.51,317.51,0,0,1,11,31.18c3.27,10.78,6.49,21.57,10.54,32.09,4.26,11.1,9.11,22,14,32.77q7.16,15.7,14.33,31.4l16.37,35.84,15.58-12a10.63,10.63,0,0,0-8.17-4,10.19,10.19,0,0,0-6.7,2.65,10.38,10.38,0,0,0-2.9,6.95,9.88,9.88,0,0,0,1.33,5.36,25.26,25.26,0,0,0,2.41,3.06,9.82,9.82,0,0,0,7,2.9,10.27,10.27,0,0,0,6-2.13,9.4,9.4,0,0,0,3.55-5.15l.36-2.64a9.85,9.85,0,0,0-1.36-5q-15.55-34.06-31.1-68.12c-2.83-6.23-5.63-12.48-8.3-18.78l1,2.37c-3-7.12-5.81-14.32-8.28-21.64-2.41-7.17-4.54-14.42-6.74-21.66a311,311,0,0,0-16.6-43.66c-1.8-3.76-3.75-7.44-5.79-11.08a40.3,40.3,0,0,0-4.42-6.66,12.58,12.58,0,0,0-3.9-2.9,9.21,9.21,0,0,0-2.64-1,5.86,5.86,0,0,0-.58-.1q-3.48-.44-.57-.13a6.37,6.37,0,0,0-3.57,0,6.65,6.65,0,0,0-3.49,2.4,6.74,6.74,0,0,0-.53,7.47Z"/><path class="cls-2" d="M661.05,366.9a3.05,3.05,0,0,1,.17-.51l-.91,2.15a11.09,11.09,0,0,0,1.39-5.22,11.79,11.79,0,0,0-1.76-5.64c-.64-1.11-1.26-2.24-1.88-3.36-1.22-2.18-2.58-4.29-3.81-6.46a128.18,128.18,0,0,1-6.68-13.37l1,2.36c-3.76-9-5.72-18.37-7.33-27.94a231,231,0,0,0-6.3-28.82,454.69,454.69,0,0,0-21.4-56.29q-6.75-14.91-14.55-29.31c-2.47-4.57-9.17-6.4-13.57-3.56a10.12,10.12,0,0,0-3.56,13.57q10.7,19.74,19.43,40.45l-1-2.37q5.26,12.51,9.79,25.29c3,8.56,5.92,17.21,8.15,26s3.39,17.87,5.08,26.82a114.52,114.52,0,0,0,8.84,27.48c2.05,4.38,4.38,8.63,6.85,12.79,1.29,2.16,2.67,4.22,4.12,6.27a16.25,16.25,0,0,0,3.14,3.63,9.78,9.78,0,0,0,6.17,2.14c3.74-.18,7.7-2.15,8.62-6.12Z"/><path class="cls-2" d="M587.23,189.19a6.29,6.29,0,0,0-.68,3.67,32.82,32.82,0,0,0,.7,4.62c.64,2.88,1.4,5.72,2.2,8.57,1.56,5.61,3.19,11.19,4.84,16.76s3.28,11.17,5.18,16.66,3.85,11,5.84,16.47,3.9,11,5.76,16.47c.95,2.8,1.89,5.59,2.84,8.37s2.12,5.36,3.2,8c4.38,10.7,8.89,21.34,14.26,31.58a175.65,175.65,0,0,0,9.26,15.79c3.09,4.67,6.6,9.11,8.84,14.28l-1-2.37a23.61,23.61,0,0,1,1.66,5.82l-.36-2.64c.07.55.12,1.09.15,1.63l16.93-7a14,14,0,0,0-2.68-2.1,9.91,9.91,0,0,0-11.89,1.53,10.08,10.08,0,0,0-1.54,11.89,14.78,14.78,0,0,0,2.08,2.71,10,10,0,0,0,10.84,2c3.45-1.46,6.32-5.14,6.1-9.07-.37-6.78-2.87-12.94-6.5-18.62-2.91-4.56-6.12-8.9-8.93-13.53-5.94-9.81-10.79-20.21-15.48-30.66-2.42-5.4-4.58-10.94-7.13-16.27-2.64-5.54-5.57-10.94-8.12-16.51-5.1-11.17-10-22.45-15.41-33.45-3-6.14-6-12.3-9.1-18.42-1.53-3.06-3-6.16-4.65-9.15a37.45,37.45,0,0,0-2.66-4.37,20.21,20.21,0,0,0-1.53-2,5.88,5.88,0,0,0-2-1.09.85.85,0,0,0-1,.39Z"/><path class="cls-2" d="M601.68,219.27c-.37-1.24-.78-2.47-1.1-3.71a35.45,35.45,0,0,1-.61-3.85c-.38-2.57-1-5.1-1.37-7.66-.37-2.33-.54-4.66-.71-7-.21-2.89-.64-5.74-1-8.6-.71-5.15-1.77-10.25-2.76-15.34-.5-2.56-1.05-5.07-1.67-7.6s-1.09-5.08-1.88-7.54c-1.37-4.25-3.27-8.69-8-10.13a7.33,7.33,0,0,0-8,2.41,8.49,8.49,0,0,0-1.54,3.13,13,13,0,0,0,.07,5.3l-.29-2.19c1,9.06,4.35,17.73,7.76,26.13q2.74,6.75,6.13,13.19c2,3.79,4.51,7.26,6.58,11,1.15,2.08,2.17,4.24,3.4,6.28.65,1.09,1.4,2.15,2,3.29s1,2.35,1.55,3.52c.38.85,1.76.24,1.5-.63Z"/></g><g id="Layer_4" data-name="Layer 4"><path class="cls-1" d="M3,6.25H275.84c3.68,0,7.37.07,11.06,0h.48c3.86,0,3.87-6,0-6H14.54C10.86.25,7.17.19,3.48.25c-.16,0-.32,0-.48,0-3.86,0-3.87,6,0,6Z"/><path class="cls-1" d="M6,12.75V3.25a3,3,0,0,0-3-3,3.06,3.06,0,0,0-3,3v9.5a3,3,0,0,0,3,3,3,3,0,0,0,3-3Z"/><path class="cls-1" d="M154,198.11l-4-5-10.86-13.67-16-20.15-19.5-24.56-21.44-27L60.54,80.44,40.44,55.12l-17-21.41L11.17,18.26c-1.93-2.44-3.79-5-5.8-7.32a3.76,3.76,0,0,1-.25-.31c-1-1.27-3.19-1.05-4.24,0a3.08,3.08,0,0,0,0,4.25l4,5L15.73,33.58l16,20.14,19.5,24.57,21.44,27L94.3,132.54l20.1,25.33,17,21.41,12.27,15.45c1.93,2.43,3.79,4.94,5.8,7.31.09.1.17.21.25.31,1,1.27,3.19,1.05,4.24,0a3.07,3.07,0,0,0,0-4.24Z"/><path class="cls-1" d="M5.12,373.36l4-4.58L20,356.32l16-18.44,19.49-22.39,21.43-24.62,21.55-24.76,20.17-23.17,17-19.58,12.25-14.08c1.93-2.21,3.87-4.41,5.78-6.64l.25-.29a3.07,3.07,0,0,0,0-4.24,3,3,0,0,0-4.24,0l-4,4.58-10.84,12.46-16,18.43L99.35,256,77.92,280.6,56.37,305.36,36.2,328.53l-17,19.58L6.91,362.19C5,364.4,3,366.6,1.13,368.83l-.25.29a3.08,3.08,0,0,0,0,4.24,3,3,0,0,0,4.24,0Z"/><path class="cls-1" d="M6,383.91V371.24a3,3,0,0,0-3-3,3,3,0,0,0-3,3v12.67a3,3,0,0,0,3,3,3.06,3.06,0,0,0,3-3Z"/><path class="cls-1" d="M299.41,378.37l-8,.07-21.5.18-32,.28-38.78.33-42.76.36-42.87.37-40.25.35-33.79.28L15,380.8c-3.84,0-7.68,0-11.52.1H3c-3.86,0-3.87,6,0,6l8-.07,21.5-.19,32-.27,38.78-.33,42.76-.37,42.88-.36,40.25-.35,33.79-.29,24.46-.21c3.83,0,7.68,0,11.51-.09h.5c3.86,0,3.87-6,0-6Z"/><path class="cls-1" d="M310.35,267.37,309,278.75,305.63,306l-4,32.89-3.49,28.53L297,376.71c-.18,1.48-.45,3-.54,4.47l0,.19c-.19,1.61,1.52,3,3,3a3.06,3.06,0,0,0,3-3l1.4-11.38,3.32-27.21,4-32.89,3.49-28.53,1.14-9.34c.18-1.47.46-3,.54-4.46l0-.19c.2-1.61-1.52-3-3-3a3.07,3.07,0,0,0-3,3Z"/><path class="cls-1" d="M302.42,268.36l8.85,1.66,1.28.24a3.25,3.25,0,0,0,2.31-.3,3.08,3.08,0,0,0,1.38-1.8,3,3,0,0,0-2.09-3.69l-8.86-1.66-1.28-.24a3.21,3.21,0,0,0-2.31.31,3,3,0,0,0,.72,5.48Z"/><path class="cls-1" d="M69.72,331.56l3.53-4.15,9.52-11.24,14.09-16.59,17.25-20.34,18.82-22.19,19-22.4,17.8-21,15-17.65,10.81-12.74c1.7-2,3.42-4,5.1-6l.22-.26a3.09,3.09,0,0,0,0-4.25,3,3,0,0,0-4.24,0l-3.52,4.15-9.53,11.24-14.08,16.6L152.2,225.09l-18.82,22.19-19,22.4-17.79,21-15,17.65L70.8,321.05c-1.7,2-3.41,4-5.1,6-.07.08-.14.17-.22.25a3.09,3.09,0,0,0,0,4.25,3,3,0,0,0,4.24,0Z"/><path class="cls-1" d="M80.68,27.54l3.11,4L92.2,42.4l12.5,16.11,15.17,19.57,16.7,21.53,16.85,21.74,15.65,20.18,13.28,17.13,9.51,12.26c1.51,1.94,2.94,4,4.53,5.85l.2.25c1,1.28,3.2,1,4.24,0a3.08,3.08,0,0,0,0-4.25l-3.11-4-8.41-10.84-12.49-16.11-15.18-19.57L145,100.7,128.09,79,112.44,58.79,99.16,41.66,89.65,29.39c-1.51-1.94-2.94-4-4.53-5.84-.07-.08-.13-.17-.19-.25-1-1.28-3.2-1-4.25,0a3.09,3.09,0,0,0,0,4.24Z"/><path class="cls-1" d="M299.25,97.62l-.88-9.37-2.12-22.51-2.56-27.25-2.21-23.57c-.36-3.83-.68-7.67-1.08-11.5,0,0,0-.11,0-.17a3.08,3.08,0,0,0-3-3,3,3,0,0,0-3,3l.88,9.38,2.12,22.51,2.56,27.25L292.15,86c.36,3.83.68,7.67,1.08,11.5,0,.05,0,.11,0,.16a3.08,3.08,0,0,0,3,3,3,3,0,0,0,3-3Z"/><path class="cls-1" d="M286.38,100l7.75.56,1.12.07a3,3,0,0,0,3-3,3.08,3.08,0,0,0-3-3l-7.75-.55L286.38,94a3,3,0,0,0-3,3,3.08,3.08,0,0,0,3,3Z"/><path class="cls-1" d="M83.39,27.64l50.83,1.21,51.07,1.21c16.49.39,33.13.44,49.47,3,12.4,1.95,25.78,5.46,34.45,15,4.65,5.14,7.05,11.85,8.79,18.5a177.5,177.5,0,0,1,4.49,23.55q.38,3.11.65,6.24a3.09,3.09,0,0,0,3,3,3,3,0,0,0,3-3,199,199,0,0,0-3.9-25.35c-1.66-7.47-3.62-15.13-7.67-21.7-7.32-11.89-20.69-17.79-33.83-20.7-16.28-3.6-33.17-4-49.77-4.39l-52-1.23L89.87,21.8l-6.48-.16c-3.86-.09-3.86,5.91,0,6Z"/><path class="cls-1" d="M67.73,332.25l56.84.42,56.59.42c18.66.13,37.55,1,56.08-1.73,15.79-2.32,31.47-7.89,43.65-18.49,11.94-10.39,18.78-25,22.91-40,.52-1.87,1-3.75,1.45-5.64.9-3.75-4.88-5.35-5.79-1.59-3.49,14.47-8.73,28.77-19.27,39.65s-25.1,16.74-39.75,19.5c-17.83,3.36-36.25,2.49-54.3,2.35l-55.59-.41-55.84-.41-7-.05c-3.86,0-3.86,6,0,6Z"/><path class="cls-1" d="M356.82,385.17,361.29,375l12.16-27.69,18-41,21.95-50,24.05-54.74,24.27-55.26,22.64-51.53,19.12-43.54L517.23,20q3.25-7.42,6.52-14.84c.09-.21.18-.42.28-.63A3.11,3.11,0,0,0,523,.41c-1.27-.74-3.45-.41-4.1,1.08l-4.47,10.17L502.21,39.35l-18,41-22,50-24,54.74L414,240.28l-22.63,51.53-19.13,43.54-13.76,31.32q-3.26,7.43-6.51,14.84c-.1.21-.19.42-.28.63a3.11,3.11,0,0,0,1.07,4.11c1.28.74,3.45.41,4.11-1.08Z"/><path class="cls-1" d="M694.7,382.86l-4.24-10.23L679,345l-17-41.09-20.64-49.81-22.74-54.9L595.8,144.14,574.39,92.46l-18-43.52-13-31.29q-3.07-7.41-6.14-14.81c-.09-.21-.18-.42-.26-.63a3.1,3.1,0,0,0-3.69-2.1c-1.42.39-2.72,2.19-2.1,3.69L535.45,14l11.44,27.62,17,41.09,20.64,49.81,22.75,54.9,22.81,55.07,21.41,51.68,18,43.52,13,31.29q3.06,7.41,6.14,14.81c.08.21.17.42.26.63a3.1,3.1,0,0,0,3.69,2.1c1.41-.39,2.72-2.19,2.09-3.69Z"/><path class="cls-1" d="M521.44,6H534.1a3,3,0,0,0,3-3,3,3,0,0,0-3-3H521.44a3,3,0,0,0-3,3,3,3,0,0,0,3,3Z"/><path class="cls-1" d="M354.23,386.66H678.11c4.37,0,8.75.07,13.13,0,.19,0,.38,0,.57,0,3.86,0,3.87-6,0-6H367.93c-4.37,0-8.75-.08-13.13,0h-.57c-3.86,0-3.87,6,0,6Z"/><path class="cls-1" d="M392.23,362.59H615.82c3,0,6.07.05,9.1,0h.39c3.86,0,3.86-6,0-6H401.72c-3,0-6.07-.06-9.11,0h-.38c-3.86,0-3.87,6,0,6Z"/><path class="cls-1" d="M511.25,85.09,508,92.44l-8.84,19.84L486,141.69l-16,35.87-17.44,39.16-17.67,39.66-16.47,37L404.6,324.5l-10,22.53-4.72,10.59-.2.45a3.1,3.1,0,0,0,1.08,4.11c1.27.75,3.44.41,4.1-1.08l3.27-7.35,8.84-19.84,13.1-29.4,16-35.87,17.45-39.17,17.66-39.65,16.47-37,13.88-31.15,10-22.53c1.57-3.53,3.15-7.06,4.71-10.59l.21-.46a3.09,3.09,0,0,0-1.08-4.1c-1.28-.75-3.44-.41-4.1,1.07Z"/><path class="cls-1" d="M628.2,358.79l-3-7.32-8.13-19.92-12-29.34-14.62-35.79L574.42,227.1l-16.2-39.69-15.06-36.88-12.73-31.18-9.16-22.42q-2.17-5.34-4.36-10.66l-.18-.46A3.09,3.09,0,0,0,513,83.72c-1.42.39-2.71,2.18-2.1,3.69l3,7.31,8.13,19.92,12,29.35,14.61,35.79,16.06,39.32,16.21,39.69L596,295.67l12.73,31.17,9.16,22.43c1.45,3.55,2.89,7.11,4.35,10.66l.18.46a3.11,3.11,0,0,0,3.7,2.09c1.42-.39,2.71-2.18,2.09-3.69Z"/></g></g></svg>