<svg xmlns="http://www.w3.org/2000/svg" viewBox="0 0 710.9 275.1"><g fill="#d68a27"><path d="M380.8 109.7c-.5-2.7-2.3-4.8-4.5-6.4l1.8 2.3a4.8 4.8 0 0 0-3.3-3.2l-1.7-.5a16.3 16.3 0 0 0-3.3-.5 7.5 7.5 0 0 0-.9 0h-.8c1.4.2 1.1.2-.8 0l-1.6.1-.7.3a6 6 0 0 1-1 .3 35.2 35.2 0 0 0-3.4 1.4l-1.6.8-.4.2q2.5-1.1-.6.2a11.5 11.5 0 0 0-1.8 1.4q2.1-1.6-.6.5a28.3 28.3 0 0 0-10.2 17.2 28.7 28.7 0 0 0 .3 12.5 20.6 20.6 0 0 0 5.8 10 17.3 17.3 0 0 0 15.6 4.2c4-.6 7.6-2.8 10.7-5.2a65 65 0 0 0 14.5-17 91.3 91.3 0 0 0 9.2-19.2 20 20 0 0 0 .5-12 14 14 0 0 0-14-10c-7.8.6-15.3 5.5-20.8 10.8a48.6 48.6 0 0 0-11.5 17.5 35.6 35.6 0 0 0-2.2 7.8c-.5 3-.8 6 .1 9a14.9 14.9 0 0 0 6.5 8.3 17.1 17.1 0 0 0 15 1.2 38 38 0 0 0 11.2-7 41.6 41.6 0 0 0 7.4-8.8c2.9-4.5 4.8-10 3.3-15.4s-5.5-8.9-10.6-10.8a22.8 22.8 0 0 0-12-.3c-6.8 1.3-13 5.3-17.8 10.2a57.6 57.6 0 0 0-11 15.9 43.7 43.7 0 0 0-4 11.9 28.6 28.6 0 0 0-.5 7.1 26.1 26.1 0 0 0 2.3 8.6 22.1 22.1 0 0 0 7.8 9.1 18.8 18.8 0 0 0 14.2 2.8c8-1.4 14.3-8.3 17.8-15.2a29.2 29.2 0 0 0 2-24.2 40.1 40.1 0 0 0-2.7-5.6 50.2 50.2 0 0 0-4-5.5 54.2 54.2 0 0 0-6.4-6.5c-6.4-5.5-13.1-10.6-21.8-11.2-8.5-.6-16 5.1-20.2 12.2-3.9 6.7-5.4 14.9-5.6 22.6a74 74 0 0 0 .9 12.6 48.3 48.3 0 0 0 2.2 10.1c1.5 4.1 3.6 8.2 7.1 11a21 21 0 0 0 7.4 4.1 18.2 18.2 0 0 0 9.2.2c4.5-1 8.3-3.9 11.8-6.8a76.9 76.9 0 0 0 6.6-6.3 97.8 97.8 0 0 0 12.7-17 96.8 96.8 0 0 0 9-19.5 37.7 37.7 0 0 0 1.8-12 30.7 30.7 0 0 0-3-12.7 24 24 0 0 0-20.8-13 31 31 0 0 0-22 8.8 47.5 47.5 0 0 0-11.7 16.6 57.1 57.1 0 0 0-4.9 22.2 43.4 43.4 0 0 0 4.7 20.8 23.8 23.8 0 0 0 20.2 13c8.4.2 16.2-4.5 22.2-10a82 82 0 0 0 13.5-15.9 74.5 74.5 0 0 0 4.8-8.3c2-4 3.7-8 4.3-12.3a18 18 0 0 0-4.9-14.8 20.6 20.6 0 0 0-11.4-6.1 39.2 39.2 0 0 0-14.3.5 36 36 0 0 0-10.9 4 24 24 0 0 0-9 9c-2.9 5.1-.8 11.8 3.3 15.6a5.7 5.7 0 0 0 8.8-1.1 6.8 6.8 0 0 1 .5-.8l-.5.7 1-.9-1.7 1.3a15.3 15.3 0 0 1 2-1.1c2.2-1.3 3.3-3.3 4.7-5.3l-1.6 2a15 15 0 0 1 2.5-2.5l-2 1.5a20 20 0 0 1 4.2-2.4l-2.3 1a37.2 37.2 0 0 1 9-2.3l-2.7.3a25.5 25.5 0 0 1 6-.1l-2.6-.4a14.6 14.6 0 0 1 3.7 1l-2.4-1a12.4 12.4 0 0 1 2.5 1.5l-2-1.6a11.1 11.1 0 0 1 1.8 1.8l-1.6-2a9.6 9.6 0 0 1 1.2 2l-1-2.3a9.2 9.2 0 0 1 .5 1.7l-.4-2.7a9.7 9.7 0 0 1 0 2.3l.4-2.7a20.9 20.9 0 0 1-1.6 5.1l1-2.3a74.7 74.7 0 0 1-9.5 16.1l1.6-2a65 65 0 0 1-11 11.4l2-1.6a30 30 0 0 1-6.4 3.9l2.3-1a18.8 18.8 0 0 1-4.2 1.2l2.6-.4a14.5 14.5 0 0 1-3.5 0l2.6.4a13.6 13.6 0 0 1-3.2-1l2.3 1a13.4 13.4 0 0 1-2.6-1.4l2 1.5a16.2 16.2 0 0 1-2.8-2.9l1.5 2a22.3 22.3 0 0 1-2.6-4.5l1 2.3a31.3 31.3 0 0 1-2-7.6l.4 2.6a45.7 45.7 0 0 1 0-12l-.4 2.7a47.9 47.9 0 0 1 3.1-11.5l-1 2.4a45.6 45.6 0 0 1 5.8-10l-1.5 2a34.2 34.2 0 0 1 5.8-5.9l-2 1.6a24.8 24.8 0 0 1 5.4-3.2l-2.4 1a19.7 19.7 0 0 1 4.8-1.3l-2.7.4a19.6 19.6 0 0 1 4.6 0l-2.7-.4a16.4 16.4 0 0 1 4 1l-2.3-1a14.5 14.5 0 0 1 2.9 1.7l-2-1.5a14.8 14.8 0 0 1 2.4 2.4l-1.6-2a16.7 16.7 0 0 1 2.1 3.6l-1-2.4a20.2 20.2 0 0 1 1.2 4.5l-.4-2.7a23.9 23.9 0 0 1 0 6.2l.4-2.6a44.1 44.1 0 0 1-3.3 10.8l1-2.4a98.5 98.5 0 0 1-12.4 21.3l1.6-2a74.3 74.3 0 0 1-13.1 13.3l2-1.6a20.1 20.1 0 0 1-4 2.4l2.4-1a12 12 0 0 1-2.3.7l2.6-.4a9.3 9.3 0 0 1-2.3 0l2.6.4a10.2 10.2 0 0 1-2.2-.7l2.4 1a12.5 12.5 0 0 1-2-1.1l2 1.5a14 14 0 0 1-2.2-2.2l1.6 2a17 17 0 0 1-2.1-3.6l1 2.4a45.7 45.7 0 0 1-2.6-11l.4 2.7a59.4 59.4 0 0 1 0-15.3l-.4 2.6a39.3 39.3 0 0 1 2.4-9.4l-1 2.4a23.8 23.8 0 0 1 3-5.3l-1.6 2a16.6 16.6 0 0 1 2.8-2.6l-2 1.6a12.7 12.7 0 0 1 2.6-1.6l-2.4 1a12.2 12.2 0 0 1 2.8-.7l-2.7.4a13.2 13.2 0 0 1 2.9 0l-2.7-.4a15.9 15.9 0 0 1 3.5 1l-2.4-1a30.4 30.4 0 0 1 6.5 4l-2-1.6a63.1 63.1 0 0 1 11 10.5l-1.6-2a28.4 28.4 0 0 1 3.5 5.8l-1-2.4a20.4 20.4 0 0 1 1.4 5.1l-.3-2.6a18.6 18.6 0 0 1 0 4.5l.3-2.7a22.5 22.5 0 0 1-1.6 5.7l1-2.3a30 30 0 0 1-3.6 6l1.5-2a22.2 22.2 0 0 1-3.5 3.7l2-1.6a14.8 14.8 0 0 1-3 1.8l2.5-1a11.8 11.8 0 0 1-2.5.7l2.6-.4a9.9 9.9 0 0 1-2.5 0l2.6.4a11 11 0 0 1-2.3-.7l2.3 1a11.5 11.5 0 0 1-2-1.2l2 1.5a12.9 12.9 0 0 1-2.3-2.2l1.6 2a15.3 15.3 0 0 1-1.8-3.2l1 2.4a14.5 14.5 0 0 1-.9-3l.4 2.5a19.2 19.2 0 0 1 0-5l-.4 2.7a31.6 31.6 0 0 1 2.2-7.5l-1 2.4a56 56 0 0 1 7-12.3l-1.5 2a38 38 0 0 1 6.6-6.6l-2 1.5a27.6 27.6 0 0 1 5.6-3.3l-2.4 1a23.6 23.6 0 0 1 5.6-1.6l-2.6.4a13.6 13.6 0 0 1 3.6 0l-2.7-.4a10.3 10.3 0 0 1 2.5.7l-2.4-1a8 8 0 0 1 1.6.9l-2-1.6a6.4 6.4 0 0 1 1 1.1l-1.6-2a6 6 0 0 1 .6 1l-1-2.4a6.6 6.6 0 0 1 .3 1.1l-.3-2.6a7.6 7.6 0 0 1 0 1.7l.3-2.7a11 11 0 0 1-.6 2.5l1-2.4a27 27 0 0 1-3.5 5.6l1.5-2a34 34 0 0 1-5.7 5.8l2-1.6a26.4 26.4 0 0 1-5.3 3.2l2.4-1a12.5 12.5 0 0 1-2.8.8l2.6-.3a9.3 9.3 0 0 1-1.9 0l2.7.3a8.3 8.3 0 0 1-1.7-.5l2.3 1a7.3 7.3 0 0 1-1.2-.7l2 1.6a6.5 6.5 0 0 1-1-1l1.6 2a5.8 5.8 0 0 1-.6-1l1 2.5a6.9 6.9 0 0 1-.3-1.2l.3 2.6a10.1 10.1 0 0 1 0-2.5l-.3 2.7a35.2 35.2 0 0 1 2.4-8.6l-1 2.3a38.7 38.7 0 0 1 5-8.5l-1.6 2a39.4 39.4 0 0 1 6.8-6.8l-2 1.6a36.9 36.9 0 0 1 7.6-4.5l-2.3 1a13.4 13.4 0 0 1 2.7-.9l-2.6.4a7.1 7.1 0 0 1 1.6 0l-2.6-.4a5.5 5.5 0 0 1 1.1.3l-2.4-1a6 6 0 0 1 1 .5l-2-1.6a6.2 6.2 0 0 1 .6.7l-1.6-2a5.6 5.6 0 0 1 .6 1l-1-2.4a6.2 6.2 0 0 1 .4 1.5l-.4-2.7a10.9 10.9 0 0 1 0 2.3l.4-2.6a32.7 32.7 0 0 1-2.7 8l1-2.4a84.3 84.3 0 0 1-10.8 18.5l1.6-2-3.7 4.6 1.5-2a38.3 38.3 0 0 1-6 6.2l2-1.5a19.6 19.6 0 0 1-3.8 2.3l2.3-1a12.7 12.7 0 0 1-3 .8l2.6-.3a10.8 10.8 0 0 1-2.2 0l2.5.3a9.2 9.2 0 0 1-2.1-.6l2.2 1a9.7 9.7 0 0 1-1.7-1l1.9 1.4a10.2 10.2 0 0 1-1.4-1.4l1.4 1.9a13.1 13.1 0 0 1-1.6-2.7l1 2.2a17.4 17.4 0 0 1-1.2-4.4l.3 2.5c-.2-1.5-.2-2.9-.5-4.3l.3 2.4a25.3 25.3 0 0 1 .1-4.8l-.3 2.3a26 26 0 0 1 1.8-6.5l-.9 2a26.8 26.8 0 0 0 1.6-3.7l-.8 2a26.4 26.4 0 0 1 1.5-3l.9-1.4c.2-.2.7-1 0 0q-.6.8-.2.4a6.4 6.4 0 0 0 1.3-1.6l.7-1.8-1.3 2.3a4.5 4.5 0 0 0 .5-.6 23.8 23.8 0 0 1 1.2-1.3l1.4-1.2-.6.4a2.6 2.6 0 0 0 1-.6 6.6 6.6 0 0 0 1.7-2l-2 2a13.4 13.4 0 0 1 1.5-1l.3-.1.6-.2.7-.1a1.5 1.5 0 0 1-1 0c.7.4 2.2 0 2.8-.3a6 6 0 0 0 1.5-1l-2.8 1.2a7.4 7.4 0 0 1 1.4 0c-.6 0 .3 0 .4.1a4 4 0 0 1 1.5.8 2 2 0 0 0 3.2-1.8z"/><path d="m368 121.3.4-.7-1.8 2.3v-.1a12.8 12.8 0 0 0 3.7-7.5 13.8 13.8 0 0 0-1.6-8.2l-1.3-2.9 1.4 3.3a19.2 19.2 0 0 0-3.8-6.5l-.8-1-1.3-1.5a30.3 30.3 0 0 0-4.1-3.3l-2-1.4a31.2 31.2 0 0 0-11-4.3c-5.1-.8-10.1-1-15.3.5-4.6 1.4-9.4 4-12.6 7.6a30.9 30.9 0 0 0-7 12.9 49.5 49.5 0 0 0-1 7.3 30.9 30.9 0 0 0-.2 4.3 85.5 85.5 0 0 0 1.6 12 49 49 0 0 0 2.6 9.5 54.4 54.4 0 0 0 3.3 7.1 45.1 45.1 0 0 0 4.8 6.5 22 22 0 0 0 2.7 2.6 32.6 32.6 0 0 0 6.5 4.6c4.8 2.2 9.9 3.8 15.2 3.3a39.2 39.2 0 0 0 7.7-1.2 49.6 49.6 0 0 0 8-3.3 65.4 65.4 0 0 0 8.1-5.2c3.4-2.5 6.8-5 10-7.7a53.2 53.2 0 0 0 6.6-6.6 49 49 0 0 0 7-10.3 60.7 60.7 0 0 0 2.9-7 46.5 46.5 0 0 0 1.5-8.3 33 33 0 0 0-1-12.3 31.3 31.3 0 0 0-5-10.6 47.2 47.2 0 0 0-4.4-5.5 53.6 53.6 0 0 0-6.1-5 46.9 46.9 0 0 0-10.4-5.2 36.6 36.6 0 0 0-8-2.2 57.8 57.8 0 0 0-12-.9 60.5 60.5 0 0 0-11.7 1.8 52.7 52.7 0 0 0-35.2 72.2 26 26 0 0 0 10.1 10.9c4.4 2.6 9 3.5 14 4a40.8 40.8 0 0 0 11.5-1 46.2 46.2 0 0 0 8.5-2.7 62 62 0 0 0 21.5-13.3 31.4 31.4 0 0 0 7.8-12.9 20.2 20.2 0 0 0 .7-7.7 30.2 30.2 0 0 0-3-10.7 26.3 26.3 0 0 0-9.8-11l2.6 2-2.1-1.7a23.4 23.4 0 0 0-4.4-3.1c-2.4-1.2-4.8-2.7-7.3-3.5l4.2 2.5a20 20 0 0 0-3.2-2.2L354 99a29.4 29.4 0 0 0-4.6-2.1c1.9.6 0-.1-.5-.3l-1.7-.8a20.3 20.3 0 0 0-3.9-1.8l1.7 1a29.1 29.1 0 0 0-4-2.6 2.9 2.9 0 0 0-3.4.5 3 3 0 0 0-.4 3.4 26 26 0 0 0 1.6 3.5l-.5-2a19.8 19.8 0 0 0 1.2 4.2 26 26 0 0 0 1.8 4.7l-.9-3.4a21.4 21.4 0 0 0 1.2 5 30.3 30.3 0 0 0 2.2 5.3l-1-2.2a15.3 15.3 0 0 0 1 2.5l1 2.7a35.6 35.6 0 0 0 3.3 7l-1.3-3.1c1 2.8 2.1 5.4 3.3 8l-1.4-3.2a17.7 17.7 0 0 1 1.1 4.1l-.5-3.8a13.7 13.7 0 0 1 0 3.1l.5-3.9a18 18 0 0 1-1 4l1.4-3.5a16.7 16.7 0 0 1-1.9 3.2l2.3-3a25.6 25.6 0 0 1-4.3 4.3l3-2.3a54.7 54.7 0 0 1-12.2 6.9l3.6-1.5a43.2 43.2 0 0 1-10.7 3.1l4-.5a25.8 25.8 0 0 1-6.1 0l4 .6a16.8 16.8 0 0 1-4.4-1.2l3.6 1.5a13 13 0 0 1-2.6-1.5l3 2.3a13 13 0 0 1-2-2l2.3 3a15.3 15.3 0 0 1-1.9-3.2l1.5 3.5a31 31 0 0 1-2-7.7l.6 4a39.8 39.8 0 0 1 0-10.1l-.5 4a41.8 41.8 0 0 1 2.8-10.2l-1.5 3.6a40.4 40.4 0 0 1 5-8.8l-2.3 3a37.9 37.9 0 0 1 6.7-6.6l-3 2.3a39.4 39.4 0 0 1 8.1-4.7l-3.5 1.5a41.6 41.6 0 0 1 10.2-2.9l-4 .5a40.7 40.7 0 0 1 10.6 0l-4-.5a37.4 37.4 0 0 1 9.5 2.5l-3.5-1.5a32.6 32.6 0 0 1 6.8 4l-3-2.4a26.3 26.3 0 0 1 4.7 4.7l-2.4-3a21.7 21.7 0 0 1 2.6 4.4l-1.5-3.5a20.2 20.2 0 0 1 1.3 5l-.5-4a23.9 23.9 0 0 1 0 6l.5-4a29.1 29.1 0 0 1-1.9 6.6l1.5-3.5a33.6 33.6 0 0 1-4.4 7.4l2.4-3a58.5 58.5 0 0 1-10.3 10l3-2.4c-4.5 3.4-9 6.9-14.2 9.1l3.5-1.5a22.9 22.9 0 0 1-5.3 1.5l4-.5a17.1 17.1 0 0 1-4.2 0l4 .5a16 16 0 0 1-3.6-1l3.5 1.6a18.4 18.4 0 0 1-3.9-2.3l3 2.4a22.2 22.2 0 0 1-3.7-3.8l2.3 3a27.4 27.4 0 0 1-3.3-5.7l1.5 3.6a54.2 54.2 0 0 1-3.4-13.7l.5 4a37.4 37.4 0 0 1-.2-9.7l-.5 4a20.9 20.9 0 0 1 1.3-4.8l-1.5 3.5a15.9 15.9 0 0 1 1.7-3l-2.3 3a15 15 0 0 1 2.5-2.7l-3 2.3a14.6 14.6 0 0 1 2.8-1.6l-3.5 1.5a16.5 16.5 0 0 1 3.8-1l-4 .5a19.3 19.3 0 0 1 4.9 0l-4-.5a19.9 19.9 0 0 1 4.7 1.2l-3.5-1.5a25.9 25.9 0 0 1 5.5 3.2l-3-2.3a53.9 53.9 0 0 0 6 4.3l-2.9-2.2 3.2 2.4a130.4 130.4 0 0 0 3.7 1.6l-3.4-1.4a24 24 0 0 1 2.7 1.5 13 13 0 0 0 13 0h.2l-2.8 1 .7-.1a11.2 11.2 0 0 0 5.8-4.4z"/><path d="m342 110-.2-.2 2.6 6.2v-.2l1 7v-.3a22 22 0 0 0-2.5-11.2 21.8 21.8 0 0 0-6-9.4l-6-4.6a29 29 0 0 0-14.7-4c-7 .5-12 1.5-18.2 4.9a37.3 37.3 0 0 0-13.2 12.9c-1.5 2.4-3.3 7.3-3.8 8.6a13.6 13.6 0 0 0-.6 2.2 48.4 48.4 0 0 0-1.4 11.7 49 49 0 0 0 6 22.1c1.7 3.2 4.4 6.3 6.5 9a24 24 0 0 0 2.8 3 66.4 66.4 0 0 0 9 6.8 62.6 62.6 0 0 0 10.4 4.7 20.1 20.1 0 0 0 3.8 1.1c3.7.7 7.8 1.5 11.8 1.3a57 57 0 0 0 11.5-1.6 58.2 58.2 0 0 0 11.6-4.7 27.7 27.7 0 0 0 3.7-2.3 97.3 97.3 0 0 0 9.4-7.5 82.4 82.4 0 0 0 10.9-13 29.4 29.4 0 0 0 2.3-4c1.4-2.9 2.6-5.9 3.8-9a19.6 19.6 0 0 0 .9-2.6 84.5 84.5 0 0 0 1.3-9.5 18.6 18.6 0 0 0 .1-2.6 70.8 70.8 0 0 0-1.2-10.2 22.2 22.2 0 0 0-.7-2.9 66 66 0 0 0-4.7-11.4 30.6 30.6 0 0 0-2.5-3.8 79.6 79.6 0 0 0-7.3-9.1 81.9 81.9 0 0 0-9.2-7.4c-4.4-3.3-9.6-5.3-14.7-7.2a31 31 0 0 0-4.2-1.3 88.5 88.5 0 0 0-12.7-1.8 35.3 35.3 0 0 0-5.2 0l-6.1.8c-2 .3-4.4.5-6.6 1a37 37 0 0 0-5 1.5 95.6 95.6 0 0 0-11.4 4.8 29.7 29.7 0 0 0-3.6 2.2c-3.1 2.3-6.7 4.7-9.5 7.7a49.3 49.3 0 0 0-11.7 20.3 61 61 0 0 0-1.9 12.5 33.4 33.4 0 0 0 .1 5.2 84.6 84.6 0 0 0 2.6 16.5 92.4 92.4 0 0 0 4.2 10.5 26 26 0 0 0 2.1 4.1 49.5 49.5 0 0 0 15.8 15.8c6.9 4.3 15.5 6.3 23.6 6.4a71.7 71.7 0 0 0 12.2-1.4 41.9 41.9 0 0 0 5.4-1.2 84.8 84.8 0 0 0 15.7-6.6 49 49 0 0 0 4.3-2.6 71.9 71.9 0 0 0 20.7-20.3 34.3 34.3 0 0 0 2.3-3.7 73.2 73.2 0 0 0 4.9-11.4 26.1 26.1 0 0 0 1-4.3c.6-3.7 1.5-8.1 1.2-12a64 64 0 0 0-1.7-11.8 66.2 66.2 0 0 0-4.2-10.7 26 26 0 0 0-2-3.5 77.3 77.3 0 0 0-7-9.2 29 29 0 0 0-2.9-2.7 83 83 0 0 0-9.5-7.2 30.6 30.6 0 0 0-3.5-1.9 90.5 90.5 0 0 0-10.7-4.3 32.7 32.7 0 0 0-4.5-1 91.3 91.3 0 0 0-12.7-1.4 39.8 39.8 0 0 0-4.8.2 115.8 115.8 0 0 0-13 2c-5.7 1.3-11 3.7-16.4 6a71.9 71.9 0 0 0-9.3 4.8c-8.2 5-15.7 11.3-23.2 17.3l-8.2 6.5 6-4.6-1.4 1-.7.6-.4.3a22.3 22.3 0 0 0-8.3 7.6 14.7 14.7 0 0 0-3.8 6.6 14.8 14.8 0 0 0-2 7.5c-.7 5.1-.7 2.8 0 8a14.6 14.6 0 0 0 2 7.4 14.8 14.8 0 0 0 3.8 6.4 14.8 14.8 0 0 0 5.2 5.3 10.6 10.6 0 0 0 3.1 2.4 29.7 29.7 0 0 0 30 0c7.6-5.7 14.9-11.8 22.4-17.6l-6 4.6c6.5-5 13.3-9.7 21-13l-7.2 3a53.8 53.8 0 0 1 13-3.7l-7.8 1.1a40.5 40.5 0 0 1 10.4 0l-8-1.1a31.3 31.3 0 0 1 8 2.1l-7-3a31.4 31.4 0 0 1 6.7 4l-6-4.6a29.7 29.7 0 0 1 5 5l-4.6-6a26 26 0 0 1 3.2 5.4l-3-7.1a23.2 23.2 0 0 1 1.6 5.7l-1.1-7.9a22.4 22.4 0 0 1 0 5.6l1-7.9a26 26 0 0 1-1.6 6l3-7a33 33 0 0 1-4.3 7.2l4.7-6a42.2 42.2 0 0 1-7.3 7.1l6-4.6a48.2 48.2 0 0 1-10.2 6l7.1-3a44.1 44.1 0 0 1-10.6 3l7.9-1.1a24.6 24.6 0 0 1-6.5 0l8 1a17.7 17.7 0 0 1-4.2-1.1l7.1 3a16 16 0 0 1-3-1.8l6 4.6a18.1 18.1 0 0 1-3.2-3.2l4.7 6a24.1 24.1 0 0 1-3-5.2l3 7.1a38.8 38.8 0 0 1-2.4-9.4l1 7.9a36.8 36.8 0 0 1-.1-9.5l-1 8a21 21 0 0 1 1.3-5l-3 7a19.3 19.3 0 0 1 2.1-3.6l-4.6 6a23 23 0 0 1 4-4l-6 4.6a32.7 32.7 0 0 1 6.9-3.8l-7.1 3a38.4 38.4 0 0 1 9.3-2.6l-8 1a36.5 36.5 0 0 1 9.2 0l-7.9-1a33.1 33.1 0 0 1 8.3 2.3l-7.1-3a32.5 32.5 0 0 1 6.8 4l-6-4.7a31.3 31.3 0 0 1 5.4 5.3l-4.7-6a29.2 29.2 0 0 1 3.6 6l-3-7a23 23 0 0 1 1.6 5.7l-1.2-7.9a18.5 18.5 0 0 1 0 4.4l1.1-8a20.7 20.7 0 0 1-1.4 5l3-7a31.4 31.4 0 0 1-3.9 6.3l4.7-6a45.4 45.4 0 0 1-7.7 7.8l6-4.6a29 29 0 0 1-6.1 3.7l7-3a21 21 0 0 1-5.1 1.4l7.9-1a18.4 18.4 0 0 1-4.4 0l8 1a20 20 0 0 1-5-1.3l7.2 3a22.3 22.3 0 0 1-4.8-2.7l6 4.6a23.1 23.1 0 0 1-4-4l4.6 6a21.5 21.5 0 0 1-2.6-4.5l3 7.2a20.7 20.7 0 0 1-1.5-5.2l1.1 7.9a17.7 17.7 0 0 1 0-4.3l-1 7.9a13 13 0 0 1 .7-3l-3 7a9.2 9.2 0 0 1 1.1-1.8l-4.6 6a8.6 8.6 0 0 1 1.3-1.3l-6 4.6a8.1 8.1 0 0 1 1.6-.9l-7 3a8.6 8.6 0 0 1 2.1-.6l-7.8 1h.4l7.8-1a22 22 0 0 0 9.9-5.2 14.7 14.7 0 0 0 5.2-5.2 22 22 0 0 0 5.2-10l.1-.4-6.7 11.6v-.2l-5.2 4h.2a19.3 19.3 0 0 0 7.2-6.6 19.4 19.4 0 0 0 4.6-8.8l1-6.8a25.5 25.5 0 0 0-3.5-13zM32.8 190.3a31.7 31.7 0 0 0-5.5 3.8l1.8-1.3a22 22 0 0 0-2.1 1.6 14.1 14.1 0 0 0-1.8 2.3l-1 1.5-2.1 3.5a29.7 29.7 0 0 0-3.4 8.1c-1.4 6.1-1 13.1 3.8 17.7a14.8 14.8 0 0 0 13.8 3.5c3-.7 5.9-2.3 8.7-3.6l13-6a157.3 157.3 0 0 0 48.4-33.2c8.9-9.5 15.6-20.9 23.1-31.6l-1.7 2.2 10.7-12.4c2.4-2.8 5-5.5 7-8.5l2.3-3.3a14 14 0 0 0 2.3-6.4 18.1 18.1 0 0 0-.4-6.4l.5 3.4a42.3 42.3 0 0 0-.6-4.4l.4 3.1v-.4l-.4 3 .3-1.4a14.5 14.5 0 0 0 0-6 10.4 10.4 0 0 0-4.9-6.2 11.6 11.6 0 0 0-8-1 10.9 10.9 0 0 0-4 2l2.7-1.2-2.4.6a15.5 15.5 0 0 0-6.6 3.8 27.3 27.3 0 0 0-2.8 3.9 68 68 0 0 0-3.4 5.8l-6 12-3 6a60.5 60.5 0 0 1-3.6 5.5l-7.2 11.1c-2.7 4-5.3 8.1-8.2 12l1.6-2.1a89.5 89.5 0 0 1-16 15.7l2-1.6c-11.5 9-24.6 15.6-37.7 21.8L31 212.3l2.3-1a14.4 14.4 0 0 1-2.5.8l2.6-.3a6.7 6.7 0 0 1-1.8 0l2.6.3a6.6 6.6 0 0 1-1-.2l2.3 1a5.5 5.5 0 0 1-.9-.6l2 1.6a5.3 5.3 0 0 1-.7-.7l1.5 2a6.2 6.2 0 0 1-.6-1.1l1 2.3a8.3 8.3 0 0 1-.6-2.1l.4 2.6a13.9 13.9 0 0 1 0-3l-.4 2.6a39.5 39.5 0 0 1 1.7-5.8 69.3 69.3 0 0 1 2.7-7.4l-1 2a14 14 0 0 0 1.3-3.6l.2-2-.3 2.2c.3-2 .6-4 .7-6.1a6.4 6.4 0 0 0-3.2-5.6 6.6 6.6 0 0 0-6.5 0z"/><path d="m40.7 197.8 1-1-2 .9a9 9 0 0 0 7.3-2.5c1-.9 1.8-2 2.6-3l5.2-6a9.8 9.8 0 0 0 2.7-6.6 9.2 9.2 0 0 0-15.7-6.5 86.5 86.5 0 0 0-7.5 8.9l15.9 12.3c5.7-8 11.4-15.9 16.1-24.4a102.1 102.1 0 0 0 7-15.6 33.2 33.2 0 0 0 1.7-10 15.8 15.8 0 0 0-.8-6.3 20.9 20.9 0 0 0-2.5-5.2 10.1 10.1 0 0 0-3.6-3.6 7.6 7.6 0 0 0-3.8-1.2 9.8 9.8 0 0 0-8.5 2.8 34.8 34.8 0 0 0-3.4 4.6 22.1 22.1 0 0 0-2.6 6 27.7 27.7 0 0 0-1 3.7 71.3 71.3 0 0 1-.7 4 89.8 89.8 0 0 1-4.8 14.8l1.2-2.7A230.4 230.4 0 0 1 32.7 184a10.6 10.6 0 0 0-1 7.8 10.2 10.2 0 0 0 18.5 2.4 87.7 87.7 0 0 0 6.1-10l-16.7-7-2.6 7.6-1.2 3.6a9.1 9.1 0 0 0 1.5 7.9l-.3-2.2-.3 1.4a2.4 2.4 0 0 0 4 2.3z"/><path d="M60.6 158.4a16.3 16.3 0 0 0 2.8-5.7l1-4.8a64 64 0 0 0 1-11.4l-.2-4.7c0-1.5.3-3.2.4-4.8a34.6 34.6 0 0 0-.8-7.2l-.8-5a95.1 95.1 0 0 0-7-20.5 168.3 168.3 0 0 0-8.8-17 119 119 0 0 0-6-9.2c-1.7-2.3-1.3-2-2.4-2.9l-1.4-1.1-2-1.9a50.6 50.6 0 0 0-5.8-5l3.8 3.8c-3.8-5.4-8.4-10.4-11-16.6l1 2.5a10 10 0 0 1-.8-2.4L24 47a5.9 5.9 0 0 1 0-1.4l-.4 2.6a5.6 5.6 0 0 1 .3-.8l-1 2.4a4.8 4.8 0 0 1 .5-1L22 51l.2-.2-2 1.6a4.9 4.9 0 0 1 .9-.5l-2.4 1a5.8 5.8 0 0 1 1.2-.3l-2.6.3a14 14 0 0 1 3 .1l-2.7-.3a24.4 24.4 0 0 1 6 1.7l-2.6-1c7.4 3.2 13.7 8.6 20.2 13.2 6.8 4.7 13.7 9.3 20.6 13.7a246.1 246.1 0 0 0 46.6 23.8l13.2 4.6q3.1 1.3 6.3 2.4l3.3 1.2c3.5 1 7 .3 10.5-.3l3.4-1.4 2.9-2.2a13.9 13.9 0 0 0 3.8-8.1 7 7 0 0 0 0-3.7 6.9 6.9 0 0 0-1-3.6 14.3 14.3 0 0 0-5.7-6.7l-1.7-1.2c-2.8-1.7-5.7-2-8.8-2.3l-4.3-.5 3.9.5a75.4 75.4 0 0 1-10.8-2l-10.2-3.2c-6.8-2.4-13.5-4.8-20.1-7.6l3 1.2A223.2 223.2 0 0 1 54.4 49l-9.7-6.6a58.3 58.3 0 0 0-9.9-6 37.7 37.7 0 0 0-15.2-3.7 16.1 16.1 0 0 0-11.2 4 13.7 13.7 0 0 0-4.1 6.9 18.5 18.5 0 0 0 .4 9.6A23.3 23.3 0 0 0 8.4 60c2.7 3.8 5 7.8 7.6 11.8l-1-2.6a44.2 44.2 0 0 0 2 5.3c1 2.6 1.5 5.2 3 7.6l6 9.8A154.4 154.4 0 0 1 36.3 112l-1.3-3.1c1.7 4 3 8 4.7 11.9l-1.3-3a102.7 102.7 0 0 1 3.5 10.6 46.1 46.1 0 0 0 2.4 6l-1-2.7a18 18 0 0 1 1.2 4.7l-.4-2.9a130.7 130.7 0 0 1 .9 16 19.4 19.4 0 0 0 0 3.4l.6 3.6c.7 3 3.8 5.3 6.8 5.7 3.4.5 6-1.1 8-3.8z"/><path d="M34.5 69.4c-1.5 3.7.1 8 1.3 11.6l2 6 3.6 10.6c1.2 3.5 2 7 3.3 10.4l1.7 5.4c1.3 4.1 3.4 7.9 5.1 11.9l-3-7 5 12.1-3-7a50.5 50.5 0 0 1 3.5 12.3l-1-7.9a52.5 52.5 0 0 1 0 13.6l1-7.9a54 54 0 0 1-3.8 13.8l3-7a51.6 51.6 0 0 1-4.3 8l-2.3 4A31.5 31.5 0 0 0 42 168a21.9 21.9 0 0 0 .5 4.4 21 21 0 0 0 3.3 10.5q2.1 2.9 4.4 5.7l-4.4-5.6a60.7 60.7 0 0 0 4.4 5.6l5.5 4.3h.1l6.8 3 7.4 1a24.3 24.3 0 0 0 8.3-1.2c1-.3 6.2-2.4 7-3a20.3 20.3 0 0 0 3.3-2.4 20.9 20.9 0 0 0 3-2.4 54.4 54.4 0 0 0 8-9.7c3.5-5 5.7-10.7 8-16.3a53.6 53.6 0 0 0 3-10.3c.8-4.3 1.4-8.6 1.7-13a52.5 52.5 0 0 0 .2-5.4c0-1.9-.2-3.7-.4-5.5a119.6 119.6 0 0 0-2-12.9 46.8 46.8 0 0 0-1.7-5.4c-.7-2-1.6-4-2.4-5.9a45.3 45.3 0 0 0-2.9-6 53 53 0 0 0-3.4-5.2c-1.9-2.6-3.7-5.4-6.2-7.6l-2.4-2a80.1 80.1 0 0 0-10-7.3c-1.6-1-3.3-1.8-5-2.7-4-2.1-8.2-4-12.3-5.9l-7.1-3.2-3.5-1.6c-1.2-.5-2.2-1-3.3-1.3a12.9 12.9 0 0 0-6.8 0 27.2 27.2 0 0 0-3 1.2 9.2 9.2 0 0 0-3.4 3.2 9.2 9.2 0 0 0-2.2 4.1z"/><path d="m57.5 181.7-1.3.7h7c-1.6-.7-3-1.5-5-1.4a9.5 9.5 0 0 0-5 1.5l2.3-1-2.3.8-1 .4a11.3 11.3 0 0 0-5 2.9l-.6.5 2.3-1.8a43.8 43.8 0 0 1-9.4 5.4l3-1.2-1.9.7a13.5 13.5 0 0 0-7.5 5.8 12.8 12.8 0 0 0-1.2 9.6 12.5 12.5 0 0 0 5.7 7.4c2.9 1.5 6.5 2.4 9.6 1.3a95.5 95.5 0 0 0 15-7 108 108 0 0 0 11.4-7.2 199.1 199.1 0 0 0 23-19.7c6.6-6.5 12.7-13.4 18.6-20.4 6.8-8 15.4-14.6 21-23.5a27 27 0 0 0 3.1-7.1 28 28 0 0 0 .6-3.7 27.6 27.6 0 0 0 .5-3.8 24.2 24.2 0 0 0-2.8-11 15.4 15.4 0 0 0-2-2.8 15.4 15.4 0 0 0-2-2.5 20.4 20.4 0 0 0-4.3-3 23.4 23.4 0 0 0-4.8-2 22.7 22.7 0 0 0-10.7 0 19.8 19.8 0 0 0-8.8 5l-.3.2a22 22 0 0 0-2.9 3.7 20.3 20.3 0 0 0-2 4.9 16.5 16.5 0 0 0 4.2 15.8c4 4 10.4 6 15.8 4.2l18.2-5.9a17.2 17.2 0 0 0 9.7-7.4 16.5 16.5 0 0 0 1.6-12.4c-1.2-4-3.7-7.7-7.4-9.7l-3.9-1.6a16.3 16.3 0 0 0-8.6 0l-2.9.4 4.3-.6a177.9 177.9 0 0 1-8.3.9l-4 .3h-1a13.6 13.6 0 0 0-6 1.4 14 14 0 0 0-5.8 4.5l-1.4 1.8a10.3 10.3 0 0 0-1.7 5.1 10.5 10.5 0 0 0 .3 5.5 14.3 14.3 0 0 0 4.9 7.2 13 13 0 0 0 8.3 3c3.5-.2 7.5-1.3 9.8-4a29.5 29.5 0 0 0 2.3-3.1l-2 2.6a26 26 0 0 0 2.4-3.1l-1.8 2.3.4-.4-2.2 1.7a18 18 0 0 0 4.3-3.2l-3.6 2.1 2.8-1a30.8 30.8 0 0 0 3.8-1.6c1.4-.8 3.2-3 3.5-4.7.2-1.4-1.4-3.6-2.3-4.5-1.6-1.5-4-2.3-5.9-3.3l1.7 1.3-.2-.3 1.3 1.8a15 15 0 0 0-2.1-2.8 34.9 34.9 0 0 0-3.3-2.5l4 3.9-.4-.5 1.2 2.7a30.6 30.6 0 0 0-1.6-3.5l1.4 3a32.2 32.2 0 0 0-1.6-3.6L104.3 119a15.7 15.7 0 0 0 9 7.2 29.6 29.6 0 0 0 5.8.8l5 .5q4.8.5 9.6.6l-4.2-31.7c-6.2 1.7-12.2 3.8-18.3 5.7l20 20a3 3 0 0 1 .2-.5l-1.7 3.9a3.3 3.3 0 0 1 .4-.7l-2.5 3.3a3.7 3.7 0 0 1 .5-.5l-3.3 2.5a4.8 4.8 0 0 1 .9-.5l-4 1.6a5.8 5.8 0 0 1 1-.2l-4.2.6a6.9 6.9 0 0 1 1.3 0l-4.3-.6a6.1 6.1 0 0 1 1.3.3l-3.9-1.6a4.9 4.9 0 0 1 1 .5l-3.3-2.5a5 5 0 0 1 .8.8l-2.5-3.3a8 8 0 0 1 .7 1.3l-1.7-3.9a9 9 0 0 1 .5 1.8l-.6-4.3a11.3 11.3 0 0 1 0 2.2l.6-4.3a23.2 23.2 0 0 1-1.8 5.8l1.6-3.9a74.1 74.1 0 0 1-6.4 10.7l-6.6 9.8 2.2-2.8a293.6 293.6 0 0 1-29.5 32.2q-4.5 4.1-9.3 7.8l2.7-2c-3.7 2.8-7.5 5.6-11.4 8.1s-8.1 4.6-12.2 6.9l12.6 21.5A57.4 57.4 0 0 0 60 205a42 42 0 0 0 3.2-3.3 16.4 16.4 0 0 0 3.4-6.3 28.8 28.8 0 0 0 .6-2l-1 2.2.1-.3c1.4-2.9 2-6.7 0-9.5l-.5-.7.7 5.4.3-1.5a6.4 6.4 0 0 0-2.3-6.6 6.3 6.3 0 0 0-7-.5z"/><path d="m147.6 107.3 7.3.5a55.9 55.9 0 0 0 7.1-.6 155.6 155.6 0 0 0 16.7-2.9l14-3.4 14.6-3.4C226.5 93 246 89 264.7 82.7c5.1-1.7 10.2-3.6 15.3-5.1a108.1 108.1 0 0 1 16-3.4l-3.7.5c11.4-1.5 22.8-1.7 34.3-2.1l8.6-.4 9-.9 17.3-1.7 19.7-2a11.8 11.8 0 0 0 6-1.3 11.7 11.7 0 0 0 5-3.2l2.5-3.1a11.6 11.6 0 0 0 1.8-5.8 7.9 7.9 0 0 0 0-4.1 11.6 11.6 0 0 0-1.8-5.8 17 17 0 0 0-9.3-7.2 16.3 16.3 0 0 0-7.6-.5 7.7 7.7 0 0 0-3.9 1 7.6 7.6 0 0 0-3.4 2 9.6 9.6 0 0 0-1.8 1.6 36.4 36.4 0 0 0-3 4l1.7-2.3-.2.2 2.2-1.7L366 44a9.4 9.4 0 0 0-2.7 6.7 9.7 9.7 0 0 0 2.7 6.5l1.2 1.2-1.7-2.2.2.2-1.1-2.7.4 1.7a10.3 10.3 0 0 0 .8 2.2 7.6 7.6 0 0 0 2 3.4 7.8 7.8 0 0 0 2.8 2.8 10.8 10.8 0 0 0 3.7 2.2c1 .4 1.8.8 2.8 1l4.1-30.6-29.2 2.8-14.3 1.3c-6.1.6-12.1 1.6-18.2 2.5l-16.2 2.5 3.8-.5-4.7.6 3.7-.5a160.8 160.8 0 0 0-31.3 6.3c-9.1 3-17.9 7-27 9.9L234 65.6l-14.2 4.7-28.4 9.3c-10.4 3.5-21 6.7-31.9 8.2l2.6-.4-11.2 1.3 2.6-.3-5.8.6a9.8 9.8 0 0 0-6.4 2.7 9.1 9.1 0 0 0 0 13 10.5 10.5 0 0 0 6.4 2.6z"/><path d="M335.8 58.4c2 2.3 5.1 3 8 3.8a30.7 30.7 0 0 0 5 1.2l4.6.7a72.6 72.6 0 0 0 8.9 1h10.1c3.4 0 6.8-.3 10.2-.7l41.2-4 23.3-2.4a16.8 16.8 0 0 0 8.6-2.3L459 53a16.7 16.7 0 0 0 4.3-7.4 12.8 12.8 0 0 0 .3-6.8 12.6 12.6 0 0 0-2-6.2 12.8 12.8 0 0 0-4.3-4.8 12.7 12.7 0 0 0-5.7-3 17 17 0 0 0-9 0l-.5.1c-4 1.3-8 4-10 7.8l-1.7 4a12.7 12.7 0 0 0-.3 6.7 8.4 8.4 0 0 0 1.2 4.2 12.7 12.7 0 0 0 3.4 5.4l3.4 2.6a16.7 16.7 0 0 0 8.5 2.3h.5V24.3l-41.8 4-20.3 2c-4.8.5-9.7.7-14.5 1.6l-10.1 2A38.2 38.2 0 0 0 355 35l-5.4 1.9a52 52 0 0 0-7.9 3.3c-2.9 1.6-5.8 3-7.5 6a10 10 0 0 0-1.1 6.3 10.5 10.5 0 0 0 2.7 5.8z"/><path d="m396.3 46.6 1.3.2h.6l-1.5-1.6c.3.5.2.2-.3-.7a7 7 0 0 0 5 4.9l2.6.8a33 33 0 0 0 4.6.7l-2.4-.3 6.3.8 3.8.1 8.2.2c5.5 0 11 .4 16.4.2a197.8 197.8 0 0 1 32.8 1.4l-3.7-.5c8.4 1.2 16.6 2.9 24.9 4.7l22.6 4.8A396.9 396.9 0 0 1 561.8 75c8.3 2.9 16.5 6 24.6 9.4L583 83a304.2 304.2 0 0 1 47.7 27c4.3 3 8.6 6.2 12.8 9.4l-2.8-2.2a92.3 92.3 0 0 1 16.6 16l-2.1-2.9a72 72 0 0 1 5 7.4l2 3.8a25.6 25.6 0 0 0 4.7 5.8 12.8 12.8 0 0 0 14 2.6 13 13 0 0 0 7.9-11.6 42.5 42.5 0 0 0-.7-6.3 27 27 0 0 0-2.8-6.2 70.7 70.7 0 0 0-3.7-6.2 88.4 88.4 0 0 0-10.9-13.3 121.1 121.1 0 0 0-11.4-9.8c-4.4-3.5-9-7-13.6-10.2a312.4 312.4 0 0 0-48.8-27 419 419 0 0 0-28.5-12q-13.3-5-27-9-13.3-4-27-7.1c-10.3-2.4-21.2-3.7-31.8-5a200.3 200.3 0 0 0-32-1.6 124.4 124.4 0 0 0-18.7 1.7c-5.2 1-10.5 2-15.6 3.5a62 62 0 0 0-9.4 3l2.3-1-5.9 2.5c-1.3.6-2.4 1.5-3.7 2.2a7 7 0 0 0-3.5 6c.2-1 .2-1.3 0-.7l1.2-2c.3-.3-.5.1-.7.2l-1.1.5c-2.4 1.2-2 5.5.8 6z"/><path d="M687 142.1a33 33 0 0 0 4.4.6 8.1 8.1 0 0 0 8.5-7.9l-4.7 6.2a25 25 0 0 0 5-2.5c1.4-.9 2.7-2.6 2.6-4.4l-.1-.9-.9 2 1-.8.6-.7 2.2-1.8a2 2 0 0 0 .4-2.5 2.1 2.1 0 0 0-2.3-1l-1.5.3 2.5 1.4v-.1a3.3 3.3 0 0 0-3.1-2.4l-1.2-.1v7c1.8-.2 3.8-.6 5-2.1a7.2 7.2 0 0 0 1.1-2.3 4 4 0 0 0-.9-4 3.5 3.5 0 0 0-4.8 0l-.6.7 4 .5a4.1 4.1 0 0 0-4.3-1.8 4.2 4.2 0 0 0-3.4 2 4 4 0 0 0 0 4 5.9 5.9 0 0 0 6.9 3 7.8 7.8 0 0 0 5-3.5 4.7 4.7 0 0 0-.3-5.2 4.8 4.8 0 0 0-5-1.7 13.8 13.8 0 0 0-2.7.8l-1.5.9a11.9 11.9 0 0 0-3.5 2.4l-.5.6-.4.2-1.7.8-3.3 1.4a1.7 1.7 0 0 0-.7 2.2 1.8 1.8 0 0 0 2 1l6.2-1h-1.3l1.7.6a9.5 9.5 0 0 0 3 0l2-.1a13.1 13.1 0 0 0 3.2-.8l-5.3-7c-.3.5-.6.6.2-.3-.2.2-.1.2.2 0l.2-.2h-.2q-.6.4.6-.2l-.6.2 1.2-.2a17.6 17.6 0 0 0-2 .2h-.3 1.4l2.3 5.9.3-.4c0 .2-.5.6 0 0a3.7 3.7 0 0 0 1-2.5l-4.4 1.8.5.6 3.3-5.7a3.9 3.9 0 0 0-3 .4l-1 .6a5 5 0 0 0-1.4 1.5s-.5.7 0 .1 0 0-.2.1l-.5.5a3.5 3.5 0 0 0-.2 4.6 3.6 3.6 0 0 0 4.5 1l1-.6a3 3 0 0 0 1.6-2.7v-.2l-2 2 1.5-.2-1.5-3.4a9 9 0 0 1-1.5 1.1 9.5 9.5 0 0 1-2.1.5l3.1 1.3a6 6 0 0 0-3.3-2.8 7.4 7.4 0 0 0-2-.2 18.1 18.1 0 0 1-1.8-.1l1.6.2-1.6-.3 4.4 4.4a7.2 7.2 0 0 0-2-3.7 7.9 7.9 0 0 0-4.8-2.2l-2.8-.3 2.1.3-1-.2a8.4 8.4 0 0 0-6 .8 7.8 7.8 0 0 0-2.8 10.7 7.7 7.7 0 0 0 4.7 3.6zm-544.1-8.5a10.2 10.2 0 0 0 2.9 7.8 10 10 0 0 0 10 2.5 7.8 7.8 0 0 0 5.7-7.5c-.1-3.2-2.2-6.8-5.6-7.4a15.5 15.5 0 0 0-6.5-.4 29.5 29.5 0 0 0-3.3 1 5.7 5.7 0 0 0-3.8 6.8l.4 2.3a11.2 11.2 0 0 0 2.7 5.1 49.3 49.3 0 0 0 3.7 4.2 20.4 20.4 0 0 0 6.5 4.4l7.5 3c7.5 2.8 15.1 5 22.4 8l-2.6-1.2a56.3 56.3 0 0 1 12.4 7l-2.3-1.7.5.3 13.4-17.4c-2.4-1.8-4.9-3.3-8.1-3.3a23 23 0 0 0-5.3 1l-3 .8c-1.2.3-2.7.1-4 .4-2.1.3-3.5 3-2.9 5l.2.5c-.1-.5.5 4 .1 1.2a20.3 20.3 0 0 0 1.8 5.6c1.3 3 3.8 5 6.2 7a101 101 0 0 0 7 5.6 62.3 62.3 0 0 0 7.3 3.9l28.2 14.3a408.2 408.2 0 0 0 61.3 24.6 293.8 293.8 0 0 0 66.4 11.7l34.4 1.9c11.4.7 22.9 2 34.3 3 12.7 1 25.6 2.3 38.3 1.7l19.2-1c4-.4 8.8-.3 12.7-1.3a24.2 24.2 0 0 0 12.1-8c1.9-2.2 3.4-4.8 3.3-7.9a11.3 11.3 0 0 0-3.3-7.8 28.9 28.9 0 0 0-4.5-3.8 35.2 35.2 0 0 0-6.3-2.8c-3.8-1.4-8-1-11.9-1h-16.3c-5.5-.2-10.9-.3-16.3 0l-16.3.5-33.4.5a709 709 0 0 1-69.8-3.7l3.7.5c-22.5-3-44.4-9.4-65.6-17.4q-9-3.5-18-7.3l3.1 1.3-23.3-9.6 3 1.3-25.8-11.2a60.7 60.7 0 0 0-8.3-3.4 119 119 0 0 1-9.2-3 15 15 0 0 0-4.6-.8H192h.6l-1.8-.2-1.4.1h-.8l-4 6.9a20 20 0 0 1 2.3 1.8l.4 1-.3-1a9.9 9.9 0 0 0 .5 1.4 18.7 18.7 0 0 0 2.6 5.6c1.5 2 3.7 3.2 5.7 4.6 2.2 1.6 6 1.9 8.5 1.2A11.1 11.1 0 0 0 212 157c-1-3-2.7-4.8-5.1-6.7-12.5-9.6-28.7-11.8-43-17.7l2.6 1c-2-.8-4-2-6-2.4l-4-.8c-1.8-.4-3.8-1.3-5.6-1.3a26 26 0 0 1-3.3.2l-4 9.4a27.8 27.8 0 0 0 2.5 2.3 15 15 0 0 0 5.6 2.8V129c.5 0 1.8-.5 2.3-.1l-2-.3c-.6 0-.6 0 .1.1 1.4.4-.5-.5.6.2.2.1 1.4 1 .8.3-1.5-1.9-4.7-2.1-6.8-1.3-2.4 1-3.5 3.2-3.8 5.7z"/><path d="M401.3 221.1a23.2 23.2 0 0 0-2.8 11.6 40.4 40.4 0 0 0 1.3 10.4l2.4 8.5 1.1 4.3a15.9 15.9 0 0 0 1.5 4l1.4 2-1-2.2 1.4 4.2a9 9 0 0 0 5.2 5.8c2.4 1 5.6 1.1 8-.5l5.5-4.1-1.8 1.3a152.2 152.2 0 0 0 23.3-19c3.3-3.3 6.4-7 9.5-10.6l10-11.8 5.7-6.8 2.9-3.4c1.3-1.6 2.8-3.2 3.3-5.4a10 10 0 0 0-1-7.5l.8 6.6a9.3 9.3 0 0 0 0-5.4 8.3 8.3 0 0 0-5.6-5.6c-2.6-.8-6-.1-7.9 2l-.2.2 1.7-1.2-.5.3 6.6-.9a9.8 9.8 0 0 0-5.5 0 11.1 11.1 0 0 0-4.7 2.9c-1 1-1.8 2.1-2.7 3.2l-5 5.8-9.8 11.5-8.8 10c-3 3.3-6 6.8-9.1 10a112.2 112.2 0 0 1-11.3 10.1l1.8-1.3a37.4 37.4 0 0 1-6.3 3.7l13.1 5.3-.7-4.4.3 2.5v-.5l-.3 2.5.3-1.7.4-2.7a38.5 38.5 0 0 0-.5-3.2l-.7-3.4-1.2-6.3-1.2-6-1.4-6 .4 2.7a28.7 28.7 0 0 1 0-6.7l-.3-2.6a7.3 7.3 0 0 0-1.8-3.3 9.2 9.2 0 0 0-5-3.4c-4-1-8.7.6-10.8 4.4z"/><path d="M450.7 242c2.2.8 4.4.3 6.5-.5a15.7 15.7 0 0 0 5.2-2.9l2.3-2.2a68.3 68.3 0 0 0 9.6-11.1 120.9 120.9 0 0 0 6.5-11.3l5.6-11.5q1.7-3.2 3.2-6.5l1.5-3.1a30.8 30.8 0 0 0 2-5 7 7 0 0 0-13-5.4 63.7 63.7 0 0 0-3 6.4l-3.4 6.3a95.8 95.8 0 0 1-8.2 11.9l1.3-1.7-5.6 7.2 1.4-1.8-6 7.7-4.1 6.5-2 3a13.8 13.8 0 0 0-2 4.9c-.5 1.8-1 3.7-.6 5.6.4 1.5 1.1 3 2.7 3.5z"/><path d="M489 191a10.3 10.3 0 0 0-4-1.6c-2-.3-4.2.2-6 .5a18.6 18.6 0 0 0-3.8.7l-3.7 1.3a18.7 18.7 0 0 0-4 2l-1.8 1.1-3.2 2.3c-3.6 2.5-7.8 5-10.1 8.7a12.4 12.4 0 0 0-1.7 6.2 12 12 0 0 0 2.6 7.3 11.6 11.6 0 0 0 4.9 3.8 11.5 11.5 0 0 0 7.9.6 24.5 24.5 0 0 0 3.3-1.4 21.1 21.1 0 0 0 3-2.4l1.4-1.2 3.2-2.7 3-2.6 1.5-1.1a19.6 19.6 0 0 0 3.2-3.6l-1.8 2.3 2.8-3.4a32.3 32.3 0 0 0 3.3-5.3c1-2 2.4-4 2.3-6.2 0-2-.5-4.3-2.4-5.4zm-37 29.3a36.4 36.4 0 0 1-3.6 1.4l-3.8 1c-2.7 1-5.3 2.7-7.7 4.1l-1.8 1-.8.5-.5.4c.6-.4-.2 0-.4.1l-1 .4-1.7.7a41.2 41.2 0 0 1-7.3 1.8h5.6c-3.1-.5-5.8-1-9-.1a13.5 13.5 0 0 0-9.3 9.3c-1.2 4.4 0 9.9 3.4 13a13.9 13.9 0 0 0 13.7 3.5 14.8 14.8 0 0 0 10-10 14.5 14.5 0 0 0-3.8-14.2 14.1 14.1 0 0 0-13.7-3.6l-1.6.5 3.9-.5h-.7v30.6a19 19 0 0 0 9.3-2.8 18.8 18.8 0 0 0 6.3-6.3l.6-1a41.6 41.6 0 0 0 3.4-8.4c1.3-4.6 1.4-9.5 2-14.2l-.5 3.8.8-4.5c.6-2.5 1-5 1.3-7.5l-.5 3.5a36 36 0 0 0 .8-7.2v-1.8a11.8 11.8 0 0 0-3-7.6l1.4 1.9v-.2l.8 2.2a9.9 9.9 0 0 0-1.1-2.7l.8 2-.1-.3v4a28.6 28.6 0 0 0 .4-3.2 7.2 7.2 0 0 0-2.4-5.3 7.2 7.2 0 0 0-6-1.3 15 15 0 0 0-3 1.2l3.7-1h-.2l2 .3a8.8 8.8 0 0 0-2.7-.3l2.4.3c-2.2-.3-3.3-.6-5.5 0a20 20 0 0 0-3.4 1.3 24 24 0 0 0-2.6 1.3 26.2 26.2 0 0 0-8.1 9c-2.7 4.7-4.4 9.8-6.5 14.7l1.6-3.7-2.8 7 1.6-3.7a22.3 22.3 0 0 1-2.8 4.8l2.5-3.3-1.7 2.3a8 8 0 0 0-2 3.5 21.1 21.1 0 0 0-1 2.3l1.6-3.9c-.8 1.8-2 3.6-2.2 5.5a11.6 11.6 0 0 0-.3 6 11.4 11.4 0 0 0 1.9 5.8 15.6 15.6 0 0 0 9.1 7 15.3 15.3 0 0 0 18.8-10.7l.2-.8-1.5 3.5a15.7 15.7 0 0 1 1-1.5l-12.2 7h.1l-7-2 .1.2-2.8-2.2h.1l-2.2-2.7.1.1-1.4-3.3v.2l-.5-3.7a.9.9 0 0 1 0 .4l.5-3.6v.1l1.3-3.2v.1l2-2.7v.1l5.9-3.5-.2.1 3.6-.5h-.2l13 16.9a15.3 15.3 0 0 0 .3-6l-.4 2.7 1-3.3.5-1.5c.4-1.2-.6 1.1-.2.4l.5-.7 1-1.7.4-.7.3-.6c-.3.6.2-.2.3-.3l.8-.9 1.3-1.5c1.8-1.9 3.8-3.7 5.5-5.7l2.3-3.2a24.2 24.2 0 0 1 2.8-3.1c.6-.6 0-2-1-1.6zm51.7 13.2a20.5 20.5 0 0 0 11.4 2.5 25 25 0 0 0 6.6-1.3l5-1.7-2.5.3q3.2 0 6.3-.2a87.2 87.2 0 0 0 8.8-1.2l12.4-2a37 37 0 0 0 6-1.3l6-2.1 5.8-2.3 3.1-1.3a26 26 0 0 0 3.3-1.4c2.9-1.7 4.2-4.5 4.9-7.6l-4.9 4.8 8.8-2.4 4.1-1.2a59.2 59.2 0 0 0 5.8-2.4l-7.2-12.3a28.2 28.2 0 0 0-2.7 2l-1.3 1.4s1.1-.6 0-.2l-.8.4-2 1-7.6 3a7.8 7.8 0 0 0-3.6 4.8 8.2 8.2 0 0 0 .4 5.2 8 8 0 0 0 9.3 4.5c3.7-1 7.3-2.3 10.9-3.4l11.1-3.6 5.4-1.7a50.5 50.5 0 0 0 7.2-3l10.4-5.3-2 .9c8-3.2 16.2-6.4 24.2-10q4.3-2 8.6-4.4a36.2 36.2 0 0 0 5-3.2l4.5-3.5 1.7-1.5.9-.7a3.9 3.9 0 0 0 .4-.4c.6-.6-1.3.9-.6.5a46.9 46.9 0 0 0 4-2.7c3.1-2.2 6.4-4.4 8.9-7.2s4.6-5.6 6.8-8.5a21.8 21.8 0 0 0 2.2-4.3l.3-.7c-.2.5.3-.3.5-.5l1.7-1.7a51.3 51.3 0 0 0 7-9.3c.1-.1.5-.7 0 0s.2 0 .4-.2l.4-.3c.3-.3.2-.2-.2.1l.3-.2a10.5 10.5 0 0 0 2.7-3.7 74.4 74.4 0 0 0 2.4-5 7.7 7.7 0 0 0 .7-5.1 6.4 6.4 0 0 0-3.8-4.3 6.3 6.3 0 0 0-5.2 0 7 7 0 0 0-3.9 4.3c-.3.8.2-.3.3-.5l-.3.7-.7 1.4-1.3 2.7a14.7 14.7 0 0 0-1.2 2.6c-.2.6 0 1.5-.2 2 0-.1.2-1.4 0-.5v.7c-.2-.1.5-1 0-.3l-.8 1.5c-2.1 3.5-4.4 7-6.6 10.4l1.6-1.7a26 26 0 0 1-2.3 1.4l-1 .7c-.3 0-.5.2-.7.3l-1.2 1c.8-.7.8-.7 0 0l-1.6 1.1-.6.5.4-.3-2.2 1.7-4.9 3.2c-2 1.5-3.8 3.2-5.7 4.8l-1.2 1-.4.3-.5.4-1.4 1a30.7 30.7 0 0 1-5.3 2.7c-1.8.9-3.7 1.5-5.4 2.5l-5 2.8a187 187 0 0 1-13.5 6.3l2-1-14.5 6c-5 1.9-9.9 2.9-14.8 4.5a78.2 78.2 0 0 0-9 4.2l-6.8 3.2c-4.7 2.3-9.6 4.4-14.3 6.9l9.6 12.4 6-4.8 1.6-1.2.8-.6c.8-.6.4-.4-1.2.7a6 6 0 0 0 1.8-.5 22 22 0 0 0 3-1.4c3.2-1.6 4.2-5.8 3-9a7.2 7.2 0 0 0-8.5-4c-5.7 1.5-11.2 3.7-16.8 5.5l6.8 1.8c-2-2-4-3.5-6.8-3.9a15 15 0 0 0-5 .3l-2.8.5-6.2 1-6.2 1a45.5 45.5 0 0 0-6.2 1.6l-12 3.2-6 1.6-6.2 2 2.6-.3h-5.5a47.2 47.2 0 0 0-7 .7l2.8-.4a14.4 14.4 0 0 1-3.3.1l2.8.4a7.8 7.8 0 0 1-1.8-.5l2.5 1h-.3a11.3 11.3 0 0 0-8-1.1 10.7 10.7 0 0 0-6.4 4.8c-2.6 5-1.3 11.5 3.8 14.5z"/><path d="M678.8 131a26.7 26.7 0 0 0-5.8 2l-3 1.7-6 3 4-1.8a62.8 62.8 0 0 0-6.2 2.6l-2.3 1.2q-2.5 1.3-5 2.3l4.3-1.8a94.8 94.8 0 0 1-12 4l-6 1.7-6.8 2a243 243 0 0 1-28.5 5.2l5-.7-13.3 1.7c-4.6.6-9.2 1-13.8 1.4l-27.2 2.2-7.7.5H547l-5.4.8a39.8 39.8 0 0 0-5 2.1l-1 .5a18.7 18.7 0 0 0-3.2 2.2 17.4 17.4 0 0 0-5.4 6.2l-1.9 4.3a13.8 13.8 0 0 0-.3 7.2 9 9 0 0 0 1.2 4.6 13.6 13.6 0 0 0 3.8 5.9 20.2 20.2 0 0 0 4.5 3.7 25.5 25.5 0 0 0 5.6 2.1l1.3.4c4.7 1.1 6.8.8 11.5 0l6.6-1.1c4.2-.8 8.5-1.4 12.7-2l26-3.9-5 .7c5.7-.7 11.5-1.2 17.2-1.8 7-.8 14.1-1.6 21.1-2.7a166 166 0 0 0 16.5-3.4 83.7 83.7 0 0 0 18-7.2 110 110 0 0 0 17-11.5l-3.4 2.7a36.8 36.8 0 0 0 4.6-3.8l1.3-1.5c1-1 1.8-2.1 2.6-3.2l4.4-5.8a19 19 0 0 0 2.7-6.7 13.3 13.3 0 0 0-3.4-12.8A13.2 13.2 0 0 0 679 131z"/><path d="M622 181.3a26 26 0 0 0-7.3-4.3 17.3 17.3 0 0 0-5.8-1.3h-3.8l-3.7-.2c-1.2 0-2.7.3-4 .4l-7.7.6c-5.2.3-10.4.9-15.6 1.1s-10.5.3-15.7 0q-9-.3-17.9-1.5l4.2.6a334 334 0 0 1-13.7-2.2c-2.2-.4-4.4-1-6.6-1.7a65.7 65.7 0 0 1-7-2l-13-5a59.7 59.7 0 0 0-6.5-2.4l-3.4-.7c-2.9-.6-6-1.5-9-1.3l-5.7.8a16.3 16.3 0 0 0-7.4 3.9 10.9 10.9 0 0 0-3.9 3.9 16.3 16.3 0 0 0-3.9 7.4 25.8 25.8 0 0 0 0 11.5 16.3 16.3 0 0 0 3.9 7.3 16.4 16.4 0 0 0 6 5.6l3 1.3a16.4 16.4 0 0 0 8.5 1.9l1.2.2 2.5.3a30.7 30.7 0 0 0 5.2.3l10.3-.4a99.8 99.8 0 0 1 10-.3c3.6.2 7.1.3 10.6.8l-4.3-.6c14 2 28 3.6 42 3.3 6.3-.2 12.5-.6 18.7-1.4A103.8 103.8 0 0 0 595 205a201.4 201.4 0 0 0 9-2.5 38.8 38.8 0 0 0 7.3-3.3c2.1-1.1 4.6-2.3 6.2-4a22.4 22.4 0 0 0 5.6-9.6 4.3 4.3 0 0 0-1.1-4.3z"/><path d="M550.1 190.4a46.8 46.8 0 0 1-6.2-1.8 59.6 59.6 0 0 0-10.6-2l5 .6c-11.6-1.6-23.2-3.9-34.8-5.9s-23.6-3.6-35.1-6.5l-34.2-9.2c-7.8-2-15.6-4.2-23.7-4.9-5.8-.5-11.6-.7-17.5-.8-13.3-.2-26.7-.2-40-2l7.8 1c-31.4-4.2-61.4-16-90.5-28.2l7 3a148 148 0 0 1-15.8-7.5 163.4 163.4 0 0 1-14.4-9.8A117.7 117.7 0 0 0 209 99.2l-7.8-1a22.2 22.2 0 0 0-11.4 2.6 14.8 14.8 0 0 0-6.4 3.7 22.2 22.2 0 0 0-7.6 8.3l-1.1 2.4 16.8-9.6c-3.1.3-6.2.8-9.3 1l4.3.5c-4.8-1-9.8-1.7-14.4-3s-9.4-3.3-14-4.9a16.4 16.4 0 0 0-12.6 1.7 16.8 16.8 0 0 0-6.6 7.7 15.6 15.6 0 0 0-.8 10.6 18.5 18.5 0 0 0 7.4 9.7c2.5 1.9 5.2 3.5 7.7 5.3l-3.4-2.6a195.9 195.9 0 0 0 21.6 16.4l-4.4-3.4a59 59 0 0 0 5 3.9l6 2.5-5.3-2.2a222.2 222.2 0 0 0 21.8 9.3l-5.8-2.4a37.3 37.3 0 0 0 6.9 2.8c2.2.5 4.8.7 7.2 1 1.1.2 2.3.4 3.4.4a34 34 0 0 0 16.2-4.5 20.8 20.8 0 0 0 10.3-15.7c1-7-1.3-12.9-6-18.1a33.4 33.4 0 0 0-14.4-9l-3-1c-3-1-6.4-1-9.6-1.5l6.3.9a179 179 0 0 1-9.2-1.5c-4.7-.9-9.6-2.5-14.3-2.5l5.9.8c-4-.5-7.8-1.2-11.6-2-3.7-.8-7.7-1.4-11.2-2.8l4 1.7q-4-1.9-7.7-3.9l-12.5 29.7c4.8 1 9.7 1.7 14.5 2.9s9.4 3 14 4.6l-3.9-1.6c2.6 1.6 5 3.6 7.5 5.4L172 125l-.2 2.6 1 7.8a22.1 22.1 0 0 0 5.3 10 14.8 14.8 0 0 0 5.3 5.3 22.1 22.1 0 0 0 10 5.3 132.2 132.2 0 0 1 16 5.2l-7-3c9.9 4.3 17.8 11.5 27 17.1 11 6.8 23.3 11.3 35.2 16 20.2 8.2 40.8 16 62.2 20.8a247.4 247.4 0 0 0 39.2 5.6c11.6.8 23.3.5 35 1a261.8 261.8 0 0 1 7.9.4 76.2 76.2 0 0 0 9-.3 454 454 0 0 1 17-.5h17.3c5.7 0 11.6-.3 17.4.1l38.7 3.6 18.8 1.4a68.2 68.2 0 0 0 9.4.3c4.7-.3 9-1.8 13.6-2.4l3.8-1.6a12.1 12.1 0 0 0 4.6-4.2 15.3 15.3 0 0 0 3.4-9.7 19.1 19.1 0 0 0-2.2-8.1 16 16 0 0 0-9.6-7.4z"/><path d="M176.8 118.4c2.7.4 5.3 1.8 8 2.6l7.5 2a63.4 63.4 0 0 0 12.4 2.7l8.7.5-6.4-.9a40.5 40.5 0 0 0 9.8.8l4.3-.5 8.6-1 23-3c11.6-1.8 23-4 34.6-5.7l-7.8 1c8.2-1 16.3-2 24.4-3.3 5.8-1 11.6-1.8 17.4-2.6l-8 1c25.2-3.3 50.4-5 75.7-6.2s50.7-2 76-1.2c14.2.4 28.4 1.5 42.5 3.4l-7.9-1c24 3.3 47.5 9 69.8 18.4l-7.1-3a200.9 200.9 0 0 1 43.7 25.2l-6-4.6q4.8 3.7 9.3 7.7c4.7 4.2 8.9 9 14.3 12.3l7 3a22.5 22.5 0 0 0 11.9.5 14.8 14.8 0 0 0 7.4-2 22.3 22.3 0 0 0 9.6-6 35.2 35.2 0 0 0 7.6-13.1c2.3-7.1.7-16.5-3-22.8-4.3-7.3-11.7-13.3-18.2-18.6a249.3 249.3 0 0 0-21.2-15.8A246.9 246.9 0 0 0 584 67.6a308.8 308.8 0 0 0-87.7-20.4 643 643 0 0 0-92-1.6c-32 1.3-64 3.3-95.9 7.6-8.7 1.2-17.6 2.2-26.2 4-7.5 1.6-15 4-22.4 6-14.3 4.2-28.5 9-42.8 13.2-5.4 1.5-10.8 2.7-15.8 5.3l5.7-2.4-10.8 4.2c-3.3 1.4-6.4 3.4-9.6 5l4.5-1.9-6.7 2.9 4.3-1.8-12.2 5.2 3.5-1.4a14.9 14.9 0 0 1-3.2 1.1c-5.5 1-10 7.5-9.8 13a15.7 15.7 0 0 0 1.8 6.7c1.4 2.5 5 5.7 8 6.1z"/><path d="m640.1 117.4-.3-.2 3.7 3.6a45.6 45.6 0 0 0-4-5.4l2.9 3.8a32.5 32.5 0 0 0-3.4-4.4 21.9 21.9 0 0 0-9.2-5.2l-2.7-.7-5.6-1.7 6 2.5c-4.6-3-8.3-3-13.6-3.7l6.8.9-3.1-1.3a15.3 15.3 0 0 0-1.5-.5l-3.8-.5a13 13 0 0 0-4.2-.5h-1c-2.5 0-5-.1-7.6.1-5 .5-10 .8-15 1-10 .3-20.2.2-30.2 0a1461 1461 0 0 1-63.5-2.7c-12.1-.9-24.3-2-36.4-3.6l7.9 1.1-41.4-6a219.2 219.2 0 0 0-34.2-1.6c-6.5.2-13 .7-19.5 1.5l29.8 29.8v-.3a22.4 22.4 0 0 0-2.6-11.5 22.3 22.3 0 0 0-6.1-9.6 22.3 22.3 0 0 0-9.6-6.1 22.4 22.4 0 0 0-11.5-2.6l-7.9 1a29.8 29.8 0 0 0-13.1 7.8l-4.7 6a29.6 29.6 0 0 0-4 15v.2a22.4 22.4 0 0 0 2.5 11.5 22.2 22.2 0 0 0 6.2 9.6l6 4.6a29.7 29.7 0 0 0 15 4 223.3 223.3 0 0 1 57.3.7l-7.8-1 45.4 6.4c12.8 1.5 25.7 2.5 38.6 3.2l38.4 1.6c12 .5 24.1 1 36.1.5 6.7-.2 13.5-.6 20.1-1.3a109 109 0 0 0 17-2.7l2.4-.7 1.2-.3c5.3-1.6 6.5-2.5 10.2-5.4 2-1.6 4-3.1 5.8-4.9l-5.1 4a27 27 0 0 0 9.6-9.5l-3.9 5 2.8-2.4-4.6 3.5c4-2.9 8.9-6.7 11.4-11 2-3.5 2.4-6.9 2.8-10.8a10.2 10.2 0 0 0 0-2.3l-.4 2.6v-.2l.4-2.6a7.2 7.2 0 0 0-.8-3.7 9.5 9.5 0 0 0-4-4.6z"/><path d="m345.7 155 .5 3.5a19.4 19.4 0 0 0 3.1 9.7c3 5.1 5.1 6.2 9.7 9.7l2.1 1.5-5.6-4.4.2.3 5.7 4.4 6.8 2.8.5.1a61.3 61.3 0 0 0 1.8.4 121.9 121.9 0 0 0 3.8.6 65.4 65.4 0 0 0 11.2 1h4.1a114.2 114.2 0 0 1 15.8 1l-7.9-1c5.3.7 10.6 1.6 15.9 2.5 7.7 1.3 15.5 2.4 23.3 3.4q16 2 32.1 3a523.6 523.6 0 0 0 64.7-.6q9-.6 18-1.5l9-1 4.4-.4c2.6-.4 5.8-.6 8.4-1.2a8 8 0 0 0 1-.2l3.6-1.5a22.2 22.2 0 0 0 9.5-6.2l4.7-6a50.8 50.8 0 0 0 3-7.3 22.4 22.4 0 0 0 .6-11.8 22 22 0 0 0-3.5-11l-4.6-6a29.5 29.5 0 0 0-13-7.6 10.6 10.6 0 0 0-4.2-.6 22.6 22.6 0 0 0-11.9.5 7.6 7.6 0 0 1-1 .3l8-1c-17 2-34 3.3-51 4a499.4 499.4 0 0 1-51-.8q-14.4-1-28.7-2.9l8 1c-12.4-1.6-24.5-4-36.9-5.3a108.9 108.9 0 0 0-14.5-.6l-7.4.3c-5 .2-9.9 1.2-14.8 2l7.5-1c-2.9.3-5.2 0-8.5 1l-6.8 2.9a49.7 49.7 0 0 0-6 4.6l5.7-4.3a52.4 52.4 0 0 1-2.1 1 25.6 25.6 0 0 0-9.7 9.6l-2.7 6.3a22.7 22.7 0 0 0-.9 6.8zm-82-89.5 1.5-.1a10.4 10.4 0 0 0 4.1-1.2l3.3-1.6 6.6-3-1.8.8a294.4 294.4 0 0 1 37.2-12.5c13-3.6 26-7.1 39.3-9.9 7.6-1.6 15.4-2.9 23.1-4l-3.5.5a167.8 167.8 0 0 1 44-.5l-3.8-.5a111 111 0 0 1 26 6.3l-3.6-1.5A108.9 108.9 0 0 1 447 44c1.8 1 3.4 2.2 5.1 3.3a22.9 22.9 0 0 0 6.3 2.6 20.2 20.2 0 0 0 10.5-.2 15 15 0 0 0 8.8-6.8 16.2 16.2 0 0 0 1.5-11.4 18.7 18.7 0 0 0-6-10 15.4 15.4 0 0 0-5-3.3l-6.3-2.6q-4.4-1.8-9-3.1c-6.4-1.8-12.8-3.6-19.4-4.8A159.4 159.4 0 0 0 390 5.8a235 235 0 0 0-24.7 3.7c-7.3 1.5-14.5 3.5-21.7 5.7a400.4 400.4 0 0 0-42.9 16 221.6 221.6 0 0 0-21 10.2 167.7 167.7 0 0 0-10 6.2l-5 3.4-2.5 1.8a11.7 11.7 0 0 0-3.4 4.2c-2 3.5.4 8.7 4.8 8.5z"/><path d="m355.6 30.4 2 .8.9.4a8 8 0 0 0 5.2 0 51.1 51.1 0 0 0 6-2.7l8.9-4.3-2 .8a27.6 27.6 0 0 1 6.6-1.8l-2.3.3a104.9 104.9 0 0 1 14-.4 100.2 100.2 0 0 1 12.7.4l-2.6-.3 1.5.2a9.7 9.7 0 0 0 5.2 0l.6-.1-2.5.3 1.4-.1a10.3 10.3 0 0 0 5.7-2 8.4 8.4 0 0 0 3.5-6.6c.1-5-4.3-9-9-10.3a28.4 28.4 0 0 0-8-.5c-2.4 0-4.7.3-7.1.4a160.3 160.3 0 0 0-16.4 1.6 34.4 34.4 0 0 0-13.8 5.8l-5.8 4a26 26 0 0 0-4.2 2.9 16.9 16.9 0 0 0-2.4 3.6c-1.5 2.3-.8 6.3 2 7.5zm-66 106.7A302.5 302.5 0 0 0 332 160c1.8.8 3.3-1.8 1.5-2.6a302.4 302.4 0 0 1-42.3-22.8c-1.6-1-3 1.6-1.5 2.6zm156.7 118.7a63.2 63.2 0 0 0 15.8-17l13.6-19.5A7.5 7.5 0 0 0 473 209c-3.8-2-7.9-.8-10.3 2.7l-13 18.9-2.9 3.9-.7 1c-.7 1 0 0 .2-.4l-1.5 2a43.3 43.3 0 0 1-3.4 3.6l-1.9 1.6c-1 .9 1.1-.8.4-.2l-1.2.8c-3.3 2.2-5 6.7-2.7 10.2 2 3.3 6.8 5 10.2 2.7zm-58-37.7a148 148 0 0 0-28-6.6 166 166 0 0 0-15.6-1.5c-4.7-.2-9.4-.3-14.1-1l2 .4a41 41 0 0 1-10.5-2.8l1.7.8c-3.4-1.6-6.7-3.4-10.2-5a118.5 118.5 0 0 0-12.8-4.5l-24-7c-3.7-1.2-8.3 1.3-9.2 5.2a7.7 7.7 0 0 0 5.3 9.2l17.8 5.3a170.6 170.6 0 0 1 17 5.6l-1.7-.8c4.4 1.9 8.5 4.3 12.9 6a50 50 0 0 0 13.5 3c4 .4 8.2.4 12.4.6q6.5.3 13 1.2l-2-.3a148.3 148.3 0 0 1 28.5 6.7c3.7 1.3 8.3-1.4 9.2-5.2a7.7 7.7 0 0 0-5.2-9.2zm-352.8 2.7A18.3 18.3 0 0 1 34 218l.8 1.8a21 21 0 0 1-1.4-5l.2 2a26.1 26.1 0 0 1 0-6.5l-.2 2a34.5 34.5 0 0 1 2.4-8.6l-.8 1.8c2.6-6 6.3-11.4 9.8-16.9l5.5-8.8a88.7 88.7 0 0 0 5.1-8.4 30.9 30.9 0 0 0 3-12l.3-10.7.7-21c.1-3.9.4-7.8.4-11.8a11.2 11.2 0 0 0-3.3-8.3 9.6 9.6 0 0 0-11.2-1.3 7.6 7.6 0 0 0-2.7 10.2 7.7 7.7 0 0 0 10.3 2.7l.3-.1-1.8.7h.3l-2 .2a1.8 1.8 0 0 1 .6 0l-2-.3.3.1-1.8-.7c.7.3.4 0-.7-.7q-1.2-1.7-.6-.6l-.7-1.8a5.7 5.7 0 0 1 .2 1.2l-.2-2a52.3 52.3 0 0 1-.1 5.6l-.2 6-.4 12-.4 12c-.1 3.7 0 7.6-.6 11.3l.3-2a19.4 19.4 0 0 1-1.3 4.7l.8-1.8c-1.9 4.2-4.7 8-7 11.8l-7.6 12c-5 8-9.5 16.4-9.9 26a26.9 26.9 0 0 0 4.2 15.7c2.1 3.2 6.7 5 10.2 2.7 3.3-2.1 5-6.8 2.7-10.3zM15.5 49l.8.1-2-.2A66.1 66.1 0 0 1 31 53.4l-1.8-.8a65.3 65.3 0 0 1 11.2 6l2.4 1.8c.6.5.5.4-.5-.3l.7.5 1.4 1.1a73.7 73.7 0 0 0 6.5 4.8c7.6 4.8 16.6 5.1 24.8 8.5l-1.8-.8a27.5 27.5 0 0 1 5.1 2.9l1 .8.7.5-.5-.4 3.3 2.5a44.8 44.8 0 0 0 11.4 6c7 2.7 14.5 3.8 21.5 6.8l-1.8-.8c6.6 2.9 12.3 7.4 18.1 11.6a82.1 82.1 0 0 0 20.9 11.1 70.2 70.2 0 0 0 12.1 3.1 8.2 8.2 0 0 0 5.8-.8 7.5 7.5 0 0 0 2.7-10.2 7.3 7.3 0 0 0-4.5-3.5 70.5 70.5 0 0 1-16-4.6l1.7.8a70.3 70.3 0 0 1-11.2-6L134 86.3a63.9 63.9 0 0 0-10.7-6.4 85.5 85.5 0 0 0-13-4.6 109 109 0 0 1-13-4l1.8.7a38 38 0 0 1-4.6-2.2 29.5 29.5 0 0 1-2.1-1.4l-1-.8c-1.3-1 .7.6.1.1-3.1-2.4-6.2-4.9-9.9-6.5a65 65 0 0 0-10.9-3.5 67 67 0 0 1-10-3l1.9.8a30.7 30.7 0 0 1-5.7-3.2l-1-.8-.8-.5.5.3-2.5-2A75.8 75.8 0 0 0 41.6 42a75.6 75.6 0 0 0-26.2-8c-1.8-.2-4.1 1-5.3 2.2a7.5 7.5 0 0 0 0 10.6 8.7 8.7 0 0 0 5.3 2.2z"/></g><g fill="#efefef"><path d="M634.5 144.4a2 2 0 0 1-.4-.3l-.1-.1a.2.2 0 0 0-.3 0 .2.2 0 0 0 0 .2l.3.2a1.7 1.7 0 0 0 .4.1h.1v-.1z"/><path d="M633.5 144.3a2.8 2.8 0 0 0 .7-2.5 1 1 0 0 0-1.8-.2 2.2 2.2 0 0 1-.3.3 3 3 0 0 0-.5.5l-.6 1 2.5 1 .4-5.2a14.2 14.2 0 0 0-.2-5l-2.5 1.1a37.9 37.9 0 0 1 2.2 4.4l.5 1.2.2.5.1.3c0-.1 0-.1 0 0l.1.3v-.1a.9.9 0 0 1 .2-.5.7.7 0 0 1 .6-.2h.1q-.2 0 0 0l-.3-.1.2.2a1.8 1.8 0 0 0-2.6-.5 1.8 1.8 0 0 0-.1 2.7 3.3 3.3 0 0 0 3.9.4 2.4 2.4 0 0 0 1-2 4.5 4.5 0 0 0-.6-1.8 60 60 0 0 0-3.2-6.2 1.4 1.4 0 0 0-2.5 1.1 12.9 12.9 0 0 1 0 4.3l-.2 4.8a1.3 1.3 0 0 0 1 1.3 1.3 1.3 0 0 0 1.5-.6l.5-1.2a2.3 2.3 0 0 0 .3-.8 1.8 1.8 0 0 1 0-.5h-1.8a1.4 1.4 0 0 1 0 1.1c-.3.7.6 1.6 1.2 1zm8.5-2.3a2 2 0 0 0 1.6-1.5l.3-1.2a14.4 14.4 0 0 0 .3-2.8l-3.2.4.5 2 .7 1.8a1.7 1.7 0 0 0 .7 1 1.6 1.6 0 0 0 1.2.1 1.6 1.6 0 0 0 1.1-2l-.5-1.8-.6-1.9a1.6 1.6 0 0 0-3.2.5 20.4 20.4 0 0 1-.2 3v-.4a4.6 4.6 0 0 0 0 1.5 2.3 2.3 0 0 0 0 .5 1.3 1.3 0 0 0 1.3.8zm7-2.6c.9-.4.8-1.7 1-2.6s0-1.7.1-2.5a32.9 32.9 0 0 0-.3-5.3l-2.3 1a11.6 11.6 0 0 1 1.4 4.4 16 16 0 0 0 .6 2.4l.6 1.3a3.6 3.6 0 0 1 .2 1.1l2.5-1a3.1 3.1 0 0 0-1.3-.9 2.3 2.3 0 0 0-.6-.1h-.5c-.3 0-.3 0 0 0l.6.5.1.5-.2.7-.5.5c1-.7 2.3-.9 2.6-2a1.3 1.3 0 0 0-.9-1.6 3 3 0 0 0-2.3.6c-.8.4-1.6.8-1.6 1.8a1.8 1.8 0 0 0 1.4 1.8 3.5 3.5 0 0 0 .7 0h.1l.2.1c-.2-.1.1.2.1.2a1.4 1.4 0 0 0 2.5-1 9.2 9.2 0 0 0-1-3.1 15.9 15.9 0 0 1-.7-2.4 13.3 13.3 0 0 0-2-5 1.3 1.3 0 0 0-2.2 1 31.7 31.7 0 0 1 .4 4.7l-.1 2.4c0 .9-.4 2 .3 2.5a.8.8 0 0 0 1 .2zm8.6-3c.9 0 1.3-1 1.4-1.8a15.4 15.4 0 0 0 .2-1.8 10.2 10.2 0 0 0 0-1.6l-.3-2.2v1l-.2.4a2.1 2.1 0 0 0 0-2.2 2.2 2.2 0 0 0-1.2-1 2 2 0 0 0-2.6 2 11.3 11.3 0 0 0 .3 1.9 9.2 9.2 0 0 0 .6 1.6 17 17 0 0 0 1.4 2.3 2.6 2.6 0 0 0 1.5 1.3 2 2 0 0 0 2-.5 2.4 2.4 0 0 0 .6-1.6 2.7 2.7 0 0 0-.6-1.5 16.4 16.4 0 0 1-1.3-2.4l.2.5-.4-1.1.2.5a7.2 7.2 0 0 1-.5-1.5l-3.4 2 .1.1-.5-.8 1 3.2.1.7v.5q0-.2 0 0v.4c0 .3.1.4 0 .2a1.3 1.3 0 0 1 0 .2 1.1 1.1 0 0 0 1.1 1zm8.8-3.5a3.1 3.1 0 0 0 .3-.4 1.6 1.6 0 0 0 .3-.9v-1.9a1.7 1.7 0 0 0-.5-1.2l-.4-.2a1.3 1.3 0 0 0-.6-.2.9.9 0 0 0-.5 0 1.3 1.3 0 0 0-.6.2 1.7 1.7 0 0 0-.8 1l.4-.7a2.3 2.3 0 0 0-.5 1 3.4 3.4 0 0 0-.1.8 8.8 8.8 0 0 0 .1 1.1 4.6 4.6 0 0 0 .2.6.8.8 0 0 0 0 .2 2.4 2.4 0 0 0 .5 1l.2.2.4.2a1.4 1.4 0 0 0 .7.3 1 1 0 0 0 .5 0 1.4 1.4 0 0 0 .6-.3 2.2 2.2 0 0 0 .7-.6 1.5 1.5 0 0 0 .2-.7 1.3 1.3 0 0 0 0-.7v.5-.2a3.2 3.2 0 0 0 0-.6l-.2-.4a5.9 5.9 0 0 1-.2-.8l.1.5v-.5a2.7 2.7 0 0 0 0-.6 2 2 0 0 0-.3-.6l.1.4.1.5-3.4.4.4 1.2.1.6a2 2 0 0 0 1 1.1 1.2 1.2 0 0 0 1.3-.2zm5-11.6a1.8 1.8 0 0 0-1 1.6l.2 1.4v-.5l.6 4v-.5l.1 2a2 2 0 0 0 1 1.6 2 2 0 0 0 2 0 4.3 4.3 0 0 0 2.4-3.3 2.8 2.8 0 0 0-.8-2l-.3-.2c-.1-.1 0 0 0 .2 0-.3.2.5.2.1v.5a.6.6 0 0 1 0-.1l-3.5 1 .7 1a4.2 4.2 0 0 0 .8 1 2.2 2.2 0 0 0 1.4.4 1.7 1.7 0 0 0 1.6-1.2 2.3 2.3 0 0 0-.5-2.1l-.7-1a2 2 0 0 0-2.2-.9 2.2 2.2 0 0 0-.8.5 2 2 0 0 0-.6 1.3 2.6 2.6 0 0 0 .8 2l.4.4-.1-.2c.1.2-.2-.5-.1-.1v-.5a1 1 0 0 1 0 .1v-.5s.2-.3 0-.1l.1-.2a4 4 0 0 1-.3.4s-.3.2 0 0a4 4 0 0 1-.5.2l3 1.7-.5-3.7a14.1 14.1 0 0 0-.8-3.2 2 2 0 0 0-.6-.9 2 2 0 0 0-1-.4 1.6 1.6 0 0 0-1 .3zm9.2 6.4 1-.8a3.8 3.8 0 0 0 .7-1 5.2 5.2 0 0 0 .9-2.7V121l.1-2.4-3.5.5a16.1 16.1 0 0 0 .9 2.8l.2.5c.1.2 0 0 0 .1l.4 1a13.4 13.4 0 0 0 .7 1.2 6 6 0 0 0 1 1.4 1.9 1.9 0 0 0 2.6 0 2.2 2.2 0 0 0 0-2.7l-.3-.7-.2-.3c-.4-.8.5.8-.5 1.3l-.8.2a.8.8 0 0 1-.8-.3 1.1 1.1 0 0 1 .1.2l.3.4c0 .2.3.4 0 0l.4.8a1.7 1.7 0 0 0 3-.8 3.7 3.7 0 0 0-1-2.4 2.5 2.5 0 0 0-2.4-.9 1.9 1.9 0 0 0-1.1 2.5 8 8 0 0 0 .3.7l.1.5.1.2c.3.7.3.5 0-.4l.5-.7.2-.1.8-.3.8.3c.3.3.4.4.3.2a1.7 1.7 0 0 0-.2-.2l-.2-.3-.4-.7-.3-.7-.2-.3c-.2-.5.1.3 0-.2l-.5-1.4-.2-.9v-.4c0-.2-.1-.5 0 0a1.8 1.8 0 0 0-1.6-1.8 1.8 1.8 0 0 0-2 1.3 20.3 20.3 0 0 0-.2 2.4 17.7 17.7 0 0 0 0 2.2 8.5 8.5 0 0 1 0 1c0 .1 0 .1 0 0v.2a4.7 4.7 0 0 1-.1.5l-.1.2c0-.2 0-.2 0 0a3.3 3.3 0 0 0-.3.7 6 6 0 0 1-.3.9 1.2 1.2 0 0 0 1.7 1.3z"/><path d="M682.6 120.7a2.6 2.6 0 0 0-1.4 1.2 9.5 9.5 0 0 0-.5 1.3 10.2 10.2 0 0 0-.5 2 2.2 2.2 0 0 0 .1 1.3 1.9 1.9 0 0 0 .8 1 2 2 0 0 0 2.4-.3 4.5 4.5 0 0 0 1.1-2.8 17.4 17.4 0 0 0 .2-1.8v-.6a2.1 2.1 0 0 0-.6-1.7 1.8 1.8 0 0 0-2.1-.2 2.2 2.2 0 0 0-1.1 1.5l-.2 1-.3 2.1v-.5a3.5 3.5 0 0 1 0 .6l.1-.5a2 2 0 0 1-.1.4l.3-.4h-.1l3.3 1.5.1-.8v.5l.3-2.5v.5a7.2 7.2 0 0 0 0-.7 2.5 2.5 0 0 0 0-.7 2.2 2.2 0 0 0-.5-1 1.4 1.4 0 0 0-1.4-.4z"/><path d="M681.9 121.8a2 2 0 0 0-.6.8v.4l-.3.8-.6 1.6.2-.4-.5 1a1.9 1.9 0 0 0 .2 1.5 1.8 1.8 0 0 0 1.3.8 1.8 1.8 0 0 0 2.1-1.8 1.6 1.6 0 0 0 0-.5 1.8 1.8 0 0 0-.8-1l.3.3.3.3v1.9a6.2 6.2 0 0 0 .5-1.4 7.7 7.7 0 0 0 .3-1.4 9.2 9.2 0 0 0 0-1.1 5.2 5.2 0 0 0 0-.5 1.8 1.8 0 0 0-.2-.9 4 4 0 0 0-.4-.4 1.3 1.3 0 0 0-.9-.4 1.4 1.4 0 0 0-1 .4zm8.9-2.3a4.2 4.2 0 0 0-.4 1.1l-.2.9a5.4 5.4 0 0 0-.2 1 2.8 2.8 0 0 0 .4 1.4 1.6 1.6 0 0 0 .5.5 1.5 1.5 0 0 0 1 .2 1.5 1.5 0 0 0 1.3-1 14 14 0 0 0 .5-4l-3 .7 1 1.5.5.8.2.3a2.8 2.8 0 0 0 .8.9 1.5 1.5 0 0 0 .8.2 1.5 1.5 0 0 0 1-.4 1.5 1.5 0 0 0 .5-.6 1.7 1.7 0 0 0 0-1 3 3 0 0 0-.5-1l-.5-.8-1-1.5a1.7 1.7 0 0 0-.8-.6 1.5 1.5 0 0 0-1-.1 1.6 1.6 0 0 0-1.2 1.5 19.7 19.7 0 0 1-.1 3v-.4.6l2.7-.3a2 2 0 0 1-.1-.2l.1.3a1.6 1.6 0 0 1 0-.3v.4a5.9 5.9 0 0 1 0-1.2 5.6 5.6 0 0 0 0-1.6 1.2 1.2 0 0 0-2.3-.3z"/><path d="M699.7 121.5c1.4-1.2 1-3.2 1.2-4.8v.4l-.2.4v-.1l-.3.3a2.1 2.1 0 0 1 .2-.2l-3.3-1.9a4.6 4.6 0 0 0 .3 2.5l.4 1.5.4 1.6a3.7 3.7 0 0 0 1.5 2.3 2.1 2.1 0 0 0 3-1.8 3.6 3.6 0 0 0-.3-1.5l.2.5a24.4 24.4 0 0 1-.8-2.6l-.4-1.4-.3-.7v-.3a2.5 2.5 0 0 0-1-1.3 2 2 0 0 0-2.3.2 1.9 1.9 0 0 0-.6.8 1.9 1.9 0 0 0 0 1.2l.3.9-.3-1a18.5 18.5 0 0 0 .3 3l-.1-.4a7 7 0 0 1 0 1.5 1.2 1.2 0 0 0 .7 1.1 1.2 1.2 0 0 0 1.3-.2zm-7.3-1.8.2.3a.4.4 0 0 1 0-.1v.3a.8.8 0 0 1 0-.2v.4-.1h-3a23 23 0 0 1-.2 2.6v-.4.5a1.3 1.3 0 0 0 .1.6 1.4 1.4 0 0 0 .6.7 1.5 1.5 0 0 0 1.9-.2 4.3 4.3 0 0 0 1-4.3 1.6 1.6 0 0 0-.7-.9 1.6 1.6 0 0 0-1-.1 1.4 1.4 0 0 0-.8.4 1.5 1.5 0 0 0-.5 1 3.4 3.4 0 0 0 .4 1.3 3.4 3.4 0 0 0 .5.7 6.4 6.4 0 0 0 1.1 1 1.5 1.5 0 0 0 1.2.1 1.5 1.5 0 0 0 .9-.6 1.5 1.5 0 0 0 .1-1.2l-.1-.4a1.6 1.6 0 0 0-.6-.5 1 1 0 0 1-.1-.1l.3.2a4.3 4.3 0 0 1-.7-.7l.2.3a2.2 2.2 0 0 1-.2-.4l.1.4a1.6 1.6 0 0 1 0-.4v.4l-3 .4a2.8 2.8 0 0 1 .1.5v-.4a2.8 2.8 0 0 1 0 .7v-.4a3.2 3.2 0 0 1-.2.7l.2-.3a2.6 2.6 0 0 1-.4.6l.2-.3a2.7 2.7 0 0 1-.2.2l2.5 1.5a25.4 25.4 0 0 0 .3-3.1 1.6 1.6 0 0 0-.5-1.1 1.5 1.5 0 0 0-1-.4 1.5 1.5 0 0 0-1 .4 1.6 1.6 0 0 0-.5 1 1.8 1.8 0 0 0 0 .7 2.4 2.4 0 0 0 .6 1 1.5 1.5 0 0 0 2.6-1.1v-.4a1.6 1.6 0 0 0-.5-.7z"/><path d="M697.8 116.3a45.8 45.8 0 0 0-.2 4.7 1.5 1.5 0 0 0 3 .4 11.4 11.4 0 0 0 .3-4.6h-3a11.3 11.3 0 0 0 .3 2.2 5.2 5.2 0 0 0 .5 1 9.5 9.5 0 0 0 .8 1l-.3-.2a2.3 2.3 0 0 1 .3.4l-.2-.3a1.3 1.3 0 0 1 .1.2 1.5 1.5 0 0 0 1.7 1 1.5 1.5 0 0 0 1.3-1.4v-.2a1.5 1.5 0 1 0-3 0v.2l2.9-.4a3.8 3.8 0 0 0-1-1.7l.2.3a3.2 3.2 0 0 1-.4-.7l.2.4a6 6 0 0 1-.4-1.6v.4l-.1-.6a1.7 1.7 0 0 0-.4-1 1.6 1.6 0 0 0-1.1-.5 1.5 1.5 0 0 0-1.5 1.5 15 15 0 0 1 0 3.1v-.4a6.6 6.6 0 0 1-.2 1.1l3 .5a45.8 45.8 0 0 1 0-4.7 1.5 1.5 0 0 0-.4-1.1 1.5 1.5 0 0 0-1-.4 1.5 1.5 0 0 0-1.5 1.5zm-5 2.6-.5-.3a1.5 1.5 0 0 0-1.5 0 1.4 1.4 0 0 0-.5.5 1.5 1.5 0 0 0-.3.5 2.1 2.1 0 0 0 0 1 5.3 5.3 0 0 0 .4 1.1 3.6 3.6 0 0 0 .4.7 6 6 0 0 0 .8 1 1.6 1.6 0 0 0 .8.3 1.5 1.5 0 0 0 1-.1 1.7 1.7 0 0 0 .6-.6 1.5 1.5 0 0 0 .1-1.1 17 17 0 0 0-1-2.5 1.5 1.5 0 0 0-.9-.7 1.6 1.6 0 0 0-1 0 1.5 1.5 0 0 0-.7.7 1.6 1.6 0 0 0-.2 1.1l.8 2.6a1.5 1.5 0 0 0 1.8 1 1.5 1.5 0 0 0 1-1.9l-.7-2.5-2.7 1.1.4.8-.2-.3.5 1.3 2.5-1.5a3.2 3.2 0 0 1-.4-.4l.2.3a4.7 4.7 0 0 1-.5-.9l.1.4a3.2 3.2 0 0 1-.2-.7v.4a1 1 0 0 1 0-.2v.4l-.1.3-.3.2-.2.3h-1.5l.4.2a1.6 1.6 0 0 0 1.1.2 1.5 1.5 0 0 0 .9-.7 1.5 1.5 0 0 0 .1-1.2 1.6 1.6 0 0 0-.6-.9zm-11.2 4.2a18.6 18.6 0 0 0 3.6 3.3 1.5 1.5 0 0 0 1.2.2 1.5 1.5 0 0 0 1-1.9 1.7 1.7 0 0 0-.6-.9l-.7-.5.3.3a17.3 17.3 0 0 1-2.7-2.7 1.5 1.5 0 0 0-1-.4 1.5 1.5 0 0 0-1.1.4 1.5 1.5 0 0 0-.5 1v.5a1.4 1.4 0 0 0 .4.7z"/></g><g fill="#ba7019"><path d="M501.5 99.8a9.5 9.5 0 0 0-1.2 2.8l-.7 2.8-1.3 6.2c-.8 4-1.1 8.3-1.7 12.4s-1 8.4-1.3 12.6c-.2 2.1-.1 4.2-.1 6.3s-.5 4.8.6 6.6a2.5 2.5 0 0 0 4.3 0c1-1.9.5-4.5.4-6.6v-18.4c0-4 .7-8 1.1-12l.6-6.2.3-2.9.2-1.4a8.8 8.8 0 0 0-.2-2 .5.5 0 0 0-1-.2zm-21.6 8.6c-1 1.6-1 3.5-1.2 5.2a34.8 34.8 0 0 0-.3 5 21.8 21.8 0 0 0 .8 4.9 22.2 22.2 0 0 1 .4 2.8 4.8 4.8 0 0 0 .5 2 .3.3 0 0 0 .5 0 5 5 0 0 0 .3-2 15.4 15.4 0 0 1 0-2.4l1-5 .3-5c0-1.7.4-3.5 0-5.1a1.2 1.2 0 0 0-2.3-.3zm16 97.3c-.6 1.2-.4 2.7-.8 4a11.4 11.4 0 0 1-1.9 3.5 27 27 0 0 1-5.6 5.4 56.6 56.6 0 0 1-7 4.2l-7.6 4.3a4 4 0 1 0 4 6.8 84 84 0 0 0 8.3-5.7 60 60 0 0 0 6.9-6.4c2-2.3 4.2-4.9 5.2-8a13.3 13.3 0 0 0 .6-4.3c0-1.4-.2-3-1.2-4a.6.6 0 0 0-1 .1zM338 133.3a5 5 0 0 0-1.1 2.8l-.5 2.8a40.9 40.9 0 0 0-.2 5.8 53.2 53.2 0 0 0 .6 5.9l.4 2.6a5 5 0 0 0 1.3 3 2 2 0 0 0 3.3-.8 5 5 0 0 0-.3-3l-.6-2.6a34.5 34.5 0 0 1-.6-5.2 43.6 43.6 0 0 1 0-5.3l.3-2.7a5.5 5.5 0 0 0 0-2.7 1.6 1.6 0 0 0-2.6-.7zm2.3-58a18.7 18.7 0 0 0-2.1 5.1 42.5 42.5 0 0 0-1.4 5.7 31.5 31.5 0 0 0 .5 12c.8 2.7 5.3 2.3 5.1-.7l-.6-5.7-.3-5.2a45.6 45.6 0 0 1-.1-5.2l.5-5.6a.9.9 0 0 0-1.6-.4zm-59.6 4.2a3.9 3.9 0 0 0-1.1 2 18.8 18.8 0 0 0-.5 2.7 44.7 44.7 0 0 0-.3 5.5l-.1 5.3a13.3 13.3 0 0 0 1.3 6.2c1.1 2 4.5 1.2 4.4-1.3a14 14 0 0 0-.6-2.9l-.8-2.6a20.9 20.9 0 0 1-1.2-5 45.6 45.6 0 0 1-.3-5.2v-2.7a4.5 4.5 0 0 0-.5-2 .2.2 0 0 0-.3 0zm25 34.3-1.4 4.3a19 19 0 0 1-.7 2.3 7 7 0 0 0-.7 2.2 30.3 30.3 0 0 0-.1 9.8 2.2 2.2 0 0 0 2.5 1.6 2.3 2.3 0 0 0 2-2.2c0-1.5-.2-3-.3-4.4V123a7.5 7.5 0 0 0-.3-2.2 7.5 7.5 0 0 1-.2-2 20.9 20.9 0 0 1-.1-2.1l.3-2.7a.5.5 0 0 0-1-.2zm-10.3 55.8a3.9 3.9 0 0 0-.7 2.3l-.3 2.5a28.2 28.2 0 0 0-.3 5.4 48.8 48.8 0 0 0 .9 5.6 23.5 23.5 0 0 0 .7 2.5 11.5 11.5 0 0 0 1.2 3 2.4 2.4 0 1 0 3.8-3h-.1a2.1 2.1 0 0 0-2.1-.6h-.1l3 2.3a28.5 28.5 0 0 0-1.6-5.2 44.4 44.4 0 0 1-1.4-5c-.3-1.7-1-3.3-1.3-4.9l-.3-2.5a4.5 4.5 0 0 0-.4-2.4.7.7 0 0 0-1 0zM254.6 134a4.8 4.8 0 0 1-1 .2 2.6 2.6 0 0 0-1 .6 6.5 6.5 0 0 0-1.3 2 14 14 0 0 0-1 5.2 20.9 20.9 0 0 0 .6 6 23.9 23.9 0 0 0 1 2.8 9 9 0 0 0 1.7 3 1.8 1.8 0 0 0 2.9-1.7 14.5 14.5 0 0 0-1-2.4 24.2 24.2 0 0 1-.9-2.5 29.7 29.7 0 0 1-1-5 12 12 0 0 1 .2-4.1 10.7 10.7 0 0 1 .8-2c.2-.5.1-1.2.5-1.6a.3.3 0 0 0-.4-.5zm.9-77a13.4 13.4 0 0 1 2.4 0 6.5 6.5 0 0 0 2.3 0l4.9-1 9.6-2a394.9 394.9 0 0 0 18.7-4.3l37.2-9.2A663.3 663.3 0 0 1 405.5 27a388.5 388.5 0 0 1 42.9-3 4.4 4.4 0 1 0 0-8.7 529.9 529.9 0 0 0-76.8 9.2 892.5 892.5 0 0 0-37.9 8.4l-37.4 9.3c-7 1.8-13.8 3.8-20.7 6-3.5 1-6.9 2-10.3 3.2l-5.1 1.6a7 7 0 0 0-2.6 1.2 14 14 0 0 1-2.5 1.5.6.6 0 0 0 .4 1.2z"/><path d="M449.2 17.8v.2l-.3-1.4a3.2 3.2 0 0 0 .9 2.1 5 5 0 0 0 1 .7 5.2 5.2 0 0 0 1.6.7 15.6 15.6 0 0 0 3.3.2 5.7 5.7 0 0 0 1.3-.2 9.5 9.5 0 0 0 1.2-.5l1-.5a4.9 4.9 0 0 0 1.4-1.1 3.7 3.7 0 0 0 .6-1.2 1.1 1.1 0 0 0-.3-1l-.4-.5a3.6 3.6 0 0 0-1.3-.7 13.5 13.5 0 0 0-1.7-.3 7.7 7.7 0 0 0-1.5-.3h-.9a12 12 0 0 1-1.9 0h.9c-1.5-.1-3.2-.5-4.4.7l1.2-.7-.3.1a2.5 2.5 0 0 0-1.5 3.7zM34.5 101.6a2.5 2.5 0 0 0 .7 2.2 3.9 3.9 0 0 0 1.4 1A27.7 27.7 0 0 0 40 106l6.4 1.8a91.7 91.7 0 0 0 13.4 2.3 114.9 114.9 0 0 0 26.6-.5 56.6 56.6 0 0 0 14.6-4c.5-.2.5-1-.1-1l-13.1 1a118 118 0 0 1-13.3.3 147 147 0 0 1-26.2-3.2l-7.1-1.8c-2-.5-5.7-2-6.7.6zm11.6 46c1.9 1.3 3.8 1 6 1l6.5-.3a110.9 110.9 0 0 0 13-2 97 97 0 0 0 12.4-3.7 82.4 82.4 0 0 0 11.8-5.2.3.3 0 0 0-.2-.5c-4.1 1.2-8.3 2.4-12.4 3.4s-8.2 1.7-12.3 2.4-8.2 1.2-12.3 1.6l-6.5.4c-2.1.2-4.1 0-6 1.2a1 1 0 0 0 0 1.7zm-9.7 31c1.6.9 3.4 0 5-.3l6.2-1.6c4.2-1 8.4-2.3 12.6-3.6l12.6-3.6c4.2-1.3 8.4-3 12.6-4.6a.3.3 0 0 0-.2-.6c-4 .7-8.1 1.6-12.1 2.5s-8.1 2.3-12.2 3.4L49 173.5l-6 1.8-2.8.8c-.5.2-2 1-2.7.7-1.2-.6-2.3 1.2-1 1.9zM20 220.5a207 207 0 0 0 25.3-7.5c8.3-3.1 16.4-6.5 24.3-10.4a49.3 49.3 0 0 0 6.4-3.7 58.3 58.3 0 0 0 6-4.4.7.7 0 0 0-.7-1.2c-2 .6-4 1.5-6 2.2l-6 2.4-12 5.4c-7.9 3.5-16 6.3-24.1 9.3q-7 2.6-14 4.8a1.6 1.6 0 0 0 .8 3.1zM9.1 52.1 34 58.4c4 1 8.1 2.3 12.3 3.1l12.6 2.7a.4.4 0 0 0 .3-.8q-6-2.5-12-4.6a378.3 378.3 0 0 0-37.4-9.3c-1.6-.3-2.3 2.2-.7 2.6zm217.3 36.8c-3.3 2.6-4.7 7-4.6 11a30.5 30.5 0 0 0 4 13.8c.2.2.7.1.6-.2-.5-4.3-1.7-8.5-1.7-12.8a24.4 24.4 0 0 1 2.6-11c.2-.4-.4-1.2-1-.8zm-6.1 55.2a8.8 8.8 0 0 0-1.6 1 6.3 6.3 0 0 0-1.3 2.5 19.4 19.4 0 0 0-.9 5.2 13.7 13.7 0 0 0 3.3 9.5c.4.5 1 0 1-.5a52 52 0 0 1-.7-9.1 26.3 26.3 0 0 1 .6-4.4 9.3 9.3 0 0 0 .2-2.4c0-.6-.2-.8-.3-1.6 0-.2-.2-.3-.3-.2zm-21.6-28.9a4.5 4.5 0 0 0-4.2 2.9 16 16 0 0 0-1.4 6.7 22.4 22.4 0 0 0 4.5 14.4c.3.3.8 0 .7-.5a32.5 32.5 0 0 1-.7-3.3l-.4-3.2-.5-6.3a28.8 28.8 0 0 1 .3-5.8 8.5 8.5 0 0 1 1.8-4.4.3.3 0 0 0-.1-.5zm430.2 16.3c-.4.5-.7.4-1.2.6a2.8 2.8 0 0 0-.8 1l-1 2.3-2.2 5.1c-1.3 3.2-2.4 6.4-1.4 9.8.1.2.6.3.7 0a15.2 15.2 0 0 1 1.8-4.2 47.3 47.3 0 0 0 2-4.7l1.7-4.7.9-2.3a3.8 3.8 0 0 0 .2-1.2c0-.5-.5-.9-.3-1.4a.3.3 0 0 0-.5-.3z"/><path d="m627.9 137.2-.3.3.3-.3a1.9 1.9 0 0 0-.8.7 4.9 4.9 0 0 0-.6 1l-1 2a10.7 10.7 0 0 0-.5 2 3.7 3.7 0 0 0 .2 2.2.4.4 0 0 0 .5.2 3.7 3.7 0 0 0 1.4-1.3 9.5 9.5 0 0 0 1-2.2 19.6 19.6 0 0 0 .5-2 3.4 3.4 0 0 0 0-2.3v.3-.4c0-.5-.5-.6-.7-.2zm5.9-5.4v.1-.4a1.2 1.2 0 0 0 0 1l.3.8a8 8 0 0 0 .3 1 2 2 0 0 0 .3.5l.4.5 1.1 1.4.6.7a8 8 0 0 0 .7.6 1.6 1.6 0 0 0 2.1.1 1.6 1.6 0 0 0 .4-2l-.4-.8a12 12 0 0 0-.8-1l-1.2-1.3a4.3 4.3 0 0 0-.9-.8 6.3 6.3 0 0 0-.7-.4l-.8-.4c-.2-.1-.7-.4-1-.2h.2c-.4-.3-.7.2-.6.5zm13-5a3.9 3.9 0 0 0-.5.1 3.2 3.2 0 0 1-.5.3h.3c-1-.6-1.9 0-2.5.7a4.7 4.7 0 0 0-1 2 5.8 5.8 0 0 0 .5 4.2 1.6 1.6 0 0 0 1.8.8l.4-.2a1.6 1.6 0 0 0 .7-1.7l-.2-.7-.1-.3a.9.9 0 0 0 0-.2v.2-1.1.1a1.7 1.7 0 0 0 0-.2l.2-.7v-.2c0 .3 0 0 0 0l.2-.5.2-.6a1.7 1.7 0 0 0-.1-1.4v.3a2.8 2.8 0 0 1 .8-.7.2.2 0 0 0-.1-.3zm7.5-1.6a1.3 1.3 0 0 1 0 .2l.2-.2a.9.9 0 0 0-.6.5l.2-.2a1.6 1.6 0 0 0-.6.6l-.2.5a5.3 5.3 0 0 0-.4 1.6 6.6 6.6 0 0 0 0 1.1 2.7 2.7 0 0 0 .5 1.6 1 1 0 0 0 1 .4 1 1 0 0 0 .7-.6.6.6 0 0 0 0-.1 1.7 1.7 0 0 0 .2-.7 3.9 3.9 0 0 0 0-.6v-1.1a9.7 9.7 0 0 0 0-1.3l-.1-.5v-.1a1.2 1.2 0 0 0-.2-.6l.1.3a.9.9 0 0 0-.3-.7l.1.2v-.1a.3.3 0 0 0-.6-.2zm5.9 0a1.3 1.3 0 0 0-.8.7v.6a5.8 5.8 0 0 0 0 .6 3.8 3.8 0 0 0 .3 1.6 6.8 6.8 0 0 0 1.7 2.7 1.5 1.5 0 0 0 1.7.2h-1.4c.6.4 1.4.6 2 0a1.3 1.3 0 0 0 .2-1.3l-.3-.6v1.3a1.4 1.4 0 0 0 0-1.4l-.7-1-.3-.7-.1-.2c-.1-.1 0-.1 0 .1v-.1l-.3-.6a4.9 4.9 0 0 0-.3-.9l-.1-.2-.1-.2v.1a1.3 1.3 0 0 0-.9-.8.9.9 0 0 0-.7 0zm7-1.8v.4l.2-.4a1.3 1.3 0 0 0-.4 1 7.4 7.4 0 0 0 0 .8 7.3 7.3 0 0 0 .5 1.1c.4 1 .7 2.3 2 2.4l-.5-.1h.2a.7.7 0 0 0 1-.2 2.4 2.4 0 0 0 0-.4l-.2.4a1.8 1.8 0 0 0 .3-1.9l-.4-1a5.2 5.2 0 0 0-.6-1.4 4.4 4.4 0 0 0-.5-.6.7.7 0 0 0-.4-.2c0-.1 0-.1-.1 0a2 2 0 0 1-.2-.2.5.5 0 0 0-.9.3zm10.7-3.9H677.6l-.2.1a1.5 1.5 0 0 0-.5.8 3 3 0 0 0-.3 1.1 4.6 4.6 0 0 0 .5 2.3 2.6 2.6 0 0 0 1 1 1.1 1.1 0 0 0 1.7-1 2.3 2.3 0 0 0-.2-.5 2.5 2.5 0 0 0 0-.4 1.3 1.3 0 0 1-.2-.2s.2.3 0 .1l-.1-.4a3.6 3.6 0 0 0-.1-.3c-.1-.2 0 .1 0 .1a.6.6 0 0 1 0-.2l-.3-1a2.7 2.7 0 0 1-.2-.5 1.3 1.3 0 0 0-.4-.8l.2.3a1 1 0 0 0-.3-.5v.2-.1a.2.2 0 0 0-.3-.2z"/></g><path d="M126.2 92.2a208 208 0 0 0 48.5-5.4 481.2 481.2 0 0 0 49.8-13.2c19.2-6.1 38.5-12.1 58-17.3l62.1-15.7c41.5-9.7 84-17.2 126.8-14.1a364.3 364.3 0 0 1 117.4 30.8c32.2 14 63.9 32.4 86.2 60.1 2.7 3.4 5.2 7 7.6 10.6 2.2 3.3 7.7.2 5.4-3.2-19.8-30.1-50-51.1-82-66.6a392.1 392.1 0 0 0-115-36c-42.6-5.9-85-1.2-126.9 7.6C343 34.3 322 39.7 300.8 45S258.7 56 238 62.6C205.4 73 172 83.9 137.4 85.8c-3.7.2-7.5.3-11.2.1-4-.1-4 6.2 0 6.3zm-12.8 48.5c17.7.7 34 8.2 49.2 16.7 7.8 4.5 15.5 9.2 23.3 13.8q12.7 7.5 26.1 14c18 8.8 36.7 16.6 55.3 24.1 9.4 3.8 18.9 7.4 28.6 10.3a212.8 212.8 0 0 0 29.7 6.6c20.6 3.1 41.5 4.8 62.3 6.3l7.8.5a3.1 3.1 0 0 0 0-6.3c-20.8-1.4-41.6-3-62.2-5.7a228 228 0 0 1-29.8-5.7 272.6 272.6 0 0 1-28.7-9.7 863 863 0 0 1-55-23.6 392 392 0 0 1-26.8-13.9l-23.3-13.7c-15.5-9-31.9-17.2-49.9-19.5-2.2-.3-4.4-.4-6.6-.5-4-.2-4 6.1 0 6.3z"/><path d="m471.6 236.4 43.6.3a212.2 212.2 0 0 0 41.5-5 371.4 371.4 0 0 0 40.2-11.5c12.7-4.3 25.3-8.8 37.5-14.1 22.7-9.9 44.4-23.2 59.7-43a91.2 91.2 0 0 0 16-30.8c1-3.1 1.4-6.7-.8-9.4s-5.8-2.7-9-2.2a104.2 104.2 0 0 0-18.4 5c-12 4.3-23.6 10-35.6 14.3a128 128 0 0 1-18.8 5.4c-6.7 1.3-13.4 2.1-20 3.5a85.8 85.8 0 0 0-9.8 2.6 3.2 3.2 0 0 0-2.2 3.9 3.2 3.2 0 0 0 3.9 2.2c12.5-4.2 25.9-4.7 38.6-8.3 12-3.4 23.4-8.6 35-13.4a197.6 197.6 0 0 1 26.6-8.7 17.3 17.3 0 0 1 3.4-.5 3 3 0 0 1 1.3.1c-.5 0 .5.2 0 0 .2 0 .4.5.2 0a3.7 3.7 0 0 1 0 2.7l-1.3 4.1a72.2 72.2 0 0 1-2.8 7.3 90.3 90.3 0 0 1-8.4 14.6c-13.6 19.3-33.8 32.7-55 42.5a386.3 386.3 0 0 1-35.2 13.9 440.5 440.5 0 0 1-38.4 11.8A213.8 213.8 0 0 1 524 230c-14 .8-28 .3-42 .1l-10.4-.1c-4 0-4 6.2 0 6.3zm1.6-216.5a185 185 0 0 0-45.1-17.3A100.6 100.6 0 0 0 403.8 0c-8.7.2-17.3 1.8-25.8 3.3A334.2 334.2 0 0 0 331 15a347.2 347.2 0 0 0-44 18 361.6 361.6 0 0 0-40.6 23.3l-4.8 3.3a3.2 3.2 0 0 0-1.1 4.3 3.2 3.2 0 0 0 4.3 1.1 366 366 0 0 1 39.6-23.7 339.2 339.2 0 0 1 42.2-18.1A314.4 314.4 0 0 1 372 10.8c8.2-1.6 16.5-3.2 24.8-4a90 90 0 0 1 23.6.7C436 10 450.8 15.8 465 22.7l5.2 2.6a3.2 3.2 0 0 0 4.3-1 3.2 3.2 0 0 0-1.1-4.4zm-73 140.4a30.8 30.8 0 0 0-1.6 5.6L397 172q-1.3 5.7-2.4 11.5a178.8 178.8 0 0 0-3 23.5c-.7 14.8.6 29.5 5 43.7A100 100 0 0 0 407 273a3.9 3.9 0 0 0 5.2 1.3 3.9 3.9 0 0 0 1.3-5.2 100 100 0 0 1-13.2-38.5 155 155 0 0 1-1.2-10 149 149 0 0 1-.4-10.8 230 230 0 0 1 1-23.3l1.6-12.4q.4-3.2 1-6.3a43 43 0 0 0 .9-6.7c0-1.5-2.2-2.2-2.8-.8z"/><path d="M411.1 275c2.3.2 4.4-.7 6.6-1.4a64.3 64.3 0 0 0 6.5-2.7 91.6 91.6 0 0 0 21.2-14l9.5-8c6.8-6 13.4-12.3 20-18.6l10-9.8a84.5 84.5 0 0 0 9-9.7c2.8-3.7 4.4-8.6 2.8-13-.9-2.3-2.3-4.6-5-5.2a5.7 5.7 0 0 0-3.3-.2 8.5 8.5 0 0 0-2 1.1 1 1 0 0 0 0 1.7l.6.3c-.4-.3 0 0 0 0s-.4-.6 0 .2a5.4 5.4 0 0 0 1 1.2l.2.2c-.1-.2 0 .5 0 0s.4 1 .6 1.3l.5.8a9.7 9.7 0 0 1 .6 1 3.5 3.5 0 0 1 .2.4c-.2-.3-.1-.2 0 0l.2 1.2v-.1.6a6 6 0 0 1-.4 2 15.4 15.4 0 0 1-2.3 4.2c-2.4 3.1-5.3 6-8 9-3 3.2-6.1 6.2-9.3 9.3a203.5 203.5 0 0 1-37.6 30c-3.8 2.2-7.5 4.4-11.4 6.3l-3 1.3c-.6.3.6-.2 0 0l-1.5.6-.6.3-.6.3-2.7 1a14.1 14.1 0 0 0-3.6 1.7 3.8 3.8 0 0 0-1.7 4.1 3.8 3.8 0 0 0 3.6 2.7zm69.3-172.5a12.5 12.5 0 0 0-4.2 6.8 46.8 46.8 0 0 0-1.4 8.6 26.8 26.8 0 0 0 .8 8.5 23.4 23.4 0 0 0 1.3 4.1 28.8 28.8 0 0 0 2.3 3.7c.3.4 1 .3 1-.3l-.1-3.8-.2-3.9-.1-8a40.2 40.2 0 0 1 .8-7.7 23 23 0 0 0 .5-7.7.5.5 0 0 0-.7-.3zM500.9 95.6a30.4 30.4 0 0 0-3.2 4.5 41.9 41.9 0 0 0-2.1 5.5 65.7 65.7 0 0 0-2.6 10.7 86.2 86.2 0 0 0-.3 22.5c.4 3.9 1 8.5 3.6 11.6a.5.5 0 0 0 .8-.2 25 25 0 0 0 .1-6.6c0-2.2-.4-4.4-.5-6.6a83.7 83.7 0 0 1 .4-13.9 99 99 0 0 1 2.4-13.2l2-6.6a17.6 17.6 0 0 0 1-3.5 25.6 25.6 0 0 1 .3-3.4 1 1 0 0 0-2-.8zM341.3 73.8a15.6 15.6 0 0 0-3 2.4 15 15 0 0 0-2 3.3 23 23 0 0 0-2 7.8c-.4 5.2 1 10.6 5.1 14.1.3.3.9 0 .7-.4a36.4 36.4 0 0 1-2.2-13.6 25 25 0 0 1 1.3-6.6l1.4-3.3a29.1 29.1 0 0 1 1.3-3.3c.2-.4-.3-.7-.6-.5zm-3.9 57.9a14.2 14.2 0 0 0-3.7 6 19 19 0 0 0-.7 7.7c.5 5 2.7 9.8 7.3 12.2.3.2.8 0 .7-.5a44.8 44.8 0 0 1-3.4-12 29.5 29.5 0 0 1 .1-6.2 38.8 38.8 0 0 1 1.2-6.3 1 1 0 0 0-1.5-1zm-31.8-20c-3.8 1.7-5.2 6.1-5.2 10 .2 5 1.9 9.6 4.2 14a.5.5 0 0 0 .8-.3v-6.8c0-2.1-.3-4.2-.4-6.3-.1-3.2-.2-6.7 1.7-9.5.5-.7-.5-1.4-1.1-1.1zm-12 56a17.4 17.4 0 0 0-2.5 6 20 20 0 0 0 .3 7c.8 4.3 3.1 8.6 7.4 10.2a.4.4 0 0 0 .5-.5c-1.4-3.5-3.2-7-4-10.6a22.2 22.2 0 0 1-.5-5.6 23.6 23.6 0 0 1 .5-5.8 1 1 0 0 0-1.7-.8zM253.3 131a4.1 4.1 0 0 0-1.5.8 8.2 8.2 0 0 0-1.2 1.3 13.5 13.5 0 0 0-1.6 3.6 22.8 22.8 0 0 0-1 7.5c.3 5.1 2.1 10.2 6.8 12.7.3.2.9-.2.7-.6l-1.8-6a27.5 27.5 0 0 1-1.4-6.3 20.5 20.5 0 0 1 .5-6.3 65.7 65.7 0 0 1 .8-3.2l.5-1.5a8.4 8.4 0 0 0 0-1.6.5.5 0 0 0-.8-.5zm27.1-55a25.7 25.7 0 0 0-2.6 2.6 11.5 11.5 0 0 0-1.7 3.4 20.8 20.8 0 0 0-1 7.5c.3 5 2.1 9.8 6.6 12.5.4.3.7-.2.6-.5a33 33 0 0 1-3.4-12.2 21.3 21.3 0 0 1 .6-6.2l.8-3a16.3 16.3 0 0 1 1-3.2.6.6 0 0 0-.9-.7zM148 85.4q-26.1-9.6-51.6-20.8a988 988 0 0 1-50.5-24 61 61 0 0 0-26-8.2C11.5 32.2 0 35.6 0 45.8c0 4.5 2.2 8.7 4.3 12.5a351.8 351.8 0 0 0 14 23.8 92 92 0 0 1 16.4 35.5 237.3 237.3 0 0 1 5.4 26c1.2 8.3 1 16.8-2.3 24.8a65.3 65.3 0 0 1-4.8 9l-6 9c-7.6 11.2-16.7 25.8-10.2 39.7a14.8 14.8 0 0 0 6.9 7.2c4.3 2 9 1.4 13.3 0s9-3.2 13.4-4.8a91.8 91.8 0 0 0 12.4-5.4c4-2.2 8-4.7 12-7.2 3.6-2.3 7.4-4.7 11-7.2a130.7 130.7 0 0 0 18.3-16.1c10.8-11.4 19.7-24.3 29.2-36.7q3.6-4.6 7.3-9a3.2 3.2 0 0 0 0-4.5 3.2 3.2 0 0 0-4.4 0c-9.9 11.8-18.5 24.5-28.3 36.4a156.5 156.5 0 0 1-15.6 16.5A146.7 146.7 0 0 1 73 209.6c-7.3 4.7-14.7 9.4-22.9 12.4l-13 4.6a28.4 28.4 0 0 1-5.8 1.6 10.6 10.6 0 0 1-2.8 0 10.1 10.1 0 0 1-1.3-.3l-.5-.2c.5.2-.1 0-.2 0a14 14 0 0 1-1-.6l-.3-.3c-.4-.3.3.3-.1 0l-.8-.8-.5-.5a12.8 12.8 0 0 1-1.1-1.7l-.5-1v-.2l-.3-.6a18.2 18.2 0 0 1-.9-8.5c.9-6.5 4-12.5 7.6-18.1 3.7-5.9 8-11.4 11.5-17.4a50 50 0 0 0 6.9-22.4c.5-9-1.3-18-3.2-26.8-1.8-8.3-3.6-16.7-6.4-24.8a84.4 84.4 0 0 0-5.2-12 121.2 121.2 0 0 0-7-11 267.1 267.1 0 0 1-14-23C9.5 54.7 7 51 6.5 47c-.5-3.4 1.4-5.6 4.4-6.8 7.6-3.3 16.6-1 24 2 4 1.7 7.8 3.8 11.6 5.7L58.6 54q12.2 6 24.7 11.6 24.8 11.3 50.4 21 6.2 2.5 12.5 4.8a3.2 3.2 0 0 0 3.9-2.2 3.2 3.2 0 0 0-2.2-4z"/><path d="M19.2 73.6c1 2 3.5 3.1 5.4 4q3.3 1.6 6.7 3a141.4 141.4 0 0 0 14 4.9 147.3 147.3 0 0 0 28.6 5.7 74 74 0 0 0 8.1.4 71.8 71.8 0 0 0 8.4-.8c.4 0 .6-.8.1-.9-4.7-.8-9.4-1.7-14.2-2.3s-9.4-1.3-14-2.2a165.9 165.9 0 0 1-27.8-8l-7.5-3c-2.3-.9-5-2.3-7.4-1.8a.7.7 0 0 0-.4 1zm22 44.4a5.3 5.3 0 0 0 2 2.7 10.3 10.3 0 0 0 3.6 1.3l10.8 1.8c7 1 14.2 2.2 21.2 1.2.6 0 .5-.8 0-1-6.1-2.1-12.8-2.7-19.3-3.6L50 119c-1.4-.2-2.9-.3-4.3-.6-1-.2-2.4-.3-3.2-1.2a.8.8 0 0 0-1.4.8zm8.2 44.2c-.4-.9-1.5-.2-1.6.5-.2 2 2.6 1.7 3.7 1.6a91.7 91.7 0 0 0 11.9-1.9 111.9 111.9 0 0 0 11.7-3.1 40.3 40.3 0 0 0 11.1-5.3.5.5 0 0 0-.4-1 74.3 74.3 0 0 0-9.4 2.5l-9.1 2.6-9.3 2-4.6.9-2.5.4-1.1.2-.5.2c-.4 0-.5.3 0 .7a.3.3 0 0 0 0-.3zm-20.7 31.4c1 1.8 4.6 1.4 6.3 1.2a42.1 42.1 0 0 0 7.5-1.7l15-4.9a287.6 287.6 0 0 0 45.7-17.8c.4-.2.2-.8-.3-.7l-14.6 4.4-14.6 4.9-29.2 9.7c-2.7.9-5.4 1.8-8.1 2.4a24.7 24.7 0 0 1-4 .6c-1.1 0-2.7-.1-3.6.7a1 1 0 0 0-.1 1.2zm618.5-51c1.5-7.3 1.7-14.9 1.9-22.4l-3 .4c2.3 7 4.6 14 8.3 20.5a1.5 1.5 0 0 0 2.6-1.5c-3.6-6.2-5.8-13-8-19.8a1.5 1.5 0 0 0-2.9.4 121 121 0 0 1-1.8 21.6c-.3 2 2.6 2.7 3 .8z"/><path d="M657 138a113.3 113.3 0 0 1-.4-13.5l-2.8.7 8.5 12.8c1.1 1.6 3.7.1 2.6-1.5l-8.5-12.8a1.5 1.5 0 0 0-2.8.8 113.3 113.3 0 0 0 .5 13.5 1.6 1.6 0 0 0 1.5 1.5 1.5 1.5 0 0 0 1.5-1.5Z"/><path d="M664.5 133.7a36.5 36.5 0 0 0 .8-9.2l-2.8.8a47.3 47.3 0 0 1 3.5 6.6 1.5 1.5 0 0 0 2 .5 1.5 1.5 0 0 0 .6-2 48.5 48.5 0 0 0-3.6-6.6 1.5 1.5 0 0 0-2.8.7 32.4 32.4 0 0 1-.6 8.4 1.5 1.5 0 0 0 2.9.8Z"/><path d="M671.6 131c.8-2.6 0-5.5-.2-8l-1-8.5-2.8.8a99.9 99.9 0 0 0 9.2 13.7 1.5 1.5 0 0 0 2 0 1.5 1.5 0 0 0 0-2.1 94.6 94.6 0 0 1-8.6-13c-.7-1.2-3-.8-2.8.7l1 8.1.4 4a8.8 8.8 0 0 1-.1 3.6c-.6 1.9 2.3 2.7 2.9.8z"/><path d="M680.2 128.8a41.2 41.2 0 0 0 1.5-13.5l-2.8.7a89.6 89.6 0 0 0 9 11c1.4 1.3 3.5-.8 2.2-2.2a83.4 83.4 0 0 1-8.6-10.3 1.5 1.5 0 0 0-1.7-.7 1.5 1.5 0 0 0-1 1.5 38.5 38.5 0 0 1-1.5 12.7 1.5 1.5 0 0 0 2.9.8Z"/><path d="M689.8 125.3a29 29 0 0 0 1.8-11.1l-2.8.7a22.3 22.3 0 0 0 6.2 8.3 1.6 1.6 0 0 0 2.1 0 1.5 1.5 0 0 0 0-2.2 20.1 20.1 0 0 1-5.7-7.6 1.5 1.5 0 0 0-1.7-.7 1.5 1.5 0 0 0-1.1 1.5c0 3.2-.1 6.6-1.4 9.6a1.6 1.6 0 0 0 .6 2 1.5 1.5 0 0 0 2-.6Z"/><path d="M697.5 123.4c1.5-2.4 1.3-5.3 1.2-8a60 60 0 0 1 .4-9.6h-3c-.2 3.1 1.2 6.2 2.3 9q1.7 4.5 3.8 8.9a1.5 1.5 0 0 0 2.6-1.6l-3.5-8c-1-2.6-2.4-5.5-2.1-8.3a1.5 1.5 0 0 0-1.5-1.5 1.5 1.5 0 0 0-1.5 1.5 60.1 60.1 0 0 0-.5 8.9c0 2.3.6 5-.8 7.1-1 1.6 1.6 3.1 2.6 1.5zm-50.2 16.5q-2.5-5.5-5.2-10.9a1.5 1.5 0 0 0-2.8.8 42.1 42.1 0 0 1-.6 8.6c-.5 3-1.2 5.9-.8 8.8a1.6 1.6 0 0 0 1.5 1.5 1.5 1.5 0 0 0 1.5-1.5c-.3-2.9.3-5.7.8-8.6a43.6 43.6 0 0 0 .6-8.8l-2.8.7q2.8 5.4 5.2 11a1.5 1.5 0 0 0 2 .4 1.5 1.5 0 0 0 .5-2z"/><path d="m640.4 143-8.5-15.6a1.5 1.5 0 0 0-2.8.8 108.2 108.2 0 0 1-.8 15.2c-.1 1.4-.6 3.1.7 4.2 1.4 1.3 3.6-.9 2-2.1 0 .1 0 .1 0 0v-.4l.2-1 .3-2.3.4-4.5a106.4 106.4 0 0 0 .1-9l-2.8.7 8.6 15.5c1 1.7 3.5.2 2.6-1.5zm-16.8-56.2c-1.6 1.5-2.5 5.2 0 6.4a2.8 2.8 0 0 0 3.4-1 4.2 4.2 0 0 0 .4-3.7 4.4 4.4 0 0 0-2-2.9 2.3 2.3 0 0 0-3.2 1.1 6.1 6.1 0 0 0 1.1 6.6 2.4 2.4 0 0 0 3.5.4 4.7 4.7 0 0 0 1.7-2.6 10.1 10.1 0 0 0-.6-6 4.1 4.1 0 0 0-2.3-2.5 3.4 3.4 0 0 0-3.1.5c-1.9 1.3-2.5 3.8-2.4 6a8.6 8.6 0 0 0 2.7 6 3.5 3.5 0 0 0 3.8.9 3.9 3.9 0 0 0 2-3 13 13 0 0 0-.6-7.2 7.8 7.8 0 0 0-1.8-3 3.2 3.2 0 0 0-3.6-.4c-2.2 1-2.5 4-2.5 6.3a7.9 7.9 0 0 0 2.6 6 3.9 3.9 0 0 0 3.5.9 4 4 0 0 0 2.3-2.8 9.4 9.4 0 0 0 .3-3.9 22.5 22.5 0 0 0-.6-3.5c-.7-2.3-2.8-4.7-5.4-4-2.3.7-3 3.1-3.2 5.3A16.4 16.4 0 0 0 621 94a8 8 0 0 0 1.7 2.9 2.6 2.6 0 0 0 3.6.1 2.2 2.2 0 0 0 0-3.2 1.6 1.6 0 0 0-2 0 1.5 1.5 0 0 0 0 2.1.9.9 0 0 1 0-1c0-.2.6-.3.6-.2l-.3-.2a8.5 8.5 0 0 1-1-1.9 13.5 13.5 0 0 1-1-4.4 11.7 11.7 0 0 1 0-2 5.3 5.3 0 0 1 .4-1.3 1.4 1.4 0 0 1 .3-.4 1.1 1.1 0 0 1 .2-.2 1.4 1.4 0 0 1 1.2.6c.8 1 .9 2.6 1 3.8a9.8 9.8 0 0 1 0 2.2 3.1 3.1 0 0 1-.4 1.7c-.2.2-.4 0-.7-.1a3.3 3.3 0 0 1-1-1.3 7.2 7.2 0 0 1-.5-3.5c0-.8 0-2.6 1-2.8h.1a2.4 2.4 0 0 1 .4.7 9.9 9.9 0 0 1 .8 2 10.2 10.2 0 0 1 .3 4.1c0 .3-.1 1.3-.4 1.5 0 0 .5.2-.1 0a1.7 1.7 0 0 1-.6-.5 5.9 5.9 0 0 1-1-6.5 1.9 1.9 0 0 1 .8-.9h.2l.2.2a6.2 6.2 0 0 1 .9 3 4.9 4.9 0 0 1-.1 1.8 1.5 1.5 0 0 1-.3.7l-.3.2.8.2-.2-.2a3.8 3.8 0 0 1-.3-.4 2.8 2.8 0 0 1-.4-.7 3.1 3.1 0 0 1-.1-1.8v-.3l-.8.2c0-.1 0 0 0 0l.3.4c.2.4.5 1.4.3 1.8v-.1c0 .2-.3-.1 0 0 .5.2.4.3.4-.1a2 2 0 0 1 .7-1.5c1.5-1.3-.7-3.4-2-2z"/><g fill="#f2f2f2"><path d="M606.1 58c-2.4-.4-3.2 3.1-1 4.2l1-3.6a6.3 6.3 0 0 0-2.8.6 10.3 10.3 0 0 0-2.1 1.8 18 18 0 0 0-3 4.5l-.3.6a5.5 5.5 0 0 0-.3 1.5v.3l-.2 1a14.8 14.8 0 0 0 .2 3.2 25.3 25.3 0 0 0 1.6 6.5c1.8 4.4 5.4 8 10.6 7.2 4-.6 6.6-4.6 7.2-8.3a27.6 27.6 0 0 0-1.3-12.8c-1.3-4-3.9-8-8.2-9s-9.2.8-12 4.4a18.6 18.6 0 0 0-4 12.2 20.8 20.8 0 0 0 4.5 12.5 10.2 10.2 0 0 0 13.2 2.5c7.8-4.5 9.6-16.3 4.2-23.3-3-3.8-8.6-5.7-12.8-2.8-2.4 1.6-3.5 4-4.5 6.6a26.8 26.8 0 0 0-1.6 5.7 32.6 32.6 0 0 0 .5 13.3 8.3 8.3 0 0 0 12.2 6c3.9-1.8 6-6.5 6.5-10.5a23.1 23.1 0 0 0-1.6-12.4c-1.8-4.2-4.8-9.2-9.9-9-5.4.3-7.9 5.9-9.4 10.3a38.2 38.2 0 0 0-1.9 12.3 41.5 41.5 0 0 0 .7 6.8c.5 2.6 1.4 5 3.7 6.5a7.8 7.8 0 0 0 8 0 12.8 12.8 0 0 0 4.5-5.4 34.7 34.7 0 0 0 4-13.2c.7-8-3.7-16.4-11.5-19.3a11.2 11.2 0 0 0-13.3 4.2 29.5 29.5 0 0 0-4 11.3 66.5 66.5 0 0 0-1 12.8 79.9 79.9 0 0 0 1 12.5c.9 4.4 4.4 8.6 9.3 8.1s8.6-4.1 11-8c4.5-7 4.9-16 2.5-23.7a35.2 35.2 0 0 0-6.2-11.9 10.2 10.2 0 0 0-5.7-3.6 8.6 8.6 0 0 0-7.7 2.6 27 27 0 0 0-6.4 23.7 38 38 0 0 0 4.3 11.9 10.6 10.6 0 0 0 5 4.9 8.2 8.2 0 0 0 7.6-.7 9.3 9.3 0 0 0 4-5.9 6.4 6.4 0 0 0-.7-4.7 16.4 16.4 0 0 0-1.4-2.1 2.4 2.4 0 0 0-4.1 0c-.8 1.1-2 2-2.6 3.8-.4 1 0 0 0 0l-.2.3.1-.1c-.3.4-.3.5.2-.1-.3.4-.9.4 0 .2-1.1.3 1.1 0 0 0a2.3 2.3 0 0 1 1.2.2c1 .6.3.3 0 0a63.9 63.9 0 0 1-2-3.8c-.6-1.2.3 1-.2-.4l-.3-.9a31.1 31.1 0 0 1-.7-2l-.5-2.2-.2-1c0-.2-.2-1.3 0-.4a27.8 27.8 0 0 1-.2-4.3v-.8c.2-1.3-.1 1 0-.3l.5-2 .6-1.9c0-.2.6-1.4.1-.3l.3-.7a16.5 16.5 0 0 1 1-1.8l.5-.6c.3-.5.3-.5 0 0l.4-.5.6-.7c.6-.6.1-.1-.1 0 .8-.5-.5.1-.8.1s-1-.3-.3 0c-1-.4-.3 0 0 0 .6.4-.7-.7.1.2l.5.6v-.1l.4.5a35.2 35.2 0 0 1 2 3.7l.4 1c.4.7-.4-1.1.2.2l.8 2.3a33.6 33.6 0 0 1 1 4.1c.2 1.4 0-.6 0 .2V84a16.2 16.2 0 0 1 0 2.3 6.2 6.2 0 0 1 0 1.8c.3-1.1 0 0 0 .2l-.2.8-.5 2-.3.7a22.3 22.3 0 0 1-.2.7v-.3a28.4 28.4 0 0 1-1.8 3.3c-.6 1 .5-.5 0 0l-.6.8-.5.5c-.2.2-1.2 1-.7.7l-.6.3c-.8.6 0 0 .1 0l-.4.1h.2a2.3 2.3 0 0 1 1 .3c-.8-.5.7.7.2.2s.6 1 .1.1l-.3-.5c.3.7.4.8.2.3l-.1-.5-.2-.8c-.2-1 0 .3 0 .3l-.2-2-.3-4.8a79.6 79.6 0 0 1 0-9.2l.1-2 .2-1.2c-.1 1 0 .2 0 0a46.8 46.8 0 0 1 1-4.8 16 16 0 0 1 1.2-3.8l.5-.8c0-.1.8-1 .3-.5-.3.3-.2.3 0 0s.4-.4 0 0a2.5 2.5 0 0 1 .6-.4c-1.3.6.5 0-.3.1h.5c1 0 .2 0 0 0l1.1.3c.4.1.4 0-.2 0a4.8 4.8 0 0 1 1.8 1s-.8-.8-.2-.1l.7.6.6.6c.6.7 0-.1-.1-.2a4.8 4.8 0 0 1 1 1.6l.4.8-.2-.4.3.7a14 14 0 0 1 .4 1.5 2.6 2.6 0 0 1 .2 1v-.3 4c0-.6 0-.6 0 0a37 37 0 0 1-1.3 4.1 28 28 0 0 1-.5 1.3l-1.2 2.5-1 1.6c-.3.6.8-.8 0 0 .6-.5.4-.2 0 0a2.5 2.5 0 0 1 3.4 1c.5 1 .1.4 0 0l-.3-1.3-.1-.9c-.3-1.4 0 .6 0-.2l-.2-2.2a35.4 35.4 0 0 1 0-4.6l.2-.9c.1-1.4-.2 1 0-.4l.4-2a33.9 33.9 0 0 1 1.3-4.3l.4-.9.1-.3.4-.6c0-.2.8-.8.2-.4l-.1.2c.4-.4.3-.3-.2 0 .7-.4-.2 0-.4.1a2.7 2.7 0 0 1-1.8-.2l-.4-.2c.3.4.3.3 0-.1a18.3 18.3 0 0 1 1.9 3.2c.1.2.5 1 0 0l.3.8a17.9 17.9 0 0 1 .7 2.3l.1.7c.3 1.3 0-1 0 .3l.1 1.7v1-.2a8 8 0 0 1-.5 2.3 3.5 3.5 0 0 1-.3.7c.7-1 0 0-.1.2l-.4.7c-.5 1 .5-.4 0 0-.2.1-.9.7 0 0-.7.5 0 0 .3 0-1 .3 1 0 0 0h.6c-.5-.1-.4 0 .3.2a2.8 2.8 0 0 1 .8.8c-.6-.8.1.8 0-.2l-.5-1.9-.2-1c.2 1 0 .2 0 0L604 79V77l.1-.8c.2-1.4-.1.6 0-.2a43.5 43.5 0 0 1 1.2-4.5l.3-.8c.5-1.3-.5.8.2-.4l.3-.8c.5-1-.4.4 0 0 .7-.8-1 .7-.8.3h.3c.4-.1.4-.2 0 0h-.3c.5 0 .4 0-.3-.1 0 0 1.6.6 0 0 1 .4-.3-.5 0 0 .2.1.7.4.7.6-.1-.5-.3-.6 0-.1 0 .2.5.7.5 1 0 0-.4-1.1-.1-.1l.3.9a2.8 2.8 0 0 1 .2 1c-.1-.7-.1-.8 0-.4v1.7c-.1.6 0 .5 0-.1.1.3-.4 1.5-.5 1.8a3.1 3.1 0 0 1-.2.8l.2-.5a5 5 0 0 1-.3.5l-.5.9c-.5 1 .7-.7-.1.2l-.7.7c-.4.5.9-.5-.1 0l-.7.5.5-.2a6.6 6.6 0 0 1-.7.2s1.2 0 .2 0c1.8.2-.6-.2.4 0 .7.2-.3 0-.4-.3l.2.2a4 4 0 0 1-.4-.4s-.7-1-.3-.4l-.3-.4a14.5 14.5 0 0 1-1-1.8c.5 1-.1-.6-.2-1l-.2-1c0-.1-.4-1.5-.1-.2a9.7 9.7 0 0 1-.1-2v-1.1a6 6 0 0 1 .3-1.8l.4-1c.3-1-.5.8 0-.2l.5-.8c.1-.3.7-.9 0 0 .4-.5.9-1.3 1.3-1.4 0 0-.9.5 0 0l.7-.4c.5-.3-1 .2 0 0 .5 0 .5 0 0 0h.4c-.6 0-.8-.1-.4 0s1 .4 0 0l1.2.4-.6-.2.3.2c.4.3.4.2-.1-.2l.5.5c.9.9-.9-1.1.3.4s-.4-.7.3.4l.5.9s.6 1 .3.4.2.7.2.6l.5 2.2.2 1c-.1-.8 0 .2 0 .4a20 20 0 0 1 0 2.6 3.4 3.4 0 0 1 0 1s.2-1 0-.2c0 .4-.2 1.4-.4 1.6.3-.2.3-.6 0-.1 0 .1-.3.7-.5.7 0 0 .8-.7.1-.2 1.2-1 0 0 0 0l.5-.2h.3c.2 0 1 .3.2 0 1 .3.2.2 0 0-.5-.5.7.8 0 0a12 12 0 0 0-.5-.5c.7.7 0-.2-.2-.3s-1-1.6-.4-.6l-.5-1-.4-.6-.3-.8a18.7 18.7 0 0 1-.8-2.2 22.3 22.3 0 0 1-.4-4.4c0 .8.2-1.1 0-.7a4.6 4.6 0 0 1 .5-1.4 7 7 0 0 1 .9-1.2l1-1.5c1.2-1.3.1-3.9-1.8-3.2 1 0 1.3.4.9 1.3.6-.5.8-1.9-.3-2z"/><path d="M584 90.2q.1.8 0 0v-.4a13.5 13.5 0 0 0-.2-1.6 28.3 28.3 0 0 0-.5-2.8l-.5-2.3-.1-1c0-.3 0-1.4-.1-1 .3-2-.5-4.2-2.7-4.8A4 4 0 0 0 575 79c-.8 3-.3 6.5.4 9.5a56.3 56.3 0 0 0 2.2 7.4c1.8 4.7 4.6 9.4 9.8 10.7a4.2 4.2 0 1 0 2.2-8l-.2-.1-.3-.2-.4-.3c-.5-.5.1.2 0-.2a4.6 4.6 0 0 0-.4-.6c-.3-.3 0 .6 0-.1l-.2-.7c.2.9 0 0 0-.3l-5.2 4 14.3 4.4c4 1 8.9 1.5 12.5-1.1a15.2 15.2 0 0 0 4.1-5.3c.1-.2 1-1.4.4-.7a4.7 4.7 0 0 1 .5-.5c-.5.3-.5.3-.1 0l2-1a9 9 0 0 0 4.5-3.7 8.1 8.1 0 0 0 .8-4.5v-.9c0-.5 0-.5-.1 0q.2-.6-.1.1a2.7 2.7 0 0 1-2.2 1.2l-4.3-4.1a52.7 52.7 0 0 0 .8 7.1 5.4 5.4 0 0 0 2.4 3.5 4.6 4.6 0 0 0 4.7 0c2.2-1.5 2.3-3.8.8-5.8l-.2-.2 1 1.7c.1.2.2 1 0 .4a5 5 0 0 0-.2-1.3v.1-1.1l-.3-1.2-.7-4.3a4.2 4.2 0 0 0-4.1-3.1 6.3 6.3 0 0 0-5.9 5.2 8.5 8.5 0 0 0 0 2.3v1c0 .6 0 .6 0 0l.3-.3c-.2.3-.1.1.3-.2a5.2 5.2 0 0 1-.5.3c-1.6.9-3.3 1.4-4.7 2.6-1.6 1.4-2.4 3.3-3.5 5l-.3.6c.2-.3.2-.4 0 0s-.4.3 0 0l-.3.2-.6.3c.5-.2.5-.2 0 0l-.6.1c.5 0 .5 0 0 0h-1.4c-.2 0-1.3-.1-.4 0a24.1 24.1 0 0 1-2.9-.6c-4.6-1.3-9.3-2.9-13.9-4.3a4.2 4.2 0 0 0-5.3 4 10.8 10.8 0 0 0 7.6 10.5l2.2-8c-.3 0-1.4-.7-.5-.1-.2-.2-1.3-1-.5-.3l-1-.9c-.6-.6.3.5-.1-.2a21.8 21.8 0 0 1-1.4-2.4l-.3-.6c.2.4.2.4 0 0l-.4-1.2c-.7-2-1.5-4.2-2-6.3a30 30 0 0 1-.8-6.5l-7.6 1v.3l.1.8c0 .8.2 1.6.3 2.3a23.5 23.5 0 0 0 .8 3.2 10.4 10.4 0 0 0 4.4 5.7c2 1.2 4.5-1.2 3.2-3.2z"/><path d="M583.2 94.8c-.4-.4 0 .3.1.4v.3-.7A5 5 0 0 0 582 93c.2.3.1.4 0 0v.3c.2.5 0-.3 0-.5v-2c0-2.8-.6-5.6-.8-8.4a57 57 0 0 1 .2-8.3l.1-1.3c0-.2.2-1 0 .1l.4-2a39.6 39.6 0 0 1 1-4.4l.7-1.7.3-1c-.3 1 0 .3 0 0a35.4 35.4 0 0 1 2.1-3.9l1-1.4c.5-.7 0 0-.1.2a4.8 4.8 0 0 1 .7-.9 29.4 29.4 0 0 1 2.4-2.5 8.3 8.3 0 0 0 1.4-1.1c-.5.7-.5.3 0 0l.7-.5a28 28 0 0 1 3.2-1.9l.8-.3c1-.5-.8.2 0 0l1.4-.6 1.7-.5c.2 0 1.8-.5 2-.4h-.3 4.2c.7 0-1.3-.2-.2 0l1 .3q.9.1 1.7.4l.8.3c.9.3 0 .2 0 0a10.5 10.5 0 0 0 1.6.9l1.7 1c.5.4-.8-.7 0 0l.7.7 1.2 1.2 1.3 1.4c.8 1-.6-.8.1.2l.7 1a28.5 28.5 0 0 1 1.9 3.3 3.3 3.3 0 0 1 .3.7l-.2-.5.2.5.8 2.2a40.1 40.1 0 0 1 1 4.5l.2.9s.2 1.6 0 .5l.3 2.5a83.1 83.1 0 0 1 .2 9.3c0 1.4-.1 2.7-.3 4 0 .3-.2 1.3 0 .2l-.2 1-.5 2.3-.6 2-.1.2-.5.9-1 1.7c-.1.2-.5.8 0 0a7.4 7.4 0 0 1-.8 1A20.4 20.4 0 0 1 615 96l-.7.6-.4.3a41.8 41.8 0 0 1-3.6 2.3l-4.1 2.1-1.8.8-1.1.6c.8-.4-.3 0-.5.1-1.2.5.4 0-.3 0h.2c.6.3.6.3.1 0l-1.8-1a15.7 15.7 0 0 0-6.5-1.4l-2.3-.1h-.2.3a5.2 5.2 0 0 0-1-.3c-1-.3.6.4 0 0-.2-.2-1.2-1-.2 0-.6-.6 0 .1.1.2-.2-.4-.2-.3.1.4a3.5 3.5 0 0 1-.1-.7l-9.5 2.7a13.8 13.8 0 0 0 7.3 8.7 19.6 19.6 0 0 0 12.9 1 19 19 0 0 0 10-5.2 12.7 12.7 0 0 0 3-5.4 7.5 7.5 0 0 0-1.9-7.1c-2-2.3-5.9-1-6.7 1.7 0 .2-.3 1 0 .4l-.2.3a6.5 6.5 0 0 0-.7 2.5c0-.6.2-.8 0-.1v.3c-.2.4-.2.3 0-.3a6.2 6.2 0 0 0-.3.6c-.3.8.5-.3 0 0l-.5.6c-.4.4-.5.5 0 0a14 14 0 0 1-.8.6l-1.5.9c.6-.3.4-.2-.1 0l-.8.2a25.6 25.6 0 0 1-2 .6c-.3 0-.7 0-1 .2-.5.1.8 0-.2 0h-2a10.4 10.4 0 0 1-1.1 0c.5 0 .5 0 0 0s-.7-.2-1-.3c-1-.4 0 0 0 0l-1.4-.8c-.5-.3.6.6 0 0l-.5-.5c-.1-.1-.8-1-.4-.4l-.2-.3-.3-.7.2.4-.2-.5a5 5 0 0 0-6-3.5c-2.8.9-4 3.3-3.5 6 .6 4 4.4 6.6 8 7.3a39.4 39.4 0 0 0 5.3.5 6 6 0 0 1 .8 0c-1.2-.3.1.1.3.2 1.1.1-.6-.5.3 0l1.1.7a9.9 9.9 0 0 0 7 1.3 24.3 24.3 0 0 0 5.7-2.2 57.2 57.2 0 0 0 7.7-4.1c5.8-4 10-9.3 11.6-16.2a63.5 63.5 0 0 0 .4-20.7c-1-7.2-3.1-13.9-7.6-19.6a24.3 24.3 0 0 0-15.4-9.3 30.8 30.8 0 0 0-30.2 15.8 45.2 45.2 0 0 0-5.3 21.6 66.4 66.4 0 0 0 .8 11.3 15.8 15.8 0 0 0 1.8 5.6l.6.8c.2.3 1 1.6.6.8a9.1 9.1 0 0 0 1.8 2.1 3.8 3.8 0 0 0 3.6 1 6.4 6.4 0 0 0 2.5-1.3 2.3 2.3 0 0 0 0-3.3z"/><path d="M605.6 68.7a37 37 0 0 0-3.9-6.1l-2.4-2.9A10 10 0 0 0 597 57a5.8 5.8 0 0 0-3.7-.6c-1.6.1-2.8 1.7-3.7 3a33.6 33.6 0 0 0-3.8 6.4C584 70 581 76.4 585 80.3c2.6 2.6 6.6 1.5 8.6-1.1 1.7-2.1 2.6-5 3.4-7.5a49.7 49.7 0 0 0 2-7.8 39.6 39.6 0 0 0 .9-8.2c-.2-3.2-1.8-6.6-5.3-7.3-3.7-.7-6.4 1.7-8.7 4.2a28 28 0 0 0-7.6 13.2 15.5 15.5 0 0 0 .1 8 7.9 7.9 0 0 0 7.9 5.5c3.6-.2 6.3-2.7 8.7-5.2 2.1-2.3 4-4.8 6-7.3a29.4 29.4 0 0 0 4.6-7.5c1.1-3 1-6.7-1-9.3-1.2-1.7-2.7-2.7-4.8-2.4a5 5 0 0 0-4.1 3.5 29.4 29.4 0 0 0-1 15.6c.9 4.5 3.5 9.3 7.8 11.4a13.9 13.9 0 0 0 13.8-1 15.5 15.5 0 0 0 6.6-12.9 19 19 0 0 0-5.6-13.1c-3.7-3.8-10.1-7.9-14.8-3.2-1.8 1.8-2.5 4.5-3.3 6.8a54 54 0 0 0-2 7c-.8 4.7-1 9.8.9 14.4s5 8.3 9.8 10a13 13 0 0 0 12.7-2.1c4.1-3.6 4.2-9.2 3.4-14.2-.8-4.7-2.5-10.2-6.4-13.2a7.2 7.2 0 0 0-9.8.6 19.4 19.4 0 0 0-3.7 6.2 23.5 23.5 0 0 0-1.5 11.1 25.4 25.4 0 0 0 4 11.7c2.6 3.7 6.3 7.4 11.1 7.6a7.3 7.3 0 0 0 7.3-5c.9-2.3.6-5.4.4-7.8-.4-5.2-1.3-11.3-4.6-15.5a9 9 0 0 0-7.6-3.3c-3.3.3-5.6 2.3-7.3 5.1a41.4 41.4 0 0 0-5.3 13.7c-.9 4.7-1.5 10.2.1 14.8 1.9 5.3 6.7 9.2 12.5 8.4 5.5-.7 8.2-5.7 8.6-10.8a26.9 26.9 0 0 0-.5-6l-1.1-7.2a64 64 0 0 0-1.7-6.8 26.8 26.8 0 0 0-2.8-6.8 8.5 8.5 0 0 0-9-3.8 15.7 15.7 0 0 0-6.7 3.6c-6.6 5.4-9 14.5-9.7 22.6-.5 5-.2 10.6 3.7 14.3a10.2 10.2 0 0 0 14.4 0c3.6-3.4 4.9-8.5 5.4-13.3a29 29 0 0 0-2-15 10.6 10.6 0 0 0-6-5.5c-3-1.2-6.2-.4-9 .9a21.4 21.4 0 0 0-9 8.5c-4.2 7.4-5.1 19.3 2.6 24.8a7.9 7.9 0 0 0 8.4.5c2.6-1.5 4-4.5 4.6-7.3 1.2-5.1.4-10.5-1.2-15.4a19.7 19.7 0 0 0-3.4-6.9 9.4 9.4 0 0 0-7.6-3.2 15 15 0 0 0-12.1 8.1 10.1 10.1 0 0 0-1.4 4.3 8.8 8.8 0 0 0 1.2 3.8c1 1.8 2.8 4 5 3.4l-2.7-1 .2.2c1.7 2.5 5.8.1 4.1-2.4l-.2-.3-.3 2.9a2.9 2.9 0 0 0 .7-1.3c-.1.4.2-1.6 0-.7a7 7 0 0 1 .3-.8c-.3.8 0 .1 0-.1s.7-1.1 0 0a10.4 10.4 0 0 0 1.5-2.4l.3-1c-.2.7-.3.8 0 .3l.3-.6a2.7 2.7 0 0 1 .4-.6l-.4.5.5-.5.7-.8c.8-.8-.9.5.1 0l1-.6c.3-.2 1.3-.5.2-.2.3 0 .9-.4 1.1-.3H591.3c1 .2-.6-.5.2 0h-.2c-.3-.3-.3-.3 0 0l.2.2c-.4-.5-.4-.5-.1 0 0 .2.5.6.5 1l-.2-.6.2.7.5 1.2a48.6 48.6 0 0 1 .8 3c.3.8.4 1.7.6 2.6 0 .2 0 1 0 0l.1 1.3v2.6c0 1.4.3-.9 0 .4l-.4 1.7-.1.5c-.3.5-.2.5 0-.1 0 .3-.9 1 0 .2a2.4 2.4 0 0 1 1.7-.6c.1 0 1.1.3.4 0 1.4.6 0 .2 0 0l.4.3a6.1 6.1 0 0 1-.5-.5l.3.4a6.7 6.7 0 0 1-.4-.6 6.5 6.5 0 0 1-.3-.7l.1.2-.5-2v-.3.3a6.2 6.2 0 0 1-.1-1 15.7 15.7 0 0 1 0-1.6 5.2 5.2 0 0 1 0-1v.3l.2-.7a18.8 18.8 0 0 1 .5-2l.3-1c.4-1.1-.5 1 0 0l.8-1.6a15.7 15.7 0 0 1 .5-.8l.4-.6c.3-.4.3-.3-.1.2.1-.5 1-1.1 1.3-1.5l.8-.7.2-.2-.2.2c.2-.4 1.2-.8 1.6-1l.8-.5c-1 .5.7-.1.9-.2-1 .3 0 0 .4 0-1.3 0 .8.5-.6-.2 1 .5-.6-.7 0 0s-.4-1 .1.1l.6 1c.5 1-.3-1 0 .1.2.8.5 1.5.6 2.3l.3 1.3c-.2-1 0 .4 0 .6a25.5 25.5 0 0 1 0 2.7v2.8c-.1 1.5.2-1-.1.5l-.3 1.4a18.8 18.8 0 0 1-.6 2.2v.3q-.4.8 0-.2l-.5.9-.5.9c-.6 1 .7-.7 0 0l-.8.8.3-.2-.6.3c-.6.4.2-.4.4-.2l-.3.1c-.6.1-.4.1.4 0h-.3.3-.3l.2.1-.3-.2c-.4-.3-.4-.2.2.2l-.3-.3c-.3-.4-.3-.3.1.2a4.2 4.2 0 0 1-.5-.9c-.3-.5-.2-.4 0 .2a8.2 8.2 0 0 1-.2-.8c0-.2-.3-1.6-.2-.4v-1a23.8 23.8 0 0 1 0-2.6l.2-2.2v-1.1c.2-.6.1-.5 0 .2l.2-.7.8-4a31.4 31.4 0 0 1 .7-2.1l.4-1c.2-.3.1-.5.2-.7a4 4 0 0 0 0 .2 28.8 28.8 0 0 1 1.9-3.4c.2-.3.5-1.1 0 0a4.7 4.7 0 0 1 .7-.9 23.4 23.4 0 0 1 1.8-1.7c.8-.8-1 .6 0 0l1-.6c.3-.1 1.3-.6.2-.2l.5-.2h-.3c.6 0 .5 0-.2-.1-.3-.1-1.2-1-.6-.4-.8-1-.1 0 0 .2l.3.6a57.3 57.3 0 0 1 2.9 10.5l.8 5.3.3 1.4c.1.9-.1-.3 0-.4a10 10 0 0 0 .1 2.3c0 .4-.2 1.7 0 2v-.6l-.1.6a4.9 4.9 0 0 0-.3.8c0-.2.5-1 0 0s.8-.8 0-.2l.4-.2a5.6 5.6 0 0 1-.5.4c.6-.3.7-.3.2-.2h.6a5.2 5.2 0 0 1-.6 0h.6a5 5 0 0 1-.7 0c-1-.3.8.5 0 0l-.4-.3c-.4-.3-.4-.2.2.2a2.7 2.7 0 0 1-.8-.8l.3.5a7.7 7.7 0 0 1-.4-.7c-.1-.3-.4-1.3-.1-.2l-.4-1.2a8 8 0 0 1-.2-1.2V88l.2-2.7c.1-1.4-.2 1 0-.4l.3-1.5a38.3 38.3 0 0 1 1.3-5 31.3 31.3 0 0 1 .4-1.2l.2-.4q.6-1.5 1.4-2.8l1-2 .3-.2c.3-.5.2-.5-.2 0 .2-.3 1.1-.7.1-.1-.3.1-1.7.2-.8.2-1.6 0 .6.5-.8-.1 1.1.4-.7-.7.2 0 .3.5.3.4 0 0a9 9 0 0 1 .3.6c.6 1-.2-.9.1.3l.3 1 .7 2.4a44.5 44.5 0 0 1 .5 2.8l.1.6.2 1.9.1 2.8v1c0 .4-.2 1.6 0 .3-.1 1 .4-.6.6-.7a2.7 2.7 0 0 1 2-1c-1 0 1.1.5.1 0a6.2 6.2 0 0 1-.6-.1l.3.1c-.1 0-.9-.4-.8-.5l.4.4-.5-.5A16.4 16.4 0 0 1 616 82c-.2 0-.7-.5-.7-.7l.4.5-.4-.6a19.2 19.2 0 0 1-1.2-2l-.5-.9c-.5-1 .4 1 0 0l-.6-1.9a16.2 16.2 0 0 1-.4-1.6 4.2 4.2 0 0 1-.2-1v.3-.6a19.3 19.3 0 0 1 0-2V70c.1-.5 0-.4 0 .4-.3-.2 1-3.6 1-3.9.4-1-.5 1 0 0l.5-.9 1-1.7c.5-1-.8.6.1-.1a3.1 3.1 0 0 1-3.2.6c-.3-.1-.6-.7-.1 0 .3.4.3.4 0 0l.4.6a11 11 0 0 1 .6 1c.1.2.6 1.4.2.3a23.6 23.6 0 0 1 .8 2.3 27.8 27.8 0 0 1 .5 2.4l.2 1.2c.2 1 0-.9 0 .3l.1 2.4c0 1.2.3-1 0 .2 0 .2-.1.9-.3 1l.2-.4a6.3 6.3 0 0 1-.4.7c-.5 1 .8-.6 0 0s0 0 .1 0-1.4.6-.4.3c.8-.3-.1 0-.3 0a4 4 0 0 0-.8.2l.7-.1h-1.6c-1 0 1.2.3.1 0l-1-.3c-1-.3 0 0 0 0l-1-.6-.6-.3s1 .8 0 0l-.7-.8c-.9-.9.5.8-.2-.2a7.2 7.2 0 0 1-1-2c.1 1.1 0 0-.1-.2l-.5-1.5-.2-1.1c-.2-1 0 0 0 .1a8.6 8.6 0 0 1-.1-2.3 23.9 23.9 0 0 1 .1-2.5v-.6a36.2 36.2 0 0 1 1.9-6.7l.9-2.6.1-.5-.1.3c-.2-.1 1.2-1.7 0-.3l.3-.2a2.8 2.8 0 0 1-2.2.9c-.4 0-1.4-.5-.6 0l1.6 1c.2 0 1.3.7.2 0a6 6 0 0 1 .9.8 10.3 10.3 0 0 1 1.8 2c-.7-1 0 0 .1.2l.6 1a5.6 5.6 0 0 1 .5 1c-.4-1.2 0 0 0 .2a7.9 7.9 0 0 1 .4 1.9v.2a4 4 0 0 1 0 1.5v-.6l-.1.7-.3 1.1c-.3 1.2.5-.8 0 .2l-.6 1c-.6 1 .6-.5-.1.2l-.5.5-.3.3.2-.2c-.1.3-1 .6-1.2.7-1 .6 1-.2-.1 0l-1 .3c-1 .3 1 0 0 0h-1c-1.2 0 1 .3 0 0-.2 0-1-.1-1-.3s1 .6.2.1l-.6-.4c-.5-.3-.4-.3.1.1-.2 0-.6-.6-.8-.7-.8-.8.5.8-.1-.2l-.6-1-.1-.2a11.5 11.5 0 0 1-.7-2.1l-.2-1c0-.2-.2-1.6-.1-.5a26.7 26.7 0 0 1 0-5.4c-.1 1.2 0-.3 0-.4l.3-1.3a29.2 29.2 0 0 1 .8-2.6L596 55l.2.3c.3.5.3.4 0-.3l.1.4c.2.5.1.4 0-.3v.3-.3c.2.2-.1 1-.2 1.1-.3 1.2.5-.8 0 .2l-.6 1a20.2 20.2 0 0 1-1.5 2.3l-.9 1c0 .1-1 1.3-.3.5l-1.7 2.1c-1.2 1.6-2.5 3-3.9 4.5a16 16 0 0 1-1.8 1.7c1-.7-.2.1-.3.1l.5-.2c-.6.2-.5.2.3 0a2.4 2.4 0 0 1 1.5.8c-.7-.7.6 1 0 0l.3.6a6.7 6.7 0 0 1-.2-.6v.3-.7l.1-1.2c.1-1.3-.2 1 0-.3l.6-2.3c.1-.1.6-1.4.1-.3l.6-1a22.8 22.8 0 0 1 1.4-2.5l.7-1c.8-1-.6.8.2-.3l1.6-1.8 1.7-1.7c-.8.8.8-.2-.4.3a3.3 3.3 0 0 1-3.6-1.4l-.1-.3c.2 1 0-.8 0-.2a5.5 5.5 0 0 0 0 1v2.7l-.2 2.7-.2 1.4-.2 1.1a52.2 52.2 0 0 1-1.2 5.4l-.8 2.6-.5 1.3-.4.7.1-.3a2.3 2.3 0 0 1 2.2-.5c.4.1 2 1.5 1.3 1l.2.4v.1-.8c0 1.5.3-1.5 0-.3l.3-1.3a42 42 0 0 1 .8-3 47.5 47.5 0 0 1 2.2-5.3 15 15 0 0 1 1.4-2.6c.8-1.1-.4.5.5-.5.6-.7.6-.8 0-.3q-.4.1 0 .2a6.8 6.8 0 0 0 1 .3 8 8 0 0 1 1.5 1l2.3 2 4.5 4.2c.2.3.6 0 .4-.3z"/><path d="M604.2 76.6a2.2 2.2 0 0 0 1 2.3c1 .6 2.7.2 3.7-.4a13.6 13.6 0 0 0 1.4-1c.7-.5.1 0 0-.1a1 1 0 0 1-1-.6c-.2-.3-.2-.3 0 0 0-.2 0-.2 0 0v.4c0 .3 0 .6-.2.9l-.2 1.6c-.5 2.5-1.3 5-2 7.5l-1.3 3.4-.6 1.8c-.2.5-.6 1.1-.8 1.8a.6.6 0 0 0 1 .7 14.8 14.8 0 0 0 3-2.6 21.4 21.4 0 0 0 2.6-3.4 21.6 21.6 0 0 0 3-8.4c.5-2.8 1.1-7.4-2.9-8a5 5 0 0 0-4.4 2.1c-.4.6-.4.8-1 1.1l-.4.2a2 2 0 0 0-.5.4 1.5 1.5 0 0 1 .4-.1.7.7 0 0 0-1 .5z"/></g><path d="M618.9 87.8a8.3 8.3 0 0 0-1.3 5c.2 2 1.2 4.5 3.7 4 1.7-.4 2.9-2 3.5-3.4a8 8 0 0 0 .6-5.4 3.4 3.4 0 0 0-4.8-2.2 5.6 5.6 0 0 0-2.8 3.7 15.3 15.3 0 0 0 2 10.7 2.5 2.5 0 0 0 4.2 0 19 19 0 0 0 2.2-12 5.9 5.9 0 0 0-2.7-4.4 5.3 5.3 0 0 0-6.4 1.5c-2.6 3.4-2.5 8.5-.5 12.2 1.4 2.3 4 3.7 6.6 2.6 2.2-1 3.3-3.1 4.1-5.3a16 16 0 0 0-1.2-13.2 3.3 3.3 0 0 0-4.4-1.1 13.2 13.2 0 0 0-5.7 10.3 12.8 12.8 0 0 0 4.8 10.2c1.7 1.4 3.9 1.3 5.2-.7a19.2 19.2 0 0 0 3-10.1 20.9 20.9 0 0 0-2.7-10.4 3.5 3.5 0 0 0-5.5-.7 17 17 0 0 0-4.3 17.3 8.7 8.7 0 0 0 3.4 5 5.2 5.2 0 0 0 7-1.9 17 17 0 0 0 2.5-9.1 18 18 0 0 0-3.2-10.4c-1.1-1.6-3.5-2.7-5.3-1.4a14.3 14.3 0 0 0-5.8 10.9 22.6 22.6 0 0 0 .6 6.4 22.8 22.8 0 0 0 2.2 6.6 4.2 4.2 0 0 0 5.6 1.4c1.8-1 2.9-3.7 1.5-5.6l-.8-1c-1-1.6-3.4-2.3-4.9-.7l-.8.9 7 1.8a44 44 0 0 0-1.7-5 9.2 9.2 0 0 1-.7-2.6v.4-3c0-1-.2.8 0 0l.2-1.2c.1-.4.2-.9.4-1l-.1.2.1-.2.6-1c.2-.3.2-.3-.2.1l.4-.4.3-.3-5.3-1.4a13.3 13.3 0 0 1 1.1 1.9c.1.2.7 1 .2.2a4.7 4.7 0 0 1 .3 1 5.5 5.5 0 0 1 .5 2.1v-.4a5.5 5.5 0 0 1 0 .6v2.5-.1a4.4 4.4 0 0 0-.1.8 10 10 0 0 1-.3 1.1l-.3.9c-.1.3-.1.3 0-.2l-.2.6a6.1 6.1 0 0 1-.4.7 2.5 2.5 0 0 1 2.2-1.1 2.2 2.2 0 0 1 1.6.6c-.6-.5.4.5-.1-.3l.1.3-.2-.5a13.5 13.5 0 0 1-.5-2v-.5.2l-.1-.8a15.7 15.7 0 0 1 0-2v.3l.1-.6.2-.8a17.4 17.4 0 0 1 .7-1.8c0-.2 0-.4.2-.5-.2.4-.3.5 0 0l.3-.7.6-.9.3-.4c-.2.3-.2.3 0 0l-5.4-.7a13.6 13.6 0 0 1 1 2c.1.1 0 0 0-.2l.2.5c0 .4.2.7.3 1.1l.2.9.1.5a15.5 15.5 0 0 1 .1 2v1c0 .1-.1 1.2 0 .4a16.3 16.3 0 0 1-.4 2l-.4 1.1c0 .2-.3.8 0 .3a17.4 17.4 0 0 1-1.2 2l4.6-1.2-.4-.4-.6-.7-.2-.3-.6-1c-.3-.6.1.5 0-.2l-.3-.9-.1-.5V90c0 .8 0-.2.1-.4l.3-1c.3-.8-.3.5.2-.2l.5-1c.2-.2.7-.8.2-.3l.6-.7.5-.4-4.5-1.2.6 1.1s.2.4 0 0l.2.6a15.3 15.3 0 0 1 .3 1.2c0 .1.2 1.3.2.6a17.6 17.6 0 0 1 0 2.4c0 .4 0 .4 0 0l-.1.6a17.3 17.3 0 0 1-.2 1l-.4 1-.3.6c-.2.3-.2.4 0 .1a3.1 3.1 0 0 1-.4.4.8.8 0 0 1 .4-.2 1.7 1.7 0 0 1 1.2.2.7.7 0 0 1 .3.3 8.3 8.3 0 0 1-.3-.5l-.3-.6-.4-1.2c0-.4 0-.3 0 0v-1.6l.1-.6.2-.7a9 9 0 0 1 .6-1c.2-.2.1-.2 0 0 .2-.2.2-.2 0 0a2 2 0 0 1-1 0c-.2-.3-.2-.3 0 0-.1-.3-.1-.3 0 0 0-.5.1.2.2.4v.4l.1 1.3a14.2 14.2 0 0 1-.1 2.3 14.6 14.6 0 0 1-1.6 4.7h4.2a11.6 11.6 0 0 1-1.5-3.9 9.5 9.5 0 0 1 0-3.6l.2-.4c.2-.4.2 0-.1 0a.9.9 0 0 1-1-.3 2.4 2.4 0 0 0-.3-.2 3.8 3.8 0 0 1 0 1 4 4 0 0 1-.4 1.4 4.6 4.6 0 0 1-.5.8l-.2.2h1.2c.6.8.8 1 .6.5l-.2-.6a5.2 5.2 0 0 1 0-1 6.4 6.4 0 0 1 .5-2 2 2 0 0 0-.7-2.6 2 2 0 0 0-2.7.7z"/><g fill="#efefef"><path d="M680.2 122.4a3.4 3.4 0 0 0-.5 1.7l1.1-1.5a2 2 0 0 0-1.4 2.5 1.5 1.5 0 0 0 2.5.7s.2-.2.2-.2l.5-.3.3-.1h-.1.1a4.2 4.2 0 0 1 .6-.2 2.4 2.4 0 0 0 1.4-.6 2 2 0 0 0 .1-2.4l-1.4-2a7 7 0 0 1-.3-.5l-.2-.3c0-.1 0-.1 0 0a1.4 1.4 0 0 0 0-.3l-.2-.3v-.3c0-.1-.1-.5 0 0a1.6 1.6 0 0 0-.5-1 1.5 1.5 0 0 0-1-.5 1.5 1.5 0 0 0-1.5 1.5l-.2 4.3a1.5 1.5 0 0 0 1.5 1.5 1.5 1.5 0 0 0 1.5-1.5l.2-4.3h-3a7.7 7.7 0 0 0 .8 2.7 14.1 14.1 0 0 0 1.3 2l.3.4a1.8 1.8 0 0 0 .2.2q.2.5.2-.6c0-.5.1-.8.5-.9a1.4 1.4 0 0 0-.5.1 5.1 5.1 0 0 0-.6.2 6.6 6.6 0 0 0-2.4 1.4l2.5.6a1 1 0 0 1-.1.9.5.5 0 0 1-.3.2l-.2.1a1.5 1.5 0 0 0 1.1-1.4v-.1c0-.1 0 0 0 0v-.1a1.5 1.5 0 0 0-.5-2 1.5 1.5 0 0 0-2 .5z"/><path d="M682.7 123.4a1.8 1.8 0 0 0-3 1.3 1.5 1.5 0 0 0 1.8 1.4l4.8-1.5a1.5 1.5 0 1 0-.8-2.8l-4.7 1.4 1.9 1.5-.1.4-.1.3-.3.3-.2.2-.4.1h.1l-.4.1h-.3l-.4-.2-.3-.2a1.5 1.5 0 0 0 2.2-2.2z"/></g><ellipse cx="600.9" cy="77.5" rx="31.3" ry="36.2" fill="none" stroke="#000" stroke-width="4"/><path d="M680.2 129.2a41.1 41.1 0 0 0 1.5-13.5l-2.8.7a89.6 89.6 0 0 0 9 11c1.4 1.3 3.5-.8 2.2-2.2a84 84 0 0 1-8.6-10.3 1.6 1.6 0 0 0-1.7-.7 1.5 1.5 0 0 0-1 1.5 38.4 38.4 0 0 1-1.5 12.7 1.5 1.5 0 0 0 2.9.8Z"/></svg>