<svg id="Layer_25" data-name="Layer 25" xmlns="http://www.w3.org/2000/svg" viewBox="0 0 1728 1583.2"><defs><style>.cls-1{fill:#c7c7d9ed;}.cls-2{fill:#c7c7d9ed;}</style></defs><path class="cls-1" d="M1389.5,456.7a1.2,1.2,0,0,0,0-2.4,1.2,1.2,0,0,0,0,2.4Z"/><path class="cls-1" d="M1097.9,433.3a1.2,1.2,0,1,0,0-2.4,1.2,1.2,0,0,0,0,2.4Z"/><path class="cls-1" d="M385.3,652.1a1.2,1.2,0,0,0,0-2.4,1.2,1.2,0,0,0,0,2.4Z"/><path class="cls-1" d="M1169.7,588.9a1.2,1.2,0,0,0,0-2.4,1.2,1.2,0,0,0,0,2.4Z"/><path class="cls-1" d="M631.8,498.3a1.2,1.2,0,0,0,0-2.4,1.2,1.2,0,0,0,0,2.4Z"/><path class="cls-1" d="M990.3,624.4a1.2,1.2,0,0,0,0-2.4,1.2,1.2,0,0,0,0,2.4Z"/><path class="cls-1" d="M1697.4,944.6a1.2,1.2,0,0,0,0-2.4,1.2,1.2,0,1,0,0,2.4Z"/><path class="cls-1" d="M72.2,686.6a1.2,1.2,0,0,0,0-2.4,1.2,1.2,0,1,0,0,2.4Z"/><path class="cls-1" d="M926.2,642.9a1.2,1.2,0,0,0,0-2.4,1.2,1.2,0,0,0,0,2.4Z"/><path class="cls-1" d="M1009,498.3a1.2,1.2,0,1,0,0-2.4,1.2,1.2,0,0,0,0,2.4Z"/><path class="cls-1" d="M782.9,493.6a1.2,1.2,0,0,0,0-2.4,1.2,1.2,0,1,0,0,2.4Z"/><path class="cls-1" d="M158.5,770.6a1.2,1.2,0,0,0,0-2.4,1.2,1.2,0,0,0,0,2.4Z"/><path class="cls-1" d="M75.4,876.7a1.2,1.2,0,0,0,0-2.4,1.2,1.2,0,0,0,0,2.4Z"/><path class="cls-1" d="M1083.1,724.4a1.2,1.2,0,0,0,0-2.4,1.2,1.2,0,0,0,0,2.4Z"/><path class="cls-1" d="M1423.1,629a1.2,1.2,0,1,0,0-2.4,1.2,1.2,0,0,0,0,2.4Z"/><path class="cls-1" d="M1189,755.8a1.2,1.2,0,0,0,0-2.4,1.2,1.2,0,0,0,0,2.4Z"/><path class="cls-1" d="M167.2,541.6a1.2,1.2,0,0,0,0-2.4,1.2,1.2,0,0,0,0,2.4Z"/><path class="cls-1" d="M1655.4,642.9a1.2,1.2,0,0,0,0-2.4,1.2,1.2,0,0,0,0,2.4Z"/><path class="cls-1" d="M1528.2,509.3a1.5,1.5,0,0,0,0-3,1.5,1.5,0,0,0,0,3Z"/><path class="cls-1" d="M433.7,457a1.5,1.5,0,0,0,0-3,1.5,1.5,0,0,0,0,3Z"/><path class="cls-1" d="M469.3,652.4a1.5,1.5,0,0,0,0-3,1.5,1.5,0,1,0,0,3Z"/><path class="cls-1" d="M1266,509.3a1.5,1.5,0,0,0,0-3,1.5,1.5,0,0,0,0,3Z"/><path class="cls-1" d="M719.8,624.7a1.5,1.5,0,0,0,0-3,1.5,1.5,0,0,0,0,3Z"/><path class="cls-1" d="M1595.8,761a1.2,1.2,0,0,0,0-2.4,1.2,1.2,0,0,0,0,2.4Z"/><path class="cls-1" d="M906.2,760.5a1.2,1.2,0,0,0,0-2.4,1.2,1.2,0,0,0,0,2.4Z"/><path class="cls-1" d="M230.1,876.7a1.2,1.2,0,0,0,0-2.4,1.2,1.2,0,0,0,0,2.4Z"/><path class="cls-1" d="M844.4,860.5a1.2,1.2,0,0,0,0-2.4,1.2,1.2,0,0,0,0,2.4Z"/><path class="cls-1" d="M504.4,765.1a1.2,1.2,0,0,0,0-2.4,1.2,1.2,0,0,0,0,2.4Z"/><path class="cls-1" d="M522.4,860.5a1.2,1.2,0,0,0,0-2.4,1.2,1.2,0,0,0,0,2.4Z"/><path class="cls-1" d="M645.9,912.8a1.2,1.2,0,0,0,0-2.4,1.2,1.2,0,0,0,0,2.4Z"/><path class="cls-1" d="M272,778.9a1.2,1.2,0,0,0,0-2.4,1.2,1.2,0,0,0,0,2.4Z"/><path class="cls-1" d="M1211.4,970.5a1.2,1.2,0,0,0,0-2.4,1.2,1.2,0,0,0,0,2.4Z"/><path class="cls-1" d="M1174.6,876.7a1.2,1.2,0,1,0,0-2.4,1.2,1.2,0,0,0,0,2.4Z"/><path class="cls-1" d="M1030,1052.1a1.2,1.2,0,0,0,0-2.4,1.2,1.2,0,0,0,0,2.4Z"/><path class="cls-1" d="M1389.5,771.5a1.2,1.2,0,0,0,0-2.4,1.2,1.2,0,0,0,0,2.4Z"/><path class="cls-1" d="M1278.3,704.8a1.2,1.2,0,1,0,0-2.4,1.2,1.2,0,0,0,0,2.4Z"/><path class="cls-1" d="M543.2,601.4a1.5,1.5,0,0,0,0-3,1.5,1.5,0,1,0,0,3Z"/><path class="cls-1" d="M260.6,628a1.2,1.2,0,0,0,0-2.4,1.2,1.2,0,0,0,0,2.4Z"/><path class="cls-1" d="M235.3,912.8a1.2,1.2,0,0,0,0-2.4,1.2,1.2,0,0,0,0,2.4Z"/><path class="cls-1" d="M321.9,428.1a1.2,1.2,0,1,0,0-2.4,1.2,1.2,0,0,0,0,2.4Z"/><path class="cls-1" d="M229.6,470a1.2,1.2,0,0,0,0-2.4,1.2,1.2,0,0,0,0,2.4Z"/><path class="cls-1" d="M47.2,997.7a1.2,1.2,0,0,0,0-2.4,1.2,1.2,0,0,0,0,2.4Z"/><path class="cls-1" d="M1534.9,1060.4a1.2,1.2,0,0,0,0-2.4,1.2,1.2,0,0,0,0,2.4Z"/><path class="cls-1" d="M1618,954.3a1.2,1.2,0,0,0,0-2.4,1.2,1.2,0,1,0,0,2.4Z"/><path class="cls-1" d="M167.2,1000.4a1.2,1.2,0,0,0,0-2.4,1.2,1.2,0,0,0,0,2.4Z"/><path class="cls-1" d="M441,1013.9a1.2,1.2,0,0,0,0-2.4,1.2,1.2,0,0,0,0,2.4Z"/><path class="cls-1" d="M224.7,1493.2a1.2,1.2,0,1,0,0-2.4,1.2,1.2,0,0,0,0,2.4Z"/><path class="cls-1" d="M787.2,1070.5a1.2,1.2,0,0,0,0-2.4,1.2,1.2,0,0,0,0,2.4Z"/><path class="cls-1" d="M1497.2,886.4a1.2,1.2,0,0,0,0-2.4,1.2,1.2,0,0,0,0,2.4Z"/><path class="cls-1" d="M849,970.5a1.2,1.2,0,0,0,0-2.4,1.2,1.2,0,0,0,0,2.4Z"/><path class="cls-1" d="M1189,1065.9a1.2,1.2,0,0,0,0-2.4,1.2,1.2,0,0,0,0,2.4Z"/><path class="cls-1" d="M1047.5,918.2a1.2,1.2,0,1,0,0-2.4,1.2,1.2,0,0,0,0,2.4Z"/><path class="cls-1" d="M1492.4,1157.4a1.2,1.2,0,0,0,0-2.4,1.2,1.2,0,0,0,0,2.4Z"/><path class="cls-1" d="M1361.8,934a1.2,1.2,0,0,0,0-2.4,1.2,1.2,0,1,0,0,2.4Z"/><path class="cls-1" d="M365.7,959.5a1.2,1.2,0,0,0,0-2.4,1.2,1.2,0,0,0,0,2.4Z"/><path class="cls-1" d="M347,833.3a1.2,1.2,0,0,0,0-2.4,1.2,1.2,0,0,0,0,2.4Z"/><path class="cls-1" d="M303.9,1059.5a1.2,1.2,0,0,0,0-2.4,1.2,1.2,0,1,0,0,2.4Z"/><path class="cls-1" d="M662.8,997.7a1.2,1.2,0,0,0,0-2.4,1.2,1.2,0,0,0,0,2.4Z"/><path class="cls-1" d="M598.2,706.2a1.2,1.2,0,0,0,0-2.4,1.2,1.2,0,0,0,0,2.4Z"/><path class="cls-1" d="M752,823.4a1.2,1.2,0,0,0,0-2.4,1.2,1.2,0,0,0,0,2.4Z"/><path class="cls-1" d="M41.9,1157.4a1.2,1.2,0,0,0,0-2.4,1.2,1.2,0,0,0,0,2.4Z"/><path class="cls-1" d="M41.9,1312a1.2,1.2,0,0,0,0-2.4,1.2,1.2,0,0,0,0,2.4Z"/><path class="cls-1" d="M162.9,1129.1a1.2,1.2,0,0,0,0-2.4,1.2,1.2,0,0,0,0,2.4Z"/><path class="cls-1" d="M165.7,1249.1a1.2,1.2,0,0,0,0-2.4,1.2,1.2,0,1,0,0,2.4Z"/><path class="cls-1" d="M235.3,1200.5a1.2,1.2,0,0,0,0-2.4,1.2,1.2,0,0,0,0,2.4Z"/><path class="cls-1" d="M124.7,1447.7a1.2,1.2,0,0,0,0-2.4,1.2,1.2,0,0,0,0,2.4Z"/><path class="cls-1" d="M224.7,1385.8a1.2,1.2,0,0,0,0-2.4,1.2,1.2,0,0,0,0,2.4Z"/><path class="cls-1" d="M858.9,1133.1a1.2,1.2,0,0,0,0-2.4,1.2,1.2,0,0,0,0,2.4Z"/><path class="cls-1" d="M470.2,1257.8a1.2,1.2,0,0,0,0-2.4,1.2,1.2,0,1,0,0,2.4Z"/><path class="cls-1" d="M411.1,1217.3a1.2,1.2,0,0,0,0-2.4,1.2,1.2,0,1,0,0,2.4Z"/><path class="cls-1" d="M684.4,1137a1.2,1.2,0,0,0,0-2.4,1.2,1.2,0,0,0,0,2.4Z"/><path class="cls-1" d="M617.4,1238.3a1.2,1.2,0,1,0,0-2.4,1.2,1.2,0,0,0,0,2.4Z"/><path class="cls-1" d="M411.1,1137a1.2,1.2,0,0,0,0-2.4,1.2,1.2,0,0,0,0,2.4Z"/><path class="cls-1" d="M574.2,1095.8a1.2,1.2,0,0,0,0-2.4,1.2,1.2,0,1,0,0,2.4Z"/><path class="cls-1" d="M1702.3,1387.6a1.2,1.2,0,0,0,0-2.4,1.2,1.2,0,0,0,0,2.4Z"/><path class="cls-1" d="M1477.1,1471.6a1.2,1.2,0,1,0,0-2.4,1.2,1.2,0,0,0,0,2.4Z"/><path class="cls-1" d="M1317.3,1205.2a1.2,1.2,0,0,0,0-2.4,1.2,1.2,0,1,0,0,2.4Z"/><path class="cls-1" d="M1534.9,1350.5a1.2,1.2,0,0,0,0-2.4,1.2,1.2,0,0,0,0,2.4Z"/><path class="cls-1" d="M1649.4,1267.3a1.2,1.2,0,0,0,0-2.4,1.2,1.2,0,0,0,0,2.4Z"/><path class="cls-1" d="M1461,1251.5a1.2,1.2,0,0,0,0-2.4,1.2,1.2,0,0,0,0,2.4Z"/><path class="cls-1" d="M952.3,1327.6a1.2,1.2,0,0,0,0-2.4,1.2,1.2,0,1,0,0,2.4Z"/><path class="cls-1" d="M1010.4,1237.3a1.2,1.2,0,1,0,0-2.4,1.2,1.2,0,0,0,0,2.4Z"/><path class="cls-1" d="M1146,1191.2a1.2,1.2,0,0,0,0-2.4,1.2,1.2,0,0,0,0,2.4Z"/><path class="cls-1" d="M1094.3,1303.8a1.2,1.2,0,0,0,0-2.4,1.2,1.2,0,1,0,0,2.4Z"/><path class="cls-1" d="M1655.4,1096.1a1.5,1.5,0,0,0,0-3,1.5,1.5,0,0,0,0,3Z"/><path class="cls-1" d="M1389.5,1095.8a1.2,1.2,0,0,0,0-2.4,1.2,1.2,0,0,0,0,2.4Z"/><path class="cls-1" d="M325.8,1303.8a1.2,1.2,0,0,0,0-2.4,1.2,1.2,0,0,0,0,2.4Z"/><path class="cls-1" d="M355.8,1458.1a1.2,1.2,0,0,0,0-2.4,1.2,1.2,0,1,0,0,2.4Z"/><path class="cls-1" d="M511.5,1529.9a1.2,1.2,0,0,0,0-2.4,1.2,1.2,0,0,0,0,2.4Z"/><path class="cls-1" d="M546.9,1350.5a1.2,1.2,0,0,0,0-2.4,1.2,1.2,0,0,0,0,2.4Z"/><path class="cls-1" d="M420.8,1369.3a1.2,1.2,0,0,0,0-2.4,1.2,1.2,0,1,0,0,2.4Z"/><path class="cls-1" d="M646.9,1412.3a1.2,1.2,0,0,0,0-2.4,1.2,1.2,0,0,0,0,2.4Z"/><path class="cls-1" d="M678.3,1518.2a1.2,1.2,0,1,0,0-2.4,1.2,1.2,0,0,0,0,2.4Z"/><path class="cls-1" d="M799.2,1503.8a1.2,1.2,0,0,0,0-2.4,1.2,1.2,0,0,0,0,2.4Z"/><path class="cls-1" d="M840.7,1376.7a1.2,1.2,0,0,0,0-2.4,1.2,1.2,0,0,0,0,2.4Z"/><path class="cls-1" d="M752,1277.2a1.2,1.2,0,0,0,0-2.4,1.2,1.2,0,0,0,0,2.4Z"/><path class="cls-1" d="M1341,1303.8a1.2,1.2,0,1,0,0-2.4,1.2,1.2,0,0,0,0,2.4Z"/><path class="cls-1" d="M1380.2,1380.5a1.2,1.2,0,0,0,0-2.4,1.2,1.2,0,0,0,0,2.4Z"/><path class="cls-1" d="M1222.5,1521.8a1.2,1.2,0,0,0,0-2.4,1.2,1.2,0,0,0,0,2.4Z"/><path class="cls-1" d="M977.4,1493.2a1.2,1.2,0,0,0,0-2.4,1.2,1.2,0,0,0,0,2.4Z"/><path class="cls-1" d="M1295.3,1397.4a1.2,1.2,0,0,0,0-2.4,1.2,1.2,0,0,0,0,2.4Z"/><path class="cls-1" d="M1156.1,1419a1.2,1.2,0,0,0,0-2.4,1.2,1.2,0,1,0,0,2.4Z"/><path class="cls-1" d="M1197.3,1308.8a1.2,1.2,0,0,0,0-2.4,1.2,1.2,0,0,0,0,2.4Z"/><path class="cls-1" d="M1519.4,674.3a1.2,1.2,0,0,0,0-2.4,1.2,1.2,0,1,0,0,2.4Z"/><path class="cls-1" d="M504.4,1438.9a1.2,1.2,0,0,0,0-2.4,1.2,1.2,0,1,0,0,2.4Z"/><path class="cls-1" d="M1001,833.3a1.2,1.2,0,0,0,0-2.4,1.2,1.2,0,0,0,0,2.4Z"/><path class="cls-1" d="M1655.4,456.7a1.2,1.2,0,0,0,0-2.4,1.2,1.2,0,0,0,0,2.4Z"/><path class="cls-1" d="M895.2,456.7a1.2,1.2,0,0,0,0-2.4,1.2,1.2,0,0,0,0,2.4Z"/><path class="cls-1" d="M1176.7,652.1a1.2,1.2,0,0,0,0-2.4,1.2,1.2,0,0,0,0,2.4Z"/><path class="cls-2" d="M557.1,161.3a1.2,1.2,0,0,0,0-2.4,1.2,1.2,0,0,0,0,2.4Z"/><path class="cls-2" d="M1084.1,318.4a1.2,1.2,0,0,0,0-2.4,1.2,1.2,0,0,0,0,2.4Z"/><path class="cls-2" d="M21.6,385.6a1.2,1.2,0,0,0,0-2.4,1.2,1.2,0,0,0,0,2.4Z"/><path class="cls-2" d="M1685.6,259a1.2,1.2,0,1,0,0-2.4,1.2,1.2,0,0,0,0,2.4Z"/><path class="cls-2" d="M831.6,215.3a1.2,1.2,0,0,0,0-2.4,1.2,1.2,0,1,0,0,2.4Z"/><path class="cls-2" d="M717.7,70.6a1.2,1.2,0,0,0,0-2.4,1.2,1.2,0,0,0,0,2.4Z"/><path class="cls-2" d="M1108.5,39.9a1.2,1.2,0,1,0,0-2.4,1.2,1.2,0,0,0,0,2.4Z"/><path class="cls-2" d="M943.9,66a1.2,1.2,0,0,0,0-2.4,1.2,1.2,0,0,0,0,2.4Z"/><path class="cls-2" d="M1137.7,206a1.2,1.2,0,1,0,0-2.4,1.2,1.2,0,0,0,0,2.4Z"/><path class="cls-2" d="M1322.1,349.1a1.2,1.2,0,0,0,0-2.4,1.2,1.2,0,0,0,0,2.4Z"/><path class="cls-2" d="M1599.3,343a1.2,1.2,0,0,0,0-2.4,1.2,1.2,0,0,0,0,2.4Z"/><path class="cls-2" d="M674.7,296.8a1.2,1.2,0,0,0,0-2.4,1.2,1.2,0,0,0,0,2.4Z"/><path class="cls-2" d="M334.7,201.4a1.2,1.2,0,0,0,0-2.4,1.2,1.2,0,0,0,0,2.4Z"/><path class="cls-2" d="M200.6,403a1.2,1.2,0,0,0,0-2.4,1.2,1.2,0,0,0,0,2.4Z"/><path class="cls-2" d="M445.2,349.1a1.2,1.2,0,0,0,0-2.4,1.2,1.2,0,0,0,0,2.4Z"/><path class="cls-2" d="M1639.3,76.8a1.2,1.2,0,0,0,0-2.4,1.2,1.2,0,0,0,0,2.4Z"/><path class="cls-2" d="M102.4,215.3a1.2,1.2,0,0,0,0-2.4,1.2,1.2,0,1,0,0,2.4Z"/><path class="cls-2" d="M265.4,50.9a1.5,1.5,0,0,0,0-3,1.5,1.5,0,0,0,0,3Z"/><path class="cls-2" d="M1293.1,29.4a1.5,1.5,0,0,0,0-3,1.5,1.5,0,0,0,0,3Z"/><path class="cls-2" d="M1288.5,224.8a1.5,1.5,0,0,0,0-3,1.5,1.5,0,0,0,0,3Z"/><path class="cls-2" d="M460.8,81.7a1.5,1.5,0,1,0,0-3,1.5,1.5,0,0,0,0,3Z"/><path class="cls-2" d="M1007,197.1a1.5,1.5,0,0,0,0-3,1.5,1.5,0,1,0,0,3Z"/></svg>